<svg xmlns="http://www.w3.org/2000/svg" width="64.32" height="64.32" viewBox="0 0 64.32 64.32">
  <g id="icon15" transform="translate(-1125.11 -428.239)">
    <circle id="Elipse_6787" data-name="Elipse 6787" cx="31.16" cy="31.16" r="31.16" transform="translate(1127.11 428.239)" fill="#e7edf4"/>
    <circle id="Elipse_6800" data-name="Elipse 6800" cx="31.16" cy="31.16" r="31.16" transform="translate(1125.11 430.239)" fill="#fff"/>
    <g id="Grupo_85023" data-name="Grupo 85023">
      <path id="Trazado_142678" data-name="Trazado 142678" d="M1169.52,473.18h-19.33a.56.56,0,1,1,0-1.12,2.52,2.52,0,0,0,2.52-2.52v-3.08a.57.57,0,0,1,.56-.56H1173a.57.57,0,0,1,.56.56v2.74a4,4,0,0,1-4.04,3.98Zm-16.71-1.12h16.71a2.87,2.87,0,0,0,2.87-2.86V467h-18.56v2.52A3.609,3.609,0,0,1,1152.81,472.06Z" fill="#12263f"/>
      <path id="Trazado_142679" data-name="Trazado 142679" d="M1150.19,473.18a3.56,3.56,0,0,1-2.51-1,3.78,3.78,0,0,1-1.13-2.68V445.74a2.33,2.33,0,0,0-2.34-2.33.56.56,0,1,1,0-1.12h11.12a.56.56,0,1,1,0,1.12h-8.57a3.439,3.439,0,0,1,.91,2.33v23.72a2.66,2.66,0,0,0,.79,1.88,2.43,2.43,0,0,0,1.78.72,2.53,2.53,0,0,0,2.47-2.52v-3.08a.57.57,0,0,1,.56-.56h13.79V461a.56.56,0,0,1,1.12,0v5.45a.56.56,0,0,1-.56.56h-13.8v2.52a3.66,3.66,0,0,1-3.56,3.64Z" fill="#12263f"/>
      <path id="Trazado_142680" data-name="Trazado 142680" d="M1144.9,452.76h-3.84a.56.56,0,0,1-.56-.56V446a3.72,3.72,0,0,1,3.71-3.71.56.56,0,1,1,0,1.12,2.59,2.59,0,0,0-2.59,2.59v5.64h3.28a.56.56,0,1,1,0,1.12Z" fill="#12263f"/>
      <path id="Trazado_142681" data-name="Trazado 142681" d="M1155.33,448.27h-5.46a.56.56,0,1,1,0-1.12h5.46a.56.56,0,1,1,0,1.12Z" fill="#12263f"/>
      <path id="Trazado_142682" data-name="Trazado 142682" d="M1155.33,450.49h-5.46a.56.56,0,1,1,0-1.12h5.46a.56.56,0,1,1,0,1.12Z" fill="#12263f"/>
      <path id="Trazado_142683" data-name="Trazado 142683" d="M1155.33,452.7h-5.46a.56.56,0,1,1,0-1.12h5.46a.56.56,0,1,1,0,1.12Z" fill="#12263f"/>
      <path id="Trazado_142684" data-name="Trazado 142684" d="M1155.33,454.92h-5.46a.56.56,0,1,1,0-1.12h5.46a.56.56,0,1,1,0,1.12Z" fill="#12263f"/>
      <path id="Trazado_142685" data-name="Trazado 142685" d="M1155.33,457.13h-5.46a.56.56,0,1,1,0-1.11h5.46a.56.56,0,0,1,0,1.11Z" fill="#12263f"/>
      <path id="Trazado_142686" data-name="Trazado 142686" d="M1155.33,459.35h-5.46a.56.56,0,1,1,0-1.12h5.46a.56.56,0,1,1,0,1.12Z" fill="#12263f"/>
      <path id="Trazado_142687" data-name="Trazado 142687" d="M1165.38,461.57h-15.51a.56.56,0,1,1,0-1.12h15.51a.56.56,0,1,1,0,1.12Z" fill="#12263f"/>
      <path id="Trazado_142688" data-name="Trazado 142688" d="M1165.38,463.78h-15.51a.56.56,0,1,1,0-1.11h15.51a.56.56,0,1,1,0,1.11Z" fill="#12263f"/>
      <path id="Trazado_142689" data-name="Trazado 142689" d="M1172,458.19h-12.19a1.33,1.33,0,0,1-1.33-1.33v-1.69a1.32,1.32,0,0,1,1.33-1.33H1172a1.33,1.33,0,0,1,1.34,1.33v1.69a1.34,1.34,0,0,1-1.34,1.33ZM1159.79,455a.22.22,0,0,0-.22.22v1.69a.21.21,0,0,0,.22.21H1172a.21.21,0,0,0,.22-.21v-1.69a.22.22,0,0,0-.22-.22Z" fill="#12263f"/>
      <path id="Trazado_142690" data-name="Trazado 142690" d="M1169,458.19h-6.27c-.55,0-1-.56-1-1.33v-1.69c0-.77.41-1.33,1-1.33H1169c.56,0,1,.56,1,1.33v1.69C1170,457.63,1169.58,458.19,1169,458.19Zm-6.08-1.12h5.89a.578.578,0,0,0,0-.21v-1.69a.656.656,0,0,0,0-.22h-5.89a.653.653,0,0,0,0,.22v1.69a.581.581,0,0,0,.02.21Z" fill="#12263f"/>
      <path id="Trazado_142691" data-name="Trazado 142691" d="M1170.59,455H1158.4a1.34,1.34,0,0,1-1.33-1.33v-1.69a1.34,1.34,0,0,1,1.33-1.33h12.19a1.34,1.34,0,0,1,1.34,1.33v1.69a1.34,1.34,0,0,1-1.34,1.33Zm-12.19-3.23a.21.21,0,0,0-.21.21v1.69a.21.21,0,0,0,.21.22h12.19a.22.22,0,0,0,.22-.22v-1.69a.21.21,0,0,0-.22-.21Z" fill="#12263f"/>
      <path id="Trazado_142692" data-name="Trazado 142692" d="M1167.63,455h-6.27c-.55,0-1-.56-1-1.33v-1.69c0-.77.41-1.33,1-1.33h6.27c.56,0,1,.56,1,1.33v1.69C1168.59,454.39,1168.19,455,1167.63,455Zm-6.08-1.11h5.9a1.273,1.273,0,0,0,0-.22v-1.69a1.059,1.059,0,0,0,0-.21h-5.9a1.006,1.006,0,0,0,0,.21v1.69a1.162,1.162,0,0,0,0,.17Z" fill="#12263f"/>
      <path id="Trazado_142693" data-name="Trazado 142693" d="M1172.71,451.72h-12.19a1.34,1.34,0,0,1-1.34-1.34V448.7a1.34,1.34,0,0,1,1.34-1.34h12.19a1.34,1.34,0,0,1,1.33,1.34v1.68A1.34,1.34,0,0,1,1172.71,451.72Zm-12.19-3.24a.22.22,0,0,0-.22.22v1.68a.22.22,0,0,0,.22.22h12.19a.21.21,0,0,0,.21-.22V448.7a.21.21,0,0,0-.21-.22Z" fill="#12263f"/>
      <path id="Trazado_142694" data-name="Trazado 142694" d="M1169.75,451.72h-6.27c-.56,0-1-.57-1-1.34V448.7c0-.78.4-1.34,1-1.34h6.27c.55,0,1,.56,1,1.34v1.68C1170.71,451.15,1170.3,451.72,1169.75,451.72Zm-6.09-1.12h5.9a.653.653,0,0,0,0-.22V448.7a.611.611,0,0,0,0-.22h-5.9a1.1,1.1,0,0,0,0,.22v1.68a1.162,1.162,0,0,0,0,.22Z" fill="#12263f"/>
      <path id="Trazado_142695" data-name="Trazado 142695" d="M1170.76,448.48h-12.19a1.34,1.34,0,0,1-1.34-1.34v-1.68a1.34,1.34,0,0,1,1.34-1.34h12.19a1.34,1.34,0,0,1,1.33,1.34v1.68A1.34,1.34,0,0,1,1170.76,448.48Zm-12.19-3.24a.22.22,0,0,0-.22.22v1.68a.22.22,0,0,0,.22.22h12.19a.22.22,0,0,0,.22-.22v-1.68a.22.22,0,0,0-.22-.22Z" fill="#12263f"/>
      <path id="Trazado_142696" data-name="Trazado 142696" d="M1167.8,448.48h-6.27c-.56,0-1-.56-1-1.34v-1.68c0-.77.4-1.34,1-1.34h6.27c.55,0,1,.57,1,1.34v1.68C1168.76,447.92,1168.35,448.48,1167.8,448.48Zm-6.08-1.12h5.89a.611.611,0,0,0,0-.22v-1.68a.653.653,0,0,0,0-.22h-5.89a.653.653,0,0,0,0,.22v1.68a.611.611,0,0,0,0,.22Z" fill="#12263f"/>
    </g>
  </g>
</svg>
