<svg xmlns="http://www.w3.org/2000/svg" width="120" height="120" viewBox="0 0 120 120">
  <g id="icon2" transform="translate(-0.48)">
    <rect id="Rectángulo_36242" data-name="Rectángulo 36242" width="120" height="120" transform="translate(0.48)" fill="none"/>
    <path id="Trazado_139867" data-name="Trazado 139867" d="M102.43,17.12V18L100,20.77l2.47,3.41v1.45a10.55,10.55,0,0,1-1.75,2.09c-2.2,1.59-4.49,3.05-6.76,4.54a5.09,5.09,0,0,1-1.38.64,3.38,3.38,0,0,1-3.4-1.2l-4.39,4.37h0l.58.69c9.3,10.87,12.7,23.37,10,37.41A43.09,43.09,0,0,1,60.6,108.09c-1.68.29-3.39.47-5.09.7H50.26c-.3-.05-.59-.14-.88-.16a40.38,40.38,0,0,1-15.5-4.3C20.08,97.18,12,85.88,10,70.44a39.81,39.81,0,0,1,3.26-22.11c6.86-15,18.54-23.65,34.9-25.8a41.48,41.48,0,0,1,24.07,4.21A42.59,42.59,0,0,1,82.3,33.66l4.38-4.43c-1.43-1.59-1.65-2.92-.6-4.54,1.57-2.4,3.16-4.79,4.78-7.15a3.2,3.2,0,0,1,5.08-.49c.53.52,1,1.12,1.62,1.81.72-.78,1.28-1.42,1.87-2C100.61,15.65,101.46,15.74,102.43,17.12Zm-50,23.6c-.65.06-1.85.13-3.05.29a24.78,24.78,0,1,0,23.4,9.66,2.2,2.2,0,0,0-1.47-1,3.19,3.19,0,0,1-2.53-2.54A2.48,2.48,0,0,0,68,45.88a25,25,0,0,0-15.58-5.16ZM80.16,36C65.92,22.38,41.05,20.76,24.59,37A40.19,40.19,0,1,0,84,91.07c14.29-17.32,10.56-40.58-1.41-52.64l-2.07,1.81c1,.92,1.86,1.76,2.71,2.65a3.25,3.25,0,0,1,.6,3.77,1.43,1.43,0,0,0,0,1.11,35.658,35.658,0,0,1-5.04,42.09,34.87,34.87,0,0,1-40.63,7.83c-12.77-6-19.67-16.41-20.61-30.47a33.42,33.42,0,0,1,9.1-25.55c8.41-9.16,19-12.86,31.27-11.39a33.79,33.79,0,0,1,12.76,4.36,1.26,1.26,0,0,0,1,.12,3.3,3.3,0,0,1,4.19.76c.8.81,1.58,1.65,2.35,2.45ZM69.22,42.8c.22-1.44.37-2.78.63-4.11a1.07,1.07,0,0,0-.62-1.35A31.78,31.78,0,0,0,46.42,33.7,32.38,32.38,0,0,0,22.35,76.1c7.53,22.24,36.35,29.17,53.12,12.73,7.7-7.54,10.86-16.78,9.7-27.47A30.27,30.27,0,0,0,81,49.12c-.15-.26-.52-.59-.75-.56-1.51.17-3,.44-4.62.69a27.65,27.65,0,0,1,4.72,21.07A27.12,27.12,0,0,1,68.74,88.4a27.84,27.84,0,1,1,.48-45.6ZM88.48,26.65c1,1,1.93,1.87,2.81,2.82.4.43.68.42,1.14.11,2.09-1.43,4.21-2.82,6.31-4.23A4.639,4.639,0,0,0,99.2,25l-5.75-5.8Zm-15.3,11L71.75,46.7l9.13-1.38Z" fill="#1565c0"/>
    <path id="Trazado_139868" data-name="Trazado 139868" d="M59.3,50h7a1.647,1.647,0,0,1,2.01,1.64c0,.47-.57,1-1,1.32-.23.19-.7.13-1.05.13H51.76c-1.14,0-1.84-.64-1.83-1.57S50.64,50,51.8,50Z" fill="#1565c0"/>
    <path id="Trazado_139869" data-name="Trazado 139869" d="M59.19,62.37H52.05a3.44,3.44,0,0,1-1.15-.16,1.37,1.37,0,0,1-.9-1.49,1.42,1.42,0,0,1,1.2-1.4,4.35,4.35,0,0,1,.81,0H66.42a4.47,4.47,0,0,1,.73,0,1.51,1.51,0,0,1,.25,2.92,3.45,3.45,0,0,1-1.07.13Z" fill="#1565c0"/>
    <path id="Trazado_139870" data-name="Trazado 139870" d="M59.2,68.54h7.32c1.24,0,1.92.56,1.91,1.53s-.69,1.55-1.92,1.56H51.78c-.72,0-1.4-.18-1.64-.88a1.85,1.85,0,0,1,.11-1.49,2.27,2.27,0,0,1,1.53-.69C54.25,68.5,56.73,68.54,59.2,68.54Z" fill="#1565c0"/>
    <path id="Trazado_139871" data-name="Trazado 139871" d="M59.19,80.88H51.86c-1.19,0-1.93-.61-1.93-1.55s.73-1.53,2-1.53H66.52c1.23,0,1.92.56,1.92,1.54s-.7,1.54-1.93,1.54C64.07,80.89,61.63,80.88,59.19,80.88Z" fill="#1565c0"/>
    <path id="Trazado_139872" data-name="Trazado 139872" d="M40.73,78.68c1.11-1.12,2.15-2.2,3.22-3.26.85-.84,1.77-.91,2.44-.21s.56,1.56-.25,2.38C44.76,79,43.38,80.37,42,81.74a1.62,1.62,0,0,1-2.65,0c-.37-.36-.73-.72-1.09-1.09-.78-.81-.86-1.63-.23-2.31a1.55,1.55,0,0,1,2.32,0Z" fill="#1565c0"/>
    <path id="Trazado_139873" data-name="Trazado 139873" d="M40.74,50.9c1.1-1.13,2.15-2.21,3.21-3.28a1.63,1.63,0,0,1,2.39-.26c.7.67.63,1.6-.22,2.45C44.74,51.2,43.36,52.59,42,54a1.58,1.58,0,0,1-2.58,0c-.39-.37-.78-.76-1.15-1.15A1.55,1.55,0,0,1,38,50.51a1.58,1.58,0,0,1,2.32.08Z" fill="#1565c0"/>
    <path id="Trazado_139874" data-name="Trazado 139874" d="M40.71,60.16C41.82,59,42.87,58,43.94,56.9a1.62,1.62,0,0,1,2.45-.22c.65.67.56,1.56-.26,2.38-1.37,1.39-2.75,2.78-4.15,4.15-.95.94-1.68.92-2.64,0-.39-.37-.78-.75-1.15-1.15A1.53,1.53,0,0,1,38,59.79a1.56,1.56,0,0,1,2.25,0A5.684,5.684,0,0,1,40.71,60.16Z" fill="#1565c0"/>
    <path id="Trazado_139875" data-name="Trazado 139875" d="M40.72,69.42c1.11-1.12,2.16-2.2,3.22-3.26.84-.84,1.79-.91,2.45-.22s.56,1.56-.25,2.39L42,72.48a1.61,1.61,0,0,1-2.65,0c-.39-.38-.78-.76-1.15-1.15A1.558,1.558,0,1,1,40.27,69C40.39,69.12,40.5,69.23,40.72,69.42Z" fill="#1565c0"/>
  </g>
</svg>
