<svg xmlns="http://www.w3.org/2000/svg" width="64.32" height="64.32" viewBox="0 0 64.32 64.32">
  <g id="icon11" transform="translate(-518.51 -428.239)">
    <circle id="Elipse_6779" data-name="Elipse 6779" cx="31.16" cy="31.16" r="31.16" transform="translate(520.51 428.239)" fill="#e7edf4"/>
    <g id="Grupo_85433" data-name="Grupo 85433">
      <circle id="Elipse_6796" data-name="Elipse 6796" cx="31.16" cy="31.16" r="31.16" transform="translate(518.51 430.239)" fill="#fff"/>
      <g id="Grupo_85022" data-name="Grupo 85022">
        <path id="Trazado_142667" data-name="Trazado 142667" d="M538.07,463.51a.56.56,0,0,1,.56.55v4.53a.56.56,0,0,1-.56.56h-2.71l6.81,8,6.81-8h-2.71a.56.56,0,0,1,0-1.12h3.92a.56.56,0,0,1,.51.33.55.55,0,0,1-.08.59l-8,9.39a.58.58,0,0,1-.85,0l-8-9.39a.55.55,0,0,1-.08-.59.56.56,0,0,1,.51-.33h3.36v-4a.56.56,0,0,1,.51-.52Z" fill="#12263f"/>
        <path id="Trazado_142668" data-name="Trazado 142668" d="M564.09,463.51a.56.56,0,0,1,.56.55v4H568a.56.56,0,0,1,.42.92l-8,9.39a.58.58,0,0,1-.85,0l-8-9.39a.55.55,0,0,1-.08-.59A.56.56,0,0,1,552,468h3.92a.56.56,0,1,1,0,1.12h-2.71l6.81,8,6.81-8h-2.71a.56.56,0,0,1-.55-.56v-4.53A.55.55,0,0,1,564.09,463.51Z" fill="#12263f"/>
        <path id="Trazado_142669" data-name="Trazado 142669" d="M535.36,451H566.8a.56.56,0,0,1,.56.56v12.41a.56.56,0,0,1-.56.56H535.36a.56.56,0,0,1-.56-.56V451.53a.56.56,0,0,1,.56-.53Zm30.88,1.12H535.92v11.29h30.32Z" fill="#12263f"/>
        <path id="Trazado_142670" data-name="Trazado 142670" d="M551.08,451c3,0,5.52,3,5.52,6.76s-2.48,6.77-5.52,6.77-5.52-3-5.52-6.77S548,451,551.08,451Zm0,12.41c2.43,0,4.4-2.53,4.4-5.65s-2-5.64-4.4-5.64-4.4,2.53-4.4,5.64,1.97,5.62,4.4,5.62Z" fill="#12263f"/>
        <path id="Trazado_142671" data-name="Trazado 142671" d="M551.08,459.65a.56.56,0,0,1,.56.56v.5a.56.56,0,0,1-1.12,0v-.5A.56.56,0,0,1,551.08,459.65Z" fill="#12263f"/>
        <path id="Trazado_142672" data-name="Trazado 142672" d="M551.08,454.7a1.84,1.84,0,0,1,1.88,1.8.56.56,0,1,1-1.11,0,.78.78,0,1,0-.77.68A1.79,1.79,0,1,1,549.2,459a.56.56,0,1,1,1.11,0,.78.78,0,1,0,.77-.68,1.8,1.8,0,1,1,0-3.59Z" fill="#12263f"/>
        <path id="Trazado_142673" data-name="Trazado 142673" d="M551.08,454.14a.56.56,0,0,1,.56.56v.56a.56.56,0,1,1-1.12,0v-.56A.56.56,0,0,1,551.08,454.14Z" fill="#12263f"/>
        <path id="Trazado_142674" data-name="Trazado 142674" d="M540.91,457.18h2.31a.56.56,0,1,1,0,1.11h-2.31a.56.56,0,1,1,0-1.11Z" fill="#12263f"/>
        <path id="Trazado_142675" data-name="Trazado 142675" d="M539.51,453.39h4.12a.56.56,0,0,1,0,1.12H540a2,2,0,0,1-1.32,1.32v3.81A2,2,0,0,1,540,461h3.64a.56.56,0,1,1,0,1.11h-4.12a.55.55,0,0,1-.55-.55.84.84,0,0,0-.84-.84.56.56,0,0,1-.56-.56v-4.77a.56.56,0,0,1,.56-.56A.84.84,0,0,0,539,454a.56.56,0,0,1,.51-.61Z" fill="#12263f"/>
        <path id="Trazado_142676" data-name="Trazado 142676" d="M558.94,457.18h2.31a.56.56,0,1,1,0,1.11h-2.31a.56.56,0,1,1,0-1.11Z" fill="#12263f"/>
        <path id="Trazado_142677" data-name="Trazado 142677" d="M558.53,453.39h4.12a.56.56,0,0,1,.56.56.83.83,0,0,0,.84.84.56.56,0,0,1,.55.56v4.77a.56.56,0,0,1-.55.56.83.83,0,0,0-.84.84.56.56,0,0,1-.56.55h-4.12a.56.56,0,1,1,0-1.11h3.64a2,2,0,0,1,1.32-1.32v-3.81a2,2,0,0,1-1.32-1.32h-3.64a.56.56,0,0,1,0-1.12Z" fill="#12263f"/>
      </g>
    </g>
  </g>
</svg>
