<svg id="icon6" xmlns="http://www.w3.org/2000/svg" xmlns:xlink="http://www.w3.org/1999/xlink" width="150" height="150" viewBox="0 0 150 150">
  <defs>
    <linearGradient id="linear-gradient" x1="0.816" y1="0.113" x2="0.184" y2="0.887" gradientUnits="objectBoundingBox">
      <stop offset="0" stop-color="#fff"/>
      <stop offset="0.51" stop-color="#fdfdfd"/>
      <stop offset="0.7" stop-color="#f6f6f6"/>
      <stop offset="0.83" stop-color="#ebebeb"/>
      <stop offset="0.86" stop-color="#e6e6e6"/>
    </linearGradient>
  </defs>
  <rect id="Rectángulo_36450" data-name="Rectángulo 36450" width="150" height="150" fill="none"/>
  <circle id="Elipse_6776" data-name="Elipse 6776" cx="68.45" cy="68.45" r="68.45" transform="translate(8.113 6.55)" fill="#35afea"/>
  <g id="Grupo_84996" data-name="Grupo 84996" transform="translate(19.44 20.298)">
    <path id="Trazado_142483" data-name="Trazado 142483" d="M102.875,38.128c0,.588.412.95.662,1.4q12.188,21.512,2.125,44.1a65.088,65.088,0,0,1-3.95,6.987c-.238.288-.5.563-.725.863a49.811,49.811,0,0,1-6.475,7.2c-1.462,1.362-3.187,2.388-4.587,3.75-2.5,1.425-5,3-7.637,4.213A46.8,46.8,0,0,1,59.55,110.7a46.138,46.138,0,0,1-22.812-7.712A47.255,47.255,0,0,1,24.725,35.653,46.25,46.25,0,0,1,53.237,17.29a45.887,45.887,0,0,1,29.538,3.425A47.15,47.15,0,0,1,100.237,34.69a2.252,2.252,0,0,0,.25.237,24.162,24.162,0,0,0,2.388,3.2Zm-8.05,2.5a31.85,31.85,0,0,0-6.587-7.187,33.15,33.15,0,0,0-9.563-5.875,2.675,2.675,0,0,0-.475-.288A39.4,39.4,0,0,0,24.262,55.69a22,22,0,0,0-.562,3.925,31.125,31.125,0,0,0-.088,7.7,38.937,38.937,0,0,0,8.413,20.813,30.425,30.425,0,0,0,6.65,6.45,23.037,23.037,0,0,0,5.625,3.75A39.462,39.462,0,0,0,93.887,87.815a38.45,38.45,0,0,0,8.375-24.637,37.863,37.863,0,0,0-3.175-15.1,14.9,14.9,0,0,0-2.113-3.987,13.325,13.325,0,0,0-2.113-3.412Z" transform="translate(-15.552 -16.239)" fill="#1565b2"/>
    <path id="Trazado_142484" data-name="Trazado 142484" d="M102.1,23.748a11.5,11.5,0,0,1,0,3.925,8.012,8.012,0,0,1-5.813,5.663,8.325,8.325,0,0,1-5.912-.8A12.375,12.375,0,0,1,87.6,29.773a7.95,7.95,0,0,1,0-7.8A7.413,7.413,0,0,1,95,17.9a7.5,7.5,0,0,1,6.925,5.338A.571.571,0,0,0,102.1,23.748Zm-3.75,2a1.635,1.635,0,1,1-.075,0Z" transform="translate(2.206 -15.834)" fill="#1565b2"/>
    <path id="Trazado_142485" data-name="Trazado 142485" d="M95.263,84.185l-3.95,3.9c-1.8.15-3.6.262-5.387.45a40.664,40.664,0,0,0-8.275,1.587l-2.6-2.5c1.4-1.412,3.125-2.5,4.588-3.75a49.813,49.813,0,0,0,6.475-7.2c.225-.3.487-.575.725-.863Q91.063,79.935,95.263,84.185Z" transform="translate(-0.677 -1.346)" fill="#b10d24"/>
    <path id="Trazado_142486" data-name="Trazado 142486" d="M77.13,87.665A40.661,40.661,0,0,1,85.4,86.09c1.787-.187,3.588-.3,5.387-.45l-7.787,7.825C80.918,91.665,79.043,89.652,77.13,87.665Z" transform="translate(-0.157 1.112)" fill="#ec2a4c"/>
    <path id="Trazado_142487" data-name="Trazado 142487" d="M88.325,27.39A12.375,12.375,0,0,0,91.1,30.153L85.9,35.34a23.212,23.212,0,0,1-2.4-3.225Z" transform="translate(1.435 -13.451)" fill="#ec2a4c"/>
    <path id="Trazado_142488" data-name="Trazado 142488" d="M22.52,54.107A39.4,39.4,0,0,1,76.457,25.694a2.675,2.675,0,0,1,.475.287c0,.137,0,.325.15.412a32.276,32.276,0,0,1,3.963,3.988,37.075,37.075,0,0,1,7.5,13.113L86.87,45.319c-.175-.062-.363-.125-.525-.2A7.912,7.912,0,0,0,76.007,56.182L63.2,68.957a8.562,8.562,0,0,0-8.063,0l-8.888-8.75.3-.725a7.6,7.6,0,0,0-1.337-8.613,7.413,7.413,0,0,0-8.125-2.2,7.975,7.975,0,0,0-5.35,5.525Z" transform="translate(-13.81 -14.655)" fill="#edffff"/>
    <path id="Trazado_142489" data-name="Trazado 142489" d="M37.1,86.68a30.425,30.425,0,0,1-6.65-6.45,38.938,38.938,0,0,1-8.413-20.812,31.125,31.125,0,0,1,.087-7.7H31.9a8.35,8.35,0,0,0,3.612,4.775,8.075,8.075,0,0,0,8.112.113l8.838,8.825c-.112.288-.225.563-.35.838A7.862,7.862,0,1,0,66.777,71.9a8.6,8.6,0,0,0-.637-6.463l12.7-12.712a1.775,1.775,0,0,1,.525.1c4.913,2.112,9.55,0,11.25-5,.213.212.162.487.175.75a35.688,35.688,0,0,1-.487,8A39.412,39.412,0,0,1,75.977,80.542,38.75,38.75,0,0,1,53.989,89.08a37.5,37.5,0,0,1-13.2-1.363A19.038,19.038,0,0,0,37.1,86.68Z" transform="translate(-13.979 -8.341)" fill="#edffff"/>
    <path id="Trazado_142490" data-name="Trazado 142490" d="M34.05,89.005a19.037,19.037,0,0,1,3.75,1.037,37.5,37.5,0,0,0,13.2,1.4,38.75,38.75,0,0,0,21.925-8.575,39.412,39.412,0,0,0,14.275-24,35.688,35.688,0,0,0,.488-8,1.122,1.122,0,0,0-.175-.75,8.625,8.625,0,0,0-.8-6l.3-.312L92.35,38.53a14.9,14.9,0,0,1,2.113,3.987,37.863,37.863,0,0,1,3.175,15.1A39.475,39.475,0,0,1,64.163,96.943a38.75,38.75,0,0,1-24.488-4.15,23.037,23.037,0,0,1-5.625-3.787Z" transform="translate(-10.927 -10.666)" fill="#91e6dd"/>
    <path id="Trazado_142491" data-name="Trazado 142491" d="M77.653,42.813a37.075,37.075,0,0,0-7.5-13.112,32.275,32.275,0,0,0-3.962-3.988c-.1-.087-.1-.275-.15-.412a33.15,33.15,0,0,1,9.575,5.875,31.85,31.85,0,0,1,6.625,7.238l-4.362,4.35Z" transform="translate(-2.93 -13.973)" fill="#98c7df"/>
    <path id="Trazado_142492" data-name="Trazado 142492" d="M31.845,51.715H22.07a22,22,0,0,1,.563-3.925h9.212a12.288,12.288,0,0,0,0,3.925Z" transform="translate(-13.922 -8.351)" fill="#ec2a4c"/>
    <path id="Trazado_142493" data-name="Trazado 142493" d="M75.48,40.14l4.4-4.35A13.325,13.325,0,0,1,82.03,39.2l-5.337,5.275A26.174,26.174,0,0,1,75.48,40.14Z" transform="translate(-0.57 -11.351)" fill="#b10d24"/>
    <path id="Trazado_142494" data-name="Trazado 142494" d="M79.125,43.757a8.625,8.625,0,0,1,.8,6.05c-1.65,5-6.25,7.113-11.25,5a1.775,1.775,0,0,0-.525-.1,21.563,21.563,0,0,1-2.687-2.862A7.912,7.912,0,0,1,75.8,40.782c.163.075.35.138.525.2A12.587,12.587,0,0,1,79.125,43.757Zm-6.762,7.938a3.85,3.85,0,0,0,3.875-3.875,3.937,3.937,0,1,0-3.875,3.875Z" transform="translate(-3.34 -10.305)" fill="#1565b2"/>
    <path id="Trazado_142495" data-name="Trazado 142495" d="M29.921,52.9a12.287,12.287,0,0,1,0-3.887,7.975,7.975,0,0,1,5.35-5.525,7.413,7.413,0,0,1,8.125,2.2A7.6,7.6,0,0,1,44.733,54.3l-.3.725a13.275,13.275,0,0,1-2.788,2.762,8.075,8.075,0,0,1-8.112-.112A8.35,8.35,0,0,1,29.921,52.9Zm3.75-1.975A3.9,3.9,0,0,0,37.6,54.9a3.95,3.95,0,1,0-3.925-3.975Z" transform="translate(-11.998 -9.533)" fill="#1565b2"/>
    <path id="Trazado_142496" data-name="Trazado 142496" d="M60.217,62.669a8.6,8.6,0,0,1,.637,6.463,7.862,7.862,0,1,1-14.662-5.638c.125-.275.237-.55.35-.838a13.275,13.275,0,0,1,2.837-2.775,8.562,8.562,0,0,1,8.063,0,14.65,14.65,0,0,1,2.775,2.787Zm-6.762.113a3.95,3.95,0,1,0,3.913,3.95A4,4,0,0,0,53.454,62.782Z" transform="translate(-8.056 -5.58)" fill="#1565b2"/>
    <path id="Trazado_142497" data-name="Trazado 142497" d="M57.835,65.022a14.65,14.65,0,0,0-2.775-2.787L67.848,49.46a21.562,21.562,0,0,0,2.688,2.863Z" transform="translate(-5.675 -7.933)" fill="#ec2a4c"/>
    <path id="Trazado_142498" data-name="Trazado 142498" d="M50.945,61.442a13.275,13.275,0,0,0-2.838,2.775L39.27,55.393a13.275,13.275,0,0,0,2.787-2.763Z" transform="translate(-9.622 -7.141)" fill="#ec2a4c"/>
    <path id="Trazado_142499" data-name="Trazado 142499" d="M76.725,43.923A12.587,12.587,0,0,0,74,41.135l1.688-1.825h.188a26.175,26.175,0,0,0,1.175,4.338Z" transform="translate(-0.94 -10.471)" fill="#ec2a4c"/>
    <path id="Trazado_142500" data-name="Trazado 142500" d="M71.56,50.9a3.912,3.912,0,1,1,3.875-3.875A3.85,3.85,0,0,1,71.56,50.9Z" transform="translate(-2.537 -9.528)" fill="#edffff"/>
    <path id="Trazado_142501" data-name="Trazado 142501" d="M32.92,50.12a3.925,3.925,0,1,1,1.132,2.808A3.912,3.912,0,0,1,32.92,50.12Z" transform="translate(-11.21 -8.731)" fill="#edffff"/>
    <path id="Trazado_142502" data-name="Trazado 142502" d="M52.675,62a3.95,3.95,0,1,1-4.025,3.925A3.95,3.95,0,0,1,52.675,62Z" transform="translate(-7.277 -4.798)" fill="#edffff"/>
  </g>
  <path id="Trazado_142503" data-name="Trazado 142503" d="M93.555,82.51c1.8,1.612,3.438,3.387,5.138,5.113,3.95,3.963,7.925,7.9,11.862,11.875a8.387,8.387,0,0,1,1.063,11.125,8.212,8.212,0,0,1-12.5.988c-5.837-5.6-11.45-11.363-17.087-17.063a1.126,1.126,0,0,1-.15-.3l7.787-7.837Z" transform="translate(20.47 20.628)" fill="#1565b2"/>
  <g id="Grupo_84997" data-name="Grupo 84997" transform="translate(1.988 5.737)" opacity="0.15">
    <path id="Trazado_142504" data-name="Trazado 142504" d="M72.1,12.09A63.013,63.013,0,1,1,9.09,75.1,63.013,63.013,0,0,1,72.1,12.09m0-7.5A70.513,70.513,0,1,0,142.615,75.1,70.512,70.512,0,0,0,72.1,4.59Z" transform="translate(-1.59 -4.59)" fill="#385a65"/>
  </g>
  <path id="Trazado_142505" data-name="Trazado 142505" d="M74.1,11.09A63.013,63.013,0,1,1,11.09,74.1,63.013,63.013,0,0,1,74.1,11.09m0-7.5A70.513,70.513,0,1,0,144.615,74.1,70.513,70.513,0,0,0,74.1,3.59Z" transform="translate(0.897 0.898)" fill="url(#linear-gradient)"/>
</svg>
