<svg xmlns="http://www.w3.org/2000/svg" width="64.32" height="64.32" viewBox="0 0 64.32 64.32">
  <g id="iocn12" transform="translate(-1125.11 -43.59)">
    <circle id="Elipse_6793" data-name="Elipse 6793" cx="31.16" cy="31.16" r="31.16" transform="translate(1127.11 43.59)" fill="#e7edf4"/>
    <g id="Grupo_85434" data-name="Grupo 85434">
      <circle id="Elipse_6803" data-name="Elipse 6803" cx="31.16" cy="31.16" r="31.16" transform="translate(1125.11 45.59)" fill="#fff"/>
      <g id="Grupo_85030" data-name="Grupo 85030">
        <path id="Trazado_142759" data-name="Trazado 142759" d="M1168.41,89h-3.65a.56.56,0,0,1,0-1.12h3.09v-28h-14.17l-7,5.34V72.3a.57.57,0,0,1-.56.56.56.56,0,0,1-.56-.56V64.85a.56.56,0,0,1,.22-.45l7.35-5.62a.54.54,0,0,1,.34-.12h14.92a.56.56,0,0,1,.55.56V88.39a.56.56,0,0,1-.53.61Z" fill="#12263f"/>
        <path id="Trazado_142760" data-name="Trazado 142760" d="M1157,89h-10.83a.56.56,0,0,1-.56-.56V84.45a.56.56,0,0,1,.56-.56.57.57,0,0,1,.56.56v3.38H1157a.56.56,0,1,1,0,1.12Z" fill="#12263f"/>
        <path id="Trazado_142761" data-name="Trazado 142761" d="M1153.49,65.41h-7.35a.56.56,0,0,1-.34-1l7.35-5.62a.57.57,0,0,1,.59-.06.56.56,0,0,1,.31.5v5.63a.56.56,0,0,1-.56.55Zm-5.7-1.12h5.14V60.35Z" fill="#12263f"/>
        <path id="Trazado_142762" data-name="Trazado 142762" d="M1160.26,68.25h-6a.56.56,0,1,1,0-1.12h6a.56.56,0,1,1,0,1.12Z" fill="#12263f"/>
        <path id="Trazado_142763" data-name="Trazado 142763" d="M1164.56,71.46H1150a.56.56,0,1,1,0-1.12h14.57a.56.56,0,1,1,0,1.12Z" fill="#12263f"/>
        <path id="Trazado_142764" data-name="Trazado 142764" d="M1170.4,90.85h-15.64a.56.56,0,1,1,0-1.12h15.08v-13a.56.56,0,0,1,1.12,0V90.29A.56.56,0,0,1,1170.4,90.85Z" fill="#12263f"/>
        <path id="Trazado_142765" data-name="Trazado 142765" d="M1157,90.85h-8.84a.56.56,0,0,1-.56-.56v-1.9a.56.56,0,0,1,.56-.56H1157a.56.56,0,1,1,0,1.12h-8.28v.78H1157a.56.56,0,1,1,0,1.12Z" fill="#12263f"/>
        <path id="Trazado_142766" data-name="Trazado 142766" d="M1168.41,89h-3.65a.56.56,0,0,1,0-1.12h3.09V61.12a.56.56,0,0,1,.56-.56h2a.56.56,0,0,1,.56.56V64a.56.56,0,1,1-1.12,0V61.67H1169V88.39a.56.56,0,0,1-.59.61Z" fill="#12263f"/>
        <path id="Trazado_142767" data-name="Trazado 142767" d="M1170.4,65.43a.56.56,0,0,1-.56-.56V64a.56.56,0,0,1,1.12,0v.89A.56.56,0,0,1,1170.4,65.43Z" fill="#12263f"/>
        <path id="Trazado_142768" data-name="Trazado 142768" d="M1170.4,72a.56.56,0,0,1-.56-.56V69.23a.56.56,0,0,1,1.12,0v2.19a.56.56,0,0,1-.56.58Z" fill="#12263f"/>
        <path id="Trazado_142769" data-name="Trazado 142769" d="M1170.4,77.24a.56.56,0,0,1-.56-.56v-.9a.56.56,0,0,1,1.12,0v.9A.56.56,0,0,1,1170.4,77.24Z" fill="#12263f"/>
        <path id="Trazado_142770" data-name="Trazado 142770" d="M1155.36,78.55a.57.57,0,0,1-.43-.2l-.31-.36a.56.56,0,0,1,.85-.73l.31.36a.56.56,0,0,1-.06.79A.54.54,0,0,1,1155.36,78.55Z" fill="#12263f"/>
        <path id="Trazado_142771" data-name="Trazado 142771" d="M1157.28,84.83h-.38a4.95,4.95,0,1,1,.39.02Zm0-9a3.92,3.92,0,1,0,2.873,1.252,3.92,3.92,0,0,0-2.873-1.252Z" fill="#12263f"/>
        <path id="Trazado_142772" data-name="Trazado 142772" d="M1158,82.45a1.72,1.72,0,0,1-1.3-.58.57.57,0,0,1,.06-.79.56.56,0,0,1,.79.06.66.66,0,0,0,.93,0,.63.63,0,1,0-.81-.94,1.811,1.811,0,0,1-1.28.46,1.69,1.69,0,0,1-1.23-.58,1.731,1.731,0,0,1-.39-1.3,1.81,1.81,0,0,1,.64-1.2,1.78,1.78,0,0,1,2.51.12.56.56,0,0,1-.85.73.66.66,0,0,0-.93,0,.74.74,0,0,0-.26.48.59.59,0,0,0,.13.45.54.54,0,0,0,.42.19.74.74,0,0,0,.51-.18,1.74,1.74,0,1,1,2.27,2.62A1.83,1.83,0,0,1,1158,82.45Z" fill="#12263f"/>
        <path id="Trazado_142773" data-name="Trazado 142773" d="M1158.78,82.51a.55.55,0,0,1-.42-.19l-.35-.41a.56.56,0,1,1,.84-.73l.36.41a.57.57,0,0,1-.06.79A.58.58,0,0,1,1158.78,82.51Z" fill="#12263f"/>
        <path id="Trazado_142774" data-name="Trazado 142774" d="M1146.17,88.14V65.41l7.55-6.04h14.62V88.14Z" fill="none" stroke="#12263f" stroke-linecap="round" stroke-linejoin="round" stroke-width="1"/>
        <g id="Grupo_85029" data-name="Grupo 85029">
          <path id="Trazado_142775" data-name="Trazado 142775" d="M1158.82,64a1.67,1.67,0,0,1-.52,1.11,1.78,1.78,0,0,1-1.18.38,1.58,1.58,0,0,1-1.28-.57,2.3,2.3,0,0,1-.49-1.53v-.43a2.59,2.59,0,0,1,.23-1.11,1.731,1.731,0,0,1,.63-.73,1.81,1.81,0,0,1,1-.25,1.54,1.54,0,0,1,1.65,1.51h-.59a1.42,1.42,0,0,0-.34-.79,1,1,0,0,0-.72-.24,1.05,1.05,0,0,0-.89.42,1.9,1.9,0,0,0-.33,1.2v.44a1.9,1.9,0,0,0,.31,1.16,1,1,0,0,0,.86.44,1.1,1.1,0,0,0,.75-.23,1.24,1.24,0,0,0,.36-.78Z" fill="#12263f"/>
          <path id="Trazado_142776" data-name="Trazado 142776" d="M1159.63,65.38v-4.5h1.27a2,2,0,0,1,1,.26,1.67,1.67,0,0,1,.7.74,2.291,2.291,0,0,1,.25,1.1v.29a2.33,2.33,0,0,1-.25,1.11,1.672,1.672,0,0,1-.7.74,2.13,2.13,0,0,1-1.06.26Zm.6-4V64.9h.62a1.37,1.37,0,0,0,1.07-.43,1.75,1.75,0,0,0,.38-1.22V63a1.782,1.782,0,0,0-.36-1.19,1.28,1.28,0,0,0-1-.44Z" fill="#12263f"/>
          <path id="Trazado_142777" data-name="Trazado 142777" d="M1164.38,63.62v1.76h-.59v-4.5h1.66a1.64,1.64,0,0,1,1.16.38,1.41,1.41,0,0,1,0,2,1.75,1.75,0,0,1-1.18.36Zm0-.49h1.07a1.06,1.06,0,0,0,.73-.22.82.82,0,0,0,.25-.65.869.869,0,0,0-.25-.65,1,1,0,0,0-.7-.25h-1.1Z" fill="#12263f"/>
        </g>
      </g>
    </g>
  </g>
</svg>
