<svg xmlns="http://www.w3.org/2000/svg" width="64.32" height="64.32" viewBox="0 0 64.32 64.32">
  <g id="icon16" transform="translate(-1125.11 -555.779)">
    <circle id="Elipse_6795" data-name="Elipse 6795" cx="31.16" cy="31.16" r="31.16" transform="translate(1127.11 555.779)" fill="#e7edf4"/>
    <circle id="Elipse_6804" data-name="Elipse 6804" cx="31.16" cy="31.16" r="31.16" transform="translate(1125.11 557.779)" fill="#fff"/>
    <g id="Grupo_85025" data-name="Grupo 85025">
      <path id="Trazado_142718" data-name="Trazado 142718" d="M1157,591.72a.529.529,0,0,1-.41-.19.56.56,0,0,1,0-.79l7.88-7a.56.56,0,0,1,.74.84l-7.88,7a.55.55,0,0,1-.33.14Z" fill="#12263f"/>
      <path id="Trazado_142719" data-name="Trazado 142719" d="M1150.78,597.25a.57.57,0,0,1-.39-1,2.87,2.87,0,0,0,.23-3.58.55.55,0,0,1,.09-.73l4.38-3.87a.56.56,0,1,1,.74.83l-4,3.58a3.84,3.84,0,0,1-.61,4.56A.56.56,0,0,1,1150.78,597.25Z" fill="#12263f"/>
      <path id="Trazado_142720" data-name="Trazado 142720" d="M1152,606.54a.571.571,0,0,1-.42-.19.56.56,0,0,1,0-.79,15.612,15.612,0,0,1,3.92-2.54,12.858,12.858,0,0,0,3.31-2.14l3.29-2.91a.56.56,0,1,1,.74.83l-3.29,2.92A14.342,14.342,0,0,1,1156,604a14.311,14.311,0,0,0-3.64,2.36.59.59,0,0,1-.36.18Z" fill="#12263f"/>
      <path id="Trazado_142721" data-name="Trazado 142721" d="M1141.56,601.39a.54.54,0,0,1-.42-.19.56.56,0,0,1,0-.79l4.82-4.27.35-3.63a5.19,5.19,0,0,1,1.72-3.37l4.37-3.87a2.57,2.57,0,0,1,3.44,0,2.489,2.489,0,0,1,.75,1.47l5.83-5.16a2.11,2.11,0,0,1,2.7-.13,2.07,2.07,0,0,1,.1,3.17.56.56,0,0,1-.79-.05.55.55,0,0,1,0-.79.91.91,0,0,0,.31-.73.9.9,0,0,0-.36-.72,1,1,0,0,0-1.27.09l-7.38,6.53a.56.56,0,1,1-.74-.83,1.39,1.39,0,0,0,0-2,1.44,1.44,0,0,0-1.93,0l-4.37,3.87a4,4,0,0,0-1.35,2.64l-.37,3.85a.54.54,0,0,1-.18.36l-5,4.42a.589.589,0,0,1-.23.13Z" fill="#12263f"/>
      <path id="Trazado_142722" data-name="Trazado 142722" d="M1158.17,594.22a2.07,2.07,0,0,1-1.37-3.61l1.84-1.62a2.06,2.06,0,0,1,3.43,1.67,2.1,2.1,0,0,1-.69,1.42l-1.84,1.62A2,2,0,0,1,1158.17,594.22Zm1.84-4.63a.93.93,0,0,0-.63.23l-1.83,1.63a.94.94,0,0,0-.09,1.33,1,1,0,0,0,1.34.08l1.83-1.62a.94.94,0,0,0-.62-1.65Z" fill="#12263f"/>
      <path id="Trazado_142723" data-name="Trazado 142723" d="M1160.17,596.47a2.06,2.06,0,0,1-1.37-3.61l1.83-1.62a2.065,2.065,0,1,1,2.74,3.09l-1.83,1.63a2.08,2.08,0,0,1-1.37.51Zm1.83-4.63a.91.91,0,0,0-.62.24l-1.84,1.62a.95.95,0,0,0,1.26,1.42l1.83-1.62a.95.95,0,0,0-.63-1.66Z" fill="#12263f"/>
      <path id="Trazado_142724" data-name="Trazado 142724" d="M1161.5,599.32a2.06,2.06,0,0,1-1.37-3.61l1.83-1.62a2.065,2.065,0,1,1,2.74,3.09l-1.84,1.62A2,2,0,0,1,1161.5,599.32Zm1.83-4.63a1,1,0,0,0-.63.24l-1.83,1.62a.95.95,0,0,0,1.25,1.42l1.84-1.63a.96.96,0,0,0-.63-1.65Z" fill="#12263f"/>
      <path id="Trazado_142725" data-name="Trazado 142725" d="M1165.4,586.65a.56.56,0,0,1-.19-1.08,3,3,0,1,0-3.94-3.73.56.56,0,1,1-1.06-.34,4.136,4.136,0,1,1,5.39,5.12.642.642,0,0,1-.2.03Z" fill="#12263f"/>
      <path id="Trazado_142726" data-name="Trazado 142726" d="M1164.83,590.81a.55.55,0,0,1-.55-.51.56.56,0,0,1,.5-.61,7,7,0,1,0-7.61-6.94c0,.19,0,.39,0,.59a.55.55,0,0,1-.51.6.56.56,0,0,1-.61-.51c0-.22,0-.45,0-.68a8.1,8.1,0,1,1,8.82,8.06Z" fill="#12263f"/>
      <path id="Trazado_142727" data-name="Trazado 142727" d="M1166.3,593.92a.56.56,0,0,1-.11-1.11,10.27,10.27,0,1,0-12.31-10.06V583a.57.57,0,0,1-.55.57.56.56,0,0,1-.57-.55v-.23a11.38,11.38,0,1,1,13.64,11.15Z" fill="#12263f"/>
    </g>
  </g>
</svg>
