<svg xmlns="http://www.w3.org/2000/svg" width="120" height="120" viewBox="0 0 120 120">
  <g id="icon1" transform="translate(-0.48)">
    <rect id="Rectángulo_36243" data-name="Rectángulo 36243" width="120" height="120" transform="translate(0.48)" fill="none"/>
    <path id="Trazado_139876" data-name="Trazado 139876" d="M72.66,13.62c2.73.5,4.69,2.14,6.47,4.16,2.06,2.32,4.25,4.55,6.42,6.77a9.13,9.13,0,0,1,2.68,6.69c0,3.87,0,7.73,0,11.6v1.08c1.77,0,3.45-.08,5.13,0a21.848,21.848,0,0,1,5,.58,10.84,10.84,0,0,1,7.831,10.13c.1,13.65.13,27.3,0,40.94A11.1,11.1,0,0,1,95,106.36H69A11.34,11.34,0,0,1,57.61,95v-.93H56L54.59,97.3a12.17,12.17,0,0,1,1,2.17,4.88,4.88,0,0,1-4.84,6.14H28.19a22.34,22.34,0,0,1-5.55-.52c-5.78-1.55-9.3-6.85-8.87-13A12.25,12.25,0,0,1,24.3,81a4.191,4.191,0,0,0,.48-.12A5.16,5.16,0,0,1,26.1,76.5c-1.56-1.93-1.9-4-.58-6.13S29,68,31.43,68.14V22.76c0-4.08,2-7.19,5.38-8.53.63-.25,1.31-.41,2-.61ZM57.6,91.22V55.77a13.55,13.55,0,0,1,.3-3.05,11.35,11.35,0,0,1,11.3-8.77h16V29.39H75c-1.42,0-1.88-.46-1.88-1.9v-11H40.4c-3.72,0-6,2.32-6,6.05V67.1a5.939,5.939,0,0,0,.06,1H50.82a4.81,4.81,0,0,1,4.85,4.13,5.05,5.05,0,0,1-1.3,4.25A4.4,4.4,0,0,1,55.72,80a23.591,23.591,0,0,1-1.12,3.7c1.62,2.1,1.62,4-.2,6.63C55.12,91.77,56.43,90.86,57.6,91.22Zm45.91-16V55.94a11.36,11.36,0,0,0-.16-2.26,8.58,8.58,0,0,0-8.84-7H69.42c-5.43,0-9.09,3.66-9.09,9.09V94.62a9.72,9.72,0,0,0,.09,1.62,8.59,8.59,0,0,0,8.78,7.41c8.36,0,16.73-.08,25.09,0a8.92,8.92,0,0,0,9.25-9.27c-.13-6.38-.03-12.77-.03-19.17Zm-72.46,27.7a9.67,9.67,0,1,0-6.839-2.853,9.68,9.68,0,0,0,6.839,2.853ZM40.25,75H50.56a2.07,2.07,0,0,0,2.12-1.24,2,2,0,0,0-2-2.75H29.5A2.008,2.008,0,0,0,29.39,75a7.3,7.3,0,0,0,.81,0Zm0,2.91H29.9a2,2,0,0,0-2.21,1.61c-.19,1,0,1.32,1.07,1.3a16.43,16.43,0,0,1,7.28,1,2.18,2.18,0,0,0,.89.06H50.88a2,2,0,1,0-.34-3.98Zm-.83,24.78H50.71a2.007,2.007,0,1,0-.02-4H42.83a1,1,0,0,0-.71.25c-.94,1.25-1.81,2.49-2.73,3.78Zm1-17.87c.74,1.28,1.39,2.46,2.1,3.6a1.08,1.08,0,0,0,.78.39h7.22a2.025,2.025,0,0,0,2.3-2,2.09,2.09,0,0,0-2.31-2H45.9ZM43.3,95.76h7.59a2,2,0,0,0,0-4c-2.32-.06-4.65,0-7,0a1.67,1.67,0,0,0-.4.09ZM76.1,18.82V26.4h7.15ZM16.69,94.91c0,2,.65,2.56,2.49,2.09C18.79,94.66,18.79,94.66,16.69,94.91ZM19,90c-2.08-.27-2.36,0-2.43,2C18.68,92.34,18.87,92.18,19,90Zm3.17-5.43L22,84.32,18.46,87c1.26.32,2,.15,2.44-.82A9.87,9.87,0,0,1,22.17,84.57ZM19,100l3,2.08.14-.2a9.21,9.21,0,0,1-1-1.25C20.73,99.89,20.13,99.69,19,100Z" fill="#1565c0"/>
    <path id="Trazado_139877" data-name="Trazado 139877" d="M49.63,46.11a24,24,0,0,1,2.51.81c.93.41,1.16,1.06.79,1.81s-.9.86-1.83.41a5.11,5.11,0,0,0-3.6-.4A1.8,1.8,0,0,0,46,50.27a2,2,0,0,0,.87,2.13A7.43,7.43,0,0,0,48,53c.78.33,1.58.59,2.34.95a5.47,5.47,0,0,1,2.51,7.64,4,4,0,0,1-2.51,2.07c-.6.17-.9.42-.78,1.06a.54.54,0,0,1,0,.18,1.29,1.29,0,0,1-1.35,1.29A1.18,1.18,0,0,1,47,64.85c0-.82-.35-1-1-1.25a10,10,0,0,1-2.31-1.36,1.41,1.41,0,0,1-.54-1.07,2,2,0,0,1,.7-1.31,1.36,1.36,0,0,1,1.22.32,4,4,0,0,0,3.66,1.33,2.25,2.25,0,0,0,2.15-1.64,2.81,2.81,0,0,0-1-3.18,13.49,13.49,0,0,0-2-1c-.66-.3-1.34-.54-2-.86a4.19,4.19,0,0,1-2.43-4.45,4,4,0,0,1,2.88-3.77c.45-.15.66-.36.6-.83a2.74,2.74,0,0,1,0-.64,1.29,1.29,0,0,1,2.58,0A3.783,3.783,0,0,1,49.63,46.11Z" fill="#1565c0"/>
    <path id="Trazado_139878" data-name="Trazado 139878" d="M64.68,41.8h-11c-.36,0-.83.06-1.06-.13s-.85-.84-.82-1.24a2.27,2.27,0,0,1,.93-1.25c.24-.19.7-.11,1.06-.11H76.12c1,0,1.59.52,1.61,1.34s-.58,1.39-1.64,1.39C72.29,41.81,68.49,41.8,64.68,41.8Z" fill="#1565c0"/>
    <path id="Trazado_139879" data-name="Trazado 139879" d="M55.44,35H43.5a2,2,0,0,1-1.4-.72,1.36,1.36,0,0,1,0-1.3,2.23,2.23,0,0,1,1.47-.64c4.79-.05,9.58,0,14.38,0h9.22c.66,0,1.27.16,1.46.82a1.68,1.68,0,0,1-.15,1.32,2.12,2.12,0,0,1-1.42.56C63.22,35,59.33,35,55.44,35Z" fill="#1565c0"/>
    <path id="Trazado_139880" data-name="Trazado 139880" d="M45.43,41.79H43.26a1.34,1.34,0,0,1-1.37-1.38,1.31,1.31,0,0,1,1.35-1.32h4.34a1.3,1.3,0,0,1,1.36,1.38,1.35,1.35,0,0,1-1.43,1.33H45.43Z" fill="#1565c0"/>
    <path id="Trazado_139881" data-name="Trazado 139881" d="M74.64,35H72.92a1.346,1.346,0,0,1-.05-2.69h3.62A1.346,1.346,0,0,1,76.45,35Z" fill="#1565c0"/>
    <path id="Trazado_139882" data-name="Trazado 139882" d="M81.93,49.77H94.25c3.33,0,5.14,1.83,5.15,5.15v4.17a4.61,4.61,0,0,1-4.92,4.85H80.35a1.93,1.93,0,0,1-1.26-.34,1.7,1.7,0,0,1-.45-1.32c.1-.4.6-.75,1-1,.25-.15.65-.06,1-.06H94.21c1.83,0,2.44-.62,2.45-2.45V54.69a1.928,1.928,0,0,0-2.15-2.18H69.32c-1.45,0-2.1.68-2.11,2.11s0,3,0,4.44a1.9,1.9,0,0,0,2.18,2.15h4.35c1,0,1.6.51,1.62,1.32s-.6,1.39-1.64,1.4H69.1a4.55,4.55,0,0,1-4.62-4.67V54.55a4.52,4.52,0,0,1,4.85-4.78C73.53,49.75,77.73,49.77,81.93,49.77Z" fill="#1565c0"/>
    <path id="Trazado_139883" data-name="Trazado 139883" d="M99.53,89.42V96.3a3.94,3.94,0,0,1-4.31,4.25H93.05a3.9,3.9,0,0,1-3.89-4V82.16a3.46,3.46,0,0,1,3.24-3.6,22.849,22.849,0,0,1,3.88,0,3.4,3.4,0,0,1,3.23,3.49c0,2.44,0,4.89,0,7.33Zm-7.65-.09v7c0,1.07.42,1.49,1.46,1.52h2.17a1.18,1.18,0,0,0,1.28-1.31V82.3a.87.87,0,0,0-1-1H93.18c-1.1,0-1.3.22-1.3,1.35C91.87,84.87,91.88,87.1,91.88,89.33Z" fill="#1565c0"/>
    <path id="Trazado_139884" data-name="Trazado 139884" d="M76.75,83.76V81.32a2.73,2.73,0,0,1,2.62-2.73,44.414,44.414,0,0,1,5.16,0,2.69,2.69,0,0,1,2.59,2.76v4.71a2.83,2.83,0,0,1-2.81,2.85c-1.6,0-3.21.06-4.8,0a2.8,2.8,0,0,1-2.75-2.72c-.05-.81,0-1.63,0-2.45Zm2.73-2.42v4.28c0,.2.23.56.37.56h4.46V81.34Z" fill="#1565c0"/>
    <path id="Trazado_139885" data-name="Trazado 139885" d="M87.13,95.36v2.26a2.88,2.88,0,0,1-2.93,2.92H79.68a2.82,2.82,0,0,1-2.93-2.9V93.12a2.81,2.81,0,0,1,3-3h4.52a2.84,2.84,0,0,1,2.91,3C87.14,93.91,87.13,94.64,87.13,95.36ZM79.48,93v4.37a.71.71,0,0,0,.47.47h4c.14,0,.41-.22.41-.34V93Z" fill="#1565c0"/>
    <path id="Trazado_139886" data-name="Trazado 139886" d="M74.84,83.79v2.26a2.83,2.83,0,0,1-2.78,2.88c-1.59.06-3.19,0-4.79,0A2.81,2.81,0,0,1,64.48,86c0-1.5,0-3,0-4.51a2.76,2.76,0,0,1,2.72-2.91c1.62-.08,3.26-.08,4.88,0a2.8,2.8,0,0,1,2.76,3C74.85,82.29,74.84,83,74.84,83.79Zm-2.78-2.43H67.28v4.8h4.78Z" fill="#1565c0"/>
    <path id="Trazado_139887" data-name="Trazado 139887" d="M64.48,95.32V92.97A2.69,2.69,0,0,1,67,90.21a50.881,50.881,0,0,1,5.24,0A2.68,2.68,0,0,1,74.83,93v4.7A2.82,2.82,0,0,1,72,100.54H67.21a2.82,2.82,0,0,1-2.77-2.87C64.46,96.89,64.48,96.1,64.48,95.32ZM72.11,93H67.26v4.87h4.38c.16,0,.44-.38.45-.59C72.13,95.82,72.11,94.43,72.11,93Z" fill="#1565c0"/>
    <path id="Trazado_139888" data-name="Trazado 139888" d="M81.88,76.71H79.44a2.67,2.67,0,0,1-2.65-2.49,52.834,52.834,0,0,1,0-5.34,2.73,2.73,0,0,1,2.74-2.52h4.8a2.84,2.84,0,0,1,2.79,2.78v4.8a2.78,2.78,0,0,1-2.78,2.77C83.52,76.74,82.7,76.71,81.88,76.71Zm-2.35-2.8h4.79V69.12H79.53Z" fill="#1565c0"/>
    <path id="Trazado_139889" data-name="Trazado 139889" d="M99.52,71.54v2.45a2.72,2.72,0,0,1-2.63,2.7c-1.69.06-3.39.06-5.07,0A2.75,2.75,0,0,1,89.17,74q-.08-2.45,0-4.89a2.8,2.8,0,0,1,2.74-2.73q2.45-.08,4.89,0a2.78,2.78,0,0,1,2.71,2.74C99.55,69.91,99.52,70.73,99.52,71.54Zm-7.59,2.39h4.8V69.14h-4.8Z" fill="#1565c0"/>
    <path id="Trazado_139890" data-name="Trazado 139890" d="M74.84,71.5v2.36a2.79,2.79,0,0,1-2.71,2.84h-5a2.71,2.71,0,0,1-2.66-2.76q-.06-2.4,0-4.8a2.8,2.8,0,0,1,2.77-2.78h4.81a2.83,2.83,0,0,1,2.76,2.8C74.86,69.93,74.84,70.72,74.84,71.5Zm-7.58-2.41v4.83H72V69.09Z" fill="#1565c0"/>
    <path id="Trazado_139891" data-name="Trazado 139891" d="M31.2,85.75l1.18,1.17a6.13,6.13,0,0,0,.7.65c.27.18.61.26.87.46a1.23,1.23,0,0,1,.43,1.74,1.3,1.3,0,0,1-1.71.58,6.9,6.9,0,0,0-1.74-.3.74.74,0,0,0-.57.44.77.77,0,0,0,.31.66,11,11,0,0,0,1.55.73,3.86,3.86,0,0,1,.59,7c-.19.09-.31.38-.4.61-.23.64-.7,1.11-1.34,1a3.61,3.61,0,0,1-1.3-.93c-.27-.22-.48-.52-.74-.76a9.62,9.62,0,0,1-1.54-1.44,1.31,1.31,0,0,1,2.08-1.52,2.67,2.67,0,0,0,1.32.66A1.45,1.45,0,0,0,32,95.9a1,1,0,0,0-.57-1.34c-.63-.29-1.28-.52-1.9-.83a3.19,3.19,0,0,1-1.8-4,2.69,2.69,0,0,1,.64-1.17c.62-.6,1.4-1,1.64-2C30.1,86.24,30.67,86.08,31.2,85.75Z" fill="#1565c0"/>
  </g>
</svg>
