<svg xmlns="http://www.w3.org/2000/svg" width="120" height="120" viewBox="0 0 120 120">
  <g id="icon3" transform="translate(-0.48)">
    <rect id="Rectángulo_36240" data-name="Rectángulo 36240" width="120" height="120" transform="translate(0.48)" fill="none"/>
    <path id="Trazado_139843" data-name="Trazado 139843" d="M79.39,61.84v-2.9h17a4.36,4.36,0,0,1,4.74,4.73v29.7a4.37,4.37,0,0,1-4.69,4.7H74.34a16.42,16.42,0,0,1-10.58-3.59l-.33-.22a15.41,15.41,0,0,1-6.57,3.29,19.23,19.23,0,0,1-3.84.49H30.37a4.35,4.35,0,0,1-4.61-4.59q0-15,0-30a4.33,4.33,0,0,1,4.55-4.56h17.1v2.9H30.62c-1.55,0-2,.44-2,2V93.16c0,1.55.45,2,2,2H52.9a12.93,12.93,0,0,0,8.5-3.07,1.78,1.78,0,0,0,.56-1.19c.06-1.93,0-3.85,0-5.83h2.83a6,6,0,0,1,.06.65c0,1.57.06,3.14,0,4.7a2.11,2.11,0,0,0,1,2,13.31,13.31,0,0,0,7.92,2.7H96.41c1.3,0,1.81-.51,1.81-1.81V63.6c0-1.3-.51-1.81-1.8-1.81h-16Z" fill="#1565c0"/>
    <path id="Trazado_139844" data-name="Trazado 139844" d="M63.37,66.18H55c-1.14,0-1.65-.52-1.69-1.66a13.49,13.49,0,0,0-4.4-9.71A22.19,22.19,0,0,1,42.3,43.88a21.73,21.73,0,1,1,42.6-8.4,21.16,21.16,0,0,1-6.55,18.91,14.84,14.84,0,0,0-4.5,7.68,19.73,19.73,0,0,0-.29,2.42c-.08,1.18-.56,1.69-1.76,1.69Zm7.32-2.93c.08-.45.14-.9.22-1.34a18.12,18.12,0,0,1,5.47-9.67,18,18,0,0,0,5.56-16.8C80.13,25.29,71.29,18.85,61,20A18.89,18.89,0,0,0,44.83,41.82a19.15,19.15,0,0,0,6,10.8A16.66,16.66,0,0,1,55.7,61c.18.72.29,1.47.44,2.24Z" fill="#1565c0"/>
    <path id="Trazado_139845" data-name="Trazado 139845" d="M63.47,72H68.9c1.23,0,1.7.53,1.76,1.77.16,3.49-1.07,6.23-4.34,7.74a7.23,7.23,0,0,1-10.15-6.24q0-.675,0-1.35c0-1.43.47-1.91,1.88-1.92Zm-4.38,2.94a4.32,4.32,0,0,0,4.38,4.3,4.27,4.27,0,0,0,4.23-4.3Z" fill="#1565c0"/>
    <path id="Trazado_139846" data-name="Trazado 139846" d="M33,86.41V83.62H51.73v2.79Z" fill="#1565c0"/>
    <path id="Trazado_139847" data-name="Trazado 139847" d="M75.08,83.61H93.79v2.82H75.08Z" fill="#1565c0"/>
    <path id="Trazado_139848" data-name="Trazado 139848" d="M54.75,70.47V67.68H72v2.79Z" fill="#1565c0"/>
    <path id="Trazado_139849" data-name="Trazado 139849" d="M48.87,76.39v2.79H33V76.39Z" fill="#1565c0"/>
    <path id="Trazado_139850" data-name="Trazado 139850" d="M93.8,76.39v2.79H78V76.39Z" fill="#1565c0"/>
    <path id="Trazado_139851" data-name="Trazado 139851" d="M33,71.92V69.13H45.94v2.79Z" fill="#1565c0"/>
    <path id="Trazado_139852" data-name="Trazado 139852" d="M80.84,71.92V69.13H93.77v2.79Z" fill="#1565c0"/>
    <path id="Trazado_139853" data-name="Trazado 139853" d="M45.83,19.23,44,21.13,36.87,14l2-1.73Z" fill="#1565c0"/>
    <path id="Trazado_139854" data-name="Trazado 139854" d="M82.66,21,81,19.2l7.12-7,1.61,1.78Z" fill="#1565c0"/>
    <path id="Trazado_139855" data-name="Trazado 139855" d="M27.24,37.22h10V40h-10Z" fill="#1565c0"/>
    <path id="Trazado_139856" data-name="Trazado 139856" d="M99.57,40.08h-10V37.26h10Z" fill="#1565c0"/>
    <path id="Trazado_139857" data-name="Trazado 139857" d="M63.4,31.4H76c1.42,0,1.9.48,1.9,1.9V44c0,1.42-.48,1.9-1.9,1.9H50.81c-1.42,0-1.9-.48-1.9-1.9V33.3c0-1.42.48-1.9,1.9-1.9ZM51.85,42.93H74.93V34.35H51.85Z" fill="#1565c0"/>
    <path id="Trazado_139858" data-name="Trazado 139858" d="M72,40.06H63.46V37.27H72Z" fill="#1565c0"/>
    <path id="Trazado_139859" data-name="Trazado 139859" d="M60.47,37.26v2.79H54.78V37.26Z" fill="#1565c0"/>
  </g>
</svg>
