<svg id="icon5" xmlns="http://www.w3.org/2000/svg" xmlns:xlink="http://www.w3.org/1999/xlink" width="150" height="150" viewBox="0 0 150 150">
  <defs>
    <linearGradient id="linear-gradient" x1="0.816" y1="0.113" x2="0.184" y2="0.887" gradientUnits="objectBoundingBox">
      <stop offset="0" stop-color="#fff"/>
      <stop offset="0.51" stop-color="#fdfdfd"/>
      <stop offset="0.7" stop-color="#f6f6f6"/>
      <stop offset="0.83" stop-color="#ebebeb"/>
      <stop offset="0.86" stop-color="#e6e6e6"/>
    </linearGradient>
  </defs>
  <rect id="Rectángulo_36449" data-name="Rectángulo 36449" width="150" height="150" fill="none"/>
  <g id="Grupo_84994" data-name="Grupo 84994" transform="translate(6.824 6.312)">
    <path id="Trazado_142440" data-name="Trazado 142440" d="M96.007,96.038V89.375A2.25,2.25,0,0,0,94,86.875a15.225,15.225,0,0,0-5.375.075H81.77l-.263-.225c-3.187-2.025-6.363-4.062-9.55-6.062q-6-3.75-12.013-7.5l-.075-.35V5.088a47.425,47.425,0,0,1,7.662.313.538.538,0,0,0,.438.45,64.262,64.262,0,0,1,14.05,6.175,67.413,67.413,0,0,1,20,17.737,68.75,68.75,0,0,1,10.887,21.325A73.675,73.675,0,0,1,115.87,69.65a48.276,48.276,0,0,1-.213,5.7,75,75,0,0,1-1.025,8.2,66.775,66.775,0,0,1-6.975,19.662l-1.25-.738C102.92,100.35,99.583,98,96.007,96.038Z" transform="translate(8.144 -5.049)" fill="#1565b2"/>
    <path id="Trazado_142441" data-name="Trazado 142441" d="M71.37,5.085V72.81a2.938,2.938,0,0,1-.5-.175l-11.85-7.5q-17.5-11.075-35-22.125c-3.338-2.112-6.7-4.175-10-6.25A62.137,62.137,0,0,1,26.558,21.935,67.337,67.337,0,0,1,62.12,5.685a48.75,48.75,0,0,1,9.25-.6Z" transform="translate(-3.319 -5.046)" fill="#039be5"/>
    <path id="Trazado_142442" data-name="Trazado 142442" d="M71.27,59.54q6,3.75,12.013,7.5c3.188,2,6.363,4.038,9.55,6.063a1.675,1.675,0,0,1-.088.225h-9.7a2.425,2.425,0,0,0-2.738,2.662v3.962a10.963,10.963,0,0,0,0,3v6.575a10.124,10.124,0,0,0,0,3.25c0,.413-.088.813-.125,1.25a3.675,3.675,0,0,0-3.45-1.475c-1.25.075-2.437,0-3.662.075H56.057c-1.838,0-2.688.962-2.7,2.813v3.95a13.375,13.375,0,0,0,0,3v19.15a.475.475,0,0,0,0,.262l-.112,3.55A68.175,68.175,0,0,1,21.358,105.9a55,55,0,0,1-6.788-8.675Q37.408,82.04,60.208,66.865c3.513-2.337,7.112-4.525,10.475-7.087Z" transform="translate(-3.181 8.573)" fill="#02749e"/>
    <path id="Trazado_142443" data-name="Trazado 142443" d="M73.548,66.8l-.588.237h0c-.525-.412-1.15-.212-1.712-.212H5.46a66.45,66.45,0,0,1,10-35.5c.187-.3.287-.675.662-.825,3.363,2.087,6.725,4.15,10,6.25q17.5,11.05,35,22.125l11.85,7.5a2.938,2.938,0,0,0,.5.175Z" transform="translate(-5.459 1.313)" fill="#36dac9"/>
    <path id="Trazado_142444" data-name="Trazado 142444" d="M106.15,103.143a66.775,66.775,0,0,0,6.975-19.662,75,75,0,0,0,1.025-8.2,48.273,48.273,0,0,0,.212-5.7A73.675,73.675,0,0,0,111.4,51.018a68.75,68.75,0,0,0-10.887-21.325,67.412,67.412,0,0,0-20-17.737A64.262,64.262,0,0,0,66.463,5.78.537.537,0,0,1,66,5.33,65.775,65.775,0,0,1,96.863,16.793a67.25,67.25,0,0,1,28.462,43.125,65.138,65.138,0,0,1,1.05,19.388,67.925,67.925,0,0,1-10,29.675,2.763,2.763,0,0,1-.363.4c-3.337-1.938-6.45-4.25-9.862-6.075Z" transform="translate(9.676 -4.979)" fill="#104c82"/>
    <path id="Trazado_142445" data-name="Trazado 142445" d="M72.662,59.76C69.3,62.322,65.7,64.51,62.188,66.848Q39.387,82.06,16.563,97.21A63.125,63.125,0,0,1,7.9,78.848c-.463-1.55-.838-3.138-1.25-4.7.275-.463.75-.45,1.188-.537l47.5-10.25,17.3-3.75Z" transform="translate(-5.161 8.591)" fill="#32c4b4"/>
    <path id="Trazado_142446" data-name="Trazado 142446" d="M72.935,59.732l-17.3,3.75-47.5,10.25c-.437.088-.913.075-1.187.537A84.664,84.664,0,0,1,5.46,59.52H71.223C71.785,59.52,72.385,59.32,72.935,59.732Z" transform="translate(-5.459 8.556)" fill="#7395cb"/>
    <path id="Trazado_142447" data-name="Trazado 142447" d="M102.567,93.71h-.237l.25-.1Z" transform="translate(18.759 17.091)" fill="#706e6b"/>
    <path id="Trazado_142448" data-name="Trazado 142448" d="M110.318,95.378l-.137-.288Z" transform="translate(20.721 17.461)" fill="#feb115"/>
    <path id="Trazado_142449" data-name="Trazado 142449" d="M104.49,101.725v-.275h6.5v.275Z" transform="translate(19.299 19.051)" fill="#feb115"/>
    <path id="Trazado_142450" data-name="Trazado 142450" d="M77.46,70.635h-.35a1.673,1.673,0,0,0,.087-.225Z" transform="translate(12.454 11.291)" fill="#ffa726"/>
  </g>
  <g id="Grupo_84995" data-name="Grupo 84995" transform="translate(1.988 5.737)" opacity="0.15">
    <path id="Trazado_142451" data-name="Trazado 142451" d="M72.1,12.09A63.013,63.013,0,1,1,9.09,75.1,63.013,63.013,0,0,1,72.1,12.09m0-7.5A70.513,70.513,0,1,0,142.615,75.1,70.512,70.512,0,0,0,72.1,4.59Z" transform="translate(-1.59 -4.59)" fill="#385a65"/>
  </g>
  <path id="Trazado_142452" data-name="Trazado 142452" d="M74.1,11.09A63.013,63.013,0,1,1,11.09,74.1,63.013,63.013,0,0,1,74.1,11.09m0-7.5A70.513,70.513,0,1,0,144.615,74.1,70.513,70.513,0,0,0,74.1,3.59Z" transform="translate(0.897 0.898)" fill="url(#linear-gradient)"/>
  <path id="Trazado_142453" data-name="Trazado 142453" d="M126.464,101.578a56.363,56.363,0,0,1,.1,6.5c0,3.575,0,7.137,0,10.712H75.427c-2.687,0-2.687,0-2.675-2.75,5.275,0,10.55.087,15.825,0,3.2,0,3.75-1.113,3.6-3.512-.075-1,0-2,0-3-.3-.387-.737-.275-1.138-.275H73.7c-.988,0-1.25.35-1.25,1.25v14.05l.075,2.1a3.1,3.1,0,0,1-1.725,2H47.352a2.675,2.675,0,0,1-1.65-3.012h16.65a2.75,2.75,0,0,0,3.05-3.013v-3.538c-.4-.45-.937-.262-1.412-.262H45.7v-2.75H61.664c2.7,0,3.75-1.038,3.75-3.75v-2.863c-.437-.488-1.025-.263-1.538-.263H45.727v-3H62.489a2.587,2.587,0,0,0,2.875-2.738v-2.5c.113-1.1-.312-1.388-1.387-1.375h-18.3a13.375,13.375,0,0,1,0-3h16.35a2.975,2.975,0,0,0,3.35-3.338V89.928c1.25,0,2.5,0,3.663-.075a3.675,3.675,0,0,1,3.45,1.475c.15,1.775-.35,3.588.275,5.35H89.152c2.087,0,3-.95,3.013-3v-3.55c-.3-.387-.737-.275-1.125-.275H74.164c-.4,0-.838-.112-1.15.262h-.4a10.125,10.125,0,0,1,0-3.25H89.527c1.888,0,2.612-.75,2.638-2.65v-2.5c.112-1.112-.262-1.475-1.425-1.475H72.577a10.963,10.963,0,0,1,0-3H89.239a2.5,2.5,0,0,0,2.925-2.925v-3.75a15.225,15.225,0,0,1,5.375-.075,2.25,2.25,0,0,1,2.012,2.5c0,2.225,0,4.45,0,6.662v20.6c0,.313-.075.65.212.9a15.313,15.313,0,0,0-.237,3.75c-.088.95.262,1.25,1.25,1.25h15.787a2.5,2.5,0,0,0,2.662-2.75v-3.75a29.474,29.474,0,0,1,5,0,2.075,2.075,0,0,1,2.075,1.638Zm-7.25,7.937H125.7v-.275h-23.75c-.775,0-1.625-.3-2.35.262v5.188c0,.563-.287,1.363.787,1.363,5.313,0,10.625.075,15.938,0,2.263-.063,2.938-1.05,2.95-3.375v-3.125Zm-46.45-9.837h-.225c0,1.038-.1,2.075,0,3.1s-.337,2.338.25,3.438H89.4a2.5,2.5,0,0,0,2.762-2.637,25.526,25.526,0,0,1,0-2.588c.125-1.137-.375-1.362-1.4-1.35C84.764,99.691,78.764,99.678,72.764,99.678Z" transform="translate(11.398 17.572)" fill="#ffa726"/>
  <path id="Trazado_142454" data-name="Trazado 142454" d="M121.115,109.32v6.938a3.237,3.237,0,0,1-1.625,2.625H96.04a3.112,3.112,0,0,1-1.875-1.8,3.362,3.362,0,0,1-1.95,1.837H68.978c-.825-.45-1.6-.937-1.725-2s.612-1.025,1.362-1.012H83.978a2.5,2.5,0,0,0,2.775-2.75v-3.75h7.362v5.313c0,.925.238,1.25,1.25,1.25h15.8a2.5,2.5,0,0,0,2.675-2.738V109.42Z" transform="translate(16.81 27.33)" fill="#ffa726"/>
  <path id="Trazado_142455" data-name="Trazado 142455" d="M67.615,115.37c.125,1.062.9,1.55,1.725,2H65.79a3.1,3.1,0,0,0,1.725-2Z" transform="translate(16.448 28.842)" fill="#fefefd"/>
  <path id="Trazado_142456" data-name="Trazado 142456" d="M87.22,117.36a3.362,3.362,0,0,0,1.95-1.8,3.112,3.112,0,0,0,1.875,1.8Z" transform="translate(21.805 28.89)" fill="#fefefd"/>
  <path id="Trazado_142457" data-name="Trazado 142457" d="M99.86,83.75c3.413,1.825,6.525,4.137,9.862,6.075a36.537,36.537,0,0,1-4.35,6.25l-.25.1c-4.663.162-9.313.137-13.963,0,.825-1.062,1.625-2.15,2.5-3.2A99.5,99.5,0,0,0,99.86,83.75Z" transform="translate(22.79 20.938)" fill="#024e73"/>
  <path id="Trazado_142458" data-name="Trazado 142458" d="M45.58,112.87l.112-3.55H65.367v3.538a2.75,2.75,0,0,1-3.013,3.012H45.692Z" transform="translate(11.395 27.33)" fill="#ffdca8"/>
  <path id="Trazado_142459" data-name="Trazado 142459" d="M91.765,93.7c4.65.125,9.3.15,13.962,0h.237l2.5.125v3.75a2.5,2.5,0,0,1-2.662,2.75H90.015c-.963,0-1.25-.3-1.25-1.25A15.313,15.313,0,0,1,89,95.325C89.4,93.975,90.578,93.825,91.765,93.7Z" transform="translate(22.185 23.425)" fill="#ffdca8"/>
  <path id="Trazado_142460" data-name="Trazado 142460" d="M117.27,109.375H82.62V109.1h34.65Z" transform="translate(20.655 27.275)" fill="#feb115"/>
  <path id="Trazado_142461" data-name="Trazado 142461" d="M91.762,97.665c-1.25.125-2.362.275-2.788,1.675-.287-.25-.212-.587-.212-.9V77.84c3.575,1.963,6.913,4.312,10.387,6.438l1.25.737v.213a99.5,99.5,0,0,1-6.25,9.237C93.387,95.54,92.587,96.6,91.762,97.665Z" transform="translate(22.188 19.46)" fill="#02749e"/>
  <path id="Trazado_142462" data-name="Trazado 142462" d="M45.66,92.743v-3.95c0-1.85.862-2.812,2.7-2.812H65.372v3.413a2.975,2.975,0,0,1-3.35,3.337C56.56,92.755,51.085,92.743,45.66,92.743Z" transform="translate(11.415 21.495)" fill="#ffca7d"/>
  <path id="Trazado_142463" data-name="Trazado 142463" d="M67.2,84.845V78.27H85.362c1.163,0,1.538.363,1.425,1.475-.075.813,0,1.637,0,2.5,0,1.9-.75,2.65-2.637,2.65Z" transform="translate(16.8 19.567)" fill="#ffdca8"/>
  <path id="Trazado_142464" data-name="Trazado 142464" d="M45.67,100.365V93.79h18.3c1.075,0,1.5.275,1.388,1.375a23.822,23.822,0,0,0,0,2.5A2.588,2.588,0,0,1,62.47,100.3Z" transform="translate(11.417 23.448)" fill="#ffdca8"/>
  <path id="Trazado_142465" data-name="Trazado 142465" d="M45.66,108.22v-6.55H65.347v2.863c0,2.65-1.037,3.675-3.75,3.75C56.31,108.232,50.985,108.22,45.66,108.22Z" transform="translate(11.415 25.418)" fill="#ffdca8"/>
  <path id="Trazado_142466" data-name="Trazado 142466" d="M86.5,109.331h.288v3.75a2.5,2.5,0,0,1-2.775,2.75H68.65c-.75,0-1.375,0-1.362,1.012h-.1a16.861,16.861,0,0,0-.087-2.1c.588-1.113.225-2.312.262-3.463.075-2.2-.225-2,1.963-2Z" transform="translate(16.775 27.319)" fill="#ffdca8"/>
  <path id="Trazado_142467" data-name="Trazado 142467" d="M67.2,77.2c0-1.312-.075-2.637,0-3.962a2.425,2.425,0,0,1,2.737-2.662H86.8v3.75a2.5,2.5,0,0,1-2.925,2.925Z" transform="translate(16.791 17.638)" fill="#ffdca8"/>
  <path id="Trazado_142468" data-name="Trazado 142468" d="M88.751,102.533v-.813h4.475c.962,0,1.975.325,2.9-.25H96.4c.4.438.938.262,1.412.262h10.613v3.125c0,2.325-.688,3.313-2.95,3.375-5.312.125-10.625,0-15.937,0-1.075,0-.725-.8-.788-1.362l.1-.075a1,1,0,0,0-.1-.2v-.825a4.363,4.363,0,0,0,0-3.238Z" transform="translate(22.186 25.368)" fill="#ffdca8"/>
  <path id="Trazado_142469" data-name="Trazado 142469" d="M67.333,93.8H85.345c1.025,0,1.525.212,1.4,1.35a25.523,25.523,0,0,0,0,2.587A2.5,2.5,0,0,1,83.97,100.3H67.32C67.333,98.163,67.333,95.988,67.333,93.8Z" transform="translate(16.83 23.45)" fill="#ffdca8"/>
  <path id="Trazado_142470" data-name="Trazado 142470" d="M67.357,86.15H86.72V89.7c0,2.05-.925,2.988-3.013,3H67.32C67.333,90.513,67.345,88.338,67.357,86.15Z" transform="translate(16.83 21.538)" fill="#ffdca8"/>
  <path id="Trazado_142471" data-name="Trazado 142471" d="M86.725,101.68v3c.15,2.4-.4,3.45-3.6,3.512-5.275.113-10.55,0-15.825,0,0-1.725.063-3.462,0-5.187,0-1.1.325-1.387,1.4-1.375C74.713,101.705,80.675,101.68,86.725,101.68Z" transform="translate(16.825 25.407)" fill="#ffdca8"/>
  <path id="Trazado_142472" data-name="Trazado 142472" d="M86.775,101.727H68.75c-1.075,0-1.45.275-1.4,1.375.088,1.725,0,3.462,0,5.188,0,2.75,0,2.75,2.675,2.75H86.5v.275H69.325c-2.187,0-1.888-.2-1.963,2,0,1.15.325,2.35-.262,3.462v-14.05c0-.925.225-1.25,1.25-1.25H85.688C86.037,101.452,86.475,101.339,86.775,101.727Z" transform="translate(16.775 25.361)" fill="#edb416"/>
  <path id="Trazado_142473" data-name="Trazado 142473" d="M65.349,109.377H45.674a.475.475,0,0,1,0-.262H63.961C64.411,109.115,64.949,108.977,65.349,109.377Z" transform="translate(11.414 27.273)" fill="#edb416"/>
  <path id="Trazado_142474" data-name="Trazado 142474" d="M65.342,101.733H45.68v-.275H63.83C64.318,101.471,64.905,101.246,65.342,101.733Z" transform="translate(11.42 25.354)" fill="#edb416"/>
  <path id="Trazado_142475" data-name="Trazado 142475" d="M86.667,86.207H67.53c.313-.375.75-.262,1.15-.262H85.543C85.93,85.932,86.368,85.82,86.667,86.207Z" transform="translate(16.882 21.48)" fill="#edb416"/>
  <path id="Trazado_142476" data-name="Trazado 142476" d="M106.9,101.722H96.283c-.475,0-1.012.175-1.412-.262h12.013v.275Z" transform="translate(23.718 25.365)" fill="#fcc30e"/>
  <path id="Trazado_142477" data-name="Trazado 142477" d="M96.125,101.467c-.925.575-1.937.212-2.9.25-1.488.075-2.988,0-4.475,0,.725-.562,1.575-.238,2.35-.262C92.813,101.429,94.45,101.467,96.125,101.467Z" transform="translate(22.188 25.346)" fill="#edb416"/>
  <path id="Trazado_142478" data-name="Trazado 142478" d="M67.4,93.8v6.55c-.588-1.1-.188-2.288-.25-3.438s0-2.062,0-3.1h.088C67.32,93.813,67.345,93.788,67.4,93.8Z" transform="translate(16.767 23.449)" fill="#edb416"/>
  <path id="Trazado_142479" data-name="Trazado 142479" d="M67.415,86.16v6.55c-.625-1.763-.125-3.575-.275-5.35,0-.413.088-.812.125-1.25Z" transform="translate(16.773 21.528)" fill="#edb416"/>
  <path id="Trazado_142480" data-name="Trazado 142480" d="M88.75,102.32a4.363,4.363,0,0,1,0,3.275Z" transform="translate(22.187 25.58)" fill="#edb416"/>
  <path id="Trazado_142481" data-name="Trazado 142481" d="M88.75,105.6a1,1,0,0,1,.1.2l-.1.075Z" transform="translate(22.188 26.4)" fill="#edb416"/>
  <path id="Trazado_142482" data-name="Trazado 142482" d="M88.747,109.32h19.688v3.813a2.5,2.5,0,0,1-2.675,2.738H89.96c-.975,0-1.25-.337-1.25-1.25C88.8,112.857,88.747,111.1,88.747,109.32Z" transform="translate(22.177 27.33)" fill="#ffdca8"/>
</svg>
