<svg xmlns="http://www.w3.org/2000/svg" width="120" height="120" viewBox="0 0 120 120">
  <g id="icon4" transform="translate(-0.48)">
    <rect id="Rectángulo_36241" data-name="Rectángulo 36241" width="120" height="120" transform="translate(0.48)" fill="none"/>
    <path id="Trazado_139860" data-name="Trazado 139860" d="M37.28,58.54V47H51.74v55H37.33v-1a30.61,30.61,0,0,1-4.22.91c-4,.32-8,.34-11.69-1.81a14.47,14.47,0,0,1-4.71-20.73c1.74-2.51,3.62-4.91,5.47-7.33a1.64,1.64,0,0,0,.3-1.65c-.77-2.57-1.5-5.15-2.23-7.73-1.07-3.85,1.33-7,5.33-7H29A5.34,5.34,0,0,1,33.52,58a1.34,1.34,0,0,0,.91.51C35.35,58.59,36.29,58.54,37.28,58.54ZM30,73H25.57a1.3,1.3,0,0,0-.91.4c-1.91,2.6-3.9,5.11-5.66,7.75a11.5,11.5,0,0,0,6.85,17.59,23.81,23.81,0,0,0,5.48.37,11.11,11.11,0,0,0,10.5-6.31c2.17-4.21,1.7-8.36-1-12.21-1.69-2.38-3.48-4.7-5.26-7a1.57,1.57,0,0,0-1-.51C33,73,31.51,73,30,73ZM48.8,99.07V49.89H40.2v9a.89.89,0,0,0,.33.57c3.29,2.7,3.46,6,.43,9.07-1.06,1.06-2.15,2.1-3.23,3.16,1.93,2.59,3.83,5,5.59,7.53A14.36,14.36,0,0,1,41.05,98.4l-.77.72ZM31.5,64.32V60.91a2.31,2.31,0,0,0-2.36-2.35H25.25a2.34,2.34,0,0,0-2.31,3.09c.73,2.64,1.51,5.27,2.24,7.91a.68.68,0,0,0,.81.6h8.69a1.24,1.24,0,0,0,.81-.25c1.38-1.34,2.79-2.67,4.07-4.11a2.56,2.56,0,0,0-1.45-4.23,24.56,24.56,0,0,0-3.75,0v2.81Z" fill="#1565c0"/>
    <path id="Trazado_139861" data-name="Trazado 139861" d="M94.07,54.17l-.48-2.83,5.34-.93-16-12A5.84,5.84,0,0,1,74,36.26c-2,.32-3.9.61-5.82,1-.26,0-.56.48-.63.79a5.78,5.78,0,0,1-11.15.54.357.357,0,0,1-.06-.17c.14-1.68-1-2-2.31-2.28-3-.75-6-1.61-9.06-2.44a16,16,0,0,1-10.86,9.8,15.36,15.36,0,0,1-11-1,15.94,15.94,0,0,1,8.54-30.21,15.49,15.49,0,0,1,11.1,6.27,15.79,15.79,0,0,1,3,12.37l11.08,3a5.88,5.88,0,0,1,10.41.52c1.93-.31,3.89-.61,5.84-1,.24-.05.51-.46.58-.75A5.79,5.79,0,0,1,85.1,34.21a1.1,1.1,0,0,1-.05.45c-.63,1.23.07,1.83,1,2.51,4.5,3.31,9,6.68,13.41,10l1,.72-.8-5.07,2.83-.49c.57,3.38,1.12,6.72,1.7,10.13Zm-64-39.11a12.981,12.981,0,1,0,.04,0ZM82.22,33.91a2.9,2.9,0,1,0-2.88,2.89A2.9,2.9,0,0,0,82.22,33.91Zm-17.39,2.9A2.9,2.9,0,1,0,62,39.7a2.9,2.9,0,0,0,2.83-2.89Z" fill="#1565c0"/>
    <path id="Trazado_139862" data-name="Trazado 139862" d="M86.51,102H72.13V48.47H86.51Zm-2.9-2.9V51.37H75V99.09Z" fill="#1565c0"/>
    <path id="Trazado_139863" data-name="Trazado 139863" d="M69.12,102H54.74V55.69H69.12Zm-2.9-2.91V58.62H57.64V99.09Z" fill="#1565c0"/>
    <path id="Trazado_139864" data-name="Trazado 139864" d="M103.9,102H89.52V61.52H103.9ZM101,99.09V64.41H92.42V99.09Z" fill="#1565c0"/>
    <path id="Trazado_139865" data-name="Trazado 139865" d="M34.41,83.16H31.57A1.43,1.43,0,0,0,30,81.73a1.26,1.26,0,0,0-1.29.94,1.16,1.16,0,0,0,.67,1.42c.86.45,1.72.87,2.59,1.31A4.16,4.16,0,0,1,32,93a1,1,0,0,0-.46.72c-.06.81,0,1.62,0,2.5H28.6V93.78a.937.937,0,0,0-.33-.73c-2.34-1.1-2.77-3.06-2.5-5.42H28.6v1.55a1.21,1.21,0,0,0,1.15,1.28,1.34,1.34,0,0,0,1.67-.88A1.23,1.23,0,0,0,30.64,88c-.86-.43-1.73-.85-2.59-1.3a4,4,0,0,1-2.33-3.79A3.87,3.87,0,0,1,28,79.31a.88.88,0,0,0,.57-1c0-.75,0-1.51,0-2.33h2.9c0,.79-.05,1.6,0,2.4a1.21,1.21,0,0,0,.54.85A4.29,4.29,0,0,1,34.41,83.16Z" fill="#1565c0"/>
    <path id="Trazado_139866" data-name="Trazado 139866" d="M28.6,18h2.9v2.37a.88.88,0,0,0,.59,1A4,4,0,0,1,34.4,25.2H31.58a1.45,1.45,0,0,0-1.67-1.41c-.66.05-1.21.35-1.23,1a1.84,1.84,0,0,0,.63,1.34,16.63,16.63,0,0,0,2.48,1.29A4.16,4.16,0,0,1,31.94,35a1,1,0,0,0-.42.75c-.05.8,0,1.61,0,2.46H28.6V35.72a.889.889,0,0,0-.28-.67C26,34,25.5,32,25.75,29.62H28.6v1.49a1.22,1.22,0,0,0,1.19,1.33,1.34,1.34,0,0,0,1.62-.85c.26-.77-.16-1.26-.82-1.59l-2.51-1.26A4,4,0,0,1,25.72,25a4.11,4.11,0,0,1,2.33-3.71,1.27,1.27,0,0,0,.53-.86C28.65,19.63,28.6,18.84,28.6,18Z" fill="#1565c0"/>
  </g>
</svg>
