<svg xmlns="http://www.w3.org/2000/svg" width="64.32" height="64.32" viewBox="0 0 64.32 64.32">
  <g id="icon8" transform="translate(-518.51 -43.59)">
    <circle id="Elipse_6785" data-name="Elipse 6785" cx="31.16" cy="31.16" r="31.16" transform="translate(520.51 43.59)" fill="#e7edf4"/>
    <g id="Grupo_85430" data-name="Grupo 85430">
      <circle id="Elipse_6799" data-name="Elipse 6799" cx="31.16" cy="31.16" r="31.16" transform="translate(518.51 45.59)" fill="#fff"/>
      <g id="Grupo_85020" data-name="Grupo 85020">
        <path id="Trazado_142647" data-name="Trazado 142647" d="M554.39,66.11a3.64,3.64,0,0,1-1.84-.48c-1-.59-2.07-.29-3.27.05a5.122,5.122,0,0,1-4.13-.05.56.56,0,0,1-.21-.76.55.55,0,0,1,.76-.21c1,.59,2.07.29,3.27,0s2.7-.77,4.13,0c1,.58,2.07.29,3.27,0a7.67,7.67,0,0,1,2.43-.43.56.56,0,0,1,0,1.12,6.71,6.71,0,0,0-2.09.38A8.219,8.219,0,0,1,554.39,66.11Z" fill="#12263f"/>
        <path id="Trazado_142648" data-name="Trazado 142648" d="M554.39,69.3a3.64,3.64,0,0,1-1.84-.48c-1-.59-2.07-.29-3.27.05a5.122,5.122,0,0,1-4.13-.05.571.571,0,0,1,.55-1c1,.59,2.07.29,3.27,0s2.7-.77,4.13,0c1,.59,2.07.29,3.27,0a8,8,0,0,1,2.43-.43.56.56,0,0,1,0,1.12,7.34,7.34,0,0,0-2.09.38,8.219,8.219,0,0,1-2.32.41Z" fill="#12263f"/>
        <path id="Trazado_142649" data-name="Trazado 142649" d="M535.15,73.42a2.88,2.88,0,0,1-2.87-2.87V69.12a.57.57,0,0,1,.56-.56h2.27a.56.56,0,0,1,0,1.12H533.4v.87a1.75,1.75,0,0,0,3.5,0V63.4a3.23,3.23,0,0,1,3.23-3.23.56.56,0,0,1,0,1.12A2.12,2.12,0,0,0,538,63.4v7.15A2.88,2.88,0,0,1,535.15,73.42Z" fill="#12263f"/>
        <path id="Trazado_142650" data-name="Trazado 142650" d="M542.78,73.42h-7.63a.56.56,0,0,1,0-1.12h7.63a.56.56,0,0,1,0,1.12Z" fill="#12263f"/>
        <path id="Trazado_142651" data-name="Trazado 142651" d="M560.51,89.34H542.78a.56.56,0,0,1-.56-.56V63.37a2.09,2.09,0,0,0-2.09-2.08.56.56,0,0,1,0-1.12h18.73a3.21,3.21,0,0,1,3.2,3.2v6.51a.56.56,0,0,1-1.12,0V63.37a2.08,2.08,0,0,0-2.08-2.08h-16.3a3.2,3.2,0,0,1,.78,2.08V88.22h17.17a.56.56,0,0,1,0,1.12Z" fill="#12263f"/>
        <path id="Trazado_142652" data-name="Trazado 142652" d="M558.42,82.52a5.49,5.49,0,1,1,3.893-1.619,5.49,5.49,0,0,1-3.893,1.619Zm0-9.86A4.38,4.38,0,1,0,562.79,77a4.38,4.38,0,0,0-4.37-4.34Z" fill="#12263f"/>
        <path id="Trazado_142653" data-name="Trazado 142653" d="M558.42,80.08a3,3,0,1,1,3.05-3A3.06,3.06,0,0,1,558.42,80.08Zm0-5a1.91,1.91,0,1,1,0,.02Z" fill="#12263f"/>
        <path id="Trazado_142654" data-name="Trazado 142654" d="M554.83,87.22a.58.58,0,0,1-.26-.06.56.56,0,0,1-.3-.5V80.41a.56.56,0,0,1,1-.39,4.34,4.34,0,0,0,6.37,0,.57.57,0,0,1,.62-.13.56.56,0,0,1,.35.52v6.25a.58.58,0,0,1-.3.5.57.57,0,0,1-.59,0l-3.26-2.35-3.27,2.35a.56.56,0,0,1-.36.06Zm3.59-3.71a.54.54,0,0,1,.32.11l2.71,1.95v-4a5.52,5.52,0,0,1-6.07,0v4l2.71-1.95a.57.57,0,0,1,.33-.11Z" fill="#12263f"/>
        <path id="Trazado_142655" data-name="Trazado 142655" d="M547.41,83.92a.93.93,0,0,1-.58-.17c-.69-.5-.49-1.56-.43-1.91s.38-1.83,1.39-1.83a1.77,1.77,0,0,1,1.19.5,1,1,0,0,1,.32.77.56.56,0,0,1-1.12,0,.78.78,0,0,0-.33-.16,2.42,2.42,0,0,0-.35.91,1.591,1.591,0,0,0,0,.76,4.37,4.37,0,0,0,.92-.22,5,5,0,0,0,1.48-.61,2.491,2.491,0,0,0,.71-1.08c.14-.34.33-.8.83-.8.7,0,1,.83,1.25,2.23a.57.57,0,0,1-.45.65.55.55,0,0,1-.65-.45c-.06-.3-.11-.54-.16-.73a3.17,3.17,0,0,1-.82,1,5.56,5.56,0,0,1-1.85.8,4.6,4.6,0,0,1-1.35.34Z" fill="#12263f"/>
      </g>
    </g>
  </g>
</svg>
