<svg xmlns="http://www.w3.org/2000/svg" width="64.32" height="64.32" viewBox="0 0 64.32 64.32">
  <g id="icon10" transform="translate(-518.51 -300.02)">
    <circle id="Elipse_6781" data-name="Elipse 6781" cx="31.16" cy="31.16" r="31.16" transform="translate(520.51 300.02)" fill="#e7edf4"/>
    <g id="Grupo_85432" data-name="Grupo 85432">
      <circle id="Elipse_6797" data-name="Elipse 6797" cx="31.16" cy="31.16" r="31.16" transform="translate(518.51 302.02)" fill="#fff"/>
      <g id="Grupo_85021" data-name="Grupo 85021">
        <path id="Trazado_142656" data-name="Trazado 142656" d="M564.09,331.16a.56.56,0,0,1-.55-.56v-4.52a.56.56,0,0,1,.55-.56h2.71l-6.81-8-6.81,8h2.71a.56.56,0,0,1,.56.56.57.57,0,0,1-.56.56H552a.56.56,0,0,1-.51-.33.57.57,0,0,1,.08-.6l8-9.39a.58.58,0,0,1,.85,0l8,9.39a.57.57,0,0,1,.08.6.56.56,0,0,1-.5.33h-3.37v4a.56.56,0,0,1-.54.52Z" fill="#12263f"/>
        <path id="Trazado_142657" data-name="Trazado 142657" d="M538.07,331.16a.56.56,0,0,1-.56-.56v-4h-3.36a.56.56,0,0,1-.51-.33.57.57,0,0,1,.08-.6l8-9.39a.56.56,0,0,1,.84,0l8,9.39a.57.57,0,0,1,.08.6.56.56,0,0,1-.51.33h-3.92a.57.57,0,0,1-.56-.56.56.56,0,0,1,.56-.56H549l-6.81-8-6.81,8h2.71a.56.56,0,0,1,.56.56v4.52a.56.56,0,0,1-.58.6Z" fill="#12263f"/>
        <path id="Trazado_142658" data-name="Trazado 142658" d="M566.8,343.69H535.36a.56.56,0,0,1-.56-.56v-12.4a.56.56,0,0,1,.56-.56H566.8a.56.56,0,0,1,.56.56v12.4a.56.56,0,0,1-.56.56Zm-30.88-1.11h30.32V331.29H535.92Z" fill="#12263f"/>
        <path id="Trazado_142659" data-name="Trazado 142659" d="M551.08,343.69c-3,0-5.52-3-5.52-6.76s2.48-6.76,5.52-6.76,5.52,3,5.52,6.76S554.12,343.69,551.08,343.69Zm0-12.4c-2.43,0-4.4,2.53-4.4,5.64s2,5.65,4.4,5.65,4.4-2.54,4.4-5.65S553.51,331.29,551.08,331.29Z" fill="#12263f"/>
        <path id="Trazado_142660" data-name="Trazado 142660" d="M551.08,335a.56.56,0,0,1-.56-.56V334a.56.56,0,0,1,1.12,0v.5A.56.56,0,0,1,551.08,335Z" fill="#12263f"/>
        <path id="Trazado_142661" data-name="Trazado 142661" d="M551.08,340a1.83,1.83,0,0,1-1.88-1.79.56.56,0,1,1,1.11,0,.78.78,0,1,0,.77-.68A1.8,1.8,0,1,1,553,335.7a.56.56,0,0,1-1.11,0,.78.78,0,1,0-.77.67,1.8,1.8,0,1,1,0,3.59Z" fill="#12263f"/>
        <path id="Trazado_142662" data-name="Trazado 142662" d="M551.08,340.53a.56.56,0,0,1-.56-.56v-.57a.56.56,0,0,1,1.12,0v.6a.56.56,0,0,1-.56.53Z" fill="#12263f"/>
        <path id="Trazado_142663" data-name="Trazado 142663" d="M561.25,337.49h-2.31a.56.56,0,0,1,0-1.12h2.31a.56.56,0,0,1,0,1.12Z" fill="#12263f"/>
        <path id="Trazado_142664" data-name="Trazado 142664" d="M562.65,341.27h-4.12a.56.56,0,0,1,0-1.12h3.64a2,2,0,0,1,1.32-1.31V335a2,2,0,0,1-1.32-1.32h-3.64a.56.56,0,1,1,0-1.12h4.12a.56.56,0,0,1,.56.56.84.84,0,0,0,.84.84.56.56,0,0,1,.55.56v4.76a.56.56,0,0,1-.55.56.84.84,0,0,0-.84.84.56.56,0,0,1-.56.59Z" fill="#12263f"/>
        <path id="Trazado_142665" data-name="Trazado 142665" d="M543.22,337.49h-2.31a.56.56,0,0,1,0-1.12h2.31a.56.56,0,0,1,0,1.12Z" fill="#12263f"/>
        <path id="Trazado_142666" data-name="Trazado 142666" d="M543.63,341.27h-4.12a.56.56,0,0,1-.55-.56.85.85,0,0,0-.84-.84.56.56,0,0,1-.56-.56v-4.76a.56.56,0,0,1,.56-.56.85.85,0,0,0,.84-.84.56.56,0,0,1,.55-.56h4.12a.56.56,0,0,1,0,1.12H540a2,2,0,0,1-1.32,1.32v3.81a1.93,1.93,0,0,1,1.32,1.31h3.64a.56.56,0,0,1,0,1.12Z" fill="#12263f"/>
      </g>
    </g>
  </g>
</svg>
