<svg xmlns="http://www.w3.org/2000/svg" width="64.32" height="64.32" viewBox="0 0 64.32 64.32">
  <g id="icon9" transform="translate(-518.51 -171.81)">
    <circle id="Elipse_6783" data-name="Elipse 6783" cx="31.16" cy="31.16" r="31.16" transform="translate(520.51 171.81)" fill="#e7edf4"/>
    <g id="Grupo_85431" data-name="Grupo 85431">
      <circle id="Elipse_6798" data-name="Elipse 6798" cx="31.16" cy="31.16" r="31.16" transform="translate(518.51 173.81)" fill="#fff"/>
      <g id="Grupo_85028" data-name="Grupo 85028">
        <g id="Grupo_85027" data-name="Grupo 85027">
          <path id="Trazado_142749" data-name="Trazado 142749" d="M554.39,193.2a3.64,3.64,0,0,1-1.84-.48c-1-.59-2.07-.29-3.27.05a5.122,5.122,0,0,1-4.13-.05.571.571,0,0,1,.55-1c1,.59,2.07.29,3.27-.05a5.122,5.122,0,0,1,4.13.05c1,.59,2.07.29,3.27-.05a7.671,7.671,0,0,1,2.43-.43.56.56,0,1,1,0,1.12,7,7,0,0,0-2.09.38A8.22,8.22,0,0,1,554.39,193.2Z" fill="#12263f"/>
          <path id="Trazado_142750" data-name="Trazado 142750" d="M554.39,196.39a3.55,3.55,0,0,1-1.84-.48c-1-.58-2.07-.29-3.27.06a5,5,0,0,1-4.13-.06.571.571,0,1,1,.55-1c1,.59,2.07.29,3.27-.05a5.122,5.122,0,0,1,4.13.05c1,.59,2.07.29,3.27-.05a8,8,0,0,1,2.43-.42.55.55,0,0,1,.54.57.56.56,0,0,1-.57.54,7,7,0,0,0-2.09.39,8.6,8.6,0,0,1-2.29.45Z" fill="#12263f"/>
          <path id="Trazado_142751" data-name="Trazado 142751" d="M535.15,200.51a2.88,2.88,0,0,1-2.87-2.87v-1.43a.56.56,0,0,1,.56-.55h2.27a.56.56,0,0,1,0,1.11H533.4v.87a1.75,1.75,0,1,0,3.5,0v-7.15a3.23,3.23,0,0,1,3.23-3.23.56.56,0,0,1,0,1.12,2.12,2.12,0,0,0-2.11,2.11v7.15A2.88,2.88,0,0,1,535.15,200.51Z" fill="#12263f"/>
          <path id="Trazado_142752" data-name="Trazado 142752" d="M542.78,200.51h-7.63a.56.56,0,0,1,0-1.12h7.63a.56.56,0,0,1,0,1.12Z" fill="#12263f"/>
          <path id="Trazado_142753" data-name="Trazado 142753" d="M560.51,216.43H542.78a.56.56,0,0,1-.56-.56V190.46a2.09,2.09,0,0,0-2.09-2.08.56.56,0,0,1,0-1.12h18.73a3.21,3.21,0,0,1,3.2,3.2V197a.56.56,0,1,1-1.12,0v-6.51a2.08,2.08,0,0,0-2.08-2.08h-16.3a3.2,3.2,0,0,1,.78,2.08v24.85h17.17a.56.56,0,1,1,0,1.12Z" fill="#12263f"/>
          <path id="Trazado_142754" data-name="Trazado 142754" d="M558.42,209.62a5.5,5.5,0,1,1,5.49-5.5,5.5,5.5,0,0,1-5.49,5.5Zm0-9.87a4.38,4.38,0,1,0,4.37,4.37,4.38,4.38,0,0,0-4.37-4.37Z" fill="#12263f"/>
          <path id="Trazado_142755" data-name="Trazado 142755" d="M558.42,207.17a3,3,0,1,1,2.153-.861,3,3,0,0,1-2.153.861Zm0-5a1.92,1.92,0,1,1,0,.02Z" fill="#12263f"/>
          <path id="Trazado_142756" data-name="Trazado 142756" d="M554.83,214.31a.58.58,0,0,1-.26-.06.56.56,0,0,1-.3-.5V207.5a.56.56,0,0,1,.35-.52.54.54,0,0,1,.61.14,4.37,4.37,0,0,0,6.37,0,.56.56,0,0,1,1,.38v6.25a.58.58,0,0,1-.3.5.57.57,0,0,1-.59-.05l-3.26-2.35-3.27,2.35A.56.56,0,0,1,554.83,214.31Zm3.59-3.7a.53.53,0,0,1,.32.1l2.71,1.95v-4a5.47,5.47,0,0,1-6.07,0v4l2.71-1.95a.56.56,0,0,1,.33-.1Z" fill="#12263f"/>
          <path id="Trazado_142757" data-name="Trazado 142757" d="M547.41,211a.87.87,0,0,1-.58-.17c-.69-.49-.49-1.56-.43-1.91s.38-1.83,1.39-1.83a1.82,1.82,0,0,1,1.19.5,1,1,0,0,1,.32.77.56.56,0,0,1-1.12,0,.68.68,0,0,0-.33-.15,2.289,2.289,0,0,0-.35.9,1.591,1.591,0,0,0,0,.76,4.37,4.37,0,0,0,.92-.22,5,5,0,0,0,1.48-.61,2.49,2.49,0,0,0,.71-1.08c.14-.34.33-.8.83-.8.7,0,1,.83,1.25,2.23a.57.57,0,0,1-.45.65.55.55,0,0,1-.65-.45c-.06-.3-.11-.54-.16-.72a3.249,3.249,0,0,1-.82,1,5.56,5.56,0,0,1-1.85.8,4.6,4.6,0,0,1-1.35.33Z" fill="#12263f"/>
        </g>
        <path id="Trazado_142758" data-name="Trazado 142758" d="M548.12,201.17h1.94v1.4h-1.94v2.19h-1.48v-2.19h-1.95v-1.4h1.95v-2.1h1.48Z" fill="#12263f"/>
      </g>
    </g>
  </g>
</svg>
