<svg id="icon7" xmlns="http://www.w3.org/2000/svg" xmlns:xlink="http://www.w3.org/1999/xlink" width="150" height="150" viewBox="0 0 150 150">
  <defs>
    <linearGradient id="linear-gradient" x1="0.816" y1="0.113" x2="0.184" y2="0.887" gradientUnits="objectBoundingBox">
      <stop offset="0" stop-color="#fff"/>
      <stop offset="0.51" stop-color="#fdfdfd"/>
      <stop offset="0.7" stop-color="#f6f6f6"/>
      <stop offset="0.83" stop-color="#ebebeb"/>
      <stop offset="0.86" stop-color="#e6e6e6"/>
    </linearGradient>
  </defs>
  <circle id="Elipse_6777" data-name="Elipse 6777" cx="68.45" cy="68.45" r="68.45" transform="translate(6.55 6.55)" fill="#039be5"/>
  <g id="Grupo_84998" data-name="Grupo 84998" transform="translate(35 4.553)">
    <path id="Trazado_142506" data-name="Trazado 142506" d="M38.9,24.377a55.509,55.509,0,0,0,0-6.25c0-1.25.1-2.6,0-3.887,0-.987.287-1.25,1.25-1.25h16.1c1.012,0,1.387-.237,1.563-1.25a9.325,9.325,0,0,1,18.487,0c.175,1.05.55,1.25,1.563,1.25H94.234c.95,0,1.25.213,1.25,1.25v3.887a53.2,53.2,0,0,0,0,6.25,18.263,18.263,0,0,0-.075,2.5c.15,1.363-.25,1.788-1.712,1.788H40.259c-1.25,0-1.525-.363-1.425-1.488a22.925,22.925,0,0,0,.062-2.8ZM71.621,13.052a4.512,4.512,0,1,0-9.013-.112,4.513,4.513,0,1,0,9.013.112Z" transform="translate(-25.296 -3.643)" fill="#ffa726"/>
    <path id="Trazado_142507" data-name="Trazado 142507" d="M41.6,20.258a22.928,22.928,0,0,1,.075,2.775c-.1,1.125.225,1.513,1.425,1.488,3.837-.075,7.675,0,11.525,0H96.538c1.462,0,1.862-.425,1.713-1.788a18.263,18.263,0,0,1,.075-2.5h11.95c1.25,0,1.425.363,1.425,1.488v92.087c0,.487.162,1.012-.175,1.475H97.35c-.463.4-.25.95-.25,1.425v12.975H29.612c-1.25,0-1.612-.288-1.612-1.587V21.72c0-1.25.287-1.625,1.587-1.6C33.55,20.32,37.575,20.258,41.6,20.258Zm51,31.35a2.925,2.925,0,0,0-.275-.588c-3.687-3.75-7.4-7.387-11.075-11.112-.575-.6-.887-.325-1.325.112-3.462,3.488-6.937,6.95-10.4,10.425-.2.2-.588.362-.312.887h7.5c.75,0,1.088.2,1.063,1.013-.125,5,.325,9.913-.225,14.837-.925,8.25-5.437,13.85-13.063,16.975-3.075,1.25-6.325,1.25-9.562,1.25-1.887,0-3.6.075-4.338-2.1,0-.125-.187-.212-.275-.312A7.7,7.7,0,1,0,51.3,92.22a1.875,1.875,0,0,1,1.937-1.1A70.071,70.071,0,0,0,61,90.908c12-1.438,22-12.4,22.15-24.425,0-4.387.088-8.75,0-13.187,0-1.487.463-1.775,1.8-1.712,2.462.1,4.962.025,7.65.025Zm3.588,19.838a6,6,0,0,0,6.088-5.925A5.925,5.925,0,0,0,96.3,59.508a5.987,5.987,0,0,0-5.963,5.9,5.737,5.737,0,0,0,5.85,6.038Zm-31.25-7c-.6-.55-1.25-1.125-1.862-1.763s-.738-.55-1.25-.062c-.75.75-1.525,1.887-2.4,1.987S57.838,63.283,57,62.583c-.3-.238-.475-.45-.925-.125-2.2,1.588-2.325,2.15-.388,3.925.938.875.888,1.4,0,2.288-2,2.087-1.937,2.112.213,4.012.487.425.725.313,1.125-.062.775-.713,1.388-2.087,2.325-1.987s1.612,1.25,2.425,1.962c.225.188.463.65.775.375a10,10,0,0,0,2.188-2.3c.275-.488-.65-1-1.062-1.463-1.525-1.737-1.525-1.712.087-3.35A3.55,3.55,0,0,0,64.9,64.445ZM79.162,87.77c-1.037.925-1.725,1.6-2.5,2.2-.562.45-.45.75,0,1.25,1.425,1.375,2.85,2.762,4.213,4.225.625.675,1.012.75,1.75.088,2.025-1.838,3.938-3.75,5.875-5.713,2.238-2.213,2.212-2.2-.162-4.362-.513-.463-.787-.437-1.25,0-1.25,1.25-2.5,2.5-3.75,3.837-1.55,1.55-1.562,1.563-3.075,0a13.753,13.753,0,0,1-1.1-1.525Z" transform="translate(-28 0.476)" fill="#edffff"/>
    <path id="Trazado_142508" data-name="Trazado 142508" d="M83.452,96.27H97.627c-1.675,2.025-3.65,3.75-5.5,5.638-2.75,2.787-5.562,5.525-8.35,8.287-.488-.387-.3-.937-.3-1.412C83.452,104.6,83.452,100.433,83.452,96.27Z" transform="translate(-14.14 19.514)" fill="#bacfee"/>
    <path id="Trazado_142509" data-name="Trazado 142509" d="M83.511,96.27v12.5c0,.475-.188,1.025.3,1.413a.788.788,0,0,1-.6.5V97.707C83.261,97.183,83.049,96.67,83.511,96.27Z" transform="translate(-14.199 19.514)" fill="#a6b6d4"/>
    <path id="Trazado_142510" data-name="Trazado 142510" d="M90.8,47.729c-2.687,0-5.187.075-7.675,0-1.338,0-1.838.225-1.8,1.712.112,4.388.087,8.75,0,13.188C81.2,74.629,71.2,85.592,59.21,87a70.075,70.075,0,0,1-7.762.213,1.875,1.875,0,0,0-1.937,1.1,7.678,7.678,0,1,1-.988-9.263c.088.1.225.188.275.313.738,2.175,2.5,2.125,4.338,2.1,3.238,0,6.488,0,9.563-1.25,7.625-3.125,12.137-8.75,13.062-16.975.55-4.925.1-9.888.225-14.837,0-.813-.312-1.025-1.062-1.013h-7.5c-.275-.525.112-.687.313-.888q5.194-5.119,10.387-10.413c.438-.437.75-.713,1.325-.112,3.675,3.75,7.387,7.412,11.075,11.112A2.925,2.925,0,0,1,90.8,47.729ZM46.635,84.479a3.4,3.4,0,0,0-3.35-3.512,3.363,3.363,0,0,0-3.337,3.325,3.3,3.3,0,0,0,3.188,3.488,3.363,3.363,0,0,0,3.5-3.3Z" transform="translate(-26.198 4.355)" fill="#ec2a4c"/>
    <path id="Trazado_142511" data-name="Trazado 142511" d="M83.722,63.568a5.738,5.738,0,0,1-5.85-6.037,5.988,5.988,0,0,1,5.963-5.9,5.925,5.925,0,0,1,5.975,6.012,6,6,0,0,1-6.087,5.925Zm2.613-6.25a2.544,2.544,0,1,0-5.088.088,2.575,2.575,0,0,0,2.613,2.5,2.5,2.5,0,0,0,2.475-2.625Z" transform="translate(-15.534 8.354)" fill="#104c82"/>
    <path id="Trazado_142512" data-name="Trazado 142512" d="M59.65,56.011a3.55,3.55,0,0,1-1.125,1.412c-1.612,1.612-1.612,1.612-.087,3.35.412.462,1.338.975,1.063,1.462a10,10,0,0,1-2.187,2.3c-.312.275-.55-.188-.775-.375-.812-.688-1.55-1.863-2.425-1.963s-1.55,1.25-2.325,1.988c-.4.375-.637.487-1.125.062-2.15-1.9-2.213-1.925-.212-4.013.85-.887.9-1.412,0-2.287-1.937-1.775-1.813-2.338.388-3.925.45-.325.625-.112.925.125.837.7,1.412,2.15,2.425,2.025s1.65-1.25,2.4-1.988c.5-.488.8-.4,1.25.063S59,55.461,59.65,56.011Z" transform="translate(-22.75 8.911)" fill="#104c82"/>
    <path id="Trazado_142513" data-name="Trazado 142513" d="M69.491,74.781a13.751,13.751,0,0,0,1.075,1.488c1.512,1.575,1.525,1.562,3.075,0,1.25-1.25,2.5-2.5,3.75-3.838.45-.463.725-.487,1.25,0,2.375,2.163,2.4,2.15.162,4.363-1.938,1.925-3.85,3.875-5.875,5.712-.737.663-1.125.588-1.75-.087-1.312-1.475-2.738-2.863-4.1-4.187-.463-.45-.575-.75,0-1.25C67.766,76.381,68.453,75.731,69.491,74.781Z" transform="translate(-18.328 13.465)" fill="#104c82"/>
    <path id="Trazado_142514" data-name="Trazado 142514" d="M45.689,75.413a3.363,3.363,0,0,1-3.538,3.3A3.3,3.3,0,0,1,39,75.225,3.362,3.362,0,0,1,42.376,71.9a3.4,3.4,0,0,1,3.313,3.513Z" transform="translate(-25.251 13.422)" fill="#fefbfc"/>
    <path id="Trazado_142515" data-name="Trazado 142515" d="M85.663,56.646a2.5,2.5,0,0,1-2.5,2.613,2.575,2.575,0,0,1-2.613-2.5,2.557,2.557,0,1,1,5.113-.113Z" transform="translate(-14.863 8.989)" fill="#d4e0f7"/>
  </g>
  <rect id="Rect치ngulo_36451" data-name="Rect치ngulo 36451" width="150" height="150" fill="none"/>
  <circle id="Elipse_6778" data-name="Elipse 6778" cx="68.45" cy="68.45" r="68.45" transform="translate(6.55 6.55)" fill="#039be5"/>
  <g id="Grupo_84999" data-name="Grupo 84999" transform="translate(35.4 11.289)">
    <path id="Trazado_142516" data-name="Trazado 142516" d="M94.545,19.093h15.763c1.012,0,1.25.275,1.25,1.25V123.58c0,1.038-.225,1.325-1.25,1.325H29.57c-1.1,0-1.25-.3-1.25-1.325V20.455c0-1.1.262-1.388,1.375-1.375H45.57a46.638,46.638,0,0,1,0,5.45H35.108c-1.125,0-1.375.3-1.375,1.388v92.15c0,1.125.313,1.375,1.388,1.375H93.633a.662.662,0,0,0,.525-.425c2.425-2.4,4.85-4.775,7.238-7.187,1.6-1.613,3.313-3.125,4.762-4.888.288-.387.15-.85.15-1.25V25.918c0-.975-.2-1.25-1.25-1.25-3.45.075-6.9,0-10.35,0a46.83,46.83,0,0,1-.162-5.575Z" transform="translate(-28.32 -6.519)" fill="#1565b2"/>
    <path id="Trazado_142517" data-name="Trazado 142517" d="M42.007,27.067a46.638,46.638,0,0,0,0-5.45c0-1.125.087-2.25,0-3.363,0-.862.25-1.075,1.087-1.075H57.032c.875,0,1.25-.212,1.363-1.125a8.075,8.075,0,0,1,16.012,0c.15.913.475,1.125,1.35,1.125H89.945c.825,0,1.138.188,1.088,1.05v3.363a46.827,46.827,0,0,0,0,5.462,15.691,15.691,0,0,0,0,2.163c.125,1.175-.213,1.538-1.488,1.538H43.232c-1.038,0-1.325-.312-1.25-1.25a19.275,19.275,0,0,0,.025-2.437Zm28.375-9.812A3.913,3.913,0,1,0,68.448,20.8,3.913,3.913,0,0,0,70.382,17.255Z" transform="translate(-24.907 -9.031)" fill="#ffa726"/>
    <path id="Trazado_142518" data-name="Trazado 142518" d="M44.38,23.5a19.274,19.274,0,0,1,0,2.4c-.075.975.212,1.312,1.25,1.25,3.325-.062,6.65,0,10,0H91.942c1.25,0,1.613-.362,1.488-1.537a15.689,15.689,0,0,1,0-2.162h10.35c1.025,0,1.25.313,1.25,1.25v79.775c0,.425.137.888-.15,1.25H92.605c-.4.35-.225.813-.225,1.25v11.25H33.868c-1.075,0-1.388-.25-1.388-1.375V24.7c0-1.088.25-1.412,1.375-1.388C37.43,23.548,40.917,23.5,44.38,23.5Zm44.2,27.15a2.313,2.313,0,0,0-.238-.5c-3.2-3.213-6.412-6.413-9.587-9.637-.513-.513-.775-.275-1.162.112l-9,9.025c-.175.175-.513.313-.275.763h6.55c.65,0,.95.175.925.887-.162,4.263.287,8.575-.162,12.875-.8,7.15-4.7,12-11.25,14.7a21.9,21.9,0,0,1-8.288,1.075c-1.625,0-3.112,0-3.75-1.825,0-.1-.15-.175-.225-.262a6.731,6.731,0,1,0,.638,7.9,1.65,1.65,0,0,1,1.687-.963,60.5,60.5,0,0,0,6.725-.187C71.53,83.36,80.205,73.9,80.343,63.485c0-3.75.075-7.625,0-11.438,0-1.25.387-1.525,1.55-1.487C84.08,50.71,86.242,50.648,88.58,50.648Zm3.113,17.188A5.187,5.187,0,0,0,96.955,62.7a5.125,5.125,0,0,0-5.175-5.2,5.188,5.188,0,0,0-5.163,5.112,5,5,0,0,0,5.075,5.225ZM64.58,61.773c-.512-.475-1.087-.975-1.612-1.525s-.638-.475-1.062,0c-.662.638-1.325,1.638-2.075,1.725s-1.387-1.162-2.112-1.762c-.262-.213-.412-.388-.8-.113-1.9,1.375-2.013,1.863-.338,3.4.813.763.775,1.25,0,1.987-1.738,1.813-1.687,1.825.188,3.475.425.362.625.275.975,0,.662-.625,1.25-1.813,2.012-1.725s1.388,1.113,2.088,1.7c.2.162.4.563.688.325a8.862,8.862,0,0,0,1.888-1.988c.237-.425-.575-.875-.925-1.25-1.25-1.5-1.325-1.487.075-2.9a2.987,2.987,0,0,0,1.013-1.35Zm12.363,20.2c-.9.8-1.5,1.388-2.15,1.913s-.4.65,0,1.037c1.25,1.25,2.5,2.4,3.65,3.662.55.588.875.65,1.525.075,1.75-1.587,3.4-3.287,5.075-5,1.938-1.912,1.925-1.912-.138-3.75-.437-.4-.675-.387-1.062,0-1.088,1.125-2.2,2.212-3.313,3.313-1.337,1.35-1.35,1.363-2.662,0A13.3,13.3,0,0,1,76.942,81.973Z" transform="translate(-27.28 -5.462)" fill="#edffff"/>
    <path id="Trazado_142519" data-name="Trazado 142519" d="M80.634,89.33H92.909c-1.45,1.762-3.163,3.275-4.762,4.887-2.388,2.413-4.812,4.788-7.238,7.188-.425-.337-.262-.812-.262-1.25Q80.627,94.736,80.634,89.33Z" transform="translate(-15.246 11.044)" fill="#bacfee"/>
    <path id="Trazado_142520" data-name="Trazado 142520" d="M80.684,89.33v10.813c0,.425-.162.9.262,1.25a.662.662,0,0,1-.525.425V90.568C80.459,90.167,80.284,89.68,80.684,89.33Z" transform="translate(-15.296 11.044)" fill="#a6b6d4"/>
    <path id="Trazado_142521" data-name="Trazado 142521" d="M86.965,47.256h-6.65c-1.163,0-1.587.2-1.55,1.487.088,3.75,0,7.625,0,11.438-.137,10.413-8.812,19.9-19.175,21.125a60.5,60.5,0,0,1-6.725.188,1.65,1.65,0,0,0-1.687.962,6.6,6.6,0,1,1-.788-7.963c.075.088.2.163.225.263.65,1.888,2.137,1.85,3.75,1.825a21.9,21.9,0,0,0,8.288-1.075c6.612-2.7,10.512-7.5,11.25-14.7.487-4.262.088-8.575.2-12.85,0-.713-.275-.887-.925-.887h-6.55c-.238-.45.1-.588.275-.763l9-9.025c.387-.387.65-.625,1.162-.112,3.175,3.225,6.388,6.425,9.588,9.637A2.313,2.313,0,0,1,86.965,47.256ZM48.715,79.094a2.925,2.925,0,1,0-5.838-.162,2.875,2.875,0,0,0,2.775,3.025,2.925,2.925,0,0,0,3.062-2.862Z" transform="translate(-25.665 -2.07)" fill="#ec2a4c"/>
    <path id="Trazado_142522" data-name="Trazado 142522" d="M80.866,61a5,5,0,0,1-5.075-5.225,5.187,5.187,0,0,1,5.162-5.113,5.125,5.125,0,0,1,5.175,5.2A5.187,5.187,0,0,1,80.866,61Zm2.262-5.45a2.125,2.125,0,0,0-2.25-2.125,2.175,2.175,0,0,0-2.15,2.237,2.238,2.238,0,0,0,2.325,2.163,2.212,2.212,0,0,0,2.075-2.275Z" transform="translate(-16.454 1.376)" fill="#104c82"/>
    <path id="Trazado_142523" data-name="Trazado 142523" d="M60,54.461a2.987,2.987,0,0,1-.975,1.25c-1.4,1.412-1.387,1.4-.075,2.9.35.4,1.162.85.925,1.25a8.862,8.862,0,0,1-1.888,2c-.287.237-.488-.162-.687-.325-.7-.588-1.338-1.613-2.087-1.7s-1.35,1.1-2.013,1.725c-.35.325-.55.412-.975,0-1.875-1.65-1.925-1.663-.187-3.475.737-.763.775-1.25,0-1.988-1.675-1.537-1.562-2.025.338-3.4.387-.275.537-.1.8.113.725.6,1.25,1.863,2.113,1.762s1.412-1.088,2.075-1.725c.425-.425.688-.35,1.063,0S59.492,53.986,60,54.461Z" transform="translate(-22.705 1.85)" fill="#104c82"/>
    <path id="Trazado_142524" data-name="Trazado 142524" d="M68.548,70.715a13.3,13.3,0,0,0,.925,1.25c1.25,1.362,1.325,1.35,2.662,0,1.113-1.1,2.225-2.187,3.313-3.312.387-.413.625-.425,1.062,0,2.063,1.862,2.075,1.862.138,3.75-1.675,1.662-3.325,3.363-5.075,5-.65.575-.975.512-1.525-.075-1.175-1.25-2.412-2.5-3.65-3.663-.4-.387-.5-.65,0-1.038S67.648,71.515,68.548,70.715Z" transform="translate(-18.885 5.796)" fill="#104c82"/>
    <path id="Trazado_142525" data-name="Trazado 142525" d="M47.928,71.286a2.925,2.925,0,0,1-3.063,2.863,2.875,2.875,0,0,1-2.775-3.025,2.925,2.925,0,1,1,5.837.162Z" transform="translate(-24.878 5.738)" fill="#fefbfc"/>
    <path id="Trazado_142526" data-name="Trazado 142526" d="M82.528,55a2.213,2.213,0,0,1-2.075,2.275,2.237,2.237,0,0,1-2.262-2.162,2.175,2.175,0,0,1,2.15-2.238A2.125,2.125,0,0,1,82.528,55Z" transform="translate(-15.853 1.928)" fill="#d4e0f7"/>
  </g>
  <rect id="Rect치ngulo_36452" data-name="Rect치ngulo 36452" width="150" height="150" fill="none"/>
  <g id="Grupo_85000" data-name="Grupo 85000" transform="translate(1.988 5.737)" opacity="0.15">
    <path id="Trazado_142527" data-name="Trazado 142527" d="M72.1,12.09A63.013,63.013,0,1,1,9.09,75.1,63.013,63.013,0,0,1,72.1,12.09m0-7.5A70.513,70.513,0,1,0,142.615,75.1,70.512,70.512,0,0,0,72.1,4.59Z" transform="translate(-1.59 -4.59)" fill="#385a65"/>
  </g>
  <path id="Trazado_142528" data-name="Trazado 142528" d="M74.1,11.09A63.013,63.013,0,1,1,11.09,74.1,63.013,63.013,0,0,1,74.1,11.09m0-7.5A70.513,70.513,0,1,0,144.615,74.1,70.513,70.513,0,0,0,74.1,3.59Z" transform="translate(0.897 0.898)" fill="url(#linear-gradient)"/>
</svg>
