<svg xmlns="http://www.w3.org/2000/svg" width="64.32" height="64.32" viewBox="0 0 64.32 64.32">
  <g id="icon14" transform="translate(-1125.11 -300.02)">
    <circle id="Elipse_6789" data-name="Elipse 6789" cx="31.16" cy="31.16" r="31.16" transform="translate(1127.11 300.02)" fill="#e7edf4"/>
    <circle id="Elipse_6801" data-name="Elipse 6801" cx="31.16" cy="31.16" r="31.16" transform="translate(1125.11 302.02)" fill="#fff"/>
    <g id="Grupo_85026" data-name="Grupo 85026">
      <path id="Trazado_142728" data-name="Trazado 142728" d="M1167.64,347.23h-20.07a3.41,3.41,0,0,1-3.4-3.4v-15a1.63,1.63,0,0,1,1.63-1.63h23.62a1.63,1.63,0,0,1,1.63,1.63v15A3.41,3.41,0,0,1,1167.64,347.23Zm-21.84-18.87a.51.51,0,0,0-.51.51v15a2.28,2.28,0,0,0,2.28,2.28h20.07a2.29,2.29,0,0,0,2.29-2.28v-15a.51.51,0,0,0-.51-.51Z" fill="#12263f"/>
      <path id="Trazado_142729" data-name="Trazado 142729" d="M1161.65,333.43h-8.08a1.76,1.76,0,0,1,0-3.52h8.08a1.76,1.76,0,1,1,0,3.52Zm-8.08-2.4a.64.64,0,1,0,0,1.28h8.08a.64.64,0,0,0,0-1.28Z" fill="#12263f"/>
      <path id="Trazado_142730" data-name="Trazado 142730" d="M1175.2,347.23H1143a.56.56,0,1,1,0-1.12h32.22a.56.56,0,1,1,0,1.12Z" fill="#12263f"/>
      <path id="Trazado_142731" data-name="Trazado 142731" d="M1161.31,326a.58.58,0,0,1-.37-.13l-.31-.27a.56.56,0,1,1,.73-.85l.31.27a.56.56,0,0,1,.06.79.55.55,0,0,1-.42.19Z" fill="#12263f"/>
      <path id="Trazado_142732" data-name="Trazado 142732" d="M1164.59,328.36a.479.479,0,0,1-.2,0,.55.55,0,0,1-.32-.72.46.46,0,0,0-.1-.53.51.51,0,0,0-.7.1,1.64,1.64,0,0,1-1.09.58,1.51,1.51,0,0,1-1.18-.36,1.53,1.53,0,0,1-.53-1.12,1.641,1.641,0,0,1,.42-1.16,1.679,1.679,0,0,1,1.09-.58,1.51,1.51,0,0,1,1.18.36.56.56,0,1,1-.73.85.44.44,0,0,0-.33-.1.62.62,0,0,0-.37.2.52.52,0,0,0-.14.39.38.38,0,0,0,.14.31.42.42,0,0,0,.33.1.57.57,0,0,0,.37-.2,1.61,1.61,0,0,1,2.27-.21,1.58,1.58,0,0,1,.41,1.77A.54.54,0,0,1,1164.59,328.36Z" fill="#12263f"/>
      <path id="Trazado_142733" data-name="Trazado 142733" d="M1167.09,322.47a.54.54,0,0,1-.37-.14.55.55,0,0,1,0-.78l1.25-1.44a.56.56,0,1,1,.84.73l-1.25,1.44A.54.54,0,0,1,1167.09,322.47Z" fill="#12263f"/>
      <path id="Trazado_142734" data-name="Trazado 142734" d="M1169.22,324.77a.54.54,0,0,1-.36-.14.57.57,0,0,1-.06-.79l1.92-2.21a1.69,1.69,0,0,1-.23-.73,1.761,1.761,0,0,1,.12-.76l-2.26-2a1.821,1.821,0,0,1-.74.22,1.64,1.64,0,0,1-.76-.12l-1.91,2.21a.56.56,0,0,1-.79.06.57.57,0,0,1-.06-.79l2.22-2.56a.58.58,0,0,1,.39-.19.53.53,0,0,1,.4.13.58.58,0,0,0,.43.15.63.63,0,0,0,.41-.21.56.56,0,0,1,.79-.05l3,2.57a.56.56,0,0,1,0,.79.6.6,0,0,0-.14.43.56.56,0,0,0,.2.4.57.57,0,0,1,.06.79l-2.22,2.56a.57.57,0,0,1-.41.24Z" fill="#12263f"/>
      <path id="Trazado_142735" data-name="Trazado 142735" d="M1151.67,319.18a.56.56,0,0,1-.56-.56v-.47a.56.56,0,1,1,1.11,0v.47a.56.56,0,0,1-.55.56Z" fill="#12263f"/>
      <path id="Trazado_142736" data-name="Trazado 142736" d="M1151.67,326a5,5,0,1,1,5-5,5,5,0,0,1-5,5Zm0-8.89a1.612,1.612,0,1,0,0-.04Z" fill="#12263f"/>
      <path id="Trazado_142737" data-name="Trazado 142737" d="M1151.67,323.85a1.77,1.77,0,0,1-1.81-1.73.56.56,0,1,1,1.11,0,.7.7,0,1,0,.7-.61,1.72,1.72,0,1,1,1.8-1.72.56.56,0,1,1-1.11,0,.7.7,0,1,0-.69.61,1.73,1.73,0,1,1,0,3.45Z" fill="#12263f"/>
      <path id="Trazado_142738" data-name="Trazado 142738" d="M1151.67,324.38a.56.56,0,0,1-.56-.56v-.53a.56.56,0,1,1,1.11,0v.53a.56.56,0,0,1-.55.56Z" fill="#12263f"/>
      <path id="Trazado_142739" data-name="Trazado 142739" d="M1159.56,319.32a.56.56,0,0,1-.56-.56v-4a.56.56,0,0,1,1-.35l1,1.15a.56.56,0,0,1-.82.75v2.42a.56.56,0,0,1-.62.59Z" fill="#12263f"/>
      <path id="Trazado_142740" data-name="Trazado 142740" d="M1159.56,319.32a.56.56,0,0,1-.56-.56v-2.42a.56.56,0,0,1-.83-.75l1-1.15a.56.56,0,0,1,1,.35v4a.56.56,0,0,1-.61.53Z" fill="#12263f"/>
      <path id="Trazado_142741" data-name="Trazado 142741" d="M1145.87,325.3h-1.06a.56.56,0,1,1,0-1.12h1.06a.56.56,0,1,1,0,1.12Z" fill="#12263f"/>
      <path id="Trazado_142742" data-name="Trazado 142742" d="M1145.34,325.83a.56.56,0,0,1-.56-.56v-1.06a.56.56,0,1,1,1.12,0v1.06a.56.56,0,0,1-.56.56Z" fill="#12263f"/>
      <path id="Trazado_142743" data-name="Trazado 142743" d="M1158.87,321.75h-1.06a.56.56,0,1,1,0-1.12h1.06a.56.56,0,1,1,0,1.12Z" fill="#12263f"/>
      <path id="Trazado_142744" data-name="Trazado 142744" d="M1158.34,322.28a.56.56,0,0,1-.56-.56v-1.06a.56.56,0,0,1,1.12,0v1.06A.56.56,0,0,1,1158.34,322.28Z" fill="#12263f"/>
      <path id="Trazado_142745" data-name="Trazado 142745" d="M1168.75,328.36h-13.53a.55.55,0,0,1-.42-.92l12.25-14.14a.56.56,0,0,1,.79-.05l7.72,6.69a.56.56,0,0,1,.06.79l-6.45,7.44a.55.55,0,0,1-.42.19Zm-12.3-1.12h12l5.91-6.82-6.88-6Z" fill="#12263f"/>
      <path id="Trazado_142746" data-name="Trazado 142746" d="M1167.55,328.36h-9a.56.56,0,0,1-.51-.33,4.61,4.61,0,0,1,.47-4.94c1.68-1.93,5-1.84,7.33.21a6.11,6.11,0,0,1,2.21,4.5.55.55,0,0,1-.16.4A.571.571,0,0,1,1167.55,328.36Zm-8.58-1.12h8a5.261,5.261,0,0,0-1.79-3.1c-1.9-1.64-4.48-1.78-5.75-.31a3.389,3.389,0,0,0-.43,3.41Z" fill="#12263f"/>
      <path id="Trazado_142747" data-name="Trazado 142747" d="M1159,343.45h-2.7a.56.56,0,0,1-.56-.56v-2.56H1155a.56.56,0,0,1-.51-.32.57.57,0,0,1,.09-.6l2.64-3.1a.59.59,0,0,1,.43-.19.55.55,0,0,1,.42.19l2.65,3.1a.57.57,0,0,1,.08.6.55.55,0,0,1-.5.32h-.74v2.56A.56.56,0,0,1,1159,343.45Zm-2.15-1.12h1.59v-2.56a.56.56,0,0,1,.56-.55h.08l-1.43-1.68-1.44,1.68h.09a.55.55,0,0,1,.55.55Z" fill="#12263f"/>
      <path id="Trazado_142748" data-name="Trazado 142748" d="M1160.26,343.45H1155a.56.56,0,1,1,0-1.12h5.3a.56.56,0,1,1,0,1.12Z" fill="#12263f"/>
    </g>
  </g>
</svg>
