<svg xmlns="http://www.w3.org/2000/svg" width="64.32" height="64.32" viewBox="0 0 64.32 64.32">
  <g id="icon13" transform="translate(-1125.11 -171.81)">
    <circle id="Elipse_6791" data-name="Elipse 6791" cx="31.16" cy="31.16" r="31.16" transform="translate(1127.11 171.81)" fill="#e7edf4"/>
    <circle id="Elipse_6802" data-name="Elipse 6802" cx="31.16" cy="31.16" r="31.16" transform="translate(1125.11 173.81)" fill="#fff"/>
    <g id="Grupo_85024" data-name="Grupo 85024">
      <path id="Trazado_142697" data-name="Trazado 142697" d="M1157,189.11h-3.51a.56.56,0,1,1,0-1.12H1157a.56.56,0,0,1,0,1.12Z" fill="#12263f"/>
      <path id="Trazado_142698" data-name="Trazado 142698" d="M1164.32,190.72h-18.15a.56.56,0,1,1,0-1.12h18.15a.56.56,0,1,1,0,1.12Z" fill="#12263f"/>
      <path id="Trazado_142699" data-name="Trazado 142699" d="M1155.91,219h-1.33a1.25,1.25,0,0,1-1.25-1.24v-1.34a1.25,1.25,0,0,1,1.25-1.24h1.33a1.24,1.24,0,0,1,1.24,1.24v1.34A1.24,1.24,0,0,1,1155.91,219Zm-1.33-2.7a.13.13,0,0,0-.13.12v1.34a.12.12,0,0,0,.13.12h1.33a.12.12,0,0,0,.13-.12v-1.34a.13.13,0,0,0-.13-.12Z" fill="#12263f"/>
      <path id="Trazado_142700" data-name="Trazado 142700" d="M1164.32,214.71h-18.15a.56.56,0,1,1,0-1.12h18.15a.56.56,0,1,1,0,1.12Z" fill="#12263f"/>
      <path id="Trazado_142701" data-name="Trazado 142701" d="M1163,220.55h-15.59a1.84,1.84,0,0,1-1.84-1.84V188.22a1.84,1.84,0,0,1,1.84-1.84H1163a1.84,1.84,0,0,1,1.84,1.84v9.63a.56.56,0,0,1-1.12,0v-9.63a.72.72,0,0,0-.72-.72h-15.59a.72.72,0,0,0-.72.72v30.49a.72.72,0,0,0,.72.72H1163a.72.72,0,0,0,.72-.72v-6a.56.56,0,1,1,1.12,0v6a1.85,1.85,0,0,1-1.84,1.84Z" fill="#12263f"/>
      <path id="Trazado_142702" data-name="Trazado 142702" d="M1154.38,196.12a.56.56,0,0,1-.56-.56V195a.56.56,0,0,1,1.12,0v.59a.56.56,0,0,1-.56.53Z" fill="#12263f"/>
      <path id="Trazado_142703" data-name="Trazado 142703" d="M1154.38,204.57a6.1,6.1,0,1,1,6.1-6.1,6.1,6.1,0,0,1-6.1,6.1Zm0-11.08a5,5,0,1,0,5,5A5,5,0,0,0,1154.38,193.49Z" fill="#12263f"/>
      <path id="Trazado_142704" data-name="Trazado 142704" d="M1154.38,201.94a2.07,2.07,0,0,1-2.12-2,.56.56,0,0,1,1.12,0,1,1,0,1,0,1-.9,2,2,0,1,1,2.12-2,.56.56,0,0,1-1.12,0,1,1,0,1,0-1,.89,2,2,0,0,1,0,4Z" fill="#12263f"/>
      <path id="Trazado_142705" data-name="Trazado 142705" d="M1154.38,202.61a.56.56,0,0,1-.56-.56v-.67a.56.56,0,0,1,1.12,0v.67a.56.56,0,0,1-.56.56Z" fill="#12263f"/>
      <path id="Trazado_142706" data-name="Trazado 142706" d="M1166.66,203.44a.48.48,0,0,1-.26-.07.55.55,0,0,1-.23-.76l.26-.47a.566.566,0,1,1,1,.53l-.26.48a.56.56,0,0,1-.51.29Z" fill="#12263f"/>
      <path id="Trazado_142707" data-name="Trazado 142707" d="M1165.38,210.9a5.63,5.63,0,1,1,5.589-4.931A5.68,5.68,0,0,1,1165.38,210.9Zm0-10.21a4.451,4.451,0,1,0,.02,0Z" fill="#12263f"/>
      <path id="Trazado_142708" data-name="Trazado 142708" d="M1164.83,208.33a2.07,2.07,0,0,1-1-.25,1.94,1.94,0,0,1-.85-2.61.566.566,0,1,1,1,.53.89.89,0,0,0,1.55.83.75.75,0,0,0,0-.59.9.9,0,0,0-.45-.51,1.9,1.9,0,1,1,2.66-.73.566.566,0,1,1-1-.53.89.89,0,1,0-1.14.27,2.09,2.09,0,0,1,1,1.14,1.85,1.85,0,0,1-1.8,2.45Z" fill="#12263f"/>
      <path id="Trazado_142709" data-name="Trazado 142709" d="M1163.83,208.69a.56.56,0,0,1-.49-.82l.29-.54a.55.55,0,0,1,.76-.23.56.56,0,0,1,.22.76l-.29.54a.56.56,0,0,1-.49.29Z" fill="#12263f"/>
      <path id="Trazado_142710" data-name="Trazado 142710" d="M1173.66,214.42a.56.56,0,0,1-.19-1.08l.36-.13a.55.55,0,0,1,.71.33.56.56,0,0,1-.33.72l-.36.13a.579.579,0,0,1-.19.03Z" fill="#12263f"/>
      <path id="Trazado_142711" data-name="Trazado 142711" d="M1171.91,218.64a4.1,4.1,0,1,1,1.41-.24,4.068,4.068,0,0,1-1.41.24Zm0-7.15a2.9,2.9,0,0,0-1,.19,2.978,2.978,0,1,0,.99-.19Z" fill="#12263f"/>
      <path id="Trazado_142712" data-name="Trazado 142712" d="M1171.06,216.39a1.58,1.58,0,0,1-1.45-1,1.55,1.55,0,0,1,.87-2,.57.57,0,0,1,.72.33.56.56,0,0,1-.33.72.42.42,0,0,0-.21.55.43.43,0,0,0,.51.29.32.32,0,0,0,.2-.2.47.47,0,0,0,0-.35,1.581,1.581,0,0,1,0-1.17,1.43,1.43,0,0,1,.84-.81,1.45,1.45,0,0,1,1.17.07,1.6,1.6,0,0,1,.75,2.05,1.46,1.46,0,0,1-.84.81.56.56,0,0,1-.72-.33.57.57,0,0,1,.34-.72.35.35,0,0,0,.19-.19.5.5,0,0,0,0-.36.529.529,0,0,0-.23-.26.36.36,0,0,0-.28,0,.38.38,0,0,0-.2.2.45.45,0,0,0,0,.36,1.581,1.581,0,0,1,0,1.17,1.46,1.46,0,0,1-.84.81,1.431,1.431,0,0,1-.49.03Z" fill="#12263f"/>
      <path id="Trazado_142713" data-name="Trazado 142713" d="M1169.74,215.86a.56.56,0,0,1-.53-.37.54.54,0,0,1,.33-.71l.41-.15a.54.54,0,0,1,.71.33.56.56,0,0,1-.33.72l-.4.15Z" fill="#12263f"/>
      <path id="Trazado_142714" data-name="Trazado 142714" d="M1175.48,220.55h-27a.57.57,0,0,1-.56-.56.56.56,0,0,1,.56-.56h27a.56.56,0,0,1,0,1.12Z" fill="#12263f"/>
      <path id="Trazado_142715" data-name="Trazado 142715" d="M1160.73,212.44a.55.55,0,0,1-.46-.24c-2.86-4.06-9.23-6.17-9.3-6.2a.55.55,0,0,1-.35-.7.56.56,0,0,1,.7-.36c.28.09,6.79,2.25,9.86,6.62a.56.56,0,0,1-.13.78.55.55,0,0,1-.32.1Z" fill="#12263f"/>
      <path id="Trazado_142716" data-name="Trazado 142716" d="M1170.7,199.36a.58.58,0,0,1-.19,0,.56.56,0,0,1-.37-.52V195a.56.56,0,1,1,1.12,0v2.25a.56.56,0,0,1,.78.79l-.91,1.1a.57.57,0,0,1-.43.22Z" fill="#12263f"/>
      <path id="Trazado_142717" data-name="Trazado 142717" d="M1170.7,199.36a.55.55,0,0,1-.43-.2l-.91-1.1a.56.56,0,0,1,.07-.79.57.57,0,0,1,.71,0V195a.56.56,0,1,1,1.12,0v3.79a.56.56,0,0,1-.37.52A.631.631,0,0,1,1170.7,199.36Z" fill="#12263f"/>
    </g>
  </g>
</svg>
