<svg id="img13" xmlns="http://www.w3.org/2000/svg" width="120" height="120" viewBox="0 0 120 120">
  <circle id="Elipse_6752" data-name="Elipse 6752" cx="54.76" cy="54.76" r="54.76" transform="translate(5.24 5.24)" fill="#039be5"/>
  <rect id="Rectángulo_36219" data-name="Rectángulo 36219" width="120" height="120" fill="none"/>
  <g id="Grupo_83986" data-name="Grupo 83986">
    <path id="Trazado_139003" data-name="Trazado 139003" d="M107.08,76.68c.84,0,1.68.07,2.52,0a2.4,2.4,0,0,1,2.33,1V78.9a2.26,2.26,0,0,1-2.24,1c-.87-.06-1.75,0-2.63,0-.09-.47.19-1-.18-1.43C107.2,77.93,107,77.29,107.08,76.68Z" fill="#656d78"/>
    <path id="Trazado_139004" data-name="Trazado 139004" d="M69.74,89.66H46.32c-.77,0-1-.22-1-1V73.61A14,14,0,0,1,50.3,62.57,13.13,13.13,0,0,1,58,59.08a11,11,0,0,0,1.31.5,13,13,0,0,1,6,3.5,14.49,14.49,0,0,1,4.42,10.49C69.76,78.93,69.74,84.29,69.74,89.66Z" fill="#fecd54"/>
    <path id="Trazado_139005" data-name="Trazado 139005" d="M58,59.08a13.13,13.13,0,0,0-7.67,3.49,14,14,0,0,0-4.92,11.09v3H40.5V50.75h39V76.68H74.66V73.75A14.18,14.18,0,0,0,67.4,60.86,12.79,12.79,0,0,0,58,59.08Z" fill="#965353"/>
    <path id="Trazado_139006" data-name="Trazado 139006" d="M12.94,80H9.8a1.62,1.62,0,1,1,0-3.23,18.439,18.439,0,0,1,2.23,0c.73.06,1-.14,1-.93a35.811,35.811,0,0,1,.13-5.67,11.22,11.22,0,0,1,9.18-9.42,3.34,3.34,0,0,0,.6.35A11.56,11.56,0,0,1,30.8,72.41c-.09,3.55,0,7.1,0,10.65a3.469,3.469,0,0,0-.25.29l-.56.23a13.2,13.2,0,0,1-15.42-3.07c-.54-.58-1-1.2-1.62-1.88Z" fill="#656d78"/>
    <path id="Trazado_139007" data-name="Trazado 139007" d="M84.32,76.69V70.3A9.71,9.71,0,0,1,94,60.49h3.34c0,1.51.07,3,0,4.54a4.93,4.93,0,0,0,4.07,5.1c.76.11.83.43.82,1V82.96a.86.86,0,0,1,0,.16c-.24.1-.5.19-.74.31a13.23,13.23,0,0,1-10.09.58,14.19,14.19,0,0,1-7-5.53Z" fill="#965353"/>
    <path id="Trazado_139008" data-name="Trazado 139008" d="M55.13,33.48a12,12,0,0,1-5.21-5,11.12,11.12,0,0,1-1.28-4.84V18.58a4.09,4.09,0,0,1,.7,0,24,24,0,0,0,5.55.08c3.59-.28,6.87-1.73,10.2-3a4.18,4.18,0,0,1,3.27,1c-.36.28-.21.68-.22,1-.11,2.32.14,4.64-.19,7a11.15,11.15,0,0,1-7.27,9.15c-.62.26-1.35.2-1.87.69a22,22,0,0,1-3.68-1.02Z" fill="#e9c5ba"/>
    <path id="Trazado_139009" data-name="Trazado 139009" d="M79.48,50.75h-39c-1.23-.29-1.59-.72-1.6-1.94V46.27c0-1.29.32-1.69,1.62-2.06h39c1.31.4,1.61.77,1.61,2.07v2.53C81.08,50,80.7,50.47,79.48,50.75Z" fill="#656d78"/>
    <path id="Trazado_139010" data-name="Trazado 139010" d="M29.16,94.52l1,.07a5.4,5.4,0,0,1,3.85,6c-.09,1.2,0,2.41,0,3.62H10.39c-.59,0-.74-.2-.73-.76V99.19a4.86,4.86,0,0,1,4.75-4.72h5Z" fill="#5d9ceb"/>
    <path id="Trazado_139011" data-name="Trazado 139011" d="M105.45,104.28H82.04c-.78,0-1-.25-1-1,.13-1.78-.28-3.59.25-5.33a4.86,4.86,0,0,1,4.73-3.43H101.6l1.07.53a4.72,4.72,0,0,1,2.75,4.25C105.51,101,105.45,102.63,105.45,104.28Z" fill="#e5e8ec"/>
    <path id="Trazado_139012" data-name="Trazado 139012" d="M64.87,94.53l1,.06c2.21.82,3.69,2.27,3.82,4.74.08,1.64,0,3.29,0,4.93H46.06c-.6,0-.74-.2-.73-.76V99.24a4.86,4.86,0,0,1,4.76-4.72h5l4.48,1.54a1.16,1.16,0,0,0,.78,0Z" fill="#48ceac"/>
    <path id="Trazado_139013" data-name="Trazado 139013" d="M65.07,15.64c-3.33,1.25-6.61,2.7-10.2,3a24,24,0,0,1-5.55-.08,4.09,4.09,0,0,0-.7,0c-1.7-.2-1.7-.2-1.6-2A12.23,12.23,0,0,1,57.26,5.48a11.67,11.67,0,0,1,11,4.07.46.46,0,0,0-.4.25C67,11.75,65.86,13.62,65.07,15.64Z" fill="#fecd54"/>
    <path id="Trazado_139014" data-name="Trazado 139014" d="M69.73,44.21H47c.13-1.63-.27-3.28.32-4.89a5.11,5.11,0,0,1,4.37-3.19h3.43c1.39,1.74,1.44,1.83,3.27.75a2.71,2.71,0,0,1,3.09.06c1.83,1,1.87,1,3.28-.64,0,0,.06-.12.1-.18h1c2,.78,3.5,2,3.78,4.26a30.41,30.41,0,0,1,.09,3.83Z" fill="#e5e8ec"/>
    <path id="Trazado_139015" data-name="Trazado 139015" d="M58,59.08a12.79,12.79,0,0,1,9.38,1.8,14.18,14.18,0,0,1,7.26,12.89V88.74c0,.74-.16,1-.94,1-1.31-.08-2.63,0-3.94,0V73.65a14.49,14.49,0,0,0-4.42-10.49,13,13,0,0,0-6-3.5A11,11,0,0,1,58,59.08Z" fill="#f5ba42"/>
    <path id="Trazado_139016" data-name="Trazado 139016" d="M102.2,83V71.17c0-.61-.06-.93-.82-1a4.93,4.93,0,0,1-4.07-5.1c.09-1.51,0-3,0-4.54h4.24c.49,0,.65.14.63.63V64.7c0,.45,0,.66.62.75a4.8,4.8,0,0,1,4.25,5q0,3.12,0,6.26c-.08.61.12,1.25-.2,1.83A11.67,11.67,0,0,1,102.2,83Z" fill="#844747"/>
    <path id="Trazado_139017" data-name="Trazado 139017" d="M30.79,83.06c0-3.55-.08-7.1,0-10.65a11.56,11.56,0,0,0-7.93-11.36,3.34,3.34,0,0,1-.6-.35,11.28,11.28,0,0,1,13,8,18,18,0,0,1,.41,5c0,1,0,2,0,2.94v1.85c-.35.18-.45.56-.67.85a12.38,12.38,0,0,1-4.21,3.72Z" fill="#444b55"/>
    <path id="Trazado_139018" data-name="Trazado 139018" d="M84.37,78.54a14.19,14.19,0,0,0,7,5.53,13.23,13.23,0,0,0,10.09-.58c.24-.12.5-.21.74-.31V84.5c.09,1-.25,2,.21,3l-1.85,1.18a14.61,14.61,0,0,1-5.26,1,18.56,18.56,0,0,1-4.47-1,12.16,12.16,0,0,1-5.63-6c-.38-.9-.47-1.87-.85-2.76C84.36,79.48,84.36,79,84.37,78.54Z" fill="#e9c5ba"/>
    <path id="Trazado_139019" data-name="Trazado 139019" d="M12.94,80V78.63c.59.68,1.08,1.3,1.62,1.88A13.2,13.2,0,0,0,30,83.58l.56-.23c.4.34.19.8.24,1.21.12,1-.25,2,.22,2.9l-1.85,1.19a16.09,16.09,0,0,1-4.6,1,14.66,14.66,0,0,1-5.12-1,12.28,12.28,0,0,1-5.64-5.94C13.41,81.81,13.33,80.84,12.94,80Z" fill="#e9c5ba"/>
    <path id="Trazado_139020" data-name="Trazado 139020" d="M64.87,94.53l-4.48,1.54a1.16,1.16,0,0,1-.78,0l-4.48-1.54V89.71H64.9Z" fill="#e9c5ba"/>
    <path id="Trazado_139021" data-name="Trazado 139021" d="M58.79,34.47c.52-.49,1.25-.43,1.87-.69a11.15,11.15,0,0,0,7.27-9.15c.33-2.32.08-4.64.19-7,0-.35-.14-.75.22-1,.4,0,.62.35.87.61.71.73,1.4,1.48,2.1,2.22.06,2.55.3,5.12-.63,7.59a11.78,11.78,0,0,1-5.82,6.42,12.64,12.64,0,0,1-6.07,1Z" fill="#d3b1a9"/>
    <path id="Trazado_139022" data-name="Trazado 139022" d="M90.83,88.66a18.56,18.56,0,0,0,4.47,1,14.61,14.61,0,0,0,5.26-1v5.91H90.83Z" fill="#f4f6f9"/>
    <path id="Trazado_139023" data-name="Trazado 139023" d="M19.43,88.65a14.66,14.66,0,0,0,5.12,1,16.09,16.09,0,0,0,4.6-1v5.87H19.42Z" fill="#f4f6f9"/>
    <path id="Trazado_139024" data-name="Trazado 139024" d="M69.74,104.26c0-1.64.06-3.29,0-4.93-.13-2.47-1.61-3.92-3.82-4.74,1.41,0,2.83-.07,4.24,0A4.81,4.81,0,0,1,74.59,99v4.55c0,.56-.15.77-.74.75C72.5,104.26,71.12,104.27,69.74,104.26Z" fill="#38bc9b"/>
    <path id="Trazado_139025" data-name="Trazado 139025" d="M34,104.26c0-1.21-.08-2.42,0-3.62a5.4,5.4,0,0,0-3.85-6c1.42,0,2.83-.07,4.25,0A4.81,4.81,0,0,1,38.89,99v4.56c0,.56-.14.77-.73.75C36.8,104.26,35.42,104.27,34,104.26Z" fill="#4b89db"/>
    <path id="Trazado_139026" data-name="Trazado 139026" d="M105.45,104.28c0-1.65.06-3.3,0-4.94a4.72,4.72,0,0,0-2.75-4.25l-1.07-.53c1.87.12,3.77-.33,5.61.34a5,5,0,0,1,3.09,4.15c0,1.48,0,3,0,4.45,0,.63-.22.81-.82.8C108.15,104.26,106.8,104.28,105.45,104.28Z" fill="#cbd0d8"/>
    <path id="Trazado_139027" data-name="Trazado 139027" d="M35.65,78.52V76.67h9.68v3.26H35.65Z" fill="#656d78"/>
    <path id="Trazado_139028" data-name="Trazado 139028" d="M84.37,78.54v1.41H74.63V76.7h9.68C84.34,77.3,84.35,77.92,84.37,78.54Z" fill="#656d78"/>
    <path id="Trazado_139029" data-name="Trazado 139029" d="M43.77,44.21H40.52V36.75a2.57,2.57,0,0,1,1.23-2.46c1.2.38,2.33.81,2,2.44Z" fill="#e5e8ec"/>
    <path id="Trazado_139030" data-name="Trazado 139030" d="M79.48,44.21H76.22V36.72c0-1.76.46-2.18,2.23-2.22h0l.19.2a1.72,1.72,0,0,1,.83,1.72C79.47,39,79.48,41.61,79.48,44.21Z" fill="#e5e8ec"/>
    <path id="Trazado_139031" data-name="Trazado 139031" d="M71.31,19.47c-.7-.74-1.39-1.49-2.1-2.22-.25-.26-.47-.57-.87-.61a4.18,4.18,0,0,0-3.27-1c.79-2,1.89-3.89,2.83-5.84a.46.46,0,0,1,.4-.25,11.66,11.66,0,0,1,3,7.6C71.36,17.92,71.32,18.7,71.31,19.47Z" fill="#f5ba42"/>
    <path id="Trazado_139032" data-name="Trazado 139032" d="M58.79,34.47a12.64,12.64,0,0,0,6.07-1v2.64a.362.362,0,0,1-.1.18c-1.41,1.6-1.45,1.67-3.28.64a2.71,2.71,0,0,0-3.09-.06c-1.83,1.08-1.88,1-3.27-.75V33.48a22,22,0,0,0,3.67.99Z" fill="#f4f6f9"/>
    <path id="Trazado_139033" data-name="Trazado 139033" d="M69.73,44.21a30.409,30.409,0,0,0-.06-3.82c-.28-2.22-1.79-3.48-3.78-4.26h2a4.91,4.91,0,0,1,5.06,5q0,1.5,0,3Z" fill="#cbd0d8"/>
    <path id="Trazado_139034" data-name="Trazado 139034" d="M35.65,78.52v1.42a13,13,0,0,1-2.38,5.39A10,10,0,0,1,31,87.46c-.47-.94-.1-1.94-.22-2.9-.05-.41.16-.87-.24-1.21a3.47,3.47,0,0,1,.25-.29A12.38,12.38,0,0,0,35,79.37C35.2,79.08,35.3,78.7,35.65,78.52Z" fill="#d3b1a9"/>
    <path id="Trazado_139035" data-name="Trazado 139035" d="M102.41,87.46c-.46-1-.12-2-.21-3V83.14a.86.86,0,0,0,0-.16,11.67,11.67,0,0,0,4.68-4.51c.37.43.09,1,.18,1.43a13.42,13.42,0,0,1-2.58,5.62A9.57,9.57,0,0,1,102.41,87.46Z" fill="#d3b1a9"/>
    <path id="Trazado_139036" data-name="Trazado 139036" d="M78.46,34.5c-1.77,0-2.2.46-2.23,2.22-.94-.9-1.91-1.78-2.81-2.73a1.623,1.623,0,0,1,2.3-2.29C76.67,32.6,77.55,33.56,78.46,34.5Z" fill="#cbd0d8"/>
    <path id="Trazado_139037" data-name="Trazado 139037" d="M43.77,36.73c.29-1.63-.84-2.06-2-2.44.82-.84,1.61-1.7,2.46-2.52a1.64,1.64,0,0,1,2.35-.05,1.62,1.62,0,0,1,0,2.35C45.63,35,44.68,35.85,43.77,36.73Z" fill="#cbd0d8"/>
    <path id="Trazado_139038" data-name="Trazado 139038" d="M78.65,34.7l-.19-.2Z" fill="#cbd0d8"/>
  </g>
</svg>
