<svg xmlns="http://www.w3.org/2000/svg" width="120" height="120" viewBox="0 0 120 120">
  <g id="img10" transform="translate(-0.48)">
    <rect id="Rectángulo_36216" data-name="Rectángulo 36216" width="120" height="120" transform="translate(0.48)" fill="none"/>
    <circle id="Elipse_6749" data-name="Elipse 6749" cx="54.76" cy="54.76" r="54.76" transform="translate(5.24 5.24)" fill="#039be5"/>
    <g id="Grupo_83984" data-name="Grupo 83984">
      <path id="Trazado_138939" data-name="Trazado 138939" d="M55.48,37.41V12.96a7.46,7.46,0,0,1,6.84-7.53H84.71c.31,0,.65.09.89-.2h4.7V17.06a7.8,7.8,0,0,0,7.3,7.6h12.15c.34,7.69.14,15.37.19,23.06V69.18a7.53,7.53,0,0,1-7.8,7.82c-5.09,0-10.18-.09-15.27.06-5.62.16-11.24,0-16.86.16H63.38a7.75,7.75,0,0,1-4.75-1.64,8.42,8.42,0,0,1-2.93-4.83,2.14,2.14,0,0,1,.82-2c2.35-2.28,4.65-4.62,7-6.93a7.43,7.43,0,0,0,2.3-5.12c.12-2.79-1.29-4.79-3.22-6.55-.94-.85-1.42-.88-2.42-.09l-4.45,3.48a10.468,10.468,0,0,0-.06-1.37Zm24.21,22.3H90c1.06,0,1.78-.61,1.75-1.43S91.14,57,90.06,57H69.48c-1.16,0-1.79.49-1.81,1.35s.72,1.41,1.89,1.41Zm8.53-12h-10c-1.27,0-1.84.46-1.81,1.42s.58,1.34,1.79,1.34h20c1.2,0,1.93-.53,1.93-1.38s-.73-1.38-1.91-1.38Zm-9.36-6.43h9.6c1.08,0,1.8-.58,1.79-1.39s-.73-1.36-1.83-1.37h-19c-1.17,0-1.88.6-1.75,1.5s.78,1.26,1.68,1.26ZM89,66.13H79.6c-1.06,0-1.69.54-1.69,1.37s.7,1.39,1.8,1.39h18.5c1.12,0,1.82-.51,1.86-1.33s-.71-1.43-1.87-1.43Zm.21-34h9c1.16,0,1.9-.58,1.87-1.42s-.74-1.34-1.85-1.34H80.5c-1.18,0-1.92.53-1.93,1.37s.74,1.39,1.91,1.39ZM72.15,29.39H69.28a1.39,1.39,0,0,0-1.6,1.34c-.07.81.57,1.4,1.52,1.41h5.85A1.376,1.376,0,1,0,75,29.4C74.06,29.37,73.11,29.39,72.15,29.39Zm-.47,39.5h2.56c1,0,1.54-.53,1.55-1.37s-.53-1.37-1.53-1.38h-5c-1,0-1.58.55-1.59,1.35a1.5,1.5,0,0,0,1.57,1.4C70.05,68.91,70.87,68.89,71.68,68.89ZM96.13,41.33h2.45a1.38,1.38,0,1,0,0-2.75H93.69a1.38,1.38,0,1,0,0,2.75C94.5,41.36,95.32,41.33,96.13,41.33ZM70.82,50.52h2a1.3,1.3,0,0,0,1.41-1.4,1.28,1.28,0,0,0-1.36-1.34H69.03a1.28,1.28,0,0,0-1.36,1.35,1.32,1.32,0,0,0,1.42,1.39C69.68,50.54,70.25,50.52,70.82,50.52ZM97,59.7h1.7a1.33,1.33,0,0,0,1.3-1.37A1.3,1.3,0,0,0,98.71,57c-1.17,0-2.34-.05-3.51,0a1.24,1.24,0,0,0-1.27,1.29,1.27,1.27,0,0,0,1.26,1.42A13.5,13.5,0,0,0,97,59.7Z" fill="#9ad7f5"/>
      <path id="Trazado_138940" data-name="Trazado 138940" d="M109.76,24.66c-4.05,0-8.1.05-12.15,0a7.8,7.8,0,0,1-7.3-7.6V5.23h.22a1.481,1.481,0,0,0,.16.27l15,15c1.14,1.11,2.3,2.21,3.46,3.32C109.43,24.05,109.74,24.26,109.76,24.66Z" fill="#bbf0f6"/>
      <path id="Trazado_138941" data-name="Trazado 138941" d="M85.6,5.24c-.24.29-.58.2-.89.2H73.84a1.409,1.409,0,0,0,0-.2Z" fill="#90e9fe"/>
      <path id="Trazado_138942" data-name="Trazado 138942" d="M73.85,5.24a1.41,1.41,0,0,1,0,.2H62.29a.62.62,0,0,0,0-.19Z" fill="#b6f0fe"/>
      <path id="Trazado_138943" data-name="Trazado 138943" d="M55.48,37.41l.15,14.75a10.468,10.468,0,0,0,.06,1.37L45,62c-1.08.86-2.17,1.71-3.23,2.6-.64.53-1.11,1.21-.48,2a1.38,1.38,0,0,0,2.08.19c.26-.18.53-.36.78-.56Q51.83,60.15,59.58,54c.55-.43,1-1.41,1.91-.94a3.51,3.51,0,0,1,1.36,2,3.38,3.38,0,0,1,.11.73c.3,1.92-.6,3.34-1.89,4.62l-7.32,7.32a2,2,0,0,0-.82,1.33,11.34,11.34,0,0,0,.78,5.52c1.14,2.43,1.5,5,.25,7.41-1.15,2.17-1.05,4.36-1,6.61a1.17,1.17,0,0,0,1.3,1.24c1,0,1.4-.49,1.47-1.65s-.33-2.58.27-3.78a11.89,11.89,0,0,0,.26-10.86,4.77,4.77,0,0,1-.52-2.79,8.42,8.42,0,0,0,2.93,4.83,7.75,7.75,0,0,0,4.75,1.64h6.63V84.8a7.74,7.74,0,0,1-7,7.59c-.77.08-.93.38-.91,1.07v4.69H31.36V59.92a7.1,7.1,0,0,1,2.77-5.67Q44.48,46,54.85,37.8a6.649,6.649,0,0,1,.63-.39Z" fill="#fdbba5"/>
      <path id="Trazado_138944" data-name="Trazado 138944" d="M31.36,98.18h.19c.32.33.74.19,1.12.19H60.76c.37,0,.79.13,1.12-.18h2.67a2.4,2.4,0,0,1,2.68,2.7V112a2.3,2.3,0,0,1-2.62,2.61H27.54c-1.85,0-2.65-.8-2.65-2.66V101.06c0-2,.8-2.82,2.84-2.87C28.94,98.18,30.15,98.19,31.36,98.18Zm-.89,8.43a3,3,0,0,0,3,3.1,3.14,3.14,0,0,0,3.16-3.09,3.19,3.19,0,0,0-3.1-3.06,3,3,0,0,0-3.06,3.05Z" fill="#ffecb1"/>
      <path id="Trazado_138945" data-name="Trazado 138945" d="M55.7,70.77a4.77,4.77,0,0,0,.52,2.79A11.89,11.89,0,0,1,56,84.42c-.6,1.2-.18,2.52-.27,3.78s-.51,1.68-1.47,1.65a1.17,1.17,0,0,1-1.3-1.24c0-2.25-.11-4.44,1-6.61,1.25-2.36.89-5-.25-7.41a11.34,11.34,0,0,1-.78-5.52,2,2,0,0,1,.82-1.33l7.32-7.32c1.29-1.28,2.19-2.7,1.89-4.62a3.38,3.38,0,0,0-.11-.73,3.51,3.51,0,0,0-1.36-2c-.92-.47-1.36.51-1.91.94q-7.77,6.1-15.48,12.26c-.25.2-.52.38-.78.56a1.38,1.38,0,0,1-2.08-.19c-.63-.81-.16-1.49.48-2,1.06-.89,2.15-1.74,3.23-2.6l10.74-8.5,4.45-3.48c1-.79,1.48-.76,2.42.09,1.93,1.76,3.34,3.76,3.22,6.55a7.43,7.43,0,0,1-2.3,5.12c-2.31,2.31-4.61,4.65-7,6.93a2.14,2.14,0,0,0-.78,2.02Z" fill="#eda790"/>
      <path id="Trazado_138946" data-name="Trazado 138946" d="M79.69,59.71H69.56c-1.17,0-1.9-.56-1.89-1.41s.65-1.3,1.81-1.3H90.06c1.08,0,1.69.49,1.72,1.33s-.69,1.41-1.75,1.43H79.69Z" fill="#2663a2"/>
      <path id="Trazado_138947" data-name="Trazado 138947" d="M88.22,47.76h9.94c1.18,0,1.91.54,1.91,1.38s-.73,1.38-1.93,1.38h-20c-1.21,0-1.77-.43-1.79-1.34s.54-1.42,1.81-1.42Z" fill="#2663a2"/>
      <path id="Trazado_138948" data-name="Trazado 138948" d="M78.86,41.33H69.37c-.9,0-1.55-.32-1.68-1.26s.58-1.5,1.75-1.5h19c1.1,0,1.81.55,1.83,1.37s-.71,1.39-1.79,1.39C85.26,41.34,82.06,41.33,78.86,41.33Z" fill="#2663a2"/>
      <path id="Trazado_138949" data-name="Trazado 138949" d="M89,66.13h9.2c1.16,0,1.91.58,1.87,1.43s-.74,1.33-1.86,1.33H79.73c-1.1,0-1.8-.56-1.8-1.39s.63-1.36,1.69-1.37Z" fill="#2663a2"/>
      <path id="Trazado_138950" data-name="Trazado 138950" d="M89.23,32.15H80.48c-1.17,0-1.91-.55-1.91-1.39s.75-1.37,1.93-1.37H98.22c1.11,0,1.82.52,1.85,1.34s-.71,1.42-1.87,1.42Z" fill="#2663a2"/>
      <path id="Trazado_138951" data-name="Trazado 138951" d="M72.15,29.39h2.87a1.381,1.381,0,1,1,.03,2.75H69.2c-1,0-1.59-.6-1.52-1.41a1.39,1.39,0,0,1,1.6-1.34Z" fill="#2764a2"/>
      <path id="Trazado_138952" data-name="Trazado 138952" d="M71.68,68.89H69.24a1.5,1.5,0,0,1-1.57-1.4c0-.8.61-1.34,1.59-1.35h5c1,0,1.53.53,1.53,1.38s-.55,1.34-1.55,1.37C73.39,68.91,72.53,68.89,71.68,68.89Z" fill="#2663a2"/>
      <path id="Trazado_138953" data-name="Trazado 138953" d="M96.13,41.33H93.69a1.38,1.38,0,1,1,0-2.75h4.89a1.38,1.38,0,1,1,0,2.75C97.76,41.34,97,41.33,96.13,41.33Z" fill="#2764a2"/>
      <path id="Trazado_138954" data-name="Trazado 138954" d="M70.82,50.52H69.11a1.32,1.32,0,0,1-1.42-1.39,1.28,1.28,0,0,1,1.36-1.35h3.84a1.28,1.28,0,0,1,1.36,1.34,1.3,1.3,0,0,1-1.41,1.4C72.17,50.55,71.49,50.52,70.82,50.52Z" fill="#2764a3"/>
      <path id="Trazado_138955" data-name="Trazado 138955" d="M97,59.7a13.5,13.5,0,0,1-1.8,0,1.27,1.27,0,0,1-1.26-1.42A1.24,1.24,0,0,1,95.2,57c1.17-.06,2.34,0,3.51,0A1.3,1.3,0,0,1,100,58.33a1.33,1.33,0,0,1-1.35,1.37h-1.7Z" fill="#2764a3"/>
      <path id="Trazado_138956" data-name="Trazado 138956" d="M61.88,98.21c-.33.31-.75.18-1.12.18H32.67c-.38,0-.8.14-1.12-.19Z" fill="#f7e89a"/>
      <path id="Trazado_138957" data-name="Trazado 138957" d="M30.47,106.61a3,3,0,0,1,3-3,3.19,3.19,0,0,1,3.1,3.06,3.14,3.14,0,0,1-3.16,3.09,3,3,0,0,1-2.94-3.15Z" fill="#72e2fc"/>
    </g>
  </g>
</svg>
