<svg xmlns="http://www.w3.org/2000/svg" width="120" height="120" viewBox="0 0 120 120">
  <g id="img12" transform="translate(-0.48)">
    <rect id="Rectángulo_36218" data-name="Rectángulo 36218" width="120" height="120" transform="translate(0.48)" fill="none"/>
    <circle id="Elipse_6751" data-name="Elipse 6751" cx="54.76" cy="54.76" r="54.76" transform="translate(5.24 5.24)" fill="#039be5"/>
    <path id="Trazado_138986" data-name="Trazado 138986" d="M108.5,23.17c-1.28,1.68-3,2.95-4.33,4.54-1,1-2,2-3.06,3L87.74,44c-.25.26-.48.55-.71.82a41.909,41.909,0,0,0-3.66,3.64c-.36.33-.73.65-1.07,1L49.69,82.09c-.34.34-.71.65-1.07,1L39,73.39c.43-.43.85-.88,1.28-1.31L97.57,14.83c.4-.4.78-.83,1.17-1.24.33.29.67.57,1,.87Z" fill="#fcbe43"/>
    <path id="Trazado_138987" data-name="Trazado 138987" d="M98.74,13.59c-.39.41-.77.84-1.17,1.24L40.32,72.08c-.43.43-.85.88-1.28,1.32l-4.17-4.09,3-3L56.52,47.57c.31-.32.6-.66.89-1A8.91,8.91,0,0,0,59.1,44.9a42.25,42.25,0,0,0,3.66-3.67,42.369,42.369,0,0,0,3.67-3.67,40.779,40.779,0,0,0,3.66-3.66,42.371,42.371,0,0,0,3.67-3.67Q80,24.06,86.21,17.88c1.35-1.35,2.66-2.72,4-4.09l4.51-4.35Z" fill="#fa9303"/>
    <path id="Trazado_138988" data-name="Trazado 138988" d="M44.18,34.55a17.51,17.51,0,0,1-9.82,23.07c-6.84,2.64-13.22,1.48-18.58-3.51A16.65,16.65,0,0,1,11,35.92c2.19-7,7.2-11.15,14.44-12.22a17,17,0,0,1,15,5.1l.89.83-2.68,2.64c-3.49-4-7.91-5.77-13.12-4.88A13.23,13.23,0,0,0,14.27,37.75a13.18,13.18,0,0,0,4.85,14.41c4.64,3.68,9.84,4.12,15.14,1.49a13.75,13.75,0,0,0,7-16.2A27.48,27.48,0,0,1,44.18,34.55Z" fill="#85b7d1"/>
    <path id="Trazado_138989" data-name="Trazado 138989" d="M45.43,86.41a17.6,17.6,0,0,1-16.28,18.87c-9.55.45-17.2-5.6-18.82-14.89-1.89-10.8,7.24-21,18.19-20.42a17.15,17.15,0,0,1,4.67.82c-1,1-1.93,2-2.89,3C21.52,72.51,14,78.71,13.82,87.41a14.009,14.009,0,0,0,28,1A7.26,7.26,0,0,0,45.43,86.41Z" fill="#85b7d1"/>
    <path id="Trazado_138990" data-name="Trazado 138990" d="M44.18,34.55a27.481,27.481,0,0,0-2.91,2.9c-.33.3-.67.59-1,.91q-5.4,5.4-10.79,10.8c-.76.77-1.43,1-2.28.11q-5-5.07-10.11-10.1c-.56-.56-.57-1,0-1.52a23.23,23.23,0,0,0,2-2c.74-.89,1.31-.93,2.14,0,2,2.13,4.13,4.16,6.2,6.24.46.47.88.85,1.52.21,3.22-3.28,6.47-6.54,9.71-9.8l2.68-2.64c2.71-2.69,5.43-5.37,8.11-8.1.67-.67,1.15-.74,1.79,0a21.29,21.29,0,0,0,2.07,2.07c.73.65.64,1.13,0,1.79C50.23,28.42,47.21,31.49,44.18,34.55Z" fill="#faeb33"/>
    <path id="Trazado_138991" data-name="Trazado 138991" d="M45.43,86.41a7.26,7.26,0,0,1-3.64,2,4.87,4.87,0,0,1-3.08-.92c-.62-.51-1-.31-1.52.18a12.7,12.7,0,0,1-2.76,2.52q-3.49-3.19-6.68-6.7a14.31,14.31,0,0,1,2.59-2.85c.34-.39.65-.68.23-1.23a4.93,4.93,0,0,1-.27-5.58c1-1,1.93-2,2.89-3l1.68-1.48L39,73.4l9.58,9.67C47.55,84.18,46.49,85.3,45.43,86.41Z" fill="#034c67"/>
    <path id="Trazado_138992" data-name="Trazado 138992" d="M76.22,76.65h17.2c1.6,0,1.61,0,1.62,1.66v1.1a.8.8,0,0,1-.9.9H59.12c-.57,0-1.4.31-1.61-.45a4.55,4.55,0,0,1,0-2.87c.2-.52.87-.33,1.34-.33C64.66,76.64,70.44,76.65,76.22,76.65Z" fill="#9ad7f5"/>
    <path id="Trazado_138993" data-name="Trazado 138993" d="M76.35,91.31H93.56c.53,0,1.31-.21,1.4.57a4.22,4.22,0,0,1-.19,2.85c-.28.44-.91.23-1.38.23H58.61c-.88,0-1.23-.29-1.25-1.2,0-2.48-.07-2.48,2.39-2.48Z" fill="#9ad7f5"/>
    <path id="Trazado_138994" data-name="Trazado 138994" d="M72.46,87.64H58.91c-1.14,0-1.7-.31-1.53-1.51a3,3,0,0,0,0-.73c-.15-1.13.34-1.48,1.45-1.47H86.49c.81,0,1.16.27,1.19,1.13.09,2.55.12,2.54-2.45,2.54Z" fill="#9ad7f5"/>
    <path id="Trazado_138995" data-name="Trazado 138995" d="M73.76,30.24a42.368,42.368,0,0,1-3.67,3.67c-3.74,0-7.48-.07-11.22,0-1.2,0-1.63-.41-1.49-1.56a6.281,6.281,0,0,0,0-1c-.06-.83.28-1.17,1.13-1.17C63.59,30.23,68.68,30.23,73.76,30.24Z" fill="#9ad7f5"/>
    <path id="Trazado_138996" data-name="Trazado 138996" d="M83.37,48.5A41.911,41.911,0,0,1,87,44.86h6.69c1,0,1.34.37,1.33,1.36,0,2.32,0,2.32-2.3,2.32Z" fill="#6ca9c7"/>
    <path id="Trazado_138997" data-name="Trazado 138997" d="M66.43,37.57a42.37,42.37,0,0,1-3.67,3.67c-1.34,0-2.68-.07-4,0-1,0-1.38-.26-1.38-1.3,0-2.38,0-2.38,2.37-2.38Z" fill="#6ca9c7"/>
    <path id="Trazado_138998" data-name="Trazado 138998" d="M59.1,44.91a8.91,8.91,0,0,1-1.69,1.67C57.35,44.87,57.37,44.85,59.1,44.91Z" fill="#6ca9c7"/>
    <path id="Trazado_138999" data-name="Trazado 138999" d="M98.74,13.59l-4-4.15c2.86-3.21,3.61-3.24,6.58-.27l8.19,8.19c1.91,1.91,1.91,3,0,4.9-.31.31-.65.61-1,.91l-8.78-8.71C99.41,14.16,99.07,13.88,98.74,13.59Z" fill="#054d67"/>
    <path id="Trazado_139000" data-name="Trazado 139000" d="M38.66,32.27c-3.24,3.26-6.49,6.52-9.71,9.8-.64.64-1.06.26-1.52-.21-2.07-2.08-4.19-4.11-6.2-6.24-.83-.89-1.4-.85-2.14,0a23.23,23.23,0,0,1-2,2,.885.885,0,0,0,0,1.52q5.08,5,10.11,10.1c.85.85,1.52.66,2.28-.11q5.39-5.41,10.79-10.8c.32-.32.66-.61,1-.91a13.75,13.75,0,0,1-7,16.2c-5.3,2.63-10.5,2.19-15.14-1.49a13.18,13.18,0,0,1-4.85-14.41A13.23,13.23,0,0,1,25.54,27.39C30.75,26.5,35.17,28.27,38.66,32.27Z" fill="#037295"/>
    <path id="Trazado_139001" data-name="Trazado 139001" d="M34.43,90.17a12.7,12.7,0,0,0,2.76-2.52c.51-.49.9-.69,1.52-.18a4.87,4.87,0,0,0,3.08.92,14.009,14.009,0,0,1-28-1c.17-8.7,7.7-14.9,16.48-13.58a4.93,4.93,0,0,0,.27,5.58c.42.55.11.84-.23,1.23a14.31,14.31,0,0,0-2.59,2.85c-1.72,1.26-3.37,2.62-3.57,4.93-.14,1.49,0,3-.06,4.51,0,.62.24.88.87.87,1.09,0,2.2-.07,3.29,0C31.17,94,32.9,92.27,34.43,90.17Z" fill="#027295"/>
    <path id="Trazado_139002" data-name="Trazado 139002" d="M34.43,90.17c-1.53,2.1-3.26,3.82-6.15,3.63-1.09-.07-2.2,0-3.29,0-.63,0-.88-.25-.87-.87,0-1.51-.08-3,.06-4.51.2-2.31,1.85-3.67,3.57-4.93Q30.93,87,34.43,90.17Z" fill="#f8ea33"/>
  </g>
</svg>
