<svg xmlns="http://www.w3.org/2000/svg" width="120" height="120" viewBox="0 0 120 120">
  <g id="img11" transform="translate(-0.48)">
    <rect id="Rectángulo_36217" data-name="Rectángulo 36217" width="120" height="120" transform="translate(0.48)" fill="none"/>
    <circle id="Elipse_6750" data-name="Elipse 6750" cx="54.76" cy="54.76" r="54.76" transform="translate(5.24 5.24)" fill="#039be5"/>
    <g id="Grupo_83985" data-name="Grupo 83985">
      <path id="Trazado_138958" data-name="Trazado 138958" d="M11.64,98.65H7.93a3.79,3.79,0,0,1-3.7-1.73V18.36l.25-.07,5.45.06V95C9.89,96.6,10.23,97.83,11.64,98.65Z" fill="#c3ddf3"/>
      <path id="Trazado_138959" data-name="Trazado 138959" d="M9.93,18.35l-5.45-.06-.25-.18V5A2.56,2.56,0,0,1,6.4,4.22c1.42.07,2.85,0,4.27,0A2.72,2.72,0,0,0,9.92,6.4V18.25Z" fill="#1a2b63"/>
      <path id="Trazado_138960" data-name="Trazado 138960" d="M4.23,18.11l.25.18-.25.07Z" fill="#293d7b"/>
      <path id="Trazado_138961" data-name="Trazado 138961" d="M11.64,98.65C10.23,97.83,9.89,96.6,9.89,95q.07-38.32,0-76.65v-.1H33c.33,0,.65.09,1,.09H94.31V59.69a36.45,36.45,0,0,0-6-2.44,27,27,0,0,0-12.71-.19H13.94a4.06,4.06,0,0,0-1.1.15,1.8,1.8,0,0,0,.33,3.52,14.249,14.249,0,0,0,1.6,0h52.5a52.488,52.488,0,0,0-4.48,4H13.11a1.63,1.63,0,0,0-1.54,1.52,1.7,1.7,0,0,0,1.07,1.9,3.92,3.92,0,0,0,1.7.26H60a40.409,40.409,0,0,0-2.58,5.64l-8.39.07H19.6c-1.61,0-3.22-.05-4.83-.05a1.28,1.28,0,0,0-1.42,1.47v11.4a1.38,1.38,0,0,0,1.54,1.53h34.2l8.14.07a28.34,28.34,0,0,0,5.52,10.12H18.4a14.383,14.383,0,0,0-1.73.07Zm7.78-48.92H41.83c1.21,0,1.6-.71,1.6-1.86V29.28c0-1.52-.29-1.83-1.81-1.83H14.82a1.29,1.29,0,0,0-1.4,1.5V48.23a1.39,1.39,0,0,0,1.5,1.57c1.46.01,2.98-.05,4.5-.07Zm49-5.58H83.37c1.3,0,2.09-.69,2.13-1.74a2.014,2.014,0,0,0-2.08-2H54.36a3.88,3.88,0,0,0-1.59.16,1.72,1.72,0,0,0-1.21,1.56,1.78,1.78,0,0,0,1,1.8,2.86,2.86,0,0,0,1.45.19Zm.16,7.43H83.79a1.67,1.67,0,0,0,1.71-1.63A1.74,1.74,0,0,0,84,48a5.49,5.49,0,0,0-1.22-.08H54.33a5.14,5.14,0,0,0-1.47.14,1.67,1.67,0,0,0-1.3,1.86,1.75,1.75,0,0,0,1.55,1.67,6.3,6.3,0,0,0,1.23,0q7.11,0,14.23-.01Zm-.09-22.3H83.34c1.33,0,2.11-.66,2.16-1.72s-.71-1.86-2.06-2H54.33A5.57,5.57,0,0,0,53,25.7a1.67,1.67,0,0,0-1.42,1.88,1.72,1.72,0,0,0,1.69,1.67,10.06,10.06,0,0,0,1.23,0Zm-.07,7.44H83.15c1.51,0,2.34-.64,2.36-1.77s-.82-1.88-2.37-1.94H54.4a4.32,4.32,0,0,0-1.71.22A1.65,1.65,0,0,0,51.56,35a1.7,1.7,0,0,0,1.38,1.68,5,5,0,0,0,1.35.08Z" fill="#ecf4fd"/>
      <path id="Trazado_138962" data-name="Trazado 138962" d="M75.59,57.06a27,27,0,0,1,12.71.19,36.449,36.449,0,0,1,6,2.44c.27.19.52.4.8.57a25.41,25.41,0,0,1,11.19,27.15c-.53,2.27-1.58,4.33-2.29,6.52a39.17,39.17,0,0,1-6.64,7.72,31.931,31.931,0,0,0-3.56,2.43c-1.88.59-3.6,1.59-5.54,2-9.75,2.3-18.15-.06-25.19-7.22a3.681,3.681,0,0,0-.37-.32,28.34,28.34,0,0,1-5.52-10.12,27.63,27.63,0,0,1,.24-14.41A40.41,40.41,0,0,1,60,68.37l2.74-3.69a52.489,52.489,0,0,1,4.48-4,31.08,31.08,0,0,1,8.37-3.62ZM70.42,68A16.87,16.87,0,0,0,64,83.91,17.51,17.51,0,0,0,81.43,99.43a16.78,16.78,0,0,0,13.93-6.49A17.71,17.71,0,0,0,70.42,68Z" fill="#455ea0"/>
      <path id="Trazado_138963" data-name="Trazado 138963" d="M115.77,110.64a31,31,0,0,1-5.15,5.15l-9.54-9.56.64-.86,4.45-4.4C109.25,104.31,112.53,107.45,115.77,110.64Z" fill="#455ea0"/>
      <path id="Trazado_138964" data-name="Trazado 138964" d="M101.72,105.37l-.64.86c-.48.45-1,.89-1.43,1.35a1.46,1.46,0,0,1-2.34,0c-1.15-1.16-2.31-2.32-3.46-3.49a31.929,31.929,0,0,1,3.56-2.43C98.77,103,99.75,104.75,101.72,105.37Z" fill="#1a2b63"/>
      <path id="Trazado_138965" data-name="Trazado 138965" d="M94.45,14.66c0,1.23-.09,2.45-.14,3.68H33.94c-.33,0-.65-.06-1-.09v-14H92c2,0,2.36.37,2.37,2.38C94.42,9.29,94.44,12,94.45,14.66Z" fill="#455ea0"/>
      <path id="Trazado_138966" data-name="Trazado 138966" d="M33,4.27v14H9.9V6.42a2.72,2.72,0,0,1,.75-2.13ZM20.82,11a1.85,1.85,0,1,0-.93,1.682A1.85,1.85,0,0,0,20.82,11Zm-6.15-.06a1.8,1.8,0,0,0-3.59.08,1.8,1.8,0,0,0,1.84,1.76,1.77,1.77,0,0,0,1.75-1.87ZM26.89,11A1.78,1.78,0,0,0,25.1,9.16a1.74,1.74,0,0,0-1.82,1.77,1.78,1.78,0,0,0,1.77,1.84A1.82,1.82,0,0,0,26.89,11Z" fill="#293d7b"/>
      <path id="Trazado_138967" data-name="Trazado 138967" d="M19.56,27.47h22c1.52,0,1.81.31,1.81,1.83V47.89c0,1.15-.39,1.86-1.6,1.86H19.36a6.26,6.26,0,0,1-.33-2.19q0-9,0-18.06a3.7,3.7,0,0,1,.53-2.03Z" fill="#69ccfe"/>
      <path id="Trazado_138968" data-name="Trazado 138968" d="M19.6,74.12H49.08V88.39H19.33a12.53,12.53,0,0,1-.23-1.71v-11a2.62,2.62,0,0,1,.5-1.56Z" fill="#fe951a"/>
      <path id="Trazado_138969" data-name="Trazado 138969" d="M75.59,57.06a31.08,31.08,0,0,0-8.32,3.72H14.77a14.249,14.249,0,0,1-1.6,0,1.8,1.8,0,0,1-.33-3.52,4.06,4.06,0,0,1,1.1-.15Z" fill="#91dfe7"/>
      <path id="Trazado_138970" data-name="Trazado 138970" d="M62.79,64.73l-2.74,3.69H14.39a3.92,3.92,0,0,1-1.7-.26,1.7,1.7,0,0,1-1.07-1.9,1.63,1.63,0,0,1,1.54-1.52H61.6A5.909,5.909,0,0,1,62.79,64.73Z" fill="#91dfe7"/>
      <path id="Trazado_138971" data-name="Trazado 138971" d="M19.56,27.47a3.7,3.7,0,0,0-.48,2V47.53a6.26,6.26,0,0,0,.33,2.19c-1.52,0-3,.08-4.56.07a1.39,1.39,0,0,1-1.5-1.57V29a1.29,1.29,0,0,1,1.4-1.5C16.36,27.44,18,27.47,19.56,27.47Z" fill="#52baee"/>
      <path id="Trazado_138972" data-name="Trazado 138972" d="M68.41,44.15H54.06A2.86,2.86,0,0,1,52.61,44a1.78,1.78,0,0,1-1-1.8,1.72,1.72,0,0,1,1.21-1.56,3.88,3.88,0,0,1,1.59-.16H83.43c1.32.08,2.11.83,2.08,2s-.83,1.74-2.13,1.74H71.01Z" fill="#91dfe7"/>
      <path id="Trazado_138973" data-name="Trazado 138973" d="M68.57,51.58H54.34a6.3,6.3,0,0,1-1.23,0,1.75,1.75,0,0,1-1.55-1.67A1.67,1.67,0,0,1,52.86,48a5.14,5.14,0,0,1,1.47-.14H82.78A5.49,5.49,0,0,1,84,48a1.74,1.74,0,0,1,1.49,2,1.67,1.67,0,0,1-1.71,1.63c-1.11.07-2.23,0-3.34,0C76.48,51.59,72.52,51.58,68.57,51.58Z" fill="#91dfe7"/>
      <path id="Trazado_138974" data-name="Trazado 138974" d="M68.48,29.28h-14a10.06,10.06,0,0,1-1.23,0,1.72,1.72,0,0,1-1.69-1.67A1.67,1.67,0,0,1,53,25.7a5.57,5.57,0,0,1,1.35-.13H83.46c1.35.12,2.12.85,2.06,2s-.83,1.71-2.16,1.72Z" fill="#91dfe7"/>
      <path id="Trazado_138975" data-name="Trazado 138975" d="M68.41,36.72H54.29a5,5,0,0,1-1.35-.08A1.7,1.7,0,0,1,51.56,35a1.65,1.65,0,0,1,1.13-1.73A4.32,4.32,0,0,1,54.4,33H83.14c1.55.06,2.39.74,2.37,1.94s-.85,1.77-2.36,1.77Z" fill="#91dfe7"/>
      <path id="Trazado_138976" data-name="Trazado 138976" d="M49.09,88.4V74.13l8.39-.07a27.63,27.63,0,0,0-.24,14.41Z" fill="#fdce0f"/>
      <path id="Trazado_138977" data-name="Trazado 138977" d="M19.6,74.12a2.62,2.62,0,0,0-.51,1.61q0,5.49,0,11a12.53,12.53,0,0,0,.23,1.71H14.87a1.38,1.38,0,0,1-1.54-1.53V75.54a1.28,1.28,0,0,1,1.42-1.47C16.38,74.07,18,74.1,19.6,74.12Z" fill="#ee8318"/>
      <path id="Trazado_138978" data-name="Trazado 138978" d="M70.42,68A17.71,17.71,0,0,1,95.36,92.94a7.44,7.44,0,0,0-2.45,1.15,18,18,0,0,1-21.52-5.16c-4-5-5-13.19-1.94-18.8A6,6,0,0,0,70.42,68Zm14.36-1.1a2.89,2.89,0,1,0,2.061.853A2.9,2.9,0,0,0,84.78,66.9Zm8.21,6a2,2,0,1,0-2,2A1.93,1.93,0,0,0,93,72.86Z" fill="#69ccfe"/>
      <path id="Trazado_138979" data-name="Trazado 138979" d="M70.42,68a6,6,0,0,1-1,2.12c-3,5.61-2,13.78,1.94,18.8a18,18,0,0,0,21.52,5.16,7.44,7.44,0,0,1,2.45-1.15A16.78,16.78,0,0,1,81.4,99.42,17.51,17.51,0,0,1,64,83.91,16.87,16.87,0,0,1,70.42,68Z" fill="#52baee"/>
      <path id="Trazado_138980" data-name="Trazado 138980" d="M104.05,93.93c1.1,1.08,2.22,2.16,3.31,3.26s1,1.56,0,2.58c-.39.41-.81.8-1.22,1.2l-4.45,4.4c-2-.62-3-2.39-4.31-3.72A39.17,39.17,0,0,0,104.05,93.93Z" fill="#293d7b"/>
      <path id="Trazado_138981" data-name="Trazado 138981" d="M20.82,11a1.85,1.85,0,1,1-1.8-1.773A1.85,1.85,0,0,1,20.82,11Z" fill="#fe951a"/>
      <path id="Trazado_138982" data-name="Trazado 138982" d="M14.67,10.91a1.77,1.77,0,0,1-1.75,1.84A1.8,1.8,0,0,1,11.08,11a1.8,1.8,0,0,1,3.59-.08Z" fill="#f14976"/>
      <path id="Trazado_138983" data-name="Trazado 138983" d="M26.89,11a1.82,1.82,0,0,1-1.84,1.79,1.78,1.78,0,0,1-1.77-1.84A1.74,1.74,0,0,1,25.1,9.16,1.78,1.78,0,0,1,26.89,11Z" fill="#36c07a"/>
      <path id="Trazado_138984" data-name="Trazado 138984" d="M84.78,66.9a2.9,2.9,0,1,1-2.653,1.4,2.9,2.9,0,0,1,2.653-1.4Z" fill="#d6e9fb"/>
      <path id="Trazado_138985" data-name="Trazado 138985" d="M93,72.86a2,2,0,1,1-2-2,1.94,1.94,0,0,1,2,2Z" fill="#d6e9fb"/>
    </g>
  </g>
</svg>
