<svg id="img2" xmlns="http://www.w3.org/2000/svg" width="500" height="394.868" viewBox="0 0 500 394.868">
  <path id="Trazado_141569" data-name="Trazado 141569" d="M152.792,81.136a11.929,11.929,0,0,0-4.5,2.169,6.291,6.291,0,0,1-1.473.828L140.946,60.25a3.311,3.311,0,0,0-3.974-2.409l-24.884,6.109.7,2.823a5.14,5.14,0,0,0,.828,1.8,10.886,10.886,0,1,1-19.5,4.28,5.489,5.489,0,0,0,0-2.351l-.488-1.987L68.371,74.588a4.031,4.031,0,0,0-2.955,4.892l5.422,22.185-1.722.422q-.3.075-.6.124A13.245,13.245,0,1,0,72.659,124.1a4.5,4.5,0,0,1,1.01-.373l2.21-.546,6.076,24.76a4.023,4.023,0,0,0,4.868,2.955L155.689,134a3.311,3.311,0,0,0,2.4-3.974L151.873,104.8a6.746,6.746,0,0,1,1.349.157,12.045,12.045,0,0,0,7.384-.753,12.235,12.235,0,0,0-7.815-23.071Z" transform="translate(-8.661 -9.944)" fill="#93b3d8"/>
  <path id="Trazado_141570" data-name="Trazado 141570" d="M443.37,98.855a9.528,9.528,0,0,0-3.94-.24,4.851,4.851,0,0,1-1.341,0l5.19-18.7a2.583,2.583,0,0,0-1.8-3.187l-19.462-5.406-.654,2.2a4.032,4.032,0,0,0-.116,1.573,8.692,8.692,0,0,1-.257,3.245,8.584,8.584,0,1,1-14.793-7.864,4.139,4.139,0,0,0,.886-1.656l.43-1.548-19.7-5.538a3.171,3.171,0,0,0-3.907,2.21L379.066,81.33l-1.349-.356-.455-.141a10.455,10.455,0,1,0-5.621,16.631,4.082,4.082,0,0,1,.828.132l1.722.48-5.323,19.363a3.179,3.179,0,0,0,2.21,3.916L424.943,136.3a2.591,2.591,0,0,0,3.187-1.8l5.472-19.719a5.291,5.291,0,0,1,.828.621,9.619,9.619,0,1,0,8.9-16.556Z" transform="translate(-61.748 -10.61)" fill="#93b3d8"/>
  <g id="Grupo_84732" data-name="Grupo 84732" transform="translate(29.659 144.958)">
    <g id="Grupo_84730" data-name="Grupo 84730">
      <path id="Trazado_141571" data-name="Trazado 141571" d="M241.973,281.662a23.558,23.558,0,0,1,11.854,2.6,13.178,13.178,0,0,0,5.389,1.316l4.8-.108.058-53.419a9.164,9.164,0,0,0-9.189-9.106l-50.778.182v-1.093a14.073,14.073,0,0,1,1.49-6.167,28.146,28.146,0,0,0,2.409-17.161A28.551,28.551,0,0,0,151.36,203.6a28.029,28.029,0,0,0,2.417,11.407,14.147,14.147,0,0,1,1.275,5.72l.3,2.4H94.15a9.164,9.164,0,0,0-9.189,9.106V284.46H80.6a13.328,13.328,0,0,1-5.844-1.407A27.566,27.566,0,0,0,58.2,280.768a27.02,27.02,0,0,0,4.627,53.609,26.556,26.556,0,0,0,10.762-2.293,13.328,13.328,0,0,1,5.455-1.192h5.6l.108,63.891a7.45,7.45,0,0,0,7.45,7.45H256.054c4.139,0,7.368-5.19,7.368-9.3V334.849H256.8a11.937,11.937,0,0,0-4.462.877,24.834,24.834,0,0,1-34.04-23.882C218.786,299.435,229.506,282.531,241.973,281.662Z" transform="translate(-35.854 -175.13)" fill="#4dd0e1"/>
      <path id="Trazado_141572" data-name="Trazado 141572" d="M241.947,281.641l-.439.058c-.29.041-.72.074-1.283.2a17.143,17.143,0,0,0-4.8,1.705c-4,2.036-9.238,6.7-13.187,14.478a34.313,34.313,0,0,0-3.882,13.858,25.266,25.266,0,0,0,1.126,8.212,24.337,24.337,0,0,0,4.205,7.93,24.594,24.594,0,0,0,17.252,9.189,24.131,24.131,0,0,0,10.836-1.49,12.848,12.848,0,0,1,5.679-1.068h6.076V392.3a12.312,12.312,0,0,1-.141,2.128,12.03,12.03,0,0,1-.588,2.07,10.943,10.943,0,0,1-2.285,3.651,6.722,6.722,0,0,1-3.791,2.119,21.832,21.832,0,0,1-2.2.05H97.047c-1.863,0-3.692.041-5.588-.041a7.682,7.682,0,0,1-6.912-7.848V377.386Q84.5,354.5,84.456,330.8l.207.2H81.144a30.636,30.636,0,0,0-3.493.074,13.652,13.652,0,0,0-3.361.828,34.347,34.347,0,0,1-3.311,1.291,26.887,26.887,0,0,1-27.086-6.581,27.575,27.575,0,0,1-4.528-5.894,26.88,26.88,0,0,1-1.6-3.386c-.215-.579-.48-1.151-.654-1.755l-.5-1.813a27.566,27.566,0,0,1,1.656-17.889A27.094,27.094,0,0,1,59.108,280.3a28.088,28.088,0,0,1,8.891.207,27.456,27.456,0,0,1,4.28,1.3c.7.248,1.382.53,2.053.828a16.747,16.747,0,0,0,2,.828c2.724,1.068,5.7.679,8.6.753l-.2.2V234.621a25.016,25.016,0,0,1,.166-4.081,9.056,9.056,0,0,1,1.656-3.767,9.346,9.346,0,0,1,6.954-3.841h61.854l-.182.207c-.108-.828-.207-1.656-.306-2.4h0a13.667,13.667,0,0,0-.728-4.313c-.232-.7-.538-1.349-.828-2.045s-.538-1.382-.762-2.086a28.27,28.27,0,0,1-1.366-8.675l.116-2.185a5.394,5.394,0,0,1,.074-1.093l.174-1.076c.141-.712.2-1.432.4-2.136l.571-2.086a7.386,7.386,0,0,1,.348-1.018l.4-1a13.9,13.9,0,0,1,.877-1.962l.993-1.9,1.176-1.78a27.922,27.922,0,0,1,5.795-6.126l.828-.662.877-.571c.588-.381,1.159-.778,1.755-1.134a32.287,32.287,0,0,1,3.75-1.772,28.394,28.394,0,0,1,7.955-1.9,28.875,28.875,0,0,1,4.056-.066c.671.05,1.341.058,2.012.132l1.987.3a28.874,28.874,0,0,1,13.874,6.887,28.361,28.361,0,0,1,8.667,27.2,29.877,29.877,0,0,1-2.4,6.68,14.636,14.636,0,0,0-1.035,3.311,17.385,17.385,0,0,0-.215,3.411l-.141-.141,38.626-.124h10.927c.712,0,1.416,0,2.127.041a9.3,9.3,0,0,1,8.278,7.93,36.3,36.3,0,0,1,.091,3.9v3.791c-.041,19.967-.074,35.836-.1,47v.058h-.058c-1.937,0-3.733.116-5.422.083a13.742,13.742,0,0,1-4.5-1.176,29.57,29.57,0,0,0-6.623-2.351,20.506,20.506,0,0,0-4.139-.447h-1.358s.447-.05,1.358-.058a20.784,20.784,0,0,1,4.139.414,29.688,29.688,0,0,1,6.622,2.334,13.592,13.592,0,0,0,4.462,1.151c1.656,0,3.485-.058,5.414-.091l-.058.058V234.621a35.59,35.59,0,0,0-.091-3.874,9.106,9.106,0,0,0-8.1-7.715,14.973,14.973,0,0,0-2.111,0h-2.136l-8.791.041-38.626.157h-.149v-.149a17.526,17.526,0,0,1,.215-3.469,15.016,15.016,0,0,1,1.051-3.353,29.452,29.452,0,0,0,2.376-6.623,28.079,28.079,0,0,0-8.584-26.9,28.642,28.642,0,0,0-13.725-6.9l-1.962-.3c-.654-.066-1.325-.075-1.987-.124a27.641,27.641,0,0,0-11.863,1.954,30.291,30.291,0,0,0-3.709,1.78c-.588.348-1.151.745-1.738,1.118l-.828.563-.828.654a27.6,27.6,0,0,0-5.72,6.051l-1.159,1.763-.985,1.871a13.52,13.52,0,0,0-.828,1.937l-.389.993a7.129,7.129,0,0,0-.339,1l-.571,2.061c-.19.687-.248,1.407-.381,2.111l-.182,1.06c-.05.356-.041.72-.066,1.076l-.124,2.161a28.079,28.079,0,0,0,1.358,8.568c.224.687.48,1.382.753,2.053s.6,1.358.828,2.07a13.858,13.858,0,0,1,.753,4.429h0c.1.828.2,1.573.3,2.4v.207h-.207l-61.829.041a8.957,8.957,0,0,0-6.623,3.684,8.584,8.584,0,0,0-1.548,3.6,24.76,24.76,0,0,0-.157,4.015v50.041H80.565a13.1,13.1,0,0,1-4.371-.778,21.239,21.239,0,0,1-2.036-.877c-.654-.306-1.333-.579-2.02-.828a26.6,26.6,0,0,0-4.23-1.142,27.789,27.789,0,0,0-8.758-.24,26.681,26.681,0,0,0-20.513,15.331,27.169,27.169,0,0,0-1.656,17.632l.488,1.78c.174.6.43,1.151.646,1.73a25.465,25.465,0,0,0,1.573,3.311,26.813,26.813,0,0,0,4.462,5.795,26.49,26.49,0,0,0,26.672,6.49,32.781,32.781,0,0,0,3.311-1.283,14.022,14.022,0,0,1,3.477-.886c1.192-.132,2.368-.058,3.535-.083h3.667v.207q.05,23.684.083,46.589v17.045a7.3,7.3,0,0,0,6.556,7.45c1.821.074,3.7,0,5.546,0H254.522c.728,0,1.465,0,2.152-.05a6.448,6.448,0,0,0,3.618-2.02,10.661,10.661,0,0,0,2.219-3.551,11.282,11.282,0,0,0,.571-2,12.414,12.414,0,0,0,.141-2.078V334.712l.124.124H257.4a12.847,12.847,0,0,0-5.6,1.051,24.446,24.446,0,0,1-10.935,1.5,24.834,24.834,0,0,1-17.384-9.3,24.527,24.527,0,0,1-4.222-8,25.662,25.662,0,0,1-1.126-8.278,34.669,34.669,0,0,1,3.932-13.924c3.982-7.79,9.255-12.417,13.245-14.478a17.75,17.75,0,0,1,4.826-1.656,12.43,12.43,0,0,1,1.291-.174Z" transform="translate(-35.828 -175.109)" fill="#0b3360"/>
    </g>
    <g id="Grupo_84731" data-name="Grupo 84731" transform="translate(174.397 48.146)">
      <path id="Trazado_141573" data-name="Trazado 141573" d="M492.817,293.9a27.317,27.317,0,0,0-11.151,2.368,14.422,14.422,0,0,1-3.733,1.093V241.211a7.45,7.45,0,0,0-7.45-7.45H412.039v6.623a11.846,11.846,0,0,0,.877,4.47,24.8,24.8,0,1,1-45.472-1.225,12.326,12.326,0,0,0,1.217-5.223v-4.652l-59.2-.182a9.189,9.189,0,0,0-9.189,9.189l-.058,52.07h-4.031c-.455,0-.927,0-1.391-.041a30.24,30.24,0,1,0-2.8,50.687,11.587,11.587,0,0,1,2.483-.273h5.182v58.1a9.189,9.189,0,0,0,9.189,9.2H470.466a7.45,7.45,0,0,0,7.45-7.45V345.83a15.274,15.274,0,0,1,2.906,1.06,27.425,27.425,0,0,0,16.763,2.359,27.9,27.9,0,0,0-4.768-55.348Z" transform="translate(-246.542 -233.321)" fill="#35afea"/>
      <path id="Trazado_141574" data-name="Trazado 141574" d="M492.775,293.849s.6,0,1.763.074a13.659,13.659,0,0,1,2.161.207l1.382.224a9.888,9.888,0,0,1,1.573.356l1.755.48c.6.207,1.225.472,1.887.728.331.132.671.257,1.01.406l1.018.522a17.615,17.615,0,0,1,2.111,1.192,27.931,27.931,0,0,1,13.038,21.821c0,.679.091,1.358.091,2.053s-.075,1.382-.116,2.086a5.152,5.152,0,0,1-.075,1.068c-.075.356-.1.7-.157,1.06s-.108.72-.166,1.076-.166.712-.257,1.068a27.961,27.961,0,0,1-19.569,20.422c-.828.273-1.78.406-2.674.621a16.169,16.169,0,0,1-2.773.331,27.442,27.442,0,0,1-11.341-1.531c-1.887-.637-3.6-1.738-5.563-2.185l.157-.124v59.884a9.3,9.3,0,0,1-.182,1.051,7.657,7.657,0,0,1-5.869,5.712,10.591,10.591,0,0,1-2.161.157H309.629a13.1,13.1,0,0,1-2.773-.19,10.3,10.3,0,0,1-2.624-.96,9.552,9.552,0,0,1-3.858-4,9.221,9.221,0,0,1-.877-2.674,16.014,16.014,0,0,1-.132-2.806V345.124l.207.207H293.9a11.63,11.63,0,0,0-1.921.257h.058A30.456,30.456,0,0,1,246.5,319.429a32.533,32.533,0,0,1,1.465-9.619,30.513,30.513,0,0,1,4.421-8.609,31.751,31.751,0,0,1,3.146-3.675l1.78-1.656c.6-.53,1.283-.977,1.912-1.465a31.565,31.565,0,0,1,8.551-4.3,33.312,33.312,0,0,1,9.412-1.4,30.3,30.3,0,0,1,17.674,5.836l-.108-.041c1.788.091,3.618,0,5.406.05l-.2.2q0-16.689.041-32.939V243.692c0-.662,0-1.333.058-2.02a9.445,9.445,0,0,1,1.283-3.816,9.338,9.338,0,0,1,6.449-4.421,24.5,24.5,0,0,1,3.957-.141h11.689l15.339.05,29.8.1h.182V237.8a12.318,12.318,0,0,1-.588,4.139,15.654,15.654,0,0,1-.778,1.929c-.281.621-.53,1.25-.762,1.887a24.3,24.3,0,0,0,1.341,19.429,24.561,24.561,0,0,0,4.619,6.275,25.479,25.479,0,0,0,6.242,4.487,24.3,24.3,0,0,0,14.652,2.384,24.635,24.635,0,0,0,13-6.217,24.007,24.007,0,0,0,4.5-5.5,23.64,23.64,0,0,0,2.7-6.449,24.272,24.272,0,0,0-.3-13.477c-.3-1.076-.828-2.078-1.109-3.171a11.946,11.946,0,0,1-.447-3.311v-6.705h57.152c.762,0,1.515,0,2.285.058a7.965,7.965,0,0,1,2.194.588,7.608,7.608,0,0,1,4.528,7v8.237c0,21.308,0,37.525-.058,47.864l-.058-.05c2.632-.339,4.619-1.656,6.49-2.136a27.788,27.788,0,0,1,4.677-1.051,26.051,26.051,0,0,1,2.806-.224h.008a23.521,23.521,0,0,0-2.8.248,27.882,27.882,0,0,0-4.661,1.076c-1.863.513-3.841,1.8-6.5,2.161h-.025v-.058c0-10.339,0-26.556-.05-47.864v-8.237a7.376,7.376,0,0,0-4.4-6.788,7.584,7.584,0,0,0-2.169-.447c-.737-.066-1.5-.041-2.26-.05H412l.141-.149v6.556a11.664,11.664,0,0,0,.439,3.245c.3,1.051.828,2.07,1.118,3.162a24.5,24.5,0,0,1,.3,13.651,23.71,23.71,0,0,1-2.724,6.531,24.422,24.422,0,0,1-4.545,5.579,24.983,24.983,0,0,1-13.179,6.308,24.661,24.661,0,0,1-14.859-2.409,25.978,25.978,0,0,1-6.333-4.545,25.083,25.083,0,0,1-4.685-6.358,24.693,24.693,0,0,1-1.374-19.71c.24-.646.488-1.291.778-1.921a16.165,16.165,0,0,0,.762-1.9,11.985,11.985,0,0,0,.571-4.023v-4.139l.182.182-29.8-.083-15.348-.05h-11.68a25.264,25.264,0,0,0-3.891.132,9.015,9.015,0,0,0-7.409,7.9c-.05.646-.058,1.308-.05,1.978v51.258H300.2c-1.8,0-3.593,0-5.43-.05h-.058l-.05-.041a29.942,29.942,0,0,0-17.442-5.753,33.022,33.022,0,0,0-9.28,1.382,31.183,31.183,0,0,0-8.435,4.247c-.629.488-1.291.927-1.887,1.449l-1.763,1.606a33.108,33.108,0,0,0-3.146,3.56,30.033,30.033,0,0,0-4.363,8.493,32.219,32.219,0,0,0-1.432,9.487,30.022,30.022,0,0,0,44.926,25.811h.058a12.345,12.345,0,0,1,1.978-.265h5.894V402.07a14.981,14.981,0,0,0,.133,2.74,8.435,8.435,0,0,0,.828,2.558,9.106,9.106,0,0,0,3.692,3.833,10.107,10.107,0,0,0,2.483.927,13.834,13.834,0,0,0,2.69.182H469.778a9.761,9.761,0,0,0,2.094-.149,7.351,7.351,0,0,0,5.637-5.472,8.383,8.383,0,0,0,.207-2.036V345.629h.157c2.02.464,3.733,1.573,5.588,2.2a27.318,27.318,0,0,0,11.275,1.556c.927-.058,1.846-.19,2.748-.331a19.3,19.3,0,0,0,2.657-.6,27.79,27.79,0,0,0,19.487-20.207l.248-1.06c.058-.356.116-.712.166-1.068s.108-.7.166-1.06.05-.7.075-1.051c0-.7.083-1.4.116-2.078s-.058-1.366-.091-2.036a27.773,27.773,0,0,0-12.922-21.755,18.039,18.039,0,0,0-2.1-1.192l-1-.522c-.339-.149-.679-.273-1.01-.406-.654-.257-1.275-.53-1.879-.737l-1.747-.488a11.108,11.108,0,0,0-1.565-.364L496.7,294.2a15.057,15.057,0,0,0-2.161-.223Z" transform="translate(-246.5 -233.27)" fill="#0b3360"/>
    </g>
  </g>
  <g id="Grupo_84733" data-name="Grupo 84733" transform="translate(230.911 263.12)">
    <path id="Trazado_141575" data-name="Trazado 141575" d="M306,318.8a8.487,8.487,0,0,1,4.967-.828c2.318.538,10.844,6.06,10.844,6.06l6.854-1.283,4.04,19.354L306,353.164Z" transform="translate(-283.599 -317.848)" fill="#c17560"/>
    <path id="Trazado_141576" data-name="Trazado 141576" d="M281.581,325.529s6.126-.77,8.344-1.879,7.517-5.795,8.626-5.72,5.116.828,5.116.828l-1.656,4.868s8.03,4.859,10.414,6.623,9.934,9.818,10.24,11.78-.248,4.263-1.192,5.033-4.354-.77-4.354-.77a4.28,4.28,0,0,1-.762,3.5c-1.283,1.705-4.272,1.109-4.272,1.109s-.257,2.815-1.656,3.311-4.437-1.026-4.437-1.026-.927,2.392-2.045,2.649-4.272-1.656-4.272-1.656-13.659-9.818-16.73-11.267a15.62,15.62,0,0,0-4.007-1.531Z" transform="translate(-278.94 -317.862)" fill="#ffbf9d"/>
    <path id="Trazado_141577" data-name="Trazado 141577" d="M311.287,359.8c-.058,0-.1-.24-.248-.6a10.845,10.845,0,0,0-.679-1.366,8.32,8.32,0,0,1-1.06-1.945,4.843,4.843,0,0,1,1.407,1.747,5.117,5.117,0,0,1,.6,1.49C311.4,359.532,311.336,359.806,311.287,359.8Z" transform="translate(-284.168 -324.399)" fill="#ff9a6c"/>
    <path id="Trazado_141578" data-name="Trazado 141578" d="M317.8,357.556a22.028,22.028,0,0,1-1.722-2.583c-.927-1.416-1.929-2.368-1.863-2.483a6.142,6.142,0,0,1,2.21,2.235,8.179,8.179,0,0,1,1.374,2.831Z" transform="translate(-285.014 -323.813)" fill="#ff9a6c"/>
    <path id="Trazado_141579" data-name="Trazado 141579" d="M324.465,351.456c-.116,0-.5-1.449-1.44-3.038s-2.028-2.657-1.945-2.748a8.278,8.278,0,0,1,3.386,5.795Z" transform="translate(-286.195 -322.639)" fill="#ff9a6c"/>
    <path id="Trazado_141580" data-name="Trazado 141580" d="M320.331,339.79a4.868,4.868,0,0,1,.455,2.285,4.967,4.967,0,0,1-.248,2.326,10.481,10.481,0,0,1-.157-2.3A10.158,10.158,0,0,1,320.331,339.79Z" transform="translate(-286.059 -321.626)" fill="#ff9a6c"/>
    <path id="Trazado_141581" data-name="Trazado 141581" d="M296.34,328.344s2.136-6.829,2.9-7.682,7.906-2.732,7.906-2.732l2.219,5.72-1.589,1.656-3.411-.223S302.226,330.728,296.34,328.344Z" transform="translate(-281.936 -317.862)" fill="#c17560"/>
    <path id="Trazado_141582" data-name="Trazado 141582" d="M280.43,346.82s-.977.753,0,2.541,3.618.513,4.47,0c0,0-1.275,2.988.348,3.924a6.349,6.349,0,0,0,3.584.687s-.091,1.788,2.219,2.988,2.9,0,2.9,0,.257,2.98,2.906,3.237,3.576-.646,3.576-.646l-1.184-1.772s1.531-3.129.339-4.5a4.139,4.139,0,0,0-3.162-1.192s.522-2.773-.993-3.543a2.8,2.8,0,0,0-4.04,1.242s-.174-3.038-2.392-2.972a4.917,4.917,0,0,0-3.411,1.432Z" transform="translate(-279.122 -322.837)" fill="#c17560"/>
    <path id="Trazado_141583" data-name="Trazado 141583" d="M293.243,350.41a11.184,11.184,0,0,1-2.483,4.272,9.528,9.528,0,0,1,1.142-2.21A9.329,9.329,0,0,1,293.243,350.41Z" transform="translate(-280.975 -323.455)" fill="#7c4236"/>
    <path id="Trazado_141584" data-name="Trazado 141584" d="M299.3,353.65a6.126,6.126,0,0,1-1.167,2.368,5.968,5.968,0,0,1-1.78,1.937,14.223,14.223,0,0,1,1.44-2.169,14.024,14.024,0,0,1,1.507-2.136Z" transform="translate(-281.938 -324.013)" fill="#7c4236"/>
  </g>
  <g id="Grupo_84742" data-name="Grupo 84742" transform="translate(110.7 102.98)">
    <g id="Grupo_84734" data-name="Grupo 84734" transform="translate(3.878 221.987)">
      <path id="Trazado_141585" data-name="Trazado 141585" d="M232.668,392.56H219.721l-3.311,47.078h12.98c2.2-7.169,7.732-44.536,7.732-44.536Z" transform="translate(-151.84 -392.56)" fill="#0b3360"/>
      <path id="Trazado_141586" data-name="Trazado 141586" d="M145.918,392.56s-8.278,19.429-7.45,27.318,5.48,19.785,5.48,19.785h64.123a147.406,147.406,0,0,0,3.171-16.283c1.374-9.71,5.108-30.795,5.108-30.795Z" transform="translate(-138.41 -392.56)" fill="#0b3360"/>
    </g>
    <g id="Grupo_84737" data-name="Grupo 84737" transform="translate(13.977)">
      <path id="Trazado_141587" data-name="Trazado 141587" d="M232.746,158.887c-2.161-2.732-4.843-5.364-5.4-8.808-.5-3.162.877-6.623-.538-9.5-1.747-3.543-6.772-4.23-8.949-7.517-1.051-1.6-1.3-3.609-2.343-5.215-1.772-2.732-5.414-3.609-8.659-3.419s-6.424,1.192-9.677,1.267c-4.462.091-8.982-1.581-13.32-.513-4.776,1.175-7.864,5.207-11.126,9.106l-4.23,4.487a17.69,17.69,0,0,1-2.765,2.028c-1.738,1.01-3.7,1.656-5.215,2.98a7.889,7.889,0,0,0,0,11.374,8.427,8.427,0,0,0-6.076,7.98,23.529,23.529,0,0,0,1.242,5.795c.5,1.921.762,4.031-.116,5.795s-3.262,2.906-4.967,1.846a8.866,8.866,0,0,0,4.545,6.142,5.306,5.306,0,0,1-3.642,1.407c3.2,8.651,12.806,13.576,22.012,14.073s18.212-2.583,26.9-5.613l25.108-5.265c2.2-.4,3.237-3,3.311-5.24s-.381-4.586.513-6.623c1.233-2.815,4.627-4.139,5.911-6.962C236.728,165.311,234.915,161.619,232.746,158.887Z" transform="translate(-150.61 -124.4)" fill="#0b3360"/>
      <g id="Grupo_84736" data-name="Grupo 84736" transform="translate(12.877 2.002)">
        <g id="Grupo_84735" data-name="Grupo 84735" transform="translate(0 1.731)">
          <path id="Trazado_141588" data-name="Trazado 141588" d="M176.867,181.514a102.469,102.469,0,0,1-3.568-17.293,35.729,35.729,0,0,1,2.293-17.343c.356-.828,3.311-6.291,4.139-6.159.629.1-1.275,5.248-.977,5.795,2.79,5.414,3.311,11.78,2.483,17.823a79.967,79.967,0,0,1-4.371,17.177" transform="translate(-167.36 -130.943)" fill="#0b3360"/>
          <path id="Trazado_141589" data-name="Trazado 141589" d="M177.775,157.408c.281-14.777,9.106-26.929,23.874-26.233l1.366.141a26.407,26.407,0,0,1,23.642,26.912c-.315,12.806-.828,26.954-1.656,33.75-1.656,14.073-15.993,14.793-15.993,14.793l-.381,23.262L175.06,206.77Z" transform="translate(-167.697 -129.295)" fill="#ffbf9d"/>
          <path id="Trazado_141590" data-name="Trazado 141590" d="M212.4,220.968a34.239,34.239,0,0,1-17.79-7.368s3.311,11.921,17.508,12.136Z" transform="translate(-171.063 -143.493)" fill="#ff9a6c"/>
          <path id="Trazado_141591" data-name="Trazado 141591" d="M230.649,176.635a2.028,2.028,0,0,1-2.161,1.829,1.937,1.937,0,0,1-1.879-2.036,2.028,2.028,0,0,1,2.152-1.829,1.945,1.945,0,0,1,1.887,2.036Z" transform="translate(-176.573 -136.776)" fill="#0b3360"/>
          <path id="Trazado_141592" data-name="Trazado 141592" d="M231.348,170.016c-.273.232-1.656-1.051-3.849-1.275s-3.866.7-4.073.4c-.108-.124.2-.571.944-1a5.6,5.6,0,0,1,3.311-.654,5.414,5.414,0,0,1,3.038,1.349C231.348,169.412,231.489,169.908,231.348,170.016Z" transform="translate(-176.021 -135.546)" fill="#0b3360"/>
          <path id="Trazado_141593" data-name="Trazado 141593" d="M206.959,176.637a2.028,2.028,0,0,1-2.161,1.829,1.937,1.937,0,0,1-1.879-2.036,2.012,2.012,0,0,1,2.152-1.821,1.929,1.929,0,0,1,1.887,2.028Z" transform="translate(-172.493 -136.778)" fill="#0b3360"/>
          <path id="Trazado_141594" data-name="Trazado 141594" d="M205.6,168.375c-.273.232-1.656-1.06-3.849-1.283s-3.874.7-4.081.406c-.1-.132.2-.579.952-1.01a5.522,5.522,0,0,1,3.311-.646,5.356,5.356,0,0,1,3.03,1.341C205.555,167.771,205.729,168.268,205.6,168.375Z" transform="translate(-171.586 -135.263)" fill="#0b3360"/>
          <path id="Trazado_141595" data-name="Trazado 141595" d="M214.52,186.227a14.4,14.4,0,0,1,3.584-.265c.563,0,1.1-.05,1.233-.422a2.848,2.848,0,0,0-.2-1.656q-.571-2.086-1.192-4.387c-1.656-6.233-2.765-11.341-2.483-11.407s1.788,4.967,3.427,11.184c.389,1.54.77,3,1.118,4.4a3.212,3.212,0,0,1,.066,2.2,1.416,1.416,0,0,1-1,.712,3.8,3.8,0,0,1-.952,0A13.353,13.353,0,0,1,214.52,186.227Z" transform="translate(-174.491 -135.656)" fill="#0b3360"/>
          <path id="Trazado_141596" data-name="Trazado 141596" d="M206.529,191c.348,0,.108,2.368,1.945,4.247s4.371,1.887,4.354,2.219c0,.149-.613.4-1.656.315a5.877,5.877,0,0,1-3.642-1.714,5.1,5.1,0,0,1-1.482-3.551C206.008,191.53,206.364,191,206.529,191Z" transform="translate(-173.032 -139.601)" fill="#0b3360"/>
          <path id="Trazado_141597" data-name="Trazado 141597" d="M206.159,157.829c-.281.563-2.409.058-4.967.1s-4.71.513-4.967-.05c-.124-.273.3-.828,1.184-1.275a8.278,8.278,0,0,1,3.791-.894,8.435,8.435,0,0,1,3.808.828C205.853,157.042,206.275,157.556,206.159,157.829Z" transform="translate(-171.338 -133.524)" fill="#0b3360"/>
          <path id="Trazado_141598" data-name="Trazado 141598" d="M231.314,161.177c-.43.455-1.871-.215-3.667-.422s-3.311,0-3.642-.571c-.124-.273.166-.737.877-1.134a5.339,5.339,0,0,1,5.886.828C231.355,160.432,231.5,160.961,231.314,161.177Z" transform="translate(-176.12 -134.008)" fill="#0b3360"/>
          <path id="Trazado_141599" data-name="Trazado 141599" d="M176.3,175.458c-.232-.132-9.387-3.891-10.1,5.795s9.106,8.386,9.189,8.113S176.3,175.458,176.3,175.458Z" transform="translate(-166.165 -136.783)" fill="#ffbf9d"/>
          <path id="Trazado_141600" data-name="Trazado 141600" d="M173.214,186.109c-.041,0-.174.108-.472.215a1.656,1.656,0,0,1-1.258-.066c-.993-.447-1.738-2.136-1.656-3.882a5.555,5.555,0,0,1,.646-2.376,1.945,1.945,0,0,1,1.366-1.2.828.828,0,0,1,.96.53c.108.281,0,.472.083.488s.224-.141.174-.546a1.076,1.076,0,0,0-.339-.637,1.283,1.283,0,0,0-.911-.315,2.376,2.376,0,0,0-1.871,1.391,5.8,5.8,0,0,0-.786,2.649c-.074,1.954.786,3.849,2.152,4.363a1.829,1.829,0,0,0,1.565-.149C173.164,186.333,173.247,186.126,173.214,186.109Z" transform="translate(-166.678 -137.417)" fill="#ff9a6c"/>
          <path id="Trazado_141601" data-name="Trazado 141601" d="M221.145,141.4c1.656-.762-2.748-6.142-6.49-8.137-5.646-3.013-14.421-5.207-19.868-4.031-6.623,1.416-12.152,4.28-15.77,9.934a38.123,38.123,0,0,0-5.53,19.164,11.639,11.639,0,0,0,.985,6c1.217,2.227,3.725,3.742,3.419,6.689a4.04,4.04,0,0,0,.828,3.013c1.656,2,3.924.373,5.033-1.341,2.376-3.651,2.906-8.162,3.369-12.492a28.876,28.876,0,0,0,0-9.247c-.373-1.656-1.035-3.22-1.316-4.884a5.8,5.8,0,0,1,1-4.785,6.293,6.293,0,0,1,.828-.745,10.1,10.1,0,0,1,10.132-1.258c5.331,2.277,14.454,5.753,17,4.065,3.667-2.434,4.619-4.139,4.619-4.139Z" transform="translate(-167.416 -128.91)" fill="#0b3360"/>
        </g>
        <path id="Trazado_141602" data-name="Trazado 141602" d="M196.957,127.6a21.306,21.306,0,0,1,16.291,1.954c2.558,1.54,4.8,3.882,5.422,6.8s-.828,6.366-3.659,7.31l-.2.108c-4.214,1.126-6.863.4-10.886-1.291-3.394-1.416-6.333-3.758-9.727-5.157a19.644,19.644,0,0,0-11.49-1.076,32.227,32.227,0,0,1,14.247-8.642Z" transform="translate(-169.014 -126.819)" fill="#0b3360"/>
      </g>
      <path id="Trazado_141603" data-name="Trazado 141603" d="M202.88,125.73a4.189,4.189,0,0,1,.985.1,15.506,15.506,0,0,1,2.6.712,16.621,16.621,0,0,1,3.568,1.829,13.882,13.882,0,0,1,3.551,3.4,13.245,13.245,0,0,1,1.954,4.512,24.313,24.313,0,0,1,.6,3.965c.074,1.134.083,2.053.066,2.69a4.3,4.3,0,0,1-.066.985,4.38,4.38,0,0,1-.091-.985c0-.629-.083-1.548-.2-2.666a26.881,26.881,0,0,0-.671-3.891,13.377,13.377,0,0,0-1.929-4.371,13.833,13.833,0,0,0-3.427-3.311,18.113,18.113,0,0,0-3.452-1.879,36.069,36.069,0,0,0-3.485-1.093Z" transform="translate(-159.61 -124.629)" fill="#1565b2"/>
      <path id="Trazado_141604" data-name="Trazado 141604" d="M213.64,125.08a3.849,3.849,0,0,1,.828.232,8,8,0,0,1,.952.356l1.209.613a12.5,12.5,0,0,1,5.017,5.9,14.6,14.6,0,0,1,.712,2.127,14.778,14.778,0,0,1,.315,2.07,13.243,13.243,0,0,1,.041,1.887,14.381,14.381,0,0,1-.224,1.656,8.689,8.689,0,0,1-.356,1.308,6.837,6.837,0,0,1-.389.944,3.312,3.312,0,0,1-.447.745,18.818,18.818,0,0,0,.9-3.055,14.148,14.148,0,0,0,.174-1.589,15.731,15.731,0,0,0-.075-1.838,16.55,16.55,0,0,0-.331-2,15.548,15.548,0,0,0-.7-2.061,12.815,12.815,0,0,0-4.785-5.795l-1.159-.654c-.339-.2-.662-.29-.911-.414a2.972,2.972,0,0,1-.77-.43Z" transform="translate(-161.463 -124.517)" fill="#1565b2"/>
    </g>
    <g id="Grupo_84741" data-name="Grupo 84741" transform="translate(0 75.629)">
      <path id="Trazado_141605" data-name="Trazado 141605" d="M206.188,242.267c0,1.325,6.623,30.546,9.2,37.732s10.613,79.172,9.553,84.288-3.816,4.926-3.816,4.926-65.157-4.139-72.161-3.485-9.934.406-11.672-7.591.05-49.57-1.432-59.6-1.5-14.9-2.078-29.851c-.5-12.939,2.483-23.32,8.6-30.811S162.165,222.8,162.165,222.8l4.826-7.045,34.2,18.079.786-4.139,2.07,6.407Z" transform="translate(-133.726 -215.76)" fill="#ffa726"/>
      <g id="Grupo_84738" data-name="Grupo 84738" transform="translate(7.678 53.195)" opacity="0.3">
        <path id="Trazado_141606" data-name="Trazado 141606" d="M222.47,342.4c-.563-1.457-2.409-1.821-3.965-2-14.487-1.606-29.57-5.224-40.149-15.248-4.139-3.924-7.409-8.659-10.555-13.419-6.871-10.4-13.336-21.06-19.8-31.722l-5,1.9c3.071,15.058,6.1,25.952,11.118,38.295s8.907,24.3,21.606,28.344c8.22,2.616,23.816.613,32.409-.058a50.067,50.067,0,0,0,10.637-1.656,6.9,6.9,0,0,0,2.872-1.44A2.823,2.823,0,0,0,222.47,342.4Z" transform="translate(-143 -280.02)"/>
      </g>
      <g id="Grupo_84739" data-name="Grupo 84739" transform="translate(5.13 18.201)">
        <path id="Trazado_141607" data-name="Trazado 141607" d="M140.69,270.9c.373.671,29.371,62.6,42.318,65.141s53.179,3.146,61.026,1.656,15.538-2.864,15.538-2.864,5.687-13.51.5-25.017l-10.811.356s-30.05-1.656-34.288-2.781-7.914-5.141-11.73-4.967l-22.864-53.2s-14.851-13.767-25.488-9.528S137.578,265.372,140.69,270.9Z" transform="translate(-139.922 -237.944)" fill="#ffa726"/>
        <path id="Trazado_141608" data-name="Trazado 141608" d="M272.776,351.88a5.389,5.389,0,0,1,.215-1.043c.166-.654.381-1.656.6-2.815s.43-2.632.579-4.23a44.494,44.494,0,0,0,.108-5.215,42.849,42.849,0,0,0-1.457-9.363c-.323-1.176-.621-2.119-.828-2.757a5.637,5.637,0,0,1-.3-1.018,5.223,5.223,0,0,1,.447.96,27,27,0,0,1,.969,2.732,37.84,37.84,0,0,1,1.606,9.429,40.086,40.086,0,0,1-.149,5.265,37.752,37.752,0,0,1-.662,4.255,28.136,28.136,0,0,1-.745,2.806A5.321,5.321,0,0,1,272.776,351.88Z" transform="translate(-162.613 -252.847)" fill="#0b3360"/>
        <path id="Trazado_141609" data-name="Trazado 141609" d="M180.534,251.41s.157.315.43.944l1.225,2.781c1.06,2.483,2.624,6.043,4.619,10.646l16.738,38.767-.166-.1A9.934,9.934,0,0,1,208.456,306c1.573.828,3.1,1.879,4.776,2.649a16.231,16.231,0,0,0,5.439,1.267c1.9.224,3.849.389,5.795.563,7.881.646,16.242,1.159,24.942,1.656h0l10.8-.348h.132l.058.124a27.764,27.764,0,0,1,2.161,12.417,40.446,40.446,0,0,1-2.649,12.765l-.041.108h-.116l-6.871,1.267-7.517,1.391a50.658,50.658,0,0,1-7.533.778c-4.967.224-9.934.248-14.768.224s-9.594-.141-14.247-.315-9.205-.406-13.642-.745c-2.219-.157-4.4-.372-6.556-.6a46.3,46.3,0,0,1-6.358-1.06,11.033,11.033,0,0,1-2.748-1.589,23.18,23.18,0,0,1-2.343-2.045,49.8,49.8,0,0,1-4.007-4.528,165.457,165.457,0,0,1-12.185-18.32c-6.8-11.589-11.7-21.341-15.066-28.063-1.656-3.369-2.947-6-3.8-7.781s-1.275-2.74-1.275-2.74.132.224.356.679l.993,2.02c.894,1.78,2.194,4.4,3.866,7.748,3.411,6.7,8.353,16.407,15.174,27.988a166.4,166.4,0,0,0,12.21,18.212,49.427,49.427,0,0,0,3.99,4.487,21.581,21.581,0,0,0,2.31,2.02,10.621,10.621,0,0,0,2.657,1.531,45.534,45.534,0,0,0,6.275,1.026c2.144.232,4.329.447,6.548.6,4.429.331,8.974.563,13.626.728s9.4.273,14.238.3,9.76,0,14.743-.224a49.558,49.558,0,0,0,7.45-.778l7.517-1.383,6.879-1.275-.157.124a40.158,40.158,0,0,0,2.624-12.624,27.55,27.55,0,0,0-2.119-12.227l.19.124-10.811.331h0c-8.7-.488-17.061-1.01-24.95-1.656-1.97-.182-3.916-.348-5.795-.579-.96-.108-1.9-.232-2.839-.406a10.761,10.761,0,0,1-2.7-.894c-1.714-.786-3.237-1.8-4.8-2.666a9.5,9.5,0,0,0-4.884-1.523h-.116l-.041-.1c-6.987-16.242-12.633-29.578-16.631-38.8-1.962-4.619-3.5-8.22-4.545-10.687-.513-1.217-.911-2.152-1.175-2.8S180.534,251.41,180.534,251.41Z" transform="translate(-140.08 -240.1)" fill="#0b3360"/>
        <path id="Trazado_141610" data-name="Trazado 141610" d="M178.181,244.885s-.406-.373-1.126-1.043a20.844,20.844,0,0,0-3.311-2.483,21.456,21.456,0,0,0-5.629-2.483,20.1,20.1,0,0,0-14.636,1.465,21.524,21.524,0,0,0-5.033,3.5,21.018,21.018,0,0,0-2.757,3.113,7.81,7.81,0,0,1-.894,1.242c-.066-.017,0-.132.174-.356a10.347,10.347,0,0,1,.588-.977,18.907,18.907,0,0,1,2.69-3.228,20.637,20.637,0,0,1,25.662-2.566,19.14,19.14,0,0,1,3.311,2.632c.356.339.6.646.77.828S178.2,244.869,178.181,244.885Z" transform="translate(-140.757 -237.747)" fill="#0b3360"/>
        <path id="Trazado_141611" data-name="Trazado 141611" d="M215.611,315.73a54.633,54.633,0,0,1-3.311,8.841,54.637,54.637,0,0,1,3.311-8.841Z" transform="translate(-152.385 -251.175)" fill="#0b3360"/>
      </g>
      <path id="Trazado_141612" data-name="Trazado 141612" d="M279.429,328.03a.474.474,0,0,1,.3,0,1.093,1.093,0,0,1,.579.563,1.242,1.242,0,0,1,0,1.233,1.407,1.407,0,0,1-1.366.629,1.325,1.325,0,0,1-1.035-1.1,1.267,1.267,0,0,1,.4-1.167,1.035,1.035,0,0,1,.77-.248c.19,0,.281.066.281.091a1.429,1.429,0,0,0-.828.373.993.993,0,0,0-.224.878.969.969,0,0,0,.728.77,1.051,1.051,0,0,0,.985-.439.977.977,0,0,0,.083-.9C279.835,328.163,279.412,328.088,279.429,328.03Z" transform="translate(-158.548 -235.075)" fill="#0b3360"/>
      <path id="Trazado_141613" data-name="Trazado 141613" d="M208.369,237.534a5.091,5.091,0,0,1-.778-.406l-2.161-1.233.149-.066c-.422,2.161-.828,5.331-1.556,9.106l-.05.248-.224-.141c-3.171-2-6.978-4.288-11.043-6.738-3.03-1.813-5.861-3.651-8.477-5.232s-5.017-2.922-7.028-4.056l-4.793-2.666-1.3-.728a2.482,2.482,0,0,1-.439-.281,2.65,2.65,0,0,1,.48.207l1.333.662c1.159.588,2.815,1.449,4.851,2.55s4.454,2.434,7.094,3.99l8.485,5.2c4.065,2.483,7.864,4.768,11.026,6.8l-.265.116c.753-3.775,1.217-6.954,1.705-9.106v-.141l.124.075,2.1,1.316a5.86,5.86,0,0,1,.762.53Z" transform="translate(-140.087 -217.41)" fill="#0b3360"/>
      <g id="Grupo_84740" data-name="Grupo 84740" transform="translate(35.393 10.522)" opacity="0.3">
        <path id="Trazado_141614" data-name="Trazado 141614" d="M176.48,228.47l17.815,13.295c3.932,2.93,7.947,5.9,12.608,7.4q-.124-6.209-.257-12.417l-1.8,8.717Z" transform="translate(-176.48 -228.47)"/>
      </g>
    </g>
  </g>
  <g id="Grupo_84753" data-name="Grupo 84753" transform="translate(272.798 94.429)">
    <g id="Grupo_84746" data-name="Grupo 84746" transform="translate(49.529)">
      <g id="Grupo_84745" data-name="Grupo 84745">
        <path id="Trazado_141615" data-name="Trazado 141615" d="M396.9,146.653a6.391,6.391,0,0,1-2.947-12.417,6.623,6.623,0,0,1,5.579-11.333,7.964,7.964,0,0,1,11.887-6.714,8.957,8.957,0,0,1,11.018-.43,6.366,6.366,0,0,1,5.795,10.687" transform="translate(-389.371 -114.071)" fill="#0b3360"/>
        <g id="Grupo_84744" data-name="Grupo 84744" transform="translate(5.318 2.881)">
          <g id="Grupo_84743" data-name="Grupo 84743" transform="translate(0 3.354)">
            <path id="Trazado_141616" data-name="Trazado 141616" d="M397.091,149.235a27.127,27.127,0,0,1,26.54-25.5h1.4c15.174.571,23.179,13.775,22.161,28.924l.927,54.015h0l-36.863,13.245-.323-19.462s-14.611-1.962-15.083-16.556C395.592,176.884,396.3,162.364,397.091,149.235Z" transform="translate(-395.795 -121.969)" fill="#c17560"/>
            <path id="Trazado_141617" data-name="Trazado 141617" d="M413.91,215.129a35.306,35.306,0,0,0,18.965-5.969s-4.272,10.563-18.833,9.553Z" transform="translate(-398.914 -136.679)" fill="#7c4236"/>
            <path id="Trazado_141618" data-name="Trazado 141618" d="M402.3,170.04a2.086,2.086,0,0,0,2.045,2.061,2,2,0,0,0,2.1-1.921,2.078,2.078,0,0,0-2.045-2.061,2,2,0,0,0-2.1,1.921Z" transform="translate(-396.915 -129.612)" fill="#0b3360"/>
            <path id="Trazado_141619" data-name="Trazado 141619" d="M401.3,162.6c.265.265,1.821-.935,4.056-.977s3.9,1.051,4.139.77c.116-.124-.157-.6-.886-1.118a5.8,5.8,0,0,0-3.311-.944,5.5,5.5,0,0,0-3.22,1.109C401.4,161.985,401.179,162.474,401.3,162.6Z" transform="translate(-396.738 -128.271)" fill="#0b3360"/>
            <path id="Trazado_141620" data-name="Trazado 141620" d="M426.93,170.04a2.078,2.078,0,0,0,2.045,2.061,1.995,1.995,0,0,0,2.1-1.921,2.078,2.078,0,0,0-2.045-2.061,1.995,1.995,0,0,0-2.1,1.921Z" transform="translate(-401.156 -129.612)" fill="#0b3360"/>
            <path id="Trazado_141621" data-name="Trazado 141621" d="M427.883,162.528c.265.265,1.821-.935,4.056-.969s3.9,1.043,4.139.762c.116-.124-.157-.6-.886-1.109a5.679,5.679,0,0,0-3.311-.952,5.455,5.455,0,0,0-3.22,1.109C427.974,161.94,427.759,162.437,427.883,162.528Z" transform="translate(-401.314 -128.259)" fill="#0b3360"/>
            <path id="Trazado_141622" data-name="Trazado 141622" d="M417.3,179.406a14.683,14.683,0,0,0-3.642-.588c-.579,0-1.118-.149-1.225-.538a2.913,2.913,0,0,1,.348-1.656c.513-1.391,1.043-2.856,1.606-4.387,2.219-6.242,3.808-11.366,3.56-11.457s-2.26,4.9-4.478,11.142c-.53,1.54-1.043,3-1.531,4.412a3.361,3.361,0,0,0-.248,2.252,1.432,1.432,0,0,0,.96.828,3.569,3.569,0,0,0,.969.116A16.452,16.452,0,0,0,417.3,179.406Z" transform="translate(-398.516 -128.349)" fill="#0b3360"/>
            <path id="Trazado_141623" data-name="Trazado 141623" d="M426.884,153.33c.306.555,2.21-.1,4.57-.224s4.354.232,4.561-.364c.083-.281-.348-.786-1.209-1.225a7.111,7.111,0,0,0-3.551-.671,6.879,6.879,0,0,0-3.4,1.118C427.082,152.51,426.743,153.057,426.884,153.33Z" transform="translate(-401.143 -126.635)" fill="#0b3360"/>
            <path id="Trazado_141624" data-name="Trazado 141624" d="M400.775,153.006c.48.5,2.318-.074,4.536-.141s4.139.257,4.536-.281c.182-.265-.124-.77-.96-1.233a7.152,7.152,0,0,0-3.7-.753,7.02,7.02,0,0,0-3.6,1.093C400.808,152.228,400.559,152.757,400.775,153.006Z" transform="translate(-396.64 -126.593)" fill="#0b3360"/>
            <path id="Trazado_141625" data-name="Trazado 141625" d="M398.872,142.163s3.659-9.2,8.013-11.416c5.273-2.69,7.682,3.113,12.724,1.589s10.075-4.1,15.339-.281c5.795,4.139,3.17,7.243,3.651,13.692,1.954,26.167,6.887,33.477,8,21.118.124-1.358,3.849-2.483,4.288-8.228.571-7.45.679-16.424-1.084-21.647-1.482-4.4-4.073-7.409-8.667-10.687-7.26-5.182-17.086-5.1-23.742-4.288S398.036,130.756,398.872,142.163Z" transform="translate(-396.318 -121.603)" fill="#0b3360"/>
            <path id="Trazado_141626" data-name="Trazado 141626" d="M455.357,175.008a3.957,3.957,0,0,1,4.189-3.9c2.724.207,5.795,1.656,5.712,7.3-.116,9.934-10.091,7.79-10.108,7.508S455.274,179.171,455.357,175.008Z" transform="translate(-406.015 -130.126)" fill="#c17560"/>
            <path id="Trazado_141627" data-name="Trazado 141627" d="M457.818,182.866c.041,0,.174.124.464.265a1.78,1.78,0,0,0,1.3.041c1.051-.381,1.962-2.036,2.028-3.833a5.794,5.794,0,0,0-.455-2.483,2.036,2.036,0,0,0-1.291-1.349.894.894,0,0,0-1.026.464c-.141.281-.075.48-.133.5s-.207-.166-.124-.579a1.118,1.118,0,0,1,.4-.621,1.291,1.291,0,0,1,.96-.24,2.426,2.426,0,0,1,1.8,1.565,5.845,5.845,0,0,1,.571,2.781c-.091,2.012-1.134,3.874-2.583,4.272a1.846,1.846,0,0,1-1.581-.281C457.835,183.107,457.785,182.883,457.818,182.866Z" transform="translate(-406.473 -130.799)" fill="#7c4236"/>
          </g>
          <path id="Trazado_141628" data-name="Trazado 141628" d="M446.428,146.5a9.4,9.4,0,0,1-4.18,2.036c-1.548.182-3.353-.671-3.642-2.21-.132-.687,0-1.5-.447-2.028s-1.556-.406-2.392-.3a6.358,6.358,0,0,1-6.689-4.421c-.712,1.118-2.434,1.109-3.568.406a14.787,14.787,0,0,1-2.773-2.839,4.174,4.174,0,0,0-3.452-1.656,9.933,9.933,0,0,1-2.152.522c-1.308-.091-1.978-1.656-2.2-2.906s-.414-2.806-1.531-3.485-2.359-.232-3.56,0-2.765-.05-3.1-1.225a2.368,2.368,0,0,1,.414-1.813,6.44,6.44,0,0,1,7.558-2.591,8.742,8.742,0,0,1,16.026-2.028,8.874,8.874,0,0,1,14.238,2.947,6.432,6.432,0,0,1,7.45,9.205,6.1,6.1,0,0,1,3.452,4.793c.075,2.061-1.887,4.139-3.882,3.651a3.56,3.56,0,0,1-6.084,3.676" transform="translate(-397.673 -117.551)" fill="#0b3360"/>
          <path id="Trazado_141629" data-name="Trazado 141629" d="M415.558,128.87a.439.439,0,0,0,0,.182,4.972,4.972,0,0,0,.075.53,6.143,6.143,0,0,0,.762,1.9,7.029,7.029,0,0,0,2.252,2.31,6.623,6.623,0,0,0,4.139,1.084l-.174-.224a3.568,3.568,0,0,0,.257,2.748,10.364,10.364,0,0,0,1.747,2.417,8.155,8.155,0,0,0,1.142,1.118,3.552,3.552,0,0,0,1.589.555,3.651,3.651,0,0,0,3.179-1.217l-.373-.1a7.45,7.45,0,0,0,3.27,5.1,5.455,5.455,0,0,0,3.311,1.01,9.727,9.727,0,0,0,3.2-.753l-.265-.108a7.724,7.724,0,0,0,2.417,3.022,4.139,4.139,0,0,0,3.485.877,5.5,5.5,0,0,0,4.139-4.379l-.223.108a5.116,5.116,0,0,0,3.427.439,5.588,5.588,0,0,0,2.368-1.118,4.893,4.893,0,0,0,1.084-1.233,2.119,2.119,0,0,0,.24-.521,5.969,5.969,0,0,1-1.432,1.656,5.489,5.489,0,0,1-2.3,1.01,4.967,4.967,0,0,1-3.245-.464l-.19-.1v.207a5.174,5.174,0,0,1-3.916,4.056,3.775,3.775,0,0,1-3.162-.828,7.392,7.392,0,0,1-2.276-2.872L440,145.1l-.182.075a9.529,9.529,0,0,1-3.071.737,5.066,5.066,0,0,1-3.038-.935,7.078,7.078,0,0,1-3.1-4.81l-.066-.472-.306.373a3.228,3.228,0,0,1-2.806,1.068,3.03,3.03,0,0,1-1.407-.472,7.558,7.558,0,0,1-1.076-1.051,9.993,9.993,0,0,1-1.714-2.31,3.253,3.253,0,0,1-.265-2.483l.075-.24h-.248a6.432,6.432,0,0,1-3.932-.977,6.97,6.97,0,0,1-2.235-2.185,7.392,7.392,0,0,1-1.068-2.55Z" transform="translate(-399.196 -119.5)" fill="#1565b2"/>
        </g>
      </g>
      <path id="Trazado_141630" data-name="Trazado 141630" d="M426.587,184.21c-.356,0,.058,2.384-1.656,4.412s-4.263,2.2-4.222,2.533c0,.149.637.356,1.7.2a5.935,5.935,0,0,0,3.551-1.987,5.149,5.149,0,0,0,1.233-3.667C427.109,184.7,426.745,184.168,426.587,184.21Z" transform="translate(-394.767 -126.147)" fill="#0b3360"/>
    </g>
    <g id="Grupo_84752" data-name="Grupo 84752" transform="translate(0 78.244)">
      <g id="Grupo_84747" data-name="Grupo 84747" transform="translate(0 73.278)">
        <path id="Trazado_141631" data-name="Trazado 141631" d="M329.54,316.944c1.258-.5,42.955-5.513,42.955-5.513l16.912-14.321-1.54,41.457L334.631,343.7Z" transform="translate(-329.54 -297.11)" fill="#662d83"/>
        <path id="Trazado_141632" data-name="Trazado 141632" d="M391.855,304.76c-.5.248-4.685,3.965-4.685,3.965l1.275,31.92Z" transform="translate(-339.463 -298.427)" opacity="0.3"/>
      </g>
      <g id="Grupo_84749" data-name="Grupo 84749" transform="translate(44.825)">
        <path id="Trazado_141633" data-name="Trazado 141633" d="M463.992,395.46H393.57s3.725,19.868,5.108,29.023a117.3,117.3,0,0,0,3.4,15.654h63.742s4.76-11.54,5.588-18.957S463.992,395.46,463.992,395.46Z" transform="translate(-385.391 -240.766)" fill="#0b3360"/>
        <path id="Trazado_141634" data-name="Trazado 141634" d="M387.048,398.35s-1.97,22.657,0,42.285h24.4V422.547Z" transform="translate(-384.117 -241.264)" fill="#0b3360"/>
        <path id="Trazado_141635" data-name="Trazado 141635" d="M403.6,254.65l7.591-16.623.944-10.265s14.553-9.147,21.457-12.6A150.465,150.465,0,0,1,449.8,208.59v9.685Z" transform="translate(-387.118 -208.59)" fill="#ececec"/>
        <path id="Trazado_141636" data-name="Trazado 141636" d="M463.607,340.253s4.139-55.4,4.4-59.52c0,0,2.434-29.594-2.823-40.869s-17.012-21.176-17.012-21.176l-1.084-5.919L424.12,227.248,413.5,236.487a106.226,106.226,0,0,0-10.017,12.467,43.63,43.63,0,0,0-7.856,16.283c-.546,2.483-6.871,31.954-7.061,52.508,0,0-.969,17.939-2,28.1-1.283,12.566-3.237,41.233-2.815,58.212l74.445-2.276c18.394-2.806,15.157-4.636,15.157-4.636Z" transform="translate(-383.689 -209.31)" fill="#662d83"/>
        <path id="Trazado_141637" data-name="Trazado 141637" d="M447.278,220.29s-.174.091-.522.232l-1.515.637c-.654.315-1.44.728-2.368,1.209a25.853,25.853,0,0,0-3.046,1.9,84.528,84.528,0,0,0-16.358,15.124v.05h-.058l-7.185,1.308.149-.182c-.108,3.311-.224,6.8-.348,10.406v.083l-.066.058a98.454,98.454,0,0,0-10.5,11.507,44.555,44.555,0,0,0-3.6,5.447l-.389.7-.3.728a11.73,11.73,0,0,0-.538,1.482c-.323,1.01-.637,2.012-.894,3.022-1.1,4.023-2.012,7.955-2.864,11.7-1.656,7.45-3.1,14.247-4.28,19.934-2.334,11.374-3.651,18.435-3.651,18.435a11.362,11.362,0,0,1,.157-1.3c.132-.828.348-2.086.637-3.684.571-3.2,1.44-7.815,2.574-13.51S394.8,293.1,396.508,285.6c.828-3.742,1.747-7.674,2.848-11.714.257-1.01.571-2.02.894-3.038a12.029,12.029,0,0,1,.555-1.523l.306-.753.389-.712a46.043,46.043,0,0,1,3.634-5.5A98.032,98.032,0,0,1,415.7,250.778l-.066.141c.132-3.6.257-7.086.373-10.406v-.149h.149l7.144-1.291-.108.066A82.939,82.939,0,0,1,439.7,224.073c1.109-.77,2.185-1.333,3.088-1.871s1.738-.828,2.392-1.167l1.548-.588C447.087,220.34,447.278,220.29,447.278,220.29Z" transform="translate(-384.595 -210.605)" fill="#0b3360"/>
        <g id="Grupo_84748" data-name="Grupo 84748" transform="translate(27.087 33.543)">
          <path id="Trazado_141638" data-name="Trazado 141638" d="M427.064,269.032l.894,73.916L416.7,414.968h29.677S459.862,360.332,463,348.817c3.055-11.151,7.624-67.3,8.03-70.058.157-1.076,3.369-20.472-6.1-29.619" transform="translate(-416.46 -249.115)" fill="#662d83"/>
          <path id="Trazado_141639" data-name="Trazado 141639" d="M464.912,249.11s.215.207.621.621a16.048,16.048,0,0,1,1.656,1.987,24.876,24.876,0,0,1,3.709,9.106,50.985,50.985,0,0,1,.563,15.6c-.447,3.03-.671,6.267-.993,9.71l-1.06,10.9c-.712,7.649-1.507,16.035-2.483,25.025-.5,4.5-1.01,9.147-1.656,13.924a115.363,115.363,0,0,1-2.616,14.652L446.5,414.963l-.041.157H416.41v-.24c4.139-26.548,8-51.06,11.291-72.02h0c-.24-22.351-.439-40.853-.571-53.75-.058-6.432-.108-11.473-.141-14.9V270.3c0,.886.041,2.2.074,3.907.05,3.444.124,8.485.224,14.9.174,12.889.422,31.366.72,53.75h0c-3.262,20.935-7.086,45.447-11.225,72.02l-.2-.232h29.677l-.2.157c5.745-22.848,11.217-44.578,16.184-64.329a113.8,113.8,0,0,0,2.666-14.536c.637-4.776,1.159-9.429,1.656-13.916.977-8.99,1.788-17.384,2.483-25.017q.538-5.737,1.018-10.911c.339-3.435.579-6.714,1.035-9.719a51.1,51.1,0,0,0-.5-15.538,25.058,25.058,0,0,0-3.618-9.106,18.217,18.217,0,0,0-1.581-2.012Z" transform="translate(-416.41 -249.11)" fill="#0b3360"/>
        </g>
        <path id="Trazado_141640" data-name="Trazado 141640" d="M445.093,369.879a12.535,12.535,0,0,1-2.293-.662c-1.4-.48-3.311-1.2-5.364-2.119s-3.866-1.838-5.157-2.55a11.586,11.586,0,0,1-2.028-1.258,15.639,15.639,0,0,1,2.161,1c1.316.646,3.146,1.523,5.2,2.434s3.924,1.656,5.29,2.219a16.1,16.1,0,0,1,2.194.935Z" transform="translate(-391.706 -235.227)" fill="#0b3360"/>
        <path id="Trazado_141641" data-name="Trazado 141641" d="M386.809,361.7a.677.677,0,0,1,0-.19v-.571c0-.53.066-1.258.116-2.177.124-1.921.3-4.636.513-7.988.455-6.747,1.1-16.06,2.012-26.341s1.962-19.57,2.815-26.275c.43-3.353.828-6.06,1.068-7.93q.215-1.366.323-2.161l.1-.555a.537.537,0,0,1,.041-.19.6.6,0,0,1,0,.2,2.151,2.151,0,0,1-.058.563c-.058.53-.141,1.25-.24,2.161-.232,1.912-.546,4.619-.944,7.947-.778,6.722-1.78,16-2.69,26.283s-1.606,19.586-2.136,26.324c-.273,3.311-.488,6.06-.637,7.98-.083.911-.149,1.656-.2,2.169a4.391,4.391,0,0,1-.058.563A.736.736,0,0,1,386.809,361.7Z" transform="translate(-384.225 -222.146)" fill="#0b3360"/>
        <path id="Trazado_141642" data-name="Trazado 141642" d="M457.976,235.57a38.658,38.658,0,0,0-2.8-5.894,37.766,37.766,0,0,0-4.1-5.066,6.357,6.357,0,0,1,1.507,1.217,19.322,19.322,0,0,1,2.939,3.634,19.623,19.623,0,0,1,2,4.222,6.938,6.938,0,0,1,.447,1.887Z" transform="translate(-395.293 -211.348)" fill="#0b3360"/>
        <path id="Trazado_141643" data-name="Trazado 141643" d="M395.263,348.306a1.05,1.05,0,0,1,.074.538,2.169,2.169,0,0,1-.646,1.333,2.036,2.036,0,0,1-2.144.488,2.368,2.368,0,0,1-1.1-.786,2.2,2.2,0,0,1-.447-1.4,2.831,2.831,0,0,1,.571-1.722,1.7,1.7,0,0,1,.687-.546c.281-.108.488-.157.728-.232h.05a2.484,2.484,0,0,1,1.432.414,1.8,1.8,0,0,1,.662.935,1.937,1.937,0,0,1,.124.969c-.05,0-.091-.348-.315-.886a1.8,1.8,0,0,0-.637-.778,2.3,2.3,0,0,0-1.267-.3h.058c-.215.083-.488.157-.679.24a1.35,1.35,0,0,0-.53.439,2.575,2.575,0,0,0-.48,1.482,1.879,1.879,0,0,0,1.267,1.813,1.755,1.755,0,0,0,1.813-.339,2.219,2.219,0,0,0,.687-1.151C395.246,348.48,395.23,348.306,395.263,348.306Z" transform="translate(-384.948 -232.246)" fill="#0b3360"/>
        <path id="Trazado_141644" data-name="Trazado 141644" d="M393.933,379.879a.919.919,0,0,1,.066.538,2.119,2.119,0,0,1-.646,1.341,2.028,2.028,0,0,1-2.136.48,2.368,2.368,0,0,1-1.1-.786,2.144,2.144,0,0,1-.447-1.382,2.889,2.889,0,0,1,.571-1.722,1.8,1.8,0,0,1,.7-.546c.281-.1.488-.149.72-.232h.058a2.483,2.483,0,0,1,1.432.414,1.846,1.846,0,0,1,.662.944,1.912,1.912,0,0,1,.124.96c-.05,0-.1-.348-.323-.886a1.722,1.722,0,0,0-.629-.778,2.243,2.243,0,0,0-1.266-.29h.058l-.687.232a1.424,1.424,0,0,0-.53.447,2.484,2.484,0,0,0-.472,1.474,1.879,1.879,0,0,0,1.258,1.813,1.738,1.738,0,0,0,1.813-.339,2.086,2.086,0,0,0,.687-1.151C393.916,380.078,393.892,379.888,393.933,379.879Z" transform="translate(-384.719 -237.686)" fill="#0b3360"/>
      </g>
      <path id="Trazado_141645" data-name="Trazado 141645" d="M466.856,243.231c-.041.066-1.026-.563-2.757-1.225a18.585,18.585,0,0,0-3.121-.886,21.049,21.049,0,0,0-3.957-.356,21.341,21.341,0,0,0-3.94.464,18.543,18.543,0,0,0-3.1.977c-1.714.712-2.674,1.366-2.715,1.291a3.252,3.252,0,0,1,.646-.488,8.817,8.817,0,0,1,.828-.5,11.075,11.075,0,0,1,1.134-.571,17.337,17.337,0,0,1,3.129-1.084,20.622,20.622,0,0,1,4.023-.5,19.808,19.808,0,0,1,4.031.4,17.385,17.385,0,0,1,3.154.993,10.932,10.932,0,0,1,1.151.538,6.315,6.315,0,0,1,.828.48A3.038,3.038,0,0,1,466.856,243.231Z" transform="translate(-349.811 -214.059)" fill="#0b3360"/>
      <g id="Grupo_84750" data-name="Grupo 84750" transform="translate(52.045 22.873)" opacity="0.3">
        <path id="Trazado_141646" data-name="Trazado 141646" d="M392.41,311.659c3.212-4.677,4.387-9.106,6.109-14.5,2.55-8.038,3.262-17.127,7.268-24.545,2.359-4.371,5.132-8.858,9.23-11.664s4.594-6.209,4.52-15.6a11.156,11.156,0,0,0,6.233-2.566,15.877,15.877,0,0,0,3.51-6.565l-5.348,5.795s-7.252,1.349-7.144,1.3c-.182,3.618-.19,6.788-.364,10.406,0,0-13.907,14.76-14.992,17.723S392.41,311.659,392.41,311.659Z" transform="translate(-392.41 -236.22)"/>
      </g>
      <g id="Grupo_84751" data-name="Grupo 84751" transform="translate(103.684 71.424)" opacity="0.3">
        <path id="Trazado_141647" data-name="Trazado 141647" d="M454.79,413.9c17.632-33.369,23.113-77.235,22.061-119.031,0,0-5.058,50.795-6.763,59.52S454.79,413.9,454.79,413.9Z" transform="translate(-454.79 -294.87)"/>
      </g>
      <path id="Trazado_141648" data-name="Trazado 141648" d="M450.381,213.8a1.929,1.929,0,0,1-.389.306l-1.176.828-4.363,2.864-14.437,9.3-6.242,3.982h0l-2,1.548a16.066,16.066,0,0,0-1.78,1.523c-1.093,1.051-2.061,2.078-2.939,3.013l-.157.166-.091-.207c-.944-2.185-1.722-3.974-2.276-5.265l-.6-1.44a3.08,3.08,0,0,1-.182-.513,2.087,2.087,0,0,1,.265.48l.671,1.407,2.4,5.207-.248-.041c.828-.944,1.821-1.987,2.914-3.063a17.678,17.678,0,0,1,1.8-1.573c.646-.5,1.3-1.018,1.978-1.548h0l6.233-4,14.536-9.23,4.437-2.757,1.209-.728A2.783,2.783,0,0,1,450.381,213.8Z" transform="translate(-344.04 -209.487)" fill="#0b3360"/>
    </g>
  </g>
  <g id="Grupo_84766" data-name="Grupo 84766" transform="translate(41.605 19.611)">
    <g id="Grupo_84754" data-name="Grupo 84754">
      <path id="Trazado_141649" data-name="Trazado 141649" d="M77.212,49.865c-.1.058-3.452-5.795-7.45-12.988S62.519,23.748,62.61,23.69s3.452,5.795,7.45,13S77.3,49.816,77.212,49.865Z" transform="translate(-52.385 -23.689)" fill="#fff"/>
      <path id="Trazado_141650" data-name="Trazado 141650" d="M93.7,25c.108,0-.05,4.462-.348,9.934s-.637,9.934-.745,9.934.05-4.462.348-9.934S93.588,25,93.7,25Z" transform="translate(-57.544 -23.915)" fill="#fff"/>
      <path id="Trazado_141651" data-name="Trazado 141651" d="M66.982,61.589c0,.1-3.816-1.084-8.444-2.649s-8.353-2.922-8.278-3.022S54.076,57,58.7,58.568,67.015,61.482,66.982,61.589Z" transform="translate(-50.259 -29.238)" fill="#fff"/>
    </g>
    <path id="Trazado_141652" data-name="Trazado 141652" d="M126.4,72.364a31.457,31.457,0,1,0-29.677,44.081l3.187,7.268L125.171,112.7s-1.656-4.139-3.171-7.815a31.457,31.457,0,0,0,4.4-32.517Z" transform="translate(-52.993 -28.829)" fill="#36dac9"/>
    <path id="Trazado_141653" data-name="Trazado 141653" d="M126.339,119.951l-.207-.339-.571-.993c-.5-.877-1.242-2.185-2.161-3.874-1.829-3.386-4.4-8.328-7.227-14.6q-1.055-2.347-2.152-4.967c-.364-.828-.728-1.755-1.1-2.657a9.644,9.644,0,0,1-.828-2.873,3.179,3.179,0,0,1,.224-1.54,2,2,0,0,1,1.093-1.151,1.9,1.9,0,0,1,1.606.182,3.038,3.038,0,0,1,1.142,1.167,3.684,3.684,0,0,1-.058,3.253,5.5,5.5,0,0,1-2.326,2.483,5.977,5.977,0,0,1-3.386.737,6.275,6.275,0,0,1-3.311-1.316,7.574,7.574,0,0,1-2.268-2.823,5.5,5.5,0,0,1-.513-1.788,2.608,2.608,0,0,1,.414-1.838,1.606,1.606,0,0,1,.828-.563,2.177,2.177,0,0,1,.977-.074,3.022,3.022,0,0,1,1.7.9,6.474,6.474,0,0,1,1.109,1.565c.3.563.563,1.142.828,1.738a13.244,13.244,0,0,1,.894,3.758,7.185,7.185,0,0,1-.654,3.866,5.794,5.794,0,0,1-1.175,1.606,4.5,4.5,0,0,1-1.714,1.01,4.139,4.139,0,0,1-1.97.066,5.207,5.207,0,0,1-1.8-.762,11.821,11.821,0,0,1-2.773-2.632c-.4-.488-.77-1-1.126-1.515a11.267,11.267,0,0,1-.985-1.639,3.113,3.113,0,0,1-.306-1.854,1.97,1.97,0,0,1,.381-.886,1.341,1.341,0,0,1,.828-.5,1.656,1.656,0,0,1,.952.124,3.237,3.237,0,0,1,.786.5,6.06,6.06,0,0,1,1.184,1.382,10.505,10.505,0,0,1,1.945,6.623,6.8,6.8,0,0,1-1.142,3.187,4.967,4.967,0,0,1-2.6,2,4.363,4.363,0,0,1-3.171-.257,4.967,4.967,0,0,1-2.285-2.028,4.139,4.139,0,0,1-.488-1.449,2.285,2.285,0,0,1,.265-1.49,1.242,1.242,0,0,1,.6-.48,1.225,1.225,0,0,1,.77,0,2.707,2.707,0,0,1,1.159.828,11.539,11.539,0,0,1,1.407,2.392l1.175,2.359c3.071,6.159,5.464,11.184,7.053,14.685.828,1.755,1.391,3.129,1.788,4.056l.439,1.068c.1.24.141.364.141.364l-.157-.356c-.108-.248-.265-.6-.464-1.06-.414-.927-1.018-2.285-1.829-4.031-1.614-3.493-4.023-8.51-7.111-14.652l-1.192-2.359a10.687,10.687,0,0,0-1.382-2.351,2.483,2.483,0,0,0-1.084-.828.985.985,0,0,0-1.167.4,2.136,2.136,0,0,0-.232,1.366,3.973,3.973,0,0,0,.472,1.382,4.776,4.776,0,0,0,2.2,2,4.139,4.139,0,0,0,3.03.248,4.834,4.834,0,0,0,2.483-1.921,6.623,6.623,0,0,0,1.1-3.1,10.372,10.372,0,0,0-1.912-6.507,6.316,6.316,0,0,0-1.151-1.333,1.987,1.987,0,0,0-1.556-.571,1.366,1.366,0,0,0-1.026,1.209,2.814,2.814,0,0,0,.29,1.73,11.415,11.415,0,0,0,.96,1.573c.356.513.728,1.01,1.118,1.5a11.7,11.7,0,0,0,2.724,2.583,5.1,5.1,0,0,0,1.722.728,3.833,3.833,0,0,0,1.863-.066,4.71,4.71,0,0,0,2.748-2.483,6.9,6.9,0,0,0,.629-3.75,12.616,12.616,0,0,0-.919-3.642,10.033,10.033,0,0,0-1.863-3.237,2.8,2.8,0,0,0-1.573-.828,1.6,1.6,0,0,0-1.565.555,2.376,2.376,0,0,0-.373,1.656,5.654,5.654,0,0,0,.5,1.714,7.45,7.45,0,0,0,2.2,2.748,6.167,6.167,0,0,0,3.179,1.267,5.72,5.72,0,0,0,3.311-.7,5.389,5.389,0,0,0,2.243-2.351A3.485,3.485,0,0,0,116,88.4a2.765,2.765,0,0,0-1.06-1.1,1.722,1.722,0,0,0-1.432-.166,1.838,1.838,0,0,0-.993,1.043,3.112,3.112,0,0,0-.215,1.457,9.768,9.768,0,0,0,.828,2.815l1.051,2.715q1.093,2.6,2.144,4.967c2.806,6.283,5.356,11.233,7.161,14.627.9,1.7,1.656,3,2.119,3.891.24.439.422.778.555,1.01Z" transform="translate(-57.944 -34.479)" fill="#fff"/>
    <path id="Trazado_141654" data-name="Trazado 141654" d="M99.963,122.748a2.011,2.011,0,0,1-.381,0H98.473a27.931,27.931,0,0,1-4.081-.24,29.354,29.354,0,0,1-21.664-14.437,26.771,26.771,0,0,1-1.772-3.675c-.19-.447-.3-.828-.381-1.043a2.483,2.483,0,0,1-.116-.373,3.743,3.743,0,0,1,.157.356c.1.232.224.588.414,1.026a31.14,31.14,0,0,0,1.838,3.6,29.685,29.685,0,0,0,3.551,4.859,29.371,29.371,0,0,0,12.144,8.137,30.7,30.7,0,0,0,5.853,1.44,29.361,29.361,0,0,0,4.056.306h1.1a2.78,2.78,0,0,1,.389.041Z" transform="translate(-53.737 -37.342)" fill="#0b3360"/>
    <path id="Trazado_141655" data-name="Trazado 141655" d="M69,95.7a6.176,6.176,0,0,1,.389,1.581,6.341,6.341,0,0,1,.166,1.656A11.635,11.635,0,0,1,69,95.7Z" transform="translate(-53.484 -36.089)" fill="#0b3360"/>
    <path id="Trazado_141656" data-name="Trazado 141656" d="M134.324,81.2a2.1,2.1,0,0,1-.083-.323c-.05-.24-.124-.546-.207-.935l-.141-.679c-.058-.24-.141-.5-.224-.828-.166-.563-.323-1.225-.6-1.912l-.4-1.093c-.141-.381-.331-.753-.5-1.159a25.843,25.843,0,0,0-1.25-2.483,32.286,32.286,0,0,0-3.692-5.174,33.321,33.321,0,0,0-4.7-4.3c-.828-.555-1.556-1.109-2.318-1.531-.381-.224-.728-.455-1.093-.637l-1.043-.522c-.654-.356-1.283-.579-1.829-.828l-.753-.315-.654-.224-.9-.29a2.044,2.044,0,0,1-.315-.124l.323.083.919.273.662.207c.24.083.5.19.77.3a18.791,18.791,0,0,1,1.846.828l1.051.513c.364.182.72.414,1.1.629.778.422,1.531.977,2.351,1.531a29.569,29.569,0,0,1,8.452,9.536,27.008,27.008,0,0,1,1.242,2.483c.166.406.356.786.5,1.167l.381,1.109a17.739,17.739,0,0,1,.571,1.929c.075.281.149.546.207.828s.083.48.124.687c.066.389.116.7.157.944a1.25,1.25,0,0,1,.05.306Z" transform="translate(-61.169 -29.571)" fill="#0b3360"/>
    <g id="Grupo_84755" data-name="Grupo 84755" transform="translate(17.515 34.822)" opacity="0.2">
      <path id="Trazado_141657" data-name="Trazado 141657" d="M88.307,66.885a5.592,5.592,0,0,0-4.553-1.06,9.934,9.934,0,0,0-6.49,3.75c-4.743,5.969-6.523,11.44-5.621,19.363.306,2.682,1.656,6.747,3.825,8.56a5.091,5.091,0,0,0,3.882,1.217c3.667-.48,4.868-4.776,4.553-8.237-.3-3.228-1.349-6.556-.315-9.619.828-2.533,2.98-4.387,4.454-6.623S90.227,68.739,88.307,66.885Z" transform="translate(-71.417 -65.754)" fill="#fff"/>
    </g>
    <g id="Grupo_84756" data-name="Grupo 84756" transform="translate(38.115 28.913)" opacity="0.2">
      <path id="Trazado_141658" data-name="Trazado 141658" d="M103.651,59.472a4.99,4.99,0,0,0-6.118.406A5.141,5.141,0,0,0,96.4,64.215a4.694,4.694,0,0,0,3.841,3.576,4.437,4.437,0,0,0,4.545-2.533C105.522,63.545,105.158,60.589,103.651,59.472Z" transform="translate(-96.302 -58.616)" fill="#fff"/>
    </g>
    <g id="Grupo_84765" data-name="Grupo 84765" transform="translate(42.609 76.813)">
      <g id="_2gGvdE.tif" data-name="2gGvdE.tif" transform="translate(17.773 24.711)">
        <path id="Trazado_141659" data-name="Trazado 141659" d="M123.2,151.255a8.684,8.684,0,0,1,2.293.745,1.887,1.887,0,0,0,1.656.05l5.075-2.235a1.879,1.879,0,0,0,1.1-1.374,3.411,3.411,0,0,1,1.142-2.111Z" transform="translate(-123.2 -146.33)" fill="#0b3360"/>
      </g>
      <path id="Trazado_141660" data-name="Trazado 141660" d="M109.05,136.118c.05.1,4.71,7.517,6.5,10.356a4.065,4.065,0,0,0,3.394,1.97,3.742,3.742,0,0,0,1.581-.315l11.118-4.884s2.906-1.275,2.55-3.866c-.373-2.732-3.245-12.839-3.245-12.839Z" transform="translate(-102.99 -118.212)" fill="#e1e1e1"/>
      <g id="Grupo_84757" data-name="Grupo 84757" transform="translate(11.011 18.381)">
        <rect id="Rectngulo_36376" data-name="Rectngulo 36376" width="22.351" height="1.267" rx="0.633" transform="translate(0 9.055) rotate(-23.9)" fill="#e1e1e1"/>
        <path id="Trazado_141661" data-name="Trazado 141661" d="M135.445,140.113a.671.671,0,0,0,.273-.306.621.621,0,0,0-.058-.53.571.571,0,0,0-.613-.29c-1.06.447-2.608,1.167-4.512,2.012l-14.9,6.623a.5.5,0,0,0-.29.373.505.505,0,0,0,0,.248.828.828,0,0,0,.124.224.488.488,0,0,0,.439.166,2.93,2.93,0,0,0,.513-.2l2.094-.927,3.965-1.755L129.2,142.8l4.545-1.978,1.233-.522.323-.132h.116l-.108.058-.315.149-1.217.563-4.52,2.036-6.7,3-3.965,1.763-2.094.927-.265.124a1.333,1.333,0,0,1-.306.1.729.729,0,0,1-.621-.24,1.1,1.1,0,0,1-.157-.29.7.7,0,0,1,0-.348.745.745,0,0,1,.414-.53l14.9-6.623c1.921-.828,3.452-1.523,4.553-1.962a.646.646,0,0,1,.687.348.7.7,0,0,1,.041.571A.522.522,0,0,1,135.445,140.113Z" transform="translate(-115.048 -138.717)" fill="#0b3360"/>
      </g>
      <g id="Grupo_84758" data-name="Grupo 84758" transform="translate(9.501 15.698)">
        <rect id="Rectngulo_36377" data-name="Rectngulo 36377" width="23.245" height="1.267" rx="0.633" transform="translate(0 9.417) rotate(-23.9)" fill="#e1e1e1"/>
        <path id="Trazado_141662" data-name="Trazado 141662" d="M134.439,136.871a.6.6,0,0,0,.224-.894.563.563,0,0,0-.662-.248l-4.685,2.1-15.5,6.9a.488.488,0,0,0-.29.4.513.513,0,0,0,0,.248.546.546,0,0,0,.141.224.488.488,0,0,0,.464.132c.166-.05.364-.157.546-.232l2.177-.96L121,142.724l6.978-3.071,4.719-2.053,1.283-.546.339-.141.116-.041-.108.058-.331.157-1.267.588-4.694,2.111L121.07,142.9l-4.139,1.829-2.177.969c-.2.083-.348.166-.579.24a.7.7,0,0,1-.654-.182.712.712,0,0,1-.182-.3.629.629,0,0,1-.05-.348.712.712,0,0,1,.414-.563l15.522-6.846c2-.828,3.593-1.573,4.719-2.045a.637.637,0,0,1,.737.29.671.671,0,0,1,.066.588C134.646,136.846,134.431,136.871,134.439,136.871Z" transform="translate(-113.22 -135.474)" fill="#0b3360"/>
      </g>
      <g id="Grupo_84759" data-name="Grupo 84759" transform="translate(8.144 13.087)">
        <rect id="Rectngulo_36378" data-name="Rectngulo 36378" width="23.816" height="1.267" rx="0.633" transform="translate(0 9.649) rotate(-23.9)" fill="#e1e1e1"/>
        <path id="Trazado_141663" data-name="Trazado 141663" d="M133.328,133.734a.629.629,0,0,0,.306-.364.646.646,0,0,0-.1-.555.563.563,0,0,0-.687-.207l-4.793,2.161-15.869,7.061a.5.5,0,0,0-.3.406.538.538,0,0,0,0,.257.555.555,0,0,0,.149.224.505.505,0,0,0,.488.108l.555-.24,2.235-.993,4.214-1.863,7.152-3.146,4.826-2.1,1.316-.563.339-.141.124-.041-.108.066-.339.157-1.3.6-4.8,2.161-7.127,3.187-4.214,1.871-2.235.993-.579.257a.7.7,0,0,1-.637-.182.679.679,0,0,1-.2-.3.654.654,0,0,1-.058-.356.679.679,0,0,1,.414-.571L128,134.6l4.826-2.1a.621.621,0,0,1,.762.248.687.687,0,0,1,.091.6A.522.522,0,0,1,133.328,133.734Z" transform="translate(-111.587 -132.317)" fill="#0b3360"/>
      </g>
      <g id="Grupo_84760" data-name="Grupo 84760" transform="translate(6.627 10.397)">
        <rect id="Rectngulo_36379" data-name="Rectngulo 36379" width="24.735" height="1.267" rx="0.633" transform="translate(0 10.021) rotate(-23.9)" fill="#e1e1e1"/>
        <path id="Trazado_141664" data-name="Trazado 141664" d="M132.328,130.478a.621.621,0,0,0,.19-.952.579.579,0,0,0-.728-.157l-4.967,2.243-16.465,7.368a.488.488,0,0,0-.3.422.637.637,0,0,0,.215.488.522.522,0,0,0,.513.058l.588-.265,2.318-1.018,4.379-1.937,7.409-3.262,5.008-2.185,1.366-.579.356-.149.124-.041-.116.058-.348.166-1.349.621-4.967,2.243-7.392,3.311-4.371,1.945-2.318,1.026-.588.265a.728.728,0,0,1-.72-.083.828.828,0,0,1-.224-.3.778.778,0,0,1-.074-.364.712.712,0,0,1,.422-.6l16.482-7.276,4.967-2.177a.654.654,0,0,1,.828.182.745.745,0,0,1,.116.621.67.67,0,0,1-.232.315A.356.356,0,0,1,132.328,130.478Z" transform="translate(-109.758 -129.079)" fill="#0b3360"/>
      </g>
      <path id="Trazado_141665" data-name="Trazado 141665" d="M102,128.782c.091.2,2.682,4.859,4.015,7.252a3.311,3.311,0,0,0,2.343,1.656l1.457.232,21.523-9.429.828-1.217a3.311,3.311,0,0,0,.364-2.873l-2.674-7.823Z" transform="translate(-101.776 -116.497)" fill="#36dac9"/>
      <g id="Grupo_84761" data-name="Grupo 84761" transform="translate(12.773 20.034)" opacity="0.3">
        <path id="Trazado_141666" data-name="Trazado 141666" d="M117.16,148.627a30.372,30.372,0,0,0,6.623-2.318c1.829-.828,3.651-1.548,5.629-2.483,1.44-.671,2.757-1.333,4.139-2.036a4.379,4.379,0,0,0,1.531-1.109Z" transform="translate(-117.16 -140.68)"/>
      </g>
      <g id="Grupo_84762" data-name="Grupo 84762" transform="translate(10.911 17.269)" opacity="0.3">
        <path id="Trazado_141667" data-name="Trazado 141667" d="M114.91,145.875a35.133,35.133,0,0,0,7.119-2.533c1.97-.877,3.932-1.656,6.068-2.657,1.556-.72,2.972-1.432,4.512-2.185a5.041,5.041,0,0,0,1.656-1.159Z" transform="translate(-114.91 -137.34)"/>
      </g>
      <g id="Grupo_84763" data-name="Grupo 84763" transform="translate(9.818 14.785)" opacity="0.3">
        <path id="Trazado_141668" data-name="Trazado 141668" d="M113.59,142.883a35.639,35.639,0,0,0,7.119-2.533c1.978-.877,3.94-1.656,6.068-2.666,1.556-.72,2.972-1.432,4.512-2.177a4.967,4.967,0,0,0,1.656-1.167Z" transform="translate(-113.59 -134.34)"/>
      </g>
      <g id="Grupo_84764" data-name="Grupo 84764" transform="translate(8.725 12.302)" opacity="0.3">
        <path id="Trazado_141669" data-name="Trazado 141669" d="M112.27,139.883a35.521,35.521,0,0,0,7.127-2.533c1.97-.877,3.932-1.656,6.06-2.666,1.565-.72,2.98-1.424,4.52-2.177a5.157,5.157,0,0,0,1.656-1.167Z" transform="translate(-112.27 -131.34)"/>
      </g>
      <path id="Trazado_141670" data-name="Trazado 141670" d="M102,128.782c.091.2,2.682,4.859,4.015,7.252a3.311,3.311,0,0,0,2.343,1.656l1.457.232,21.523-9.429.828-1.217a3.311,3.311,0,0,0,.364-2.873l-2.674-7.823Z" transform="translate(-101.776 -116.497)" opacity="0.3"/>
      <path id="Trazado_141671" data-name="Trazado 141671" d="M133.419,127.55c0,.05-5.712,2.616-12.8,5.728s-12.856,5.6-12.881,5.546,5.7-2.616,12.8-5.737S133.394,127.5,133.419,127.55Z" transform="translate(-102.765 -118.385)" fill="#0b3360"/>
      <path id="Trazado_141672" data-name="Trazado 141672" d="M129.569,116.48c0,.058-6.184,2.873-13.874,6.283s-13.94,6.126-13.965,6.068,6.175-2.864,13.866-6.275S129.536,116.43,129.569,116.48Z" transform="translate(-101.73 -116.479)" fill="#0b3360"/>
    </g>
  </g>
  <g id="Grupo_84769" data-name="Grupo 84769" transform="translate(217.318 85.332)">
    <g id="Grupo_84767" data-name="Grupo 84767" transform="translate(24.899)">
      <path id="Trazado_141673" data-name="Trazado 141673" d="M356.828,158.333l-9.859-1.151a31.68,31.68,0,1,1,6.424-9.387h0Z" transform="translate(-292.629 -103.102)" fill="#fff"/>
      <path id="Trazado_141674" data-name="Trazado 141674" d="M356.8,158.312s-.091-.24-.248-.7-.389-1.142-.687-2.02c-.6-1.788-1.474-4.4-2.616-7.806h.166a.1.1,0,0,1-.141,0,.116.116,0,0,1,0-.124,31.672,31.672,0,0,0,2.558-15.373,30.78,30.78,0,0,0-.786-4.81,36.273,36.273,0,0,0-1.656-4.967,31.419,31.419,0,0,0-60.033,8.245,32,32,0,0,0,1.391,14.47,30.993,30.993,0,0,0,7.161,11.589,31.565,31.565,0,0,0,21.656,9.553h1.349a10.075,10.075,0,0,0,1.324-.041l2.583-.232a42.86,42.86,0,0,0,4.76-1,31.531,31.531,0,0,0,13.295-7.972.083.083,0,0,1,.075,0l7.293.911,1.9.24.662.091-.621-.058-1.879-.2-7.368-.828H347a31.457,31.457,0,0,1-13.344,8.121,43.152,43.152,0,0,1-4.834,1.084l-2.608.24a9,9,0,0,1-1.341.05h-1.358a31.772,31.772,0,0,1-21.9-9.586,31.267,31.267,0,0,1-7.268-11.73,32.393,32.393,0,0,1-1.49-14.586,31.581,31.581,0,0,1,5.6-14.28,14.185,14.185,0,0,1,1.167-1.54l1.225-1.474,1.349-1.465a12.851,12.851,0,0,1,1.391-1.291l1.465-1.2a18.362,18.362,0,0,1,1.54-1.084c.522-.339,1.026-.72,1.565-1.026l1.656-.877a31.366,31.366,0,0,1,13.924-3.551,31.747,31.747,0,0,1,29.917,19.354,36.982,36.982,0,0,1,1.656,4.967,31.648,31.648,0,0,1-1.912,20.339l-.166-.1h0a.091.091,0,0,1,.132,0s0,0,0,.05c1.1,3.452,1.954,6.1,2.525,7.906.281.878.488,1.54.637,2.012Z" transform="translate(-292.597 -103.081)" fill="#0b3360"/>
    </g>
    <path id="Trazado_141675" data-name="Trazado 141675" d="M313.43,140.08l3.791-4.189,8.03,6.449,11.929-13.7,3.9,3.8-16.01,17.616Z" transform="translate(-271.286 -107.482)" fill="#0b3360"/>
    <g id="Grupo_84768" data-name="Grupo 84768" transform="translate(0 11.094)">
      <path id="Trazado_141676" data-name="Trazado 141676" d="M264.829,163.415l6.25-.828a.091.091,0,0,1,.066,0,27.07,27.07,0,0,0,11.4,6.838,39.059,39.059,0,0,0,4.139.9l2.21.19a7.383,7.383,0,0,0,1.134,0h1.159a27.2,27.2,0,0,0,9.6-2.086q1.233-.521,2.434-1.167l-.737-.29a31.457,31.457,0,0,1-10.389-6.962,30.736,30.736,0,0,1-7.127-11.49,31.854,31.854,0,0,1-1.457-14.3,31.026,31.026,0,0,1,5.5-13.949,14.31,14.31,0,0,1,1.142-1.5l1.2-1.449.513-.522h-.886a26.962,26.962,0,0,0-25.373,16.341,31.227,31.227,0,0,0-1.44,4.238,25.726,25.726,0,0,0-.671,4.139,27.152,27.152,0,0,0,2.194,13.187.083.083,0,0,1,0,.1c-.969,2.889-1.722,5.116-2.227,6.623-.257.753-.455,1.325-.588,1.73s-.215.6-.215.6l.563-.075Z" transform="translate(-262.544 -116.538)" fill="#f5f5f5"/>
      <path id="Trazado_141677" data-name="Trazado 141677" d="M264.8,163.36l-.555.091-1.656.24h-.074v-.075l2.972-8.982v-.05h0l-.058-.132-.108-.257c-.074-.174-.141-.356-.215-.53-.149-.356-.281-.728-.414-1.1-.265-.753-.5-1.556-.712-2.392a25.005,25.005,0,0,1,.588-14.81,22.861,22.861,0,0,1,1.267-3.228,27.161,27.161,0,0,1,26.051-15.613h.455l-.323.315-.513.522h0a31.9,31.9,0,0,0-7.492,14.9A30.944,30.944,0,0,0,303.265,167.1l.381.141-.364.174a31.813,31.813,0,0,1-4.263,1.854,27.466,27.466,0,0,1-4.288,1.06,28.617,28.617,0,0,1-8.088.116h0c-.911-.182-1.8-.339-2.674-.53a22.393,22.393,0,0,1-2.483-.728,27.417,27.417,0,0,1-4.321-1.954,26.9,26.9,0,0,1-6.018-4.578c0-.075-.174,0-.29,0l-.372.05-.7.083-1.275.149-2,.232-1.233.132h-.414l.414-.074,1.225-.174,2-.273,1.275-.166.7-.091.373-.05h.182a.438.438,0,0,1,.124,0l.083.041h0a27.144,27.144,0,0,0,15.447,7.616h0a35.148,35.148,0,0,0,3.891.207,26.15,26.15,0,0,0,4.139-.356,26.893,26.893,0,0,0,4.238-1.06,33.3,33.3,0,0,0,4.205-1.846v.315a31.267,31.267,0,0,1-19.536-35.174A32.285,32.285,0,0,1,291.2,117.11h0l.513-.513.132.339a26.846,26.846,0,0,0-25.728,15.356,23.784,23.784,0,0,0-1.258,3.187,26.106,26.106,0,0,0-.828,3.171,27.319,27.319,0,0,0-.472,6.093,26.493,26.493,0,0,0,.753,5.4c.207.828.439,1.656.7,2.376.132.373.257.745.4,1.093l.215.53.108.257.05.124s.05.2-.041.248v-.041c-1.391,4.081-2.434,7.144-3.079,8.949l-.058-.058,1.656-.2Z" transform="translate(-262.52 -116.483)" fill="#0b3360"/>
    </g>
  </g>
  <rect id="Rectngulo_36380" data-name="Rectngulo 36380" width="500" height="394.868" fill="none"/>
  <g id="Grupo_84771" data-name="Grupo 84771" transform="translate(415.033 66.465)">
    <rect id="Rectngulo_36381" data-name="Rectngulo 36381" width="16.838" height="60.679" rx="4.45" transform="translate(56.358 20.919)" fill="#1565b2"/>
    <g id="Grupo_84770" data-name="Grupo 84770">
      <rect id="Rectngulo_36382" data-name="Rectngulo 36382" width="16.838" height="27.55" rx="4.6" transform="translate(3.609 56.623)" fill="#1565b2"/>
      <rect id="Rectngulo_36383" data-name="Rectngulo 36383" width="16.838" height="42.525" rx="4.92" transform="translate(29.627 41.647)" fill="#1565b2"/>
      <path id="Trazado_141678" data-name="Trazado 141678" d="M568.33,81.34a3.91,3.91,0,0,1-.406.53l-1.25,1.482-4.752,5.439-16.515,18.618-.182.207-.232-.149-10.331-6.755.439-.058-.4.464-21.846,25.662-.141.166-.182-.124c-3.419-2.55-6.217-4.619-8.212-6.1l-2.219-1.656a6.485,6.485,0,0,1-.745-.621,4.529,4.529,0,0,1,.828.513l2.285,1.581,8.344,5.927h-.323l21.68-25.786.389-.464.19-.224.248.166,10.323,6.763-.422.058,16.714-18.469,4.892-5.323,1.333-1.407A1.834,1.834,0,0,1,568.33,81.34Z" transform="translate(-501.36 -80.471)" fill="#fff"/>
      <path id="Trazado_141679" data-name="Trazado 141679" d="M580.04,93.965a22.417,22.417,0,0,1-.232-3.874c-.058-2.392-.1-5.7-.1-9.387l.389.331-.339.058c-3.7.613-7.086,1.126-9.5,1.44a23.748,23.748,0,0,1-3.965.414,22.946,22.946,0,0,1,3.891-.877c2.417-.464,5.795-1.051,9.47-1.656l.339-.058.389-.066v.4c0,3.684,0,7-.1,9.387A22.828,22.828,0,0,1,580.04,93.965Z" transform="translate(-512.54 -80.29)" fill="#fff"/>
    </g>
  </g>
</svg>
