<svg id="img3" xmlns="http://www.w3.org/2000/svg" width="500" height="395.066" viewBox="0 0 500 395.066">
  <g id="Grupo_84772" data-name="Grupo 84772" transform="translate(204.801 240.894)">
    <rect id="Rectángulo_36384" data-name="Rectángulo 36384" width="40.273" height="10.654" transform="translate(40.273 10.654) rotate(180)" fill="#ececec"/>
    <path id="Trazado_141680" data-name="Trazado 141680" d="M267.974,315.154v-2.839c0-1.838.041-4.478.074-7.815l-.124.124,40.273.083-.207-.207h0v10.637l.2-.2-28.626.108-8.477.058H271l8.427.058,28.841.091h.2V304.417h0l-.207-.207-40.273.083h-.132v.124c0,3.361.058,6.035.074,7.889V314.9A.7.7,0,0,0,267.974,315.154Z" transform="translate(-250.921 -293.275)" fill="#e1e1e1"/>
  </g>
  <g id="Grupo_84773" data-name="Grupo 84773" transform="translate(20.952 22.922)">
    <rect id="Rectángulo_36385" data-name="Rectángulo 36385" width="40.273" height="10.654" transform="translate(40.273 10.654) rotate(180)" fill="#ececec"/>
    <path id="Trazado_141681" data-name="Trazado 141681" d="M45.852,51.861V49.022c0-1.838.041-4.487.075-7.815l-.124.124,40.273.075-.207-.2h0V51.844l.2-.2-28.642.116-8.477.05h-.091l8.427.058,28.841.091h.2V41.224h0l-.2-.224-40.273.083H45.72v.124c0,3.361.058,6.035.075,7.889v2.591a.7.7,0,0,0,.058.174Z" transform="translate(-28.824 -29.982)" fill="#e1e1e1"/>
  </g>
  <rect id="Rectángulo_36386" data-name="Rectángulo 36386" width="500" height="394.868" fill="none"/>
  <g id="Grupo_84774" data-name="Grupo 84774" transform="translate(426.084 30.464)">
    <rect id="Rectángulo_36387" data-name="Rectángulo 36387" width="40.273" height="10.654" transform="translate(40.273 10.654) rotate(180)" fill="#ececec"/>
    <path id="Trazado_141682" data-name="Trazado 141682" d="M535.247,60.964a.828.828,0,0,0,0-.19V58.125c0-1.838,0-4.478.066-7.815l-.124.124,40.273.083-.207-.207h0V60.964l.2-.2-28.7.091-8.427.058h-.1l8.427.05,28.841.091h.2V50.327h0l-.207-.207-40.273.083h-.124v.124c0,3.369.05,6.035.066,7.889v2.6C535.156,60.956,535.239,60.973,535.247,60.964Z" transform="translate(-518.219 -39.094)" fill="#e1e1e1"/>
  </g>
  <g id="Grupo_84775" data-name="Grupo 84775" transform="translate(75.596 183.816)">
    <path id="Trazado_141683" data-name="Trazado 141683" d="M98.222,245.9a1.708,1.708,0,0,0,0-.19v-2.641c0-1.846,0-4.487.075-7.823l-.124.124,40.273.083-.207-.207h0v10.646l.2-.2-28.7.091-8.411.066h-.091l8.427.058L138.5,246h.2V235.254h0c-.414-.406-.116-.108-.207-.2l-40.273.074H98.09v.124c0,3.369.058,6.035.074,7.9v2.591C98.214,245.85,98.214,245.908,98.222,245.9Z" transform="translate(-92.486 -224.286)" fill="#e1e1e1"/>
    <path id="Trazado_141684" data-name="Trazado 141684" d="M91.593,233.01a1.01,1.01,0,0,0,0-.2v-2.7c0-1.871.05-4.512.083-7.757l-.149.149,24.2.058-.207-.207h0V233l.19-.19L98.4,232.9l-5.041.05H91.51a2.714,2.714,0,0,0,.439,0h1.316l4.967.058,17.442.091h.2V222.257h0l-.207-.207-24.2.058H91.32v.149c0,3.311.058,5.952.083,7.839v2.1a5.348,5.348,0,0,0,.19.811Z" transform="translate(-91.32 -222.05)" fill="#e1e1e1"/>
  </g>
  <g id="Grupo_84776" data-name="Grupo 84776" transform="translate(70.464 271.912)">
    <path id="Trazado_141685" data-name="Trazado 141685" d="M149.061,328.47v19.818h3.311v2.144h-3.311v13.245H87.206V351.632h4.578v-2.624H87.206v-3.949H85.17v-1.788h2.417v-14.8Z" transform="translate(-85.129 -328.47)" fill="#f5f5f5"/>
    <path id="Trazado_141686" data-name="Trazado 141686" d="M103.622,328.528v34.95H87.2V351.417h4.578v-2.409l-4.578.074v-3.94H85.12l.041-2.036,2.417-.058V328.47Z" transform="translate(-85.12 -328.47)" fill="#e1e1e1"/>
    <path id="Trazado_141687" data-name="Trazado 141687" d="M106.06,354.615c0,.124,11.192.224,24.992.224s25-.1,25-.224-11.192-.215-25-.215S106.06,354.5,106.06,354.615Z" transform="translate(-88.726 -332.935)" fill="#e1e1e1"/>
    <path id="Trazado_141688" data-name="Trazado 141688" d="M106.06,352.185c0,.124,11.192.223,24.992.223s25-.1,25-.223-11.192-.215-25-.215S106.06,352.069,106.06,352.185Z" transform="translate(-88.726 -332.516)" fill="#e1e1e1"/>
    <path id="Trazado_141689" data-name="Trazado 141689" d="M102.18,345.644c0,.116,11.192.215,24.992.215s25-.1,25-.215-11.192-.224-25-.224S102.18,345.519,102.18,345.644Z" transform="translate(-88.057 -331.389)" fill="#e1e1e1"/>
    <path id="Trazado_141690" data-name="Trazado 141690" d="M101.8,363.475c0,.124,11.192.223,25,.223s25-.1,25-.223-11.192-.215-25-.215S101.8,363.359,101.8,363.475Z" transform="translate(-87.992 -334.46)" fill="#e1e1e1"/>
  </g>
  <g id="Grupo_84777" data-name="Grupo 84777" transform="translate(65.795 306.167)">
    <path id="Trazado_141691" data-name="Trazado 141691" d="M143.421,369.85v19.818h3.311v2.152h-3.311v13.245H81.575V393.012h4.586v-2.624H81.575v-3.949H79.53v-1.788h2.417v-14.8Z" transform="translate(-79.489 -369.85)" fill="#f5f5f5"/>
    <path id="Trazado_141692" data-name="Trazado 141692" d="M97.982,369.908v34.95H81.558v-12.07h4.586v-2.4l-4.586.075v-3.94H79.48l.041-2.036,2.417-.058V369.85Z" transform="translate(-79.48 -369.85)" fill="#e1e1e1"/>
    <path id="Trazado_141693" data-name="Trazado 141693" d="M100.42,395.955c0,.124,11.192.224,24.992.224s25-.1,25-.224-11.192-.215-25-.215S100.42,395.872,100.42,395.955Z" transform="translate(-83.086 -374.308)" fill="#e1e1e1"/>
    <path id="Trazado_141694" data-name="Trazado 141694" d="M100.42,393.565c0,.124,11.192.223,24.992.223s25-.1,25-.223-11.192-.215-25-.215S100.42,393.449,100.42,393.565Z" transform="translate(-83.086 -373.896)" fill="#e1e1e1"/>
    <path id="Trazado_141695" data-name="Trazado 141695" d="M96.54,387.023c0,.116,11.192.215,25,.215s24.992-.1,24.992-.215-11.184-.223-24.992-.223S96.54,386.9,96.54,387.023Z" transform="translate(-82.417 -372.769)" fill="#e1e1e1"/>
    <path id="Trazado_141696" data-name="Trazado 141696" d="M96.17,404.855c0,.124,11.192.224,24.992.224s25-.1,25-.224-11.192-.215-25-.215S96.17,404.739,96.17,404.855Z" transform="translate(-82.354 -375.84)" fill="#e1e1e1"/>
  </g>
  <g id="Grupo_84778" data-name="Grupo 84778" transform="translate(71.217 339.959)">
    <path id="Trazado_141697" data-name="Trazado 141697" d="M149.971,410.67v19.818h3.311v2.152h-3.311v13.245H88.116V433.832h4.578v-2.624H88.116v-3.949H86.08v-1.788H88.5v-14.8Z" transform="translate(-86.039 -410.67)" fill="#f5f5f5"/>
    <path id="Trazado_141698" data-name="Trazado 141698" d="M104.532,410.728v34.959H88.108v-12.07h4.578v-2.409l-4.578.083v-3.949l-2.078.008.041-2.045,2.417-.058V410.67Z" transform="translate(-86.03 -410.67)" fill="#e1e1e1"/>
    <path id="Trazado_141699" data-name="Trazado 141699" d="M107,436.823c0,.116,11.192.215,24.992.215s25-.1,25-.215-11.192-.223-25-.223S107,436.7,107,436.823Z" transform="translate(-89.641 -415.135)" fill="#e1e1e1"/>
    <path id="Trazado_141700" data-name="Trazado 141700" d="M107,434.385c0,.124,11.192.224,24.992.224s25-.1,25-.224-11.192-.215-25-.215S107,434.269,107,434.385Z" transform="translate(-89.641 -414.716)" fill="#e1e1e1"/>
    <path id="Trazado_141701" data-name="Trazado 141701" d="M103.09,427.844c0,.124,11.192.215,24.992.215s25-.091,25-.215-11.184-.224-25-.224S103.09,427.719,103.09,427.844Z" transform="translate(-88.967 -413.589)" fill="#e1e1e1"/>
    <path id="Trazado_141702" data-name="Trazado 141702" d="M102.72,445.675c0,.124,11.192.224,24.992.224s25-.1,25-.224-11.192-.215-25-.215S102.72,445.559,102.72,445.675Z" transform="translate(-88.904 -416.66)" fill="#e1e1e1"/>
  </g>
  <g id="Grupo_84779" data-name="Grupo 84779" transform="translate(59.959 241.515)">
    <path id="Trazado_141703" data-name="Trazado 141703" d="M136.361,291.75v19.818h3.311v2.152h-3.311v13.245H74.506V314.912h4.586V312.28H74.506v-3.94H72.47v-1.788H74.9v-14.8Z" transform="translate(-72.437 -291.75)" fill="#f5f5f5"/>
    <path id="Trazado_141704" data-name="Trazado 141704" d="M90.932,291.808v34.95H74.5v-12.07h4.586V312.28l-4.586.083v-3.94H72.43l.033-2.036,2.417-.058V291.75Z" transform="translate(-72.43 -291.75)" fill="#e1e1e1"/>
    <path id="Trazado_141705" data-name="Trazado 141705" d="M93.36,317.9c0,.124,11.192.224,25,.224s25-.1,25-.224-11.192-.215-25-.215S93.36,317.779,93.36,317.9Z" transform="translate(-76.034 -296.215)" fill="#e1e1e1"/>
    <path id="Trazado_141706" data-name="Trazado 141706" d="M93.36,315.465c0,.124,11.192.224,25,.224s25-.1,25-.224-11.192-.215-25-.215S93.36,315.341,93.36,315.465Z" transform="translate(-76.034 -295.796)" fill="#e1e1e1"/>
    <path id="Trazado_141707" data-name="Trazado 141707" d="M89.48,308.954c0,.116,11.192.215,25,.215s25-.1,25-.215-11.192-.224-25-.224S89.48,308.8,89.48,308.954Z" transform="translate(-75.366 -294.674)" fill="#e1e1e1"/>
    <path id="Trazado_141708" data-name="Trazado 141708" d="M89.11,326.755c0,.124,11.192.224,25,.224s24.992-.1,24.992-.224-11.184-.215-24.992-.215S89.11,326.631,89.11,326.755Z" transform="translate(-75.302 -297.74)" fill="#e1e1e1"/>
  </g>
  <g id="Grupo_84780" data-name="Grupo 84780" transform="translate(265.373 306.382)">
    <path id="Trazado_141709" data-name="Trazado 141709" d="M384.511,370.11v19.818h3.311v2.152h-3.311v13.245H322.656V393.272h4.586V390.64h-4.586V386.7H320.62v-1.78h2.417V370.11Z" transform="translate(-320.579 -370.11)" fill="#f5f5f5"/>
    <path id="Trazado_141710" data-name="Trazado 141710" d="M339.072,370.168v34.95H322.648v-12.07h4.586V390.64l-4.586.083v-3.94H320.57l.041-2.036,2.417-.058V370.11Z" transform="translate(-320.57 -370.11)" fill="#e1e1e1"/>
    <path id="Trazado_141711" data-name="Trazado 141711" d="M341.51,396.255c0,.124,11.192.224,24.992.224s25-.1,25-.224-11.184-.215-25-.215S341.51,396.139,341.51,396.255Z" transform="translate(-324.176 -374.575)" fill="#e1e1e1"/>
    <path id="Trazado_141712" data-name="Trazado 141712" d="M341.51,393.825c0,.124,11.192.223,24.992.223s25-.1,25-.223-11.184-.215-25-.215S341.51,393.7,341.51,393.825Z" transform="translate(-324.176 -374.156)" fill="#e1e1e1"/>
    <path id="Trazado_141713" data-name="Trazado 141713" d="M337.63,387.284c0,.116,11.192.215,25,.215s24.992-.1,24.992-.215-11.184-.224-24.992-.224S337.63,387.159,337.63,387.284Z" transform="translate(-323.507 -373.029)" fill="#e1e1e1"/>
    <path id="Trazado_141714" data-name="Trazado 141714" d="M337.26,405.115c0,.124,11.192.224,24.992.224s25-.1,25-.224-11.192-.215-25-.215S337.26,404.983,337.26,405.115Z" transform="translate(-323.444 -376.1)" fill="#e1e1e1"/>
  </g>
  <g id="Grupo_84781" data-name="Grupo 84781" transform="translate(260.712 340.637)">
    <path id="Trazado_141715" data-name="Trazado 141715" d="M378.874,411.49v19.818h3.311v2.128h-3.311V446.68H317.02V434.652h4.6V432.02h-4.586v-3.94H315v-1.8h2.425V411.49Z" transform="translate(-314.95 -411.49)" fill="#f5f5f5"/>
    <path id="Trazado_141716" data-name="Trazado 141716" d="M333.442,411.548V446.5H317.01v-12.07H321.6V432.02l-4.586.083v-3.94h-2.07l.033-2.036,2.425-.058V411.49Z" transform="translate(-314.94 -411.49)" fill="#e1e1e1"/>
    <path id="Trazado_141717" data-name="Trazado 141717" d="M335.87,437.635c0,.124,11.192.224,25,.224s25-.1,25-.224-11.192-.215-25-.215S335.87,437.519,335.87,437.635Z" transform="translate(-318.544 -415.955)" fill="#e1e1e1"/>
    <path id="Trazado_141718" data-name="Trazado 141718" d="M335.87,435.205c0,.124,11.192.223,25,.223s25-.1,25-.223-11.192-.215-25-.215S335.87,435.081,335.87,435.205Z" transform="translate(-318.544 -415.536)" fill="#e1e1e1"/>
    <path id="Trazado_141719" data-name="Trazado 141719" d="M332,428.664c0,.116,11.192.215,25,.215s25-.1,25-.215-11.192-.224-25-.224S332,428.539,332,428.664Z" transform="translate(-317.877 -414.409)" fill="#e1e1e1"/>
    <path id="Trazado_141720" data-name="Trazado 141720" d="M331.62,446.5c0,.124,11.192.224,25,.224s24.992-.1,24.992-.224-11.184-.215-24.992-.215S331.62,446.371,331.62,446.5Z" transform="translate(-317.812 -417.48)" fill="#e1e1e1"/>
  </g>
  <g id="Grupo_84782" data-name="Grupo 84782" transform="translate(254.868 275.977)">
    <path id="Trazado_141721" data-name="Trazado 141721" d="M371.821,333.39v19.818h3.311v2.144h-3.311V368.6H309.966V356.552h4.578V353.92h-4.578v-3.94H307.93v-1.8h2.417V333.39Z" transform="translate(-307.889 -333.382)" fill="#f5f5f5"/>
    <path id="Trazado_141722" data-name="Trazado 141722" d="M326.382,333.438V368.4H309.958v-12.07h4.578v-2.409l-4.578.083v-3.94H307.88l.041-2.036,2.417-.058V333.38Z" transform="translate(-307.88 -333.38)" fill="#e1e1e1"/>
    <path id="Trazado_141723" data-name="Trazado 141723" d="M328.82,359.535c0,.124,11.192.224,24.992.224s25-.1,25-.224-11.192-.215-25-.215S328.82,359.411,328.82,359.535Z" transform="translate(-311.486 -337.846)" fill="#e1e1e1"/>
    <path id="Trazado_141724" data-name="Trazado 141724" d="M328.82,357.1c0,.124,11.192.215,24.992.215s25-.091,25-.215-11.192-.223-25-.223S328.82,356.979,328.82,357.1Z" transform="translate(-311.486 -337.426)" fill="#e1e1e1"/>
    <path id="Trazado_141725" data-name="Trazado 141725" d="M324.94,350.555c0,.124,11.192.223,24.992.223s25-.1,25-.223-11.192-.215-25-.215S324.94,350.439,324.94,350.555Z" transform="translate(-310.817 -336.3)" fill="#e1e1e1"/>
    <path id="Trazado_141726" data-name="Trazado 141726" d="M324.56,368.394c0,.124,11.2.215,25,.215s25-.091,25-.215-11.192-.223-25-.223S324.56,368.269,324.56,368.394Z" transform="translate(-310.752 -339.37)" fill="#e1e1e1"/>
  </g>
  <g id="Grupo_84783" data-name="Grupo 84783" transform="translate(165.695 340.695)">
    <path id="Trazado_141727" data-name="Trazado 141727" d="M262.129,411.56v19.205h3.2v2.086h-3.2v12.856H202.187v-11.7h4.478v-2.55H202.22v-3.808h-1.97v-1.73h2.276V411.56Z" transform="translate(-200.176 -411.56)" fill="#f5f5f5"/>
    <path id="Trazado_141728" data-name="Trazado 141728" d="M218.09,411.618v33.874H202.172V433.8h4.445v-2.334l-4.445.083v-3.825H200.16l.041-1.97,2.343-.058V411.56Z" transform="translate(-200.16 -411.56)" fill="#e1e1e1"/>
    <path id="Trazado_141729" data-name="Trazado 141729" d="M220.45,436.955c0,.116,10.853.207,24.23.207s24.238-.132,24.238-.207-10.853-.215-24.23-.215S220.45,436.8,220.45,436.955Z" transform="translate(-203.654 -415.896)" fill="#e1e1e1"/>
    <path id="Trazado_141730" data-name="Trazado 141730" d="M220.45,434.545c0,.116,10.853.215,24.23.215s24.23-.1,24.23-.215-10.853-.215-24.23-.215S220.45,434.429,220.45,434.545Z" transform="translate(-203.654 -415.481)" fill="#e1e1e1"/>
    <path id="Trazado_141731" data-name="Trazado 141731" d="M216.69,428.207c0,.116,10.853.207,24.23.207s24.23-.091,24.23-.207-10.844-.207-24.2-.207S216.69,428.091,216.69,428.207Z" transform="translate(-203.006 -414.391)" fill="#e1e1e1"/>
    <path id="Trazado_141732" data-name="Trazado 141732" d="M216.33,445.487c0,.116,10.853.215,24.23.215s24.222-.1,24.222-.215-10.844-.207-24.222-.207S216.33,445.371,216.33,445.487Z" transform="translate(-202.944 -417.366)" fill="#e1e1e1"/>
  </g>
  <g id="Grupo_84784" data-name="Grupo 84784" transform="translate(360.919 340.695)">
    <path id="Trazado_141733" data-name="Trazado 141733" d="M497.945,411.56v19.205h3.212v2.086h-3.212v12.856H438v-11.7h4.437v-2.55H438v-3.808h-2v-1.73h2.343V411.56Z" transform="translate(-435.992 -411.56)" fill="#f5f5f5"/>
    <path id="Trazado_141734" data-name="Trazado 141734" d="M453.92,411.618v33.874H438V433.8h4.437v-2.334l-4.437.083v-3.825H435.99l.033-1.97,2.351-.058V411.56Z" transform="translate(-435.99 -411.56)" fill="#e1e1e1"/>
    <path id="Trazado_141735" data-name="Trazado 141735" d="M456.28,436.955c0,.116,10.844.207,24.222.207s24.23-.091,24.23-.207-10.844-.215-24.23-.215S456.28,436.8,456.28,436.955Z" transform="translate(-439.484 -415.896)" fill="#e1e1e1"/>
    <path id="Trazado_141736" data-name="Trazado 141736" d="M456.28,434.545c0,.116,10.844.215,24.222.215s24.23-.1,24.23-.215-10.844-.215-24.23-.215S456.28,434.429,456.28,434.545Z" transform="translate(-439.484 -415.481)" fill="#e1e1e1"/>
    <path id="Trazado_141737" data-name="Trazado 141737" d="M452.52,428.207c0,.116,10.844.207,24.222.207s24.23-.091,24.23-.207-10.8-.207-24.23-.207S452.52,428.091,452.52,428.207Z" transform="translate(-438.836 -414.391)" fill="#e1e1e1"/>
    <path id="Trazado_141738" data-name="Trazado 141738" d="M452.16,445.487c0,.116,10.844.215,24.222.215s24.23-.1,24.23-.215-10.844-.207-24.23-.207S452.16,445.371,452.16,445.487Z" transform="translate(-438.774 -417.366)" fill="#e1e1e1"/>
  </g>
  <path id="Trazado_141739" data-name="Trazado 141739" d="M79.28,453.075c0,.124,82.517.215,184.288.215s184.3-.091,184.3-.215-82.5-.215-184.3-.215S79.28,452.976,79.28,453.075Z" transform="translate(-13.651 -77.976)" fill="#0b3360"/>
  <g id="Grupo_84786" data-name="Grupo 84786" transform="translate(104.578 211.904)">
    <path id="Trazado_141740" data-name="Trazado 141740" d="M143.39,260.59c8.278,4.3,14.677,11.705,19.255,19.868s7.533,17.1,10.455,25.993l2.558,45.82c-9.661-16.44-17.384-35.77-19.52-54.719l6.432-.579c-4.313-.654-7.93-3.775-10.232-7.45s-3.485-7.972-4.644-12.177l7.848,1.159A29.106,29.106,0,0,1,143.39,260.59Z" transform="translate(-129.267 -256.774)" fill="#35afea"/>
    <g id="Grupo_84785" data-name="Grupo 84785" transform="translate(14.123 3.816)" opacity="0.3">
      <path id="Trazado_141741" data-name="Trazado 141741" d="M143.39,260.59c8.278,4.3,14.677,11.705,19.255,19.868s7.533,17.1,10.455,25.993l2.558,45.82c-9.661-16.44-17.384-35.77-19.52-54.719l6.432-.579c-4.313-.654-7.93-3.775-10.232-7.45s-3.485-7.972-4.644-12.177l7.848,1.159A29.106,29.106,0,0,1,143.39,260.59Z" transform="translate(-143.39 -260.59)" fill="#276871"/>
    </g>
    <path id="Trazado_141742" data-name="Trazado 141742" d="M183.245,362.205s20.969-25.108,20.7-49.073H195.5s9.2-6.051,8.469-9.445-.944-16.233-.944-16.233l-7.748,1.937s5.795-2.906,6.54-7.508-1.656-25.9-1.656-25.9-9.437,9.934-12.343,20.1-10.53,22.028-8.278,52.98S183.245,362.205,183.245,362.205Z" transform="translate(-135.422 -255.98)" fill="#32c4b4"/>
    <path id="Trazado_141743" data-name="Trazado 141743" d="M163.515,370.262s-22.723-15.141-27.773-34.462l6.813-1.854s-8.725-2.848-8.874-5.737-2.773-13.245-2.773-13.245l6.623-.141s-5.306-1.068-6.9-4.6-4.3-21.2-4.3-21.2,9.76,5.919,14.321,13.452,13.245,15.414,18.262,40.811S163.515,370.262,163.515,370.262Z" transform="translate(-126.33 -261.669)" fill="#276871"/>
    <path id="Trazado_141744" data-name="Trazado 141744" d="M195.042,282.45a.926.926,0,0,0-.075.257c-.05.2-.108.455-.182.77q-.248,1.068-.671,2.98c-.3,1.291-.637,2.881-1,4.727s-.828,3.949-1.233,6.275c-.9,4.652-1.854,10.224-2.831,16.416s-1.9,13.022-2.732,20.207-1.457,14.073-1.945,20.3-.828,11.887-.993,16.623c-.116,2.368-.174,4.512-.232,6.4s-.091,3.5-.108,4.826,0,2.326,0,3.055v.828a1.654,1.654,0,0,0,0,.265,1.357,1.357,0,0,0,0-.265v-.828c0-.728.066-1.747.116-3.055s.091-2.939.174-4.818.157-4.023.29-6.391c.232-4.735.6-10.364,1.084-16.606s1.167-13.1,1.987-20.281,1.772-14.007,2.7-20.2,1.871-11.755,2.732-16.416c.406-2.334.828-4.437,1.175-6.283s.654-3.444.927-4.743.447-2.276.588-2.988c.058-.331.108-.588.141-.828A.92.92,0,0,0,195.042,282.45Z" transform="translate(-136.093 -260.538)" fill="#0b3360"/>
    <path id="Trazado_141745" data-name="Trazado 141745" d="M187.61,390.686s19.2-21.78,25.157-34.95l-4.5-1.921a11.434,11.434,0,0,0,9.106-2.988,37.639,37.639,0,0,0,6.209-7.69l-5.927-1A22,22,0,0,0,230.6,332.11c-6.987,1.142-13.32,4.967-18.535,9.793a92.152,92.152,0,0,0-11.233,13.013,43.876,43.876,0,0,0-4.354,7.169C193.272,368.757,187.6,382.689,187.61,390.686Z" transform="translate(-136.882 -269.088)" fill="#6de0d4"/>
    <path id="Trazado_141746" data-name="Trazado 141746" d="M137.34,304.34a1.35,1.35,0,0,0,.083.224c.083.157.174.372.3.629l1.159,2.417c1.035,2.094,2.483,5.132,4.247,8.907,3.535,7.55,8.179,18.088,12.773,29.942s8.228,22.781,10.7,30.745c1.233,3.974,2.2,7.21,2.848,9.445.323,1.093.579,1.954.77,2.574l.207.662a1.125,1.125,0,0,0,.083.223.97.97,0,0,0-.041-.232,4.128,4.128,0,0,0-.166-.679c-.166-.621-.4-1.49-.687-2.591-.6-2.26-1.523-5.5-2.723-9.5-2.392-7.988-6-18.932-10.588-30.811s-9.3-22.376-12.889-29.909c-1.8-3.767-3.311-6.788-4.371-8.858l-1.242-2.384-.331-.613C137.39,304.406,137.348,304.332,137.34,304.34Z" transform="translate(-128.226 -264.307)" fill="#0b3360"/>
    <path id="Trazado_141747" data-name="Trazado 141747" d="M185.639,406.39a1.342,1.342,0,0,0,.1-.4c.05-.315.116-.7.19-1.159.149-1,.4-2.483.753-4.23s.828-3.891,1.474-6.2,1.44-4.826,2.417-7.45,2.045-5.008,3.088-7.169,2.078-4.056,3-5.621,1.656-2.823,2.227-3.676l.621-.993c.141-.232.207-.356.19-.364a1.656,1.656,0,0,0-.257.315c-.19.257-.414.571-.7.944-.6.828-1.407,2.061-2.351,3.618s-2.012,3.452-3.088,5.6-2.144,4.586-3.137,7.185-1.763,5.141-2.4,7.45-1.076,4.454-1.382,6.25-.522,3.253-.621,4.263c0,.472-.083.828-.108,1.176A1.877,1.877,0,0,0,185.639,406.39Z" transform="translate(-136.541 -275.463)" fill="#0b3360"/>
    <rect id="Rectángulo_36388" data-name="Rectángulo 36388" width="42.012" height="8.568" transform="translate(23.775 125.803)" fill="#36dac9"/>
    <path id="Trazado_141748" data-name="Trazado 141748" d="M193.854,418.3l-4.545,28.825H163.928L159.69,418.3Z" transform="translate(-132.074 -283.929)" fill="#36dac9"/>
    <path id="Trazado_141749" data-name="Trazado 141749" d="M158.16,418.255c0,.124,7.947.215,17.748.215s17.748-.091,17.748-.215-7.939-.215-17.748-.215S158.16,418.139,158.16,418.255Z" transform="translate(-131.811 -283.884)" fill="#0b3360"/>
  </g>
  <g id="Grupo_84788" data-name="Grupo 84788" transform="translate(52.012 6.258)">
    <path id="Trazado_141750" data-name="Trazado 141750" d="M434.974,194.812H337.805c0-48.9-40.033-89.859-88.932-89.859s-88.808,40.96-88.808,89.859H62.83C62.83,92.212,146.3,7.56,248.9,7.56S434.974,92.212,434.974,194.812Z" transform="translate(-62.83 -7.56)" fill="#e1e1e1"/>
    <g id="Grupo_84787" data-name="Grupo 84787" transform="translate(10.977 12.111)">
      <path id="Trazado_141751" data-name="Trazado 141751" d="M276.249,22.19a174.4,174.4,0,0,0-54.909,8.825L245.2,105.187a97.359,97.359,0,0,1,64.677.911l24.834-73.866a174.23,174.23,0,0,0-58.46-10.041Z" transform="translate(-101.1 -22.19)" fill="#ffbc59"/>
      <path id="Trazado_141752" data-name="Trazado 141752" d="M480.107,213.564a174.073,174.073,0,0,0-29.454-97.094L388.12,163.217a96.664,96.664,0,0,1,14.073,50.348Z" transform="translate(-129.817 -38.424)" fill="#ffa726"/>
      <path id="Trazado_141753" data-name="Trazado 141753" d="M76.09,213.311H154a96.656,96.656,0,0,1,14.271-50.662L106.338,115A174.172,174.172,0,0,0,76.09,213.311Z" transform="translate(-76.09 -38.17)" fill="#ffd392"/>
      <path id="Trazado_141754" data-name="Trazado 141754" d="M112.63,100.85l61.937,47.624a97.682,97.682,0,0,1,51.912-41.482L202.622,32.82a175.977,175.977,0,0,0-89.992,68.03Z" transform="translate(-82.382 -24.02)" fill="#ffc97b"/>
      <path id="Trazado_141755" data-name="Trazado 141755" d="M353.1,34.32,328.27,108.186A97.814,97.814,0,0,1,377.8,149.072l62.533-46.747a175.952,175.952,0,0,0-87.227-68Z" transform="translate(-119.512 -24.279)" fill="#ffb03d"/>
    </g>
    <path id="Trazado_141756" data-name="Trazado 141756" d="M396.864,100.187s1.333,1.962,3.783,5.795a175.5,175.5,0,0,1,9.561,17.823c.919,2.012,1.921,4.139,2.823,6.4l1.449,3.485,1.382,3.717c.985,2.483,1.788,5.224,2.732,8l1.267,4.321c.215.737.43,1.474.646,2.227s.381,1.515.571,2.285a165.5,165.5,0,0,1,3.866,20.058,179.633,179.633,0,0,1,1.556,23.013v.166h-.182l-77.914.05h-.223V197.3a96.614,96.614,0,0,0-21.523-60.762,98.427,98.427,0,0,0-27.094-23.228,101.066,101.066,0,0,0-16.9-7.715,97.046,97.046,0,0,0-128.46,91.689v.3H75.73v-.3A175.955,175.955,0,0,1,140.854,61.072,185.431,185.431,0,0,1,157.41,49.119a175.729,175.729,0,0,1,35.224-17.128,170.845,170.845,0,0,1,35.811-8.609A174.445,174.445,0,0,1,343.42,48.316a166.56,166.56,0,0,1,17.964,12.831,175.116,175.116,0,0,1,13.758,12.417c3.9,3.965,7.2,7.624,9.934,10.894,1.349,1.656,2.6,3.179,3.733,4.578l2.947,3.9c.894,1.151,1.656,2.2,2.252,3.113l1.573,2.293c.828,1.225,1.267,1.863,1.267,1.863l-1.308-1.838L393.934,96.1c-.629-.9-1.366-1.954-2.268-3.1a176.328,176.328,0,0,0-16.7-19.288,178.733,178.733,0,0,0-13.75-12.368,168.128,168.128,0,0,0-17.964-12.765,174.23,174.23,0,0,0-114.76-24.735,170.571,170.571,0,0,0-35.7,8.609,175.068,175.068,0,0,0-35.116,17.111,183.031,183.031,0,0,0-16.556,11.921,172.111,172.111,0,0,0-15.4,14.073A174.031,174.031,0,0,0,76.285,197.248l-.29-.29h77.914l-.3.29a97.514,97.514,0,0,1,129.205-92.219,101.823,101.823,0,0,1,17.012,7.773,99.147,99.147,0,0,1,27.252,23.419A97.119,97.119,0,0,1,348.6,197.306l-.232-.224,77.914.05-.174.174a179.3,179.3,0,0,0-1.482-23.007,164.843,164.843,0,0,0-3.824-20.015c-.19-.77-.381-1.531-.563-2.293l-.637-2.219c-.422-1.465-.828-2.906-1.25-4.321-.935-2.781-1.738-5.488-2.715-8-.472-1.258-.927-2.483-1.374-3.709l-1.391-3.477c-.9-2.285-1.9-4.4-2.8-6.4a184.37,184.37,0,0,0-9.479-17.79c-1.192-1.954-2.152-3.4-2.765-4.4S396.864,100.187,396.864,100.187Z" transform="translate(-65.051 -10.029)" fill="#0b3360"/>
  </g>
  <g id="Grupo_84808" data-name="Grupo 84808" transform="translate(233.293 125.433)">
    <g id="Grupo_84794" data-name="Grupo 84794">
      <g id="Grupo_84789" data-name="Grupo 84789">
        <circle id="Elipse_6772" data-name="Elipse 6772" cx="12.798" cy="12.798" r="12.798" transform="translate(0 26.348) rotate(-13.37)" fill="#0b3360"/>
        <path id="Trazado_141757" data-name="Trazado 141757" d="M399.847,153.615h0a3.2,3.2,0,0,1-1.979,4.139l-98.56,36.838-5.439-12.93,102-29.992a3.22,3.22,0,0,1,3.974,1.945Z" transform="translate(-283.893 -151.523)" fill="#0b3360"/>
      </g>
      <g id="Grupo_84790" data-name="Grupo 84790">
        <circle id="Elipse_6773" data-name="Elipse 6773" cx="12.798" cy="12.798" r="12.798" transform="translate(0 26.348) rotate(-13.37)" fill="#0b3360"/>
        <path id="Trazado_141758" data-name="Trazado 141758" d="M399.847,153.615h0a3.2,3.2,0,0,1-1.979,4.139l-98.56,36.838-5.439-12.93,102-29.992a3.22,3.22,0,0,1,3.974,1.945Z" transform="translate(-283.893 -151.523)" fill="#0b3360"/>
      </g>
      <g id="Grupo_84791" data-name="Grupo 84791" transform="translate(32.874 20.269)">
        <path id="Trazado_141759" data-name="Trazado 141759" d="M326.323,189.122a14.759,14.759,0,0,0,0-1.482,6.337,6.337,0,0,0-.074-.778c.058.455,0-.149-.058-.306a14.426,14.426,0,0,0-.348-1.432l-.248-.737-.124-.331c-.141-.364.083.157,0-.066a17.048,17.048,0,0,0-1.482-2.55l-.1-.132-.108-.132c-.166-.2-.339-.4-.513-.579a15.444,15.444,0,0,0-1.134-1.076,2.078,2.078,0,0,1,0-2.93,2.127,2.127,0,0,1,2.922,0,15.861,15.861,0,0,1,5.447,12.533,2.07,2.07,0,1,1-4.139,0Z" transform="translate(-321.53 -176.008)" fill="#cb7055"/>
        <path id="Trazado_141760" data-name="Trazado 141760" d="M327.3,189.239a20.141,20.141,0,0,0,2.012-.364c1.1-.149,2.012,0,2.036-.149a4.107,4.107,0,0,0-4.048.513Z" transform="translate(-322.523 -178.137)" fill="#0b3360"/>
        <path id="Trazado_141761" data-name="Trazado 141761" d="M326.069,185a16.494,16.494,0,0,0,1.8-.96c.969-.464,1.912-.646,1.9-.77a3.005,3.005,0,0,0-2.078.381A3.153,3.153,0,0,0,326.069,185Z" transform="translate(-322.311 -177.25)" fill="#0b3360"/>
        <path id="Trazado_141762" data-name="Trazado 141762" d="M324.25,181.873c.116.058.6-.72,1.4-1.49s1.606-1.217,1.548-1.333a3.03,3.03,0,0,0-1.846,1.027A3.08,3.08,0,0,0,324.25,181.873Z" transform="translate(-321.998 -176.532)" fill="#0b3360"/>
      </g>
      <g id="Grupo_84792" data-name="Grupo 84792" transform="translate(46.268 15.493)">
        <path id="Trazado_141763" data-name="Trazado 141763" d="M342.5,183.352a14.759,14.759,0,0,0,0-1.482,4,4,0,0,0-.074-.77c.058.447,0-.157-.058-.315a14.417,14.417,0,0,0-.348-1.432l-.248-.737-.124-.323c-.141-.373.083.149,0-.066a16.722,16.722,0,0,0-1.482-2.558s-.248-.323-.1-.132l-.108-.132c-.166-.2-.339-.389-.513-.579a15.429,15.429,0,0,0-1.134-1.076,2.078,2.078,0,0,1,0-2.93,2.127,2.127,0,0,1,2.922,0,15.861,15.861,0,0,1,5.447,12.533,2.07,2.07,0,1,1-4.139,0Z" transform="translate(-337.71 -170.238)" fill="#cb7055"/>
        <path id="Trazado_141764" data-name="Trazado 141764" d="M343.48,183.47a20.133,20.133,0,0,0,2.012-.364,18.933,18.933,0,0,0,2.036-.149,3.022,3.022,0,0,0-2.094-.273A2.989,2.989,0,0,0,343.48,183.47Z" transform="translate(-338.703 -172.368)" fill="#0b3360"/>
        <path id="Trazado_141765" data-name="Trazado 141765" d="M342.248,179.23a16.5,16.5,0,0,0,1.8-.96c.969-.464,1.912-.646,1.9-.77a3,3,0,0,0-2.078.381C342.778,178.386,342.157,179.156,342.248,179.23Z" transform="translate(-338.49 -171.48)" fill="#0b3360"/>
        <path id="Trazado_141766" data-name="Trazado 141766" d="M340.43,176.1c.116.058.6-.72,1.4-1.49s1.606-1.217,1.548-1.333a3.03,3.03,0,0,0-1.846,1.026,3.1,3.1,0,0,0-1.1,1.8Z" transform="translate(-338.178 -170.762)" fill="#0b3360"/>
      </g>
      <g id="Grupo_84793" data-name="Grupo 84793" transform="translate(27.58 22.156)">
        <path id="Trazado_141767" data-name="Trazado 141767" d="M319.924,191.4a14.75,14.75,0,0,0,0-1.482,3.03,3.03,0,0,0-.066-.77c.05.447,0-.157-.066-.315a14.434,14.434,0,0,0-.348-1.432c-.075-.248-.157-.5-.248-.737l-.124-.323c-.141-.373.083.149,0-.066a16.725,16.725,0,0,0-1.482-2.558s-.248-.323-.1-.132l-.108-.132c-.166-.2-.339-.389-.513-.579a13.941,13.941,0,0,0-1.134-1.076,2.086,2.086,0,0,1,0-2.93,2.128,2.128,0,0,1,2.922,0A15.861,15.861,0,0,1,324.1,191.4a2.07,2.07,0,1,1-4.139,0Z" transform="translate(-315.134 -178.288)" fill="#cb7055"/>
        <path id="Trazado_141768" data-name="Trazado 141768" d="M320.9,191.529a20.143,20.143,0,0,0,2.012-.364,18.942,18.942,0,0,0,2.036-.149,4.139,4.139,0,0,0-4.048.513Z" transform="translate(-316.127 -180.426)" fill="#0b3360"/>
        <path id="Trazado_141769" data-name="Trazado 141769" d="M319.668,187.28a17.04,17.04,0,0,0,1.8-.96,19.377,19.377,0,0,0,1.887-.77,3.005,3.005,0,0,0-2.078.381C320.2,186.436,319.586,187.214,319.668,187.28Z" transform="translate(-315.913 -179.53)" fill="#0b3360"/>
        <path id="Trazado_141770" data-name="Trazado 141770" d="M317.85,184.153c.116.058.6-.72,1.407-1.482s1.6-1.225,1.54-1.341a3,3,0,0,0-1.838,1.026A3.088,3.088,0,0,0,317.85,184.153Z" transform="translate(-315.602 -178.812)" fill="#0b3360"/>
      </g>
    </g>
    <g id="Grupo_84807" data-name="Grupo 84807" transform="translate(10.706 19.435)">
      <g id="Grupo_84797" data-name="Grupo 84797" transform="translate(0 115.124)">
        <g id="Grupo_84795" data-name="Grupo 84795" transform="translate(115.595 103.336)">
          <path id="Trazado_141771" data-name="Trazado 141771" d="M461.294,446.516l-8.518,11.78h0s18.129,8.849,18,12.343l-36.382-3.609.356-3.742a8.8,8.8,0,0,1,.96-3.253L446.758,438.9Z" transform="translate(-434.39 -438.9)" fill="#0b3360"/>
          <path id="Trazado_141772" data-name="Trazado 141772" d="M434.39,472.269l.4-2.939,34.727,4.561s1.556.869,1.258,1.987Z" transform="translate(-434.39 -444.14)" fill="#35afea"/>
          <path id="Trazado_141773" data-name="Trazado 141773" d="M456.093,462.3c0,.174-.919.166-1.846.654s-1.474,1.184-1.656,1.093.215-1.084,1.349-1.656S456.151,462.135,456.093,462.3Z" transform="translate(-437.517 -442.889)" fill="#fff"/>
          <path id="Trazado_141774" data-name="Trazado 141774" d="M460.916,464.831c0,.174-.778.4-1.457,1.093s-.935,1.465-1.109,1.44-.19-1.043.671-1.879S460.925,464.657,460.916,464.831Z" transform="translate(-438.499 -443.349)" fill="#fff"/>
          <path id="Trazado_141775" data-name="Trazado 141775" d="M463.478,470.21c-.166,0-.323-.894.232-1.821s1.424-1.225,1.482-1.076-.505.629-.952,1.4S463.66,470.21,463.478,470.21Z" transform="translate(-439.372 -443.786)" fill="#fff"/>
          <path id="Trazado_141776" data-name="Trazado 141776" d="M457.873,458.951c-.141.116-.762-.472-1.7-.828s-1.78-.447-1.8-.629.944-.414,2.036.058S458.014,458.868,457.873,458.951Z" transform="translate(-437.832 -442.064)" fill="#fff"/>
        </g>
        <g id="Grupo_84796" data-name="Grupo 84796" transform="translate(0 91.556)">
          <path id="Trazado_141777" data-name="Trazado 141777" d="M326.273,424.67l-14.76,17.881-15.728,10.762a2.368,2.368,0,0,0-.522,3.427h0a2.351,2.351,0,0,0,1.979.9c4.892-.257,22.9-1.275,23.907-2.641,1.159-1.589,16.813-17.831,16.813-17.831Z" transform="translate(-294.751 -424.67)" fill="#0b3360"/>
          <path id="Trazado_141778" data-name="Trazado 141778" d="M295.35,462.822l26.9-2.922-.637.745a3.634,3.634,0,0,1-2.161,1.2c-2.243.339-8.46,1.159-22.078,1.929a2.376,2.376,0,0,1-2.028-.952Z" transform="translate(-294.854 -430.736)" fill="#35afea"/>
          <path id="Trazado_141779" data-name="Trazado 141779" d="M307.772,457.353a7.269,7.269,0,0,0-.356-2.69,7.186,7.186,0,0,0-1.656-2.136c0-.05.364,0,.828.3a3.717,3.717,0,0,1,1.333,1.656,3.758,3.758,0,0,1,.248,2.094C308.028,457.1,307.83,457.378,307.772,457.353Z" transform="translate(-296.647 -429.464)" fill="#fff"/>
          <path id="Trazado_141780" data-name="Trazado 141780" d="M303.725,459.1a18.86,18.86,0,0,0-.9-2.094c-.654-1.06-1.589-1.565-1.523-1.7s1.192.223,1.954,1.424A2.661,2.661,0,0,1,303.725,459.1Z" transform="translate(-295.878 -429.94)" fill="#fff"/>
          <path id="Trazado_141781" data-name="Trazado 141781" d="M313.472,455.867a23.18,23.18,0,0,0-1.176-3.311,34.38,34.38,0,0,0-2.078-2.856,5.306,5.306,0,0,1,2.483,2.624A5.1,5.1,0,0,1,313.472,455.867Z" transform="translate(-297.413 -428.98)" fill="#fff"/>
          <path id="Trazado_141782" data-name="Trazado 141782" d="M319.194,450.132c-.132.066-.753-1.176-1.978-2.31s-2.483-1.7-2.425-1.838a4.449,4.449,0,0,1,2.781,1.465A4.586,4.586,0,0,1,319.194,450.132Z" transform="translate(-298.201 -428.335)" fill="#fff"/>
          <path id="Trazado_141783" data-name="Trazado 141783" d="M324.506,444a12.689,12.689,0,0,0-2-2.483,12.122,12.122,0,0,0-2.831-1.424c.025-.149.381-.116.985,0a4.967,4.967,0,0,1,2.161,1.026A5.132,5.132,0,0,1,324.291,443C324.531,443.6,324.564,443.98,324.506,444Z" transform="translate(-299.043 -427.308)" fill="#fff"/>
          <path id="Trazado_141784" data-name="Trazado 141784" d="M323.879,439.69a2.832,2.832,0,0,1,.546-.687,6.117,6.117,0,0,1,2.028-1.283,2.757,2.757,0,0,1,1.722-.215.935.935,0,0,1,.671.828,1.5,1.5,0,0,1-.406,1.035,3.311,3.311,0,0,1-4.255.422,3.9,3.9,0,0,1-1.565-4.04,1.391,1.391,0,0,1,.687-.894.944.944,0,0,1,1.068.265,3.353,3.353,0,0,1,.637,1.606,6.773,6.773,0,0,1,0,2.392,2.037,2.037,0,0,1-.257.828,10.6,10.6,0,0,0-.116-3.171,2.963,2.963,0,0,0-.588-1.374.488.488,0,0,0-.579-.149.91.91,0,0,0-.414.613,3.452,3.452,0,0,0,1.391,3.485,2.906,2.906,0,0,0,3.618-.306,1.1,1.1,0,0,0,.315-.712.5.5,0,0,0-.364-.48,2.483,2.483,0,0,0-1.457.157A8.874,8.874,0,0,0,323.879,439.69Z" transform="translate(-299.534 -426.412)" fill="#fff"/>
        </g>
        <path id="Trazado_141785" data-name="Trazado 141785" d="M450.892,335.2s32.219,34.586,29.238,42.988C475.3,391.794,438.914,433.3,438.914,433.3l-18.858-9.106,23.5-38.717,6.507-9.5-25.878-24.346-2.194-.232s-49.669,32.012-50.149,31.747-38.311,45.464-38.311,45.464L315.76,417.53s38.262-50.141,39.048-51.325,44.512-34.371,44.512-34.371L412.44,314.07l36.987,6.531Z" transform="translate(-298.368 -314.07)" fill="#35afea"/>
        <path id="Trazado_141786" data-name="Trazado 141786" d="M447.54,355.493c.075.041.679-1.109,1.929-2.773a26.991,26.991,0,0,1,2.4-2.74,27.641,27.641,0,0,1,3.427-2.839,28.881,28.881,0,0,1,3.866-2.21,25.071,25.071,0,0,1,3.411-1.283c2-.6,3.311-.753,3.27-.828a4.408,4.408,0,0,0-.911.066,8.23,8.23,0,0,0-1.06.166c-.406.083-.877.157-1.382.306A23.4,23.4,0,0,0,459,344.575a26.7,26.7,0,0,0-3.949,2.219,25.86,25.86,0,0,0-3.46,2.914,23.812,23.812,0,0,0-2.367,2.839c-.315.422-.555.828-.778,1.192a9.694,9.694,0,0,0-.522.935A3.584,3.584,0,0,0,447.54,355.493Z" transform="translate(-321.059 -319.02)" fill="#0b3360"/>
        <path id="Trazado_141787" data-name="Trazado 141787" d="M422.83,337c0,.083,1.316.472,3.253,1.556a24.507,24.507,0,0,1,3.237,2.185,33.214,33.214,0,0,1,3.477,3.311,37.064,37.064,0,0,1,5.008,7.1c1.06,1.962,1.556,3.253,1.656,3.228a5.169,5.169,0,0,0-.29-.935c-.108-.3-.248-.654-.43-1.06s-.381-.877-.646-1.382a32.556,32.556,0,0,0-4.967-7.243,30.811,30.811,0,0,0-3.543-3.311,22.062,22.062,0,0,0-3.311-2.136,12.417,12.417,0,0,0-1.382-.646,7.448,7.448,0,0,0-1.076-.4,4.311,4.311,0,0,0-.985-.273Z" transform="translate(-316.804 -318.018)" fill="#0b3360"/>
      </g>
      <g id="Grupo_84801" data-name="Grupo 84801" transform="translate(84.039 11.954)">
        <path id="Trazado_141788" data-name="Trazado 141788" d="M456.775,241.56s-3.775.538-9.644,4.18l-22.69,14.073-19.288-17.74L396.27,250.2s19.3,23.03,20.588,24.18c4.743,4.255,9.18,1.9,9.18,1.9l19.421-9.412Z" transform="translate(-396.27 -198.415)" fill="#35afea"/>
        <path id="Trazado_141789" data-name="Trazado 141789" d="M435.3,290.171l24.106-48.651,17,2.053,5.232-1.747,18.212,4.917.621,9.4s12.773,12.823,12.417,13.618h0L472.225,311.8s-.248,15.795-.464,15.389c-4.1-7.914-13.137-3.642-25.662.77l-1.184-18.833L436.133,325.6l-22.1-11.589Z" transform="translate(-399.328 -198.408)" fill="#35afea"/>
        <path id="Trazado_141790" data-name="Trazado 141790" d="M509.891,250.517l-30.671,23.2L490.7,243.2l3-2.939,17.541,6.614Z" transform="translate(-410.553 -198.191)" fill="#e1e1e1"/>
        <g id="Grupo_84800" data-name="Grupo 84800" transform="translate(80.308)">
          <path id="Trazado_141791" data-name="Trazado 141791" d="M529.9,197.76a3.535,3.535,0,0,0-2.318-3.361,4.843,4.843,0,0,0-5.24-2.815,4.3,4.3,0,0,0-7.376-.116,3.593,3.593,0,0,0-5.7,3.742,3.444,3.444,0,0,0-2.02,6.556l20.108-.828a3.535,3.535,0,0,0,2.542-3.179Z" transform="translate(-495.318 -189.441)" fill="#0b3360"/>
          <g id="Grupo_84799" data-name="Grupo 84799" transform="translate(0 4.138)">
            <g id="Grupo_84798" data-name="Grupo 84798" transform="translate(0 0.54)">
              <path id="Trazado_141792" data-name="Trazado 141792" d="M504.547,203.195a14.628,14.628,0,0,1,19.313-4.586l.662.364c6.887,4.421,6.987,12.748,2.376,19.512l-13.982,22.964-17.185,2.765.414-11.449.828-1.987s-6.25-4.917-2.483-11.813C496.285,215.637,500.582,209.08,504.547,203.195Z" transform="translate(-493.282 -195.374)" fill="#ffbf9d"/>
              <path id="Trazado_141793" data-name="Trazado 141793" d="M497.488,237.81a19.04,19.04,0,0,0,10.447,2.417s-4.735,4.065-11.225-.389Z" transform="translate(-493.872 -202.447)" fill="#ff9a6c"/>
              <path id="Trazado_141794" data-name="Trazado 141794" d="M505.139,213.127a1.126,1.126,0,0,0,.389,1.515,1.076,1.076,0,0,0,1.507-.315,1.126,1.126,0,0,0-.389-1.515,1.076,1.076,0,0,0-1.507.315Z" transform="translate(-495.298 -198.112)" fill="#0b3360"/>
              <path id="Trazado_141795" data-name="Trazado 141795" d="M506.059,209.928c.05.2,1.1.066,2.152.654s1.523,1.556,1.714,1.49.091-.323-.108-.753a3.022,3.022,0,0,0-1.283-1.349,2.906,2.906,0,0,0-1.8-.364C506.274,209.639,506.009,209.8,506.059,209.928Z" transform="translate(-495.481 -197.587)" fill="#0b3360"/>
              <path id="Trazado_141796" data-name="Trazado 141796" d="M515.9,219.537a1.109,1.109,0,0,0,.381,1.515,1.076,1.076,0,0,0,1.507-.315,1.126,1.126,0,0,0-.389-1.515,1.068,1.068,0,0,0-1.5.315Z" transform="translate(-497.149 -199.216)" fill="#0b3360"/>
              <path id="Trazado_141797" data-name="Trazado 141797" d="M518.32,216.547c.05.19,1.1.066,2.152.654s1.523,1.556,1.714,1.49.091-.323-.108-.753a3.072,3.072,0,0,0-1.283-1.358,2.964,2.964,0,0,0-1.8-.364C518.535,216.29,518.295,216.456,518.32,216.547Z" transform="translate(-497.592 -198.726)" fill="#0b3360"/>
              <path id="Trazado_141798" data-name="Trazado 141798" d="M508.346,221.921a7.765,7.765,0,0,0-1.531-1.275c-.257-.174-.48-.372-.422-.579a1.8,1.8,0,0,1,.629-.7c.613-.513,1.267-1.043,1.945-1.6a40.6,40.6,0,0,0,4.793-4.354,40.065,40.065,0,0,0-5.132,3.957l-1.921,1.656a1.755,1.755,0,0,0-.728.977.778.778,0,0,0,.215.637,2.484,2.484,0,0,0,.422.323,8.164,8.164,0,0,0,1.73.952Z" transform="translate(-495.467 -198.247)" fill="#0b3360"/>
              <path id="Trazado_141799" data-name="Trazado 141799" d="M511.063,226.669c-.166-.108-.828,1.035-2.243,1.291s-2.583-.546-2.674-.389.141.373.646.679a3.311,3.311,0,0,0,2.2.389,2.8,2.8,0,0,0,1.8-1.126C511.113,227.058,511.146,226.7,511.063,226.669Z" transform="translate(-495.493 -200.528)" fill="#0b3360"/>
              <path id="Trazado_141800" data-name="Trazado 141800" d="M519.078,213.546c.1.331,1.167.182,2.417.373s2.26.579,2.434.29c.075-.141-.1-.455-.5-.778a3.791,3.791,0,0,0-1.8-.728,3.617,3.617,0,0,0-1.9.232C519.268,213.133,519.012,213.389,519.078,213.546Z" transform="translate(-497.722 -198.118)" fill="#0b3360"/>
              <path id="Trazado_141801" data-name="Trazado 141801" d="M508.31,206.554c0,.339.869.571,1.705,1.118s1.432,1.192,1.755,1.06c.149-.066.19-.364,0-.828a2.806,2.806,0,0,0-1.126-1.308,2.864,2.864,0,0,0-1.656-.455C508.558,206.214,508.31,206.388,508.31,206.554Z" transform="translate(-495.869 -196.994)" fill="#0b3360"/>
              <path id="Trazado_141802" data-name="Trazado 141802" d="M509.82,200.148s4.214-3.311,6.846-3.113c3.179.2,2.715,3.551,5.472,4.222s5.795.828,7.21,4.073c1.531,3.518-.513,4.23-2.053,7.359-6.258,12.7-5.969,17.442-2.061,12,.422-.6,2.483-.116,4.247-2.649,2.293-3.311,4.8-7.45,5.414-10.356a11.149,11.149,0,0,0-1.1-7.343c-1.954-4.4-6.54-7.045-9.859-8.493S512.552,194.618,509.82,200.148Z" transform="translate(-496.129 -195.092)" fill="#0b3360"/>
              <path id="Trazado_141803" data-name="Trazado 141803" d="M527.359,230.108a2.152,2.152,0,0,1,3.022-.662c1.209.828,2.219,2.368.654,4.967-2.781,4.594-6.829.828-6.755.72S526.209,232.028,527.359,230.108Z" transform="translate(-498.619 -200.945)" fill="#ffbf9d"/>
              <path id="Trazado_141804" data-name="Trazado 141804" d="M526.775,234.33a1.761,1.761,0,0,0,.149.248.9.9,0,0,0,.588.373,2.31,2.31,0,0,0,1.995-1.217,3.1,3.1,0,0,0,.464-1.283,1.1,1.1,0,0,0-.224-.985.5.5,0,0,0-.613-.066c-.132.091-.166.207-.19.2s-.05-.141.1-.306a.588.588,0,0,1,.356-.182.728.728,0,0,1,.513.157,1.308,1.308,0,0,1,.406,1.217,3.229,3.229,0,0,1-.5,1.449,2.409,2.409,0,0,1-2.367,1.275.969.969,0,0,1-.662-.563C526.717,234.462,526.758,234.33,526.775,234.33Z" transform="translate(-499.044 -201.293)" fill="#ff9a6c"/>
            </g>
            <path id="Trazado_141805" data-name="Trazado 141805" d="M531.271,215.028a5.166,5.166,0,0,1-2.483-.207,1.73,1.73,0,0,1-1.093-2.02c.124-.356.422-.7.348-1.068s-.613-.613-1.026-.828a3.419,3.419,0,0,1-1.9-3.882,1.44,1.44,0,0,1-1.772-.828,8.033,8.033,0,0,1-.5-2.078,2.227,2.227,0,0,0-1.159-1.714,4.809,4.809,0,0,1-1.142-.348c-.579-.4-.48-1.283-.224-1.945a2.574,2.574,0,0,0,.24-2.045c-.315-.579-1.035-.753-1.656-.985s-1.267-.778-1.1-1.416a1.258,1.258,0,0,1,.687-.728,3.477,3.477,0,0,1,4.222.828,4.719,4.719,0,0,1,8,3.452,4.785,4.785,0,0,1,5.795,5.265,3.469,3.469,0,0,1,.935,6.316,3.311,3.311,0,0,1,.3,3.171,1.887,1.887,0,0,1-2.806.637,1.921,1.921,0,0,1-3.833,0" transform="translate(-497.498 -194.439)" fill="#0b3360"/>
          </g>
          <path id="Trazado_141806" data-name="Trazado 141806" d="M537.341,218.485a1.376,1.376,0,0,1-.828.737,1.772,1.772,0,0,1-1.25,0,1.863,1.863,0,0,1-1.117-1.142l.215.083a5.471,5.471,0,0,1-1.589.646,3.427,3.427,0,0,1-1.159.05,2.078,2.078,0,0,1-.985-.447,2.111,2.111,0,0,1-.919-1.531,3.129,3.129,0,0,1,.166-1.184,1.175,1.175,0,0,1,.182-.406,2.309,2.309,0,0,1-.058.43,3.543,3.543,0,0,0-.075,1.134,2.194,2.194,0,0,0,2.781,1.656,5.306,5.306,0,0,0,1.507-.6l.157-.091.058.174a1.606,1.606,0,0,0,.927.993,1.565,1.565,0,0,0,1.093,0,2.482,2.482,0,0,0,.894-.5Z" transform="translate(-499.553 -193.892)" fill="#35afea"/>
          <path id="Trazado_141807" data-name="Trazado 141807" d="M532.4,199.114a2.129,2.129,0,0,1-.406-.058,1.8,1.8,0,0,0-1.068.207l-.108.058V199.2a6.706,6.706,0,0,0-1.233-3.1,5.15,5.15,0,0,0-1.656-1.44,4.33,4.33,0,0,0-2.3-.546,4.445,4.445,0,0,0-1.813.455,3.608,3.608,0,0,0-1.308,1.118l-.1.141-.116-.116a3.055,3.055,0,0,0-2.078-.828,2.988,2.988,0,0,0-1.705.546,3.966,3.966,0,0,0-1.076,1.225,1.174,1.174,0,0,1,.157-.414,3.055,3.055,0,0,1,2.616-1.589,3.245,3.245,0,0,1,2.285.886h-.215a3.973,3.973,0,0,1,1.4-1.233,4.793,4.793,0,0,1,1.937-.5,4.561,4.561,0,0,1,2.484.6,5.248,5.248,0,0,1,1.656,1.54,6.458,6.458,0,0,1,1.184,3.245l-.124-.066a1.838,1.838,0,0,1,1.167-.19A.935.935,0,0,1,532.4,199.114Z" transform="translate(-497.44 -190.19)" fill="#35afea"/>
        </g>
        <path id="Trazado_141808" data-name="Trazado 141808" d="M478.23,279.222a1.853,1.853,0,0,0,.447-.108l1.275-.4,4.644-1.548,15.273-5.257,4.346-1.523.182-.066-.05-.182c-.455-1.987-.9-3.874-1.308-5.621l-.19.232,6.391.24h.1l.041-.1c.662-1.722,1.192-3.121,1.589-4.139l.406-1.126a1.3,1.3,0,0,0,.116-.4,2.1,2.1,0,0,0-.19.373l-.48,1.093-1.714,4.139.141-.091-6.382-.331h-.257l.058.248c.4,1.747.828,3.642,1.275,5.637l.132-.248-4.354,1.515L484.5,276.937l-4.6,1.656-1.242.48A2.558,2.558,0,0,0,478.23,279.222Z" transform="translate(-410.382 -201.457)" fill="#0b3360"/>
        <path id="Trazado_141809" data-name="Trazado 141809" d="M451.28,315.888a2.32,2.32,0,0,0,.207-.381c.141-.3.306-.671.522-1.118.447-.977,1.051-2.409,1.854-4.139a63.648,63.648,0,0,1,3.2-5.894c.662-1.068,1.391-2.177,2.185-3.311s1.656-2.243,2.55-3.411c3.526-4.652,6.705-8.891,8.982-11.962l2.69-3.659c.281-.406.522-.737.712-1a2.109,2.109,0,0,0,.224-.373,3.02,3.02,0,0,0-.3.315l-.778.96-2.79,3.576c-2.343,3.03-5.555,7.227-9.106,11.887-.877,1.167-1.755,2.293-2.558,3.427s-1.523,2.243-2.177,3.311a56.178,56.178,0,0,0-3.137,5.969c-.778,1.755-1.333,3.2-1.738,4.2l-.447,1.151a1.29,1.29,0,0,0-.1.455Z" transform="translate(-405.742 -205.144)" fill="#0b3360"/>
        <path id="Trazado_141810" data-name="Trazado 141810" d="M417.84,329.558a2.421,2.421,0,0,0,.331.2l.985.538,3.791,2.012,5.952,3.137,3.684,1.954,2,1.068,1.035.563.522.29.257.149.132.083h.058c-.1-.041,0-.306.091-.257l.207.24,8.808-16.457-.389-.108c-.3,3.974-.621,8.2-.944,12.541-.157,2.161-.315,4.288-.472,6.366v.4l.348-.2,1.879-1.026a19.542,19.542,0,0,1,1.9-.977,33,33,0,0,1,3.9-1.507,29.311,29.311,0,0,1,3.891-1.018c.646-.124,1.3-.166,1.937-.248a12.3,12.3,0,0,1,1.9-.116A19.528,19.528,0,0,1,472.31,341.2l.257.207v-.356c.116-4.967.215-8.932.281-11.73,0-1.366.041-2.434.058-3.2v-1.109a.909.909,0,0,0,0,.281,5.479,5.479,0,0,1-.05.828l-.132,3.187c-.108,2.8-.248,6.8-.43,11.73l.265-.108a19.752,19.752,0,0,0-12.881-4.139,12.664,12.664,0,0,0-1.97.116c-.654.083-1.316.124-1.97.248a29.8,29.8,0,0,0-3.949,1.018,32.7,32.7,0,0,0-3.924,1.548,20.992,20.992,0,0,0-1.921.985l-1.921,1.051.323.2c.157-2.078.315-4.205.472-6.366.323-4.346.637-8.568.927-12.55l.074-.993-.472.886-8.758,16.457v.041l.223.207c.058.041.182-.232.083-.281h0l-.074-.041-.132-.083-.265-.149-.53-.29-1.035-.555-2.012-1.051-3.7-1.921-5.993-3.071-3.833-1.929-1.01-.5A1.847,1.847,0,0,0,417.84,329.558Z" transform="translate(-399.984 -212.274)" fill="#0b3360"/>
        <path id="Trazado_141811" data-name="Trazado 141811" d="M476.28,275.949a1.339,1.339,0,0,0,.1-.4c.058-.315.124-.7.215-1.167.174-1.076.406-2.483.687-4.288.571-3.626,1.325-8.642,2.136-14.18.2-1.407.4-2.781.588-4.139l-.19.182,5.472-.5h.281l-.132-.248-2.119-4.081-.05.19,3.535-2.657.952-.745c.215-.174.323-.273.306-.281a1.5,1.5,0,0,0-.364.207c-.232.149-.6.406-.993.679l-3.618,2.55-.108.075.066.124,2.061,4.139.149-.281-5.472.455h-.166v.166c-.19,1.325-.4,2.69-.6,4.1-.828,5.546-1.515,10.563-2,14.2l-.563,4.313-.124,1.176A1.422,1.422,0,0,0,476.28,275.949Z" transform="translate(-410.046 -198.773)" fill="#0b3360"/>
        <path id="Trazado_141812" data-name="Trazado 141812" d="M462.481,248.67c-.108-.058-4.917,8.866-10.762,19.934s-10.447,20.075-10.339,20.124,4.917-8.866,10.762-19.926S462.588,248.728,462.481,248.67Z" transform="translate(-404.037 -199.639)" fill="#0b3360"/>
        <path id="Trazado_141813" data-name="Trazado 141813" d="M495.477,254.752v2.93l-2.4.993-1.507-.786.439-2.632,2.972-.977Z" transform="translate(-412.679 -200.605)" fill="#36dac9"/>
        <path id="Trazado_141814" data-name="Trazado 141814" d="M490.942,259.388l-2.707,10.629-9.015,6.813,4.628-12.31,5.621-6.151Z" transform="translate(-410.553 -201.309)" fill="#36dac9"/>
        <path id="Trazado_141815" data-name="Trazado 141815" d="M496.167,254.51a16.558,16.558,0,0,0-.091,2.682v2.426a.224.224,0,0,0,.281.174h.05l.389-.108,3.419-.969c2.426-.7,4.619-1.366,6.192-1.879a11.1,11.1,0,0,0,2.483-.944,4,4,0,0,0-.7.157l-1.9.5c-1.589.439-3.791,1.051-6.217,1.755l-3.411,1-.389.116h-.05c0-.132.05.182.041.149h.174v-1.035a10.133,10.133,0,0,0-.058-1.349,16.261,16.261,0,0,0-.215-2.674Z" transform="translate(-413.452 -200.645)" fill="#0b3360"/>
        <path id="Trazado_141816" data-name="Trazado 141816" d="M490,251.74a15.346,15.346,0,0,0-.2,3.311v.273l.273-.066.944-.248a21.521,21.521,0,0,0,4.089-1.324,21.249,21.249,0,0,0-4.205.911l-.944.257.265.2A15.272,15.272,0,0,0,490,251.74Z" transform="translate(-412.372 -200.168)" fill="#0b3360"/>
        <path id="Trazado_141817" data-name="Trazado 141817" d="M442.79,306.57a4.736,4.736,0,0,0,.9.513c.588.306,1.457.737,2.533,1.242,2.161,1.026,5.174,2.368,8.543,3.75s6.465,2.533,8.717,3.311c1.126.389,2.045.7,2.682.894a4.828,4.828,0,0,0,1.01.265,4.81,4.81,0,0,0-.952-.422l-2.632-1.026c-2.227-.828-5.3-2.053-8.659-3.427s-6.391-2.682-8.576-3.626l-2.566-1.118A5.416,5.416,0,0,0,442.79,306.57Z" transform="translate(-404.28 -209.609)" fill="#0b3360"/>
      </g>
      <g id="Grupo_84805" data-name="Grupo 84805" transform="translate(16.166)">
        <path id="Trazado_141818" data-name="Trazado 141818" d="M402.468,242.661l-9.627-7.541-3.99,4.255,7.566,8.386Z" transform="translate(-327.12 -185.352)" fill="#ffbf9d"/>
        <path id="Trazado_141819" data-name="Trazado 141819" d="M380.81,225.294s.43-1.656,2.185-.687c.637.348,4.536,3.46,4.536,3.46s2.632,1.921,2.732,2.053a7.957,7.957,0,0,1-.331,1.656l-3.253-1.349Z" transform="translate(-325.736 -183.489)" fill="#ff9a6c"/>
        <g id="Grupo_84803" data-name="Grupo 84803">
          <path id="Trazado_141820" data-name="Trazado 141820" d="M448.874,361.9a210.315,210.315,0,0,1,17.657-51.325,17.508,17.508,0,0,0-4.768-21.457L317.359,175l-3.079,3.9,144.4,114.122a12.508,12.508,0,0,1,3.419,15.331,211.094,211.094,0,0,0-18.079,52.69Z" transform="translate(-314.28 -175)" fill="#cb7055"/>
          <g id="Grupo_84802" data-name="Grupo 84802" transform="translate(9.002 7.13)">
            <path id="Trazado_141821" data-name="Trazado 141821" d="M489.48,343.056a6.043,6.043,0,0,1,2.541.406,6.349,6.349,0,0,1,1.937,1.7c.05,0,0-.331-.265-.778a3.576,3.576,0,0,0-3.444-1.656C489.737,342.833,489.463,343.007,489.48,343.056Z" transform="translate(-353.449 -211.006)" fill="#0b3360"/>
            <path id="Trazado_141822" data-name="Trazado 141822" d="M493,335.6a4.677,4.677,0,0,1,4.478,2.111c.05,0,0-.339-.265-.778a3.436,3.436,0,0,0-1.49-1.316,3.584,3.584,0,0,0-1.954-.315A1.354,1.354,0,0,0,493,335.6Z" transform="translate(-354.055 -209.728)" fill="#0b3360"/>
            <path id="Trazado_141823" data-name="Trazado 141823" d="M470.525,302.525a6.291,6.291,0,0,1,.985-2.376,6.035,6.035,0,0,1,2.094-1.5c0-.058-.331-.083-.828.074a3.443,3.443,0,0,0-1.614,1.151,3.493,3.493,0,0,0-.753,1.838C470.376,302.243,470.475,302.533,470.525,302.525Z" transform="translate(-350.164 -203.414)" fill="#0b3360"/>
            <path id="Trazado_141824" data-name="Trazado 141824" d="M465.363,298.324a6.149,6.149,0,0,1,.977-2.384,6.308,6.308,0,0,1,2.094-1.5c0-.05-.323-.083-.828.074a3.618,3.618,0,0,0-1.614,1.159,3.56,3.56,0,0,0-.753,1.838C465.214,298.026,465.314,298.332,465.363,298.324Z" transform="translate(-349.274 -202.689)" fill="#0b3360"/>
            <path id="Trazado_141825" data-name="Trazado 141825" d="M453.966,289.495a6.192,6.192,0,0,1,.977-2.376,6.266,6.266,0,0,1,2.094-1.507c0-.05-.331-.075-.828.083a3.485,3.485,0,0,0-1.656,1.151,3.56,3.56,0,0,0-.753,1.838C453.808,289.238,453.916,289.5,453.966,289.495Z" transform="translate(-347.305 -201.17)" fill="#0b3360"/>
            <path id="Trazado_141826" data-name="Trazado 141826" d="M448.493,285.184a4.652,4.652,0,0,1,3.071-3.882c0-.05-.323-.083-.828.074a3.51,3.51,0,0,0-1.614,1.159,3.568,3.568,0,0,0-.753,1.829C448.344,284.9,448.444,285.184,448.493,285.184Z" transform="translate(-346.37 -200.427)" fill="#0b3360"/>
            <path id="Trazado_141827" data-name="Trazado 141827" d="M442.563,280.546a6.191,6.191,0,0,1,.977-2.376,6.034,6.034,0,0,1,2.094-1.5c0-.05-.323-.083-.828.075a3.576,3.576,0,0,0-2.368,2.988C442.414,280.248,442.514,280.554,442.563,280.546Z" transform="translate(-345.349 -199.63)" fill="#0b3360"/>
            <path id="Trazado_141828" data-name="Trazado 141828" d="M436.633,275.885A4.719,4.719,0,0,1,439.7,272c0-.05-.323-.075-.828.083a3.444,3.444,0,0,0-1.614,1.151,3.493,3.493,0,0,0-.753,1.838C436.484,275.587,436.584,275.893,436.633,275.885Z" transform="translate(-344.328 -198.826)" fill="#0b3360"/>
            <path id="Trazado_141829" data-name="Trazado 141829" d="M430.7,271.185a4.677,4.677,0,0,1,3.079-3.882c0-.05-.331-.074-.828.083a3.443,3.443,0,0,0-1.614,1.151,3.493,3.493,0,0,0-.753,1.838C430.556,270.92,430.655,271.226,430.7,271.185Z" transform="translate(-343.308 -198.017)" fill="#0b3360"/>
            <path id="Trazado_141830" data-name="Trazado 141830" d="M424.974,266.624a8.277,8.277,0,0,1,1-2.326,6.433,6.433,0,0,1,1.945-1.614c0-.05-.331-.058-.828.132a3.651,3.651,0,0,0-1.5,1.225,3.89,3.89,0,0,0-.728,1.788C424.808,266.326,424.891,266.632,424.974,266.624Z" transform="translate(-342.32 -197.223)" fill="#0b3360"/>
            <path id="Trazado_141831" data-name="Trazado 141831" d="M419.467,262.254a8.28,8.28,0,0,1,1-2.334,6.481,6.481,0,0,1,1.945-1.606c0-.05-.331-.066-.828.132a3.683,3.683,0,0,0-1.5,1.217,3.833,3.833,0,0,0-.729,1.788C419.334,261.956,419.417,262.254,419.467,262.254Z" transform="translate(-341.374 -196.47)" fill="#0b3360"/>
            <path id="Trazado_141832" data-name="Trazado 141832" d="M413.757,257.654a8.344,8.344,0,0,1,1-2.334,6.622,6.622,0,0,1,1.945-1.606c0-.05-.323-.066-.828.132a3.684,3.684,0,0,0-1.5,1.217,3.924,3.924,0,0,0-.728,1.788C413.624,257.356,413.707,257.654,413.757,257.654Z" transform="translate(-340.391 -195.678)" fill="#0b3360"/>
            <path id="Trazado_141833" data-name="Trazado 141833" d="M407.887,253.234a8.344,8.344,0,0,1,1-2.334,6.623,6.623,0,0,1,1.945-1.606c0-.05-.323-.058-.828.132a3.683,3.683,0,0,0-1.5,1.217,4.007,4.007,0,0,0-.728,1.8C407.754,252.936,407.837,253.234,407.887,253.234Z" transform="translate(-339.38 -194.917)" fill="#0b3360"/>
            <path id="Trazado_141834" data-name="Trazado 141834" d="M401.717,248.165a8.278,8.278,0,0,1,1-2.326,6.432,6.432,0,0,1,1.945-1.656c0-.05-.331-.058-.828.132a3.593,3.593,0,0,0-1.5,1.225,3.766,3.766,0,0,0-.728,1.788C401.584,247.859,401.667,248.165,401.717,248.165Z" transform="translate(-338.318 -194.038)" fill="#0b3360"/>
            <path id="Trazado_141835" data-name="Trazado 141835" d="M395.537,243.086a8.279,8.279,0,0,1,1-2.326,6.705,6.705,0,0,1,1.945-1.656c0-.05-.323-.058-.828.132a3.717,3.717,0,0,0-1.5,1.225,3.891,3.891,0,0,0-.728,1.788C395.4,242.787,395.487,243.094,395.537,243.086Z" transform="translate(-337.254 -193.163)" fill="#0b3360"/>
            <path id="Trazado_141836" data-name="Trazado 141836" d="M389.369,238.026a7.707,7.707,0,0,1,1-2.368,6.505,6.505,0,0,1,1.937-1.606c0-.058-.323-.066-.786.132a3.585,3.585,0,0,0-1.5,1.217,3.949,3.949,0,0,0-.737,1.788C389.237,237.72,389.311,238.026,389.369,238.026Z" transform="translate(-336.194 -192.292)" fill="#0b3360"/>
            <path id="Trazado_141837" data-name="Trazado 141837" d="M374.66,226.682a8.277,8.277,0,0,1,1-2.334,6.705,6.705,0,0,1,1.945-1.614c0-.05-.323-.058-.786.132a3.675,3.675,0,0,0-1.507,1.225,4.024,4.024,0,0,0-.728,1.788C374.528,226.376,374.611,226.682,374.66,226.682Z" transform="translate(-333.662 -190.344)" fill="#0b3360"/>
            <path id="Trazado_141838" data-name="Trazado 141838" d="M368.5,221.634a8.278,8.278,0,0,1,1-2.334,6.7,6.7,0,0,1,1.945-1.656c0-.05-.323-.058-.828.132a3.717,3.717,0,0,0-1.5,1.225,3.924,3.924,0,0,0-.728,1.788C368.364,221.327,368.447,221.634,368.5,221.634Z" transform="translate(-332.598 -189.468)" fill="#0b3360"/>
            <path id="Trazado_141839" data-name="Trazado 141839" d="M362.3,216.874a8.28,8.28,0,0,1,1-2.326,6.539,6.539,0,0,1,1.945-1.614c0-.05-.323-.058-.828.132a3.651,3.651,0,0,0-1.5,1.225,3.982,3.982,0,0,0-.728,1.788C362.164,216.576,362.247,216.882,362.3,216.874Z" transform="translate(-331.531 -188.657)" fill="#0b3360"/>
            <path id="Trazado_141840" data-name="Trazado 141840" d="M356.156,212.114a8.344,8.344,0,0,1,1-2.334,6.623,6.623,0,0,1,1.945-1.606c0-.05-.323-.058-.828.132a3.65,3.65,0,0,0-1.5,1.225,3.857,3.857,0,0,0-.728,1.788C356.007,211.816,356.106,212.164,356.156,212.114Z" transform="translate(-330.472 -187.837)" fill="#0b3360"/>
            <path id="Trazado_141841" data-name="Trazado 141841" d="M349.979,207.354a7.8,7.8,0,0,1,1-2.334,6.507,6.507,0,0,1,1.937-1.606c0-.05-.323-.066-.786.132a3.584,3.584,0,0,0-1.5,1.217,3.949,3.949,0,0,0-.737,1.788C349.847,207.056,349.921,207.354,349.979,207.354Z" transform="translate(-329.412 -187.017)" fill="#0b3360"/>
            <path id="Trazado_141842" data-name="Trazado 141842" d="M344.051,202.086a8.278,8.278,0,0,1,1-2.326A6.54,6.54,0,0,1,347,198.1c0-.05-.323-.058-.828.132a3.717,3.717,0,0,0-1.5,1.225,3.891,3.891,0,0,0-.679,1.863C343.919,201.787,343.993,202.094,344.051,202.086Z" transform="translate(-328.393 -186.103)" fill="#0b3360"/>
            <path id="Trazado_141843" data-name="Trazado 141843" d="M337.727,197.372a8.148,8.148,0,0,1,1-2.334,6.706,6.706,0,0,1,1.945-1.614c0-.05-.323-.058-.828.132a3.717,3.717,0,0,0-1.5,1.225,3.89,3.89,0,0,0-.729,1.788C337.594,197.066,337.677,197.372,337.727,197.372Z" transform="translate(-327.3 -185.297)" fill="#0b3360"/>
            <path id="Trazado_141844" data-name="Trazado 141844" d="M331.537,192.6a8.278,8.278,0,0,1,1-2.326,6.431,6.431,0,0,1,1.945-1.656c0-.05-.331-.058-.828.132a3.592,3.592,0,0,0-1.5,1.225,3.8,3.8,0,0,0-.728,1.788C331.4,192.3,331.487,192.6,331.537,192.6Z" transform="translate(-326.234 -184.469)" fill="#0b3360"/>
            <path id="Trazado_141845" data-name="Trazado 141845" d="M325.267,187.584a8.278,8.278,0,0,1,1-2.326,6.432,6.432,0,0,1,1.945-1.614c0-.05-.331-.058-.828.132a3.717,3.717,0,0,0-1.5,1.225,3.8,3.8,0,0,0-.729,1.788C325.134,187.286,325.217,187.592,325.267,187.584Z" transform="translate(-325.155 -183.614)" fill="#0b3360"/>
            <path id="Trazado_141846" data-name="Trazado 141846" d="M459.476,293.634a6.15,6.15,0,0,1,.977-2.384,6.309,6.309,0,0,1,2.094-1.5c0-.05-.331-.083-.828.075a3.534,3.534,0,0,0-1.656,1.159,3.493,3.493,0,0,0-.753,1.838C459.318,293.336,459.426,293.642,459.476,293.634Z" transform="translate(-348.254 -201.882)" fill="#0b3360"/>
            <path id="Trazado_141847" data-name="Trazado 141847" d="M486.63,349.314a4.677,4.677,0,0,1,4.478,2.111,1.66,1.66,0,0,0-.265-.778,3.527,3.527,0,0,0-1.49-1.308,3.477,3.477,0,0,0-1.962-.315C486.886,349.1,486.6,349.272,486.63,349.314Z" transform="translate(-352.958 -212.09)" fill="#0b3360"/>
            <path id="Trazado_141848" data-name="Trazado 141848" d="M483.57,356.5a6.034,6.034,0,0,1,2.541.406,6.225,6.225,0,0,1,1.937,1.7c.05,0,0-.331-.257-.778a3.584,3.584,0,0,0-3.452-1.656C483.835,356.273,483.553,356.446,483.57,356.5Z" transform="translate(-352.431 -213.32)" fill="#0b3360"/>
            <path id="Trazado_141849" data-name="Trazado 141849" d="M480.76,364.419a4.661,4.661,0,0,1,4.578,1.879c.05,0,0-.339-.3-.77a3.626,3.626,0,0,0-3.526-1.449C481.008,364.188,480.743,364.37,480.76,364.419Z" transform="translate(-351.947 -214.679)" fill="#0b3360"/>
            <path id="Trazado_141850" data-name="Trazado 141850" d="M478.17,371.79a6.266,6.266,0,0,1,2.558.281,6.109,6.109,0,0,1,2.02,1.606c.05,0,0-.339-.3-.77a3.6,3.6,0,0,0-1.556-1.233,3.5,3.5,0,0,0-1.97-.215C478.418,371.558,478.145,371.748,478.17,371.79Z" transform="translate(-351.501 -215.948)" fill="#0b3360"/>
            <path id="Trazado_141851" data-name="Trazado 141851" d="M475.88,379.615a6.2,6.2,0,0,1,2.575,0,6.318,6.318,0,0,1,2.169,1.4c.041,0-.05-.331-.373-.729a3.551,3.551,0,0,0-1.656-1.084,3.6,3.6,0,0,0-1.987,0C476.1,379.358,475.855,379.573,475.88,379.615Z" transform="translate(-351.107 -217.267)" fill="#0b3360"/>
            <path id="Trazado_141852" data-name="Trazado 141852" d="M473.47,388.391a6.043,6.043,0,0,1,2.574-.157,6.217,6.217,0,0,1,2.26,1.233c.041,0-.066-.331-.422-.7a3.534,3.534,0,0,0-1.747-.952,3.461,3.461,0,0,0-1.979.124C473.677,388.118,473.445,388.349,473.47,388.391Z" transform="translate(-350.692 -218.758)" fill="#0b3360"/>
            <path id="Trazado_141853" data-name="Trazado 141853" d="M471.23,398.083a6.282,6.282,0,0,1,2.574-.149,5.952,5.952,0,0,1,2.26,1.233c.041,0-.074-.331-.43-.7a3.589,3.589,0,0,0-3.717-.836C471.437,397.818,471.2,398.041,471.23,398.083Z" transform="translate(-350.306 -220.428)" fill="#0b3360"/>
          </g>
        </g>
        <g id="Grupo_84804" data-name="Grupo 84804" transform="translate(50.301 41.289)">
          <path id="Trazado_141854" data-name="Trazado 141854" d="M381.547,225.252a4.346,4.346,0,0,0-4.139.331,8.2,8.2,0,0,0-2.235,2.21,1.416,1.416,0,0,0,.455,1.738c.952.72,3.485.654,3.485.654L378,229.242l1.8-1.656a1.987,1.987,0,0,0,2.136-.828C382.557,225.558,381.547,225.252,381.547,225.252Z" transform="translate(-375.043 -224.878)" fill="#ffbf9d"/>
          <path id="Trazado_141855" data-name="Trazado 141855" d="M390.1,230.54a3.527,3.527,0,0,0-2.326-1.3,11.266,11.266,0,0,0-3.088.654,38.3,38.3,0,0,0-3.311,3.982c-.257.671,1.209,1.755,1.209,1.755a3.854,3.854,0,0,0,.29,2.624c.679.9,7.028,4.967,7.028,4.967l4.263-1.267s-4.189-4.876-5.281-5.795-.621-.464-.621-.464l.323-.828a2.483,2.483,0,0,1,1.705-1.573l.488-.132,2.111,1.656a2.069,2.069,0,0,0-.24-1.987,11.952,11.952,0,0,0-2.55-2.293Z" transform="translate(-376.128 -225.629)" fill="#ffbf9d"/>
          <path id="Trazado_141856" data-name="Trazado 141856" d="M385.3,231.028s1.233-1.73.3-2.376-1.871-.182-2.873.108a4.023,4.023,0,0,0-2.483,2.392c-.265,1.035-.538,2.483.919,2.566S385.3,231.028,385.3,231.028Z" transform="translate(-375.903 -225.471)" fill="#ffbf9d"/>
          <path id="Trazado_141857" data-name="Trazado 141857" d="M390.581,230.966a2.318,2.318,0,0,0-1.507-.5,5.116,5.116,0,0,0-3.568,1.3,8.617,8.617,0,0,0-2.31,3.03,3.543,3.543,0,0,0-.447,1.507,13.314,13.314,0,0,0,.72-1.374,10.149,10.149,0,0,1,2.31-2.831,5.306,5.306,0,0,1,3.311-1.333A12.106,12.106,0,0,1,390.581,230.966Z" transform="translate(-376.37 -225.84)" fill="#ff9a6c"/>
          <path id="Trazado_141858" data-name="Trazado 141858" d="M381.371,234.259a7.724,7.724,0,0,0,.3-1.1A5.464,5.464,0,0,1,383,230.9a6.872,6.872,0,0,1,2.376-1.192,4.386,4.386,0,0,0,1.084-.364,2.393,2.393,0,0,0-1.167.075,5.662,5.662,0,0,0-2.583,1.159,4.876,4.876,0,0,0-1.341,2.483A2.036,2.036,0,0,0,381.371,234.259Z" transform="translate(-376.117 -225.639)" fill="#ff9a6c"/>
        </g>
        <path id="Trazado_141859" data-name="Trazado 141859" d="M398.992,246.432s-5.05.455-7.773-1.523.9-5.149.9-5.149Z" transform="translate(-327.353 -186.151)" fill="#ffbf9d"/>
        <path id="Trazado_141860" data-name="Trazado 141860" d="M388.791,238.416c.1.058.364-.224.588-.629s.306-.778.207-.828-.372.224-.588.629S388.683,238.358,388.791,238.416Z" transform="translate(-327.102 -185.667)" fill="#ff9a6c"/>
      </g>
      <g id="Grupo_84806" data-name="Grupo 84806" transform="translate(141.005 83.336)">
        <path id="Trazado_141861" data-name="Trazado 141861" d="M526.195,275.67s6.349,36.325,5.861,42.732c-.538,7.276-3.535,7.74-7.674,8.1-3.841.348-32.972-3.725-32.972-3.725l3.386-13.469,19.222.977-4.735-19.81Z" transform="translate(-469.618 -275.67)" fill="#35afea"/>
        <path id="Trazado_141862" data-name="Trazado 141862" d="M484,319.014c.083.083,8.278-8.278,18.212-18.692s17.988-18.9,17.906-18.982-8.278,8.278-18.212,18.684S483.884,318.931,484,319.014Z" transform="translate(-468.342 -276.646)" fill="#0b3360"/>
        <path id="Trazado_141863" data-name="Trazado 141863" d="M488.284,314s-1.109-5.96-3.709-7.914-9.462-4.2-9.462-4.2-.207.778.77,2.194,4.313,3.245,4.313,3.245l-7.351-1.407-6.68-3.609a.612.612,0,0,0-.762.116c-.356.4-.662,1.167.53,2.235,1.838,1.656,7.268,5.348,7.268,5.348s-.555,6.209,1.432,7.194,9.884,3.6,9.884,3.6l3.717,1.209,1.912-7.889Z" transform="translate(-465.085 -280.185)" fill="#ffbf9d"/>
        <path id="Trazado_141864" data-name="Trazado 141864" d="M526.713,323.473a3.576,3.576,0,0,0-.348-1.656,7.3,7.3,0,0,0-2.541-3.286,7.144,7.144,0,0,0-3.949-1.275,3.436,3.436,0,0,0-1.705.257c0,.066.654-.05,1.656.041a7.558,7.558,0,0,1,6.267,4.363C526.523,322.836,526.647,323.49,526.713,323.473Z" transform="translate(-474.225 -282.827)" fill="#0b3360"/>
      </g>
    </g>
  </g>
  <g id="Grupo_84809" data-name="Grupo 84809" transform="translate(182.591 188.327)">
    <path id="Trazado_141865" data-name="Trazado 141865" d="M232.515,229.436h-4.967v13.709h-2.012V229.436H220.57V227.78h11.945Z" transform="translate(-220.57 -227.547)" fill="#0b3360"/>
    <path id="Trazado_141866" data-name="Trazado 141866" d="M241.9,234.251a5.868,5.868,0,0,0-.96-.075,2.566,2.566,0,0,0-2.608,1.656v8.1H236.38V232.5h1.9v1.316a3.055,3.055,0,0,1,2.723-1.531,2,2,0,0,1,.869.149Z" transform="translate(-223.292 -228.323)" fill="#0b3360"/>
    <path id="Trazado_141867" data-name="Trazado 141867" d="M251.685,243.912a3.957,3.957,0,0,1-.273-1.209,4.363,4.363,0,0,1-3.253,1.416,4.048,4.048,0,0,1-2.773-.952,3.1,3.1,0,0,1-1.076-2.425,3.2,3.2,0,0,1,1.358-2.765,6.332,6.332,0,0,1,3.808-.985h1.9v-.9a2.21,2.21,0,0,0-.613-1.656,2.483,2.483,0,0,0-1.8-.6,2.831,2.831,0,0,0-1.755.53,1.548,1.548,0,0,0-.7,1.275h-1.962a2.666,2.666,0,0,1,.6-1.656,4.139,4.139,0,0,1,1.656-1.267,5.6,5.6,0,0,1,2.285-.464,4.52,4.52,0,0,1,3.088.985,3.56,3.56,0,0,1,1.159,2.723v5.248a6.448,6.448,0,0,0,.406,2.483v.174Zm-3.245-1.49a3.485,3.485,0,0,0,1.747-.472,2.914,2.914,0,0,0,1.192-1.242v-2.334h-1.531q-3.584,0-3.584,2.094a1.747,1.747,0,0,0,.613,1.432A2.318,2.318,0,0,0,248.44,242.422Z" transform="translate(-224.657 -228.315)" fill="#0b3360"/>
    <path id="Trazado_141868" data-name="Trazado 141868" d="M260.746,232.5l.066,1.432a4.139,4.139,0,0,1,3.419-1.656c2.409,0,3.626,1.366,3.651,4.081v7.55h-1.954v-7.558a2.649,2.649,0,0,0-.563-1.821,2.26,2.26,0,0,0-1.73-.6,2.864,2.864,0,0,0-1.656.5,3.444,3.444,0,0,0-1.118,1.333v8.137H258.9V232.5Z" transform="translate(-227.17 -228.322)" fill="#0b3360"/>
    <path id="Trazado_141869" data-name="Trazado 141869" d="M279.851,240.89a1.449,1.449,0,0,0-.6-1.233,5.886,5.886,0,0,0-2.078-.753,9.429,9.429,0,0,1-2.351-.762,3.361,3.361,0,0,1-1.291-1.051,2.559,2.559,0,0,1-.414-1.457,2.989,2.989,0,0,1,1.184-2.376,4.661,4.661,0,0,1,3.038-.969,4.793,4.793,0,0,1,3.146,1,3.2,3.2,0,0,1,1.209,2.566h-1.962a1.755,1.755,0,0,0-.679-1.382,2.541,2.541,0,0,0-1.714-.579,2.715,2.715,0,0,0-1.656.464,1.457,1.457,0,0,0-.6,1.217,1.184,1.184,0,0,0,.555,1.06,6.813,6.813,0,0,0,2.02.687,10.552,10.552,0,0,1,2.368.778,3.526,3.526,0,0,1,1.349,1.093,2.715,2.715,0,0,1,.439,1.556,2.955,2.955,0,0,1-1.225,2.483,5.174,5.174,0,0,1-3.179.919,5.794,5.794,0,0,1-2.426-.488,3.924,3.924,0,0,1-1.656-1.349,3.312,3.312,0,0,1-.6-1.887h1.945a2.036,2.036,0,0,0,.753,1.556,3.013,3.013,0,0,0,1.937.579,3.1,3.1,0,0,0,1.78-.455A1.374,1.374,0,0,0,279.851,240.89Z" transform="translate(-229.553 -228.323)" fill="#0b3360"/>
    <path id="Trazado_141870" data-name="Trazado 141870" d="M296.4,238.332a6.862,6.862,0,0,1-1.192,4.205,3.825,3.825,0,0,1-3.228,1.589,4.18,4.18,0,0,1-3.27-1.316v5.5H286.76V232.5h1.78l.1,1.267a4.015,4.015,0,0,1,3.311-1.482,3.882,3.882,0,0,1,3.253,1.556,6.9,6.9,0,0,1,1.2,4.313Zm-1.954-.215a5.008,5.008,0,0,0-.828-3.055,2.641,2.641,0,0,0-2.252-1.118,2.873,2.873,0,0,0-2.657,1.573v5.455a2.864,2.864,0,0,0,2.674,1.565,2.641,2.641,0,0,0,2.235-1.118,5.53,5.53,0,0,0,.828-3.3Z" transform="translate(-231.967 -228.323)" fill="#0b3360"/>
    <path id="Trazado_141871" data-name="Trazado 141871" d="M308.377,243.912a4.529,4.529,0,0,1-.273-1.209,4.338,4.338,0,0,1-3.245,1.416,4.031,4.031,0,0,1-2.773-.952,3.1,3.1,0,0,1-1.076-2.425,3.22,3.22,0,0,1,1.349-2.765,6.382,6.382,0,0,1,3.816-.985h1.9v-.9a2.2,2.2,0,0,0-.6-1.656,2.483,2.483,0,0,0-1.8-.6,2.814,2.814,0,0,0-1.755.53,1.548,1.548,0,0,0-.7,1.275h-1.962a2.666,2.666,0,0,1,.6-1.656,4.139,4.139,0,0,1,1.656-1.267,5.555,5.555,0,0,1,2.285-.464,4.536,4.536,0,0,1,3.088.985,3.56,3.56,0,0,1,1.159,2.724v5.248a6.3,6.3,0,0,0,.406,2.483v.174Zm-3.237-1.49a3.427,3.427,0,0,0,1.738-.472,2.815,2.815,0,0,0,1.192-1.242v-2.334h-1.523q-3.584,0-3.593,2.094a1.771,1.771,0,0,0,.613,1.432,2.359,2.359,0,0,0,1.573.522Z" transform="translate(-234.42 -228.315)" fill="#0b3360"/>
    <path id="Trazado_141872" data-name="Trazado 141872" d="M321.113,234.252a5.732,5.732,0,0,0-.96-.075,2.566,2.566,0,0,0-2.6,1.656v8.1H315.6V232.5h1.9v1.316a3.046,3.046,0,0,1,2.724-1.531,1.962,1.962,0,0,1,.828.149Z" transform="translate(-236.933 -228.323)" fill="#0b3360"/>
    <path id="Trazado_141873" data-name="Trazado 141873" d="M328.82,244.126a4.967,4.967,0,0,1-3.775-1.523,5.638,5.638,0,0,1-1.457-4.081v-.356a6.846,6.846,0,0,1,.646-3.03,5.041,5.041,0,0,1,1.813-2.094,4.628,4.628,0,0,1,2.533-.753,4.288,4.288,0,0,1,3.46,1.465,6.382,6.382,0,0,1,1.233,4.205v.828h-7.69a4.04,4.04,0,0,0,.985,2.723,3.088,3.088,0,0,0,2.4,1.043,3.394,3.394,0,0,0,1.747-.422,4.362,4.362,0,0,0,1.258-1.118l1.192.927A4.81,4.81,0,0,1,328.82,244.126Zm-.24-10.232a2.583,2.583,0,0,0-1.987.828,4.18,4.18,0,0,0-.993,2.409h5.72v-.116a3.684,3.684,0,0,0-.828-2.3A2.484,2.484,0,0,0,328.58,233.895Z" transform="translate(-238.307 -228.322)" fill="#0b3360"/>
    <path id="Trazado_141874" data-name="Trazado 141874" d="M339.854,232.5l.066,1.432a4.139,4.139,0,0,1,3.419-1.656c2.409,0,3.626,1.366,3.651,4.081v7.55h-1.954v-7.558a2.608,2.608,0,0,0-.563-1.821,2.252,2.252,0,0,0-1.722-.6,2.872,2.872,0,0,0-1.656.5,3.444,3.444,0,0,0-1.118,1.333v8.137H338V232.5Z" transform="translate(-240.79 -228.322)" fill="#0b3360"/>
    <path id="Trazado_141875" data-name="Trazado 141875" d="M356.932,242.54a2.806,2.806,0,0,0,1.821-.637,2.235,2.235,0,0,0,.828-1.573h1.846a3.634,3.634,0,0,1-.679,1.871,4.4,4.4,0,0,1-1.656,1.407,5.058,5.058,0,0,1-5.9-1.026,6.192,6.192,0,0,1-1.383-4.255v-.331a6.92,6.92,0,0,1,.613-2.964,4.677,4.677,0,0,1,1.755-2.012,5.008,5.008,0,0,1,2.707-.72,4.619,4.619,0,0,1,3.2,1.151,4.139,4.139,0,0,1,1.358,2.988h-1.854a2.69,2.69,0,0,0-.828-1.821,2.633,2.633,0,0,0-1.863-.712,2.723,2.723,0,0,0-2.3,1.068,5.017,5.017,0,0,0-.828,3.1v.373a4.967,4.967,0,0,0,.828,3.038A2.756,2.756,0,0,0,356.932,242.54Z" transform="translate(-243.166 -228.325)" fill="#0b3360"/>
    <path id="Trazado_141876" data-name="Trazado 141876" d="M366.088,228.65a1.184,1.184,0,0,1,.29-.828,1.093,1.093,0,0,1,.828-.323,1.109,1.109,0,0,1,.828.323,1.151,1.151,0,0,1,.3.828,1.209,1.209,0,0,1-2.02.828A1.159,1.159,0,0,1,366.088,228.65ZM368.2,243.1h-1.954V231.68H368.2Z" transform="translate(-245.625 -227.499)" fill="#0b3360"/>
    <path id="Trazado_141877" data-name="Trazado 141877" d="M379.385,243.912a4.527,4.527,0,0,1-.273-1.209,4.338,4.338,0,0,1-3.245,1.416,4.032,4.032,0,0,1-2.773-.952,3.1,3.1,0,0,1-1.084-2.425,3.229,3.229,0,0,1,1.358-2.765,6.366,6.366,0,0,1,3.816-.985h1.9v-.9a2.177,2.177,0,0,0-.613-1.656,2.483,2.483,0,0,0-1.8-.6,2.806,2.806,0,0,0-1.747.53,1.548,1.548,0,0,0-.7,1.275h-1.962a2.666,2.666,0,0,1,.6-1.656,4.139,4.139,0,0,1,1.656-1.267,5.555,5.555,0,0,1,2.285-.464,4.537,4.537,0,0,1,3.088.985,3.56,3.56,0,0,1,1.159,2.723v5.248a6.3,6.3,0,0,0,.406,2.483v.174Zm-3.237-1.49a3.427,3.427,0,0,0,1.738-.472,2.815,2.815,0,0,0,1.192-1.242v-2.334h-1.523q-3.584,0-3.593,2.094a1.772,1.772,0,0,0,.613,1.432,2.343,2.343,0,0,0,1.565.522Z" transform="translate(-246.645 -228.315)" fill="#0b3360"/>
  </g>
</svg>
