<svg xmlns="http://www.w3.org/2000/svg" width="300.13" height="300" viewBox="0 0 300.13 300">
  <g id="img4" transform="translate(0.13)">
    <rect id="Rectángulo_36105" data-name="Rectángulo 36105" width="300" height="300" fill="none"/>
    <g id="img4-2" data-name="img4">
      <path id="Trazado_137781" data-name="Trazado 137781" d="M97.81,73l5.79-.86a21.51,21.51,0,0,0-3.33-11l-5.33,2.38-1.54-1.9L96.86,57a21.53,21.53,0,0,0-10-5.37L84.83,57l-2.39-.25L81.53,51a21.43,21.43,0,0,0-10.84,3.2l2.42,5.27L71.21,61l-4.72-3.4a21.52,21.52,0,0,0-5.52,10l5.48,2-.23,2.18-5.78.87a21.6,21.6,0,0,0,3.32,11L69.1,81.3l1.53,1.9-3.45,4.66a21.59,21.59,0,0,0,9.94,5.37l2.08-5.45,2.4.25.91,5.76a21.53,21.53,0,0,0,10.84-3.2l-2.42-5.27,1.89-1.54,4.73,3.44a21.54,21.54,0,0,0,5.51-10l-5.47-2ZM80.93,82.9h0A10.507,10.507,0,1,1,83.11,62h0a10.5,10.5,0,1,1-2.18,20.89Z" fill="#e5e2d6"/>
      <path id="Trazado_137782" data-name="Trazado 137782" d="M278.35,152.68l10.52-1.57a39.2,39.2,0,0,0-6-20l-9.71,4.35-2.8-3.45,6.29-8.49a39.29,39.29,0,0,0-18.1-9.77l-3.79,9.92-4.36-.46-1.66-10.49A39.3,39.3,0,0,0,229,118.59l4.4,9.6-3.45,2.8-8.6-6.26a39.23,39.23,0,0,0-10,18.28l10,3.71-.42,4-10.53,1.57a39.31,39.31,0,0,0,6.05,20l9.71-4.35,2.8,3.45-6.29,8.48a39.17,39.17,0,0,0,18.1,9.78l3.79-9.92,4.36.46,1.66,10.49a39.33,39.33,0,0,0,19.73-5.83l-4.4-9.6,3.44-2.8,8.61,6.26a39.28,39.28,0,0,0,10-18.28l-10-3.71Zm-30.74,18h0a19.12,19.12,0,1,1,4-38h0a19.12,19.12,0,1,1-4,38Z" fill="#e5e2d6"/>
      <path id="Trazado_137783" data-name="Trazado 137783" d="M15.47,144.55,3.94,151.43a49.47,49.47,0,0,0,16.64,20.4l9.25-9.74,4.92,2.68-3.26,12.92a49.4,49.4,0,0,0,25.82,2.72L57,167l5.31-1.57,7,11.45A49.5,49.5,0,0,0,89.54,160.6l-9.74-9.09,2.68-4.92,13,3.17a49.55,49.55,0,0,0,2.93-26.16L85,124.08l-1.43-4.84,11.53-6.89A49.5,49.5,0,0,0,78.43,92l-9.25,9.74L64.26,99l3.26-12.92A49.6,49.6,0,0,0,41.7,83.37l.35,13.4-5.31,1.56-7-11.44a49.5,49.5,0,0,0-20.2,16.28l9.74,9.09-2.68,4.92L3.56,114A49.46,49.46,0,0,0,.62,140.17l13.43-.46Zm27.22-35.8h0A24.13,24.13,0,1,1,56.33,155h0A24.129,24.129,0,1,1,42.7,108.708Z" fill="#e5e2d6"/>
      <rect id="Rectángulo_36106" data-name="Rectángulo 36106" width="147.6" height="208.74" rx="25.45" transform="translate(107.57 37)" fill="#1d1538"/>
      <rect id="Rectángulo_36107" data-name="Rectángulo 36107" width="136.1" height="192.48" transform="translate(113.33 42.68)" fill="#fff"/>
      <path id="Trazado_137784" data-name="Trazado 137784" d="M172.77,28H190a19.74,19.74,0,0,1,19.74,19.74H153A19.74,19.74,0,0,1,172.77,28Z" fill="#af0011"/>
      <path id="Trazado_137785" data-name="Trazado 137785" d="M205.52,28H157.23a4.21,4.21,0,0,0-4.21,4.2V42.55h56.7V32.17a4.2,4.2,0,0,0-4.2-4.17Z" fill="#36dac9"/>
      <circle id="Elipse_6724" data-name="Elipse 6724" cx="8.32" cy="8.32" r="8.32" transform="translate(173.05 19.36)" fill="#36dac9"/>
      <circle id="Elipse_6725" data-name="Elipse 6725" cx="4.52" cy="4.52" r="4.52" transform="translate(176.85 23.16)" fill="#fff"/>
      <g id="Grupo_83683" data-name="Grupo 83683">
        <g id="Grupo_83681" data-name="Grupo 83681">
          <path id="Trazado_137786" data-name="Trazado 137786" d="M260.71,183.88a22.869,22.869,0,0,1,2.54-7.62,9.559,9.559,0,0,0,1.53-3.31c0-.36.08-.65.09-.23,0,1.32-1.29,3.51-.77,6,.63,3.06.77,7.16-.08,8.24S260.71,183.88,260.71,183.88Z" fill="#346e00"/>
          <path id="Trazado_137787" data-name="Trazado 137787" d="M265.54,192.11a16.37,16.37,0,0,1,7.39-7.59c5.64-3.18,7-5.44,6.77-7.29s.38-1.36.41.41c.05,3.19-5.54,10-6.47,13.65s-3,16.83-5.44,18.78S263.28,195.71,265.54,192.11Z" fill="#9fbc50"/>
          <path id="Trazado_137788" data-name="Trazado 137788" d="M246.78,207.28c-.07-.62.85-8.93-2.46-13.09s-5.62-5.31-8-10.62a38.223,38.223,0,0,1-2.14-6.26c-.16-.41-.83-.74-.7-.74s.1.07.88.46c2.39,1.21,8.46,4.56,10.66,9.31,2.93,6.31,7.08,14.78,7.08,15.93s2.85,10.09,2.85,10.09Z" fill="#346e00"/>
          <path id="Trazado_137789" data-name="Trazado 137789" d="M254.47,212.12a49.33,49.33,0,0,1-6.53-13.27c-2.63-8.21-5.37-7.69-3.68-18.53s3.68-10.85,2.94-14.33.06-1.73.43.43a25.53,25.53,0,0,0,4.74,11c2.74,3.79,4.21,5.16,6,9.9s5.58,16.32,1.48,21.17S254.47,212.12,254.47,212.12Z" fill="#9fbc50"/>
          <path id="Trazado_137790" data-name="Trazado 137790" d="M256.3,225.57s-4.1-13.55-2.77-22.07,4.65-24.62,4.52-29-.9-5.93-.42-5.54-.09,2.08,1.95,7.29c2.47,6.28,7.39,12.21,8.11,17.85s1.23,8.93-.41,15.29a120.124,120.124,0,0,1-5.75,18.07C259.17,232.75,256.3,225.57,256.3,225.57Z" fill="#2daea0"/>
          <path id="Trazado_137791" data-name="Trazado 137791" d="M257.89,222.39a16.73,16.73,0,0,0-6.47-13.34c-7-5.44-7.8-6.47-7.8-6.47a8.24,8.24,0,0,1,2.67,4.72c.72,3.29.11,4.11,2.16,8.93s4.72,3.8,4.62,7.8.61,4,1.84,4.1S257.89,226.29,257.89,222.39Z" fill="#9fbc50"/>
          <path id="Trazado_137792" data-name="Trazado 137792" d="M245.8,204c-4.63-4.63-2.4-5.58-3.94-8.47s-3.62-4.62-5-6.2-1.19-3-.57.31-.16,5,1.77,7.78,3.46,3.31,6,5.61,4.5,3.78,4.5,3.78S247.91,206.09,245.8,204Z" fill="#2daea0"/>
          <path id="Trazado_137793" data-name="Trazado 137793" d="M271.1,195.06a18.49,18.49,0,0,1,4.31-6.24,15.089,15.089,0,0,0,3.62-3.89,3.441,3.441,0,0,0,.28-.86c.07-.38,0-.57.09-.55.26,0-.27,1-.37,2.76-.15,2.7,1.08,4.47-.69,8.54S276,202.68,272,205.14s-5.08,3.46-4.85,2.77S271.1,195.06,271.1,195.06Z" fill="#346e00"/>
          <path id="Trazado_137794" data-name="Trazado 137794" d="M265.23,209.06a68.709,68.709,0,0,1,9.22-6.36,32.729,32.729,0,0,1-4.19,6.35c-3.53,4.11-5.24,2-4.83,15.8s-2.87,3-2.87,3.28S256.46,215.92,265.23,209.06Z" fill="#9fbc50"/>
        </g>
        <g id="Grupo_83682" data-name="Grupo 83682">
          <path id="Trazado_137795" data-name="Trazado 137795" d="M247.66,222a.54.54,0,0,0-.54.54c0,.33,0,.66,0,1,0,8.79,1.59,16.68,4.12,22.11a.54.54,0,0,0,.49.31H265.9a.56.56,0,0,0,.5-.31c2.52-5.43,4.12-13.32,4.12-22.11v-1A.55.55,0,0,0,270,222Z" fill="#bc7e55"/>
          <path id="Trazado_137796" data-name="Trazado 137796" d="M270.38,227.88H249.55l20.53,3.46C270.21,230.21,270.31,229.06,270.38,227.88Z" fill="#12263f"/>
        </g>
      </g>
      <g id="Grupo_83688" data-name="Grupo 83688">
        <path id="Trazado_137797" data-name="Trazado 137797" d="M56.35,83.27c1-.22,1.42-.77,2.18-.94,5.67-1.3,13.32,2.92,16.35,5.29,7.15,5.6,8.56,14.67,9.52,20.82a48.08,48.08,0,0,1-1,20c-1.59,5.62-4.86,17.17-15.9,23.18-9.18,5-18.46,3.29-21.31,2.77-3.43-.63-8.39-1.6-13.08-5.67a23.26,23.26,0,0,1-7.38-12.05A28.23,28.23,0,0,1,27.43,119c2-5,6-7.6,9.79-15,2.57-5.06,1.48-12.8,12-18.93C53.47,82.66,54.6,83.63,56.35,83.27Z" fill="#12263f"/>
        <path id="Trazado_137798" data-name="Trazado 137798" d="M30.74,148.81a22.51,22.51,0,0,1-3.63-3.67,22.82,22.82,0,0,1-2.74-4.46,22,22,0,0,1-1.63-5,26.46,26.46,0,0,1-.55-5.26,27.64,27.64,0,0,1,.5-5.29,31.94,31.94,0,0,1,1.45-5.1c.15-.41.31-.83.48-1.23l.26-.61.29-.62a20.431,20.431,0,0,1,1.35-2.37,50.614,50.614,0,0,1,3.23-4.14c1.09-1.31,2.14-2.6,3.11-4,.25-.34.48-.68.71-1l.35-.52.33-.53c.23-.35.45-.7.65-1.06l.32-.54.16-.27.13-.26a32.16,32.16,0,0,0,1.78-4.6c.27-.82.56-1.65.88-2.47.15-.41.35-.81.53-1.22s.38-.8.59-1.2A19.24,19.24,0,0,1,42.42,89a20.7,20.7,0,0,1,2-1.76l.53-.41a6.421,6.421,0,0,1,.53-.38l1.11-.72c.37-.24.76-.44,1.14-.64l1.16-.61a17.181,17.181,0,0,1,2.43-1,8.53,8.53,0,0,1,2.6-.43c.88,0,1.71.21,2.57.13a5.529,5.529,0,0,1-1.28.15,6.67,6.67,0,0,0-1.27.08,8.32,8.32,0,0,0-2.39.7,21.317,21.317,0,0,0-2.21,1.18l-1.06.7a10.411,10.411,0,0,0-1,.72l-1,.76a4.6,4.6,0,0,0-.47.41l-.46.42a23.942,23.942,0,0,0-1.73,1.76A19.53,19.53,0,0,0,41,94.24a33.2,33.2,0,0,0-1.67,4.68,30.49,30.49,0,0,1-1.77,5l-.15.31-.16.29-.33.57c-.21.39-.43.76-.66,1.14l-.35.56-.36.55c-.24.37-.48.74-.73,1.1-1,1.44-2.11,2.81-3.2,4.13s-2.19,2.59-3.11,3.93a18.059,18.059,0,0,0-1.23,2.06c-.08.18-.18.35-.26.54l-.25.57c-.17.38-.33.76-.49,1.15a32.64,32.64,0,0,0-1.5,4.71,27.81,27.81,0,0,0-.68,4.89,27.46,27.46,0,0,0,.21,5,22.38,22.38,0,0,0,1.16,4.83,23.6,23.6,0,0,0,2.2,4.52,23,23,0,0,0,1.44,2.1C29.61,147.53,30.17,148.18,30.74,148.81Z" fill="#12263f"/>
        <path id="Trazado_137799" data-name="Trazado 137799" d="M75.67,88.83a18.93,18.93,0,0,1,3.47,3,21.469,21.469,0,0,1,2.73,3.74,32.74,32.74,0,0,1,3.32,8.64c.36,1.49.66,3,.93,4.49.14.74.26,1.51.37,2.28.06.38.1.76.15,1.15l.13,1.15a48,48,0,0,1-.07,9.28c-.16,1.54-.4,3.08-.71,4.6-.16.76-.35,1.52-.55,2.27l-.16.57-.16.54c-.11.37-.22.73-.34,1.1a47.38,47.38,0,0,1-3.48,8.57,31.5,31.5,0,0,1-5.5,7.46,25,25,0,0,1-7.55,5.17,29.58,29.58,0,0,0,6.67-6,33.93,33.93,0,0,0,4.67-7.51c.63-1.33,1.17-2.71,1.67-4.1s.93-2.82,1.32-4.26l.3-1.08.15-.55.14-.53c.18-.71.34-1.43.48-2.15.28-1.44.5-2.9.65-4.37.08-.73.13-1.47.19-2.21a8.174,8.174,0,0,1,.05-1.1,8.223,8.223,0,0,0,0-1.11c.05-1.48,0-2.95-.09-4.43l-.09-1.1a4.176,4.176,0,0,0-.1-1.11c-.09-.73-.16-1.46-.27-2.21-.21-1.5-.42-3-.69-4.44a36.56,36.56,0,0,0-2.51-8.49,22.43,22.43,0,0,0-2.2-3.87l-.66-.9c-.23-.29-.49-.57-.73-.86L76.87,90l-.4-.4Z" fill="#12263f"/>
        <path id="Trazado_137800" data-name="Trazado 137800" d="M28.24,212.49c-1.22,7.1-6,23.38-8.62,31.12-.38,1.14-1,3.61-1.62,6.55H86.86c0-8.34.1-19.66.38-26.32.19-4.57,3.19-27.25,4.36-35,.79-5.16,3.72-20.65,3.39-31.93-.15-5.26-.1-7.8-5.58-9.32s-12.72-3.75-17.89-5.68-10.2-4-17.64-2.89c-5.71.85-12.26,3.8-20.17,7.25s-14,4.47-15.42,6.8,5.18,16.51,7.51,25.74S29.45,205.4,28.24,212.49Z" fill="#fff"/>
        <path id="Trazado_137801" data-name="Trazado 137801" d="M92.27,149s4.65.9,6.75,10.52c1.64,7.5,9.35,37.89,10.61,45.35,1.11,6.61,3.36,12.66.4,19.52-3.33,7.69-5.88,8.77-9.08,7.77-5.59-1.74-10.5-8.51-11.74-17.58S87.75,150.1,92.27,149Z" fill="#fff"/>
        <path id="Trazado_137802" data-name="Trazado 137802" d="M20.23,152.14c-.92-1-5.68,3-7.44,8.07s-3.43,14.31-3.91,25.36a215.5,215.5,0,0,0,1.75,33c1.17,7.58,4.85,12.32,9.91,10.4,7-2.63,10.91-19.81,10.42-29.33C30.59,192.29,29.41,161.92,20.23,152.14Z" fill="#fff"/>
        <path id="Trazado_137803" data-name="Trazado 137803" d="M107.91,210.34a15,15,0,0,1,4.34,7.52,11.72,11.72,0,0,1-1.42,7.78c-.54.87-3.72,6.44-8,7.06-5.12.74-11.8-6.14-12.2-13.25-.25-4.31,2.47-7.15,3.36-8.14,1.19-1.34,3.35-3.75,6.8-4C104.52,207.09,107.16,209.62,107.91,210.34Z" fill="#fff"/>
        <path id="Trazado_137804" data-name="Trazado 137804" d="M39.52,211.93l16.4,16.24-16.4,16.24L24,229.07c.08-.29.16-.58.25-.86-.2.17-.4.34-.61.5l-.54-.54Z" fill="none"/>
        <path id="Trazado_137805" data-name="Trazado 137805" d="M18.44,231.57a4.719,4.719,0,0,1-1.22.17h0a5.12,5.12,0,0,1-3.82-1.91c-3.23-3.55-4.64-11.3-4.5-12.77v-.48c0-.18.05-.71.11-1.14l12.68,12.81Z" fill="none"/>
        <path id="Trazado_137806" data-name="Trazado 137806" d="M38.7,211.12,22.46,227.51,9.21,214.39a14,14,0,0,1,.6-2.13c-.13-1.36-.26-2.83-.38-4.38l12.88-13Z" fill="none"/>
        <path id="Trazado_137807" data-name="Trazado 137807" d="M22.83,229.35a16.262,16.262,0,0,1-2.26,1.35l1.82-1.79Z" fill="none"/>
        <path id="Trazado_137808" data-name="Trazado 137808" d="M90.78,194.56l16.4,16.24L92.39,225.72a15.1,15.1,0,0,1-1.74-4.94,29.17,29.17,0,0,1-1.52-6.17c-.15-1.09-.28-2.84-.4-5.09-.76,6.06-1.4,11.57-1.54,14L74.54,211Z" fill="none"/>
        <path id="Trazado_137809" data-name="Trazado 137809" d="M39,176.82,22.6,193.07,9.2,179.59c.2-2.29.45-4.47.73-6.51L22.7,160.43Z" fill="none"/>
        <path id="Trazado_137810" data-name="Trazado 137810" d="M57.41,228.25l16.24-16.4L87.1,225.43c-.06,1.81-.11,3.77-.15,5.79l-13.3,13.42Z" fill="none"/>
        <path id="Trazado_137811" data-name="Trazado 137811" d="M10.24,171.05a65.751,65.751,0,0,1,2.48-10.76,17,17,0,0,1,3.82-6.09l5.19,5.25Z" fill="none"/>
        <rect id="Rectángulo_36108" data-name="Rectángulo 36108" width="23.08" height="23.08" transform="matrix(0.704, -0.71, 0.71, 0.704, 40.149, 176.873)" fill="none"/>
        <path id="Trazado_137812" data-name="Trazado 137812" d="M39.57,210.24,23.33,193.85l16.24-16.4,16.24,16.4Z" fill="none"/>
        <rect id="Rectángulo_36109" data-name="Rectángulo 36109" width="23.08" height="23.08" transform="matrix(0.71, -0.704, 0.704, 0.71, 40.39, 211.08)" fill="none"/>
        <path id="Trazado_137813" data-name="Trazado 137813" d="M101.24,169.24,91.92,160l5.45-5.4A24.82,24.82,0,0,1,99,159.55C99.38,161.5,100.21,165,101.24,169.24Z" fill="none"/>
        <path id="Trazado_137814" data-name="Trazado 137814" d="M57.41,159.45l16.24-16.4,16.24,16.4L73.65,175.84Z" fill="none"/>
        <path id="Trazado_137815" data-name="Trazado 137815" d="M111.31,214.89v.52a9.789,9.789,0,0,1,.81,2.52,11.62,11.62,0,0,1-1.41,7.78c-.54.88-3.72,6.45-8.05,7.07-3.22.47-7.06-2.09-9.56-5.82l15.17-15Z" fill="none"/>
        <path id="Trazado_137816" data-name="Trazado 137816" d="M39.52,176.25,23.13,160l16.29-16.14.14-.06L55.92,160Z" fill="none"/>
        <path id="Trazado_137817" data-name="Trazado 137817" d="M16.9,153.84a8.19,8.19,0,0,1,2.25-1.63c2.34-1.72,7.76-2.9,14.49-5.83l1.84-.8L22.14,159Z" fill="none"/>
        <path id="Trazado_137818" data-name="Trazado 137818" d="M75.06,143.3c4.61,1.58,10,3.21,14.28,4.4a9.87,9.87,0,0,1,3.34,1.49,8.57,8.57,0,0,1,3.76,3.65l-5.82,5.88Z" fill="none"/>
        <path id="Trazado_137819" data-name="Trazado 137819" d="M73.92,177.85l16.39,16.24L73.92,210.34l-16.4-16.25Z" fill="none"/>
        <path id="Trazado_137820" data-name="Trazado 137820" d="M57,159,41.22,143.11a55.741,55.741,0,0,1,12.59-4c7.43-1.1,12.47,1,17.64,2.89l1.84.67v.06Z" fill="none"/>
        <path id="Trazado_137821" data-name="Trazado 137821" d="M9.3,206.19a192.646,192.646,0,0,1-.5-20.54c.06-1.34.14-2.65.23-3.93l12.49,12.37Z" fill="none"/>
        <path id="Trazado_137822" data-name="Trazado 137822" d="M110.5,209.77c.26,1.32.51,2.63.68,3.95l-2.31-2.33Z" fill="none"/>
        <path id="Trazado_137823" data-name="Trazado 137823" d="M91.49,193.85l12.63-12.75c2.38,9.84,4.78,19.92,5.43,23.8.17,1,.36,2,.56,2.94l-2.38,2.4Z" fill="none"/>
        <path id="Trazado_137824" data-name="Trazado 137824" d="M74.79,177l16.39-16.24,10.59,10.69c.7,2.86,1.45,6,2.22,9.11L91,193.38Z" fill="none"/>
        <path id="Trazado_137825" data-name="Trazado 137825" d="M42.6,183.23a6.16,6.16,0,0,0,2-3.47c.76-4-1.81-7.13-.37-7.83.83-.4,2-1.46,2.25-1.55a1.6,1.6,0,0,1,.88-.16.7.7,0,0,1,.46.26,10.452,10.452,0,0,1,.63.85c.06.24,0,.43-.3,1.69-.28,1-.27,2.33.52,2.94a2.1,2.1,0,0,0,1.43.43c.34,0,2.79-3.67,2-6.49a7.36,7.36,0,0,0-2.19-3.3,2.57,2.57,0,0,0-1.44-.52,32.87,32.87,0,0,0-8.48.43,2.2,2.2,0,0,0-1.65,1.29,16.761,16.761,0,0,0-.65,1.67,26.419,26.419,0,0,0-1.08,5.41c-.5,3.77-.25,4.7-.13,5.1a5.15,5.15,0,0,0,1.86,2.9,3.65,3.65,0,0,0,4.26.35Z" fill="#ec7d40"/>
        <path id="Trazado_137826" data-name="Trazado 137826" d="M9.3,206.19c0,.57.09,1.13.13,1.69l12.88-13L38.7,211.12,22.46,227.51,9.21,214.39c-.07.38-.12.73-.16,1.05l12.68,12.81-3.29,3.32.52-.16a15.672,15.672,0,0,0,1.61-.71l1.82-1.79.44.44c.29-.2.57-.42.84-.64l-.54-.54,16.39-16.24,16.4,16.24-16.4,16.24L24,229.07l-.33,1.16L38.63,245.3l-4.91,4.86h2l3.88-3.91,3.88,3.91h1.87l-4.86-4.81L56.7,229l16.4,16.2-4.92,5h1.55l4.19-4.2,4.19,4.15h1l-4.65-4.69L86.9,233.13v-1.92L73.6,244.63,57.41,228.25l16.24-16.4L87.1,225.43a12.709,12.709,0,0,1,.06-1.51v-.44L74.54,211l16.24-16.39,16.4,16.24L92.39,225.72c.24.43.49.84.76,1.24l15.17-15,3,3a9.306,9.306,0,0,0-.13-1.17l-2.31-2.33,1.63-1.62-.39-1.93-2.38,2.4L91.49,193.85l12.63-12.75a2.59,2.59,0,0,0-.13-.55L91,193.38,74.79,177l16.39-16.24,10.59,10.69c-.18-.75-.36-1.48-.53-2.2L91.92,160l5.45-5.4a15.221,15.221,0,0,0-.93-1.77l-5.82,5.88L75.06,143.3c-.61-.2-1.2-.41-1.77-.61v.06L57,159,41.22,143.11l-1.66.7L55.92,160l-16.4,16.25L23.13,160l16.29-16.14c-1.27.54-2.59,1.12-3.94,1.71L22.14,159l-5.24-5.2-.36.36,5.19,5.25-11.49,11.6c-.11.66-.21,1.34-.31,2L22.7,160.43,39,176.82,22.6,193.07,9.2,179.59c-.06.7-.12,1.41-.17,2.13l12.49,12.37Zm47.33,21.27L40.39,211.07l16.39-16.24L73,211.22Zm33.68-33.37L73.92,210.33l-16.4-16.24,16.4-16.24Zm-16.66-51,16.24,16.4L73.65,175.84,57.41,159.45ZM56.39,160.48l16.39,16.24L56.54,193.11l-16.4-16.24Zm-16.82,17,16.24,16.4L39.57,210.24,23.33,193.85Z" fill="#d6d0a9"/>
        <path id="Trazado_137827" data-name="Trazado 137827" d="M45.22,114.86c-.45,0-.22,11.26.69,18.84,1,7.94,1.68,11.55,3.21,13.62,4.06,5.5,10.69,4.24,12.48,3.84a6.62,6.62,0,0,0,5.48-5.76,50.121,50.121,0,0,0-.9-11.39c-.54-2.37-5.45-9.62-8.69-12.8C55.89,119.64,49.68,114.44,45.22,114.86Z" fill="#ec7d40"/>
        <path id="Trazado_137828" data-name="Trazado 137828" d="M75.82,94.82c3.14,6,2.79,16.44,2.31,18.66s-.78,1.92-.44,3.17-.13,4.83-1.89,9.12-5.69,9.93-7.53,11a9.28,9.28,0,0,1-6.58,1.3c-2.65-.42-8.63-4.05-12-9.65-2.68-4.4-4.66-8-4.69-10.86s-2.2-12,.65-17.21S50.63,91,58.11,89C60.07,88.53,70.08,83.79,75.82,94.82Z" fill="#f79556"/>
        <path id="Trazado_137829" data-name="Trazado 137829" d="M60.13,129.2a.28.28,0,0,1,.22-.43,36.25,36.25,0,0,1,5.56,0,22.71,22.71,0,0,1,4,.71.29.29,0,0,1,.17.41,5.07,5.07,0,0,1-5,2.73,7,7,0,0,1-4.95-3.42Z" fill="#d66730"/>
        <path id="Trazado_137830" data-name="Trazado 137830" d="M72.36,110.56a3.53,3.53,0,0,1,.89-1.16,5,5,0,0,1,1.22-.8,5.1,5.1,0,0,1,2.92-.22,5.571,5.571,0,0,1,.71.14l.35.09.37.13a4.18,4.18,0,0,1,1.23.84,11.67,11.67,0,0,1,1.61,2.2l-.12.12c-.36-.29-.66-.61-1-.9a7,7,0,0,0-1-.76,3.37,3.37,0,0,0-1.07-.44H77.3a5.9,5.9,0,0,0-.59.06,1.981,1.981,0,0,0-.57.14c-.38.1-.75.2-1.14.27l-1.2.25c-.42.09-.85.18-1.34.25Z" fill="#12263f"/>
        <path id="Trazado_137831" data-name="Trazado 137831" d="M53.92,108.13A9.82,9.82,0,0,1,57,106.67a8.78,8.78,0,0,1,3.51-.27,6.97,6.97,0,0,1,.9.13l.9.2a4.57,4.57,0,0,1,1.63.86,4.92,4.92,0,0,1,1.81,3.11l-.17.13c-1.12-.52-2-1-2.85-1.43-.43-.21-.84-.44-1.25-.68l-.63-.35a5.8,5.8,0,0,0-.69-.27,7,7,0,0,0-1.45-.3,8.74,8.74,0,0,0-1.54-.06,10.79,10.79,0,0,0-3.13.58Z" fill="#12263f"/>
        <path id="Trazado_137832" data-name="Trazado 137832" d="M57.7,113.57c0,.29.9,1.12,3.49,1,1.15,0,2.29-.36,2.27-.94A2.2,2.2,0,0,0,61.68,112C60,111.77,57.69,113,57.7,113.57Z" fill="#e6e6e6"/>
        <path id="Trazado_137833" data-name="Trazado 137833" d="M60,112.74a1.48,1.48,0,0,1,2.76,1.07A1.5,1.5,0,1,1,60,112.74Z" fill="#12263f"/>
        <path id="Trazado_137834" data-name="Trazado 137834" d="M73.09,115.16c0,.28.75,1.09,2.88,1,1,0,1.39-.52,1.38-1.07s-.17-1.32-1-1.45C74.93,113.43,73.07,114.6,73.09,115.16Z" fill="#e6e6e6"/>
        <path id="Trazado_137835" data-name="Trazado 137835" d="M74.6,114.5a1.25,1.25,0,0,1,2.33.9,1.27,1.27,0,1,1-2.33-.9Z" fill="#12263f"/>
        <path id="Trazado_137836" data-name="Trazado 137836" d="M63.36,114.16a2.3,2.3,0,0,0-.29-1,1.06,1.06,0,0,0-.7-.49,2.14,2.14,0,0,0-.45-.05h-.5a5.667,5.667,0,0,0-1.06.16c-.71.13-1.42.29-2.15.44s-1.47.3-2.24.39a6.42,6.42,0,0,1,1-.63,8.858,8.858,0,0,1,1-.5,10.54,10.54,0,0,1,2.22-.67,6.559,6.559,0,0,1,1.18-.11H62a2.23,2.23,0,0,1,.64.19,1.65,1.65,0,0,1,.56.42,1.36,1.36,0,0,1,.31.61,1.92,1.92,0,0,1,0,.63,1.75,1.75,0,0,1-.15.61Z" fill="#12263f"/>
        <path id="Trazado_137837" data-name="Trazado 137837" d="M77.65,115.45a2,2,0,0,0-.3-.85.91.91,0,0,0-.58-.36,2.359,2.359,0,0,0-.38,0h-.41l-.88.15-1.82.4a16,16,0,0,1-1.9.32,4.92,4.92,0,0,1,.79-.59,9.087,9.087,0,0,1,.87-.47,8.47,8.47,0,0,1,1.86-.62,5.68,5.68,0,0,1,1-.11h.55a1.759,1.759,0,0,1,.56.16,1.33,1.33,0,0,1,.49.36,1.36,1.36,0,0,1,.28.53,1.46,1.46,0,0,1,0,.55,1.51,1.51,0,0,1-.13.53Z" fill="#12263f"/>
        <path id="Trazado_137838" data-name="Trazado 137838" d="M59.75,128.56c.16.14.32.28.49.41s.35.24.53.36a9.451,9.451,0,0,0,1.13.61,9.783,9.783,0,0,0,1.21.47,10.908,10.908,0,0,0,1.25.32l.32.05c.11,0,.22.05.33.06H67.3l.32-.06a5.8,5.8,0,0,0,.63-.16l.31-.1.31-.12.29-.13.29-.15v-.08H65.68a10,10,0,0,1-1.22,0,10.332,10.332,0,0,1-1.22-.2,10,10,0,0,1-1.19-.32,9.648,9.648,0,0,1-1.16-.46c-.19-.09-.37-.18-.56-.29l-.53-.32Z" fill="#913b1d"/>
        <path id="Trazado_137839" data-name="Trazado 137839" d="M57.2,86.61a3.892,3.892,0,0,1,.4.17c1.24.65,2.39,3,2.66,6a13.1,13.1,0,0,1-.16,3.87C59,103,51,103.12,48.51,109.26c-2.13,5.19-4,2.32-4.54.21-2.45-9.13-3.17-16.27,9.73-22.55a6,6,0,0,1,3.5-.31Z" fill="#12263f"/>
        <path id="Trazado_137840" data-name="Trazado 137840" d="M59,86.59c1.3-.55,9.46-3.33,17.68,5.56,4.6,5,4,12,3.74,14.69a4.39,4.39,0,0,1-1.8,3.39c-.44,0,2.63-7.62-13-12.28a11.29,11.29,0,0,1-6.35-4.7c-1.22-1.25-2.91-3.78-2-5.41A3.18,3.18,0,0,1,59,86.59Z" fill="#12263f"/>
        <path id="Trazado_137841" data-name="Trazado 137841" d="M46.1,111.53a2.45,2.45,0,0,0-3.66-1.07c-1.92,1.23-1.81,3.23-1.35,6.09s2.4,6.22,4,6.69,1.64-.63,2-2.06S47.23,113.65,46.1,111.53Z" fill="#f79556"/>
        <path id="Trazado_137842" data-name="Trazado 137842" d="M91.6,188.87c.58-1.83,1.05-3.68,1.46-5.55s.74-3.74,1-5.64.48-3.79.6-5.7a44,44,0,0,0,0-5.74c-.44,1.87-.78,3.74-1.1,5.62s-.62,3.75-.89,5.63-.51,3.76-.72,5.66A55.382,55.382,0,0,0,91.6,188.87Z" fill="#12263f"/>
        <path id="Trazado_137843" data-name="Trazado 137843" d="M38.75,227.48H83.68a3.67,3.67,0,0,0,3.08-1.67l28.44-43.33a2.12,2.12,0,0,0-1.94-2.91H68.33a3.69,3.69,0,0,0-3.08,1.67L37.14,224.42C36.66,225.16,37.21,227.46,38.75,227.48Z" fill="#36dac9"/>
        <path id="Trazado_137844" data-name="Trazado 137844" d="M39.3,227.56H84a3.67,3.67,0,0,0,3.07-1.67l28-43a1.11,1.11,0,0,0-.93-1.72H69.41a3.67,3.67,0,0,0-3.07,1.67l-28,43a1.11,1.11,0,0,0,.96,1.72Z" fill="#12263f"/>
        <g id="Grupo_83685" data-name="Grupo 83685">
          <path id="Trazado_137845" data-name="Trazado 137845" d="M84.23,210.56c.66-.91,1.6-.73,1.62-.94s-.14-.18-.29-.4a2.07,2.07,0,0,1,.33-2,4.7,4.7,0,0,1,2.47-1,.13.13,0,0,0,.08-.19,1.3,1.3,0,0,1-.19-.59h0a1.81,1.81,0,0,1,.12-1.11,1.74,1.74,0,0,1,.74-.87c1.43-.95,5.48-1.13,7.29-1.23a50.328,50.328,0,0,1,6.91.26c2.28.35,2.88.72,3.31,1.26h0a2.17,2.17,0,0,1-.21,2.85,3.34,3.34,0,0,1-.73.53l-.21.1a.46.46,0,0,0-.12.76,1.8,1.8,0,0,1,.52.67,3.59,3.59,0,0,1,.24,1.55,3.18,3.18,0,0,1-.45,1.3c-.38.59-.62.49-1,1-.44.66.18,1-.11,2.12-.44,1.7-1.74,2-1.82,2.26-.18.67.43.64.1,1.57a2.31,2.31,0,0,1-1,1.13,3.92,3.92,0,0,1-2.8.27c-1.79-.36-3.61-.58-5.38-1,0,0-4.56-1.13-6.84-2.75a1.36,1.36,0,0,1-.62-.83c-.11-.55.32-.83.19-1.16-.2-.49-.94-.22-1.8-1A1.91,1.91,0,0,1,84.23,210.56Z" fill="#ec7d40"/>
          <g id="Grupo_83684" data-name="Grupo 83684">
            <path id="Trazado_137846" data-name="Trazado 137846" d="M86.65,209.61a.07.07,0,1,0,0,.14c1.13.26,2.26.46,3.4.63s2.55.33,3.83.44l1,.08,1,.06.94.07,1,.09c.64.07,1.29.14,1.93.18l1.53.09c.07,0,.1-.11,0-.14l-.53-.19c-.31-.11-.62-.2-.93-.29-.63-.18-1.24-.35-1.88-.5s-1.28-.26-1.93-.35l-1-.11-1-.09c-1.29-.11-2.58-.18-3.87-.2H87.2Z" fill="#dd6326"/>
            <path id="Trazado_137847" data-name="Trazado 137847" d="M89.4,206a.08.08,0,0,0,0,.15c1,.15,2,.27,2.94.37s2.24.21,3.36.27h3.36l1.68.08h1.28a.07.07,0,1,0,0-.14l-.41-.13-.82-.23a15.838,15.838,0,0,0-1.66-.36l-.43-.07-.4.06-.84-.09-.85-.07h-.84c-1.13-.06-2.26-.09-3.39-.06a10.766,10.766,0,0,0-1.7.09l-.85.08-.43.06Z" fill="#dd6326"/>
            <path id="Trazado_137848" data-name="Trazado 137848" d="M87.26,213.81a.07.07,0,1,0,0,.14l.46.1.82.17,1.62.29,3.23.52.81.11.81.11.82.11h.82l1.65.14h1.31a.07.07,0,0,0,0-.14l-.45-.18c-.26-.1-.53-.19-.79-.27-.53-.18-1.06-.33-1.59-.47l-.41-.1-.4-.09-.81-.18-.81-.15-.82-.13a26.09,26.09,0,0,0-3.31-.29H88.55A6.6,6.6,0,0,0,87.26,213.81Z" fill="#dd6326"/>
          </g>
        </g>
        <path id="Trazado_137849" data-name="Trazado 137849" d="M22.86,169.57c.46,1.76,1,3.51,1.43,5.26s.92,3.51,1.25,5.27l.14.66.11.67.24,1.33.21,1.34c.07.45.14.89.2,1.34l.19,1.34c.07.45.11.9.17,1.35l.17,1.34.15,1.35c.41,3.59.74,7.2,1,10.81.06.9.12,1.81.15,2.71,0,.45.05.9.06,1.36v5.43c0,.45-.06.9-.08,1.36.1-.44.19-.89.29-1.34s.14-.9.21-1.35.1-.91.15-1.36.1-.91.12-1.37l.09-1.37v-4.11a105.131,105.131,0,0,0-.68-10.93l-.16-1.36-.18-1.36q-.19-1.35-.42-2.7c-.08-.46-.16-.91-.25-1.35l-.26-1.35-.3-1.34-.15-.67-.18-.67c-.12-.44-.23-.89-.36-1.33s-.26-.88-.4-1.31c-.28-.87-.59-1.74-.91-2.59A53.146,53.146,0,0,0,22.86,169.57Z" fill="#12263f"/>
        <g id="Grupo_83686" data-name="Grupo 83686">
          <rect id="Rectángulo_36110" data-name="Rectángulo 36110" width="1.19" height="3.57" rx="0.59" transform="matrix(-0.889, 0.458, -0.458, -0.889, 40.553, 148.91)" fill="#12263f"/>
          <path id="Trazado_137850" data-name="Trazado 137850" d="M57.54,183.22h0a.53.53,0,0,0,.25-.66l-1.58-3.9a.53.53,0,0,0-.72-.27l-.68.35a.52.52,0,0,0-.2.74L56.86,183a.53.53,0,0,0,.68.22Z" fill="#12263f"/>
          <rect id="Rectángulo_36111" data-name="Rectángulo 36111" width="2.62" height="35.66" rx="0.37" transform="matrix(0.889, -0.458, 0.458, 0.889, 38.105, 148.299)" fill="#36dac9"/>
        </g>
        <path id="Trazado_137851" data-name="Trazado 137851" d="M29.08,214.2c-2.89,0-5.4-1.66-7.48-4.95a13.35,13.35,0,0,1-1.6-7.17c1.48-1.83,3.05-3.63,4.62-5.37,2.44-3,4.46-5.39,5.24-6.39a60.139,60.139,0,0,0,4.54-6.66A11.8,11.8,0,0,0,36,180a21.13,21.13,0,0,0,.22-4.11c.12-2.69.53-2.3.82-5.49.18-2,.66-4,.65-6a2.44,2.44,0,0,1,.43-1.51c.38-.49,10-6.79,12.47-6.66a1.62,1.62,0,0,1,1.12.64,38.719,38.719,0,0,1,2.16,3.64,7.57,7.57,0,0,1,.8,1.9,1.72,1.72,0,0,1,0,.35,3.29,3.29,0,0,1-.39,1.6c-.78,1.63.21,3.53-.86,4.33-.3.22-.77.27-1,.63a20.79,20.79,0,0,0-3,6.89c-.09.6,0,.8-.17,1.69a9.41,9.41,0,0,1-.78,2.42A8.18,8.18,0,0,1,47,182.36a31.45,31.45,0,0,0-4.35,5.15s-1.86,2.72-3.9,6.26c-.74,1.53-1.3,3.67-2.59,6.78C35.2,202.76,32.93,209,31,214a8.24,8.24,0,0,1-1.92.2Z" fill="#ec7d40"/>
        <g id="Grupo_83687" data-name="Grupo 83687">
          <path id="Trazado_137852" data-name="Trazado 137852" d="M51.71,168.94a.08.08,0,0,0,.14-.06,4.71,4.71,0,0,0-.51-1.12,7.28,7.28,0,0,0-1.12-1.43L49.9,166h-.05l-.11-.09a1.711,1.711,0,0,0-.23-.13,3,3,0,0,0-1-.28H46.7a20.832,20.832,0,0,0-3.54.37c-.59.11-1.16.24-1.74.4-.38.1-.77.21-1.15.34a.08.08,0,1,0,0,.16c1-.08,2-.18,2.94-.25,1.16-.09,2.32-.17,3.47-.19h1.74a2.43,2.43,0,0,1,.74.15l.15.07.07.05h0c.11.09.23.17.34.27A9.7,9.7,0,0,1,51,168a6.9,6.9,0,0,1,.53.68Z" fill="#dd6326"/>
          <path id="Trazado_137853" data-name="Trazado 137853" d="M53.23,165.45a.081.081,0,1,0,.14-.08,5.38,5.38,0,0,0-.63-1.15,7.769,7.769,0,0,0-1.28-1.41l-.36-.3h-.11l-.12-.08a1.919,1.919,0,0,0-.25-.12,3,3,0,0,0-1-.21H47.68a21.721,21.721,0,0,0-3.67.66c-.6.15-1.19.33-1.78.54-.4.14-.8.29-1.2.46a.08.08,0,0,0,0,.15c1-.15,2.06-.33,3.08-.48,1.21-.19,2.41-.36,3.61-.47h1.79a2.73,2.73,0,0,1,.78.1l.16.07h.08l.37.25a10.711,10.711,0,0,1,1.38,1.14c.21.21.41.44.6.67Z" fill="#dd6326"/>
          <path id="Trazado_137854" data-name="Trazado 137854" d="M53.89,161.47a.08.08,0,0,0,.12-.09,4.7,4.7,0,0,0-.69-1A7.23,7.23,0,0,0,52,159.21l-.37-.25h-.06l-.12-.06a1.06,1.06,0,0,0-.25-.09,3,3,0,0,0-1-.1h-.45a1.093,1.093,0,0,0-.44.06l-.44.06-.44.08a20.681,20.681,0,0,0-3.37,1c-.54.21-1.08.44-1.61.69q-.52.26-1,.54a.08.08,0,0,0,.06.14l2.8-.76c1.11-.29,2.22-.57,3.33-.79l.42-.08.42-.08.42-.06h.41a2.589,2.589,0,0,1,.74,0l.16.05h.08l.37.19a10.171,10.171,0,0,1,1.41.94,6.642,6.642,0,0,1,.63.56Z" fill="#dd6326"/>
          <path id="Trazado_137855" data-name="Trazado 137855" d="M42.6,183.23a3.49,3.49,0,0,0,1-.95,6.62,6.62,0,0,0,.74-1.22,6.85,6.85,0,0,0,.48-1.36,8.6,8.6,0,0,0,.18-1.43,11,11,0,0,0-.3-2.86c-.1-.46-.22-.91-.33-1.36-.06-.22-.12-.44-.16-.66a3.41,3.41,0,0,1-.08-.61,1.66,1.66,0,0,1,0-.24.3.3,0,0,1,.07-.14l.05-.05h0l.17-.09.17-.09c.42-.27.79-.56,1.16-.85l.53-.43.12-.08h.09l.3-.11h.52l.22.26.22.27.11.13.05.07h0v-.06a.43.43,0,0,1,0,.11v.45a5.812,5.812,0,0,1-.14.67l-.07.34v.36a4.16,4.16,0,0,0,0,1.45,2.42,2.42,0,0,0,.27.67,1.59,1.59,0,0,0,.49.51,1.54,1.54,0,0,1-.38-.57,2.45,2.45,0,0,1-.15-.65,4,4,0,0,1,.13-1.33v-.32l.11-.33c.07-.23.14-.45.2-.68a2.545,2.545,0,0,0,.08-.37,1.5,1.5,0,0,0,0-.22,1.64,1.64,0,0,0,0-.23.14.14,0,0,1,0-.06h0l-.05-.08-.1-.15-.21-.28-.2-.29h0a.28.28,0,0,0-.1-.09.64.64,0,0,0-.22-.14,1.06,1.06,0,0,0-.25-.09H47.2a.89.89,0,0,0-.23,0h-.22l-.36.1h-.23l-.17.11c-.21.14-.39.28-.58.42a11,11,0,0,1-1.1.77l-.14.08-.13.07-.1.06-.12.07a.89.89,0,0,0-.2.19,1,1,0,0,0-.23.47,1.82,1.82,0,0,0,0,.45,3.68,3.68,0,0,0,.1.77c.05.24.11.47.17.7.13.45.26.89.37,1.33s.21.89.28,1.33a10.13,10.13,0,0,1,.13,1.34,8.54,8.54,0,0,1-.07,1.34,6.11,6.11,0,0,1-.32,1.31,7.21,7.21,0,0,1-.55,1.24,2.381,2.381,0,0,1-.18.3l-.09.14v.07l-.06.06-.1.14-.12.13-.06.06-.06.06Z" fill="#dd6326"/>
        </g>
        <path id="Trazado_137856" data-name="Trazado 137856" d="M19.48,200.31c-.6.33-1.17.7-1.73,1.08s-1.1.78-1.64,1.19a20.739,20.739,0,0,0-3,2.82,18.135,18.135,0,0,0-1.22,1.6,16.768,16.768,0,0,0-1.05,1.79,10.72,10.72,0,0,0-1.15,3.94,38.6,38.6,0,0,1,2.12-3.37c.38-.52.77-1,1.18-1.55.2-.26.4-.51.61-.76l.63-.75c.85-1,1.74-1.94,2.65-2.92a31.352,31.352,0,0,0,2.6-3.07Z" fill="#12263f"/>
        <path id="Trazado_137857" data-name="Trazado 137857" d="M24.86,227.67a12.171,12.171,0,0,0,2.93-2.57A18,18,0,0,0,30,221.86a22.3,22.3,0,0,0,1.5-3.57,22.609,22.609,0,0,0,.89-3.76,33.808,33.808,0,0,0-1.89,3.34c-.58,1.13-1.15,2.24-1.73,3.34s-1.18,2.19-1.82,3.26S25.58,226.58,24.86,227.67Z" fill="#12263f"/>
      </g>
      <rect id="Rectángulo_36112" data-name="Rectángulo 36112" width="291.15" height="9.26" rx="4.63" transform="translate(-0.13 246)" fill="#12263f"/>
      <g id="Grupo_83694" data-name="Grupo 83694">
        <g id="Grupo_83689" data-name="Grupo 83689">
          <circle id="Elipse_6726" data-name="Elipse 6726" cx="1.39" cy="1.39" r="1.39" transform="translate(216.434 138.838) rotate(-7.02)" fill="#d6d0a9"/>
          <circle id="Elipse_6727" data-name="Elipse 6727" cx="1.39" cy="1.39" r="1.39" transform="translate(222.073 141.08) rotate(-76.72)" fill="#d6d0a9"/>
          <circle id="Elipse_6728" data-name="Elipse 6728" cx="1.39" cy="1.39" r="1.39" transform="translate(227.848 141.084) rotate(-76.72)" fill="#d6d0a9"/>
          <path id="Trazado_137858" data-name="Trazado 137858" d="M230.85,134.84H163.28a1.4,1.4,0,1,1,0-2.8h67.57a1.4,1.4,0,0,1,0,2.8Z" fill="#d6d0a9"/>
          <path id="Trazado_137859" data-name="Trazado 137859" d="M230.85,128H163.28a1.4,1.4,0,0,1,0-2.8h67.57a1.4,1.4,0,0,1,0,2.8Z" fill="#d6d0a9"/>
          <path id="Trazado_137860" data-name="Trazado 137860" d="M212.48,141.47h-49.2a1.4,1.4,0,0,1,0-2.8h49.2a1.4,1.4,0,0,1,0,2.8Z" fill="#d6d0a9"/>
        </g>
        <g id="Grupo_83690" data-name="Grupo 83690">
          <circle id="Elipse_6729" data-name="Elipse 6729" cx="1.39" cy="1.39" r="1.39" transform="translate(216.43 82.273) rotate(-7.02)" fill="#d6d0a9"/>
          <circle id="Elipse_6730" data-name="Elipse 6730" cx="1.39" cy="1.39" r="1.39" transform="translate(222.075 84.505) rotate(-76.72)" fill="#d6d0a9"/>
          <circle id="Elipse_6731" data-name="Elipse 6731" cx="1.39" cy="1.39" r="1.39" transform="translate(227.851 84.51) rotate(-76.72)" fill="#d6d0a9"/>
          <path id="Trazado_137861" data-name="Trazado 137861" d="M230.85,64.86h-53a1.4,1.4,0,0,1,0-2.8h53a1.4,1.4,0,0,1,0,2.8Z" fill="#d6d0a9"/>
          <path id="Trazado_137862" data-name="Trazado 137862" d="M230.85,71.54H163.28a1.4,1.4,0,0,1,0-2.8h67.57a1.4,1.4,0,0,1,0,2.8Z" fill="#d6d0a9"/>
          <path id="Trazado_137863" data-name="Trazado 137863" d="M230.85,78.21H163.28a1.4,1.4,0,1,1,0-2.79h67.57a1.4,1.4,0,1,1,0,2.79Z" fill="#d6d0a9"/>
          <path id="Trazado_137864" data-name="Trazado 137864" d="M212.48,84.89h-49.2a1.4,1.4,0,1,1,0-2.79h49.2a1.4,1.4,0,1,1,0,2.79Z" fill="#d6d0a9"/>
        </g>
        <g id="Grupo_83691" data-name="Grupo 83691">
          <circle id="Elipse_6732" data-name="Elipse 6732" cx="1.39" cy="1.39" r="1.39" transform="translate(216.442 209.27) rotate(-7.02)" fill="#d6d0a9"/>
          <circle id="Elipse_6733" data-name="Elipse 6733" cx="1.39" cy="1.39" r="1.39" transform="translate(222.079 211.509) rotate(-76.72)" fill="#d6d0a9"/>
          <circle id="Elipse_6734" data-name="Elipse 6734" cx="1.39" cy="1.39" r="1.39" transform="translate(227.855 211.503) rotate(-76.72)" fill="#d6d0a9"/>
          <path id="Trazado_137865" data-name="Trazado 137865" d="M230.85,191.86h-53a1.4,1.4,0,0,1,0-2.8h53a1.4,1.4,0,0,1,0,2.8Z" fill="#d6d0a9"/>
          <path id="Trazado_137866" data-name="Trazado 137866" d="M230.85,198.54H163.28a1.4,1.4,0,0,1,0-2.8h67.57a1.4,1.4,0,0,1,0,2.8Z" fill="#d6d0a9"/>
          <path id="Trazado_137867" data-name="Trazado 137867" d="M230.85,205.21H163.28a1.4,1.4,0,1,1,0-2.79h67.57a1.4,1.4,0,1,1,0,2.79Z" fill="#d6d0a9"/>
          <path id="Trazado_137868" data-name="Trazado 137868" d="M212.48,211.89h-49.2a1.4,1.4,0,1,1,0-2.79h49.2a1.4,1.4,0,1,1,0,2.79Z" fill="#d6d0a9"/>
        </g>
        <path id="Trazado_137869" data-name="Trazado 137869" d="M154.17,87.54H131a1.15,1.15,0,0,1-1.14-1.15V63.21A1.15,1.15,0,0,1,131,62.06h23.18a1.15,1.15,0,0,1,1.15,1.15V86.39a1.15,1.15,0,0,1-1.16,1.15Zm-22-2.3H153V64.36H132.14Z" fill="#d6d0a9"/>
        <path id="Trazado_137870" data-name="Trazado 137870" d="M154.17,119.18H131a1.14,1.14,0,0,1-1.14-1.15V94.86A1.14,1.14,0,0,1,131,93.71h23.18a1.14,1.14,0,0,1,1.15,1.15V118a1.14,1.14,0,0,1-1.16,1.18Zm-22-2.29H153V96H132.14Z" fill="#d6d0a9"/>
        <path id="Trazado_137871" data-name="Trazado 137871" d="M154.3,150.7H131.12a1.16,1.16,0,0,1-1.15-1.15V126.37a1.16,1.16,0,0,1,1.15-1.15H154.3a1.16,1.16,0,0,1,1.15,1.15v23.18a1.16,1.16,0,0,1-1.15,1.15Zm-22-2.3h20.88V127.52H132.27Z" fill="#d6d0a9"/>
        <path id="Trazado_137872" data-name="Trazado 137872" d="M154.27,182.77H131.09a1.16,1.16,0,0,1-1.15-1.15V158.44a1.16,1.16,0,0,1,1.15-1.15h23.18a1.16,1.16,0,0,1,1.15,1.15v23.18A1.16,1.16,0,0,1,154.27,182.77Zm-22-2.3h20.88V159.59H132.24Z" fill="#d6d0a9"/>
        <path id="Trazado_137873" data-name="Trazado 137873" d="M154.27,214.54H131.09a1.16,1.16,0,0,1-1.15-1.15V190.21a1.16,1.16,0,0,1,1.15-1.15h23.18a1.16,1.16,0,0,1,1.15,1.15v23.18a1.16,1.16,0,0,1-1.15,1.15Zm-22-2.3h20.88V191.36H132.24Z" fill="#d6d0a9"/>
        <g id="Grupo_83692" data-name="Grupo 83692">
          <circle id="Elipse_6735" data-name="Elipse 6735" cx="1.39" cy="1.39" r="1.39" transform="translate(216.475 109.683) rotate(-85.27)" fill="#d6d0a9"/>
          <circle id="Elipse_6736" data-name="Elipse 6736" cx="1.39" cy="1.39" r="1.39" transform="translate(222.37 107.02)" fill="#d6d0a9"/>
          <circle id="Elipse_6737" data-name="Elipse 6737" cx="1.39" cy="1.39" r="1.39" transform="translate(228.14 107.02)" fill="#d6d0a9"/>
          <path id="Trazado_137874" data-name="Trazado 137874" d="M230.85,96.5h-53a1.4,1.4,0,1,1,0-2.79h53a1.4,1.4,0,1,1,0,2.79Z" fill="#d6d0a9"/>
          <path id="Trazado_137875" data-name="Trazado 137875" d="M230.85,103.18H163.28a1.4,1.4,0,1,1,0-2.79h67.57a1.4,1.4,0,1,1,0,2.79Z" fill="#d6d0a9"/>
          <path id="Trazado_137876" data-name="Trazado 137876" d="M212.48,109.82h-49.2a1.4,1.4,0,0,1,0-2.8h49.2a1.4,1.4,0,0,1,0,2.8Z" fill="#d6d0a9"/>
        </g>
        <g id="Grupo_83693" data-name="Grupo 83693">
          <circle id="Elipse_6738" data-name="Elipse 6738" cx="1.39" cy="1.39" r="1.39" transform="translate(216.59 170.61)" fill="#d6d0a9"/>
          <circle id="Elipse_6739" data-name="Elipse 6739" cx="1.39" cy="1.39" r="1.39" transform="translate(222.37 170.61)" fill="#d6d0a9"/>
          <circle id="Elipse_6740" data-name="Elipse 6740" cx="1.39" cy="1.39" r="1.39" transform="translate(228.14 170.61)" fill="#d6d0a9"/>
          <path id="Trazado_137877" data-name="Trazado 137877" d="M230.85,160.09h-53a1.4,1.4,0,1,1,0-2.8h53a1.4,1.4,0,0,1,0,2.8Z" fill="#d6d0a9"/>
          <path id="Trazado_137878" data-name="Trazado 137878" d="M230.85,166.77H163.28a1.4,1.4,0,0,1,0-2.8h67.57a1.4,1.4,0,0,1,0,2.8Z" fill="#d6d0a9"/>
          <path id="Trazado_137879" data-name="Trazado 137879" d="M212.48,173.4h-49.2a1.4,1.4,0,1,1,0-2.79h49.2a1.4,1.4,0,1,1,0,2.79Z" fill="#d6d0a9"/>
        </g>
        <path id="Trazado_137880" data-name="Trazado 137880" d="M143.94,114.87a2.17,2.17,0,0,0,1.54-.64l11.77-13.92a2.174,2.174,0,1,0-3.08-3.07L143.94,109l-5.43-9.57a2.171,2.171,0,1,0-3.07,3.07l7,11.77A2.15,2.15,0,0,0,143.94,114.87Z" fill="#2daea0"/>
        <path id="Trazado_137881" data-name="Trazado 137881" d="M143.94,146.89a2.17,2.17,0,0,0,1.54-.64l11.77-13.92a2.174,2.174,0,0,0-3.08-3.07L143.94,141l-5.43-9.57a2.174,2.174,0,0,0-3.07,3.08l7,11.76a2.15,2.15,0,0,0,1.5.62Z" fill="#2daea0"/>
        <path id="Trazado_137882" data-name="Trazado 137882" d="M143.94,209.83a2.17,2.17,0,0,0,1.54-.64l11.77-13.92a2.174,2.174,0,1,0-3.08-3.07l-10.23,11.72-5.43-9.57a2.174,2.174,0,1,0-3.07,3.08l7,11.76a2.15,2.15,0,0,0,1.5.64Z" fill="#2daea0"/>
      </g>
    </g>
  </g>
</svg>
