<svg id="img5" xmlns="http://www.w3.org/2000/svg" width="500" height="394.868" viewBox="0 0 500 394.868">
  <g id="Capa_1" data-name="Capa 1">
    <rect id="Rectángulo_36389" data-name="Rectángulo 36389" width="500" height="394.868" fill="none"/>
    <g id="Grupo_84811" data-name="Grupo 84811" transform="translate(52.45 55.786)">
      <rect id="Rectángulo_36390" data-name="Rectángulo 36390" width="247.922" height="190.861" transform="translate(91.838 91.093)" fill="#35afea"/>
      <path id="Trazado_141878" data-name="Trazado 141878" d="M177.833,352.621H177.2V236.727h.629a7.326,7.326,0,0,0,0-14.652H177.2V222h-33.94v.132h-.637a7.326,7.326,0,1,0,0,14.652h.637V352.679h-.637A7.326,7.326,0,0,0,135.3,360h0a7.326,7.326,0,0,0,7.326,7.326h.637v3.618H177.2v-3.618h.629A7.326,7.326,0,0,0,185.159,360h0a7.326,7.326,0,0,0-7.326-7.384Z" transform="translate(-75.747 -94.012)" fill="#9ad7f5"/>
      <path id="Trazado_141879" data-name="Trazado 141879" d="M160.245,370.891v-148.8L143.284,222v.132h-.637a7.326,7.326,0,1,0,0,14.652h.637V352.679h-.637A7.326,7.326,0,0,0,135.32,360h0a7.326,7.326,0,0,0,7.326,7.326h.637v3.618Z" transform="translate(-75.75 -94.012)" fill="#104c82"/>
      <path id="Trazado_141880" data-name="Trazado 141880" d="M254.94,352.621h-.654V236.727h.637a7.326,7.326,0,1,0,0-14.652h-.637V222h-33.94v.132h-.629a7.326,7.326,0,1,0,0,14.652h.629V352.679h-.629A7.326,7.326,0,0,0,212.39,360h0a7.326,7.326,0,0,0,7.326,7.326h.629v3.618h33.94v-3.618h.637A7.326,7.326,0,0,0,262.249,360h0a7.326,7.326,0,0,0-7.31-7.384Z" transform="translate(-89.021 -94.012)" fill="#9ad7f5"/>
      <path id="Trazado_141881" data-name="Trazado 141881" d="M237.34,370.891v-148.8l-17-.091v.132h-.629a7.326,7.326,0,1,0,0,14.652h.629V352.679h-.629A7.326,7.326,0,0,0,212.39,360h0a7.326,7.326,0,0,0,7.326,7.326h.629v3.618Z" transform="translate(-89.021 -94.012)" fill="#104c82"/>
      <g id="Grupo_84810" data-name="Grupo 84810" transform="translate(242.566 127.988)">
        <path id="Trazado_141882" data-name="Trazado 141882" d="M398.938,352.621h-.654V236.727h.629a7.326,7.326,0,1,0,0-14.652h-.629V222h-33.94v.132h-.637a7.326,7.326,0,1,0,0,14.652h.637V352.679h-.637A7.326,7.326,0,0,0,356.38,360h0a7.326,7.326,0,0,0,7.326,7.326h.637v3.618h33.94v-3.618h.629A7.326,7.326,0,0,0,406.239,360h0a7.326,7.326,0,0,0-7.3-7.384Z" transform="translate(-356.38 -222)" fill="#9ad7f5"/>
        <path id="Trazado_141883" data-name="Trazado 141883" d="M381.355,370.891v-148.8L364.394,222v.132h-.637a7.326,7.326,0,0,0,0,14.652h.637V352.679h-.637A7.326,7.326,0,0,0,356.43,360h0a7.326,7.326,0,0,0,7.326,7.326h.637v3.618Z" transform="translate(-356.389 -222)" fill="#104c82"/>
        <path id="Trazado_141884" data-name="Trazado 141884" d="M476.053,352.621h-.637V236.727h.637a7.326,7.326,0,1,0,0-14.652h-.637V222h-33.94v.132h-.629a7.326,7.326,0,1,0,0,14.652h.629V352.679h-.629A7.326,7.326,0,0,0,433.52,360h0a7.326,7.326,0,0,0,7.326,7.326h.629v3.618h33.94v-3.618h.637A7.326,7.326,0,0,0,483.379,360h0a7.326,7.326,0,0,0-7.326-7.384Z" transform="translate(-369.662 -222)" fill="#9ad7f5"/>
        <path id="Trazado_141885" data-name="Trazado 141885" d="M458.457,370.891v-148.8L441.5,222v.132h-.629a7.326,7.326,0,1,0,0,14.652h.629V352.679h-.629A7.326,7.326,0,0,0,433.54,360h0a7.326,7.326,0,0,0,7.326,7.326h.629v3.618Z" transform="translate(-369.666 -222)" fill="#104c82"/>
      </g>
      <path id="Trazado_141886" data-name="Trazado 141886" d="M100.3,394.68H451.906a10.2,10.2,0,0,1,10.19,10.2v19.4H90.11v-19.4a10.2,10.2,0,0,1,10.19-10.2Z" transform="translate(-67.966 -123.745)" fill="#039be5"/>
      <rect id="Rectángulo_36391" data-name="Rectángulo 36391" width="392.599" height="21.159" rx="5.69" transform="translate(11.838 285.728)" fill="#9ad7f5"/>
      <rect id="Rectángulo_36392" data-name="Rectángulo 36392" width="416.275" height="21.159" rx="5.69" transform="translate(0 300.522)" fill="#104c82"/>
      <path id="Trazado_141887" data-name="Trazado 141887" d="M101.788,203.55H453.7v10.174a8.171,8.171,0,0,1-8.2,8.162H109.951a8.171,8.171,0,0,1-8.171-8.171V203.55Z" transform="translate(-69.975 -90.835)" fill="#039be5"/>
      <path id="Trazado_141888" data-name="Trazado 141888" d="M458.547,150.8,276.511,67.39,94.64,150.8Z" transform="translate(-68.746 -67.39)" fill="#039be5"/>
      <path id="Trazado_141889" data-name="Trazado 141889" d="M435.539,154.406,282.7,84.24,129.62,154.406l152.955-.7Z" transform="translate(-74.769 -70.291)" fill="#35afea"/>
      <path id="Trazado_141890" data-name="Trazado 141890" d="M421.536,163.5,287.4,101.735,159.376,163.482l-1.656-3.427L287.356,97.53l135.77,62.517Z" transform="translate(-79.607 -72.58)" fill="#f7d7dd"/>
      <path id="Trazado_141891" data-name="Trazado 141891" d="M72.7,168.15h399.18a3.526,3.526,0,0,1,3.527,3.526v16.416a9.652,9.652,0,0,1-9.652,9.652H78.822a9.652,9.652,0,0,1-9.652-9.652V171.676A3.526,3.526,0,0,1,72.7,168.15Z" transform="translate(-64.36 -84.739)" fill="#9ad7f5"/>
      <path id="Trazado_141892" data-name="Trazado 141892" d="M299.147,307.73h22.74a9.106,9.106,0,0,1,9.106,9.106v62.848H290V316.861a9.106,9.106,0,0,1,9.147-9.131Z" transform="translate(-102.384 -108.773)" fill="#433354" opacity="0.5"/>
    </g>
    <g id="Grupo_84812" data-name="Grupo 84812" transform="translate(57.108 233.261)">
      <path id="Trazado_141893" data-name="Trazado 141893" d="M83.5,281.9s7.45-2.483,11.018,14.752,4.139,26.714,4.139,26.714,1.167,3.717,3.907,2.243,7.318-6.531,10.762-4.462c3.535,2.136,3.634,6.755,1.184,12.839s-7.318,19.611-7.757,20.836-.215,3.2,1.813,2.483,14.826-8.957,18.377-2.649-6.051,22.136-7.061,23.891-.828,2.657-.1,3.369,4.81-2.483,8.543-4.669,8.46-4.089,10.2-.273-.944,16.921-18.916,34.5l-8.866,7.6-11.126-3.709c-23.32-9.4-30.8-20.488-30.629-24.677s5.24-4.238,9.536-3.634,9.238,2,9.677,1.051.232-1.846-1.374-3.071-16.556-12.2-15.637-19.387,15.853-4.445,18-4.57,1.573-2.045.72-3S79.3,346.532,74.71,341.8s-6.258-9-3.808-12.326,8.518-.281,11.589,0,2.757-3.56,2.757-3.56-3.129-9-6.391-26.258,4.768-17.823,4.768-17.823" transform="translate(-68.986 -281.78)" fill="#f5f5f5"/>
      <path id="Trazado_141894" data-name="Trazado 141894" d="M114.433,419.873c-2.483-12.674-5.96-30.149-9.934-49.445s-7.517-36.747-10.025-49.4l-2.964-14.992-.828-4.081-.182-1.026a3.557,3.557,0,0,0-.091-.364,2.022,2.022,0,0,0,.05.364c.05.24.108.613.182,1.068.174.952.422,2.326.737,4.089.646,3.551,1.656,8.684,2.831,15.017,2.483,12.674,5.96,30.149,9.934,49.437s7.517,36.755,10.025,49.412" transform="translate(-72.675 -285.014)" fill="#e1e1e1"/>
      <path id="Trazado_141895" data-name="Trazado 141895" d="M112.89,338.19a3.436,3.436,0,0,0-.5.679c-.306.455-.72,1.118-1.225,1.954-1,1.656-2.326,3.982-3.742,6.581l-3.6,6.664-1.093,2.012a3.311,3.311,0,0,0-.373.762,3.312,3.312,0,0,0,.5-.679c.3-.455.712-1.118,1.209-1.954.985-1.656,2.285-4.015,3.7-6.623l3.642-6.622c.439-.828.828-1.465,1.109-2.012a3.41,3.41,0,0,0,.364-.762Z" transform="translate(-74.733 -291.493)" fill="#e1e1e1"/>
      <path id="Trazado_141896" data-name="Trazado 141896" d="M96.611,357.942c.058-.091-4.619-3.046-10.447-6.623s-10.6-6.341-10.654-6.25,4.619,3.046,10.447,6.622S96.611,358.041,96.611,357.942Z" transform="translate(-70.11 -292.677)" fill="#e1e1e1"/>
      <path id="Trazado_141897" data-name="Trazado 141897" d="M105.656,394.715a3.219,3.219,0,0,0-.828-.273l-2.26-.621c-1.912-.513-4.545-1.242-7.45-2.152s-5.455-1.8-7.318-2.483l-2.2-.786a3.949,3.949,0,0,0-.828-.248,3.311,3.311,0,0,0,.77.389c.5.224,1.242.538,2.161.911,1.838.737,4.412,1.656,7.3,2.583s5.538,1.6,7.45,2.053c.96.215,1.747.389,2.293.488a3.576,3.576,0,0,0,.911.141Z" transform="translate(-71.704 -300.095)" fill="#e1e1e1"/>
      <path id="Trazado_141898" data-name="Trazado 141898" d="M124.169,378.58a2.98,2.98,0,0,0-.613.5c-.381.339-.927.828-1.581,1.482-1.325,1.258-3.137,3.03-5.116,4.967s-3.75,3.767-5.025,5.083c-.637.654-1.142,1.192-1.49,1.573s-.53.588-.5.613a3.774,3.774,0,0,0,.613-.5c.381-.348.919-.828,1.581-1.482,1.325-1.267,3.129-3.03,5.108-4.967s3.758-3.758,5.033-5.075c.629-.654,1.142-1.192,1.49-1.573A2.778,2.778,0,0,0,124.169,378.58Z" transform="translate(-76.02 -298.447)" fill="#e1e1e1"/>
      <path id="Trazado_141899" data-name="Trazado 141899" d="M135.141,408.88a4.047,4.047,0,0,0-.786.654l-2,1.929c-1.705,1.614-4.04,3.858-6.623,6.349s-4.868,4.776-6.523,6.44l-1.937,1.978a5.152,5.152,0,0,0-.679.77,5.564,5.564,0,0,0,.786-.654l2.028-1.9c1.705-1.606,4.04-3.849,6.623-6.349s4.868-4.776,6.515-6.432l1.945-1.987A5.422,5.422,0,0,0,135.141,408.88Z" transform="translate(-77.183 -303.665)" fill="#e1e1e1"/>
      <path id="Trazado_141900" data-name="Trazado 141900" d="M111.547,428.18a5.082,5.082,0,0,0-1.026-.372l-2.839-.886c-2.4-.745-5.7-1.78-9.321-3.03s-6.871-2.483-9.214-3.311l-2.781-1.051a5.433,5.433,0,0,0-1.035-.339,5.532,5.532,0,0,0,.977.48c.637.29,1.573.7,2.732,1.176,2.326.96,5.563,2.21,9.189,3.46s6.954,2.243,9.371,2.922c1.209.339,2.194.6,2.881.762A6.269,6.269,0,0,0,111.547,428.18Z" transform="translate(-71.801 -305.44)" fill="#e1e1e1"/>
    </g>
    <g id="Grupo_84814" data-name="Grupo 84814" transform="translate(418.593 202.072)">
      <g id="Grupo_84813" data-name="Grupo 84813">
        <path id="Trazado_141901" data-name="Trazado 141901" d="M558.45,297.966a31.242,31.242,0,1,1,1.126-44.114,31.242,31.242,0,0,1-1.126,44.114Z" transform="translate(-505.66 -244.103)" fill="#ffc269"/>
        <path id="Trazado_141902" data-name="Trazado 141902" d="M554.883,294.117a23.8,23.8,0,1,1,.828-33.618,23.8,23.8,0,0,1-.828,33.618Z" transform="translate(-507.209 -245.651)" fill="#ffa726"/>
        <path id="Trazado_141903" data-name="Trazado 141903" d="M556.871,293.4a14.345,14.345,0,0,1,1.656-2.426,25.3,25.3,0,0,0,3.4-7.012,23.518,23.518,0,0,0,.6-11.366,21.744,21.744,0,0,0-.828-3.2,21.11,21.11,0,0,0-1.358-3.171,23.224,23.224,0,0,0-1.879-3.03,23.552,23.552,0,0,0-5.207-5.157,23.174,23.174,0,0,0-3.046-1.854,23.531,23.531,0,0,0-17.74-1.44,25.331,25.331,0,0,0-6.979,3.468c-1.523,1.076-2.31,1.772-2.409,1.656s.538-.944,1.97-2.227a21.92,21.92,0,0,1,6.995-4.139,24.007,24.007,0,0,1,5.53-1.3,24.2,24.2,0,0,1,13.435,2.368,25.074,25.074,0,0,1,3.311,1.978,26.581,26.581,0,0,1,3.03,2.55,27.612,27.612,0,0,1,2.583,3.013,24.569,24.569,0,0,1,2,3.311,23.448,23.448,0,0,1,1.424,3.427,23.9,23.9,0,0,1-.182,15.522,21.954,21.954,0,0,1-4.065,7.036C557.782,292.88,556.954,293.5,556.871,293.4Z" transform="translate(-508.659 -245.474)" fill="#bf7d1d"/>
      </g>
      <path id="Trazado_141904" data-name="Trazado 141904" d="M531.807,290.935l-2.972,2.9-2.583-2.649,2.889-2.815c-2.4-2.781-4.04-6.1-4.321-8.667l4.661-1.7a14.9,14.9,0,0,0,3.129,6.97l4.429-4.313c-2.152-3.642-4.379-7.881-.588-11.589,2.806-2.74,7.21-3.055,11.771.671l2.939-2.873,2.591,2.649-2.889,2.823a16.681,16.681,0,0,1,3.626,6.954l-4.553,1.854a15.066,15.066,0,0,0-2.575-5.4l-4.5,4.4c2.177,3.609,4.354,7.806.621,11.449C540.7,294.3,536.368,294.61,531.807,290.935Zm9.106-14.073,3.758-3.675c-1.656-1.093-3-.9-3.874-.05s-.629,2.194.141,3.725Zm-1.945,10.762c.927-.9.687-2.161,0-3.692l-3.651,3.568c1.573,1.068,2.831,1,3.675.174Z" transform="translate(-508.959 -248.023)" fill="#ffb951"/>
    </g>
    <g id="Grupo_84816" data-name="Grupo 84816" transform="translate(32.462 171.355)">
      <g id="Grupo_84815" data-name="Grupo 84815">
        <path id="Trazado_141905" data-name="Trazado 141905" d="M94.277,234.119A27.533,27.533,0,1,1,66.4,207,27.533,27.533,0,0,1,94.277,234.119Z" transform="translate(-39.214 -206.997)" fill="#ffc269"/>
        <path id="Trazado_141906" data-name="Trazado 141906" d="M89.084,235.555A20.944,20.944,0,1,1,82.76,220.8a20.977,20.977,0,0,1,6.324,14.752Z" transform="translate(-40.577 -208.35)" fill="#ffa726"/>
        <path id="Trazado_141907" data-name="Trazado 141907" d="M89.027,234.736a11.8,11.8,0,0,1-.588-2.483,22.219,22.219,0,0,0-2.483-6.4,21.928,21.928,0,0,0-2.823-3.775,21.3,21.3,0,0,0-4.139-3.411,19.042,19.042,0,0,0-2.624-1.366,19.87,19.87,0,0,0-2.864-1.018,20.779,20.779,0,0,0-3.088-.6,22.112,22.112,0,0,0-3.237-.116,22.7,22.7,0,0,0-3.212.4,21.154,21.154,0,0,0-3.022.828,20.008,20.008,0,0,0-2.765,1.267,19.3,19.3,0,0,0-2.442,1.581,20.613,20.613,0,0,0-3.858,3.767,21.025,21.025,0,0,0-2.483,4.007,22.351,22.351,0,0,0-1.929,6.623,11.217,11.217,0,0,1-.364,2.55c-.132,0-.281-.911-.257-2.6a19.321,19.321,0,0,1,1.507-7,21.268,21.268,0,0,1,12.036-11.631,22.036,22.036,0,0,1,3.253-.96,23.78,23.78,0,0,1,3.469-.43,22.163,22.163,0,0,1,3.485.132,21.216,21.216,0,0,1,6.4,1.8,19.4,19.4,0,0,1,2.74,1.515,20.919,20.919,0,0,1,7.194,7.881,19.545,19.545,0,0,1,2.127,6.846A6.152,6.152,0,0,1,89.027,234.736Z" transform="translate(-40.528 -208.194)" fill="#bf7d1d"/>
      </g>
      <path id="Trazado_141908" data-name="Trazado 141908" d="M73.149,249.633l.1,3.651-3.262.091-.1-3.551a15.566,15.566,0,0,1-8.187-2.392l1.656-4.031a13.022,13.022,0,0,0,6.382,2.144L69.6,240.1c-3.651-.778-7.724-1.879-7.848-6.54-.091-3.46,2.334-6.49,7.45-7.219l-.1-3.618,3.262-.091.1,3.551a14.809,14.809,0,0,1,6.672,1.813l-1.457,4.048a13.452,13.452,0,0,0-5.033-1.565l.149,5.546c3.642.753,7.649,1.854,7.773,6.449C80.649,245.875,78.248,248.88,73.149,249.633ZM69.5,235.3l-.1-4.627c-1.722.439-2.376,1.4-2.351,2.483s1,1.73,2.45,2.144Zm5.795,7.715c0-1.142-.993-1.738-2.409-2.194l.124,4.5c1.647-.406,2.343-1.267,2.31-2.31Z" transform="translate(-43.085 -209.689)" fill="#ffb951"/>
    </g>
    <path id="Trazado_141909" data-name="Trazado 141909" d="M307.032,64.968A24.2,24.2,0,0,0,286.229,29a23.609,23.609,0,0,0-6.349.828,24.23,24.23,0,0,1,0,46.573,23.618,23.618,0,0,0,18.99-2.8L310.1,77.94Z" transform="translate(-48.191 -4.993)" fill="#ececec"/>
    <path id="Trazado_141910" data-name="Trazado 141910" d="M427.074,447.605c0,.124-78.717.215-175.795.215s-175.82-.091-175.82-.215,78.7-.215,175.82-.215S427.074,447.489,427.074,447.605Z" transform="translate(-12.993 -77.034)" fill="#0b3360"/>
    <g id="Grupo_84850" data-name="Grupo 84850" transform="translate(123.97 48.796)">
      <g id="Grupo_84817" data-name="Grupo 84817" transform="translate(18.232 295.194)">
        <path id="Trazado_141911" data-name="Trazado 141911" d="M186.8,415.54l.679,20.6,5.232,16.142a2.111,2.111,0,0,1-1.5,2.7h0a2.094,2.094,0,0,1-1.879-.439c-3.311-2.839-15.43-13.336-15.4-14.851.041-1.747-2.152-21.68-2.152-21.68Z" transform="translate(-171.78 -415.54)" fill="#36dac9"/>
        <path id="Trazado_141912" data-name="Trazado 141912" d="M191.634,459.722,174.25,443.05l.05.869a3.2,3.2,0,0,0,.869,2.02c1.391,1.457,5.323,5.414,14.487,13.344a2.111,2.111,0,0,0,1.945.439Z" transform="translate(-172.205 -420.277)" fill="#e1e1e1"/>
        <path id="Trazado_141913" data-name="Trazado 141913" d="M178.621,434.71a1.283,1.283,0,0,1,.439,1.656,1.233,1.233,0,0,1-1.656.455,1.349,1.349,0,0,1-.455-1.747,1.275,1.275,0,0,1,1.747-.281" transform="translate(-172.644 -418.816)" fill="#fff"/>
        <path id="Trazado_141914" data-name="Trazado 141914" d="M188.991,452.114c.116.05.522-1.051,1.714-1.7a6.464,6.464,0,0,1,2.343-.588c0-.05-.257-.2-.737-.24a3.378,3.378,0,0,0-3.146,1.772C188.924,451.8,188.908,452.106,188.991,452.114Z" transform="translate(-174.736 -421.402)" fill="#0b3360"/>
        <path id="Trazado_141915" data-name="Trazado 141915" d="M190.917,455.528c.108.083.728-.621,1.772-.985a17.861,17.861,0,0,1,2-.372,2.326,2.326,0,0,0-2.144-.05C191.348,454.543,190.81,455.478,190.917,455.528Z" transform="translate(-175.073 -422.142)" fill="#0b3360"/>
        <path id="Trazado_141916" data-name="Trazado 141916" d="M185.43,448.01a20.581,20.581,0,0,1,2.632-1.705,21.916,21.916,0,0,1,3.013-.886,5.8,5.8,0,0,0-5.646,2.591Z" transform="translate(-174.13 -420.676)" fill="#0b3360"/>
        <path id="Trazado_141917" data-name="Trazado 141917" d="M184.55,440.78c.066.116,1.176-.422,2.649-.555s2.666.149,2.707,0a5.215,5.215,0,0,0-5.356.53Z" transform="translate(-173.979 -419.704)" fill="#0b3360"/>
        <path id="Trazado_141918" data-name="Trazado 141918" d="M184.129,433.489a6.623,6.623,0,0,1,5.5-.116c0-.05-.207-.3-.7-.546a4.528,4.528,0,0,0-2.078-.447,4.644,4.644,0,0,0-2.061.538C184.32,433.183,184.1,433.439,184.129,433.489Z" transform="translate(-173.906 -418.439)" fill="#0b3360"/>
        <path id="Trazado_141919" data-name="Trazado 141919" d="M186.686,430.724a1.763,1.763,0,0,0,0-.778,5.356,5.356,0,0,0-.737-2,2.343,2.343,0,0,0-1.093-1.084.828.828,0,0,0-.944.24,1.416,1.416,0,0,0-.273.944,3,3,0,0,0,2.765,2.616,3.452,3.452,0,0,0,3.311-2,1.208,1.208,0,0,0,0-1,.828.828,0,0,0-.894-.4,3.038,3.038,0,0,0-1.325.786,6.092,6.092,0,0,0-1.308,1.656,1.771,1.771,0,0,0-.281.729,9.628,9.628,0,0,1,1.8-2.161,2.74,2.74,0,0,1,1.159-.654.439.439,0,0,1,.488.215.828.828,0,0,1,0,.654,3.088,3.088,0,0,1-2.881,1.7,2.583,2.583,0,0,1-2.376-2.177,1.018,1.018,0,0,1,.157-.671.464.464,0,0,1,.522-.141,2.111,2.111,0,0,1,.944.9,8.1,8.1,0,0,1,.96,2.624Z" transform="translate(-173.821 -417.479)" fill="#0b3360"/>
      </g>
      <g id="Grupo_84819" data-name="Grupo 84819" transform="translate(57.727 297.703)">
        <g id="Grupo_84818" data-name="Grupo 84818">
          <path id="Trazado_141920" data-name="Trazado 141920" d="M235.119,419.125l-1.068,15.406s15.3,6.258,15.381,9.106l-29.942-.993.679-24.073Z" transform="translate(-219.49 -418.57)" fill="#36dac9"/>
          <path id="Trazado_141921" data-name="Trazado 141921" d="M225.811,435.906a1.225,1.225,0,0,0-.894,1.366,1.176,1.176,0,0,0,1.349.894,1.283,1.283,0,0,0,.935-1.449,1.225,1.225,0,0,0-1.507-.778" transform="translate(-220.422 -421.552)" fill="#e1e1e1"/>
          <path id="Trazado_141922" data-name="Trazado 141922" d="M219.49,447.166l.166-2.426L248.3,446.6s1.316.621,1.134,1.556Z" transform="translate(-219.49 -423.076)" fill="#e1e1e1"/>
          <path id="Trazado_141923" data-name="Trazado 141923" d="M237.091,437.65c0,.149-.737.19-1.474.637s-1.142,1.051-1.275.985.116-.9,1.018-1.424S237.133,437.517,237.091,437.65Z" transform="translate(-222.042 -421.83)" fill="#0b3360"/>
          <path id="Trazado_141924" data-name="Trazado 141924" d="M240.992,439.366c0,.141-.621.373-1.134.969s-.679,1.258-.828,1.242-.207-.828.447-1.573S240.992,439.226,240.992,439.366Z" transform="translate(-222.838 -422.14)" fill="#0b3360"/>
          <path id="Trazado_141925" data-name="Trazado 141925" d="M243.387,443.483c-.132,0-.315-.712.091-1.5s1.093-1.084,1.151-.96-.381.538-.7,1.192S243.528,443.483,243.387,443.483Z" transform="translate(-223.578 -422.432)" fill="#0b3360"/>
          <path id="Trazado_141926" data-name="Trazado 141926" d="M236.851,433.291c-.066.132-.728-.091-1.565-.066s-1.474.273-1.548.141.563-.629,1.54-.646S236.926,433.184,236.851,433.291Z" transform="translate(-221.942 -421.006)" fill="#0b3360"/>
        </g>
        <path id="Trazado_141927" data-name="Trazado 141927" d="M236.759,429.114a2.724,2.724,0,0,1-1.5-.058,6.787,6.787,0,0,1-1.556-.53,7.385,7.385,0,0,1-.828-.488,1.855,1.855,0,0,1-.439-.364.637.637,0,0,1,0-.828.77.77,0,0,1,.646-.306,2.16,2.16,0,0,1,.563.091,5.05,5.05,0,0,1,.919.356,5.225,5.225,0,0,1,1.358.952c.671.662.886,1.217.828,1.242s-.389-.422-1.076-.977a5.91,5.91,0,0,0-2.169-1.093c-.315-.091-.579-.1-.671,0s0,.074,0,.174a1.383,1.383,0,0,0,.323.265,7.9,7.9,0,0,0,.778.48,7.647,7.647,0,0,0,1.432.6A13.368,13.368,0,0,1,236.759,429.114Z" transform="translate(-221.693 -419.942)" fill="#0b3360"/>
        <path id="Trazado_141928" data-name="Trazado 141928" d="M237.376,428.913a2.483,2.483,0,0,1-.348-1.465,4.917,4.917,0,0,1,.257-1.656,5.463,5.463,0,0,1,.414-.9,1.225,1.225,0,0,1,.985-.72.687.687,0,0,1,.613.439,2.228,2.228,0,0,1,.132.555,3.41,3.41,0,0,1,0,1.01,3.46,3.46,0,0,1-.687,1.523c-.613.762-1.233.911-1.242.828a8.227,8.227,0,0,0,.944-1.068,3.46,3.46,0,0,0,.522-1.391,3.055,3.055,0,0,0,0-.828c0-.323-.141-.579-.265-.555a1.055,1.055,0,0,0-.538.472,4.518,4.518,0,0,0-.4.828,5.628,5.628,0,0,0-.348,1.49C237.318,428.342,237.459,428.889,237.376,428.913Z" transform="translate(-222.509 -419.534)" fill="#0b3360"/>
      </g>
      <g id="Grupo_84820" data-name="Grupo 84820" transform="translate(11.791 140.31)">
        <path id="Trazado_141929" data-name="Trazado 141929" d="M164,234.426l4.429,165.6,23.618-.7,5.637-170.538Z" transform="translate(-164 -228.499)" fill="#12263f"/>
        <path id="Trazado_141930" data-name="Trazado 141930" d="M218.225,228.44s17.541,70.2,18.079,82.169-3.75,86.788-3.75,86.788H209.426l1.921-85.2L193.78,240.1l4.255-11.291Z" transform="translate(-169.128 -228.44)" fill="#12263f"/>
        <path id="Trazado_141931" data-name="Trazado 141931" d="M205.124,238.85a.663.663,0,0,1,0,.224v.662c0,.6-.058,1.449-.091,2.483-.108,2.227-.248,5.389-.43,9.28-.4,7.856-.952,18.651-1.565,30.579s-1.258,22.732-1.656,30.588c-.24,3.891-.43,7.045-.563,9.272-.075,1.068-.132,1.9-.174,2.483a5.8,5.8,0,0,1-.058.654.945.945,0,0,1,0,.224.579.579,0,0,1,0-.224v-.654c0-.613.058-1.457.091-2.525.108-2.219.248-5.381.43-9.272.4-7.856.952-18.659,1.565-30.629s1.258-22.724,1.656-30.579c.24-3.891.43-7.045.563-9.272.074-1.068.132-1.9.174-2.483a2.176,2.176,0,0,1,.058-.654A.944.944,0,0,1,205.124,238.85Z" transform="translate(-170.298 -230.232)" fill="#35afea"/>
      </g>
      <g id="Grupo_84832" data-name="Grupo 84832" transform="translate(0 48.125)">
        <path id="Trazado_141932" data-name="Trazado 141932" d="M197.2,119.249s8.584,42.575,8.709,54.578,4.338,35.439,4.338,35.439H173.069l-.828-64.876L169.6,125.035l5.579-7.955Z" transform="translate(-153.173 -117.08)" fill="#f5f5f5"/>
        <g id="Grupo_84825" data-name="Grupo 84825" transform="translate(44.473 3.419)">
          <path id="Trazado_141933" data-name="Trazado 141933" d="M203.48,121.21s8.866,2.608,11.217,5.886c1.846,2.583,4.338,51.565,4.338,51.565l3.808,43.146-3.717-.348-5.281-16.151Z" transform="translate(-203.48 -121.21)" fill="#36dac9"/>
          <path id="Trazado_141934" data-name="Trazado 141934" d="M217,128.32l25.033,22.972,30.828-9.992L279,154.239l-32.864,14.9c-4.7,2-7.641.9-10.9-1.714l-17.243-13.808Z" transform="translate(-205.808 -122.434)" fill="#36dac9"/>
          <g id="Grupo_84824" data-name="Grupo 84824" transform="translate(60.024 21.527)">
            <g id="Grupo_84821" data-name="Grupo 84821" transform="translate(0 1.121)">
              <path id="Trazado_141935" data-name="Trazado 141935" d="M277.285,148.926a.679.679,0,1,1-.911-.273.662.662,0,0,1,.911.273Z" transform="translate(-275.993 -148.569)" fill="#0b3360"/>
              <path id="Trazado_141936" data-name="Trazado 141936" d="M276.685,149.937a.826.826,0,0,1-.2,0,.7.7,0,0,1-.414-.339.654.654,0,0,1-.05-.53.7.7,0,0,1,.339-.414.729.729,0,0,1,.53-.05.712.712,0,0,1,.464.869.729.729,0,0,1-.339.414A.829.829,0,0,1,276.685,149.937Zm0-1.358a.613.613,0,0,0-.306.083.649.649,0,0,0,.116,1.2.646.646,0,0,0,.5-.05.637.637,0,0,0,.323-.381.662.662,0,0,0-.629-.828Z" transform="translate(-275.988 -148.57)" fill="#0b3360"/>
            </g>
            <g id="Grupo_84822" data-name="Grupo 84822" transform="translate(2.607 0.497)">
              <path id="Trazado_141937" data-name="Trazado 141937" d="M280.406,148.175a.679.679,0,0,1-1.192.637.687.687,0,0,1,.281-.919.67.67,0,0,1,.911.281Z" transform="translate(-279.137 -147.814)" fill="#0b3360"/>
              <path id="Trazado_141938" data-name="Trazado 141938" d="M279.855,149.2a.829.829,0,0,1-.2,0,.7.7,0,0,1-.124-1.283.687.687,0,0,1,.53-.05.662.662,0,0,1,.406.339.7.7,0,0,1,.058.53.729.729,0,0,1-.339.414A.828.828,0,0,1,279.855,149.2Zm0-1.358a.588.588,0,0,0-.306.083.654.654,0,0,0-.273.886.67.67,0,0,0,.389.315.654.654,0,0,0,.77-.935.638.638,0,0,0-.389-.315A.489.489,0,0,0,279.855,147.839Z" transform="translate(-279.141 -147.817)" fill="#0b3360"/>
            </g>
            <g id="Grupo_84823" data-name="Grupo 84823" transform="translate(5.041)">
              <path id="Trazado_141939" data-name="Trazado 141939" d="M283.376,147.575a.679.679,0,0,1-1.192.637.687.687,0,0,1,.281-.919.671.671,0,0,1,.911.281Z" transform="translate(-282.083 -147.214)" fill="#0b3360"/>
              <path id="Trazado_141940" data-name="Trazado 141940" d="M282.775,148.6a.829.829,0,0,1-.2,0,.679.679,0,0,1-.414-.339.654.654,0,0,1-.05-.53.712.712,0,0,1,.331-.414.7.7,0,0,1,.944.29h0a.7.7,0,0,1-.281.944A.828.828,0,0,1,282.775,148.6Zm0-1.358a.588.588,0,0,0-.306.083.652.652,0,1,0,.613,1.151.654.654,0,0,0,.273-.886h0a.671.671,0,0,0-.579-.348Z" transform="translate(-282.079 -147.217)" fill="#0b3360"/>
            </g>
          </g>
          <path id="Trazado_141941" data-name="Trazado 141941" d="M284.85,144.609l2.384-.869,5.472,11.523-2.334.993Z" transform="translate(-217.491 -125.089)" fill="#e1e1e1"/>
          <path id="Trazado_141942" data-name="Trazado 141942" d="M217.991,139.28a8.954,8.954,0,0,1,.141,1.291c.091.9.215,2.086.356,3.51.348,3.038.828,7.086,1.308,11.589s.9,8.626,1.093,11.589c.1,1.49.141,2.7.149,3.535a7.2,7.2,0,0,1-.041,1.291,6.8,6.8,0,0,1-.124-1.291c-.066-.828-.149-2.028-.29-3.51-.265-2.964-.712-7.061-1.209-11.589s-.944-8.618-1.184-11.589c-.124-1.482-.2-2.69-.224-3.526A6.623,6.623,0,0,1,217.991,139.28Z" transform="translate(-205.971 -124.321)" fill="#0b3360"/>
          <path id="Trazado_141943" data-name="Trazado 141943" d="M223.861,146.23A46.934,46.934,0,0,1,222.3,152.4a46.607,46.607,0,0,1-1.987,6.051,46.613,46.613,0,0,1,1.573-6.167,46.437,46.437,0,0,1,1.979-6.051Z" transform="translate(-206.378 -125.518)" fill="#0b3360"/>
          <path id="Trazado_141944" data-name="Trazado 141944" d="M246.8,163.8a2.73,2.73,0,0,1-.555-1.093,7.922,7.922,0,0,1,.364-5.795c.331-.687.646-1.043.687-1.018a15.414,15.414,0,0,0-.993,3.924,15.033,15.033,0,0,0,.5,3.982Z" transform="translate(-210.778 -127.181)" fill="#0b3360"/>
        </g>
        <g id="Grupo_84831" data-name="Grupo 84831" transform="translate(0 0.927)">
          <path id="Trazado_141945" data-name="Trazado 141945" d="M243.249,197.59l3.2.24L245.178,211.2l-3.088-.348Z" transform="translate(-165.655 -131.87)" fill="#e1e1e1"/>
          <g id="Grupo_84830" data-name="Grupo 84830">
            <path id="Trazado_141946" data-name="Trazado 141946" d="M171.8,118.2l-17.276,11.01a11.242,11.242,0,0,0-4.189,12.732l13.245,41.631L158.8,221.4l37.856-1.606-.919-16.556-3.212-29.669a59.479,59.479,0,0,0-4.065-16.018Z" transform="translate(-149.756 -118.2)" fill="#36dac9"/>
            <path id="Trazado_141947" data-name="Trazado 141947" d="M154.317,146.423,171.6,182.582a10.679,10.679,0,0,0,7.185,5.795l47.947,11.333,1.225-13.957-36.606-13.767-18.411-35.331a10.505,10.505,0,0,0-14.743-4.139h0a10.5,10.5,0,0,0-3.882,13.907Z" transform="translate(-150.332 -120.405)" fill="#36dac9"/>
            <path id="Trazado_141948" data-name="Trazado 141948" d="M228.918,185.944a.554.554,0,0,1-.2-.05l-.571-.2-2.169-.778-8.03-2.947L190.9,171.854h-.083v-.075c-1.026-2.02-2.094-4.139-3.187-6.308-3-5.853-5.993-11.349-8.791-16.316-1.391-2.483-2.74-4.826-4.015-7.012-.646-1.093-1.267-2.152-1.854-3.162-.3-.513-.6-1-.911-1.457a11.251,11.251,0,0,0-.985-1.308,11.531,11.531,0,0,0-4.594-3.311,10.538,10.538,0,0,0-4.255-.753,7.45,7.45,0,0,0-3.551.952,2.376,2.376,0,0,1,.2-.149,4.4,4.4,0,0,1,.637-.348,7.533,7.533,0,0,1,2.707-.621,10.414,10.414,0,0,1,4.346.7,11.672,11.672,0,0,1,4.743,3.369,10.981,10.981,0,0,1,1.018,1.325c.323.472.629.96.927,1.465L175.127,142c1.291,2.177,2.649,4.52,4.056,7,2.823,4.967,5.795,10.455,8.825,16.308,1.109,2.152,2.177,4.288,3.187,6.316l-.116-.1,27.012,10.248,7.98,3.071,2.144.828.546.232Z" transform="translate(-151.291 -120.571)" fill="#0b3360"/>
            <g id="Grupo_84829" data-name="Grupo 84829" transform="translate(68.108 73.377)">
              <g id="Grupo_84826" data-name="Grupo 84826">
                <path id="Trazado_141949" data-name="Trazado 141949" d="M233.4,207.541a.675.675,0,1,1-.671-.671.671.671,0,0,1,.671.671Z" transform="translate(-232.033 -206.845)" fill="#0b3360"/>
                <path id="Trazado_141950" data-name="Trazado 141950" d="M232.725,208.231a.7.7,0,1,1,.7-.7A.7.7,0,0,1,232.725,208.231Zm0-1.349a.654.654,0,1,0,.654.654.654.654,0,0,0-.654-.654Z" transform="translate(-232.03 -206.84)" fill="#0b3360"/>
              </g>
              <g id="Grupo_84827" data-name="Grupo 84827" transform="translate(2.583 0.679)">
                <path id="Trazado_141951" data-name="Trazado 141951" d="M236.5,208.359a.671.671,0,0,1-.671.671.675.675,0,1,1,.671-.671Z" transform="translate(-235.15 -207.663)" fill="#0b3360"/>
                <path id="Trazado_141952" data-name="Trazado 141952" d="M235.855,209.051a.7.7,0,1,1,.7-.7.7.7,0,0,1-.7.7Zm0-1.349a.654.654,0,1,0,.654.654.654.654,0,0,0-.654-.654Z" transform="translate(-235.152 -207.66)" fill="#0b3360"/>
              </g>
              <g id="Grupo_84828" data-name="Grupo 84828" transform="translate(4.967 1.399)">
                <circle id="Elipse_6774" data-name="Elipse 6774" cx="0.679" cy="0.679" r="0.679" transform="translate(0.017 0.017)" fill="#0b3360"/>
                <path id="Trazado_141953" data-name="Trazado 141953" d="M238.725,209.921a.7.7,0,1,1,.7-.7.7.7,0,0,1-.7.7Zm0-1.349a.654.654,0,1,0,.654.654A.654.654,0,0,0,238.725,208.571Z" transform="translate(-238.03 -208.53)" fill="#0b3360"/>
              </g>
            </g>
            <path id="Trazado_141954" data-name="Trazado 141954" d="M227.693,204.346a.7.7,0,0,1-.232,0l-.679-.149-2.583-.621-9.478-2.334c-8-1.962-19.04-4.743-31.308-7.583-1.531-.364-3.055-.654-4.545-1.06a9.984,9.984,0,0,1-4.1-2.053,11.879,11.879,0,0,1-2.483-3.634l-1.813-3.783-6.2-13.088-4.139-8.841c-.472-1.026-.828-1.829-1.109-2.417-.108-.257-.207-.464-.273-.629a.621.621,0,0,1-.083-.224.96.96,0,0,1,.124.207c.083.157.182.364.315.613l1.175,2.376,4.272,8.783,6.283,13.046,1.821,3.775a11.589,11.589,0,0,0,2.426,3.5,9.611,9.611,0,0,0,3.932,1.954c1.457.389,3,.687,4.528,1.051,12.26,2.839,23.295,5.671,31.283,7.707l9.445,2.483,2.566.7.662.2Z" transform="translate(-151.291 -125.041)" fill="#0b3360"/>
            <path id="Trazado_141955" data-name="Trazado 141955" d="M191.633,211.3a6.151,6.151,0,0,1-.571.48c-.381.29-.952.687-1.656,1.167a26.838,26.838,0,0,1-5.952,3.1,13.61,13.61,0,0,1-6.672.662,8.4,8.4,0,0,1-1.97-.563,2.1,2.1,0,0,1-.662-.356,22.029,22.029,0,0,0,2.674.621,14.5,14.5,0,0,0,6.49-.778,32.393,32.393,0,0,0,5.935-2.939,18.684,18.684,0,0,1,2.384-1.391Z" transform="translate(-153.956 -134.23)" fill="#0b3360"/>
            <path id="Trazado_141956" data-name="Trazado 141956" d="M193.64,217.09a1.01,1.01,0,0,1,.124.315,8,8,0,0,1,.215.927,10.158,10.158,0,0,1,0,3.51,10.436,10.436,0,0,1-13.841,8,10.761,10.761,0,0,1-4.3-2.939,10.2,10.2,0,0,1-1.846-2.98,5.968,5.968,0,0,1-.29-.911,1.158,1.158,0,0,1-.066-.331,12.906,12.906,0,0,0,2.434,4.023,10.563,10.563,0,0,0,4.205,2.765,10.364,10.364,0,0,0,11.242-3.137,10.662,10.662,0,0,0,2.161-4.553,12.508,12.508,0,0,0-.041-4.694Z" transform="translate(-153.869 -135.227)" fill="#0b3360"/>
          </g>
        </g>
      </g>
      <g id="Grupo_84841" data-name="Grupo 84841" transform="translate(18.825)">
        <g id="Grupo_84840" data-name="Grupo 84840">
          <g id="Grupo_84839" data-name="Grupo 84839" transform="translate(0 1.039)">
            <g id="Grupo_84833" data-name="Grupo 84833" transform="translate(5.06)">
              <path id="Trazado_141957" data-name="Trazado 141957" d="M178.618,75.258l.116,30.844a9.172,9.172,0,0,0,9.661,9.106h0a9.172,9.172,0,0,0,8.684-9.214c0-2.318,0-4.255,0-4.5,0,0,7.856-.77,8.394-8.543.257-3.75.166-11.54,0-18.576A14.512,14.512,0,0,0,191.78,60.241l-.745-.041C182.915,60.233,178.386,67.137,178.618,75.258Z" transform="translate(-178.61 -60.2)" fill="#c78976"/>
              <path id="Trazado_141958" data-name="Trazado 141958" d="M198.923,109.28a18.212,18.212,0,0,1-9.983-3.46s2.078,5.728,9.884,5.472Z" transform="translate(-180.388 -68.055)" fill="#bf654e"/>
            </g>
            <g id="Grupo_84837" data-name="Grupo 84837" transform="translate(13.315 13.249)">
              <g id="Grupo_84836" data-name="Grupo 84836" transform="translate(0.592 2.679)">
                <g id="Grupo_84834" data-name="Grupo 84834" transform="translate(11.896 0.242)">
                  <path id="Trazado_141959" data-name="Trazado 141959" d="M208.269,82.668a1.109,1.109,0,0,1-1.134,1.06,1.06,1.06,0,0,1-1.084-1.068,1.109,1.109,0,0,1,1.134-1.06,1.06,1.06,0,0,1,1.084,1.068Z" transform="translate(-204.079 -80.054)" fill="#0b3360"/>
                  <path id="Trazado_141960" data-name="Trazado 141960" d="M208.082,81.03c-.149.141-.952-.53-2.152-.6s-2.1.48-2.227.331.1-.323.5-.579a3.08,3.08,0,0,1,1.8-.447,2.922,2.922,0,0,1,1.7.662C208.082,80.7,208.157,80.972,208.082,81.03Z" transform="translate(-203.669 -79.733)" fill="#0b3360"/>
                </g>
                <g id="Grupo_84835" data-name="Grupo 84835">
                  <path id="Trazado_141961" data-name="Trazado 141961" d="M194.235,82.548a1.109,1.109,0,0,1-1.134,1.06,1.051,1.051,0,0,1-1.1-1.06,1.109,1.109,0,0,1,1.134-1.068,1.06,1.06,0,0,1,1.1,1.068Z" transform="translate(-189.763 -79.792)" fill="#0b3360"/>
                  <path id="Trazado_141962" data-name="Trazado 141962" d="M193.7,80.732c-.141.141-.952-.53-2.144-.6s-2.1.488-2.227.331.091-.323.488-.579a3.038,3.038,0,0,1,1.8-.439,2.9,2.9,0,0,1,1.7.654C193.67,80.384,193.778,80.649,193.7,80.732Z" transform="translate(-189.298 -79.441)" fill="#0b3360"/>
                </g>
                <path id="Trazado_141963" data-name="Trazado 141963" d="M199.2,90.252a7.864,7.864,0,0,1,1.962-.24c.306,0,.6-.058.662-.265a1.606,1.606,0,0,0-.149-.919c-.248-.753-.5-1.548-.77-2.376-1.068-3.377-1.821-6.151-1.656-6.192s1.118,2.666,2.177,6.043c.257.828.5,1.656.737,2.392a1.821,1.821,0,0,1,.091,1.2.828.828,0,0,1-.53.422,2,2,0,0,1-.522,0A7.757,7.757,0,0,1,199.2,90.252Z" transform="translate(-191.003 -79.582)" fill="#0b3360"/>
              </g>
              <path id="Trazado_141964" data-name="Trazado 141964" d="M194.069,77.784c-.141.315-1.325.1-2.74.182s-2.566.406-2.732.108c-.074-.141.132-.439.613-.728a4.479,4.479,0,0,1,2.061-.588,4.528,4.528,0,0,1,2.1.364C193.895,77.346,194.127,77.619,194.069,77.784Z" transform="translate(-188.582 -76.298)" fill="#0b3360"/>
              <path id="Trazado_141965" data-name="Trazado 141965" d="M208.036,77.575c-.232.257-1.035-.074-2.028-.141s-1.838.074-2.012-.215c-.075-.149.066-.414.447-.646a2.8,2.8,0,0,1,1.656-.356,2.931,2.931,0,0,1,1.589.637C208.036,77.161,208.135,77.443,208.036,77.575Z" transform="translate(-191.233 -76.205)" fill="#0b3360"/>
            </g>
            <g id="Grupo_84838" data-name="Grupo 84838" transform="translate(0 20.5)">
              <path id="Trazado_141966" data-name="Trazado 141966" d="M177.88,85.317c-.124-.066-5.248-1.887-5.381,3.444s5.24,4.363,5.257,4.205S177.88,85.317,177.88,85.317Z" transform="translate(-172.497 -84.964)" fill="#c78976"/>
              <path id="Trazado_141967" data-name="Trazado 141967" d="M176.444,91.268a1.7,1.7,0,0,1-.257.124.919.919,0,0,1-.687,0,2.31,2.31,0,0,1-1.018-2.086,3.088,3.088,0,0,1,.3-1.325,1.068,1.068,0,0,1,.712-.7.472.472,0,0,1,.546.273c.066.149,0,.248.058.265s.116-.091.075-.306a.546.546,0,0,0-.2-.339.7.7,0,0,0-.5-.149,1.291,1.291,0,0,0-.993.828,3.088,3.088,0,0,0-.356,1.482,2.392,2.392,0,0,0,1.291,2.334.985.985,0,0,0,.828-.124C176.428,91.392,176.5,91.276,176.444,91.268Z" transform="translate(-172.775 -85.319)" fill="#bf654e"/>
            </g>
          </g>
          <path id="Trazado_141968" data-name="Trazado 141968" d="M175.312,80.514a2.806,2.806,0,0,1,2.483,1.457c.3.778.323,1.656.629,2.425a1.887,1.887,0,0,0,1.863,1.366,1.656,1.656,0,0,0,1.175-1.151,4.462,4.462,0,0,0,.116-1.722c-.174-2.483-.555-4.967-.513-7.5a12.765,12.765,0,0,1,1.987-7.144,6.987,6.987,0,0,1,6.416-3.137c1.656.224,3.113,1.175,4.743,1.5a6.531,6.531,0,0,0,5.5-1.5l.257-.182a1.44,1.44,0,0,0,.613-1.656,1.539,1.539,0,0,0-.29-.53c-3.088-3.2-8.907-4.371-13.245-3.535A15.513,15.513,0,0,0,176.4,66.78c-2.1,3.924-1.871,9.594-1.084,13.733" transform="translate(-172.884 -58.945)" fill="#0b3360"/>
        </g>
        <path id="Trazado_141969" data-name="Trazado 141969" d="M195.749,93.46c.19,0,.2,1.283,1.308,2.2s2.483.778,2.483.96-.306.248-.886.265a3.237,3.237,0,0,1-2.086-.72,2.8,2.8,0,0,1-1.01-1.854C195.517,93.775,195.658,93.452,195.749,93.46Z" transform="translate(-176.467 -64.888)" fill="#0b3360"/>
      </g>
      <g id="Grupo_84844" data-name="Grupo 84844" transform="translate(112.495 66.513)">
        <g id="Grupo_84842" data-name="Grupo 84842">
          <path id="Trazado_141970" data-name="Trazado 141970" d="M285.65,145.16s5.795-5.132,6.937-5.5,9.884-.538,10.48-.1,9.487,5.315,8.013,6.068-7.641-2.748-7.641-2.748l-1.035.132s5.372,2.873,6.333,3.982,0,2.235-.969,1.772-5.621-3.137-5.985-3.03,4.926,3.187,5.406,3.758c.654.77.232,2.26-.778,1.829-.6-.248-5.472-3.477-5.472-3.477a47.361,47.361,0,0,1,3.94,3.6c.43.828-.389,1.581-1.242,1.06-.579-.356-3.088-2.823-3.866-3.311,0,0-.828-.066-2.136,1.283s-6.267,3.212-6.267,3.212Z" transform="translate(-285.65 -139.293)" fill="#c78976"/>
          <path id="Trazado_141971" data-name="Trazado 141971" d="M313.811,146.354a4.818,4.818,0,0,1-1.887-.124,10.53,10.53,0,0,1-1.979-.588c-.7-.331-1.44-.712-2.235-1.118l-1.656-.828h.108a26.414,26.414,0,0,1-4.512-.132,27.742,27.742,0,0,1,4.512-.315h.108l1.656.828,2.2,1.142a13.293,13.293,0,0,0,1.879.662A9.321,9.321,0,0,1,313.811,146.354Z" transform="translate(-288.405 -139.974)" fill="#bf654e"/>
        </g>
        <g id="Grupo_84843" data-name="Grupo 84843" transform="translate(2.099 3.267)">
          <path id="Trazado_141972" data-name="Trazado 141972" d="M288.27,147.328a2,2,0,0,0,2.194.753c.828-.174,1.548-.613,2.343-.828,2.392-.7,5.05.588,7.4-.215.323-.116.7-.356.654-.7s-.4-.472-.7-.571l-7.839-2.483" transform="translate(-288.2 -143.247)" fill="#c78976"/>
          <path id="Trazado_141973" data-name="Trazado 141973" d="M292.3,143.24a3.062,3.062,0,0,1,.828.182c.555.149,1.358.373,2.343.662l3.444,1.051.993.306c.306.124.762.141,1.06.629a.687.687,0,0,1-.124.77,1.366,1.366,0,0,1-.563.373,5.8,5.8,0,0,1-1.184.265,31.682,31.682,0,0,1-4.429-.24,6.282,6.282,0,0,0-1.846.174c-.563.149-1.068.4-1.556.571a2.889,2.889,0,0,1-2.483,0c-.538-.306-.621-.687-.6-.679a2.384,2.384,0,0,0,.679.513,2.814,2.814,0,0,0,2.252-.157,15.824,15.824,0,0,1,1.573-.637,6.316,6.316,0,0,1,1.962-.232,37.323,37.323,0,0,0,4.371.2,4.891,4.891,0,0,0,1.068-.232c.323-.116.538-.348.439-.5a1.613,1.613,0,0,0-.778-.4l-.96-.331-3.419-1.142c-.969-.331-1.747-.613-2.285-.828a2.972,2.972,0,0,1-.786-.315Z" transform="translate(-288.185 -143.24)" fill="#bf654e"/>
        </g>
      </g>
      <path id="Trazado_141974" data-name="Trazado 141974" d="M244.942,197.8l9.677-.96s12.8,8.767,11.589,10.7-3.311,0-3.311,0,2.276,2.806-1.4,3.684c0,0-.877,1.929-2.285,1.747h-.869s-.828,2.483-1.978,1.912a46.563,46.563,0,0,1-4.752-3.675l-9.934-.877Z" transform="translate(-165.584 -82.689)" fill="#c78976"/>
      <path id="Trazado_141975" data-name="Trazado 141975" d="M252.18,209.971s-2.483.952-3,1.945-.828,3.311.786,3.775a14.577,14.577,0,0,0,2.815-.091l-.613-2.608a17.62,17.62,0,0,1,1.482-1.523C254.184,211.055,253.6,209.333,252.18,209.971Z" transform="translate(-166.805 -84.926)" fill="#ffbf9d"/>
      <path id="Trazado_141976" data-name="Trazado 141976" d="M255.59,211.6s-2.483.952-3,1.945a2.194,2.194,0,0,0,1.424,3.1,11.332,11.332,0,0,0,2.558-.091l-.257-.5c-.5-.977-.72-1.763.166-2.417a5.8,5.8,0,0,0,.579-.538,1.076,1.076,0,0,0-1.474-1.49Z" transform="translate(-167.424 -85.202)" fill="#ffbf9d"/>
      <path id="Trazado_141977" data-name="Trazado 141977" d="M256.918,216.908a1.415,1.415,0,0,1-.2-1.7,2.31,2.31,0,0,1,1.449-1.06,1.068,1.068,0,0,1,1.134.182.944.944,0,0,1,.157.745,3.916,3.916,0,0,1-.969,1.813c-.232.29-.513.6-.886.6s-.646-.356-.828-.671" transform="translate(-168.14 -85.654)" fill="#ffbf9d"/>
      <g id="Grupo_84849" data-name="Grupo 84849" transform="translate(21.75 43.82)">
        <g id="Grupo_84847" data-name="Grupo 84847" transform="translate(13.286 8.593)">
          <path id="Trazado_141978" data-name="Trazado 141978" d="M193.5,123.08l2.177-.82,1.887,3.369-1.051,3.593-2.219.555-2.21-2.79Z" transform="translate(-192.08 -122.26)" fill="#36dac9"/>
          <path id="Trazado_141979" data-name="Trazado 141979" d="M194.75,131.218s2.815,15.488,5.166,26.382c0,0,1.921,9.106,2.707,11.159a30.7,30.7,0,0,0,3.543,5.795l2.732,1.06L207.242,160.3,196.985,130.63Z" transform="translate(-192.54 -123.701)" fill="#36dac9"/>
          <g id="Grupo_84845" data-name="Grupo 84845" opacity="0.4">
            <path id="Trazado_141980" data-name="Trazado 141980" d="M193.5,123.08l2.177-.82,1.887,3.369-1.051,3.593-2.219.555-2.21-2.79Z" transform="translate(-192.08 -122.26)"/>
          </g>
          <g id="Grupo_84846" data-name="Grupo 84846" transform="translate(2.21 6.929)" opacity="0.4">
            <path id="Trazado_141981" data-name="Trazado 141981" d="M194.75,131.218s2.815,15.488,5.166,26.382c0,0,2.2,8.982,2.707,11.159.29,1.283,3.543,5.795,3.543,5.795l2.732,1.06L207.242,160.3,196.985,130.63Z" transform="translate(-194.75 -130.63)"/>
          </g>
        </g>
        <g id="Grupo_84848" data-name="Grupo 84848">
          <path id="Trazado_141982" data-name="Trazado 141982" d="M177.677,111.88l13.055,9.412-2.823,7.765L176.03,116.822Z" transform="translate(-176.03 -111.88)" fill="#f5f5f5"/>
          <path id="Trazado_141983" data-name="Trazado 141983" d="M196.42,120.566l3.651-8.146,2.061,6.714-2.864,7.061Z" transform="translate(-179.541 -111.973)" fill="#f5f5f5"/>
          <path id="Trazado_141984" data-name="Trazado 141984" d="M190.791,122.2a1.879,1.879,0,0,1-.141.6l-.53,1.656c-.472,1.391-1.151,3.311-1.962,5.613l-.108.323-.232-.257-3.046-3.311c-2.359-2.624-4.487-5.017-6.01-6.763l-1.78-2.086a4.553,4.553,0,0,1-.613-.828,4.553,4.553,0,0,1,.737.687c.5.538,1.134,1.209,1.887,2,1.573,1.7,3.733,4.056,6.1,6.68l3.022,3.377-.339.066c.828-2.268,1.573-4.2,2.111-5.563.248-.621.455-1.142.637-1.581A2.376,2.376,0,0,1,190.791,122.2Z" transform="translate(-176.089 -112.786)" fill="#0b3360"/>
          <path id="Trazado_141985" data-name="Trazado 141985" d="M202.141,120.53a9.154,9.154,0,0,1-.6,1.912c-.43,1.151-1.051,2.74-1.755,4.478l-.306.753-.215.522-.182-.53a36.008,36.008,0,0,0-2.608-5.348,5.4,5.4,0,0,1,1.093,1.358,17.551,17.551,0,0,1,1.912,3.866h-.4l.306-.745c.7-1.747,1.366-3.311,1.871-4.437a10.169,10.169,0,0,1,.886-1.829Z" transform="translate(-179.549 -113.369)" fill="#0b3360"/>
        </g>
      </g>
    </g>
    <g id="Grupo_84871" data-name="Grupo 84871" transform="translate(209.345 46.828)">
      <g id="Grupo_84853" data-name="Grupo 84853" transform="translate(110.853 298.081)">
        <path id="Trazado_141986" data-name="Trazado 141986" d="M400.939,416.65l5.066,19.983,8.543,14.661a2.111,2.111,0,0,1-.886,2.955h0a2.086,2.086,0,0,1-1.937,0c-3.833-2.07-17.906-9.752-18.212-11.233-.331-1.714-6.714-20.7-6.714-20.7Z" transform="translate(-386.8 -416.65)" fill="#36dac9"/>
        <g id="Grupo_84851" data-name="Grupo 84851" transform="translate(6.333 24.992)" opacity="0.6">
          <path id="Trazado_141987" data-name="Trazado 141987" d="M414.947,459.448l-20.5-12.608.232.828a3.171,3.171,0,0,0,1.275,1.788c1.656,1.126,6.349,4.139,17,9.934a2.1,2.1,0,0,0,1.995,0Z" transform="translate(-394.45 -446.84)" fill="#fff"/>
        </g>
        <g id="Grupo_84852" data-name="Grupo 84852" transform="translate(7.05 17.401)" opacity="0.6">
          <path id="Trazado_141988" data-name="Trazado 141988" d="M396.9,437.728a1.267,1.267,0,0,1,.778,1.515,1.225,1.225,0,0,1-1.49.786,1.349,1.349,0,0,1-.828-1.606,1.275,1.275,0,0,1,1.656-.654" transform="translate(-395.316 -437.67)" fill="#fff"/>
        </g>
        <path id="Trazado_141989" data-name="Trazado 141989" d="M410.81,452.436a4.553,4.553,0,0,1,3.485-3.1c0-.05-.29-.141-.778-.075a3.237,3.237,0,0,0-1.656.828,3.311,3.311,0,0,0-1,1.589C410.71,452.129,410.76,452.436,410.81,452.436Z" transform="translate(-390.926 -422.262)" fill="#0b3360"/>
        <path id="Trazado_141990" data-name="Trazado 141990" d="M413.415,455.369c.116.058.579-.762,1.523-1.341a18.039,18.039,0,0,1,1.871-.828,2.343,2.343,0,0,0-2.111.406C413.622,454.309,413.3,455.344,413.415,455.369Z" transform="translate(-391.379 -422.927)" fill="#0b3360"/>
        <path id="Trazado_141991" data-name="Trazado 141991" d="M406.5,449.085a21.4,21.4,0,0,1,2.21-2.227,20.981,20.981,0,0,1,2.757-1.5A5.8,5.8,0,0,0,406.5,449.085Z" transform="translate(-390.192 -421.593)" fill="#0b3360"/>
        <path id="Trazado_141992" data-name="Trazado 141992" d="M404,442.3c.083.1,1.06-.662,2.483-1.109s2.641-.414,2.649-.546a4.023,4.023,0,0,0-2.781.116A4.089,4.089,0,0,0,404,442.3Z" transform="translate(-389.762 -420.747)" fill="#0b3360"/>
        <path id="Trazado_141993" data-name="Trazado 141993" d="M402.068,435.26a6.714,6.714,0,0,1,5.364-1.283c0-.05-.265-.24-.828-.372a4.6,4.6,0,0,0-4.031.96C402.2,434.929,402.01,435.227,402.068,435.26Z" transform="translate(-389.427 -419.548)" fill="#0b3360"/>
        <path id="Trazado_141994" data-name="Trazado 141994" d="M403.977,432.018a1.714,1.714,0,0,0-.182-.753,5.323,5.323,0,0,0-1.142-1.8,2.409,2.409,0,0,0-1.291-.828.828.828,0,0,0-.877.43,1.407,1.407,0,0,0-.066.985,3,3,0,0,0,3.262,1.97,3.452,3.452,0,0,0,2.79-2.657,1.176,1.176,0,0,0-.207-.977.828.828,0,0,0-.96-.19,2.922,2.922,0,0,0-1.118,1.043,6.052,6.052,0,0,0-.927,1.912,1.912,1.912,0,0,0-.116.778,9.412,9.412,0,0,1,1.3-2.483,2.756,2.756,0,0,1,.993-.886.455.455,0,0,1,.522.1.828.828,0,0,1,.108.654,3.079,3.079,0,0,1-2.483,2.268,2.591,2.591,0,0,1-2.79-1.656.969.969,0,0,1,0-.687.455.455,0,0,1,.48-.248,2.177,2.177,0,0,1,1.109.679,8.006,8.006,0,0,1,1.6,2.351Z" transform="translate(-389.135 -418.624)" fill="#0b3360"/>
      </g>
      <g id="Grupo_84855" data-name="Grupo 84855" transform="translate(48.237 301.252)">
        <g id="Grupo_84854" data-name="Grupo 84854">
          <path id="Trazado_141995" data-name="Trazado 141995" d="M325.493,421.035l1.068,15.406s-15.3,6.258-15.381,9.106l29.942-.993-.679-24.073Z" transform="translate(-311.163 -420.48)" fill="#36dac9"/>
          <path id="Trazado_141996" data-name="Trazado 141996" d="M340.6,437.816a1.225,1.225,0,0,1,.894,1.366,1.184,1.184,0,0,1-1.349.9,1.291,1.291,0,0,1-.935-1.457,1.225,1.225,0,0,1,1.507-.778" transform="translate(-315.985 -423.462)" fill="#e1e1e1"/>
          <path id="Trazado_141997" data-name="Trazado 141997" d="M341.118,449.075l-.166-2.425-28.642,1.863s-1.316.621-1.134,1.556Z" transform="translate(-311.159 -424.986)" fill="#e1e1e1"/>
          <path id="Trazado_141998" data-name="Trazado 141998" d="M329.17,439.568c0,.141.737.182,1.474.629s1.142,1.051,1.275.985-.116-.894-1.018-1.424S329.128,439.436,329.17,439.568Z" transform="translate(-314.26 -423.74)" fill="#0b3360"/>
          <path id="Trazado_141999" data-name="Trazado 141999" d="M325.42,441.276c0,.141.613.373,1.134.977s.679,1.25.828,1.233.207-.828-.447-1.573S325.42,441.136,325.42,441.276Z" transform="translate(-313.615 -424.05)" fill="#0b3360"/>
          <path id="Trazado_142000" data-name="Trazado 142000" d="M323.161,445.383c.132,0,.315-.7-.091-1.5s-1.093-1.084-1.151-.96.381.538.7,1.192S323.012,445.375,323.161,445.383Z" transform="translate(-313.011 -424.34)" fill="#0b3360"/>
          <path id="Trazado_142001" data-name="Trazado 142001" d="M329.339,435.2c.066.132.728-.091,1.556-.058s1.482.265,1.556.132-.563-.629-1.54-.646S329.264,435.094,329.339,435.2Z" transform="translate(-314.288 -422.916)" fill="#0b3360"/>
        </g>
        <path id="Trazado_142002" data-name="Trazado 142002" d="M329.15,431.033a2.723,2.723,0,0,0,1.5-.058,6.416,6.416,0,0,0,1.556-.53,7.4,7.4,0,0,0,.828-.488,1.853,1.853,0,0,0,.439-.364.629.629,0,0,0,.041-.778.753.753,0,0,0-.646-.315,2.158,2.158,0,0,0-.563.091,5.729,5.729,0,0,0-.919.356,5.43,5.43,0,0,0-1.358.952c-.671.671-.894,1.217-.828,1.25s.389-.422,1.076-.977a5.794,5.794,0,0,1,1.316-.828,5.152,5.152,0,0,1,.828-.29c.315-.1.579-.108.671,0s0,.075,0,.166a1.654,1.654,0,0,1-.323.273,7.8,7.8,0,0,1-.778.472,7.892,7.892,0,0,1-1.432.6,13.376,13.376,0,0,0-1.407.464Z" transform="translate(-314.257 -421.861)" fill="#0b3360"/>
        <path id="Trazado_142003" data-name="Trazado 142003" d="M328.955,430.832a2.484,2.484,0,0,0,.348-1.465,4.968,4.968,0,0,0-.257-1.656,5.463,5.463,0,0,0-.414-.861,1.233,1.233,0,0,0-.985-.72.712.712,0,0,0-.613.439,1.911,1.911,0,0,0-.132.555,3.409,3.409,0,0,0,0,1.01,3.46,3.46,0,0,0,.687,1.523c.613.762,1.233.911,1.242.828a8.223,8.223,0,0,1-.944-1.068,3.41,3.41,0,0,1-.522-1.391,2.782,2.782,0,0,1,0-.869c0-.323.141-.579.265-.555a1.04,1.04,0,0,1,.538.48,4.191,4.191,0,0,1,.4.828,5.628,5.628,0,0,1,.348,1.49C329.013,430.261,328.872,430.815,328.955,430.832Z" transform="translate(-313.863 -421.453)" fill="#0b3360"/>
      </g>
      <g id="Grupo_84856" data-name="Grupo 84856" transform="translate(54.396 134.232)">
        <path id="Trazado_142004" data-name="Trazado 142004" d="M318.6,218.72l4.818,179.272,23.618-.712-1.813-153.858,30.1,158.137,21.333-5.571L369.113,219.059Z" transform="translate(-318.6 -218.72)" fill="#024e73"/>
        <path id="Trazado_142005" data-name="Trazado 142005" d="M334.185,401.035c-.116,0-.215-37.161-.215-82.988s.1-83,.215-83,.224,37.152.224,83S334.309,401.035,334.185,401.035Z" transform="translate(-321.246 -221.532)" fill="#35afea"/>
        <path id="Trazado_142006" data-name="Trazado 142006" d="M390.221,406.405c-.116,0-5.637-35.6-12.326-79.57S365.884,247.217,366,247.2s5.637,35.6,12.326,79.578S390.337,406.389,390.221,406.405Z" transform="translate(-326.761 -223.624)" fill="#35afea"/>
      </g>
      <g id="Grupo_84865" data-name="Grupo 84865" transform="translate(55.708)">
        <path id="Trazado_142007" data-name="Trazado 142007" d="M352.722,78.7a37.255,37.255,0,0,0,2-5.7c.281-1.49.728-3.725.132-5.116a3.574,3.574,0,0,0-3.874-2.343,8.626,8.626,0,0,0-4.967-6.78,21.978,21.978,0,0,0-8.278-2.152,7.028,7.028,0,0,0-3.1.389A4,4,0,0,0,332.764,59a6.879,6.879,0,0,0-6.109-.977c-2.276.621-4.876,1.854-5.878,3.99a6.672,6.672,0,0,0-.182,5.05c.447,1.4,1.921,3.584,3.311,3.071" transform="translate(-320.185 -56.568)" fill="#0b3360"/>
        <g id="Grupo_84864" data-name="Grupo 84864" transform="translate(1.23 6.118)">
          <g id="Grupo_84863" data-name="Grupo 84863" transform="translate(1.92 1.883)">
            <g id="Grupo_84857" data-name="Grupo 84857">
              <path id="Trazado_142008" data-name="Trazado 142008" d="M341.863,119.02h0a10.232,10.232,0,0,1-10.008-10.762c.149-2.856.281-5.166.281-5.166s-7.8-1.01-8.088-8.775.6-25.621.6-25.621h0a27,27,0,0,1,27.194,2.732l1.176.828-.729,36.689a10.224,10.224,0,0,1-10.43,10.075Z" transform="translate(-323.99 -66.234)" fill="#ffbf9d"/>
              <path id="Trazado_142009" data-name="Trazado 142009" d="M333.795,110.009a18.013,18.013,0,0,0,10.091-3.129s-2.4,6.026-10.166,5.522Z" transform="translate(-325.666 -73.232)" fill="#ff9a6c"/>
            </g>
            <g id="Grupo_84858" data-name="Grupo 84858" transform="translate(28.162 13.86)">
              <path id="Trazado_142010" data-name="Trazado 142010" d="M358.126,83.269c.132-.066,5.29-1.714,5.257,3.593S358.018,91,358.01,90.893,358.126,83.269,358.126,83.269Z" transform="translate(-358.01 -82.976)" fill="#ffbf9d"/>
              <path id="Trazado_142011" data-name="Trazado 142011" d="M360,89.244a1.694,1.694,0,0,0,.248.141.968.968,0,0,0,.7,0,2.276,2.276,0,0,0,1.068-2.045,3.1,3.1,0,0,0-.248-1.325,1.084,1.084,0,0,0-.687-.72.48.48,0,0,0-.555.248c-.066.149,0,.257-.066.265s-.108-.091-.066-.306a.588.588,0,0,1,.207-.331.72.72,0,0,1,.513-.132,1.3,1.3,0,0,1,.96.828,3.1,3.1,0,0,1,.315,1.482,2.392,2.392,0,0,1-1.366,2.285.985.985,0,0,1-.828-.141C360,89.377,360,89.252,360,89.244Z" transform="translate(-358.352 -83.331)" fill="#ff9a6c"/>
            </g>
            <g id="Grupo_84862" data-name="Grupo 84862" transform="translate(2.393 7.691)">
              <g id="Grupo_84861" data-name="Grupo 84861" transform="translate(0 4.399)">
                <g id="Grupo_84859" data-name="Grupo 84859" transform="translate(0 0.075)">
                  <path id="Trazado_142012" data-name="Trazado 142012" d="M327.23,83.69a1.109,1.109,0,0,0,1.1,1.093,1.068,1.068,0,0,0,1.118-1.01,1.118,1.118,0,0,0-1.1-1.093,1.06,1.06,0,0,0-1.118,1.01Z" transform="translate(-326.941 -81.23)" fill="#0b3360"/>
                  <path id="Trazado_142013" data-name="Trazado 142013" d="M326.9,82.147c.141.141.969-.5,2.161-.53s2.078.546,2.2.4-.083-.323-.472-.588a3.055,3.055,0,0,0-3.485.1C326.98,81.816,326.831,82.089,326.9,82.147Z" transform="translate(-326.881 -80.929)" fill="#0b3360"/>
                </g>
                <g id="Grupo_84860" data-name="Grupo 84860" transform="translate(11.731)">
                  <path id="Trazado_142014" data-name="Trazado 142014" d="M341.35,83.673a1.109,1.109,0,0,0,1.1,1.093,1.068,1.068,0,0,0,1.093-.993,1.118,1.118,0,0,0-1.1-1.093A1.068,1.068,0,0,0,341.35,83.673Z" transform="translate(-341.103 -81.155)" fill="#0b3360"/>
                  <path id="Trazado_142015" data-name="Trazado 142015" d="M341.067,82.057c.141.149.969-.5,2.161-.522s2.078.546,2.21.4-.083-.323-.48-.6a3.088,3.088,0,0,0-1.772-.5,2.955,2.955,0,0,0-1.714.6C341.117,81.734,341.009,82,341.067,82.057Z" transform="translate(-341.052 -80.838)" fill="#0b3360"/>
                </g>
                <path id="Trazado_142016" data-name="Trazado 142016" d="M335.468,91.06a8.279,8.279,0,0,0-1.945-.3c-.306,0-.6-.075-.654-.281a1.556,1.556,0,0,1,.182-.911c.265-.745.546-1.523.828-2.343a39.332,39.332,0,0,0,1.871-6.118,39.735,39.735,0,0,0-2.359,5.952c-.281.828-.555,1.606-.828,2.359a1.746,1.746,0,0,0-.132,1.192.77.77,0,0,0,.513.439,2.484,2.484,0,0,0,.522.058,7.823,7.823,0,0,0,2-.05Z" transform="translate(-327.828 -80.885)" fill="#0b3360"/>
                <path id="Trazado_142017" data-name="Trazado 142017" d="M339.6,94c-.2,0-.166,1.291-1.25,2.235s-2.483.828-2.483,1.026.315.24.894.24a3.212,3.212,0,0,0,2.07-.778,2.773,2.773,0,0,0,.96-1.871C339.844,94.323,339.686,94,339.6,94Z" transform="translate(-328.429 -83.105)" fill="#0b3360"/>
              </g>
              <path id="Trazado_142018" data-name="Trazado 142018" d="M340.558,76.481c.124.315,1.308.132,2.715.265s2.541.488,2.724.2c.083-.141-.124-.447-.588-.745a4.437,4.437,0,0,0-2.036-.654,4.561,4.561,0,0,0-2.111.3C340.757,76.067,340.5,76.324,340.558,76.481Z" transform="translate(-329.235 -75.525)" fill="#0b3360"/>
              <path id="Trazado_142019" data-name="Trazado 142019" d="M327.323,77.952c.215.265,1.026,0,2.012-.075s1.829.132,2.02-.157c.083-.132-.058-.406-.43-.654a2.955,2.955,0,0,0-3.253.182C327.331,77.538,327.223,77.82,327.323,77.952Z" transform="translate(-326.951 -75.721)" fill="#0b3360"/>
            </g>
          </g>
          <path id="Trazado_142020" data-name="Trazado 142020" d="M353.028,72.536c-.041,2.268.522,4.768.182,7-.05.339-.9,1.258-.969,1.589-.406,1.978-1.2,2.839-2.417.828a17.316,17.316,0,0,1-1.01-3.808q-.828-3.568-1.6-7.136a12.417,12.417,0,0,1-5.861,1.548,6.018,6.018,0,0,1-5.124-2.848,6.258,6.258,0,0,1-9.677,1.523,2.624,2.624,0,0,1-3.444.828,3.1,3.1,0,0,1-1.341-3.394c.488-1.9,2.483-2.98,4.363-3.584,7.326-2.359,15.53-.828,22.268,2.864a11.258,11.258,0,0,1,2.732,1.954c.778.828,1.854,1.755,1.912,2.881" transform="translate(-321.671 -63.959)" fill="#0b3360"/>
        </g>
        <path id="Trazado_142021" data-name="Trazado 142021" d="M352.81,73.526a3.684,3.684,0,0,1,1.209.2,4.073,4.073,0,0,1,1.109.712c.372.323.753.762,1.209,1.184a3.849,3.849,0,0,0,1.507.944,2.707,2.707,0,0,0,1.473,0c.828-.232,1.142-.687,1.1-.712a7.872,7.872,0,0,1-1.176.4,2.665,2.665,0,0,1-1.275-.108,3.965,3.965,0,0,1-1.325-.877c-.43-.406-.828-.828-1.25-1.175a3.8,3.8,0,0,0-1.267-.7C353.29,73.17,352.777,73.493,352.81,73.526Z" transform="translate(-325.802 -59.451)" fill="#35afea"/>
        <path id="Trazado_142022" data-name="Trazado 142022" d="M353.91,76.359a2.277,2.277,0,0,1,.828.373,4.307,4.307,0,0,1,.671.762,3.709,3.709,0,0,0,1.06.944,3.651,3.651,0,0,0,2.417.513c.637-.1.977-.331.952-.381s-.389.05-.977.058a3.982,3.982,0,0,1-2.152-.579c-.753-.43-1.134-1.233-1.738-1.581S353.868,76.3,353.91,76.359Z" transform="translate(-325.991 -59.958)" fill="#35afea"/>
        <path id="Trazado_142023" data-name="Trazado 142023" d="M328.536,58.137a1.344,1.344,0,0,0-.679.066,3,3,0,0,0-1.5,1.118c-.952,1.333-1.167,3.7-.43,5.993a8.394,8.394,0,0,0,3.8,4.669,7.145,7.145,0,0,0,1.705.728c.414.116.662.141.662.108a21.327,21.327,0,0,1-2.194-1.109,8.618,8.618,0,0,1-3.543-4.545,7.157,7.157,0,0,1,.273-5.662,2.98,2.98,0,0,1,1.291-1.134C328.3,58.194,328.544,58.178,328.536,58.137Z" transform="translate(-321.098 -56.835)" fill="#35afea"/>
        <path id="Trazado_142024" data-name="Trazado 142024" d="M321.4,62a3.427,3.427,0,0,0,.066,1.5,9.255,9.255,0,0,0,1.374,3.311,9.106,9.106,0,0,0,2.558,2.566,3.618,3.618,0,0,0,1.358.646,15.257,15.257,0,0,1-3.535-3.46A15.1,15.1,0,0,1,321.4,62Z" transform="translate(-320.385 -57.503)" fill="#35afea"/>
      </g>
      <path id="Trazado_142025" data-name="Trazado 142025" d="M266.8,192.72l-11.358.571a2.682,2.682,0,0,0-2.55,2.732c.058,2.591.488,6.151,2.483,5.795l1.291-5.654,9.429,8.278a6.763,6.763,0,0,0,3.394,1.656l2.219-.224Z" transform="translate(-252.889 -80.011)" fill="#ffbf9d"/>
      <g id="Grupo_84866" data-name="Grupo 84866" transform="translate(59.347 46.434)">
        <path id="Trazado_142026" data-name="Trazado 142026" d="M333.462,118.8l-5.935,1.962-2.947,49.3v43.725l36.449,4.04.422-63.063L359.1,123.376l-5.571-6.656Z" transform="translate(-324.58 -113.359)" fill="#e1e1e1"/>
        <path id="Trazado_142027" data-name="Trazado 142027" d="M333.1,120.458v-4.777l21.664-3.022-.869,11.01-4.983,8.626-8.129.455-5.877-3.634Z" transform="translate(-326.047 -112.66)" fill="#e1e1e1"/>
        <path id="Trazado_142028" data-name="Trazado 142028" d="M335.413,120.5a5.522,5.522,0,0,1-.124-2.177,5.712,5.712,0,0,1,.306-2.169,5.794,5.794,0,0,1,.124,2.185,5.688,5.688,0,0,1-.306,2.161Z" transform="translate(-326.414 -113.261)" fill="#0b3360"/>
        <path id="Trazado_142029" data-name="Trazado 142029" d="M341.969,119.911a7.246,7.246,0,0,1-.074-2.483,7.292,7.292,0,0,1,.356-2.417,6.772,6.772,0,0,1,.074,2.483,7.043,7.043,0,0,1-.356,2.417Z" transform="translate(-327.549 -113.065)" fill="#0b3360"/>
        <path id="Trazado_142030" data-name="Trazado 142030" d="M348.3,119.194a7.557,7.557,0,0,1,0-2.575,7.914,7.914,0,0,1,.4-2.55,7.715,7.715,0,0,1,0,2.583,7.9,7.9,0,0,1-.4,2.541Z" transform="translate(-328.645 -112.903)" fill="#0b3360"/>
        <path id="Trazado_142031" data-name="Trazado 142031" d="M354.348,118.258a9.934,9.934,0,0,1,.223-4.868,8.4,8.4,0,0,1,0,2.483,8.494,8.494,0,0,1-.224,2.384Z" transform="translate(-329.671 -112.786)" fill="#0b3360"/>
        <path id="Trazado_142032" data-name="Trazado 142032" d="M349.181,144.44a3.254,3.254,0,0,1-.29.828c-.207.513-.53,1.242-.952,2.127-.828,1.788-2.1,4.205-3.634,6.8s-3.071,4.851-4.238,6.44c-.579.828-1.068,1.432-1.416,1.854a3.536,3.536,0,0,1-.571.646,29.278,29.278,0,0,1,1.738-2.674c1.093-1.656,2.574-3.907,4.139-6.49s2.823-4.967,3.733-6.705A29.262,29.262,0,0,1,349.181,144.44Z" transform="translate(-326.905 -118.132)" fill="#7c4235"/>
      </g>
      <g id="Grupo_84867" data-name="Grupo 84867" transform="translate(84.529 49.025)">
        <path id="Trazado_142033" data-name="Trazado 142033" d="M358.651,115.79l5.886,2.831,11.349,2.781a9.445,9.445,0,0,1,7.765,10.522l-5.944,46.358,7.094,44.95-28.146-.828L355,205.682V159.325Z" transform="translate(-355 -115.79)" fill="#ce9080"/>
        <path id="Trazado_142034" data-name="Trazado 142034" d="M355,170.16a2.954,2.954,0,0,1,.083-.571l.323-1.656,1.25-5.952,4.3-19.677c.472-2.111.927-4.139,1.366-6.142l.05.19-1.937-2.02-.108-.116.074-.132,3.311-5.447v.166c-1.49-3.593-2.724-6.623-3.609-8.742-.406-1.018-.737-1.838-.977-2.483a5.715,5.715,0,0,1-.315-.877,6.377,6.377,0,0,1,.414.828l1.068,2.409c.927,2.136,2.21,5.116,3.75,8.684v.083l-.05.083-3.228,5.464v-.24l1.962,2.028.075.083v.108c-.43,1.978-.886,4.031-1.349,6.142l-4.421,19.652-1.391,5.952-.4,1.606a2.243,2.243,0,0,1-.24.579Z" transform="translate(-355 -115.947)" fill="#7c4235"/>
      </g>
      <g id="Grupo_84868" data-name="Grupo 84868" transform="translate(12.6 53.007)">
        <path id="Trazado_142035" data-name="Trazado 142035" d="M270.27,178.435l24.9-13.882,12.07-32.541a17.467,17.467,0,0,1,9.661-10.05l3.2-1.341V206.3l.646,20.3-13.452-4.04,6.879-40.795L311.8,161.68l-2.4,9.752a13.245,13.245,0,0,1-6.142,8.278L277.34,193.12Z" transform="translate(-268.482 -120.603)" fill="#ce9080"/>
        <path id="Trazado_142036" data-name="Trazado 142036" d="M270.2,191.22l-2.094.629L274,205.9l2.748-1.06Z" transform="translate(-268.11 -132.76)" fill="#e1e1e1"/>
        <path id="Trazado_142037" data-name="Trazado 142037" d="M304.839,179.513a19.1,19.1,0,0,0-1.863-3.154,18.369,18.369,0,0,0-2.757-2.409,6.969,6.969,0,0,1,4.619,5.563Z" transform="translate(-273.639 -129.786)" fill="#7c4235"/>
        <path id="Trazado_142038" data-name="Trazado 142038" d="M273.776,190.651a1.14,1.14,0,0,0-.132.406.356.356,0,0,0,.472.422.364.364,0,0,0,.166-.613c-.141-.19-.331-.207-.339-.265s.232-.19.555.05a.729.729,0,0,1,.281.6.737.737,0,0,1-.546.646.72.72,0,0,1-.828-.248.712.712,0,0,1-.083-.654C273.486,190.618,273.776,190.593,273.776,190.651Z" transform="translate(-269 -132.638)" fill="#0b3360"/>
        <path id="Trazado_142039" data-name="Trazado 142039" d="M276.209,189.621a1.355,1.355,0,0,0-.141.414c-.017.24.149.522.472.422a.364.364,0,0,0,.174-.613c-.141-.19-.331-.207-.339-.273s.232-.182.546.05a.745.745,0,0,1,.29.6.72.72,0,0,1-.546.637.7.7,0,0,1-.894-.9C275.952,189.6,276.209,189.572,276.209,189.621Z" transform="translate(-269.421 -132.461)" fill="#0b3360"/>
        <path id="Trazado_142040" data-name="Trazado 142040" d="M329.671,172.156a2.237,2.237,0,0,1-.116-.53c-.058-.389-.132-.894-.223-1.523-.19-1.382-.447-3.311-.77-5.621-.6-4.8-1.44-11.349-2.351-18.576-.132-1.026-.257-2.045-.381-3.038v-.108c.629-1.589,1.233-3.137,1.821-4.619v.174c-.629-1.44-1.225-2.815-1.8-4.139v-.124c1.1-3.99,2.028-7.343,2.7-9.752.331-1.142.588-2.053.786-2.74a6.042,6.042,0,0,1,.323-.96,7.833,7.833,0,0,1-.207.993c-.174.687-.4,1.656-.687,2.765-.629,2.425-1.507,5.795-2.55,9.793v-.124c.579,1.283,1.184,2.657,1.829,4.089v.157l-1.8,4.627v-.1q.182,1.49.373,3.03c.869,7.235,1.656,13.791,2.235,18.593.265,2.343.472,4.255.629,5.637l.149,1.54A4.369,4.369,0,0,1,329.671,172.156Z" transform="translate(-278.049 -120.6)" fill="#7c4235"/>
        <path id="Trazado_142041" data-name="Trazado 142041" d="M322.11,186.414a1.548,1.548,0,0,1-.083-.406c-.05-.323-.1-.7-.166-1.176-.132-1.084-.315-2.541-.53-4.3-.439-3.642-1.06-8.675-1.8-14.214s-1.473-10.563-2.012-14.189l-.621-4.3c-.066-.464-.116-.828-.157-1.167a1.739,1.739,0,0,1,0-.414,1.283,1.283,0,0,1,.116.4c.058.315.132.7.232,1.159.19,1.01.455,2.483.762,4.28.613,3.618,1.391,8.626,2.136,14.18s1.316,10.579,1.656,14.238c.182,1.821.315,3.311.389,4.321,0,.472.058.828.083,1.184a1.342,1.342,0,0,1,0,.414Z" transform="translate(-276.481 -125.015)" fill="#7c4235"/>
        <path id="Trazado_142042" data-name="Trazado 142042" d="M319.07,228.3a4.685,4.685,0,0,0,.579.7,2.616,2.616,0,0,0,2.268.5,3.841,3.841,0,0,0,2.483-2.417,15,15,0,0,0,.7-4.454,10.174,10.174,0,0,0-.464-4.445,8.113,8.113,0,0,0-2.252-2.848,10.248,10.248,0,0,1-1.722-1.879,2.343,2.343,0,0,1-.414-.828s.182.281.546.745a12.418,12.418,0,0,0,1.788,1.747,8.121,8.121,0,0,1,2.426,2.93,10.339,10.339,0,0,1,.521,4.619,14.735,14.735,0,0,1-.753,4.578,4.139,4.139,0,0,1-2.765,2.566,2.757,2.757,0,0,1-2.483-.679,2.119,2.119,0,0,1-.4-.579.7.7,0,0,1-.058-.257Z" transform="translate(-276.885 -136.446)" fill="#7c4235"/>
        <path id="Trazado_142043" data-name="Trazado 142043" d="M307.9,190.563s.828-9.5,8.344-10.373C316.261,180.19,316.377,187.922,307.9,190.563Z" transform="translate(-274.961 -130.861)" fill="#0b3360"/>
      </g>
      <g id="Grupo_84870" data-name="Grupo 84870" transform="translate(85.837 58.164)">
        <g id="Grupo_84869" data-name="Grupo 84869" transform="translate(0 54.57)">
          <path id="Trazado_142044" data-name="Trazado 142044" d="M356.58,228.28l21.871,14.346,2.483-1.978,1.167-32.094-20.853-15.8-2.864.985Z" transform="translate(-356.58 -192.75)" fill="#1565b2"/>
          <path id="Trazado_142045" data-name="Trazado 142045" d="M361.172,193.27l.853,34.735H357.43l1.54-34.048Z" transform="translate(-356.726 -192.84)" fill="#e1e1e1"/>
          <path id="Trazado_142046" data-name="Trazado 142046" d="M369.075,241.575a2.69,2.69,0,0,0,2.483,1.656c.058,0,.116.05.182.149a2.484,2.484,0,0,0,2.078,1.3,4.487,4.487,0,0,0,2.343-.679c1.151-.7,3.187-5.265,3.187-5.265l4.826-10.762-8.121-2.194-10.315,3.212c0,.19-2.409,9.934-2.409,9.934a2.483,2.483,0,0,0,2.9-1.531,25.5,25.5,0,0,1,1.821-3.411l.762,4.4-2.93,1a1.954,1.954,0,0,0,1.258,2.235Z" transform="translate(-357.742 -198.437)" fill="#ffbf9d"/>
        </g>
        <path id="Trazado_142047" data-name="Trazado 142047" d="M374.67,149.215,388.188,174.1l-11,32.657,12.235,6.887,15.546-36.325a10.306,10.306,0,0,0-.132-8.411L385.8,127.94Z" transform="translate(-359.695 -127.021)" fill="#ce9080"/>
        <path id="Trazado_142048" data-name="Trazado 142048" d="M377.472,223.15l-1.142,2.533,11.548,6.217,1.209-2.21Z" transform="translate(-359.981 -143.415)" fill="#e1e1e1"/>
        <path id="Trazado_142049" data-name="Trazado 142049" d="M376.383,206.565a.52.52,0,0,1,.041-.166c.041-.108.083-.29.141-.48.141-.455.339-1.068.579-1.846l2.252-6.863c1.954-5.869,4.677-14.031,7.79-23.369v.174c-1.573-2.674-3.187-5.5-4.818-8.411-2.98-5.331-5.72-10.455-8.063-15.2-1.151-2.376-2.235-4.652-3.146-6.821a13.7,13.7,0,0,1-1.126-6.449,14.975,14.975,0,0,1,1.209-5.273,10.365,10.365,0,0,1,2.384-3.311,8,8,0,0,1,2.161-1.416,4.088,4.088,0,0,1,.828-.306,9.636,9.636,0,0,0-2.889,1.846,10.356,10.356,0,0,0-2.277,3.311,14.768,14.768,0,0,0-1.126,5.19,13.369,13.369,0,0,0,1.151,6.291c.919,2.161,2.012,4.421,3.171,6.788,2.359,4.719,5.108,9.843,8.079,15.157,1.656,2.914,3.245,5.737,4.81,8.411l.05.083V174c-3.171,9.321-5.944,17.467-7.93,23.32l-2.368,6.821c-.273.778-.488,1.382-.654,1.829l-.174.464A.535.535,0,0,1,376.383,206.565Z" transform="translate(-358.891 -126.83)" fill="#7c4235"/>
        <path id="Trazado_142050" data-name="Trazado 142050" d="M400.085,183.13a10.688,10.688,0,0,1-1.333-.472,9.627,9.627,0,0,0-3.311-.48,9.5,9.5,0,0,0-3.262.687,8.7,8.7,0,0,1-1.3.546,3.2,3.2,0,0,1,1.176-.828,8.146,8.146,0,0,1,6.788-.207,3,3,0,0,1,1.242.753Z" transform="translate(-362.486 -136.284)" fill="#7c4235"/>
        <path id="Trazado_142051" data-name="Trazado 142051" d="M371.41,146.49l9.71,32.5,1.374-10.687Z" transform="translate(-359.134 -130.215)" fill="#0b3360"/>
        <path id="Trazado_142052" data-name="Trazado 142052" d="M390.691,223.6a1.271,1.271,0,0,0-.141.406c-.017.24.149.522.472.422a.364.364,0,0,0,.174-.613c-.141-.19-.331-.207-.339-.265s.232-.19.546.05a.712.712,0,0,1,.29.6.762.762,0,0,1-1.349.4.7.7,0,0,1-.083-.662C390.393,223.568,390.691,223.543,390.691,223.6Z" transform="translate(-362.371 -143.469)" fill="#0b3360"/>
        <path id="Trazado_142053" data-name="Trazado 142053" d="M391.9,220.772a1.271,1.271,0,0,0-.141.406c-.017.24.149.522.472.422a.356.356,0,0,0,.174-.6c-.141-.2-.331-.215-.339-.273s.232-.182.546.05a.7.7,0,0,1-.257,1.242.7.7,0,0,1-.894-.9C391.577,220.739,391.9,220.714,391.9,220.772Z" transform="translate(-362.579 -142.982)" fill="#0b3360"/>
        <path id="Trazado_142054" data-name="Trazado 142054" d="M407.606,170.79c-1.449.762-1.954,2.889-1.788,4.52s.762,3.212.72,4.851a19.123,19.123,0,0,1-.621,3.452,5.969,5.969,0,0,0,.108,3.452,2.657,2.657,0,0,0,2.74,1.73l1.151-2.318a12.8,12.8,0,0,0-.166-11.639Z" transform="translate(-365.04 -134.399)" fill="#0b3360"/>
      </g>
    </g>
    <g id="Grupo_84876" data-name="Grupo 84876" transform="translate(335.7 236.638)">
      <path id="Trazado_142055" data-name="Trazado 142055" d="M493.232,378c.745-2.583,2.334-5.074,4.8-6.134s5.538-.48,8.162.472,5.2,2.235,7.988,2.409,5.935-1.151,6.772-3.816c.828-2.483-.729-5.182-2.616-7a16.556,16.556,0,0,0-27.07,6.5" transform="translate(-420.289 -298.511)" fill="#36dac9"/>
      <g id="Grupo_84875" data-name="Grupo 84875">
        <g id="Grupo_84872" data-name="Grupo 84872" transform="translate(70.98 60.824)" opacity="0.5">
          <path id="Trazado_142056" data-name="Trazado 142056" d="M493.232,378c.745-2.583,2.334-5.074,4.8-6.134s5.538-.48,8.162.472,5.2,2.235,7.988,2.409,5.935-1.151,6.772-3.816c.828-2.483-.729-5.182-2.616-7a16.556,16.556,0,0,0-27.07,6.5" transform="translate(-491.27 -359.335)"/>
        </g>
        <path id="Trazado_142057" data-name="Trazado 142057" d="M466.32,388.747c-4.1-3.882-3.891-10.654-1.846-15.911s6.49-9.3,11.465-11.962a36.333,36.333,0,0,1,31.647-1.026,15.025,15.025,0,0,0-12.144,7.136c-2.243,3.725-2.74,8.237-4.594,12.169a19.147,19.147,0,0,1-24.528,9.594" transform="translate(-415.431 -298.059)" fill="#36dac9"/>
        <path id="Trazado_142058" data-name="Trazado 142058" d="M463.287,353.2c-4.528-5.348-5.132-13.924-4.462-20.9s2.285-13.99,1.184-20.911c-.654-4.1-2.243-8.013-2.781-12.127s.223-8.767,3.411-11.424c3.667-3.055,9.437-2.334,13.245.53s6.018,7.376,7.632,11.863c3.551,9.859,4.851,20.795,1.937,30.861s-9.752,19.04-19.776,22.111" transform="translate(-414.401 -285.859)" fill="#36dac9"/>
        <path id="Trazado_142059" data-name="Trazado 142059" d="M462,410a3.007,3.007,0,0,1,0-.621c0-.4,0-.993.041-1.763.058-1.531.2-3.75.546-6.474a87.636,87.636,0,0,1,1.738-9.479,43.6,43.6,0,0,1,4.3-10.977,45.71,45.71,0,0,1,7.069-9.454,44.966,44.966,0,0,1,7.409-6.159c1.134-.786,2.227-1.382,3.171-1.929s1.8-.919,2.483-1.258l1.656-.687a2.9,2.9,0,0,1,.579-.207,4.054,4.054,0,0,1-.546.281l-1.6.745c-.679.356-1.507.786-2.483,1.308a29.412,29.412,0,0,0-3.121,1.962,46.656,46.656,0,0,0-14.321,15.579c-4.139,7.285-5.306,14.942-6.126,20.306-.381,2.715-.563,4.917-.671,6.449l-.1,1.763A4.625,4.625,0,0,1,462,410Z" transform="translate(-415.246 -298.796)" fill="#0b3360"/>
        <g id="Grupo_84874" data-name="Grupo 84874" transform="translate(0 40.435)">
          <path id="Trazado_142060" data-name="Trazado 142060" d="M413.178,341.74c-8.377,5.05-8.353,9.652-6.954,14s6.548,7.359,10.811,5.728c2.409-.919,4.139-3.013,5.646-5.116s2.889-4.354,4.967-5.869,5.124-2.086,7.219-.588" transform="translate(-405.526 -335.916)" fill="#36dac9"/>
          <g id="Grupo_84873" data-name="Grupo 84873" transform="translate(0 5.824)" opacity="0.5">
            <path id="Trazado_142061" data-name="Trazado 142061" d="M413.178,341.74c-8.377,5.05-8.353,9.652-6.954,14s6.548,7.359,10.811,5.728c2.409-.919,4.139-3.013,5.646-5.116s2.889-4.354,4.967-5.869,5.124-2.086,7.219-.588" transform="translate(-405.526 -341.74)"/>
          </g>
          <path id="Trazado_142062" data-name="Trazado 142062" d="M407.2,346.067c2.185-3.022,7.6-3.9,11.018-2.392s5.919,4.5,8.162,7.5,4.42,6.142,7.525,8.228,7.45,2.831,10.53.737a9.106,9.106,0,0,0,3.576-6.2,20.511,20.511,0,0,0-.488-7.3c-.745-3.518-1.945-7.185-4.76-9.421-3.137-2.483-7.45-2.6-11.482-2.483-4.586.157-9.247.5-13.551,2.086s-8.709,5.025-10.53,9.238" transform="translate(-405.814 -334.705)" fill="#36dac9"/>
          <path id="Trazado_142063" data-name="Trazado 142063" d="M449.06,398.951v-.72c0-.5-.041-1.2-.066-2.078-.058-1.838-.132-4.445-.224-7.649s-.232-7.07-.464-11.333-.555-8.949-1.2-13.824a45.222,45.222,0,0,0-1.391-7.02,36.424,36.424,0,0,0-2.566-6.151,35.226,35.226,0,0,0-3.245-5.083,33.516,33.516,0,0,0-3.535-3.882,26,26,0,0,0-6.267-4.272c-.414-.19-.77-.373-1.093-.5l-.828-.315-.5-.207c-.116-.05-.174-.074-.166-.083l.174.05.522.166.828.29c.331.116.7.29,1.109.472a25.024,25.024,0,0,1,6.391,4.205,33.214,33.214,0,0,1,3.6,3.891,36.707,36.707,0,0,1,5.911,11.308,43.826,43.826,0,0,1,1.407,7.086c.654,4.892.96,9.586,1.176,13.849s.323,8.121.389,11.349.091,5.844.1,7.649v2.624C449.126,398.909,449.068,398.951,449.06,398.951Z" transform="translate(-409.313 -334.898)" fill="#0b3360"/>
        </g>
        <path id="Trazado_142064" data-name="Trazado 142064" d="M456.882,397.423a23.9,23.9,0,0,1-.919-3.6,37.626,37.626,0,0,1-.389-10.108,67.782,67.782,0,0,1,3.2-14.669c1.722-5.389,4.056-11.151,6.051-17.384a79.144,79.144,0,0,0,2.4-9.18,81.727,81.727,0,0,0,1.192-8.758,130.239,130.239,0,0,0,.265-14.975c-.149-4.272-.372-7.715-.513-10.1-.066-1.176-.124-2.094-.166-2.748v-.712a1.128,1.128,0,0,1,0-.248s0,.083,0,.24.041.414.074.712c.05.654.132,1.573.232,2.74.182,2.384.447,5.836.629,10.108a122.444,122.444,0,0,1-.19,15.017,80.948,80.948,0,0,1-1.167,8.8,79.823,79.823,0,0,1-2.409,9.222c-2,6.217-4.346,11.978-6.076,17.343a68.138,68.138,0,0,0-3.262,14.586,38.973,38.973,0,0,0,.265,10.058c.207,1.176.4,2.078.563,2.69.066.29.124.513.166.7S456.882,397.415,456.882,397.423Z" transform="translate(-414.113 -289.145)" fill="#0b3360"/>
        <path id="Trazado_142065" data-name="Trazado 142065" d="M473.91,419.655H434.564l-.894-7.575h40.24Z" transform="translate(-410.372 -307.593)" fill="#35afea"/>
        <path id="Trazado_142066" data-name="Trazado 142066" d="M439.86,420.19l4.917,22.715h21.374l4.6-22.715Z" transform="translate(-411.437 -308.989)" fill="#35afea"/>
        <path id="Trazado_142067" data-name="Trazado 142067" d="M474.244,421.178c0,.108-8.651.166-19.321.132s-19.313-.141-19.313-.24,8.642-.166,19.313-.132S474.244,421.079,474.244,421.178Z" transform="translate(-410.706 -309.116)" fill="#35afea"/>
        <path id="Trazado_142068" data-name="Trazado 142068" d="M468.693,434.116a16.414,16.414,0,0,0-3.46-1.978,12.334,12.334,0,0,0-4.214-.828,14.95,14.95,0,0,0-5.182.952c-1.8.6-3.469,1.316-5.1,1.705a12.343,12.343,0,0,1-4.4.132,9.107,9.107,0,0,1-2.831-.9,6.229,6.229,0,0,1-.687-.43c-.149-.116-.223-.174-.215-.182s.339.19.96.48a9.834,9.834,0,0,0,2.806.77,12.492,12.492,0,0,0,4.3-.207c1.573-.4,3.245-1.109,5.05-1.722a14.744,14.744,0,0,1,5.315-.935,12.07,12.07,0,0,1,4.3.944,10.819,10.819,0,0,1,2.558,1.5,6.282,6.282,0,0,1,.613.522C468.635,434.041,468.7,434.107,468.693,434.116Z" transform="translate(-411.909 -310.845)" fill="#0b3360"/>
        <path id="Trazado_142069" data-name="Trazado 142069" d="M468.524,435.962A16.8,16.8,0,0,0,465.212,434a11.332,11.332,0,0,0-4.065-.828,14.685,14.685,0,0,0-5.008.9c-1.73.579-3.361,1.25-4.909,1.656a12.416,12.416,0,0,1-4.238.48,7.029,7.029,0,0,1-2.773-.745,5.8,5.8,0,0,1-.662-.414c-.141-.116-.215-.174-.207-.182s.323.19.927.464a7.673,7.673,0,0,0,2.732.613,12.864,12.864,0,0,0,4.139-.546c1.523-.422,3.137-1.1,4.892-1.656a14.47,14.47,0,0,1,5.132-.894,11.149,11.149,0,0,1,4.139.935,10.851,10.851,0,0,1,2.483,1.49,6.553,6.553,0,0,1,.588.513C468.466,435.88,468.532,435.946,468.524,435.962Z" transform="translate(-412.038 -311.169)" fill="#fff"/>
        <path id="Trazado_142070" data-name="Trazado 142070" d="M468.994,432.281a18.991,18.991,0,0,0-3.56-2.094,13.038,13.038,0,0,0-4.313-1.035,13.9,13.9,0,0,0-5.348.944,48.175,48.175,0,0,1-5.281,1.722,13.466,13.466,0,0,1-4.545,0,10.1,10.1,0,0,1-2.922-.927,5.425,5.425,0,0,1-.712-.439c-.157-.116-.232-.182-.224-.19s.348.2.993.5a11.224,11.224,0,0,0,2.906.828,13.725,13.725,0,0,0,4.445-.083,55,55,0,0,0,5.224-1.738,13.931,13.931,0,0,1,5.48-.935,12.814,12.814,0,0,1,4.4,1.142,12.344,12.344,0,0,1,2.624,1.581,5.56,5.56,0,0,1,.629.546C468.936,432.156,469,432.231,468.994,432.281Z" transform="translate(-411.821 -310.475)" fill="#fff"/>
      </g>
      <path id="Trazado_142071" data-name="Trazado 142071" d="M474.478,421.23c0,.1-8.849.19-19.768.19s-19.76-.091-19.76-.19,8.841-.19,19.76-.19S474.478,421.123,474.478,421.23Z" transform="translate(-410.592 -309.135)" fill="#0b3360"/>
    </g>
    <g id="Grupo_84878" data-name="Grupo 84878" transform="translate(78.794 319.118)">
      <path id="Trazado_142072" data-name="Trazado 142072" d="M119.261,406.468c1.416,2.02,4.139,1.349,5.439.116a10.108,10.108,0,0,0,2.31-4.727c1.118-3.891,2.243-7.98,1.416-11.945a6.623,6.623,0,0,0-1.531-3.245,3.427,3.427,0,0,0-3.311-1.093c-1.391.364-2.252,1.722-2.873,3.013a28.411,28.411,0,0,0-2.815,12.219,9.876,9.876,0,0,0,1.333,5.662" transform="translate(-99.09 -385.495)" fill="#36dac9"/>
      <g id="Grupo_84877" data-name="Grupo 84877" transform="translate(18.783)" opacity="0.2">
        <path id="Trazado_142073" data-name="Trazado 142073" d="M119.261,406.468c1.416,2.02,4.139,1.349,5.439.116a10.108,10.108,0,0,0,2.31-4.727c1.118-3.891,2.243-7.98,1.416-11.945a6.623,6.623,0,0,0-1.531-3.245,3.427,3.427,0,0,0-3.311-1.093c-1.391.364-2.252,1.722-2.873,3.013a28.411,28.411,0,0,0-2.815,12.219,9.876,9.876,0,0,0,1.333,5.662" transform="translate(-117.873 -385.495)"/>
      </g>
      <path id="Trazado_142074" data-name="Trazado 142074" d="M125.413,422.949a12.235,12.235,0,0,1,7.608-.919,6.283,6.283,0,0,1,3.758,1.656,2.659,2.659,0,0,1,0,3.75,3.61,3.61,0,0,1-2.368.6c-2.012,0-4.247-.381-5.853.828-.911.687-1.523,1.838-2.624,2.177a2.6,2.6,0,0,1-2.848-1.275,4.4,4.4,0,0,1-.323-3.262,4.967,4.967,0,0,1,2.649-3.56Z" transform="translate(-99.902 -391.744)" fill="#36dac9"/>
      <path id="Trazado_142075" data-name="Trazado 142075" d="M111.472,410.721a7.351,7.351,0,0,0,1.142-6.763,13.03,13.03,0,0,0-4.007-5.795,21.581,21.581,0,0,0-7.177-4.238,7.616,7.616,0,0,0-3.228-.546,3.377,3.377,0,0,0-2.707,1.656c-.753,1.44,0,3.187.753,4.611a54.121,54.121,0,0,0,4.71,7.177,12.826,12.826,0,0,0,5.182,4.445c2.152.828,4.4.72,5.538-.77" transform="translate(-95.183 -386.85)" fill="#36dac9"/>
      <path id="Trazado_142076" data-name="Trazado 142076" d="M119.428,443.788a4.7,4.7,0,0,0,.124-.919c.066-.662.149-1.507.24-2.483a36.829,36.829,0,0,1,.571-3.675,27.914,27.914,0,0,1,1.333-4.338,15.86,15.86,0,0,1,2.219-3.932,8.2,8.2,0,0,1,2.8-2.326,8.053,8.053,0,0,1,2.359-.737,3.649,3.649,0,0,0,.911-.132,4.68,4.68,0,0,0-.927,0,7.2,7.2,0,0,0-2.483.637,8.278,8.278,0,0,0-2.955,2.351,15.57,15.57,0,0,0-2.3,4,27.134,27.134,0,0,0-1.324,4.412,31.92,31.92,0,0,0-.488,3.725c-.074,1.06-.108,1.921-.124,2.483A3.866,3.866,0,0,0,119.428,443.788Z" transform="translate(-99.348 -392.335)" fill="#0b3360"/>
      <path id="Trazado_142077" data-name="Trazado 142077" d="M119.6,436.707a1.366,1.366,0,0,0,0-.422v-1.217c0-1.06,0-2.591.058-4.478.091-3.783.414-9,1.043-14.727s1.474-10.9,2.235-14.6c.182-.927.364-1.763.538-2.483s.3-1.366.439-1.879l.281-1.184a1.7,1.7,0,0,0,.075-.414,1.731,1.731,0,0,0-.149.4c-.091.306-.207.7-.356,1.167s-.315,1.134-.5,1.863-.389,1.565-.588,2.483a135.964,135.964,0,0,0-2.351,14.611c-.637,5.745-.919,10.977-.944,14.76,0,1.9,0,3.427.066,4.487q.05.745.075,1.217A2.764,2.764,0,0,0,119.6,436.707Z" transform="translate(-99.349 -387.183)" fill="#0b3360"/>
      <path id="Trazado_142078" data-name="Trazado 142078" d="M116.865,427.255a6.729,6.729,0,0,0,0-1.267,33.242,33.242,0,0,0-.389-3.452,47.285,47.285,0,0,0-3.22-10.969,31.457,31.457,0,0,0-6.167-9.6,14.9,14.9,0,0,0-1.457-1.349c-.224-.19-.414-.381-.621-.53l-.563-.389a8.281,8.281,0,0,0-1.068-.687,38.839,38.839,0,0,1,3.51,3.137,33.419,33.419,0,0,1,6.018,9.57,46.41,46.41,0,0,1,2.111,5.894,49.012,49.012,0,0,1,1.192,4.967c.265,1.432.422,2.6.513,3.411a8.71,8.71,0,0,0,.141,1.267Z" transform="translate(-96.594 -387.822)" fill="#0b3360"/>
    </g>
    <g id="Grupo_84879" data-name="Grupo 84879" transform="translate(197.158 23.956)">
      <path id="Trazado_142079" data-name="Trazado 142079" d="M262.143,28.989a1.656,1.656,0,0,1,.422,0H263.8a13.526,13.526,0,0,1,2.012.2c.4.066.828.1,1.275.2l1.424.348a23.883,23.883,0,0,1,14.263,35.157,24.106,24.106,0,0,1-11.5,10.008,23.609,23.609,0,0,1-7.98,1.755,22.873,22.873,0,0,1-8.353-1.035l-.248-.083h.2l-13.949,4.834-.571.19.182-.571L244.171,68.4l.066.273a23.8,23.8,0,0,1-5.588-20.646,23.486,23.486,0,0,1,3.593-8.6,24.271,24.271,0,0,1,5.53-5.795,25.036,25.036,0,0,1,2.889-1.871,26.745,26.745,0,0,1,2.781-1.267,19.228,19.228,0,0,1,2.483-.828,15.73,15.73,0,0,1,2.152-.455c.654-.083,1.225-.182,1.73-.224l1.267-.041h.778a.944.944,0,0,1,.265,0,1.358,1.358,0,0,1-.265,0l-.77.066-1.258.083c-.5.066-1.068.174-1.714.273a16.557,16.557,0,0,0-2.119.488,18.974,18.974,0,0,0-2.483.828,25.586,25.586,0,0,0-2.723,1.283,24.627,24.627,0,0,0-2.823,1.987,23.692,23.692,0,0,0-5.381,5.712,23.426,23.426,0,0,0,2.07,28.6l.108.116-.05.157-3.593,11.589-.389-.373,13.949-4.843h.2l.24.083a22.351,22.351,0,0,0,8.129,1.01,23.071,23.071,0,0,0,7.781-1.705,23.485,23.485,0,0,0-2.583-44.313l-1.4-.373c-.447-.1-.869-.149-1.267-.224a14.214,14.214,0,0,0-1.987-.257l-1.233-.091a2.732,2.732,0,0,1-.414-.058Z" transform="translate(-238.167 -28.939)" fill="#36dac9"/>
      <path id="Trazado_142080" data-name="Trazado 142080" d="M250.18,57.493l3.675-3.675,7.078,6.291L274.824,46.74l3.411,3.667L260.4,67.187Z" transform="translate(-240.235 -32.004)" fill="#ffa726"/>
    </g>
  </g>
</svg>
