<svg id="img5" xmlns="http://www.w3.org/2000/svg" width="300" height="300" viewBox="0 0 300 300">
  <rect id="Rectángulo_36102" data-name="Rectángulo 36102" width="300" height="300" fill="none"/>
  <g id="Grupo_83680" data-name="Grupo 83680">
    <ellipse id="Elipse_6716" data-name="Elipse 6716" cx="116.97" cy="9.42" rx="116.97" ry="9.42" transform="translate(37.82 274.36)" fill="#d6d0a9"/>
    <path id="Trazado_137624" data-name="Trazado 137624" d="M189.08,258.79c-.12,2.28,2.77,4.09,4.37,8.69.61,1.77.05,2.47,1.38,6.31a6.65,6.65,0,0,0,2,3.27,5.88,5.88,0,0,0,2.84,1.18c2,.23,3.35-.85,6.17-2.58a62.707,62.707,0,0,1,7.72-4.17,62,62,0,0,0,6.21-2.81c2-1.08,4.07-1.07,5.11-3.57,1.23-2.91-14.72-3.24-18.42-4.77-4-1.66-5.77-5.6-6.65-7C197.41,249.58,189.28,255.08,189.08,258.79Z" fill="#f79556"/>
    <g id="Grupo_83645" data-name="Grupo 83645">
      <path id="Trazado_137625" data-name="Trazado 137625" d="M194.24,265.21a33.78,33.78,0,0,0,0,7.06c.34,2.42.74,6.8,2.79,8,1,.57,1,.62,5.48-.62a95.931,95.931,0,0,1,13.26-2.68c6-.91,6.75-.33,11.46-2.41,4.32-1.91,8.54-5.38,8.45-6.86-.18-3.13-2-4.61-2.84-4.65-1.55-.06-2.66,1.08-4.69,1.33-4.53.57-15.61-3.41-17.17-4-1.17-.45-2.12-.57-2.83.15-.87.89-1.75,3.31-4.92,4.83-3.43,1.63-6.83,1.35-7.62.86s-.74-1.32-1-1.3S194.26,265.07,194.24,265.21Z" fill="#12263f"/>
      <path id="Trazado_137626" data-name="Trazado 137626" d="M196.4,276.78l5.08-1,5.07-.93,2.54-.43,1.27-.21,1.26-.18,2.56-.29,2.57-.3c.86-.12,1.72-.25,2.57-.41s1.71-.36,2.55-.6a27.23,27.23,0,0,0,4.88-1.89,30.132,30.132,0,0,0,4.46-2.68l.52-.4.5-.42a10.1,10.1,0,0,0,.94-.91,8,8,0,0,0,.82-1,4.483,4.483,0,0,0,.32-.56,2.289,2.289,0,0,0,.22-.62,2.39,2.39,0,0,1-.28.58,6.273,6.273,0,0,1-.38.52,8.419,8.419,0,0,1-.88.91c-.32.29-.65.55-1,.81l-.52.37c-.18.12-.35.24-.54.35-.71.46-1.45.88-2.21,1.28s-1.53.75-2.31,1.1a29,29,0,0,1-4.79,1.7,39.851,39.851,0,0,1-5,.93l-2.55.31c-.86.11-1.72.21-2.57.34l-1.29.21c-.43.07-.85.16-1.27.24l-1.27.26-1.27.27c-1.68.37-3.36.78-5,1.21S198.05,276.26,196.4,276.78Z" fill="#fff"/>
      <g id="Grupo_83644" data-name="Grupo 83644">
        <path id="Trazado_137627" data-name="Trazado 137627" d="M213.15,260.5a.05.05,0,0,0-.05-.05,1.45,1.45,0,0,0-.83.13,1.762,1.762,0,0,0-.2.09l-.18.11h0a2.693,2.693,0,0,0-.33.26l-.15.15a1,1,0,0,0-.13.16,2.5,2.5,0,0,0-.21.35h0l-.15.38a1.34,1.34,0,0,0-.07.18.21.21,0,0,1-.07.19,5.366,5.366,0,0,0-.25.74c-.07.25-.12.51-.17.76h0c0,.25-.08.5-.1.76s0,.46,0,.7a.09.09,0,0,0,.06.07h0a.09.09,0,0,0,.08,0l.26-.65.3-.67.16-.32c.06-.11.11-.22.17-.32l.17-.31c.06-.11.13-.21.19-.31l.2-.28.23-.26.22-.26.09-.13.09-.14.09-.14a1.092,1.092,0,0,0,.08-.15l.18-.29c.11-.19.23-.39.38-.62Z" fill="#fff"/>
        <path id="Trazado_137628" data-name="Trazado 137628" d="M215.76,261.21h-.06a1.651,1.651,0,0,0-.7.22,2.26,2.26,0,0,0-.56.46,1.929,1.929,0,0,0-.22.28,3.127,3.127,0,0,0-.15.32c-.08.22-.13.45-.2.67a6.8,6.8,0,0,0-.3,1.32,9,9,0,0,0-.09,1.27s0,.07.05.07h0a.06.06,0,0,0,.08,0c.17-.38.33-.77.51-1.13l.07-.15.07-.14c.05-.09.09-.19.15-.28l.14-.28.16-.27a5.593,5.593,0,0,1,.36-.49,2.229,2.229,0,0,0,.32-.5c.08-.18.15-.37.22-.57a6.233,6.233,0,0,0,.19-.64.06.06,0,0,0,0-.06Z" fill="#fff"/>
        <path id="Trazado_137629" data-name="Trazado 137629" d="M218.5,262a.07.07,0,0,0-.06,0,1.54,1.54,0,0,0-.65.24,2.161,2.161,0,0,0-.51.44,2.612,2.612,0,0,0-.19.27,1.878,1.878,0,0,0-.12.3,1.281,1.281,0,0,1-.09.32c-.03.11,0,.21-.08.31a7.569,7.569,0,0,0-.25,1.24,9.339,9.339,0,0,0-.07,1.18.07.07,0,0,0,.06.07h0a.07.07,0,0,0,.08,0,10.429,10.429,0,0,1,.48-1,11.393,11.393,0,0,1,.55-1,1.4,1.4,0,0,1,.15-.24l.18-.23a1.94,1.94,0,0,0,.28-.48,5,5,0,0,0,.17-.55,4.724,4.724,0,0,0,.12-.63.14.14,0,0,0,0-.06Z" fill="#fff"/>
        <path id="Trazado_137630" data-name="Trazado 137630" d="M221.23,262.57h-.06a1.47,1.47,0,0,0-.6.25,2.11,2.11,0,0,0-.47.42,1.55,1.55,0,0,0-.28.54,2.606,2.606,0,0,1-.14.6,7.63,7.63,0,0,0-.21,1.16,8.254,8.254,0,0,0-.05,1.11.09.09,0,0,0,.06.07h0a.07.07,0,0,0,.08,0c.16-.33.3-.66.46-1s.34-.67.52-1a3.282,3.282,0,0,1,.31-.45A1.642,1.642,0,0,0,221,264a1.33,1.33,0,0,0,.11-.24,3.742,3.742,0,0,0,.13-.53,2.71,2.71,0,0,0,.06-.6.08.08,0,0,0,0-.06Z" fill="#fff"/>
      </g>
    </g>
    <path id="Trazado_137631" data-name="Trazado 137631" d="M158,240c-9.17-3.51-7.77-6.65-30.59-16.58-20.27-8.82-68.35,9.57-87.83-53C11.71,81.07,100.89,10.85,204.4,43.58c21.13,6.68,84.43,46.4,75.15,117.49-4.8,36.71-31.05,68.21-66.41,78.39C197.06,244.08,177.17,247.32,158,240Z" fill="#d6d0a9"/>
    <g id="Grupo_83662" data-name="Grupo 83662">
      <g id="Grupo_83646" data-name="Grupo 83646">
        <rect id="Rectángulo_36103" data-name="Rectángulo 36103" width="117.82" height="116.06" rx="17.65" transform="translate(99.72 28.42)" fill="#fff"/>
        <path id="Trazado_137632" data-name="Trazado 137632" d="M214.54,28.42H102.72a3,3,0,0,0-3,3v7.26H217.54V31.41a3,3,0,0,0-3-2.99Z" fill="#93b3d8"/>
      </g>
      <g id="Grupo_83648" data-name="Grupo 83648">
        <circle id="Elipse_6717" data-name="Elipse 6717" cx="3.18" cy="3.18" r="3.18" transform="translate(209.12 30.77)" fill="#fff"/>
        <g id="Grupo_83647" data-name="Grupo 83647">
          <path id="Trazado_137633" data-name="Trazado 137633" d="M214,36a.36.36,0,0,1-.26-.11l-3.42-3.42a.36.36,0,0,1,0-.52.37.37,0,0,1,.53,0l3.41,3.41a.37.37,0,0,1,0,.53A.36.36,0,0,1,214,36Z" fill="#36dac9"/>
          <path id="Trazado_137634" data-name="Trazado 137634" d="M210.59,36a.38.38,0,0,1-.26-.11.37.37,0,0,1,0-.53L213.75,32a.37.37,0,0,1,.52.52l-3.41,3.42A.4.4,0,0,1,210.59,36Z" fill="#36dac9"/>
        </g>
      </g>
      <g id="Grupo_83650" data-name="Grupo 83650">
        <circle id="Elipse_6718" data-name="Elipse 6718" cx="7.47" cy="7.47" r="7.47" transform="translate(189.41 114.84)" fill="#36dac9"/>
        <g id="Grupo_83649" data-name="Grupo 83649">
          <path id="Trazado_137635" data-name="Trazado 137635" d="M196.8,127.77a.79.79,0,0,1-.56-1.35l4.12-4.11-4.12-4.12a.79.79,0,0,1,1.11-1.12l4.68,4.68a.78.78,0,0,1,0,1.11l-4.68,4.68a.78.78,0,0,1-.55.23Z" fill="#fff"/>
          <path id="Trazado_137636" data-name="Trazado 137636" d="M200.83,123.09h-8.55a.79.79,0,0,1,0-1.57h8.55a.79.79,0,0,1,0,1.57Z" fill="#fff"/>
        </g>
      </g>
      <g id="Grupo_83661" data-name="Grupo 83661">
        <g id="Grupo_83651" data-name="Grupo 83651">
          <path id="Trazado_137637" data-name="Trazado 137637" d="M182.89,48.07a.48.48,0,1,1-.47-.48.48.48,0,0,1,.47.48Z" fill="#c1b995"/>
          <path id="Trazado_137638" data-name="Trazado 137638" d="M184.87,48.07a.48.48,0,1,1-.47-.48.48.48,0,0,1,.47.48Z" fill="#c1b995"/>
          <path id="Trazado_137639" data-name="Trazado 137639" d="M186.85,48.07a.48.48,0,1,1-.48-.48.48.48,0,0,1,.48.48Z" fill="#c1b995"/>
          <path id="Trazado_137640" data-name="Trazado 137640" d="M186.83,46.28H126.59a.48.48,0,0,1-.48-.48.47.47,0,0,1,.48-.48h60.24a.48.48,0,0,1,.48.48A.49.49,0,0,1,186.83,46.28Z" fill="#c1b995"/>
          <path id="Trazado_137641" data-name="Trazado 137641" d="M186.83,43.94h-55a.49.49,0,0,1-.48-.48.48.48,0,0,1,.48-.48h55a.48.48,0,0,1,.48.48.49.49,0,0,1-.48.48Z" fill="#c1b995"/>
          <path id="Trazado_137642" data-name="Trazado 137642" d="M180.53,48.55H126.59a.47.47,0,0,1-.48-.48.48.48,0,0,1,.48-.48h53.94a.49.49,0,0,1,.48.48.48.48,0,0,1-.48.48Z" fill="#c1b995"/>
        </g>
        <g id="Grupo_83652" data-name="Grupo 83652">
          <path id="Trazado_137643" data-name="Trazado 137643" d="M179.83,72.33a.48.48,0,1,1-.48-.47.48.48,0,0,1,.48.47Z" fill="#c1b995"/>
          <circle id="Elipse_6719" data-name="Elipse 6719" cx="0.48" cy="0.48" r="0.48" transform="translate(180.85 71.85)" fill="#c1b995"/>
          <path id="Trazado_137644" data-name="Trazado 137644" d="M183.79,72.33a.48.48,0,1,1-.48-.47.48.48,0,0,1,.48.47Z" fill="#c1b995"/>
          <path id="Trazado_137645" data-name="Trazado 137645" d="M183.76,66H137.69a.48.48,0,0,1-.48-.48.47.47,0,0,1,.48-.48h46.07a.47.47,0,0,1,.48.48A.48.48,0,0,1,183.76,66Z" fill="#c1b995"/>
          <path id="Trazado_137646" data-name="Trazado 137646" d="M183.76,68.24H132.69a.48.48,0,0,1-.48-.48.47.47,0,0,1,.48-.48h51.07a.47.47,0,0,1,.48.48A.48.48,0,0,1,183.76,68.24Z" fill="#c1b995"/>
          <path id="Trazado_137647" data-name="Trazado 137647" d="M183.76,70.53H132.69a.48.48,0,0,1-.48-.48.47.47,0,0,1,.48-.48h51.07a.47.47,0,0,1,.48.48A.48.48,0,0,1,183.76,70.53Z" fill="#c1b995"/>
          <path id="Trazado_137648" data-name="Trazado 137648" d="M177.46,72.82H132.69a.48.48,0,0,1-.48-.48.47.47,0,0,1,.48-.48h44.77a.47.47,0,0,1,.48.48.48.48,0,0,1-.48.48Z" fill="#c1b995"/>
        </g>
        <g id="Grupo_83653" data-name="Grupo 83653">
          <path id="Trazado_137649" data-name="Trazado 137649" d="M179.83,60.14a.48.48,0,1,1-.48-.47.48.48,0,0,1,.48.47Z" fill="#c1b995"/>
          <path id="Trazado_137650" data-name="Trazado 137650" d="M181.81,60.14a.48.48,0,1,1-.48-.47.48.48,0,0,1,.48.47Z" fill="#c1b995"/>
          <path id="Trazado_137651" data-name="Trazado 137651" d="M183.79,60.14a.48.48,0,1,1-.48-.47.48.48,0,0,1,.48.47Z" fill="#c1b995"/>
          <path id="Trazado_137652" data-name="Trazado 137652" d="M183.76,56.06H137.69a.47.47,0,0,1-.48-.48.48.48,0,0,1,.48-.48h46.07a.48.48,0,0,1,.48.48.47.47,0,0,1-.48.48Z" fill="#c1b995"/>
          <path id="Trazado_137653" data-name="Trazado 137653" d="M183.76,58.35H132.69a.47.47,0,0,1-.48-.48.48.48,0,0,1,.48-.48h51.07a.48.48,0,0,1,.48.48.47.47,0,0,1-.48.48Z" fill="#c1b995"/>
          <path id="Trazado_137654" data-name="Trazado 137654" d="M177.46,60.63H132.69a.48.48,0,0,1-.48-.48.47.47,0,0,1,.48-.48h44.77a.47.47,0,0,1,.48.48.48.48,0,0,1-.48.48Z" fill="#c1b995"/>
        </g>
        <g id="Grupo_83654" data-name="Grupo 83654">
          <path id="Trazado_137655" data-name="Trazado 137655" d="M179.83,82a.48.48,0,1,1-.48-.48.48.48,0,0,1,.48.48Z" fill="#c1b995"/>
          <path id="Trazado_137656" data-name="Trazado 137656" d="M181.81,82a.48.48,0,1,1-.48-.48.48.48,0,0,1,.48.48Z" fill="#c1b995"/>
          <path id="Trazado_137657" data-name="Trazado 137657" d="M183.79,82a.48.48,0,1,1-.48-.48A.48.48,0,0,1,183.79,82Z" fill="#c1b995"/>
          <path id="Trazado_137658" data-name="Trazado 137658" d="M183.76,77.92H137.69a.47.47,0,0,1-.48-.48.48.48,0,0,1,.48-.48h46.07a.48.48,0,0,1,.48.48.47.47,0,0,1-.48.48Z" fill="#c1b995"/>
          <path id="Trazado_137659" data-name="Trazado 137659" d="M183.76,80.21H132.69a.47.47,0,0,1-.48-.48.48.48,0,0,1,.48-.48h51.07a.48.48,0,0,1,.48.48.47.47,0,0,1-.48.48Z" fill="#c1b995"/>
          <path id="Trazado_137660" data-name="Trazado 137660" d="M177.46,82.49H132.69a.48.48,0,0,1-.48-.48.47.47,0,0,1,.48-.48h44.77a.47.47,0,0,1,.48.48.48.48,0,0,1-.48.48Z" fill="#c1b995"/>
        </g>
        <path id="Trazado_137661" data-name="Trazado 137661" d="M127,58.83c0-.92.73-1.41,2.46-1.59a.61.61,0,0,0-.69-.63,2.35,2.35,0,0,0-1.15.39l-.46-.85a3.54,3.54,0,0,1,1.86-.57c1.12,0,1.73.64,1.73,2v2.5H129.7l-.09-.45h0a1.93,1.93,0,0,1-1.27.55A1.25,1.25,0,0,1,127,58.83Zm2.46,0V58c-.92.12-1.22.38-1.22.71s.19.42.5.42a1,1,0,0,0,.73-.35Z" fill="#12263f"/>
        <path id="Trazado_137662" data-name="Trazado 137662" d="M128.16,71.46h0l-.11.47h-1V65.77h1.29v2.17a1.79,1.79,0,0,1,1.15-.48c1.06,0,1.71.88,1.71,2.21,0,1.51-.9,2.37-1.84,2.36a1.57,1.57,0,0,1-1.2-.57Zm1.65-1.76c0-.79-.24-1.18-.75-1.18a1,1,0,0,0-.75.39V70.7a1,1,0,0,0,.69.3C129.45,71,129.81,70.6,129.81,69.7Z" fill="#12263f"/>
        <path id="Trazado_137663" data-name="Trazado 137663" d="M127,79.72a2.19,2.19,0,0,1,2.28-2.28,1.88,1.88,0,0,1,1.27.47l-.61.83a.87.87,0,0,0-.59-.26c-.62,0-1,.49-1,1.25s.41,1.24,1,1.24a1.31,1.31,0,0,0,.79-.32l.5.84a2.13,2.13,0,0,1-1.43.52A2.1,2.1,0,0,1,127,79.72Z" fill="#12263f"/>
        <g id="Grupo_83655" data-name="Grupo 83655">
          <path id="Trazado_137664" data-name="Trazado 137664" d="M179.83,118a.5.5,0,1,1-.5-.5.5.5,0,0,1,.5.5Z" fill="#c1b995"/>
          <path id="Trazado_137665" data-name="Trazado 137665" d="M181.81,118a.5.5,0,1,1-.5-.5.5.5,0,0,1,.5.5Z" fill="#c1b995"/>
          <path id="Trazado_137666" data-name="Trazado 137666" d="M183.79,118a.5.5,0,1,1-.5-.5.5.5,0,0,1,.5.5Z" fill="#c1b995"/>
          <path id="Trazado_137667" data-name="Trazado 137667" d="M183.76,111.63H137.69a.5.5,0,1,1,0-1h46.07a.5.5,0,0,1,0,1Z" fill="#c1b995"/>
          <path id="Trazado_137668" data-name="Trazado 137668" d="M183.76,113.92H132.69a.5.5,0,1,1,0-1h51.07a.5.5,0,0,1,0,1Z" fill="#c1b995"/>
          <path id="Trazado_137669" data-name="Trazado 137669" d="M183.76,116.21H132.69a.47.47,0,0,1-.48-.48.48.48,0,0,1,.48-.48h51.07a.48.48,0,0,1,.48.48.47.47,0,0,1-.48.48Z" fill="#c1b995"/>
          <path id="Trazado_137670" data-name="Trazado 137670" d="M177.46,118.5H132.69a.47.47,0,0,1-.48-.48.48.48,0,0,1,.48-.48h44.77a.48.48,0,0,1,.48.48.47.47,0,0,1-.48.48Z" fill="#c1b995"/>
        </g>
        <g id="Grupo_83656" data-name="Grupo 83656">
          <path id="Trazado_137671" data-name="Trazado 137671" d="M179.83,105.83a.48.48,0,1,1-.48-.48.48.48,0,0,1,.48.48Z" fill="#c1b995"/>
          <path id="Trazado_137672" data-name="Trazado 137672" d="M181.81,105.83a.48.48,0,1,1-.48-.48.48.48,0,0,1,.48.48Z" fill="#c1b995"/>
          <path id="Trazado_137673" data-name="Trazado 137673" d="M183.79,105.83a.48.48,0,1,1-.48-.48.48.48,0,0,1,.48.48Z" fill="#c1b995"/>
          <path id="Trazado_137674" data-name="Trazado 137674" d="M183.76,101.74H137.69a.48.48,0,1,1,0-.95h46.07a.48.48,0,1,1,0,.95Z" fill="#c1b995"/>
          <path id="Trazado_137675" data-name="Trazado 137675" d="M183.76,104H132.69a.5.5,0,1,1,0-1h51.07a.5.5,0,0,1,0,1Z" fill="#c1b995"/>
          <path id="Trazado_137676" data-name="Trazado 137676" d="M177.46,106.31H132.69a.5.5,0,1,1,0-1h44.77a.5.5,0,0,1,0,1Z" fill="#c1b995"/>
        </g>
        <g id="Grupo_83657" data-name="Grupo 83657">
          <path id="Trazado_137677" data-name="Trazado 137677" d="M179.83,127.69a.48.48,0,1,1-.48-.48A.49.49,0,0,1,179.83,127.69Z" fill="#c1b995"/>
          <path id="Trazado_137678" data-name="Trazado 137678" d="M181.81,127.69a.48.48,0,1,1-.48-.48A.49.49,0,0,1,181.81,127.69Z" fill="#c1b995"/>
          <path id="Trazado_137679" data-name="Trazado 137679" d="M183.79,127.69a.48.48,0,1,1-.48-.48.49.49,0,0,1,.48.48Z" fill="#c1b995"/>
          <path id="Trazado_137680" data-name="Trazado 137680" d="M183.76,123.61H137.69a.48.48,0,0,1-.48-.48.47.47,0,0,1,.48-.48h46.07a.47.47,0,0,1,.48.48.48.48,0,0,1-.48.48Z" fill="#c1b995"/>
          <path id="Trazado_137681" data-name="Trazado 137681" d="M183.76,125.9H132.69a.48.48,0,0,1-.48-.48.47.47,0,0,1,.48-.48h51.07a.47.47,0,0,1,.48.48.48.48,0,0,1-.48.48Z" fill="#c1b995"/>
          <path id="Trazado_137682" data-name="Trazado 137682" d="M177.46,128.17H132.69a.47.47,0,0,1-.48-.48.48.48,0,0,1,.48-.48h44.77a.48.48,0,0,1,.48.48.47.47,0,0,1-.48.48Z" fill="#c1b995"/>
        </g>
        <path id="Trazado_137683" data-name="Trazado 137683" d="M127,104.52c0-.92.73-1.42,2.46-1.6a.61.61,0,0,0-.69-.63,2.35,2.35,0,0,0-1.15.39l-.46-.85a3.63,3.63,0,0,1,1.86-.57c1.12,0,1.73.64,1.73,2v2.49H129.7l-.09-.45h0a1.93,1.93,0,0,1-1.27.55,1.25,1.25,0,0,1-1.34-1.33Zm2.46-.06v-.76c-.92.12-1.22.39-1.22.71s.19.42.5.42a1,1,0,0,0,.73-.37Z" fill="#12263f"/>
        <path id="Trazado_137684" data-name="Trazado 137684" d="M128.16,117.15h0l-.11.46h-1v-6.16h1.29v2.22a1.74,1.74,0,0,1,1.15-.48c1.06,0,1.71.87,1.71,2.21,0,1.5-.9,2.36-1.84,2.36A1.61,1.61,0,0,1,128.16,117.15Zm1.65-1.77c0-.78-.24-1.18-.75-1.18a1,1,0,0,0-.75.39v1.79a1,1,0,0,0,.69.28c.45,0,.81-.38.81-1.28Z" fill="#12263f"/>
        <path id="Trazado_137685" data-name="Trazado 137685" d="M127,125.41a2.2,2.2,0,0,1,2.28-2.29,1.93,1.93,0,0,1,1.27.47l-.61.83a.9.9,0,0,0-.59-.25c-.62,0-1,.48-1,1.24s.41,1.24,1,1.24a1.31,1.31,0,0,0,.79-.32l.5.85a2.19,2.19,0,0,1-3.59-1.77Z" fill="#12263f"/>
        <g id="Grupo_83658" data-name="Grupo 83658">
          <path id="Trazado_137686" data-name="Trazado 137686" d="M118,47.4h1.22V44.17h-1v-.8a3.9,3.9,0,0,0,1.38-.51h1V47.4h1v1H118Z" fill="#12263f"/>
          <path id="Trazado_137687" data-name="Trazado 137687" d="M122.53,47.74a.78.78,0,1,1,.218.571.78.78,0,0,1-.218-.571Z" fill="#12263f"/>
        </g>
        <g id="Grupo_83659" data-name="Grupo 83659">
          <path id="Trazado_137688" data-name="Trazado 137688" d="M183.18,94.46a.48.48,0,1,1-.48-.47.47.47,0,0,1,.48.47Z" fill="#c1b995"/>
          <path id="Trazado_137689" data-name="Trazado 137689" d="M185.16,94.46a.48.48,0,1,1-.48-.47.47.47,0,0,1,.48.47Z" fill="#c1b995"/>
          <path id="Trazado_137690" data-name="Trazado 137690" d="M187.14,94.46a.48.48,0,1,1-.48-.47.47.47,0,0,1,.48.47Z" fill="#c1b995"/>
          <path id="Trazado_137691" data-name="Trazado 137691" d="M187.12,92.67H126.87a.47.47,0,0,1-.47-.48.48.48,0,0,1,.47-.48h60.25a.49.49,0,0,1,.48.48A.48.48,0,0,1,187.12,92.67Z" fill="#c1b995"/>
          <path id="Trazado_137692" data-name="Trazado 137692" d="M187.12,90.33h-55a.48.48,0,0,1-.48-.48.49.49,0,0,1,.48-.48h55a.49.49,0,0,1,.48.48.48.48,0,0,1-.48.48Z" fill="#c1b995"/>
          <path id="Trazado_137693" data-name="Trazado 137693" d="M180.82,95H126.87a.48.48,0,0,1-.47-.48.47.47,0,0,1,.47-.48h53.95a.48.48,0,0,1,.48.48.49.49,0,0,1-.48.48Z" fill="#c1b995"/>
        </g>
        <g id="Grupo_83660" data-name="Grupo 83660">
          <path id="Trazado_137694" data-name="Trazado 137694" d="M118,94.21c1.42-1.35,2.43-2.3,2.43-3.1a.75.75,0,0,0-.79-.84,1.46,1.46,0,0,0-1,.57l-.7-.7a2.37,2.37,0,0,1,1.87-.88A1.72,1.72,0,0,1,121.68,91c0,.94-.89,1.94-1.8,2.89.29,0,.68-.07.93-.07h1.13V95H118Z" fill="#12263f"/>
          <path id="Trazado_137695" data-name="Trazado 137695" d="M122.87,94.25a.78.78,0,1,1,.218.571A.78.78,0,0,1,122.87,94.25Z" fill="#12263f"/>
        </g>
      </g>
      <text id="Documento" transform="translate(129.54 37.37)" fill="#fff" font-size="12" font-family="SegoeUI, Segoe UI"><tspan x="0" y="0">Documen</tspan><tspan y="0" letter-spacing="-0.01em">t</tspan><tspan y="0">o</tspan></text>
    </g>
    <path id="Trazado_137696" data-name="Trazado 137696" d="M197.92,258.89c-.15,2.28,2.73,4.12,4.28,8.73.6,1.78,0,2.47,1.32,6.33a6.61,6.61,0,0,0,2,3.28,5.82,5.82,0,0,0,2.83,1.22c2,.24,3.36-.82,6.19-2.52a63.435,63.435,0,0,1,7.76-4.1,59.385,59.385,0,0,0,6.24-2.74c2-1.06,4.08-1,5.15-3.52,1.25-2.9-5.53.27-18.38-5-4-1.63-5.08-5.65-5.94-7C207,249.77,198.16,255.18,197.92,258.89Z" fill="#f79556"/>
    <path id="Trazado_137697" data-name="Trazado 137697" d="M68.52,271.56a3.64,3.64,0,0,1,1.84-2.44h0c-.08-.89-.51-2.08.87-3,5.18-3.57,16.36-8,31.5-8.76V215.07h5.73v42.2c15.45.64,26.87,5.16,32.12,8.78,1.38.95.95,2.14.87,3a1.45,1.45,0,0,1-1.38,1.11,4.811,4.811,0,0,1,.64.54,3.41,3.41,0,0,1,1,3.5c-.45,1.8-2,3-3.39,2.62h-.11a8.239,8.239,0,0,1-3.11-1.7,3.72,3.72,0,0,1,1.13-6.13c-9.5-5.16-16.3-6.3-18.24-6-.61.09-.79.43.66,1.25,2.85,1.61,11.35,6.24,15.44,12.15.31.45,1.08,3-.49,3.81a3.6,3.6,0,0,1-.77.28,7.072,7.072,0,0,1,1.16.91,3.94,3.94,0,0,1,1.11,4.05c-.52,2.08-2.27,3.44-3.91,3h-.13a9.43,9.43,0,0,1-3.6-2,4,4,0,0,1-1.23-4.12,4.07,4.07,0,0,1,2.45-2.94c-6-4.22-17.67-12.48-22.74-12.66-5.2.18-17.33,8.9-23.21,13a5.3,5.3,0,0,1-1.13.55,7.679,7.679,0,0,1,1.4,1.09,4,4,0,0,1,1.1,4.05c-.51,2.08-2.27,3.44-3.91,3h-.13a9.43,9.43,0,0,1-3.6-2,4,4,0,0,1-1.23-4.12,4.17,4.17,0,0,1,2.27-2.87,3.92,3.92,0,0,1,.23-3.09c4.09-5.91,12.59-10.54,15.44-12.15,1.45-.82,1.27-1.16.65-1.25-2-.27-9,.91-18.81,6.35a9.413,9.413,0,0,1-1,.49,6.412,6.412,0,0,1,1.23.93,3.41,3.41,0,0,1,1,3.5c-.45,1.8-2,3-3.39,2.62h-.11a8.24,8.24,0,0,1-3.11-1.7,3.46,3.46,0,0,1-1.11-3.56Z" fill="#12263f"/>
    <path id="Trazado_137698" data-name="Trazado 137698" d="M84.54,210.82c1.25-.4,2.62-.79,4.14-1.17a87.2,87.2,0,0,1,35.09-1.72c6.83,1,15.1,3.41,18.19,9.69.56,1.12,2.33,4.71.77,7.92a8.1,8.1,0,0,1-4.23,3.66c-3,1.27-8.22.69-9,.7-6.5.06-9.29,0-22.93.83-19.13,1.18-24.23,6-31.58,2a9.28,9.28,0,0,1-3.82-3.89,9,9,0,0,1-.31-7.08A21.09,21.09,0,0,1,84.54,210.82Z" fill="#6d6956"/>
    <path id="Trazado_137699" data-name="Trazado 137699" d="M166.55,227.86l22.79,41.2s3.31-.76,9.75-4.83a47.92,47.92,0,0,0,10-8.83s.89-4.86-14.36-22.07C175,211,168.9,208.2,164.07,206.85,154,204,166.55,227.86,166.55,227.86Z" fill="#12263f"/>
    <path id="Trazado_137700" data-name="Trazado 137700" d="M92.07,196.47a13.66,13.66,0,0,0-2.15,6.05c0,.36-.36,6,3.4,9.24,2.56,2.19,8.41,2.88,10.17,2.86,13-.16,75.65,12.72,79.67-2.06.2-.73,1.32-4.26.25-6.28a10,10,0,0,0-1.47-2.11c-6.34-5.57-15.39-8-28.26-11.24a180.809,180.809,0,0,0-29.61-5.25c-14.58-1.45-18.15-.73-21.26.46C95.64,190.89,92.64,195.55,92.07,196.47Z" fill="#1565b2"/>
    <path id="Trazado_137701" data-name="Trazado 137701" d="M175.58,169.7a1.11,1.11,0,0,0,.29-.4c.72-1.64-6.62-9-10.05-9.7-1.25-.25-1.92.17-5.25,1.83a18.34,18.34,0,0,1-4.22,1.71,13.771,13.771,0,0,1-2.17.34,65.621,65.621,0,0,1-12.55-.45c-8-1.13-13.84-2.11-14.38-2.17-12.56-1.37-26.71-11.87-27.17-12.9-1.13-2.54-.46,9.55-.23,10.5.71,2.91,1.66,6.82,4.91,9.59,2.08,1.77,6.55,2.34,15.41,3.42a74.112,74.112,0,0,0,11.53.8c.59,0,3.21-.28,8.44-.8,6.36-.63,11.71-1.18,16.21-2.39,1.2-.33,1.8-.49,2.4-.69,3.64-1.22,4.43-2.3,6.05-2,1.36.21,2.3,2.54,4,3.36Z" fill="#ec7d40"/>
    <path id="Trazado_137702" data-name="Trazado 137702" d="M113.32,144.77c-.34-.49.09-1.35.69-2.52a17.508,17.508,0,0,1,1.82-2.62,6.94,6.94,0,0,1,3.66-2.51c2.11-.69,3.16-1,3.65-1.71.06-.09.22-.33.45-.35s.57.33.69.57a2.06,2.06,0,0,1-.23,1.72c-.81,1.45-2.27,1.06-4.22,2.74a8.68,8.68,0,0,0-1.37,1.48c-1.15,1.51-1,2.18-1.83,2.85C115.56,145.28,113.79,145.41,113.32,144.77Z" fill="#ec7d40"/>
    <path id="Trazado_137703" data-name="Trazado 137703" d="M100.94,166.51a6.26,6.26,0,0,1,8.16,3.5,23.68,23.68,0,0,0,3.52,6.07,36.82,36.82,0,0,0,13.86,10.37c2.88.73,1.63,1.61,1.32,1.63-11.22.75-20.47,22.83-24.72,25.27-2.94,1.68-7,1-9.43-.45-6.86-4-6.41-16.72-6.25-22.2.13-4.44,2.73-19.69,13.46-24.15Z" fill="#36dac9"/>
    <path id="Trazado_137704" data-name="Trazado 137704" d="M122.86,138.5a5.56,5.56,0,0,1,1.62-1.59,3.972,3.972,0,0,1,4.23-.02V134a.35.35,0,0,1,.35-.35h15.23a.35.35,0,0,1,.35.35v18a.34.34,0,0,1-.35.35H129.06a.35.35,0,0,1-.35-.35v-2.07a4,4,0,0,1-2.09.6,4.05,4.05,0,0,1-2.14-.62,5.47,5.47,0,0,1-1.62-1.6,9.24,9.24,0,0,1,0-9.81Zm3.76,10.2a2.7,2.7,0,0,0,2.09-1.22v-8.14a2.7,2.7,0,0,0-2.1-1.22c-1.8,0-3.32,2.42-3.32,5.29S124.81,148.7,126.62,148.7Z" fill="#2daea0"/>
    <path id="Trazado_137705" data-name="Trazado 137705" d="M134.54,207.81c-1.89,3.45,5.26,10.61,5.26,10.61s21.92,4.45,26.41,5.57c3.58.89,3.68,4.71,6.64,9.87,5.89,10.27,20.83,35.69,20.83,35.69a37.31,37.31,0,0,0,9.87-4.76,96.484,96.484,0,0,0,9.17-7.3s-18.71-33.9-25.33-45.82c-3.35-6-6.25-11-16.86-13.74-5.07-1.3-11.77,2-18.57,2.86C144.67,201.67,137.41,202.58,134.54,207.81Z" fill="#1565b2"/>
    <g id="Grupo_83663" data-name="Grupo 83663">
      <path id="Trazado_137706" data-name="Trazado 137706" d="M157.74,285.53h1.8a.89.89,0,0,0,.86-.65L185.32,179.1a1.47,1.47,0,0,0-1.42-1.86h-3.75a1.47,1.47,0,0,0-1.42,1.11L156.87,284.42a.89.89,0,0,0,.87,1.11Z" fill="#12263f"/>
      <path id="Trazado_137707" data-name="Trazado 137707" d="M256.91,285.53H255.1a.9.9,0,0,1-.86-.65L229.33,179.1a1.46,1.46,0,0,1,1.41-1.86h3.75a1.47,1.47,0,0,1,1.43,1.11l21.86,106.07a.9.9,0,0,1-.87,1.11Z" fill="#12263f"/>
    </g>
    <rect id="Rectángulo_36104" data-name="Rectángulo 36104" width="124.11" height="6.78" rx="3.39" transform="translate(269.37 178.89) rotate(180)" fill="#12263f"/>
    <path id="Trazado_137708" data-name="Trazado 137708" d="M71.32,265.86c3.39-2.35,15.92-9.15,34.42-9.21h.33c18.5.06,31,6.86,34.42,9.21.62.44-.17,1.54-1.67.86-.95-.43-12.79-7.37-25.73-7.74-2.46-.07-2.54.71-.62,1.57,13.2,5.9,21.59,15,21.59,15.73,0,1.1-2,1.5-2.59,1-4.1-3.28-11.67-9.72-21.33-14.54a3,3,0,0,0-.39-.16,11.17,11.17,0,0,0-7.69,0,3,3,0,0,0-.39.16C92,267.56,84.44,274,80.34,277.28c-.63.5-2.59.1-2.59-1,0-.71,8.38-9.83,21.59-15.73,1.92-.86,1.84-1.64-.62-1.57-12.94.37-24.78,7.31-25.73,7.74C71.49,267.4,70.7,266.3,71.32,265.86Z" fill="#6d6956"/>
    <path id="Trazado_137709" data-name="Trazado 137709" d="M105.6,260.13h0a4.36,4.36,0,0,1-4.36-4.36V238.33a.53.53,0,0,1,.53-.53h7.65a.52.52,0,0,1,.53.53v17.44a4.36,4.36,0,0,1-4.35,4.36Z" fill="#6d6956"/>
    <path id="Trazado_137710" data-name="Trazado 137710" d="M158.51,169.75a11.78,11.78,0,0,0,4-1.05,13.61,13.61,0,0,0,3.39-2.22,3.21,3.21,0,0,1,1.17-.82,3.481,3.481,0,0,1,1-.24,27,27,0,0,0,2.69-.35,3.4,3.4,0,0,0,2-1,1.48,1.48,0,0,0,.35-.82,1.22,1.22,0,0,0-.35-.93,1.52,1.52,0,0,0-1.29-.12c-1.11.22-2.26.21-3.39.35a30.2,30.2,0,0,1-3.16.47c-2.25.13-2.26.13-3,.23a11.43,11.43,0,0,0-4.45,1.18,4.61,4.61,0,0,0-2.34,2.45C154.87,167.61,155,170.22,158.51,169.75Z" fill="#f79556"/>
    <g id="Grupo_83666" data-name="Grupo 83666">
      <g id="Grupo_83664" data-name="Grupo 83664">
        <path id="Trazado_137711" data-name="Trazado 137711" d="M246.23,124.48a17.19,17.19,0,0,1,1.94-5.82,7.31,7.31,0,0,0,1.16-2.52c0-.28.06-.49.07-.18,0,1-1,2.68-.59,4.58.48,2.34.59,5.46-.06,6.28S246.23,124.48,246.23,124.48Z" fill="#346e00"/>
        <path id="Trazado_137712" data-name="Trazado 137712" d="M249.91,130.76a12.43,12.43,0,0,1,5.64-5.79c4.3-2.43,5.32-4.15,5.16-5.56s.3-1,.32.31c0,2.43-4.23,7.59-4.94,10.41s-2.27,12.84-4.15,14.33S248.18,133.5,249.91,130.76Z" fill="#9fbc50"/>
        <path id="Trazado_137713" data-name="Trazado 137713" d="M235.6,142.33c-.06-.47.64-6.81-1.88-10s-4.29-4.05-6.11-8.1a29.2,29.2,0,0,1-1.64-4.78c-.11-.31-.62-.56-.53-.56s.07,0,.67.35c1.82.92,6.46,3.48,8.14,7.11,2.23,4.81,5.4,11.27,5.4,12.15s2.17,7.69,2.17,7.69Z" fill="#346e00"/>
        <path id="Trazado_137714" data-name="Trazado 137714" d="M241.47,146a37.5,37.5,0,0,1-5-10.13c-2-6.27-4.1-5.86-2.82-14.14s2.81-8.28,2.25-10.93,0-1.32.32.32a19.55,19.55,0,0,0,3.62,8.36c2.09,2.89,3.21,3.94,4.58,7.55s4.26,12.46,1.13,16.15S241.47,146,241.47,146Z" fill="#9fbc50"/>
        <path id="Trazado_137715" data-name="Trazado 137715" d="M242.86,156.29s-3.13-10.34-2.11-16.84,3.54-18.79,3.44-22.16-.68-4.52-.31-4.23-.07,1.59,1.49,5.56c1.87,4.8,5.63,9.32,6.18,13.63s.94,6.81-.31,11.66a91.33,91.33,0,0,1-4.39,13.78C245.05,161.77,242.86,156.29,242.86,156.29Z" fill="#2daea0"/>
        <path id="Trazado_137716" data-name="Trazado 137716" d="M244.07,153.86a12.77,12.77,0,0,0-4.93-10.18c-5.32-4.15-5.95-4.93-5.95-4.93a6.2,6.2,0,0,1,2,3.6c.55,2.5.08,3.13,1.65,6.81s3.6,2.9,3.52,6,.47,3,1.41,3.13S244.07,156.83,244.07,153.86Z" fill="#9fbc50"/>
        <path id="Trazado_137717" data-name="Trazado 137717" d="M234.85,139.8c-3.54-3.53-1.84-4.25-3-6.46a22.469,22.469,0,0,0-3.82-4.72c-1.05-1.21-.91-2.29-.44.23s-.12,3.82,1.35,5.93,2.65,2.53,4.58,4.29S237,142,237,142,236.46,141.42,234.85,139.8Z" fill="#2daea0"/>
        <path id="Trazado_137718" data-name="Trazado 137718" d="M254.16,133a14,14,0,0,1,3.28-4.75,11.34,11.34,0,0,0,2.76-3,2.331,2.331,0,0,0,.21-.65c.06-.3,0-.44.07-.43s-.2.74-.28,2.11c-.11,2.06.83,3.41-.52,6.52s-1.77,6-4.88,7.87-3.87,2.64-3.7,2.11S254.16,133,254.16,133Z" fill="#346e00"/>
        <path id="Trazado_137719" data-name="Trazado 137719" d="M249.67,143.69a52.319,52.319,0,0,1,7-4.85,24.941,24.941,0,0,1-3.2,4.84c-2.69,3.14-4,1.56-3.68,12.06s-2.19,2.27-2.19,2.5S243,148.93,249.67,143.69Z" fill="#9fbc50"/>
      </g>
      <g id="Grupo_83665" data-name="Grupo 83665">
        <path id="Trazado_137720" data-name="Trazado 137720" d="M236.27,153.57a.42.42,0,0,0-.42.41v.75c0,6.71,1.21,12.74,3.14,16.87a.42.42,0,0,0,.38.24h10.82a.4.4,0,0,0,.37-.24c1.93-4.13,3.15-10.16,3.15-16.87v-.75a.41.41,0,0,0-.42-.41Z" fill="#bc7e55"/>
        <path id="Trazado_137721" data-name="Trazado 137721" d="M253.61,158.05h-15.9l15.67,2.64C253.47,159.83,253.55,159,253.61,158.05Z" fill="#12263f"/>
      </g>
    </g>
    <g id="Grupo_83668" data-name="Grupo 83668">
      <g id="Grupo_83667" data-name="Grupo 83667">
        <circle id="Elipse_6720" data-name="Elipse 6720" cx="18.47" cy="18.47" r="18.47" transform="translate(223.508 93.432) rotate(-85.93)" fill="#2daea0"/>
        <circle id="Elipse_6721" data-name="Elipse 6721" cx="15.75" cy="15.75" r="15.75" transform="translate(227.48 60.56)" fill="#12263f"/>
        <circle id="Elipse_6722" data-name="Elipse 6722" cx="14.84" cy="14.84" r="14.84" transform="translate(223.831 84.338) rotate(-67.5)" fill="#fff"/>
      </g>
      <path id="Trazado_137722" data-name="Trazado 137722" d="M244.02,76.61l-.78-13.45-.74,12.66-8.73,7.41Z" fill="#12263f"/>
    </g>
    <g id="Grupo_83670" data-name="Grupo 83670">
      <path id="Trazado_137723" data-name="Trazado 137723" d="M201.22,266.4a33.649,33.649,0,0,0,.41,6.89c.48,2.33,1.15,6.57,3.22,7.58,1,.5,1.06.54,5.3-.95a93.83,93.83,0,0,1,12.75-3.44c5.78-1.27,6.56-.75,11-3.07,4.09-2.13,8-5.78,7.8-7.22-.37-3-2.2-4.37-3.06-4.34-1.52,0-2.53,1.22-4.48,1.59-4.38.83-15.43-2.35-17-2.84-1.17-.37-2.11-.42-2.75.33-.79.92-1.5,3.33-4.49,5-3.23,1.81-6.57,1.75-7.37,1.32s-.8-1.24-1.11-1.2S201.23,266.27,201.22,266.4Z" fill="#4b3c7c"/>
      <path id="Trazado_137724" data-name="Trazado 137724" d="M204.06,277.55l4.88-1.26q2.44-.63,4.89-1.23l2.44-.58,1.22-.28,1.23-.25c.82-.16,1.64-.31,2.47-.45l2.48-.46c.83-.16,1.66-.35,2.48-.56s1.65-.46,2.45-.74a26,26,0,0,0,4.63-2.15,29.33,29.33,0,0,0,4.18-2.89c.17-.14.32-.28.48-.43a6.335,6.335,0,0,0,.46-.44,10.881,10.881,0,0,0,.86-.94,8.12,8.12,0,0,0,.73-1,4.412,4.412,0,0,0,.28-.58,2.129,2.129,0,0,0,.17-.61,2.271,2.271,0,0,1-.23.58,4.794,4.794,0,0,1-.34.53,8,8,0,0,1-.8,1c-.29.29-.6.58-.91.84l-.49.4-.49.37a18.372,18.372,0,0,1-2.08,1.39c-.71.39-1.44.83-2.18,1.22a28.182,28.182,0,0,1-4.56,1.95,39.11,39.11,0,0,1-4.82,1.23l-2.47.46c-.83.16-1.66.32-2.48.5l-1.24.28-1.23.32c-.41.1-.81.21-1.22.33l-1.21.34c-1.62.47-3.23,1-4.83,1.5S205.63,276.94,204.06,277.55Z" fill="#fff"/>
      <g id="Grupo_83669" data-name="Grupo 83669">
        <path id="Trazado_137725" data-name="Trazado 137725" d="M219.35,260.63v-.05a1.43,1.43,0,0,0-.8.18l-.19.1-.17.12h0a2.728,2.728,0,0,0-.31.27c0,.05-.09.1-.13.16a1,1,0,0,0-.12.16,2.419,2.419,0,0,0-.18.36h0a1.256,1.256,0,0,1-.13.37,1.8,1.8,0,0,0-.05.19l-.06.19a6.208,6.208,0,0,0-.2.74c-.05.24-.08.49-.11.74h0v1.43a.07.07,0,0,0,.06.07h0a.08.08,0,0,0,.07-.05l.21-.64c.08-.23.17-.45.25-.67s.1-.22.14-.33a3.09,3.09,0,0,1,.14-.32l.16-.32a2.193,2.193,0,0,1,.16-.3,1.752,1.752,0,0,1,.18-.29l.2-.27a2.686,2.686,0,0,0,.2-.27l.08-.13.08-.14a.64.64,0,0,1,.08-.14l.07-.15c.05-.09.1-.2.15-.3s.2-.39.33-.62a.13.13,0,0,0,0-.06Z" fill="#fff"/>
        <path id="Trazado_137726" data-name="Trazado 137726" d="M221.94,261.16h-.06a1.52,1.52,0,0,0-.67.26,2.382,2.382,0,0,0-.52.48,1.81,1.81,0,0,0-.19.29,1.791,1.791,0,0,0-.13.32c-.06.22-.1.45-.16.66a8.95,8.95,0,0,0-.21,2.55.07.07,0,0,0,.06.07h0a.08.08,0,0,0,.07,0c.14-.38.27-.77.42-1.13l.06-.15.06-.14c.05-.1.08-.19.13-.28l.12-.28.14-.28a5.3,5.3,0,0,1,.32-.5,1.79,1.79,0,0,0,.27-.51,5.269,5.269,0,0,0,.19-.56,4.677,4.677,0,0,1,.14-.64.06.06,0,0,0,0-.06Z" fill="#fff"/>
        <path id="Trazado_137727" data-name="Trazado 137727" d="M224.65,261.72a.07.07,0,0,0-.06,0,1.54,1.54,0,0,0-.61.27,2.28,2.28,0,0,0-.47.46,1.61,1.61,0,0,0-.17.28,1.511,1.511,0,0,0-.1.3,1.729,1.729,0,0,1-.07.31,2.842,2.842,0,0,1-.06.31,8.719,8.719,0,0,0-.17,1.22,9,9,0,0,0,0,1.16.06.06,0,0,0,.06.06h0a.06.06,0,0,0,.07,0c.14-.36.26-.71.4-1.06a9.328,9.328,0,0,1,.47-1,2,2,0,0,1,.14-.25l.16-.23a1.72,1.72,0,0,0,.24-.49c.05-.17.1-.35.14-.54a5.319,5.319,0,0,0,.07-.62.09.09,0,0,0,0-.06Z" fill="#fff"/>
        <path id="Trazado_137728" data-name="Trazado 137728" d="M227.35,262.13h-.06a1.52,1.52,0,0,0-.57.28,1.8,1.8,0,0,0-.43.44,1.38,1.38,0,0,0-.24.54,2.912,2.912,0,0,1-.1.59,9,9,0,0,0-.13,1.15,7.788,7.788,0,0,0,0,1.08.07.07,0,0,0,.06.07h0a.08.08,0,0,0,.07,0c.13-.33.25-.66.39-1s.29-.67.44-1a2.6,2.6,0,0,1,.28-.45,2.389,2.389,0,0,0,.12-.22,2.348,2.348,0,0,0,.09-.24,4.148,4.148,0,0,0,.1-.53,3.791,3.791,0,0,0,0-.6Z" fill="#fff"/>
      </g>
    </g>
    <g id="Grupo_83677" data-name="Grupo 83677">
      <path id="Trazado_137729" data-name="Trazado 137729" d="M183.45,172.13H222.2a3.65,3.65,0,0,0,3.52-2.67l9.15-32.53a1.69,1.69,0,0,0-1.63-2.15H194a3.68,3.68,0,0,0-3.54,2.68l-9,32.07a2,2,0,0,0,1.99,2.6Z" fill="#12263f"/>
      <path id="Trazado_137730" data-name="Trazado 137730" d="M183.13,171.6H220.8a3.49,3.49,0,0,0,3.36-2.55L233,137.73a1.15,1.15,0,0,0-1.11-1.47h-37.7a3.5,3.5,0,0,0-3.37,2.55L182,170.12a1.17,1.17,0,0,0,1.13,1.48Z" fill="#fff"/>
      <path id="Trazado_137731" data-name="Trazado 137731" d="M153.68,171.38s1.15-1.53,1.48-1.53h44.12c-.33,0-1.48,1.53-1.48,1.53a.46.46,0,0,0,.39.75H154.06a.46.46,0,0,1-.38-.75Z" fill="#6d6956"/>
      <path id="Trazado_137732" data-name="Trazado 137732" d="M197.58,171.38s1.16-1.53,1.49-1.53H224.4a3.58,3.58,0,0,1-3.33,2.28H198a.46.46,0,0,1-.42-.75Z" fill="#12263f"/>
      <g id="Grupo_83676" data-name="Grupo 83676">
        <g id="Grupo_83671" data-name="Grupo 83671">
          <path id="Trazado_137733" data-name="Trazado 137733" d="M226,145a.35.35,0,0,1-.32.25.19.19,0,0,1-.19-.25.36.36,0,0,1,.32-.26.2.2,0,0,1,.19.26Z" fill="#c1b995"/>
          <path id="Trazado_137734" data-name="Trazado 137734" d="M227,145a.36.36,0,0,1-.32.25.19.19,0,0,1-.19-.25.36.36,0,0,1,.32-.26.2.2,0,0,1,.19.26Z" fill="#c1b995"/>
          <path id="Trazado_137735" data-name="Trazado 137735" d="M228.09,145a.36.36,0,0,1-.33.25.18.18,0,0,1-.18-.25.36.36,0,0,1,.32-.26.2.2,0,0,1,.19.26Z" fill="#c1b995"/>
          <path id="Trazado_137736" data-name="Trazado 137736" d="M228.33,144H196.39a.19.19,0,0,1-.18-.26.34.34,0,0,1,.32-.25h31.93a.19.19,0,0,1,.19.25.36.36,0,0,1-.32.26Z" fill="#c1b995"/>
          <path id="Trazado_137737" data-name="Trazado 137737" d="M228.66,142.79H199.49a.19.19,0,0,1-.18-.26.35.35,0,0,1,.32-.25H228.8a.18.18,0,0,1,.18.25.36.36,0,0,1-.32.26Z" fill="#c1b995"/>
          <path id="Trazado_137738" data-name="Trazado 137738" d="M224.66,145.23H196.07a.19.19,0,0,1-.19-.25.36.36,0,0,1,.33-.26H224.8a.2.2,0,0,1,.19.26.36.36,0,0,1-.33.25Z" fill="#c1b995"/>
        </g>
        <g id="Grupo_83672" data-name="Grupo 83672">
          <path id="Trazado_137739" data-name="Trazado 137739" d="M220.91,157.84a.34.34,0,0,1-.32.25.18.18,0,0,1-.18-.25.35.35,0,0,1,.32-.25.18.18,0,0,1,.18.25Z" fill="#c1b995"/>
          <path id="Trazado_137740" data-name="Trazado 137740" d="M222,157.84a.34.34,0,0,1-.32.25.18.18,0,0,1-.18-.25.35.35,0,0,1,.32-.25.18.18,0,0,1,.18.25Z" fill="#c1b995"/>
          <path id="Trazado_137741" data-name="Trazado 137741" d="M223,157.84a.34.34,0,0,1-.32.25.18.18,0,0,1-.18-.25.34.34,0,0,1,.32-.25.18.18,0,0,1,.18.25Z" fill="#c1b995"/>
          <path id="Trazado_137742" data-name="Trazado 137742" d="M223.91,154.45H206.37a.18.18,0,0,1-.18-.25.35.35,0,0,1,.32-.25H224a.18.18,0,0,1,.19.25.35.35,0,0,1-.28.25Z" fill="#c1b995"/>
          <path id="Trazado_137743" data-name="Trazado 137743" d="M223.58,155.67H203.4a.19.19,0,0,1-.19-.26.35.35,0,0,1,.32-.25h20.19a.19.19,0,0,1,.19.25A.37.37,0,0,1,223.58,155.67Z" fill="#c1b995"/>
          <path id="Trazado_137744" data-name="Trazado 137744" d="M223.26,156.88H203.07a.18.18,0,0,1-.18-.25.35.35,0,0,1,.32-.26h20.18a.19.19,0,0,1,.19.26A.35.35,0,0,1,223.26,156.88Z" fill="#c1b995"/>
          <path id="Trazado_137745" data-name="Trazado 137745" d="M219.59,158.1H202.75a.19.19,0,0,1-.19-.26.35.35,0,0,1,.32-.25h16.85a.18.18,0,0,1,.18.25A.35.35,0,0,1,219.59,158.1Z" fill="#c1b995"/>
        </g>
        <path id="Trazado_137746" data-name="Trazado 137746" d="M201.05,158.34h-4.22a.16.16,0,0,1-.15-.21l1.13-4.22a.3.3,0,0,1,.26-.21h4.22a.16.16,0,0,1,.15.21l-1.13,4.22a.3.3,0,0,1-.26.21Zm-3.9-.42H201l1-3.8h-3.8Z" fill="#c1b995"/>
        <path id="Trazado_137747" data-name="Trazado 137747" d="M198.23,158.2a.65.65,0,0,0,.41-.15l3.7-3.32a.57.57,0,0,0,.2-.74.52.52,0,0,0-.73,0l-3.2,2.8-.68-2.28a.51.51,0,0,0-.74,0,.56.56,0,0,0-.19.73l.91,2.81A.38.38,0,0,0,198.23,158.2Z" fill="#36dac9"/>
        <path id="Trazado_137748" data-name="Trazado 137748" d="M202.61,152.48H198.4a.15.15,0,0,1-.15-.2l1.13-4.22a.3.3,0,0,1,.26-.21h4.21a.16.16,0,0,1,.16.21l-1.13,4.22a.29.29,0,0,1-.27.2Zm-3.89-.41h3.8l1-3.8h-3.79Z" fill="#c1b995"/>
        <g id="Grupo_83673" data-name="Grupo 83673">
          <path id="Trazado_137749" data-name="Trazado 137749" d="M222.65,151.38a.35.35,0,0,1-.32.25.19.19,0,0,1-.19-.25.36.36,0,0,1,.32-.26.2.2,0,0,1,.19.26Z" fill="#c1b995"/>
          <path id="Trazado_137750" data-name="Trazado 137750" d="M223.7,151.38a.36.36,0,0,1-.33.25.19.19,0,0,1-.18-.25.36.36,0,0,1,.32-.26.2.2,0,0,1,.19.26Z" fill="#c1b995"/>
          <path id="Trazado_137751" data-name="Trazado 137751" d="M224.74,151.38a.34.34,0,0,1-.32.25.18.18,0,0,1-.18-.25.36.36,0,0,1,.32-.26.19.19,0,0,1,.18.26Z" fill="#c1b995"/>
          <path id="Trazado_137752" data-name="Trazado 137752" d="M225.31,149.21H207.78a.19.19,0,0,1-.19-.25.36.36,0,0,1,.32-.26h17.54a.19.19,0,0,1,.18.26.34.34,0,0,1-.32.25Z" fill="#c1b995"/>
          <path id="Trazado_137753" data-name="Trazado 137753" d="M225,150.43H204.8a.19.19,0,0,1-.18-.26.34.34,0,0,1,.32-.25h20.18a.19.19,0,0,1,.19.25A.36.36,0,0,1,225,150.43Z" fill="#c1b995"/>
          <path id="Trazado_137754" data-name="Trazado 137754" d="M221.32,151.63H204.48a.19.19,0,0,1-.19-.25.35.35,0,0,1,.33-.25h16.84a.19.19,0,0,1,.19.25.36.36,0,0,1-.33.25Z" fill="#c1b995"/>
        </g>
        <path id="Trazado_137755" data-name="Trazado 137755" d="M199.51,164.07h-4.22a.15.15,0,0,1-.15-.2l1.13-4.22a.3.3,0,0,1,.26-.21h4.22a.16.16,0,0,1,.15.21l-1.13,4.22a.29.29,0,0,1-.26.2Zm-3.9-.41h3.8l1-3.8h-3.8Z" fill="#c1b995"/>
        <g id="Grupo_83674" data-name="Grupo 83674">
          <path id="Trazado_137756" data-name="Trazado 137756" d="M219.54,163a.35.35,0,0,1-.32.25A.19.19,0,0,1,219,163a.37.37,0,0,1,.33-.26.19.19,0,0,1,.21.26Z" fill="#c1b995"/>
          <ellipse id="Elipse_6723" data-name="Elipse 6723" cx="0.29" cy="0.22" rx="0.29" ry="0.22" transform="matrix(0.753, -0.658, 0.658, 0.753, 219.978, 162.995)" fill="#c1b995"/>
          <path id="Trazado_137757" data-name="Trazado 137757" d="M221.64,163a.35.35,0,0,1-.32.25.19.19,0,0,1-.19-.25.36.36,0,0,1,.32-.26.19.19,0,0,1,.19.26Z" fill="#c1b995"/>
          <path id="Trazado_137758" data-name="Trazado 137758" d="M222.21,160.8H204.67a.18.18,0,0,1-.18-.25.35.35,0,0,1,.32-.26h17.53a.19.19,0,0,1,.19.26A.35.35,0,0,1,222.21,160.8Z" fill="#c1b995"/>
          <path id="Trazado_137759" data-name="Trazado 137759" d="M221.88,162H201.7a.19.19,0,0,1-.19-.26.35.35,0,0,1,.32-.25H222a.18.18,0,0,1,.18.25.35.35,0,0,1-.3.26Z" fill="#c1b995"/>
          <path id="Trazado_137760" data-name="Trazado 137760" d="M218.22,163.22H201.37a.18.18,0,0,1-.18-.25.36.36,0,0,1,.32-.26h16.84a.19.19,0,0,1,.19.26.35.35,0,0,1-.32.25Z" fill="#c1b995"/>
        </g>
        <path id="Trazado_137761" data-name="Trazado 137761" d="M194.83,150.68c.14-.48.59-.75,1.53-.84,0-.21,0-.34-.27-.34a1.55,1.55,0,0,0-.67.21l-.12-.45a2.3,2.3,0,0,1,1.07-.3c.59,0,.82.34.63,1l-.35,1.33h-.56v-.24h0a1.33,1.33,0,0,1-.75.29.5.5,0,0,1-.51-.66Zm1.31,0,.11-.4c-.5.07-.7.2-.75.38s.05.22.21.22a.71.71,0,0,0,.43-.23Z" fill="#12263f"/>
        <path id="Trazado_137762" data-name="Trazado 137762" d="M193.65,157.38h0l-.12.24H193l.88-3.26h.69l-.22.8-.11.35a1.27,1.27,0,0,1,.68-.25c.56,0,.78.46.59,1.17a1.53,1.53,0,0,1-1.31,1.25A.61.61,0,0,1,193.65,157.38Zm1.13-.94c.11-.41,0-.62-.24-.62a.71.71,0,0,0-.45.2l-.26.95a.44.44,0,0,0,.33.15C194.4,157.12,194.65,156.92,194.78,156.44Z" fill="#12263f"/>
        <path id="Trazado_137763" data-name="Trazado 137763" d="M191.87,161.76a1.61,1.61,0,0,1,1.53-1.21.79.79,0,0,1,.61.25l-.45.44a.32.32,0,0,0-.27-.14.8.8,0,0,0-.72.66c-.11.4,0,.66.34.66a.93.93,0,0,0,.46-.17l.15.45a1.54,1.54,0,0,1-.84.27C192,163,191.66,162.52,191.87,161.76Z" fill="#12263f"/>
        <g id="Grupo_83675" data-name="Grupo 83675">
          <path id="Trazado_137764" data-name="Trazado 137764" d="M191.66,144.62h.65l.46-1.71h-.56l.12-.43a2.779,2.779,0,0,0,.8-.26h.51l-.65,2.4h.55l-.14.56h-1.89Z" fill="#12263f"/>
          <path id="Trazado_137765" data-name="Trazado 137765" d="M194,144.8a.58.58,0,0,1,.53-.43.31.31,0,0,1,.3.43.57.57,0,0,1-.53.43.31.31,0,0,1-.3-.43Z" fill="#12263f"/>
        </g>
      </g>
    </g>
    <g id="Grupo_83679" data-name="Grupo 83679">
      <path id="Trazado_137766" data-name="Trazado 137766" d="M76.52,97.44A94.869,94.869,0,0,1,78,109.78a15.49,15.49,0,0,1-3.91,11.28c-1.86,2.13,11.45,12.71,16,7.66,1.44-1.59-3.09-6.4,5.86-15.44,4.68-4.73-2.24-15-3-15.48S76.52,97.44,76.52,97.44Z" fill="#ec7d40"/>
      <path id="Trazado_137767" data-name="Trazado 137767" d="M86.41,104.09c.67-.21.78,8.63,3.37,10.79a18,18,0,0,0,10.09,3.82c1.72,0,1.34-1.62,1.84-3.13a35.52,35.52,0,0,0,1.66-7.24.66.66,0,0,1,.43-.58c.69-.25,2.15-.59,2-1.69-.14-1.27-3.94-5.46-3.94-6.32s.49-2.24.58-3.28-1.37-7.46-5.5-10.09a18.56,18.56,0,0,0-11.74-2.5c-4.31.43-8.46,1.52-10.09,4-4.32,6.45-2,13.67.51,15.13S83.56,105,86.41,104.09Z" fill="#f79556"/>
      <path id="Trazado_137768" data-name="Trazado 137768" d="M98.51,87.18a.9.9,0,0,0,.07-.28A2,2,0,0,0,98,85.37c-.85-1-6.48-4.17-11.69-3.62s-9.8,1-12,3.87-1.51,3.45-1.7,3.87-.78,0-1.45,1.15-3,4.78-.3,10.84,5.81,5.75,5.87,8.11,2.13,2.07,3.75.48c3.34-3.27,1.79-7,3.17-7.69,2.34-1.15,2.83,1.15,5.8-1,1.79-1.32-1.74-4,2.4-8.08,2.91-2.88-.05-5.9-.72-6.87S98.27,85.28,98.51,87.18Z" fill="#12263f"/>
      <path id="Trazado_137769" data-name="Trazado 137769" d="M88.49,104.52s-.46-3.35-2.07-4.13a2.51,2.51,0,0,0-3.44.87c-.79,1.13-1,3.63,1,5.76s2.91,2.48,4.1,2.12S88.49,104.52,88.49,104.52Z" fill="#f79556"/>
      <g id="Grupo_83678" data-name="Grupo 83678">
        <path id="Trazado_137770" data-name="Trazado 137770" d="M101.47,97.26a3,3,0,0,1-1-.12,3.32,3.32,0,0,1-.9-.46l-.4-.25a1.94,1.94,0,0,0-.37-.2,3.15,3.15,0,0,0-2.54,0,3.81,3.81,0,0,0-.77.51l-.08-.07c.1-.13.2-.26.31-.38a3,3,0,0,1,.38-.33,3.16,3.16,0,0,1,.89-.47,3.9,3.9,0,0,1,1-.18,3.74,3.74,0,0,1,1,.12,4.86,4.86,0,0,1,.5.17l.45.16a6,6,0,0,1,.85.29l.8.36C101.9,96.58,101.81,97.24,101.47,97.26Z" fill="#12263f"/>
        <path id="Trazado_137771" data-name="Trazado 137771" d="M97.47,99.63c.35-.12.67-.2,1-.29l.9-.26.89-.29.94-.35a2.1,2.1,0,0,1-.66.84,2.71,2.71,0,0,1-1,.5,3,3,0,0,1-1.07.13,2.41,2.41,0,0,1-1-.28Z" fill="#12263f"/>
        <path id="Trazado_137772" data-name="Trazado 137772" d="M100.65,99.7a.67.67,0,1,1-.66-.8.74.74,0,0,1,.66.8Z" fill="#12263f"/>
      </g>
      <path id="Trazado_137773" data-name="Trazado 137773" d="M103,110.65a3.87,3.87,0,0,1-1.44.27c-1,0-1.87-.35-2,0a.25.25,0,0,0,0,.26,4.74,4.74,0,0,0,2.89,1.91C102.67,112.21,102.87,111.5,103,110.65Z" fill="#d65b5b"/>
    </g>
    <path id="Trazado_137774" data-name="Trazado 137774" d="M89.7,199.66c-2.64-1.52-1.38-5.14-3.77-11.64-2-5.51-4.47-7.05-9-13.24-3.37-4.58-7.87-10.7-10.38-18.49-.45-1.39-5-16.19,1.82-28.87,3.21-6,6.57-7.06,7.42-7.31,3.54-1,6.8.48,8.9,1.49,1.4.66,5.86,3,12,12.09a61.85,61.85,0,0,1,9,18.61,63.71,63.71,0,0,1,2.15,18.7c0,10.79,0,17.4-4.56,22.82C99.58,198.24,93.07,201.61,89.7,199.66Z" fill="#36dac9"/>
    <path id="Trazado_137775" data-name="Trazado 137775" d="M96.84,186.42c-1.52.34-3.12-1.2-4.38-2.42a18.15,18.15,0,0,1-3.8-5.29c-6.66-15.18-7.52-17.73-9.78-22a72.593,72.593,0,0,1-4-7.82c-1.49-3.59-2.63-6.39-2.65-10.14,0-2.53,0-6.2,2.65-9.21a10.91,10.91,0,0,1,7-3.45,11.36,11.36,0,0,1,8.06,2.65c2.9,2.38,3.77,5.8,5.41,12.55,1.4,5.75.58,5.34,2.08,11.05a47.751,47.751,0,0,1,1.84,8.87c.17,2,0,2.3.11,4.95.22,8.57,1.7,11,.35,15.77C99.27,183.52,98.53,186,96.84,186.42Z" fill="#36dac9"/>
    <path id="Trazado_137776" data-name="Trazado 137776" d="M92.46,184a16.931,16.931,0,0,1-3.3-3.7,11.89,11.89,0,0,1-.65-1.08c-.21-.38-.38-.75-.56-1.12l-1.07-2.22q-2.1-4.47-4-9l-1.93-4.53c-.32-.76-.64-1.51-1-2.26s-.67-1.48-1-2.22c-.7-1.47-1.45-2.93-2.19-4.4a23.885,23.885,0,0,1-1-2.26c-.28-.77-.6-1.54-.85-2.32.38.73.76,1.45,1.16,2.17s.82,1.41,1.26,2.11l1.29,2.1c.43.71.84,1.42,1.24,2.15.81,1.45,1.52,3,2.21,4.44.34.75.67,1.51,1,2.26l1,2.26q1.95,4.53,3.79,9.1c.31.76.62,1.52.91,2.29.16.38.3.77.46,1.13s.34.73.53,1.08a20.7,20.7,0,0,0,2.7,4.02Z" fill="#12263f"/>
    <path id="Trazado_137777" data-name="Trazado 137777" d="M95.34,141.29c.17.39.32.79.46,1.2l.21.6.18.62a24,24,0,0,1,.58,2.51c.15.84.27,1.66.44,2.47.08.41.17.82.26,1.22s.19.81.29,1.22c.39,1.63.85,3.26,1.15,5a21,21,0,0,1,.35,5.13c-.41-1.67-.82-3.29-1.31-4.9s-1-3.21-1.42-4.88c-.19-.83-.37-1.68-.5-2.53s-.19-1.72-.24-2.56-.12-1.67-.2-2.51S95.4,142.14,95.34,141.29Z" fill="#12263f"/>
    <path id="Trazado_137778" data-name="Trazado 137778" d="M97.76,168.8c.44-2.09.3-3,1.15-4.49,1.31-2.34,3-2.8,5.18-4.49,2.81-2.21,4.08-4.79,6-8.63,1.14-2.29,1.21-5.13,3.35-8.16a13.194,13.194,0,0,1,6.55-4.97,11.17,11.17,0,0,1,5-.55,1.21,1.21,0,0,1,1.22,1.13c.09.49-.09.76,0,1a2.54,2.54,0,0,0,.92,1.16c1.15,1,.56,2.24.81,3.22.14.57.35.6.46,1.27a3.09,3.09,0,0,1,0,1.15c-.13.6-.38.7-.35,1.15s.2.42.23.8a1.81,1.81,0,0,1-.23.93c-.32.62-1.44,1.45-3.45,1.84s-2.85,0-3.8.8a3,3,0,0,0-.69.93c-2,3.87-3,5.81-3.23,6.44-.66,2-2.05,4.93-4.83,10.83,0,0-6.71,14.21-13.47,16.46a2.79,2.79,0,0,1-1.5.12c-2.12-.48-3.7-4-3.68-7C93.41,175.51,96.44,175.08,97.76,168.8Z" fill="#f79556"/>
    <path id="Trazado_137779" data-name="Trazado 137779" d="M56.5,145.52c-1.56-11.18-1.36-25.73-.06-29.26,1-2.83,7-.58,9.19,1.75s1.79,5.88,1.83,7.65a160.66,160.66,0,0,0,9.84,49.8c4.72,12.11,8,26.73,5.88,36.5-1.07,5.68-9.86,13-13.64,11l-.09-.08c-4.37-4,1.12-13,.9-23.21C70,182.62,59.37,166,56.5,145.52Z" fill="#6d6956"/>
    <path id="Trazado_137780" data-name="Trazado 137780" d="M128.48,197.29c-2.7-5-7.49-7.73-11.14-9.12a35.64,35.64,0,0,0-14.93-2.53c-17.18.38-21.86.89-26.29,1.6a2,2,0,0,0-2,2.26c0,2.63.3,7.05.13,16.37-.07,3.85.06,5,.81,7,2.18,5.75,6.74,8,8.89,8.22,9.8,1,12.19-2.85,33.64-2.85.68,0,5-.09,6.92-.83,4.73-1.85,5.42-7.49,5.68-8.43A16.12,16.12,0,0,0,128.48,197.29Zm-.14,9.55c-.23.77-.84,5.38-5,6.88a25.262,25.262,0,0,1-6.08.69c-18.82,0-20.91,3.14-29.51,2.32-1.88-.18-5.89-2-7.8-6.72-.66-1.63-.77-2.56-.71-5.7.14-7.34-.07-10.82-.11-12.93a2.67,2.67,0,0,1,2.42-2.51c2.66-.43,8.21-.75,19.7-1.09A38.79,38.79,0,0,1,117,190.3c3.21,1.14,7.41,3.38,9.78,7.45C129,201.44,129,204.56,128.34,206.84Z" fill="#12263f"/>
  </g>
</svg>
