<svg id="img6" xmlns="http://www.w3.org/2000/svg" width="500" height="394.868" viewBox="0 0 500 394.868">
  <rect id="Rectángulo_36439" data-name="Rectángulo 36439" width="500" height="394.868" fill="none"/>
  <g id="Grupo_84957" data-name="Grupo 84957" transform="translate(72.221 25.497)">
    <g id="Grupo_84954" data-name="Grupo 84954" transform="translate(338.689 130.372)">
      <g id="Grupo_84953" data-name="Grupo 84953">
        <path id="Trazado_142366" data-name="Trazado 142366" d="M551.719,216.924a23.537,23.537,0,0,1-.224,3.949,28.782,28.782,0,0,1-3.6,10.588l-.083-.141h.174l-.083.141c-5.215,9.255-13.046,23.179-22.426,39.735l-.141.248-.149-.24-23.7-37.815-1.167-1.863-.182-.29h.339l-.157.281a29.081,29.081,0,0,1-3.576-9.992,28.15,28.15,0,0,1-.356-5.2c.05-.828.1-1.714.141-2.566s.257-1.656.381-2.525a29.206,29.206,0,0,1,9.677-16.556,28.145,28.145,0,0,1,7.8-4.586l1.035-.381.513-.19.522-.141,2.094-.546a29.112,29.112,0,0,1,4.139-.5,27.612,27.612,0,0,1,4.065.074c.662.05,1.316.19,1.962.281l.96.157c.315.066.621.166.935.24l1.829.5,1.747.671c.281.108.571.207.828.331l.828.406,1.589.828a28.668,28.668,0,0,1,9.205,8.5,29.345,29.345,0,0,1,4.065,8.6,25.647,25.647,0,0,1,.7,3.394,19.794,19.794,0,0,1,.273,2.525c0,.671.041,1.192.05,1.556s0,.53,0,.53a4.2,4.2,0,0,0-.05-.53c-.05-.348-.05-.877-.083-1.556a20.587,20.587,0,0,0-.306-2.483,27.135,27.135,0,0,0-.737-3.369,29.627,29.627,0,0,0-4.048-8.518,28.526,28.526,0,0,0-9.172-8.386l-1.573-.828-.828-.4c-.273-.124-.563-.215-.828-.323l-1.722-.654-1.821-.488c-.306-.074-.6-.174-.919-.232L528.69,189c-.646-.083-1.283-.224-1.937-.273a29.167,29.167,0,0,0-8.146.447l-2.07.538-.513.141-.5.19-1.018.381a27.7,27.7,0,0,0-7.7,4.545,28.841,28.841,0,0,0-9.536,16.349l-.372,2.483c-.05.828-.091,1.656-.141,2.541a27.445,27.445,0,0,0,.356,5.132,28.651,28.651,0,0,0,3.527,9.859l.166.281h-.331l.166-.29,1.159,1.863,23.675,37.831h-.29c9.421-16.556,17.3-30.455,22.55-39.694l.083.141h-.174l.083-.141a28.972,28.972,0,0,0,3.659-10.513c.19-1.275.24-2.26.281-2.922v-.753a1.451,1.451,0,0,1,.058-.215Z" transform="translate(-496.38 -188.289)" fill="#e1e1e1"/>
        <path id="Trazado_142367" data-name="Trazado 142367" d="M543.769,218.822a1.588,1.588,0,0,1,0-.281,4.674,4.674,0,0,0-.058-.828,3.262,3.262,0,0,0-.041-.613c-.041-.224-.075-.464-.116-.728a11.793,11.793,0,0,0-.364-1.8,16.7,16.7,0,0,0-1.937-4.636,17.384,17.384,0,0,0-20.844-7.45,18.742,18.742,0,0,0-2.26.993,18.214,18.214,0,0,0-2.127,1.366,19.667,19.667,0,0,0-1.979,1.656,20.835,20.835,0,0,0-1.656,2,16.779,16.779,0,0,0-2.483,4.768,17.119,17.119,0,0,0-.141,10.935,16.789,16.789,0,0,0,2.483,4.785A19.992,19.992,0,0,0,513.9,231a19.672,19.672,0,0,0,1.962,1.656,18.146,18.146,0,0,0,2.177,1.4,18.8,18.8,0,0,0,2.26,1,17.395,17.395,0,0,0,22.839-11.978,14.348,14.348,0,0,0,.373-1.8c.041-.257.091-.5.116-.728l.041-.613c0-.348.05-.621.058-.828a1.046,1.046,0,0,1,.041-.281,2.366,2.366,0,0,1,0,.281v1.44a5.034,5.034,0,0,1-.1.737,13.027,13.027,0,0,1-.339,1.829,16.823,16.823,0,0,1-1.921,4.694,17.586,17.586,0,0,1-21.184,7.566,18.32,18.32,0,0,1-2.31-1.018,18.874,18.874,0,0,1-2.169-1.391,19.57,19.57,0,0,1-2-1.714,18.964,18.964,0,0,1-1.738-2.053,16.969,16.969,0,0,1-2.483-4.884,18.574,18.574,0,0,1-.9-5.588,18.856,18.856,0,0,1,.927-5.588,17.061,17.061,0,0,1,2.55-4.868,19.7,19.7,0,0,1,1.738-2.045,19.4,19.4,0,0,1,2.02-1.656,18.964,18.964,0,0,1,2.177-1.391,18.218,18.218,0,0,1,2.31-1,17.592,17.592,0,0,1,21.142,7.674,16.5,16.5,0,0,1,1.9,4.71,11.838,11.838,0,0,1,.339,1.821c0,.265.075.513.091.737s0,.43,0,.621v.828A2.567,2.567,0,0,1,543.769,218.822Z" transform="translate(-498.488 -190.501)" fill="#e1e1e1"/>
      </g>
      <path id="Trazado_142368" data-name="Trazado 142368" d="M527.372,228.789l-10.182-7.1,2.475-3.56,6.829,4.768,8.841-11.225,3.4,2.682Z" transform="translate(-499.963 -192.315)" fill="#e1e1e1"/>
    </g>
    <path id="Trazado_142369" data-name="Trazado 142369" d="M263,38.581l2.914-7.781,13.618,1.821.728,8.278A33.66,33.66,0,0,1,288,45.411l7.558-3.444L303.886,52.9l-5.339,6.366a33.377,33.377,0,0,1,2.285,8.667l7.781,2.906-1.846,13.642-8.278.728a33.684,33.684,0,0,1-4.52,7.74l3.452,7.558-10.935,8.328-6.374-5.339a33.659,33.659,0,0,1-8.609,2.293l-2.906,7.781-13.651-1.854-.728-8.278a33.659,33.659,0,0,1-7.74-4.512l-7.558,3.444-8.328-10.935,5.315-6.358a33.807,33.807,0,0,1-2.293-8.667l-7.773-2.906,1.846-13.626,8.278-.728a33.858,33.858,0,0,1,4.52-7.74l-3.452-7.558,10.944-8.278,6.366,5.323A33.643,33.643,0,0,1,263,38.615ZM252.239,68.639a15.337,15.337,0,1,1,.041,0Z" transform="translate(-111.108 -30.8)" fill="#b67db3" fill-rule="evenodd"/>
    <path id="Trazado_142370" data-name="Trazado 142370" d="M373.693,122.63l1.887-5.05,8.841,1.175.472,5.373a21.705,21.705,0,0,1,5.025,2.93l4.909-2.243,5.4,7.1-3.46,4.139a21.632,21.632,0,0,1,1.482,5.629l5.05,1.887-1.217,8.858-5.364.472a22.351,22.351,0,0,1-2.93,5.025l2.235,4.909-7.1,5.406-4.139-3.469a21.564,21.564,0,0,1-5.621,1.482l-1.887,5.058-8.816-1.233-.472-5.373a22.061,22.061,0,0,1-5.033-2.93l-4.9,2.235-5.406-7.094,3.46-4.139a21.9,21.9,0,0,1-1.482-5.621l-5.05-1.887,1.184-8.808,5.372-.472a21.523,21.523,0,0,1,2.931-5.025l-2.243-4.909,7.1-5.406,4.139,3.469a21.888,21.888,0,0,1,5.629-1.49Zm-6.97,19.512a9.578,9.578,0,1,0,9.619-7.318,9.578,9.578,0,0,0-9.619,7.318Z" transform="translate(-132.412 -45.742)" fill="#b67db3" fill-rule="evenodd"/>
    <g id="Grupo_84955" data-name="Grupo 84955" transform="translate(131.628 111.242)">
      <path id="Trazado_142371" data-name="Trazado 142371" d="M287.352,201.311a11.63,11.63,0,0,0-3.2,2.111,15.389,15.389,0,0,0-4.967,9.106,15.729,15.729,0,0,0,5.116,14.255,15.108,15.108,0,0,0,3.824,2.483,14.9,14.9,0,0,0,4.57,1.333,15.769,15.769,0,1,0-1.854-30.836,11.59,11.59,0,0,0-3.5,1.565c.05.1,1.225-.637,3.584-1.225a15.389,15.389,0,0,1,10.008.952,15.132,15.132,0,0,1,8.692,11.507,13.8,13.8,0,0,1,0,4.329,14.072,14.072,0,0,1-1.275,4.321,15.053,15.053,0,0,1-28.526-8.584,15.431,15.431,0,0,1,4.57-8.949,37.038,37.038,0,0,1,2.955-2.368Z" transform="translate(-251.888 -171.038)" fill="#c25257"/>
      <path id="Trazado_142372" data-name="Trazado 142372" d="M265.207,182.986a4.725,4.725,0,0,0-.124-.53c-.1-.389-.24-.919-.422-1.6-.4-1.457-.969-3.56-1.722-6.283l-.066.157,12.682-6.863-.273-.041,5.745,6.54.1.124.157-.041a35.422,35.422,0,0,1,9.272-.977h.19l.083-.157,4.247-7.608-.364.149,13.833,4.073-.248-.356c-.174,2.69-.356,5.654-.546,8.692v.224l.19.116a35.207,35.207,0,0,1,7.243,5.795l.166.174.224-.066,8.377-2.384-.455-.19,6.912,12.649.091-.513c-2.036,1.8-4.263,3.775-6.531,5.795l-.19.166.066.248a35.084,35.084,0,0,1,.993,9.238v.257l.224.124,7.624,4.238-.207-.5-4.048,13.841.455-.315-8.7-.538h-.265l-.141.232a34.867,34.867,0,0,1-5.795,7.235h0c-.05.2.124-.447-.116.439h0v.108l.041.132.074.265.149.53.3,1.051.6,2.1c.4,1.391.828,2.79,1.2,4.139l.207-.513L303.8,249.278l.546.1-5.795-6.523-.174-.2-.257.066a35.042,35.042,0,0,1-9.23,1.01h-.265l-.124.223-4.222,7.624.488-.2-13.841-4.023.29.414c.174-2.947.348-5.853.522-8.7v-.24l-.207-.124a34.47,34.47,0,0,1-7.26-5.795l-.166-.166-.223.058-8.369,2.417.43.174c-2.483-4.437-4.768-8.634-6.962-12.624l-.075.414,6.507-5.795.149-.124-.05-.19a34.941,34.941,0,0,1-1.035-9.263v-.174l-.149-.083-7.641-4.205.124.306c1.54-5.373,2.856-9.934,3.974-13.866l-.2.149,8.7.472h.091l.041-.066a36.223,36.223,0,0,1,4.18-5.7l1.192-1.283a5.616,5.616,0,0,0,.389-.43,4.139,4.139,0,0,0-.447.372c-.281.273-.7.671-1.242,1.242a34.18,34.18,0,0,0-4.321,5.646l.132-.074-8.692-.579h-.157l-.05.157c-1.151,3.907-2.483,8.469-4.089,13.825l-.066.2.19.1,7.6,4.255-.149-.257a36.085,36.085,0,0,0,1,9.421l.1-.315-6.54,5.795-.2.182.132.232c2.177,4.007,4.478,8.2,6.9,12.657l.141.257.29-.074,8.377-2.384-.389-.108a35.837,35.837,0,0,0,7.409,5.96l-.19-.364q-.257,4.272-.538,8.692v.331l.315.091,13.833,4.048.331.091.157-.29c1.4-2.483,2.806-5.041,4.238-7.624l-.389.223a35.7,35.7,0,0,0,9.462-1.026l-.43-.132,5.795,6.523.232.265.306-.166,12.649-6.937.306-.166-.091-.339c-.4-1.391-.828-2.781-1.2-4.139l-.6-2.1-.3-1.051-.149-.522-.1-.281-.041-.132v-.116h0c-.24.886-.066.24-.124.439h0a35.6,35.6,0,0,0,5.944-7.45l-.406.215,8.7.53h.356l.1-.339c1.382-4.768,2.748-9.462,4.031-13.849l.091-.331-.3-.166-7.632-4.222.224.381a35.971,35.971,0,0,0-1.035-9.454l-.132.414,6.515-5.795.248-.215-.157-.29-6.978-12.6-.149-.281-.306.091-8.369,2.409.381.108a35.6,35.6,0,0,0-7.45-5.935l.174.339c.182-3.046.356-6.01.513-8.7v-.281l-.265-.074-13.8-4.007-.248-.074-.116.224c-1.482,2.682-2.9,5.257-4.214,7.632l.265-.149a35.6,35.6,0,0,0-9.412,1.06l.257.083c-2.086-2.343-4.04-4.536-5.795-6.5l-.116-.141-.157.091-12.6,7-.1.058v.108c.828,2.682,1.416,4.752,1.846,6.192.207.679.373,1.2.5,1.6a2.778,2.778,0,0,0,.215.546Z" transform="translate(-246.25 -165.18)" fill="#c25257"/>
    </g>
    <g id="Grupo_84956" data-name="Grupo 84956" transform="translate(0 92.724)">
      <path id="Trazado_142373" data-name="Trazado 142373" d="M220.181,193.613l12.566-49.959-51.118-.844Z" transform="translate(-103.495 -142.81)" fill="#ffa726"/>
      <rect id="Rectángulo_36440" data-name="Rectángulo 36440" width="29.04" height="117.45" transform="matrix(-0.604, -0.797, 0.797, -0.604, 17.553, 103.844)" fill="#ffa726"/>
    </g>
  </g>
  <g id="Grupo_84977" data-name="Grupo 84977" transform="translate(20.927 71.242)">
    <path id="Trazado_142374" data-name="Trazado 142374" d="M112.836,357.224l-6.5,14.719s12.781,11.54,11.846,14.379L89.21,374.733l9.172-23.353Z" transform="translate(-36.288 -131.744)" fill="#039be5"/>
    <path id="Trazado_142375" data-name="Trazado 142375" d="M112.836,357.224l-6.5,14.719s12.781,11.54,11.846,14.379L89.21,374.733l9.172-23.353Z" transform="translate(-36.288 -131.744)" opacity="0.5"/>
    <path id="Trazado_142376" data-name="Trazado 142376" d="M89.19,379.138l1.018-2.318,27.417,11.954s1.068,1.076.555,1.929Z" transform="translate(-36.284 -136.124)" fill="#1a2e35"/>
    <path id="Trazado_142377" data-name="Trazado 142377" d="M50.768,382.086l-8.129,13.882s11.382,12.914,10.132,15.637L25.28,396.812,37.06,374.66Z" transform="translate(-25.28 -135.753)" fill="#039be5"/>
    <path id="Trazado_142378" data-name="Trazado 142378" d="M50.768,382.086l-8.129,13.882s11.382,12.914,10.132,15.637L25.28,396.812,37.06,374.66Z" transform="translate(-25.28 -135.753)" opacity="0.5"/>
    <path id="Trazado_142379" data-name="Trazado 142379" d="M25.28,400.965l1.275-2.185,25.877,15s.944,1.192.339,1.978Z" transform="translate(-25.28 -139.906)" fill="#1a2e35"/>
    <g id="Grupo_84965" data-name="Grupo 84965" transform="translate(58.256)">
      <g id="Grupo_84964" data-name="Grupo 84964" transform="translate(0 8.908)">
        <g id="Grupo_84958" data-name="Grupo 84958" transform="translate(2.696)">
          <path id="Trazado_142380" data-name="Trazado 142380" d="M98.91,139.477l17.823,1.366.588-9.975s7.185-.108,8.278-7.127,2.127-23.336,2.127-23.336h0a24.669,24.669,0,0,0-24.992-.364l-1.151.654Z" transform="translate(-98.91 -96.82)" fill="#ffbf9d"/>
          <path id="Trazado_142381" data-name="Trazado 142381" d="M119.35,137.049a16.507,16.507,0,0,1-8.8-3.9s1.556,5.522,8.667,5.877Z" transform="translate(-100.914 -103.076)" fill="#ff9a6c"/>
        </g>
        <g id="Grupo_84959" data-name="Grupo 84959" transform="translate(0 10.818)">
          <path id="Trazado_142382" data-name="Trazado 142382" d="M100.849,110.378c-.116-.075-4.636-2.111-5.157,2.715s4.437,4.363,4.462,4.222S100.849,110.378,100.849,110.378Z" transform="translate(-95.654 -109.889)" fill="#ffbf9d"/>
          <path id="Trazado_142383" data-name="Trazado 142383" d="M99.117,115.644a1.619,1.619,0,0,1-.24.1.828.828,0,0,1-.629-.058,2.1,2.1,0,0,1-.762-1.97,2.964,2.964,0,0,1,.356-1.184,1,1,0,0,1,.7-.571.422.422,0,0,1,.472.281.368.368,0,0,1,0,.248c0,.017.116-.074.1-.273a.538.538,0,0,0-.157-.323.646.646,0,0,0-.455-.174,1.192,1.192,0,0,0-.96.654,2.79,2.79,0,0,0-.43,1.316,2.194,2.194,0,0,0,.993,2.21.886.886,0,0,0,.786,0C99.1,115.76,99.134,115.652,99.117,115.644Z" transform="translate(-95.9 -110.204)" fill="#ff9a6c"/>
        </g>
        <g id="Grupo_84963" data-name="Grupo 84963" transform="translate(14.019 6.712)">
          <g id="Grupo_84962" data-name="Grupo 84962" transform="translate(0.125 3.951)">
            <g id="Grupo_84960" data-name="Grupo 84960" transform="translate(10.654 1.293)">
              <path id="Trazado_142384" data-name="Trazado 142384" d="M129.579,114.31a1.026,1.026,0,0,1-1.118.877.969.969,0,0,1-.9-1.051,1.01,1.01,0,0,1,1.109-.877.969.969,0,0,1,.911,1.051Z" transform="translate(-125.945 -111.605)" fill="#1a2e35"/>
              <path id="Trazado_142385" data-name="Trazado 142385" d="M129.584,112.618c-.141.116-.828-.555-1.9-.7s-1.945.281-2.045.132.108-.29.488-.488a2.757,2.757,0,0,1,1.656-.265,2.682,2.682,0,0,1,1.49.72C129.575,112.32,129.658,112.568,129.584,112.618Z" transform="translate(-125.61 -111.262)" fill="#1a2e35"/>
            </g>
            <g id="Grupo_84961" data-name="Grupo 84961">
              <path id="Trazado_142386" data-name="Trazado 142386" d="M116.919,112.84a1.018,1.018,0,0,1-1.109.877.977.977,0,0,1-.911-1.051,1.01,1.01,0,0,1,1.109-.877.969.969,0,0,1,.911,1.051Z" transform="translate(-113.111 -110.059)" fill="#1a2e35"/>
              <path id="Trazado_142387" data-name="Trazado 142387" d="M116.722,111.058c-.141.116-.828-.555-1.9-.7s-1.954.281-2.053.132.108-.29.5-.488a2.715,2.715,0,0,1,1.656-.265,2.682,2.682,0,0,1,1.5.72C116.714,110.776,116.788,111.008,116.722,111.058Z" transform="translate(-112.74 -109.701)" fill="#1a2e35"/>
            </g>
            <path id="Trazado_142388" data-name="Trazado 142388" d="M120.92,119.8a7.028,7.028,0,0,1,1.8-.066c.281,0,.546,0,.621-.19a1.482,1.482,0,0,0-.066-.828l-.522-2.219a35.917,35.917,0,0,1-1.06-5.795,37.252,37.252,0,0,1,1.515,5.654c.174.778.331,1.515.488,2.227a1.656,1.656,0,0,1,0,1.1.712.712,0,0,1-.513.339,2.318,2.318,0,0,1-.48,0,7.691,7.691,0,0,1-1.788-.224Z" transform="translate(-114.149 -109.873)" fill="#1a2e35"/>
            <path id="Trazado_142389" data-name="Trazado 142389" d="M116.944,122.049c.174,0,0,1.192.894,2.161s2.161,1.026,2.144,1.192-.315.182-.828.124a2.947,2.947,0,0,1-1.788-.919,2.566,2.566,0,0,1-.687-1.8C116.655,122.306,116.829,122.008,116.944,122.049Z" transform="translate(-113.418 -111.826)" fill="#1a2e35"/>
          </g>
          <path id="Trazado_142390" data-name="Trazado 142390" d="M117.565,106.039c-.141.281-1.2,0-2.483,0s-2.368.174-2.483-.116c-.058-.132.157-.381.613-.613a4.338,4.338,0,0,1,3.8.116C117.433,105.642,117.631,105.906,117.565,106.039Z" transform="translate(-112.589 -104.928)" fill="#1a2e35"/>
          <path id="Trazado_142391" data-name="Trazado 142391" d="M129.71,108.766c-.232.215-.935-.141-1.829-.281s-1.656-.066-1.813-.348c-.058-.132.091-.364.455-.546a2.657,2.657,0,0,1,2.939.5C129.735,108.385,129.809,108.659,129.71,108.766Z" transform="translate(-114.908 -105.346)" fill="#1a2e35"/>
        </g>
      </g>
      <path id="Trazado_142392" data-name="Trazado 142392" d="M131.854,94.62a2.624,2.624,0,0,0-.629-2.483,1.863,1.863,0,0,0-2.409-.157,2.169,2.169,0,0,0-1.482-2.864c-1.134-.232-2.235.5-3.386.646a5.248,5.248,0,0,1-3.228-.828c-.985-.563-1.879-1.275-2.872-1.813A9.106,9.106,0,0,0,105.6,90.787a4.04,4.04,0,0,0-4.462,1.018,6.623,6.623,0,0,0-1.656,4.478,14.561,14.561,0,0,0,.364,3.27l-.05.265c-.464,3.874-.671,8.477.977,8.733,2.873.455,2.947-5.058,2.947-5.058,3.717-.828,3.146-6.341,4.139-7.02s3.1-2.285,9.934,2.533a14.4,14.4,0,0,0,8.626,2.177h.3a6.829,6.829,0,0,0,2.012-.538,3.816,3.816,0,0,0,1.8-1.515,2.07,2.07,0,0,0-.091-2.26A4.537,4.537,0,0,0,131.854,94.62Z" transform="translate(-96.311 -86.06)" fill="#1a2e35"/>
    </g>
    <path id="Trazado_142393" data-name="Trazado 142393" d="M117.4,142.669l-.795,27.922L99.24,133.19l.439-3.46Z" transform="translate(-38.015 -93.579)" fill="#ececec"/>
    <g id="Grupo_84966" data-name="Grupo 84966" transform="translate(6.2 125.977)">
      <path id="Trazado_142394" data-name="Trazado 142394" d="M104.558,246.008c.637.215,36.8,36.788,35.993,43.353S114,344.584,114,344.584l-18.369-9.056,17.227-42.649-.224-2.649L91.57,272.978,92.7,245.23Z" transform="translate(-42.895 -239.444)" fill="#0b3360"/>
      <path id="Trazado_142395" data-name="Trazado 142395" d="M86.636,252.015c-.422.637-6.68,58.1-8.361,61.068s-26.829,52.028-26.829,52.028L32.77,357.586l22.8-53.907-2.6-51.026,1.407-14.412,28.2,5.795Z" transform="translate(-32.77 -238.24)" fill="#0b3360"/>
      <path id="Trazado_142396" data-name="Trazado 142396" d="M88.137,315.554a4.137,4.137,0,0,0,.116-.571c.075-.422.166-.969.273-1.656.224-1.482.538-3.56.927-6.109.753-5.207,1.772-12.326,2.906-20.182s2.07-15,2.79-20.207c.331-2.558.6-4.644.828-6.134l.2-1.656a2.774,2.774,0,0,0,0-.579,2.483,2.483,0,0,0-.124.571c-.066.414-.157.969-.265,1.656-.232,1.49-.546,3.568-.927,6.118-.753,5.2-1.772,12.318-2.906,20.19s-2.07,14.992-2.79,20.2c-.331,2.558-.6,4.644-.828,6.134l-.2,1.656a2.774,2.774,0,0,0,0,.571Z" transform="translate(-42.301 -241.722)" fill="#375a64"/>
      <path id="Trazado_142397" data-name="Trazado 142397" d="M60.88,315.3a53.906,53.906,0,0,0,2.583,8.99,27.642,27.642,0,0,0-1.084-4.553,26.623,26.623,0,0,0-1.5-4.437Z" transform="translate(-37.61 -251.509)" fill="#375a64"/>
      <path id="Trazado_142398" data-name="Trazado 142398" d="M57.47,328.651a5.3,5.3,0,0,0,1.018-1.424,13.981,13.981,0,0,0,1.49-3.94,13.733,13.733,0,0,0,.248-4.214,4.967,4.967,0,0,0-.356-1.714,18.212,18.212,0,0,1-2.4,11.291Z" transform="translate(-37.023 -251.863)" fill="#375a64"/>
      <path id="Trazado_142399" data-name="Trazado 142399" d="M123.486,295.31a9.843,9.843,0,0,0-5.166,4.71c.1.066.993-1.233,2.417-2.533S123.544,295.418,123.486,295.31Z" transform="translate(-47.5 -248.067)" fill="#375a64"/>
      <path id="Trazado_142400" data-name="Trazado 142400" d="M120.55,293.26a8,8,0,0,0-2.79,4.52,21.318,21.318,0,0,0,1.349-2.285,22.182,22.182,0,0,0,1.44-2.235Z" transform="translate(-47.404 -247.714)" fill="#375a64"/>
    </g>
    <g id="Grupo_84971" data-name="Grupo 84971" transform="translate(15.033 37.749)">
      <path id="Trazado_142401" data-name="Trazado 142401" d="M105.261,181.61l-4.627,22.939-3.75,32S81.37,234.392,74.756,232.3c-7.674-2.425-24.354-4.5-24.354-4.5l2.815,2.781c-5.977-1.656-9.776-7.368-9.776-7.368,10.29-9.545,19.04-29.172,19.04-29.172L70.3,155.2s1.192-5.48,1.912-7.914S84.806,136.991,86.453,136l1.035-.488.331-3.121,1.225-.728L101.9,143.34a13.924,13.924,0,0,1,4.47,8.725,100.628,100.628,0,0,1,.563,14.611C106.817,171.23,105.261,181.61,105.261,181.61Z" transform="translate(-43.44 -131.66)" fill="#039be5"/>
      <g id="Grupo_84968" data-name="Grupo 84968" transform="translate(37.363 9.751)">
        <path id="Trazado_142402" data-name="Trazado 142402" d="M104.242,143.9s6.8,3.634,7.972,6.73S109.9,187.6,109.9,187.6l24.387.455.074,14.536s-38.742,3.063-40.248.969c-2.036-2.831-4.4-29.313-4.4-29.313l-.886-19.04S91.072,140.692,104.242,143.9Z" transform="translate(-88.616 -143.44)" fill="#039be5"/>
        <g id="Grupo_84967" data-name="Grupo 84967" transform="translate(0 35.398)" opacity="0.3">
          <path id="Trazado_142403" data-name="Trazado 142403" d="M108.405,213.94a23.286,23.286,0,0,1-9.76.911c-3.435-.315-6.929-2.2-8.228-5.4-.993-2.442-.579-5.207-.728-7.839-.132-2.293-.7-4.536-1.051-6.8s.828-6.44,1.581-8.609c0,0,.828,15.728,3.311,22.351a5.5,5.5,0,0,0,1.507,2.409,5.927,5.927,0,0,0,3.2.878,92.722,92.722,0,0,0,10.613-.215" transform="translate(-88.574 -186.2)"/>
        </g>
        <path id="Trazado_142404" data-name="Trazado 142404" d="M88.87,160.15v1.358c0,.911.108,2.219.19,3.891s.19,3.758.323,6.159.224,5.132.513,8.146.579,6.308.96,9.843.828,7.318,1.482,11.267a24.561,24.561,0,0,0,.671,2.988,5.8,5.8,0,0,0,1.763,2.632,4.4,4.4,0,0,0,3.03,1.084h3.245c4.354-.108,8.858-.331,13.46-.579,6.929-.381,13.6-.828,19.868-1.25h.174v-.174c0-5.166-.058-10.025-.083-14.512v-.166h-.174l-23.535-.5-6.623-.116h-2.326s.2,0,.588.041l1.738.066,6.623.207,23.535.654-.166-.174c0,4.487,0,9.346.05,14.512l.174-.19c-6.233.422-12.906.828-19.818,1.233-4.611.248-9.106.472-13.452.588-1.084,0-2.161.041-3.22,0a4.064,4.064,0,0,1-2.806-.985,5.489,5.489,0,0,1-1.656-2.483,25.027,25.027,0,0,1-.662-2.93c-.679-3.924-1.109-7.707-1.515-11.233s-.728-6.829-1-9.834-.414-5.745-.579-8.137-.29-4.462-.4-6.151-.2-2.98-.257-3.891a8.654,8.654,0,0,0-.083-1.01A1.581,1.581,0,0,0,88.87,160.15Z" transform="translate(-88.625 -146.317)" fill="#1a2e35"/>
        <path id="Trazado_142405" data-name="Trazado 142405" d="M137.993,211.718a63.749,63.749,0,0,0,.166-7.045,63.941,63.941,0,0,0-.24-7.053,61.67,61.67,0,0,0-.166,7.053,59.3,59.3,0,0,0,.24,7.045Z" transform="translate(-97.036 -152.769)" fill="#1a2e35"/>
        <path id="Trazado_142406" data-name="Trazado 142406" d="M140.93,200.251c.05,0-.2-.3-.662-.141a.745.745,0,0,0-.488.646.877.877,0,0,0,.5.828.911.911,0,0,0,.977-.182.828.828,0,0,0,.24-.77c-.108-.455-.43-.555-.439-.5a1.525,1.525,0,0,1,.157.546.536.536,0,1,1-1.068.058.472.472,0,0,1,.248-.406C140.674,200.2,140.906,200.3,140.93,200.251Z" transform="translate(-97.391 -153.19)" fill="#1a2e35"/>
      </g>
      <path id="Trazado_142407" data-name="Trazado 142407" d="M72.687,164.12S60,180.676,58.457,185.229s-.356,11.018,2.235,14.122,4.661,1.838,4.661,1.838Z" transform="translate(-45.907 -137.249)" fill="#039be5"/>
      <path id="Trazado_142408" data-name="Trazado 142408" d="M67.48,207.29a13.1,13.1,0,0,0,3.179.753,13.55,13.55,0,0,0,3.253.356,13.1,13.1,0,0,0-3.179-.753,13.519,13.519,0,0,0-3.253-.356Z" transform="translate(-47.579 -144.682)" fill="#1a2e35"/>
      <path id="Trazado_142409" data-name="Trazado 142409" d="M62.3,222.07a3.874,3.874,0,0,0-.348.877c-.19.571-.48,1.391-.828,2.4a70.734,70.734,0,0,1-3.411,7.69,79.468,79.468,0,0,1-4.263,7.26c-.588.894-1.076,1.656-1.424,2.119a3.792,3.792,0,0,0-.488.828,4.5,4.5,0,0,0,.621-.7c.381-.472.9-1.167,1.531-2.053a61.839,61.839,0,0,0,4.379-7.235,55.064,55.064,0,0,0,3.311-7.773c.348-1.026.6-1.871.745-2.483a4.652,4.652,0,0,0,.174-.927Z" transform="translate(-44.835 -147.227)" fill="#1a2e35"/>
      <g id="Grupo_84969" data-name="Grupo 84969" transform="translate(5.53 76.813)" opacity="0.3">
        <path id="Trazado_142410" data-name="Trazado 142410" d="M61.2,224.45c-2.012,3.576-4.081,7.235-7.144,9.975a18.567,18.567,0,0,0-3.121,3.013,3.833,3.833,0,0,0-.4,4.089,1.275,1.275,0,0,0,1.267.679,1.6,1.6,0,0,0,.828-.671,49.379,49.379,0,0,0,8.427-16.556" transform="translate(-50.12 -224.45)"/>
      </g>
      <g id="Grupo_84970" data-name="Grupo 84970" transform="translate(16.136 29.371)" opacity="0.3">
        <path id="Trazado_142411" data-name="Trazado 142411" d="M65.074,201.652a6.139,6.139,0,0,1-2.086-5.745,21.184,21.184,0,0,1,2.1-6.035,99.113,99.113,0,0,0,6.175-18.129l1.242-4.6-6.283,32.839Z" transform="translate(-62.932 -167.14)"/>
      </g>
      <path id="Trazado_142412" data-name="Trazado 142412" d="M102.485,141.245a28.148,28.148,0,0,0-2.368-2.368,26.68,26.68,0,0,0-2.368-2.368,14.28,14.28,0,0,0,4.735,4.735Z" transform="translate(-52.791 -132.495)" fill="#1a2e35"/>
      <path id="Trazado_142413" data-name="Trazado 142413" d="M105,145.62c0,.066.737.3,1.863.828a14.694,14.694,0,0,1,6.73,6.813c.546,1.126.762,1.887.828,1.863a1.432,1.432,0,0,0-.083-.546,10.258,10.258,0,0,0-.48-1.432,13.411,13.411,0,0,0-2.773-4.139,13.154,13.154,0,0,0-4.139-2.815,8.932,8.932,0,0,0-1.424-.5A1.656,1.656,0,0,0,105,145.62Z" transform="translate(-54.04 -134.064)" fill="#1a2e35"/>
      <path id="Trazado_142414" data-name="Trazado 142414" d="M63.85,204.514a1.656,1.656,0,0,0,.2-.315l.5-.952,1.829-3.543h0c.828-3.634,1.921-8.932,3.137-14.834,1.126-5.555,2.144-10.588,2.9-14.3.348-1.788.629-3.262.828-4.346.083-.472.149-.828.207-1.184a1.424,1.424,0,0,0,0-.414,1.655,1.655,0,0,0-.124.4c-.074.315-.166.7-.281,1.175-.24,1.068-.563,2.533-.952,4.313-.786,3.7-1.846,8.725-3.022,14.272-1.217,5.9-2.293,11.217-3,14.9h0c-.712,1.5-1.283,2.724-1.714,3.626l-.381.853a1.209,1.209,0,0,0-.124.348Z" transform="translate(-46.954 -137.337)" fill="#1a2e35"/>
      <path id="Trazado_142415" data-name="Trazado 142415" d="M114.775,190.373a5.728,5.728,0,0,0,.19-1.2c.091-.828.215-1.954.356-3.311.281-2.781.654-6.623,1.026-10.869s.7-8.1.919-10.894l.224-3.311a7.161,7.161,0,0,0,0-1.217,7.624,7.624,0,0,0-.182,1.209c-.1.828-.215,1.954-.364,3.311-.281,2.781-.646,6.623-1.026,10.877s-.7,8.1-.911,10.886c-.091,1.341-.174,2.483-.232,3.311a8.444,8.444,0,0,0,0,1.209Z" transform="translate(-55.719 -136.466)" fill="#1a2e35"/>
    </g>
    <g id="Grupo_84973" data-name="Grupo 84973" transform="translate(97.701 86.284)">
      <g id="Grupo_84972" data-name="Grupo 84972">
        <path id="Trazado_142416" data-name="Trazado 142416" d="M143.358,198.507s5.257-3.99,6.54-4.238c.985-.182,6.854-.083,9.561,0a1.929,1.929,0,0,1,1.937,1.871.7.7,0,0,1,0,.19,1.755,1.755,0,0,1-1.283,1.341,2.045,2.045,0,0,1,1.424,1.921c0,1.523-1.821,1.846-1.821,1.846s.108.083.265.232a1.821,1.821,0,0,1-.894,3.055l-.828.19a1.8,1.8,0,0,1,1.109,1.515c0,2-4.536,2.392-4.536,2.392s-11.159,1.763-11.4,1.656S143.358,198.507,143.358,198.507Z" transform="translate(-143.303 -190.958)" fill="#ffbf9d"/>
        <path id="Trazado_142417" data-name="Trazado 142417" d="M159.991,191.2a3.246,3.246,0,0,1-1.325,2.707l-6.217-.24s4.627-1.6,5.281-2.392a5.562,5.562,0,0,1,.894-.828.869.869,0,0,1,1.366.753Z" transform="translate(-144.878 -190.291)" fill="#ffbf9d"/>
      </g>
      <path id="Trazado_142418" data-name="Trazado 142418" d="M156,194.242a9.181,9.181,0,0,0,2.839.207,11.408,11.408,0,0,0,2.831-.207,9.338,9.338,0,0,0-2.839-.2A12.253,12.253,0,0,0,156,194.242Z" transform="translate(-145.489 -190.931)" fill="#ff9a6c"/>
      <path id="Trazado_142419" data-name="Trazado 142419" d="M157.67,198.431a8.825,8.825,0,0,0,4.876-.174,12.294,12.294,0,0,0-2.442,0,11.969,11.969,0,0,0-2.434.174Z" transform="translate(-145.777 -191.652)" fill="#ff9a6c"/>
      <path id="Trazado_142420" data-name="Trazado 142420" d="M153.843,197.994c-.091.058,0,.4.373.621s.712.2.728.091-.232-.248-.5-.43S153.967,197.886,153.843,197.994Z" transform="translate(-145.112 -191.612)" fill="#ff9a6c"/>
      <path id="Trazado_142421" data-name="Trazado 142421" d="M156.84,203.168a17.666,17.666,0,0,0,5.339-.174,8.658,8.658,0,0,0-2.674-.116,9.155,9.155,0,0,0-2.666.29Z" transform="translate(-145.634 -192.449)" fill="#ff9a6c"/>
      <path id="Trazado_142422" data-name="Trazado 142422" d="M152.512,201.23c-.05,0-.149.116-.174.356a1.267,1.267,0,0,0,1.084,1.382c.248,0,.389,0,.389-.083s-.538-.182-.894-.637S152.62,201.255,152.512,201.23Z" transform="translate(-144.857 -192.174)" fill="#ff9a6c"/>
      <path id="Trazado_142423" data-name="Trazado 142423" d="M155.71,207.764a7.449,7.449,0,0,0,2.417-.1,7.36,7.36,0,0,0,2.368-.5,7.45,7.45,0,0,0-2.417.1A7.218,7.218,0,0,0,155.71,207.764Z" transform="translate(-145.439 -193.187)" fill="#ff9a6c"/>
      <path id="Trazado_142424" data-name="Trazado 142424" d="M151.494,205.53c-.05,0-.132.132-.124.373a1.565,1.565,0,0,0,.331.828c.455.546.969.745,1.027.671s-.331-.455-.7-.919S151.593,205.547,151.494,205.53Z" transform="translate(-144.692 -192.915)" fill="#ff9a6c"/>
    </g>
    <path id="Trazado_142425" data-name="Trazado 142425" d="M56.638,250.689a7.119,7.119,0,0,1-5.389-3.394c-.124-.215-.232-.513-.066-.7a.579.579,0,0,1,.472-.141,14.76,14.76,0,0,1,5.108.828c.182.074.389.157.455.348a.679.679,0,0,1,0,.422c-.215.828-.439,1.656-.654,2.525" transform="translate(-29.725 -113.677)" fill="#039be5"/>
    <g id="Grupo_84974" data-name="Grupo 84974" transform="translate(21.372 132.775)" opacity="0.4">
      <path id="Trazado_142426" data-name="Trazado 142426" d="M56.638,250.689a7.119,7.119,0,0,1-5.389-3.394c-.124-.215-.232-.513-.066-.7a.579.579,0,0,1,.472-.141,14.76,14.76,0,0,1,5.108.828c.182.074.389.157.455.348a.679.679,0,0,1,0,.422c-.215.828-.439,1.656-.654,2.525" transform="translate(-51.098 -246.452)"/>
    </g>
    <g id="Grupo_84976" data-name="Grupo 84976" transform="translate(31.556 49.09)">
      <path id="Trazado_142427" data-name="Trazado 142427" d="M121.1,145.36s2.558,8.593,1.854,8.1-2.235-1.846-2.235-1.846Z" transform="translate(-73.27 -145.36)" fill="#ececec"/>
      <path id="Trazado_142428" data-name="Trazado 142428" d="M120.972,150.15l1.4,3.311a4.139,4.139,0,0,1,.273,1.084c.116.935.248,2.657-.306,2.773a1.879,1.879,0,0,1-1.5-.621Z" transform="translate(-73.29 -146.185)" fill="#1a2e35"/>
      <g id="Grupo_84975" data-name="Grupo 84975" transform="translate(0 1.918)">
        <path id="Trazado_142429" data-name="Trazado 142429" d="M67.7,150.246s13.684-5.339,21.267-.621,8.957,12.235,13.469,12.235c8.8,0,8.518-6.209,8.518-6.209l1.871.571c.041,1.267,2.045,10.389-7.235,11.523s-13.171-11.523-21.515-11.523a27.649,27.649,0,0,0-14.677,4.512L63.4,156.943Z" transform="translate(-63.4 -147.677)" fill="#1a2e35"/>
        <path id="Trazado_142430" data-name="Trazado 142430" d="M103.024,167.738a12.914,12.914,0,0,1-5.281-6.06c-2.111-4.909-6.68-10.5-10.447-11.937s-12.632-2.392-18.717,1.581l-3.9,5.265,5.058,3.311a47.069,47.069,0,0,1,8.882-3.535c6.291-1.755,10.124.232,13.783,3.692.224.215.43.43.613.637a41.29,41.29,0,0,0,5.795,5.124A9.332,9.332,0,0,0,103.024,167.738Z" transform="translate(-63.62 -147.819)" fill="#375a64"/>
      </g>
    </g>
  </g>
  <g id="Grupo_84979" data-name="Grupo 84979" transform="translate(354.263 28.962)">
    <path id="Trazado_142431" data-name="Trazado 142431" d="M448.96,73.673c8.121,1.25,14.073-5.563,15.969-11.639,1.755-5.6,2.583-11.432,5.05-16.763,3.435-7.45,12.55-10.886,20.7-10.2s16.416,4.785,23.651,8.659l-1.995,44.843S496.6,71.794,489.01,71.488c-12.632-.5-11.945,20.257-24.205,23.32,0,0-17.2,4.661-28.825-10.356-7.376-9.528-8.03-21.1-8.03-21.1S433.629,71.314,448.96,73.673Z" transform="translate(-427.95 -34.986)" fill="#ffa726"/>
    <path id="Trazado_142432" data-name="Trazado 142432" d="M530.744,36.56c-.108,0-2.318,47.616-4.967,106.341s-4.644,106.374-4.528,106.374,2.318-47.6,4.967-106.349S530.86,36.56,530.744,36.56Z" transform="translate(-444.014 -35.257)" fill="#1a2e35"/>
    <g id="Grupo_84978" data-name="Grupo 84978" transform="translate(23.642 23.952)" opacity="0.2">
      <path id="Trazado_142433" data-name="Trazado 142433" d="M476.245,63.92a55.008,55.008,0,0,1-5.969,13.46c-2.343,3.659-5.886,6.738-10.141,7.624a10.131,10.131,0,0,0-2.276.6,2.185,2.185,0,0,0-1.349,1.78c0,1.175,1.175,1.945,2.235,2.483a18.452,18.452,0,0,0,4.661,1.788c1.656.306,2.93.48,4.065-.753a24.3,24.3,0,0,0,2.93-3.518c3.709-6.316,5.538-15.348,5.844-22.492" transform="translate(-456.51 -63.92)"/>
    </g>
    <path id="Trazado_142434" data-name="Trazado 142434" d="M467.09,90.776a2.949,2.949,0,0,0,.364-.207,10.752,10.752,0,0,0,.969-.712,17.078,17.078,0,0,0,3-3.253,25.124,25.124,0,0,0,3-5.795,64.859,64.859,0,0,0,2.219-7.707,85.987,85.987,0,0,0,2.069-14.4c.1-1.863.116-3.369.116-4.412v-1.2a1.251,1.251,0,0,0-.041-.414,2.318,2.318,0,0,0-.041.414,11.067,11.067,0,0,1-.05,1.2c-.041,1.035-.108,2.541-.248,4.387a95.594,95.594,0,0,1-2.169,14.329,68.294,68.294,0,0,1-2.177,7.666,25.942,25.942,0,0,1-2.889,5.795,18.577,18.577,0,0,1-2.856,3.311C467.545,90.428,467.065,90.751,467.09,90.776Z" transform="translate(-434.689 -38.033)" fill="#1a2e35"/>
  </g>
  <path id="Trazado_142435" data-name="Trazado 142435" d="M569.542,304.96,462.29,322.518V304.96Z" transform="translate(-79.6 -52.51)" fill="#104c82"/>
  <path id="Trazado_142436" data-name="Trazado 142436" d="M418.6,352.87,311.35,370.428V352.87Z" transform="translate(-53.61 -60.759)" fill="#104c82"/>
  <path id="Trazado_142437" data-name="Trazado 142437" d="M268.7,398.7,161.45,416.258V398.7Z" transform="translate(-27.799 -68.65)" fill="#104c82"/>
  <path id="Trazado_142438" data-name="Trazado 142438" d="M118.993,435.18,11.75,452.73V435.18Z" transform="translate(-2.023 -74.932)" fill="#104c82"/>
  <g id="Grupo_84981" data-name="Grupo 84981" transform="translate(382.699 239.296)">
    <rect id="Rectángulo_36441" data-name="Rectángulo 36441" width="107.243" height="13.154" transform="translate(107.243 13.154) rotate(180)" fill="#36dac9"/>
    <g id="Grupo_84980" data-name="Grupo 84980" transform="translate(0)" opacity="0.3">
      <rect id="Rectángulo_36442" data-name="Rectángulo 36442" width="33.469" height="13.154" transform="translate(33.469 13.154) rotate(180)"/>
    </g>
  </g>
  <g id="Grupo_84983" data-name="Grupo 84983" transform="translate(257.74 278.957)">
    <rect id="Rectángulo_36443" data-name="Rectángulo 36443" width="107.243" height="13.154" transform="translate(107.252 13.154) rotate(180)" fill="#36dac9"/>
    <g id="Grupo_84982" data-name="Grupo 84982" opacity="0.3">
      <rect id="Rectángulo_36444" data-name="Rectángulo 36444" width="33.469" height="13.154" transform="translate(33.469 13.154) rotate(180)"/>
    </g>
  </g>
  <g id="Grupo_84985" data-name="Grupo 84985" transform="translate(133.651 316.896)">
    <rect id="Rectángulo_36445" data-name="Rectángulo 36445" width="107.243" height="13.154" transform="translate(107.252 13.154) rotate(180)" fill="#36dac9"/>
    <g id="Grupo_84984" data-name="Grupo 84984" opacity="0.3">
      <rect id="Rectángulo_36446" data-name="Rectángulo 36446" width="33.469" height="13.154" transform="translate(33.469 13.154) rotate(180)"/>
    </g>
  </g>
  <g id="Grupo_84987" data-name="Grupo 84987" transform="translate(9.561 347.086)">
    <rect id="Rectángulo_36447" data-name="Rectángulo 36447" width="107.243" height="13.154" transform="translate(107.243 13.154) rotate(180)" fill="#36dac9"/>
    <g id="Grupo_84986" data-name="Grupo 84986" transform="translate(0)" opacity="0.3">
      <rect id="Rectángulo_36448" data-name="Rectángulo 36448" width="33.469" height="13.154" transform="translate(33.469 13.154) rotate(180)"/>
    </g>
  </g>
  <path id="Trazado_142439" data-name="Trazado 142439" d="M90.174,360.862a2.922,2.922,0,1,1-2.914-2.922,2.922,2.922,0,0,1,2.914,2.922Z" transform="translate(-14.52 -61.632)" fill="#ececec"/>
</svg>
