<svg id="img6" xmlns="http://www.w3.org/2000/svg" xmlns:xlink="http://www.w3.org/1999/xlink" width="300" height="300" viewBox="0 0 300 300">
  <defs>
    <clipPath id="clip-path">
      <path id="Trazado_137286" data-name="Trazado 137286" d="M144.52,197.08c5.54,0,7.07,5.84,12,5.84a3.14,3.14,0,0,0,3.08-2.33,4.49,4.49,0,0,0,.27-1.58V194.1h0V160.75a5.16,5.16,0,0,0-5.16-5.16l-38.32-.11a4.67,4.67,0,0,1-1.57-.27,3.15,3.15,0,0,1-2.34-3.08c0-4.89,5.85-6.42,5.85-12,0-7.26-5.07-11.86-11.87-11.86h-.23c-6.8,0-11.87,4.6-11.87,11.86,0,5.54,5.85,7.07,5.85,12a3.15,3.15,0,0,1-2.34,3.08,4.73,4.73,0,0,1-1.58.27l-38,.11a5.16,5.16,0,0,0-5.16,5.16v96.32a5.16,5.16,0,0,0,5.16,5.16h22V278.8L98.4,262.28h56.31a5.16,5.16,0,0,0,5.16-5.16V223.71h0v-4.62a4.43,4.43,0,0,0-.27-1.57,3.15,3.15,0,0,0-3.08-2.34c-4.9,0-6.43,5.84-12,5.84-7.27,0-11.87-5.06-11.87-11.86v-.22C132.65,202.15,137.25,197.08,144.52,197.08Z" fill="#039be5"/>
    </clipPath>
    <clipPath id="clip-path-2">
      <path id="Trazado_137307" data-name="Trazado 137307" d="M287.61,71.94H271.19V49.88A5.16,5.16,0,0,0,266,44.72H169.6a5.16,5.16,0,0,0-5.17,5.16V83.24h.07v4.91a4.4,4.4,0,0,0,.27,1.57,3.15,3.15,0,0,0,3.08,2.34c4.89,0,6.43-5.84,12-5.84,7.27,0,11.87,5.07,11.87,11.86v.22c0,6.79-4.6,11.86-11.87,11.86-5.54,0-7.08-5.84-12-5.84a3.15,3.15,0,0,0-3.08,2.34,4.4,4.4,0,0,0-.27,1.57v4.62h-.07V146.2a5.16,5.16,0,0,0,5.17,5.16h37.94a4.73,4.73,0,0,1,1.58.27,3.16,3.16,0,0,1,2.34,3.08c0,4.89-5.85,6.43-5.85,12,0,7.26,5.07,11.86,11.87,11.86h.23a13.29,13.29,0,0,0,4.79-.86c4.3-1.63,7.15-5.58,7.15-11s-5.85-7.07-5.85-12a3.06,3.06,0,0,1,2.09-3l.18-.08a4.68,4.68,0,0,1,1.58-.27H266a5.16,5.16,0,0,0,5.16-5.16V89.91Z" fill="#039be5"/>
    </clipPath>
    <clipPath id="clip-path-3">
      <path id="Trazado_137330" data-name="Trazado 137330" d="M266.08,155.6H226.87a4,4,0,0,0-.68.18,3.15,3.15,0,0,0-2.34,3.07c0,4.9,5.85,6.43,5.85,12,0,7.27-5.07,11.86-11.87,11.86h-.23c-6.8,0-11.87-4.59-11.87-11.86,0-5.53,5.85-7.06,5.85-12a3.15,3.15,0,0,0-2.34-3.07,4,4,0,0,0-.68-.18H169.65a5.16,5.16,0,0,0-5.17,5.16v33.35h0V199a4.73,4.73,0,0,1-.27,1.58,3.15,3.15,0,0,1-3.08,2.33c-4.9,0-6.44-5.84-12-5.84-7.27,0-11.87,5.07-11.87,11.86v.22c0,6.8,4.6,11.86,11.87,11.86,5.54,0,7.08-5.84,12-5.84a3.16,3.16,0,0,1,3.08,2.34,4.63,4.63,0,0,1,.27,1.57v4.62h0v33.35a5.16,5.16,0,0,0,5.17,5.16h62.17L249.9,278.8V262.28h16.18a5.16,5.16,0,0,0,5.16-5.16V160.76A5.16,5.16,0,0,0,266.08,155.6Z" fill="#9ad7f5"/>
    </clipPath>
    <clipPath id="clip-path-4">
      <path id="Trazado_137347" data-name="Trazado 137347" d="M175.57,86.22c-5.54,0-7.08,5.84-12,5.84a3.15,3.15,0,0,1-3.07-2.34,4.4,4.4,0,0,1-.27-1.57V83.24h-.05V49.88A5.17,5.17,0,0,0,155,44.72H58.6a5.16,5.16,0,0,0-5.17,5.16V71.94H36.93l16.5,18V146.2a5.16,5.16,0,0,0,5.17,5.16H97.54a4.437,4.437,0,0,0,.6-.16,3.16,3.16,0,0,0,2.34-3.08c0-4.89-5.85-6.42-5.85-12,0-7.26,5.08-11.86,11.88-11.86h.22c6.8,0,11.87,4.6,11.87,11.86,0,5.54-5.84,7.07-5.84,12a3.15,3.15,0,0,0,2.33,3.08,4.208,4.208,0,0,0,.61.16H155a5.17,5.17,0,0,0,5.17-5.16V112.85h.05v-4.62a4.4,4.4,0,0,1,.27-1.57,4.17,4.17,0,0,1,.69-1.26,2.93,2.93,0,0,1,2.27-1c4.9,0,6.44,5.84,12,5.84a11.65,11.65,0,0,0,9.1-3.86,12.09,12.09,0,0,0,2.88-8.13v-.22C187.44,91.29,182.84,86.22,175.57,86.22Z" fill="#9ad7f5"/>
    </clipPath>
  </defs>
  <rect id="Rectángulo_36073" data-name="Rectángulo 36073" width="300" height="300" fill="none"/>
  <g id="Grupo_83612" data-name="Grupo 83612">
    <g id="Grupo_83596" data-name="Grupo 83596">
      <path id="Trazado_137264" data-name="Trazado 137264" d="M144.52,197.08c5.54,0,7.07,5.84,12,5.84a3.14,3.14,0,0,0,3.08-2.33,4.49,4.49,0,0,0,.27-1.58V194.1h0V160.75a5.16,5.16,0,0,0-5.16-5.16l-38.32-.11a4.67,4.67,0,0,1-1.57-.27,3.15,3.15,0,0,1-2.34-3.08c0-4.89,5.85-6.42,5.85-12,0-7.26-5.07-11.86-11.87-11.86h-.23c-6.8,0-11.87,4.6-11.87,11.86,0,5.54,5.85,7.07,5.85,12a3.15,3.15,0,0,1-2.34,3.08,4.73,4.73,0,0,1-1.58.27l-38,.11a5.16,5.16,0,0,0-5.16,5.16v96.32a5.16,5.16,0,0,0,5.16,5.16h22V278.8L98.4,262.28h56.31a5.16,5.16,0,0,0,5.16-5.16V223.71h0v-4.62a4.43,4.43,0,0,0-.27-1.57,3.15,3.15,0,0,0-3.08-2.34c-4.9,0-6.43,5.84-12,5.84-7.27,0-11.87-5.06-11.87-11.86v-.22C132.65,202.15,137.25,197.08,144.52,197.08Z" fill="#039be5"/>
      <g id="Grupo_83595" data-name="Grupo 83595" clip-path="url(#clip-path)">
        <g id="Grupo_83594" data-name="Grupo 83594">
          <path id="Trazado_137265" data-name="Trazado 137265" d="M103.44,170.17c-10.7-.93-19.11,6.47-33.92,19.89C63,196,58.24,198.61,55.3,203.27c-2.77,4.39-8.25,15.73-5.86,28,2.51,13,14,24.88,26.69,26.12,21.8,2.13,38.5-28.28,41.48-35,5.68-12.85,8.22-32.63-2.91-48C111.39,169.89,105.22,170.33,103.44,170.17Z" fill="#12263f"/>
          <path id="Trazado_137266" data-name="Trazado 137266" d="M121.06,225.42c2-.75,9.5,1.41,14.21,11.06,4.61,9.44,3.34,15.21,4.78,22.21,1.68,8.16,3.1,21.36,5.13,25,.58,1,2.57,3.82,3.14,6.7.21,1.05,1,8.27-2.26,7-9-3.55-11.94,6.57-17.07,3.27-6.22-4-1.92-21.34-3.64-49.76C124.49,236.72,117.74,226.64,121.06,225.42Z" fill="#fff"/>
          <path id="Trazado_137267" data-name="Trazado 137267" d="M48.58,239.7c2.23-5,8.52-7.76,13.08-8.76,14.38-3.13,17.22-7.69,23.45-9.3a24.7,24.7,0,0,1,11.19-.12c3.24.81,8.8,4.17,15.66,3.32,5.24-.65,6.45-.94,11.58.64,1.45.45,8.64,2.38,8,10.64-.76,9.83,3,17.54,3.6,20.37.8,3.48,1.17,3.34,1.5,5.84.62,4.63-.47,6.39-1.61,13.61-1.47,9.35-2.94,9.23.23,22.35.59,2.45,1.92,5.85-2.68,7.38-.94.31-16.68-3.55-42.41,5.49-4.6,1.62-6.84.44-9.51-.67-1-.41-11.71-11.49-14.39-35.14-1.08-9.55-2.87-14.13-4.53-16.27C56.45,252.32,44.61,248.7,48.58,239.7Z" fill="#fff"/>
          <path id="Trazado_137268" data-name="Trazado 137268" d="M130.86,236.54a28.4,28.4,0,0,0,1.2,7.7c.72,2.49,1.73,4.89,2.63,7.38a41.181,41.181,0,0,1,2.13,7.74,30.512,30.512,0,0,1,.39,4.05c0,1.36,0,2.71-.13,4-.49,5.32-1.5,10.46-2.08,15.63a57,57,0,0,0,.09,15.6,34.611,34.611,0,0,1-1.6-7.77,54.238,54.238,0,0,1-.11-8c.13-2.65.45-5.28.75-7.89s.69-5.21.89-7.78a38,38,0,0,0,.17-3.83,34.726,34.726,0,0,0-.3-3.8,46.687,46.687,0,0,0-1.73-7.52,79.1,79.1,0,0,1-2.08-7.66,23.24,23.24,0,0,1-.22-7.85Z" fill="#ae9ae3"/>
          <path id="Trazado_137269" data-name="Trazado 137269" d="M63.51,301.34a9.919,9.919,0,0,1,2.89.08c1.25,0,2.32-1.39.94-4.5-2-4.57.11-15.43.66-24,.58-9.1-3.58-18.48-4.83-20.82-4.15-7.77-9.57-16.16-12.88-14.42-.78.42-2,2.32-2.6,4.49-1.79,6.09-4.32,21.22-4.76,23-2.58,10.56-.81,18-.69,25.64,0,1.66-.06,3-.09,3.31-.15,2.05-1.34,7.29-1.46,8.24a15.55,15.55,0,0,0,1.05,7.06c1.12,3.33,4.43,8,6,7.61.68-.15.6-1.13,1.3-2.45C52.55,308.08,58.52,302,63.51,301.34Z" fill="#fff"/>
          <path id="Trazado_137270" data-name="Trazado 137270" d="M66.86,284.62c0-4,.25-8,.34-11.94a41.88,41.88,0,0,0-1.66-11.48c-.52-1.88-1.14-3.74-1.83-5.57-.35-.91-.73-1.81-1.13-2.68-.19-.43-.43-.88-.65-1.32l-.66-1.33c-.9-1.76-1.81-3.52-2.79-5.24a51.9,51.9,0,0,0-3.17-5,29.11,29.11,0,0,1,4,4.49c1.19,1.61,2.31,3.29,3.35,5,.53.86,1,1.69,1.53,2.61a26.859,26.859,0,0,1,1.32,2.77,46.552,46.552,0,0,1,2,5.75,39.17,39.17,0,0,1,1.18,6,27.92,27.92,0,0,1,.09,6.13A114.3,114.3,0,0,1,66.86,284.62Z" fill="#ae9ae3"/>
          <path id="Trazado_137271" data-name="Trazado 137271" d="M103,213.08c.62,2.17-2.08,14.78-2.38,15.95-1.53,5.85-6.23,7.38-10.77,7.2-6.3-.26-9.08-5.3-8.86-9.87A153.913,153.913,0,0,0,81,202.74C80.78,199.45,101.77,208.9,103,213.08Z" fill="#ec7d40"/>
          <path id="Trazado_137272" data-name="Trazado 137272" d="M94.39,206.11c-2.34-.89-2.38-2.07-5.48-1-2.19.78-3.89,2.87-5.13,5.58a26,26,0,0,0,5.11,10.45c1.54,1.85,3.92,4.72,8,5.25a11.72,11.72,0,0,0,4-.19c1-4.15,2.55-11.56,2.09-13.17C101.77,208.9,96.61,206.94,94.39,206.11Z" fill="#d66730"/>
          <path id="Trazado_137273" data-name="Trazado 137273" d="M75.84,186.27a19.87,19.87,0,0,1,3.79-11.35c4.88-7.1,10.06-8.9,12-9.33,6.68-1.46,12.37-1.28,17.62,2.78,9.57,7.42,7.86,23.5,7.1,28.46-.74,4.79-3.94,19.18-12,25.23a8.65,8.65,0,0,1-6,2.08c-4-.18-7.73-3.16-9.06-4.62-4.6-5.05-5.67-8.73-7.29-17.92C80.29,192.21,75.89,191.91,75.84,186.27Z" fill="#f79556"/>
          <path id="Trazado_137274" data-name="Trazado 137274" d="M95.56,215.5a.27.27,0,0,1,.22-.41,35.139,35.139,0,0,1,5.37.17,22,22,0,0,1,3.81.82.27.27,0,0,1,.15.4,4.86,4.86,0,0,1-4.88,2.45,6.68,6.68,0,0,1-4.67-3.43Z" fill="#d65b5b"/>
          <path id="Trazado_137275" data-name="Trazado 137275" d="M108.28,194.92a4.2,4.2,0,0,1,1.07-1.51,5.75,5.75,0,0,1,1.51-1.07,6.48,6.48,0,0,1,3.67-.42,6.894,6.894,0,0,1,.91.14l.45.1.47.15a5.3,5.3,0,0,1,1.6,1c.9.81-1.54.42-2,.35h-.73a6.259,6.259,0,0,0-.75,0,6,6,0,0,0-.74.11c-.25.07-.49.12-.72.21-.47.14-.94.29-1.43.4l-1.51.37c-.52.13-1.06.27-1.68.38Z" fill="#12263f"/>
          <path id="Trazado_137276" data-name="Trazado 137276" d="M87.2,191.48a10.88,10.88,0,0,1,3.42-1.62,9.89,9.89,0,0,1,3.92-.29,8.3,8.3,0,0,1,1,.14l1,.23a5.16,5.16,0,0,1,1.82,1,5.52,5.52,0,0,1,2,3.47l-.2.14c-1.24-.58-2.2-1.13-3.18-1.6a15.759,15.759,0,0,1-1.39-.77l-.71-.39c-.25-.1-.5-.22-.76-.3a8.722,8.722,0,0,0-1.63-.33,8.84,8.84,0,0,0-1.71-.07,12.17,12.17,0,0,0-3.49.63Z" fill="#12263f"/>
          <path id="Trazado_137277" data-name="Trazado 137277" d="M91.41,197.78c0,.32,1,1.25,3.89,1.16,1.28,0,2.56-.4,2.54-1a2.46,2.46,0,0,0-2-1.86C93.92,195.78,91.39,197.14,91.41,197.78Z" fill="#e6e6e6"/>
          <path id="Trazado_137278" data-name="Trazado 137278" d="M93.62,197a1.66,1.66,0,0,1,3.08,1.2,1.68,1.68,0,1,1-3.08-1.2Z" fill="#12263f"/>
          <path id="Trazado_137279" data-name="Trazado 137279" d="M98.14,198.38a3.73,3.73,0,0,0-1-.77,2.68,2.68,0,0,0-1-.25,11.061,11.061,0,0,0-2.27.23,18.517,18.517,0,0,1-2.59.32,5.069,5.069,0,0,1-1.43-.14,2.23,2.23,0,0,1-.71-.31,1.18,1.18,0,0,1-.45-.59,1.49,1.49,0,0,0,.62.14,3.883,3.883,0,0,0,.58-.09c.38-.09.76-.23,1.16-.36a15.582,15.582,0,0,1,2.53-.69,5.68,5.68,0,0,1,2.9.16,2.77,2.77,0,0,1,1.26.95,2.39,2.39,0,0,1,.4,1.4Z" fill="#12263f"/>
          <path id="Trazado_137280" data-name="Trazado 137280" d="M109.08,199.42c0,.31,1,1.18,3.7,1,1.21-.09,1.75-.65,1.71-1.27a1.47,1.47,0,0,0-1.31-1.57C111.35,197.39,109,198.8,109.08,199.42Z" fill="#e6e6e6"/>
          <path id="Trazado_137281" data-name="Trazado 137281" d="M111.26,198.7a1.505,1.505,0,1,1,2.84,1,1.53,1.53,0,1,1-2.84-1Z" fill="#12263f"/>
          <path id="Trazado_137282" data-name="Trazado 137282" d="M115.19,199.36a10.347,10.347,0,0,0-1-.5,3,3,0,0,0-.86-.2,4.37,4.37,0,0,0-1.64.35,14,14,0,0,1-2.06.64,3.14,3.14,0,0,1-1.26,0,1.49,1.49,0,0,1-1-.73,1.79,1.79,0,0,0,1-.1,6.06,6.06,0,0,0,.84-.43,11.691,11.691,0,0,1,1.94-1,4.619,4.619,0,0,1,1.23-.26,2.91,2.91,0,0,1,1.35.24,2.47,2.47,0,0,1,1,.84,2.84,2.84,0,0,1,.46,1.15Z" fill="#12263f"/>
          <path id="Trazado_137283" data-name="Trazado 137283" d="M84,206.37c-.29.46-1,2.13-2.25,2.07s-2.9-1.36-4.35-4.73c-1.38-3.19-1.28-5-1.1-5.8a3.65,3.65,0,0,1,1.66-2.54c1.53-.79,3.39.3,3.72.5C84.71,197.77,85.94,203.13,84,206.37Z" fill="#f79556"/>
          <path id="Trazado_137284" data-name="Trazado 137284" d="M64.7,200.71A90,90,0,0,1,79.8,195c19.24-5.05,26.37-17.9,26.37-17.9s17.92,20.54,12.5,36.4c-2,5.71-4.33,8.44-4.45,9.8a16.48,16.48,0,0,0,1.83-.09h.33c1.89-2.78,4.71-9.65,4.71-9.65,2.36-6.56,1.52-12.26-.16-23.67-2-13.29-4.63-16.39-5.44-17.62-5-7.59-9.87-8.21-12.86-6.92-.15-.05-.31-.08-.46-.14-11.32-4.68-23.14.56-29.39,14.39-4.61,10.22-14.24,16.1-17.94,23.07-4.52,8.5-4.47,14.22-4.25,15.12C50.7,218.21,53.61,206,64.7,200.71Z" fill="#12263f"/>
          <path id="Trazado_137285" data-name="Trazado 137285" d="M99.88,165.26A24.2,24.2,0,0,0,89.62,165a20.51,20.51,0,0,0-2.45.64,23.911,23.911,0,0,0-2.35.93,19.431,19.431,0,0,0-4.24,2.67A24.73,24.73,0,0,0,74.33,177l-.56,1.12c-.2.4-.4.81-.61,1.21-.42.8-.89,1.57-1.36,2.34A41.1,41.1,0,0,1,68.6,186a105.572,105.572,0,0,1-7.35,7.58c-1.25,1.21-2.48,2.41-3.59,3.7a26.37,26.37,0,0,0-2.94,4.15,27.58,27.58,0,0,0-3.35,9.64,34.62,34.62,0,0,0,.12,10.36A31.87,31.87,0,0,1,50.57,211a29,29,0,0,1,1-5.23,28.489,28.489,0,0,1,2-5c.41-.79.85-1.57,1.33-2.32.24-.38.48-.76.74-1.13s.53-.73.8-1.08a51.952,51.952,0,0,1,3.48-4c2.41-2.55,4.87-5,7-7.64.54-.66,1.06-1.33,1.57-2s1-1.39,1.44-2.1.89-1.43,1.28-2.18c.21-.37.38-.74.58-1.12s.41-.81.63-1.2a27.361,27.361,0,0,1,3.06-4.49,22.63,22.63,0,0,1,4-3.73,21.57,21.57,0,0,1,4.77-2.63,20.739,20.739,0,0,1,5.24-1.3,20,20,0,0,1,2.68-.13,21.51,21.51,0,0,1,2.66.21,22.588,22.588,0,0,1,2.6.53l.64.18.62.2A10.074,10.074,0,0,1,99.88,165.26Z" fill="#12263f"/>
        </g>
      </g>
    </g>
    <g id="Grupo_83599" data-name="Grupo 83599">
      <path id="Trazado_137287" data-name="Trazado 137287" d="M287.61,71.94H271.19V49.88A5.16,5.16,0,0,0,266,44.72H169.6a5.16,5.16,0,0,0-5.17,5.16V83.24h.07v4.91a4.4,4.4,0,0,0,.27,1.57,3.15,3.15,0,0,0,3.08,2.34c4.89,0,6.43-5.84,12-5.84,7.27,0,11.87,5.07,11.87,11.86v.22c0,6.79-4.6,11.86-11.87,11.86-5.54,0-7.08-5.84-12-5.84a3.15,3.15,0,0,0-3.08,2.34,4.4,4.4,0,0,0-.27,1.57v4.62h-.07V146.2a5.16,5.16,0,0,0,5.17,5.16h37.94a4.73,4.73,0,0,1,1.58.27,3.16,3.16,0,0,1,2.34,3.08c0,4.89-5.85,6.43-5.85,12,0,7.26,5.07,11.86,11.87,11.86h.23a13.29,13.29,0,0,0,4.79-.86c4.3-1.63,7.15-5.58,7.15-11s-5.85-7.07-5.85-12a3.06,3.06,0,0,1,2.09-3l.18-.08a4.68,4.68,0,0,1,1.58-.27H266a5.16,5.16,0,0,0,5.16-5.16V89.91Z" fill="#039be5"/>
      <g id="Grupo_83598" data-name="Grupo 83598" clip-path="url(#clip-path-2)">
        <g id="Grupo_83597" data-name="Grupo 83597">
          <path id="Trazado_137288" data-name="Trazado 137288" d="M238.65,51.44c-1.2-.36-1.58-1-2.44-1.32-6.5-2.07-15.86,2.1-19.63,4.58-8.9,5.82-11.45,16.3-13.17,23.3a56.3,56.3,0,0,0-.77,23.45c1.3,6.7,4,20.51,16.29,28.61,10.23,6.72,21.24,5.65,24.62,5.33,4.07-.4,10-1.05,15.84-5.33a27.27,27.27,0,0,0,9.8-13.33A33.09,33.09,0,0,0,268.92,96c-1.9-6-6.3-9.45-10-18.45-2.51-6.16-.47-15.08-12.18-23.28C242.09,51,240.66,52,238.65,51.44Z" fill="#12263f"/>
          <path id="Trazado_137289" data-name="Trazado 137289" d="M262.11,130.44a26.37,26.37,0,0,0,10.65-14.56,31.222,31.222,0,0,0,1.15-6.08,32.416,32.416,0,0,0-.05-6.23,38.109,38.109,0,0,0-1.19-6.09c-.15-.5-.29-1-.45-1.49l-.24-.73c-.08-.25-.19-.5-.28-.75a22.471,22.471,0,0,0-1.34-2.9A56.4,56.4,0,0,0,267,86.46c-1.13-1.63-2.25-3.25-3.25-4.93-.25-.41-.49-.84-.73-1.26l-.36-.64-.33-.65c-.23-.43-.45-.86-.66-1.3l-.31-.66-.16-.33c-.05-.11-.09-.22-.13-.32a37.134,37.134,0,0,1-1.62-5.54c-.24-1-.49-2-.79-3-.14-.49-.33-1-.5-1.48s-.37-1-.57-1.45a23,23,0,0,0-3.23-5.39,25.389,25.389,0,0,0-2.15-2.25l-.58-.52a5.672,5.672,0,0,0-.59-.51l-1.22-.94a13.481,13.481,0,0,0-1.27-.86l-1.29-.83a20.709,20.709,0,0,0-2.74-1.39,10,10,0,0,0-3-.76c-1-.09-2,.08-3-.1a6.17,6.17,0,0,0,1.48.3,14.249,14.249,0,0,1,1.48.22A9.9,9.9,0,0,1,244.19,53a24.65,24.65,0,0,1,2.46,1.6l1.17.91a12.9,12.9,0,0,1,1.13.95l1.08,1a5,5,0,0,1,.52.51l.49.54a25.909,25.909,0,0,1,1.84,2.23,22.24,22.24,0,0,1,2.64,5.07A38.729,38.729,0,0,1,257,71.38a35.709,35.709,0,0,0,1.57,6l.15.38.16.36.32.7c.2.47.43.93.67,1.39l.34.69.37.68c.24.45.48.91.75,1.35,1,1.78,2.18,3.48,3.33,5.13s2.3,3.24,3.24,4.89a18.426,18.426,0,0,1,1.23,2.53c.08.22.18.43.26.66l.24.69.45,1.38a39.464,39.464,0,0,1,1.29,5.65,32.8,32.8,0,0,1,.31,5.78,31.2,31.2,0,0,1-.73,5.76,26.32,26.32,0,0,1-1.84,5.52,27,27,0,0,1-3,5.06,25.947,25.947,0,0,1-1.89,2.3A26.883,26.883,0,0,1,262.11,130.44Z" fill="#12263f"/>
          <path id="Trazado_137290" data-name="Trazado 137290" d="M215.54,56a22.16,22.16,0,0,0-4.35,3.14,25.669,25.669,0,0,0-3.55,4.09A38.47,38.47,0,0,0,202.91,73c-.57,1.7-1.07,3.43-1.53,5.15-.24.85-.45,1.74-.66,2.62-.11.44-.2.88-.29,1.33l-.26,1.33a56.118,56.118,0,0,0-.84,10.83,45.066,45.066,0,0,0,.38,5.44c.11.9.25,1.8.42,2.71l.13.67.13.65c.09.44.19.88.28,1.31a55.56,55.56,0,0,0,3.23,10.34,36.81,36.81,0,0,0,5.69,9.25,29.25,29.25,0,0,0,8.31,6.78,35.2,35.2,0,0,1-7.21-7.63,40.32,40.32,0,0,1-4.71-9.22,51.737,51.737,0,0,1-1.54-5c-.44-1.71-.81-3.38-1.13-5.1l-.24-1.29-.12-.65-.11-.64c-.14-.84-.26-1.69-.35-2.55-.19-1.71-.3-3.44-.33-5.16v-2.6a11.128,11.128,0,0,1,.05-1.29c.05-.43,0-.86.07-1.3.08-1.72.31-3.44.54-5.16L203,82.6c.07-.42.14-.85.23-1.27.18-.85.34-1.7.54-2.56.39-1.72.78-3.43,1.24-5.11a42,42,0,0,1,3.8-9.66,26,26,0,0,1,2.95-4.3l.86-1c.3-.31.62-.61.93-.92l.47-.47.51-.43Z" fill="#12263f"/>
          <path id="Trazado_137291" data-name="Trazado 137291" d="M200.46,118.87c-1.42-.08-7.34,1.1-11.84,11.65S174.18,177,173,185.31s-.51,15,5,19.68c2.52,2.14,12.78,5.68,17.53-6.9S208.75,119.37,200.46,118.87Z" fill="#ffbcb0"/>
          <path id="Trazado_137292" data-name="Trazado 137292" d="M242.71,244.77c15.42-2.47,30.86-8.42,31.45-11.66s-5.51-6.54-5.27-14.14c1.29-40.14,8.7-91.64,5.38-92.49-12.54-3.22-24.48-11.84-37.23-12.63-11.62-.72-16.17,3-24,3.67s-13.23.57-14.58,1.91c-3.6,3.58-5.57,27.78-3.05,51.15,1.22,11.25,6.54,32,5.78,50.66-.4,10.08-4.91,18.49-4.66,21.55C196.89,247.19,217.9,248.76,242.71,244.77Z" fill="#ffbcb0"/>
          <path id="Trazado_137293" data-name="Trazado 137293" d="M249.52,74.2c-2.07,13.14-2.59,15.87-2.93,24.72-.46,12.36.21,15.4-.3,19.85-.52,4.62-5.84,7.57-12.75,6.92-4.81-.46-9.13-3.09-9.24-7.2A129.328,129.328,0,0,0,221.85,96c-1.8-8.77-2.42-14.51.29-18.78C227.29,69.15,250.43,68.45,249.52,74.2Z" fill="#ec7d40"/>
          <path id="Trazado_137294" data-name="Trazado 137294" d="M213.15,66.75C211,72,211.54,75.14,212,77.32a13.32,13.32,0,0,1,.1,7.54,18.41,18.41,0,0,0-.15,7.79c.81,3.76,5.74,15.25,9.54,17.46a9.31,9.31,0,0,0,4.3,1.2,15.22,15.22,0,0,0,6.52-1.09C241.19,106.73,245,97.15,245.49,96a29,29,0,0,0,1.43-5.29c1.33-6.84,6.23-14.61.94-24.34-1.55-2.84-10.25-13.73-26.24-8.05a14.48,14.48,0,0,0-8.47,8.43Z" fill="#f79556"/>
          <path id="Trazado_137295" data-name="Trazado 137295" d="M237.34,55.26a3,3,0,0,0-.48.15c-1.52.64-3.09,3.28-3.71,6.69a15.371,15.371,0,0,0-.19,4.52c.71,7.6,9.94,8.5,12.29,15.92,2,6.27,4.42,3.1,5.29.68,3.76-10.41,5.31-18.66-9.15-27.26a7,7,0,0,0-4.05-.7Z" fill="#12263f"/>
          <path id="Trazado_137296" data-name="Trazado 137296" d="M234.31,54.16c-1.53-.66-11.06-4-20.8,6.31-5.44,5.76-4.76,14-4.55,17.14a5.11,5.11,0,0,0,2.08,4c.51,0-3-9,15.38-14.23A13.18,13.18,0,0,0,233.91,62c1.44-1.45,3.46-4.39,2.43-6.31a3.68,3.68,0,0,0-2.03-1.53Z" fill="#12263f"/>
          <path id="Trazado_137297" data-name="Trazado 137297" d="M245.32,81.75c.44-.35,2.5-2,4.16-1.21a5.12,5.12,0,0,1,2.63,4.06c.34,3.09-1.06,7.78-3.88,9.89a4,4,0,0,1-3,1A3.69,3.69,0,0,1,243,93.83C240.87,90.76,241.73,84.54,245.32,81.75Z" fill="#f79556"/>
          <path id="Trazado_137298" data-name="Trazado 137298" d="M229.73,101.38a.3.3,0,0,0-.2-.47,37.12,37.12,0,0,0-6-.41,23.7,23.7,0,0,0-4.31.49.3.3,0,0,0-.21.43,5.39,5.39,0,0,0,5.13,3.25A7.487,7.487,0,0,0,229.73,101.38Z" fill="#d65b5b"/>
          <path id="Trazado_137299" data-name="Trazado 137299" d="M218.81,80.23a4,4,0,0,0-.86-1.44,5.38,5.38,0,0,0-1.3-1.07,5.9,5.9,0,0,0-3.28-.63,5.83,5.83,0,0,0-.84.07h-.41l-.44.1a5.07,5.07,0,0,0-1.51.8,13.72,13.72,0,0,0-2.12,2.29l.12.15c.45-.28.84-.61,1.25-.89a6.9,6.9,0,0,1,1.25-.73,3.63,3.63,0,0,1,1.28-.36h.65a2.686,2.686,0,0,1,.69.06c.23.06.44.1.66.15a2.824,2.824,0,0,1,.63.24c.42.16.83.33,1.26.46l1.34.43c.47.16.95.32,1.5.47Z" fill="#12263f"/>
          <path id="Trazado_137300" data-name="Trazado 137300" d="M240.19,78.29a11.59,11.59,0,0,0-3.37-1.93,10.48,10.48,0,0,0-4-.6c-.35,0-.69.06-1,.07l-1.05.16a5.23,5.23,0,0,0-1.93.85,5.64,5.64,0,0,0-2.34,3.4l.19.16c1.32-.5,2.34-1,3.38-1.39.51-.21,1-.43,1.48-.68l.76-.35a7.362,7.362,0,0,1,.8-.24,8,8,0,0,1,1.7-.22,9.47,9.47,0,0,1,1.76,0,12.9,12.9,0,0,1,3.53.93Z" fill="#12263f"/>
          <path id="Trazado_137301" data-name="Trazado 137301" d="M235.39,84.42c0,.32-1.13,1.2-4.08.89-1.31-.14-2.58-.61-2.51-1.27a2.51,2.51,0,0,1,2.2-1.75C233,82.17,235.46,83.76,235.39,84.42Z" fill="#e6e6e6"/>
          <path id="Trazado_137302" data-name="Trazado 137302" d="M233.18,83.44a1.7,1.7,0,0,0-3.24,1,1.72,1.72,0,1,0,3.24-1Z" fill="#12263f"/>
          <path id="Trazado_137303" data-name="Trazado 137303" d="M228.45,84.51a3.849,3.849,0,0,1,1.08-.71,2.63,2.63,0,0,1,1.06-.18,10.92,10.92,0,0,1,2.32.41,18,18,0,0,0,2.63.53,4.86,4.86,0,0,0,1.47,0,2.31,2.31,0,0,0,.75-.26,1.19,1.19,0,0,0,.5-.57,1.48,1.48,0,0,1-.64.09,2.89,2.89,0,0,1-.58-.14c-.39-.12-.77-.29-1.16-.45a17.271,17.271,0,0,0-2.54-.91,5.8,5.8,0,0,0-3-.05,2.74,2.74,0,0,0-1.36.87A2.4,2.4,0,0,0,228.45,84.51Z" fill="#12263f"/>
          <path id="Trazado_137304" data-name="Trazado 137304" d="M218,84.8c0,.3-.88,1.1-3.13.86-1-.11-1.44-.65-1.38-1.24s.28-1.38,1.16-1.46C216.18,82.83,218.06,84.22,218,84.8Z" fill="#e6e6e6"/>
          <path id="Trazado_137305" data-name="Trazado 137305" d="M216.18,84.05a1.44,1.44,0,0,0-2.74.84,1.46,1.46,0,1,0,2.74-.84Z" fill="#12263f"/>
          <path id="Trazado_137306" data-name="Trazado 137306" d="M212,84.55a8.582,8.582,0,0,1,1-.44,2.31,2.31,0,0,1,.82-.17,4.13,4.13,0,0,1,1.54.38,13.6,13.6,0,0,0,1.94.68,3.2,3.2,0,0,0,1.2,0,1.39,1.39,0,0,0,1-.66,1.69,1.69,0,0,1-.95-.12,5.12,5.12,0,0,1-.78-.44,11.309,11.309,0,0,0-1.81-1,4.2,4.2,0,0,0-1.16-.28,2.74,2.74,0,0,0-1.29.18,2.46,2.46,0,0,0-1,.76,2.56,2.56,0,0,0-.51,1.11Z" fill="#12263f"/>
        </g>
      </g>
    </g>
    <g id="Grupo_83605" data-name="Grupo 83605">
      <path id="Trazado_137308" data-name="Trazado 137308" d="M266.08,155.6H226.87a4,4,0,0,0-.68.18,3.15,3.15,0,0,0-2.34,3.07c0,4.9,5.85,6.43,5.85,12,0,7.27-5.07,11.86-11.87,11.86h-.23c-6.8,0-11.87-4.59-11.87-11.86,0-5.53,5.85-7.06,5.85-12a3.15,3.15,0,0,0-2.34-3.07,4,4,0,0,0-.68-.18H169.65a5.16,5.16,0,0,0-5.17,5.16v33.35h0V199a4.73,4.73,0,0,1-.27,1.58,3.15,3.15,0,0,1-3.08,2.33c-4.9,0-6.44-5.84-12-5.84-7.27,0-11.87,5.07-11.87,11.86v.22c0,6.8,4.6,11.86,11.87,11.86,5.54,0,7.08-5.84,12-5.84a3.16,3.16,0,0,1,3.08,2.34,4.63,4.63,0,0,1,.27,1.57v4.62h0v33.35a5.16,5.16,0,0,0,5.17,5.16h62.17L249.9,278.8V262.28h16.18a5.16,5.16,0,0,0,5.16-5.16V160.76A5.16,5.16,0,0,0,266.08,155.6Z" fill="#fff"/>
      <g id="Grupo_83604" data-name="Grupo 83604">
        <path id="Trazado_137309" data-name="Trazado 137309" d="M266.08,155.6H226.87a4,4,0,0,0-.68.18,3.15,3.15,0,0,0-2.34,3.07c0,4.9,5.85,6.43,5.85,12,0,7.27-5.07,11.86-11.87,11.86h-.23c-6.8,0-11.87-4.59-11.87-11.86,0-5.53,5.85-7.06,5.85-12a3.15,3.15,0,0,0-2.34-3.07,4,4,0,0,0-.68-.18H169.65a5.16,5.16,0,0,0-5.17,5.16v33.35h0V199a4.73,4.73,0,0,1-.27,1.58,3.15,3.15,0,0,1-3.08,2.33c-4.9,0-6.44-5.84-12-5.84-7.27,0-11.87,5.07-11.87,11.86v.22c0,6.8,4.6,11.86,11.87,11.86,5.54,0,7.08-5.84,12-5.84a3.16,3.16,0,0,1,3.08,2.34,4.63,4.63,0,0,1,.27,1.57v4.62h0v33.35a5.16,5.16,0,0,0,5.17,5.16h62.17L249.9,278.8V262.28h16.18a5.16,5.16,0,0,0,5.16-5.16V160.76A5.16,5.16,0,0,0,266.08,155.6Z" fill="#9ad7f5"/>
        <g id="Grupo_83603" data-name="Grupo 83603" clip-path="url(#clip-path-3)">
          <g id="Grupo_83602" data-name="Grupo 83602">
            <path id="Trazado_137310" data-name="Trazado 137310" d="M290.14,279.53c-1-4.59-2.29-22.14-4-26.25-1.15-2.84-5.14-6.67-11.1-9.14-11.41-4.7-14.16-2.75-26.47-7.5-4.51-1.74-17.92-4.5-24.18-3.27-5.49,1.09-5.17,2.41-16.66,7.51-8.81,3.91-12.15,5.89-14.05,6.85-8.68,4.39-10.37,25.64-10.4,31.8Z" fill="#ffa726"/>
            <path id="Trazado_137311" data-name="Trazado 137311" d="M255.81,200.07a6,6,0,0,0-2.3-3.06.59.59,0,0,1-.09-.87,3.45,3.45,0,0,0,1.12-3.41,2.68,2.68,0,0,0-1.58-1.58.57.57,0,0,1-.35-.49,2.44,2.44,0,0,0,1-2.86,2,2,0,0,0-1.09-1.1v-.13a.55.55,0,0,1,0-.42,9.36,9.36,0,0,0,1.16-5.59,5.51,5.51,0,0,0-3.63-4.6c.55-1.19.82-3.07-.09-4.25a3.83,3.83,0,0,0-4.19-1.21,5.46,5.46,0,0,0-.84-3.18c-1.92-2.93-7-2.92-10.73,0l-.15.13a.53.53,0,0,1-.84-.41c-.39-3.56-1.84-6.26-3.88-6.73s-3.91,1.27-5.23,4.17a.49.49,0,0,1-.88.06c-1.32-2-3-3-4.16-2.35-.76.43-1.09,1.51-1,2.85a.5.5,0,0,1-.81.47c-3.72-3-7.74-3.73-9.39-1.55-.93,1.24-.92,3.17-.16,5.28a.52.52,0,0,1-.67.69c-3.29-1.47-6.75-1-8.7,1.62a8.33,8.33,0,0,0-1.17,6.91.55.55,0,0,1-.27.63,10.78,10.78,0,0,0-3.56,2.77c-3.12,4.12-2.65,10.12.43,14.07a.56.56,0,0,1-.18.86,4.65,4.65,0,0,0,.9,9,.58.58,0,0,1,.23,1,4.34,4.34,0,0,0-1.87,4.71c.61,1.83,2.75,2.77,5,2.34a.57.57,0,0,1,.58.79c-.73,1.88-.78,3.57,0,4.19s2.07,0,3.35-1.3a.52.52,0,0,1,.87.33c.27,1.79,1.16,3.21,2.43,3.63a3.11,3.11,0,0,0,3.31-1.31.5.5,0,0,1,.85.14c.88,1.92,2.42,3.16,4,3a3.59,3.59,0,0,0,2.84-2.53.48.48,0,0,1,.55-.3,28.63,28.63,0,0,0,10.25.13A25.86,25.86,0,0,0,238.24,216a.52.52,0,0,1,.8.29c1,3,3.63,3.63,6.3,2.63a3.57,3.57,0,0,0,2.1-2.3.65.65,0,0,1,.86-.36c2.47.66,4.58-2.7,3.57-5.71a6.49,6.49,0,0,0-1-1.84c-.22-.29-.1-1.14.83-1.09a3.131,3.131,0,0,0,1.1-.26C255.49,206.36,256.83,203.08,255.81,200.07Z" fill="#12263f"/>
            <path id="Trazado_137312" data-name="Trazado 137312" d="M248.64,193c.83-17.41-5.92-22.84-10.17-23.81-2.89-.66-1.83.07-3.39-.23-2.4-.46-3.16-3.74-11.1-3.68-29.65.22-32.15,28.65-25.11,39.55,8.15,12.62,20,16.79,30.08,15.21C238.17,218.61,247.65,213.87,248.64,193Z" fill="#12263f"/>
            <path id="Trazado_137313" data-name="Trazado 137313" d="M245.68,200.8c-2.76,24.57.6,33.47,1.35,36.27,2.79,10.48-8.95,16.05-17.39,15.22-.79-.08-10.77-.93-12.88-7.52a17.121,17.121,0,0,1-.55-4.26c-.93-8-1.9-14.74-2.73-20.63-.52-3.74,4.8-2.33,16.93-10C240.36,203.57,245.93,198.56,245.68,200.8Z" fill="#512618"/>
            <path id="Trazado_137314" data-name="Trazado 137314" d="M241.26,200.51a4.07,4.07,0,0,0-.35,1.66c0,3.49,4.86-12.84-12.43-21h0c-21.19-7.24-28.33,6.49-28.63,11.66-.18,2.47-.37,8.66-.22,9.81,1,7.73,3.89,24.91,9.85,32.36a15,15,0,0,0,10.46,5.56c9.08.44,16.75-8,19.32-13.49,1.46-3.11,1.58-8.15.71-12.92-.2-1.09.09.47,2.5.77s5.8-4.61,5.93-11c.15-7.76-3.52-6.06-5.54-5A4.16,4.16,0,0,0,241.26,200.51Z" fill="#7f4730"/>
            <path id="Trazado_137315" data-name="Trazado 137315" d="M207.85,201.82a11.1,11.1,0,0,1-2.81-.07,4.191,4.191,0,0,1-1.16-.34,5.4,5.4,0,0,0-1.16-.43,3.16,3.16,0,0,1-.6-.11l-.61-.07a5,5,0,0,0-1.22,0,4.8,4.8,0,0,0-1.2.3c-.4.16-.8.39-1.23.6l-.16-.21c.15-.17.29-.36.44-.54a6.171,6.171,0,0,1,.5-.53,5.13,5.13,0,0,1,1.26-.87,6.81,6.81,0,0,1,1.46-.5l.76-.12h2.32a3.37,3.37,0,0,1,1.46.41,4.82,4.82,0,0,1,1.24.92,3.48,3.48,0,0,1,.87,1.4Z" fill="#12263f"/>
            <path id="Trazado_137316" data-name="Trazado 137316" d="M217.05,200.56a5.18,5.18,0,0,1,1.42-2,7.879,7.879,0,0,1,2-1.31,6.25,6.25,0,0,1,2.28-.59h4.08l.58.08a14,14,0,0,1,2.23.57,12.84,12.84,0,0,1,3.92,2.18l-.15.26a14.81,14.81,0,0,0-4.09-1,14,14,0,0,0-2-.06h-.5l-.5.05-1,.15a10.749,10.749,0,0,0-1.94.55,11.93,11.93,0,0,1-1.89.55c-.65.14-1.31.26-2,.39l-2.19.36Z" fill="#12263f"/>
            <path id="Trazado_137317" data-name="Trazado 137317" d="M227.15,204.57c0,.34-1.08,1.33-4.15,1.22-1.37,0-2.72-.44-2.7-1.12a2.65,2.65,0,0,1,2.13-2C224.49,202.43,227.17,203.89,227.15,204.57Z" fill="#e6e6e6"/>
            <path id="Trazado_137318" data-name="Trazado 137318" d="M206.78,206.23c0,.27-.84,1.05-3.27,1-1.08,0-2.14-.35-2.12-.88a2,2,0,0,1,1.67-1.56C204.69,204.54,206.8,205.69,206.78,206.23Z" fill="#e6e6e6"/>
            <path id="Trazado_137319" data-name="Trazado 137319" d="M225.11,203.62a2,2,0,0,0-3.75,1.21C221.94,207.59,226.21,206.92,225.11,203.62Z" fill="#12263f"/>
            <path id="Trazado_137320" data-name="Trazado 137320" d="M219.86,205.14a3.033,3.033,0,0,1,.13-.72,3.292,3.292,0,0,1,.3-.74,2.9,2.9,0,0,1,1.3-1.14,3.709,3.709,0,0,1,.76-.24,3.379,3.379,0,0,1,.78-.07,10.378,10.378,0,0,1,1.51.19,3.1,3.1,0,0,1,.73.17l.69.23a10.191,10.191,0,0,1,1.29.62,9,9,0,0,1,2.18,1.74l-.13.14a11.64,11.64,0,0,0-2.44-1,10.7,10.7,0,0,0-1.25-.27c-.2,0-.41-.06-.61-.07s-.41,0-.61,0a4.09,4.09,0,0,0-1.17.18l-.28.07-.27.06a3.641,3.641,0,0,1-.54.1,3.889,3.889,0,0,0-1,.27,6.437,6.437,0,0,0-.57.3,3.779,3.779,0,0,1-.7.32Z" fill="#12263f"/>
            <path id="Trazado_137321" data-name="Trazado 137321" d="M205.13,205.51a1.54,1.54,0,1,0-2.94.92,1.57,1.57,0,1,0,2.94-.92Z" fill="#12263f"/>
            <path id="Trazado_137322" data-name="Trazado 137322" d="M200.87,206.54a2.86,2.86,0,0,1,.2-1.21,2.46,2.46,0,0,1,.89-1.06,2.32,2.32,0,0,1,1.29-.41,5.271,5.271,0,0,1,1.28.17,5.77,5.77,0,0,1,1.13.38,8,8,0,0,1,1,.58,7.22,7.22,0,0,1,1.61,1.51l-.14.13a11.768,11.768,0,0,0-1.9-.76,8.241,8.241,0,0,0-1-.21,4.06,4.06,0,0,0-.91-.06,2.1,2.1,0,0,0-.81.19,3.731,3.731,0,0,1-.7.21,3.639,3.639,0,0,0-.75.22,8.429,8.429,0,0,1-1.07.45Z" fill="#12263f"/>
            <path id="Trazado_137323" data-name="Trazado 137323" d="M241.22,202.34c.2-1.58,2.1-7.78-2.14-3-.75.84-.21,13.87-5.48,19.64-1.92,2.1-4.87,3.78-6.72,3.3-2.76-.71-6.64-2.24-10.86-2.07-3.58.15-5.39,1.46-7.34,2.31-3.91,1.69-7.16-8.47-7.16-8.47.5,2.61,1.28,6.22,2.2,11.15,1.83,9.73,10,17.78,16.06,18,9,.3,22.34-11.41,23-22.4C243,216.69,240,212.13,241.22,202.34Zm-18.25,25a11.45,11.45,0,0,1-7.28,2,8.88,8.88,0,0,1-4.77-2,.53.53,0,0,1,.3-.94,9.23,9.23,0,0,0,4.61-2.47.43.43,0,0,1,.62-.05c.66.56,2.39,1.7,6.3,2.44a.55.55,0,0,1,.25,1.04Z" fill="#12263f"/>
            <g id="Grupo_83600" data-name="Grupo 83600">
              <path id="Trazado_137324" data-name="Trazado 137324" d="M243.34,181.74c.1-1.84-1.92-3.62-4.66-4.06a7,7,0,0,0-3.24.2c.28-2.89-1.19-5.45-3.44-5.81-1.89-.3-3.74,1-4.67,3.17a7,7,0,0,0-3.06-1.23,18,18,0,0,0-3.76-.17,5.2,5.2,0,0,0-4.84-.19,6.52,6.52,0,0,0-2.44,1.69c-1.14-2.4-3.5-3.7-5.42-2.93-1.62.65-2.44,2.57-2.16,4.66a6.65,6.65,0,0,0-3,.48c-.95.39-9.93,4.38-7.5,13.86.68,2.65,3.82,3.8,6.24,2.82a4.83,4.83,0,0,0,2.54-6.35l-.07-.15a4.77,4.77,0,0,0,6.18-1.1l.1.1a5.24,5.24,0,0,0,3.48,2.23,5,5,0,0,0,3.29-.61,4.42,4.42,0,0,0,2.09-1,6.449,6.449,0,0,0,.28.95,5.12,5.12,0,0,0,6.57,3,4.86,4.86,0,0,0,2.59-2.49,5.14,5.14,0,0,0,2.72,3.32,4.92,4.92,0,0,0,2.93.34,6,6,0,0,0-.27,1.05,5.46,5.46,0,1,0,10.78,1.72v-.12l-.72-.95a2.07,2.07,0,0,0,.88-1.36,2.23,2.23,0,0,0-1.32-2.32,6.77,6.77,0,0,0,1.46-3.29A6,6,0,0,0,243.34,181.74Z" fill="#12263f"/>
              <path id="Trazado_137325" data-name="Trazado 137325" d="M244.65,195a.15.15,0,0,0,0,.07C244.72,195.13,244.73,195.12,244.65,195Z" fill="#12263f"/>
            </g>
            <g id="Grupo_83601" data-name="Grupo 83601">
              <path id="Trazado_137326" data-name="Trazado 137326" d="M210.16,186.73l-.1-.1a4.77,4.77,0,0,1-6.18,1.1l.07.15a4.83,4.83,0,0,1-2.54,6.35,8.19,8.19,0,0,1-1.65.34v1.16a9,9,0,0,0,3.29-.12,4.84,4.84,0,0,0,2.54-6.35.169.169,0,0,0-.07-.16,4.78,4.78,0,0,0,4.24.34,4.67,4.67,0,0,0,1.81-1.3A5.15,5.15,0,0,1,210.16,186.73Z" fill="#512618"/>
              <path id="Trazado_137327" data-name="Trazado 137327" d="M219.3,188.25a6.447,6.447,0,0,1-.28-.95,4.42,4.42,0,0,1-2.09,1,5,5,0,0,1-4.88.07,5.21,5.21,0,0,0,3.24,1.92,5,5,0,0,0,3.29-.62,4.229,4.229,0,0,0,1.26-.46,5.731,5.731,0,0,1-.54-.96Z" fill="#512618"/>
              <path id="Trazado_137328" data-name="Trazado 137328" d="M233.84,193.44a6,6,0,0,1,.27-1.05,4.92,4.92,0,0,1-2.93-.34l-.13-.08a4.66,4.66,0,0,0,1.78,1.45,5,5,0,0,0,1,.32A1.007,1.007,0,0,1,233.84,193.44Z" fill="#512618"/>
              <path id="Trazado_137329" data-name="Trazado 137329" d="M228.46,188.73a4.81,4.81,0,0,1-6.73,2.23,5,5,0,0,0,5.79,1.63,4.77,4.77,0,0,0,2.13-1.69,5.68,5.68,0,0,1-1.19-2.17Z" fill="#512618"/>
            </g>
          </g>
        </g>
      </g>
    </g>
    <g id="Grupo_83611" data-name="Grupo 83611">
      <path id="Trazado_137331" data-name="Trazado 137331" d="M175.57,86.22c-5.54,0-7.08,5.84-12,5.84a3.15,3.15,0,0,1-3.07-2.34,4.4,4.4,0,0,1-.27-1.57V83.24h-.05V49.88A5.17,5.17,0,0,0,155,44.72H58.6a5.16,5.16,0,0,0-5.17,5.16V71.94H36.93l16.5,18V146.2a5.16,5.16,0,0,0,5.17,5.16H97.54a4.437,4.437,0,0,0,.6-.16,3.16,3.16,0,0,0,2.34-3.08c0-4.89-5.85-6.42-5.85-12,0-7.26,5.08-11.86,11.88-11.86h.22c6.8,0,11.87,4.6,11.87,11.86,0,5.54-5.84,7.07-5.84,12a3.15,3.15,0,0,0,2.33,3.08,4.208,4.208,0,0,0,.61.16H155a5.17,5.17,0,0,0,5.17-5.16V112.85h.05v-4.62a4.4,4.4,0,0,1,.27-1.57,4.17,4.17,0,0,1,.69-1.26,2.93,2.93,0,0,1,2.27-1c4.9,0,6.44,5.84,12,5.84a11.65,11.65,0,0,0,9.1-3.86,12.09,12.09,0,0,0,2.88-8.13v-.22C187.44,91.29,182.84,86.22,175.57,86.22Z" fill="#fff"/>
      <g id="Grupo_83610" data-name="Grupo 83610">
        <path id="Trazado_137332" data-name="Trazado 137332" d="M175.57,86.22c-5.54,0-7.08,5.84-12,5.84a3.15,3.15,0,0,1-3.07-2.34,4.4,4.4,0,0,1-.27-1.57V83.24h-.05V49.88A5.17,5.17,0,0,0,155,44.72H58.6a5.16,5.16,0,0,0-5.17,5.16V71.94H36.93l16.5,18V146.2a5.16,5.16,0,0,0,5.17,5.16H97.54a4.437,4.437,0,0,0,.6-.16,3.16,3.16,0,0,0,2.34-3.08c0-4.89-5.85-6.42-5.85-12,0-7.26,5.08-11.86,11.88-11.86h.22c6.8,0,11.87,4.6,11.87,11.86,0,5.54-5.84,7.07-5.84,12a3.15,3.15,0,0,0,2.33,3.08,4.208,4.208,0,0,0,.61.16H155a5.17,5.17,0,0,0,5.17-5.16V112.85h.05v-4.62a4.4,4.4,0,0,1,.27-1.57,4.17,4.17,0,0,1,.69-1.26,2.93,2.93,0,0,1,2.27-1c4.9,0,6.44,5.84,12,5.84a11.65,11.65,0,0,0,9.1-3.86,12.09,12.09,0,0,0,2.88-8.13v-.22C187.44,91.29,182.84,86.22,175.57,86.22Z" fill="#9ad7f5"/>
        <g id="Grupo_83609" data-name="Grupo 83609" clip-path="url(#clip-path-4)">
          <g id="Grupo_83608" data-name="Grupo 83608">
            <path id="Trazado_137333" data-name="Trazado 137333" d="M154.41,200.28c-.27-3.82-18.12-10.31-26-10.31-4.2,0-5-38.94-12.62-59.42-3.9-10.43-9.44-19.19-19.52-12.4-9.14,6.16-6.18,24.27-3.91,36.65,2.8,15.32,7.76,39.46,13.5,46.63,3.06,3.81,11.27,7.93,25.61,9.92C145.24,213.26,154.8,205.63,154.41,200.28Z" fill="#ffa726"/>
            <path id="Trazado_137334" data-name="Trazado 137334" d="M67.52,108.73A54.36,54.36,0,0,0,50.37,113c-28.93,12.84-28.24,36.8-28.93,44.42-1.25,13.94-2.16,27.29-1.6,34.24a44.39,44.39,0,0,1,0,8c-.51,5.51-1.86,8.52-2.68,11.77-1.34,5.26-3.77,22,.53,25.15,5.19,3.84,9.14-7,26.25-9.1,10.09-1.26,13.85,1.3,33.79,4.28,16.86,2.53,20.5-24.27,21.39-35.09.85-10.15,3.51-19.88,3.75-31.26.54-25.15,7.17-31.59,5.36-34.78-1-1.75-14-8.2-20.36-13.91C86.6,115.61,79.5,107.63,67.52,108.73Z" fill="#ffa726"/>
            <path id="Trazado_137335" data-name="Trazado 137335" d="M101.8,173.48a58.181,58.181,0,0,1-.2-8c0-1.34.16-2.67.26-4s.31-2.66.52-4c.11-.66.23-1.32.37-2s.25-1.32.41-2,.32-1.31.5-1.95l.26-1,.31-1a71.414,71.414,0,0,1,2.88-7.49c-.18,1.34-.51,2.64-.79,3.94s-.6,2.58-.88,3.87-.56,2.59-.79,3.89c-.13.64-.25,1.29-.36,1.94s-.22,1.3-.32,2c-.44,2.6-.79,5.22-1.13,7.85S102.21,170.83,101.8,173.48Z" fill="#ea9a26"/>
            <path id="Trazado_137336" data-name="Trazado 137336" d="M63.23,111.94c0-4.06,2.41-5.08,5.89-13.91a83.43,83.43,0,0,0,5.9-30c0-1,2.45-.2,5.89,2.68A33.89,33.89,0,0,1,92.7,90c2.75,13.38-1.73,32.22-11.79,33.71C73.56,124.81,63.26,118.3,63.23,111.94Z" fill="#ec7d40"/>
            <path id="Trazado_137337" data-name="Trazado 137337" d="M81.64,95.35s-1.74,1.67-3.17.54C76,94,75.88,89.37,75.84,88.4c-.06-1.29-.11-4.92,2.1-6.42,3.16-2.14,3.67,1.64,4.21,1.6s1.12-1.14,1-2.14c-.1-1.46-1.54-2.16-2.63-3.21-2.59-2.49-3-6.71-2.63-9.1.68-4.45,4.72-7,6.31-8,7.74-4.89,16.8-1.81,18.98-1.13,2.43.82,8.19,2.77,12.09,8.56A27.09,27.09,0,0,1,120,81.44c.34,4-.3,9.31-2.65,12.31-.37.48-2.45,4.46-2.63,5.89a20.68,20.68,0,0,1-1,6.42,36,36,0,0,1-7.88,13.37c-3.08,3.18-4.77,3.63-5.79,3.75a8.34,8.34,0,0,1-4.73-1.07c-2.36-1.16-13.41-8.29-14.19-18.19a49.062,49.062,0,0,1,.51-8.57Z" fill="#f79556"/>
            <path id="Trazado_137338" data-name="Trazado 137338" d="M121.08,69.82A39.32,39.32,0,0,0,109.3,58.43c-9.5-5.62-20.91-6.76-23-3.74a5.89,5.89,0,0,1-2.15,2.14c-1.49.8-2.75.44-3.75.53-3.55.34-7.1,6.78-7,12.85a16.64,16.64,0,0,0,9.1,14.66,3.39,3.39,0,0,1,1.55,4.23,55.85,55.85,0,0,1-5.29,10c-4.34,6.64,4.48,20.65,6.43,23a25.25,25.25,0,0,0,9.64,7c2.68,1.07,4.81,1.58,6.43.53,5.76-3.75,7.34-12.36,7.27-13.51a.32.32,0,0,1,.06-.23c.61-.8,1.24-1.7,1.86-2.68a.39.39,0,0,0,0-.36,6,6,0,0,0-2.79-3c-3.57-1.89-8.13-.9-11,1.12a4,4,0,0,1-5.19-.59c-3.17-3.59-5.29-8.92-4.7-16.58.81-10.44,6.16-16.32,9.65-17.12.52-.12.67.35,1.6,1.07a20.19,20.19,0,0,0,7,3.21c.8.24,10.91,2.52,15-.54,2.14-1.6,2.86,1.25,3.21,1.07C123.75,81.18,124.84,75.56,121.08,69.82Zm-24.39,44c1.58-.32,3.77.17,6.18-.27s2.41-1.21,3.22-.54a24.458,24.458,0,0,0,1.61,2.14c.18.19.37.32.51.47a.36.36,0,0,1-.08.55c-1,.65-4.45,1.93-9.54-.48-.37-.18-1.34-.78-2-1.19a.37.37,0,0,1,.1-.68Z" fill="#12263f"/>
            <path id="Trazado_137339" data-name="Trazado 137339" d="M109.81,96a3.89,3.89,0,0,1-2-.22,5.52,5.52,0,0,1-1.73-1.07c-.23-.21-.41-.3-.58-.47l-.28-.2a3.15,3.15,0,0,0-.29-.22,5.06,5.06,0,0,0-1.4-.68,10.611,10.611,0,0,0-1.66-.32c-.57-.08-1.16-.12-1.76-.16l-1.82-.12a9.521,9.521,0,0,1-1.84-.28v-.21a29.719,29.719,0,0,0,3.58-.46,14.16,14.16,0,0,1,3.81-.13,8.46,8.46,0,0,1,2,.48,4.57,4.57,0,0,1,1,.53,6,6,0,0,1,.76.75c.38.49.64.88,1,1.3s.8.8,1.27,1.28Z" fill="#12263f"/>
            <path id="Trazado_137340" data-name="Trazado 137340" d="M106.62,97.49a4.55,4.55,0,0,0-2.14-.27,20,20,0,0,1-2.28.13,5.16,5.16,0,0,1-2.48-.65,4,4,0,0,1-1.67-1.88,17.9,17.9,0,0,0,2.15.71,11.391,11.391,0,0,0,2,.22,11.76,11.76,0,0,1,2.35.22,3.059,3.059,0,0,1,.63.2,3.419,3.419,0,0,1,.59.33,3.34,3.34,0,0,1,.48.44,3.13,3.13,0,0,1,.37.55Z" fill="#12263f"/>
            <g id="Grupo_83606" data-name="Grupo 83606">
              <path id="Trazado_137341" data-name="Trazado 137341" d="M80.45,205.52c1.77-1.68,4.27-1.55,5.8-1.33,9.39,1.34,11.43,1.32,14.35.23,1.5-.56,6.23-2.63,8.83-2.44,5.62.42,27.43,10.24,27.65,12.89,0,0,.17,2.11-.72,2.49a2.35,2.35,0,0,0-.36.15c-.51.39.53,1.25-.26,2.17-.32.37-.83.47-1.67.56-1.72.17-3.08-.31-4.31-.09-.89.15-1,.52-2.06,1a5.16,5.16,0,0,1-3.38.69c-.66,0-1.4,0-6.22-2.51s-13.21-4.11-13.18-3.69,9.24,2.71,11.51,4.25a1.43,1.43,0,0,1,.53,1.24c-.12.81-.8.87-1.64,1-2.44.4-8.28-1.21-14.36-2.32a32.21,32.21,0,0,0-9.5-.54c-4,.38-5.13.31-7.68.6C77.61,220.6,72.3,213.29,80.45,205.52Z" fill="#ec7d40"/>
              <path id="Trazado_137342" data-name="Trazado 137342" d="M129.32,220a.66.66,0,0,0,.47-.27.63.63,0,0,0-.17-.87,42.39,42.39,0,0,0-5.93-3.45,102.8,102.8,0,0,0-13.36-5,.625.625,0,1,0-.38,1.19,101.5,101.5,0,0,1,13.19,4.93,41.729,41.729,0,0,1,5.78,3.35A.58.58,0,0,0,129.32,220Z" fill="#d66730"/>
              <path id="Trazado_137343" data-name="Trazado 137343" d="M133.91,218.16a.64.64,0,0,0,.44-.23.62.62,0,0,0-.09-.88,43,43,0,0,0-5.64-3.91,104.276,104.276,0,0,0-12.93-6,.63.63,0,0,0-.81.35.61.61,0,0,0,.34.81,102.4,102.4,0,0,1,12.76,6,41.65,41.65,0,0,1,5.49,3.8A.61.61,0,0,0,133.91,218.16Z" fill="#d66730"/>
            </g>
            <path id="Trazado_137344" data-name="Trazado 137344" d="M89.63,202.06c-9.37-.63-15.4-3.65-25.4-7.26a43.429,43.429,0,0,0-8.33-1.93,9.73,9.73,0,0,1,0-3.06,141,141,0,0,0,1-17.09,138.084,138.084,0,0,1,2.32-18.65,45.41,45.41,0,0,0-1-16.07c-.58-2.27-2.77-11-10.87-12.3-11.11-1.81-16,6-17.75,8.82-3.84,6.18-4.72,12.11-5.49,20.72,0,0-2.52,17.67,4.38,46.47,2,8.49,5.76,14.48,7.62,15.69a1,1,0,0,1,.17.1.69.69,0,0,0,0-.1c4.35,3,17.55,1.13,37.35,2.64,7.73.58,14.32,2.52,13.74-.63-1.84-10,2-16.46,4.59-15.66.43.13.25.35.45.35.39,0,.38-.1.39-.38C92.9,202.68,92,202.22,89.63,202.06Z" fill="#ffa726"/>
            <g id="Grupo_83607" data-name="Grupo 83607">
              <path id="Trazado_137345" data-name="Trazado 137345" d="M90,202.06a43.239,43.239,0,0,1-4.4-.24c-.73-.07-1.46-.19-2.19-.29s-1.46-.25-2.17-.41a76.544,76.544,0,0,1-8.5-2.43c-2.78-.95-5.53-1.94-8.28-2.87a36.69,36.69,0,0,0-4.12-1.12,40.464,40.464,0,0,0-4.2-.71l-.78-.08-.19-.76a7.83,7.83,0,0,1-.17-2,17.172,17.172,0,0,1,.12-1.8l.33-3.44c.21-2.28.41-4.55.54-6.82.06-1.14.11-2.27.14-3.41v-3.46c.06-1.21.18-2.35.3-3.51s.26-2.3.4-3.45c.29-2.29.66-4.57,1.05-6.86.22-1.14.42-2.28.69-3.42.06-.28.14-.57.22-.86l.05-.21v-.18a.689.689,0,0,1,.08-.38c.09-.54.15-1.1.2-1.66a53.432,53.432,0,0,0,.15-6.82,50.839,50.839,0,0,0-.71-6.84,39.88,39.88,0,0,1,1.49,6.77,46.191,46.191,0,0,1,.41,7,12,12,0,0,1-.09,1.78,1.242,1.242,0,0,1-.06.46l-.08.46c-.05.27-.11.55-.15.82-.19,1.12-.35,2.25-.49,3.38-.29,2.27-.51,4.55-.75,6.82-.1,1.14-.21,2.28-.3,3.42s-.16,2.29-.18,3.37v3.44c0,1.17-.05,2.33-.11,3.49s-.13,2.32-.22,3.48-.22,2.31-.34,3.45l-.36,3.43c-.06.57-.11,1.11-.13,1.64a5.38,5.38,0,0,0,.09,1.4l-1-.84a43.511,43.511,0,0,1,4.41.87,38.18,38.18,0,0,1,4.32,1.31c2.74,1.06,5.44,2.19,8.14,3.28s5.41,2.16,8.18,3A55.588,55.588,0,0,0,90,202.06Z" fill="#ea9a26"/>
              <path id="Trazado_137346" data-name="Trazado 137346" d="M24.53,155.24c-.06,2.7,0,5.39.14,8.08s.33,5.36.55,8,.52,5.34.89,8,.7,5.31,1.14,8l.66,4,.72,3.95.18,1,.2,1,.4,2c.27,1.32.52,2.64.82,3.92s.66,2.57,1.07,3.83.84,2.53,1.35,3.76a37,37,0,0,0,1.69,3.61c.16.3.32.59.5.87a9.227,9.227,0,0,0,.54.84,6.29,6.29,0,0,0,1.33,1.49h0l.05-.09v.1h0a6,6,0,0,1-1.61-1.27c-.23-.25-.47-.5-.68-.77s-.43-.54-.63-.81a30.772,30.772,0,0,1-2.19-3.48,40.67,40.67,0,0,1-1.76-3.72,38.177,38.177,0,0,1-1.4-3.88c-.19-.65-.39-1.32-.57-2l-.48-2-.49-2-.25-1-.21-1-.83-4-.7-4c-.39-2.68-.77-5.38-1-8.08-.15-1.35-.22-2.71-.32-4.06s-.13-2.72-.18-4.08v-4c0-1.36.06-2.72.16-4.07a56,56,0,0,1,.91-8.14Z" fill="#ea9a26"/>
            </g>
          </g>
        </g>
      </g>
    </g>
  </g>
</svg>
