<svg id="img7" xmlns="http://www.w3.org/2000/svg" width="300" height="300" viewBox="0 0 300 300">
  <g id="Grupo_83614" data-name="Grupo 83614">
    <path id="Trazado_137348" data-name="Trazado 137348" d="M215.1,195.28a19.37,19.37,0,1,0,19.37,19.36,19.37,19.37,0,0,0-19.37-19.36Zm0,30.55a11.19,11.19,0,1,1,11.19-11.19,11.19,11.19,0,0,1-11.19,11.19Z" fill="#e5e2d6"/>
    <path id="Trazado_137349" data-name="Trazado 137349" d="M215.1,195.28h0v8.18h0a11.111,11.111,0,0,1,6.141,1.851l4.459-6.851a19.22,19.22,0,0,0-10.6-3.18Z" fill="#ffa726"/>
    <path id="Trazado_137350" data-name="Trazado 137350" d="M209.05,224.05a11.18,11.18,0,0,1,3-20.17l-2.15-7.9a19.37,19.37,0,0,0-5.33,34.93Z" fill="#6de0d4"/>
    <g id="Grupo_83613" data-name="Grupo 83613">
      <path id="Trazado_137351" data-name="Trazado 137351" d="M215.43,179.67H196.84a1.1,1.1,0,1,1,0-2.2h18.59a1.1,1.1,0,0,1,0,2.2Z" fill="#e5e2d6"/>
      <path id="Trazado_137352" data-name="Trazado 137352" d="M228.06,185H196.84a1.11,1.11,0,0,1,0-2.21h31.22a1.11,1.11,0,0,1,0,2.21Z" fill="#e5e2d6"/>
    </g>
    <path id="Trazado_137353" data-name="Trazado 137353" d="M226.29,214.64a11.2,11.2,0,0,1-16.51,9.85l-4.1,7.08a19.37,19.37,0,0,0,22.62-31.1l-5.48,6.07a11.15,11.15,0,0,1,3.47,8.1Z" fill="#e5e2d6"/>
    <path id="Trazado_137354" data-name="Trazado 137354" d="M228.65,200.81c-.11-.12-.23-.23-.35-.34h0l-2.92,3.23-2.56,2.84.39.39h0l.37.41h0l.34.42h0l.31.42h0l.28.42h0c.09.13.17.28.25.42v.06c.08.14.15.28.22.42a.2.2,0,0,1,0,.08c.07.13.13.27.2.41q0,.05,0,.1c.06.13.11.27.17.41s0,.07,0,.11.1.27.14.4,0,.09.05.13a1.309,1.309,0,0,1,.11.4c.03.13,0,.1.05.15l.09.39v.16c0,.05.05.26.07.39v.18a1.048,1.048,0,0,0,.05.39,1.1,1.1,0,0,1,0,.18v1.16a11.19,11.19,0,0,1-7.86,10.69,4.609,4.609,0,0,1-.53.15c-.36.09-.72.17-1.09.23a12.086,12.086,0,0,1-1.71.12h-1.2l-.44-.06h-.09l-.47-.08h-.11l-.48-.11h0l-.45-.13h-.11l-.44-.15h-.09l-.39-.15h-.09l-.42-.19-.11-.05-.41-.21h0l-4.1,7.08h0c.52.29,1.06.56,1.61.8h0l.54.23h0c.37.15.74.29,1.12.41h0l.54.17h.08l.5.14h.06c.38.1.76.18,1.14.26h.12l.45.08h.15l.49.07h.08l.57.07h1.93a18.483,18.483,0,0,0,2-.1,19.39,19.39,0,0,0,15.68-11.3,17.652,17.652,0,0,0,.69-1.75c.16-.45.29-.91.41-1.38a19.221,19.221,0,0,0,.61-4.84v-.51a.909.909,0,0,1,0-.17v-.53a2.992,2.992,0,0,0,0-.31,1.491,1.491,0,0,0,0-.21,2.641,2.641,0,0,0,0-.29v-1.2a2.5,2.5,0,0,0,0-.29v-.2l-.06-.29a.262.262,0,0,0-.05-.19l-.06-.29v-.19a3.013,3.013,0,0,0-.07-.3c-.02-.1,0-.12-.05-.18l-.09-.29a.838.838,0,0,0-.05-.17l-.09-.31a.75.75,0,0,1-.05-.16.963.963,0,0,0-.11-.31c-.04-.1,0-.1,0-.15l-.12-.32a.19.19,0,0,0-.05-.13l-.13-.33v-.12l-.15-.35v-.09l-.18-.38h0l-.21-.43h0a19.19,19.19,0,0,0-3.74-5.09Z" fill="#e5e2d6"/>
    <path id="Trazado_137355" data-name="Trazado 137355" d="M234.46,214h0v-.53a2.992,2.992,0,0,0,0-.31,1.491,1.491,0,0,0,0-.21h0v-.24h0v-1.18a2.5,2.5,0,0,0,0-.29.429.429,0,0,0,0-.11v-.09l-.06-.29a.262.262,0,0,0-.05-.19l-.06-.29v-.33a.751.751,0,0,1,0-.16v-.28l-.06-.19a.84.84,0,0,0-.05-.17l-.09-.31v-.16a.963.963,0,0,0-.11-.31c-.04-.1,0-.1,0-.15l-.12-.32a.19.19,0,0,0-.05-.13h0l-.12-.3v-.12l-.15-.35v-.09l-.18-.38h0l-.21-.43h0c-.11-.21-.22-.42-.34-.62a.54.54,0,0,0-.07-.13c-.11-.2-.23-.4-.35-.6l-.06-.1-.36-.55v-.07l-.4-.57-.09-.12-.42-.55-.06-.06c-.13-.17-.27-.34-.41-.5l-.08-.1-.46-.5-.1-.11c-.16-.17-.33-.34-.5-.5h0c-.11-.12-.23-.23-.35-.34h0L226.94,202l-.53.58-3.41,4.1c.09.08.17.17.25.25h0l.37.41h0c.12.13.23.27.34.41h0l.31.42h0l.28.42h0c.09.13.17.28.25.42h0v.06h0c.08.14.15.28.22.42h0a.2.2,0,0,1,0,.08c.07.13.13.27.2.41q0,.05,0,.1h0c.06.13.11.27.17.41s0,.07,0,.11.1.27.14.4,0,.09.05.13a1.233,1.233,0,0,1,.11.39h0a.184.184,0,0,0,.05.15h0l.09.39v.16c0,.05.05.26.07.39v.18h0a1.022,1.022,0,0,0,.05.38h0a1.1,1.1,0,0,1,0,.18q0,.21,0,.42v.74h0v1.05a1.226,1.226,0,0,1,0,.19v.34a1.1,1.1,0,0,0,0,.18.721.721,0,0,1-.08.4.429.429,0,0,1,0,.11,2.162,2.162,0,0,1-.11.49c-.04.16,0,.09,0,.14a2.24,2.24,0,0,1-.1.35c-.04.12,0,.12-.05.17s-.07.22-.11.32l-.06.17-.13.34-.06.13c-.06.15-.13.3-.2.45v.09l-.18.36-.08.15-.17.28-.09.16-.19.29-.08.13-.29.4h0l-.3.39-.1.12c-.08.08-.15.17-.23.26l-.12.13-.23.24-.11.12-.29.27a.459.459,0,0,0-.07.07l-.38.32-.1.08-.28.23-.14.1-.27.19-.15.1-.3.2-.12.07-.43.25h-.08c-.12.06-.24.13-.36.18l-.15.08-.31.14-.17.07-.32.12-.15.06-.48.16-.3.09-.23.06c-.21.06-.43.1-.65.15l-.44.08-.5.06h-.16a2.313,2.313,0,0,1-.37,0H213.8l-.44-.06h-.09l-.47-.08h-.11l-.48-.11h0l-.45-.13h-.1l-3,7.62h.05l.2.07h0l.54.17h.08l.45.13h.12c.37.1.75.18,1.13.26h.12l.45.08h.23l.41.06h.14l.51.06h2.93l1-.08.59-.07h.17l.44-.07h.16l.58-.1h0l.53-.12h.16l.42-.11h.16l.55-.16h.07l.48-.15.16-.06.41-.15.14-.06c.18-.06.35-.14.53-.21h.08l.44-.19.16-.08.39-.19.13-.06.5-.26.09-.06.4-.22.15-.09.38-.23.11-.07.47-.31.1-.07.36-.26a.711.711,0,0,0,.14-.1l.36-.27.1-.07.43-.35.11-.09.33-.28.13-.12.33-.31.08-.07.4-.39.1-.11.3-.31.11-.12.32-.35.06-.07.36-.43.1-.12.26-.33.1-.13.3-.41h0l.32-.46.08-.13c.08-.12.16-.24.23-.36l.09-.14.27-.45h0c.1-.16.19-.33.28-.49s0-.1.07-.14.13-.26.2-.38a1,1,0,0,1,.07-.15l.24-.52a17.661,17.661,0,0,0,.69-1.75c.07-.2.14-.4.2-.61v-.15c0-.05.12-.41.17-.61h0L234,219v-.17a2.826,2.826,0,0,1,.08-.37v-.2a2.408,2.408,0,0,1,.07-.37v-.18a1.338,1.338,0,0,1,.08-.55h0l.06-.55v-.57a1.336,1.336,0,0,1,0-.2c0-.13,0-.26,0-.4v-1.26A.81.81,0,0,1,234.46,214Z" fill="#039be5"/>
  </g>
  <path id="Trazado_137356" data-name="Trazado 137356" d="M11.75,150.81a16.72,16.72,0,1,0,.71-23.64,16.72,16.72,0,0,0-.71,23.64ZM31,132.72a9.66,9.66,0,1,1-13.66-.41,9.66,9.66,0,0,1,13.66.41Z" fill="#e5e2d6"/>
  <path id="Trazado_137357" data-name="Trazado 137357" d="M34.59,150.81h0L39.76,146h0a9.62,9.62,0,0,1-2.5-5l-6.95,1.25a16.62,16.62,0,0,0,4.28,8.56Z" fill="#2daea0"/>
  <path id="Trazado_137358" data-name="Trazado 137358" d="M33.42,137.59a9.65,9.65,0,0,1-14.46,10l-3.7,6a16.72,16.72,0,0,0,25.11-17.32Z" fill="#e5e2d6"/>
  <g id="Grupo_83615" data-name="Grupo 83615">
    <path id="Trazado_137359" data-name="Trazado 137359" d="M24.21,109.15h-16a1,1,0,1,1,0-1.9h16a1,1,0,0,1,0,1.9Z" fill="#e5e2d6"/>
    <path id="Trazado_137360" data-name="Trazado 137360" d="M35.11,113.7H8.16a1,1,0,1,1,0-1.9h27a1,1,0,1,1,0,1.9Z" fill="#e5e2d6"/>
  </g>
  <path id="Trazado_137361" data-name="Trazado 137361" d="M17.3,132.31a9.67,9.67,0,0,1,16,4.56l6.88-1.61a16.72,16.72,0,0,0-32.94,4.18l7.06-.14a9.641,9.641,0,0,1,3-6.991Z" fill="#e5e2d6"/>
  <path id="Trazado_137362" data-name="Trazado 137362" d="M7.21,139v.42h0l3.76-.08,3.3-.06v-.48h0v-.47h0l.06-.46h0a.9.9,0,0,1,.08-.45h0a1.775,1.775,0,0,1,.1-.43h0a3.17,3.17,0,0,1,.12-.41v-.06l.13-.39v-.07c.05-.12.09-.24.15-.36v-.09c0-.11.1-.23.16-.34q0-.05,0-.1l.17-.33.06-.1.18-.31a.75.75,0,0,1,.07-.12c.06-.09.12-.19.19-.28l.08-.13.2-.27.09-.12.22-.27.1-.12.24-.27.09-.1.36-.36a9.67,9.67,0,0,1,11.38-1.38l.41.24a8.541,8.541,0,0,1,.78.56,9.279,9.279,0,0,1,1.09,1c.11.11.2.22.3.33l.06.08.27.33v.06l.23.31a.21.21,0,0,1,0,.06c.08.12.16.23.23.35a.35.35,0,0,1,0,.08c.08.12.15.24.22.37h0c.07.12.13.24.19.36a.36.36,0,0,1,0,.09c.06.12.12.25.17.37v.08c.05.11.1.22.14.33v.07a1.316,1.316,0,0,0,.13.38v.1a1.428,1.428,0,0,0,.11.39h0l6.88-1.61h0a14.828,14.828,0,0,0-.44-1.48h0a1.4,1.4,0,0,0-.17-.47h0c-.12-.32-.26-.64-.4-1h0c-.06-.15-.14-.29-.21-.44v-.06l-.21-.41h0c-.16-.29-.33-.59-.5-.87l-.06-.09-.22-.33-.07-.11-.24-.35v-.06l-.3-.4-.07-.08-.24-.31-.11-.12-.23-.27-.1-.12L35.8,128a15.2,15.2,0,0,0-1.23-1.18,16.74,16.74,0,0,0-16.38-3.17c-.52.17-1,.38-1.52.6a9.206,9.206,0,0,0-1.1.56,16.481,16.481,0,0,0-3.41,2.48c-.1.1-.21.2-.31.31l-.11.1-.2.21-.12.13-.18.19-.12.14-.17.19-.12.14-.16.19-.11.14-.16.2a1.342,1.342,0,0,1-.11.14l-.15.2-.1.15-.15.2-.09.14-.15.22-.09.14-.14.22a.64.64,0,0,0-.08.14,1.759,1.759,0,0,0-.14.23l-.08.13-.13.24a.75.75,0,0,0-.07.12l-.14.26-.06.11-.13.27-.05.11c-.05.09-.09.19-.13.28l-.05.1-.13.3v.08c-.05.11-.09.22-.14.34h0l-.14.39h0a16.45,16.45,0,0,0-1,5.36Z" fill="#e5e2d6"/>
  <path id="Trazado_137363" data-name="Trazado 137363" d="M12.05,127.58h0l-.2.21-.12.13-.18.19-.12.14h0l-.14.16h0l-.11.13-.16.19-.11.14v.06a1.341,1.341,0,0,1-.11.14,1.341,1.341,0,0,1-.11.14l-.15.2v.08l-.05.07-.15.2-.09.14-.15.22v.14l-.06.1-.08.12-.06.09h0l-.05.07-.09.16-.08.13-.13.24v.08h0l-.14.26-.06.11-.13.27-.05.11h0l-.12.25v.05h0l-.13.3v.08c-.05.11-.09.22-.14.34h0l-.14.39h0c-.07.19-.14.39-.2.58a.56.56,0,0,1,0,.12c-.06.19-.11.38-.16.58v.1a2.341,2.341,0,0,1-.14.55v.06a3.855,3.855,0,0,1-.12.59v.13c0,.2-.07.39-.09.59V137a1.541,1.541,0,0,1-.07.56v.7a.49.49,0,0,1,0,.12c0,.2,0,.41,0,.61h0v.42h2.43l4.63-.27v-.3h0v-.47h0l.06-.46h0a.9.9,0,0,1,.08-.45h0a1.775,1.775,0,0,1,.1-.43h0a3.171,3.171,0,0,1,.12-.41h0v-.06h0l.13-.39h0v-.07c.05-.12.09-.24.15-.36v-.09h0c0-.11.1-.23.16-.34a1,1,0,0,1,0-.1l.17-.33.06-.1.18-.31h0a.75.75,0,0,1,.07-.12h0c.06-.09.12-.19.19-.28l.08-.13.2-.27.09-.12h0l.21-.25h0l.1-.12.24-.27.09-.1.36-.36h0a4.347,4.347,0,0,1,.33-.3l.12-.1.24-.19.13-.1.24-.18a.57.57,0,0,1,.13-.08l.29-.2h.08l.38-.22.11-.06a2.439,2.439,0,0,1,.28-.14l.14-.07.26-.12.14-.06.29-.12h.12l.4-.14h.09l.33-.09H22l.28-.07h.58a3,3,0,0,1,.42-.06h2.84l.28.05h.15l.3.07h.11l.41.13h.08l.33.12.14.05.27.11.14.07.27.12.12.06.39.21.23.14.18.1.47.33a3.549,3.549,0,0,1,.31.23l.34.28.1.08.24.22.1.1.31.31c.11.11.2.22.3.33l.06.08h0l.27.33h0v.06h0l.23.31a.21.21,0,0,1,0,.06c.08.12.16.23.23.35a.35.35,0,0,1,0,.08c.08.12.15.24.22.37h0c.07.12.13.24.19.36h0a.589.589,0,0,0,0,.08l6.57-2.61h0a.177.177,0,0,0-.07-.17h0c-.06-.15-.14-.29-.21-.44h0l-.19-.37h0c-.16-.3-.33-.59-.5-.87h0l-.06-.09-.22-.33-.07-.11v-.06c-.07-.09-.13-.19-.2-.29h0l-.27-.36h0v-.05l-.19-.24v-.07h-.05l-.06-.07-.23-.27v-.06l-.05-.06-.34-.37-.62-.63-.61-.55-.39-.33-.12-.09-.3-.24L34,126l-.41-.29h0l-.39-.26-.12-.09-.32-.2-.12-.07-.43-.25h-.05l-.38-.21-.14-.07-.33-.16-.12-.06-.45-.2h-.07l-.38-.16h-.14l-.35-.13h-.12l-.46-.16h-.09l-.38-.12h-.14l-.37-.1h-.11l-.47-.11h-.1l-.38-.07h-.15l-.38-.07h-.1l-.48-.07H21.64l-.48.07h-.13l-.36.06h-.14l-.45.1h0a4.051,4.051,0,0,0-.47.12h-.14l-.35.11h-.14l-.46.15c-.52.17-1,.38-1.52.6l-.49.24-.13.06-.48.26h0l-.4.23-.13.08-.28.17-.15.1c-.09,0-.18.12-.27.18l-.13.08-.39.28h0l-.38.29-.12.09a2.749,2.749,0,0,0-.26.22l-.14.11-.26.22-.11.1-.37.33c-.1.1-.21.2-.31.31Z" fill="#36dac9"/>
  <g id="Grupo_83617" data-name="Grupo 83617">
    <path id="Trazado_137364" data-name="Trazado 137364" d="M193.96,253.68H153.77V218.03h.82v34.82h39.37Z" fill="#e5e2d6"/>
    <rect id="Rectángulo_36074" data-name="Rectángulo 36074" width="6.11" height="31.87" transform="translate(156.25 219.1)" fill="#e5e2d6"/>
    <rect id="Rectángulo_36075" data-name="Rectángulo 36075" width="6.11" height="22.2" transform="translate(163.58 228.77)" fill="#e5e2d6"/>
    <rect id="Rectángulo_36076" data-name="Rectángulo 36076" width="6.11" height="27.49" transform="translate(170.92 223.47)" fill="#e5e2d6"/>
    <rect id="Rectángulo_36077" data-name="Rectángulo 36077" width="6.11" height="15.17" transform="translate(178.25 235.8)" fill="#104c82"/>
    <rect id="Rectángulo_36078" data-name="Rectángulo 36078" width="6.11" height="18.53" transform="translate(185.58 232.44)" fill="#e5e2d6"/>
    <g id="Grupo_83616" data-name="Grupo 83616">
      <path id="Trazado_137365" data-name="Trazado 137365" d="M178.46,205.67H154.8a1.03,1.03,0,1,1,0-2.06h23.66a1.03,1.03,0,0,1,0,2.06Z" fill="#e5e2d6"/>
      <path id="Trazado_137366" data-name="Trazado 137366" d="M189.22,210.6H154.8a1.03,1.03,0,1,1,0-2.06h34.42a1.03,1.03,0,1,1,0,2.06Z" fill="#e5e2d6"/>
    </g>
  </g>
  <g id="Grupo_83619" data-name="Grupo 83619">
    <path id="Trazado_137367" data-name="Trazado 137367" d="M212.81,104.35a12,12,0,1,0,12,12A12,12,0,0,0,212.81,104.35Zm0,19a2.892,2.892,0,1,0,0-.02Z" fill="#d6d0a9"/>
    <path id="Trazado_137368" data-name="Trazado 137368" d="M212.81,104.35h0v5.08h0a6.82,6.82,0,0,1,3.81,1.15l2.77-4.26A12,12,0,0,0,212.81,104.35Z" fill="#e5e2d6"/>
    <path id="Trazado_137369" data-name="Trazado 137369" d="M209.05,122.22a6.95,6.95,0,0,1,1.87-12.53l-1.33-4.9a12,12,0,0,0-3.31,21.69Z" fill="#e5e2d6"/>
    <g id="Grupo_83618" data-name="Grupo 83618">
      <path id="Trazado_137370" data-name="Trazado 137370" d="M213,94.65H201.46a.67.67,0,0,1-.68-.68.68.68,0,0,1,.68-.69H213a.69.69,0,0,1,.69.69.68.68,0,0,1-.69.68Z" fill="#e5e2d6"/>
      <path id="Trazado_137371" data-name="Trazado 137371" d="M220.86,97.93h-19.4a.69.69,0,0,1,0-1.37h19.4a.69.69,0,0,1,0,1.37Z" fill="#e5e2d6"/>
    </g>
    <path id="Trazado_137372" data-name="Trazado 137372" d="M219.76,116.38a7,7,0,0,1-6.95,7,6.84,6.84,0,0,1-3.31-.84l-2.55,4.4A12,12,0,0,0,221,107.57l-3.41,3.77a7,7,0,0,1,2.17,5.04Z" fill="none"/>
    <path id="Trazado_137373" data-name="Trazado 137373" d="M221.23,107.78l-.22-.21h0l-1.82,2-1.59,1.76.24.25h0a2.731,2.731,0,0,1,.23.25h0l.21.26h0l.19.27h0l.18.27h0l.15.27h0c0,.09.1.18.14.27h0l.12.26v.06l.1.25v.07a1.043,1.043,0,0,0,.08.25v.09a2.168,2.168,0,0,1,.07.24v.1a.578.578,0,0,0,.06.24.3.3,0,0,1,0,.1v.24a.429.429,0,0,0,0,.11v.35a2.444,2.444,0,0,1,0,.27.28.28,0,0,1,0,.09v.37a7,7,0,0,1-4.88,6.64l-.33.09a5.47,5.47,0,0,1-.68.14,7.451,7.451,0,0,1-1.06.08h-1.44l-.3-.07h0l-.28-.08h-.07l-.27-.09H210l-.24-.09h0l-.27-.12h-.06l-.26-.14h0l-2.55,4.4h0c.33.18.66.35,1,.5h0l.33.14h0l.7.26h0l.33.1h0l.32.09h0l.71.16h.08l.28.05h2q.62,0,1.23-.06a12,12,0,0,0,9.74-7c.16-.35.3-.72.43-1.09a8.083,8.083,0,0,0,.25-.85,11.941,11.941,0,0,0,.38-3v-.42a1.477,1.477,0,0,0,0-.21v-.32a.618.618,0,0,0,0-.13q0-.09,0-.18v-.62a.69.69,0,0,0,0-.13v-.3a1.158,1.158,0,0,0,0-.18s0-.08,0-.12a1.162,1.162,0,0,1,0-.18v-.12a.25.25,0,0,0-.05-.18v-.4l-.06-.19v-.1l-.06-.19v-.09a.212.212,0,0,0-.08-.2v-.09l-.08-.2v-.07l-.09-.22v-.06a2.56,2.56,0,0,0-.11-.24h0c-.05-.09-.09-.18-.13-.26h0a12.451,12.451,0,0,0-2.32-3.16Z" fill="none"/>
    <path id="Trazado_137374" data-name="Trazado 137374" d="M224.83,116h0a1.477,1.477,0,0,0,0-.21v-.32a.619.619,0,0,0,0-.13h0a.76.76,0,0,1,0-.15h0v-.48a.591.591,0,0,0,0-.13.689.689,0,0,0,0-.13v-.3a1.16,1.16,0,0,0,0-.18s0-.08,0-.12a1.16,1.16,0,0,1,0-.18v-.07h0v-.25h0v-.29l-.06-.19v-.07h0l-.06-.19v-.09a.212.212,0,0,0-.08-.2v-.09h0a.619.619,0,0,0-.07-.19h0l-.09-.22v-.06a2.56,2.56,0,0,0-.11-.24h0c-.05-.09-.09-.18-.13-.26h0c-.06-.13-.13-.26-.2-.39l-.05-.08-.21-.37v-.06l-.22-.34h0l-.25-.36-.06-.07c-.08-.12-.17-.23-.26-.34h0l-.26-.31-.05-.06c-.09-.11-.19-.22-.29-.32l-.06-.06-.3-.32h0l-.22-.21h0l-.85.94-.33.36-2.14,2.56.15.16h0a2.73,2.73,0,0,1,.23.25h0l.21.26h0l.19.27h0l.18.27h0l.15.27h0c0,.09.1.18.14.27h0l.12.26v.06h0l.1.25v.07a1.043,1.043,0,0,0,.08.25v.09a2.171,2.171,0,0,1,.07.24h0a.29.29,0,0,0,0,.09h0a.374.374,0,0,0,.06.24.3.3,0,0,1,0,.1q0,.12,0,.24a.429.429,0,0,0,0,.11h0v.24h0v.1a2.448,2.448,0,0,1,0,.27.28.28,0,0,1,0,.09v.37h0V118a.13.13,0,0,0,0,.06,1.729,1.729,0,0,1-.07.31v.08l-.06.22v.11c0,.07-.05.13-.07.2v.1a1.8,1.8,0,0,1-.08.21v.08c0,.1-.09.19-.13.28v.06c0,.07-.07.15-.11.22a.409.409,0,0,0-.05.09l-.11.18a.126.126,0,0,1-.05.1l-.12.18a.56.56,0,0,0-.05.08l-.18.25h0l-.19.24-.06.07L218,121l-.08.09-.14.15-.07.07-.18.17h0l-.24.2h-.06l-.18.14-.08.07-.17.12-.09.06-.19.12h-.07l-.27.16h0l-.23.12h-.09l-.19.09h-.1l-.21.08h-.09l-.29.1h-.33a3,3,0,0,1-.41.09h-2.77l-.3-.07h0l-.28-.08h-.06l-1.87,4.73h.13l.33.1h0l.29.08h.07l.7.16h.08l.28.05h4.02l.36-.06h0l.33-.07h.11l.34.33h.09l.35-.1h0l.3-.1h.1l.25-.09h.09l.33-.13h.05l.27-.13h.1l.24-.12h.08l.31-.16h.06l.25-.15h.09l.24-.14h.07l.29-.19h.06l.23-.16.08-.07.23-.16h.06l.27-.22h.06l.21-.18.08-.07.21-.19v-.05l.25-.24.06-.06.19-.2.07-.07.2-.22h0l.22-.27.06-.07.16-.21.07-.08.18-.25h0l.2-.28.06-.09.14-.22a.41.41,0,0,0,.05-.09,2.609,2.609,0,0,0,.17-.28h0c.06-.1.12-.2.17-.3a.411.411,0,0,0,.05-.09l.12-.24v-.09l.15-.32c.16-.35.3-.72.43-1.09l.12-.38v-.09a1.779,1.779,0,0,1,.1-.38h0a1.665,1.665,0,0,1,.08-.32.522.522,0,0,0,0-.11.372.372,0,0,1,.05-.23v-.12a2,2,0,0,1,0-.24v-.11a1.011,1.011,0,0,1,.05-.34h0v-.34a.449.449,0,0,0,0-.11,2.109,2.109,0,0,0,0-.25s0-.08,0-.12v-.25a.45.45,0,0,1,0-.11v-.67Z" fill="#e5e2d6"/>
  </g>
  <path id="Trazado_137375" data-name="Trazado 137375" d="M28.74,173.59a20.7,20.7,0,0,1-3.38-3.43A21.259,21.259,0,0,1,22.8,166a20.66,20.66,0,0,1-1.52-4.68,25.25,25.25,0,0,1-.51-4.91,25.56,25.56,0,0,1,.46-4.93,30.359,30.359,0,0,1,1.35-4.76c.15-.38.3-.77.46-1.14l.24-.57c.08-.19.18-.38.27-.58a19.942,19.942,0,0,1,1.25-2.21c.94-1.39,2-2.64,3-3.86s2-2.42,2.9-3.69a11.58,11.58,0,0,0,.67-1l.32-.49.31-.49c.21-.32.42-.65.61-1l.29-.5.15-.25c0-.09.09-.16.13-.25a29.79,29.79,0,0,0,1.65-4.28c.26-.76.52-1.54.83-2.3.14-.39.32-.76.49-1.14s.36-.75.55-1.12a18.29,18.29,0,0,1,2.92-4.06,19.3,19.3,0,0,1,1.86-1.64l.48-.38c.17-.12.33-.25.5-.36l1-.66a11.078,11.078,0,0,1,1.06-.6l1.08-.57a16.459,16.459,0,0,1,2.26-.92,8.37,8.37,0,0,1,2.43-.41c.82,0,1.6.21,2.39.13a5.23,5.23,0,0,1-1.19.14,11.327,11.327,0,0,0-1.18.07,8.17,8.17,0,0,0-2.23.65,18.6,18.6,0,0,0-2.06,1.11l-1,.65a9,9,0,0,0-.95.67l-.93.71a3.161,3.161,0,0,0-.44.38l-.43.39a22.63,22.63,0,0,0-1.61,1.64,18,18,0,0,0-2.43,3.85A30.369,30.369,0,0,0,36.68,127a28.82,28.82,0,0,1-1.65,4.68l-.15.29-.14.27-.31.54c-.19.36-.4.71-.62,1.06l-.32.52-.33.52c-.23.34-.45.68-.69,1-.94,1.34-2,2.61-3,3.85a45.532,45.532,0,0,0-2.9,3.66,15.64,15.64,0,0,0-1.14,1.92c-.08.17-.17.33-.25.51l-.23.53c-.16.35-.31.71-.46,1.07a32.461,32.461,0,0,0-1.4,4.39,25.93,25.93,0,0,0-.63,4.56,25.49,25.49,0,0,0,.19,4.62,21.62,21.62,0,0,0,3.14,8.72,20,20,0,0,0,1.34,2Q27.93,172.71,28.74,173.59Z" fill="#12263f"/>
  <path id="Trazado_137376" data-name="Trazado 137376" d="M70.62,117.67a17.46,17.46,0,0,1,3.24,2.78,19.84,19.84,0,0,1,2.54,3.49A30.43,30.43,0,0,1,79.5,132c.33,1.4.61,2.8.86,4.2.13.68.24,1.4.35,2.12.06.35.1.71.14,1.07l.12,1.08a45.46,45.46,0,0,1-.06,8.65,41.8,41.8,0,0,1-.67,4.28c-.15.71-.32,1.42-.51,2.12l-.15.53-.15.5c-.1.35-.2.69-.31,1a43.39,43.39,0,0,1-3.25,8,29.24,29.24,0,0,1-5.12,7,23.36,23.36,0,0,1-7,4.82,27.611,27.611,0,0,0,6.22-5.57,31.87,31.87,0,0,0,4.35-7,40.89,40.89,0,0,0,1.55-3.83c.46-1.31.87-2.63,1.24-4l.28-1,.13-.51.13-.49c.17-.66.32-1.33.45-2,.27-1.35.47-2.71.61-4.08.08-.68.12-1.37.17-2.06v-2c0-1.38,0-2.75-.08-4.13l-.08-1a6.392,6.392,0,0,0-.1-1c-.09-.68-.15-1.36-.25-2.06-.2-1.4-.39-2.77-.64-4.14a33.58,33.58,0,0,0-2.35-7.92,21.35,21.35,0,0,0-2-3.6l-.62-.84c-.22-.28-.45-.53-.68-.8l-.34-.4-.37-.38Z" fill="#12263f"/>
  <path id="Trazado_137377" data-name="Trazado 137377" d="M52.62,112.48c1-.2,1.32-.72,2-.88,5.29-1.2,12.42,2.73,15.25,4.94,6.66,5.22,8,13.67,8.88,19.4a44.77,44.77,0,0,1-1,18.66c-1.48,5.23-4.53,16-14.82,21.6-8.56,4.66-17.21,3.07-19.87,2.59-3.19-.59-7.82-1.5-12.19-5.29A21.67,21.67,0,0,1,24,162.27a26.4,26.4,0,0,1,1.61-16.44c1.9-4.63,5.62-7.08,9.13-14,2.4-4.72,1.38-11.94,11.2-17.65C49.92,111.91,51,112.82,52.62,112.48Z" fill="#12263f"/>
  <path id="Trazado_137378" data-name="Trazado 137378" d="M25.24,253H84.31c-.54-7.26-.7-14.33-.62-21.69.06-5.1,5.7-19.26,6.45-23.58,1.47-8.46-5.81-31.5-6.91-32.69-2.06-2.24-.44-2.31-11.33-5-10.33-2.55-12.31-5.58-19-5.77-4.16-.12-6,.43-13.09,2.49a183.394,183.394,0,0,1-24,5.5c-7.91,1.09-5.61,13-1.91,22.2C20,209.39,32.61,207,25.24,253Z" fill="#104c82"/>
  <path id="Trazado_137379" data-name="Trazado 137379" d="M80.47,172.45s6.36,2,8.76,7.35c2,4.51,7.88,22.41,9.13,30.44,1.44,9.31,3.79,28.08,1.72,33.43s-22.26,5.41-23.09,0C73.68,222.08,78.13,175.2,80.47,172.45Z" fill="#104c82"/>
  <path id="Trazado_137380" data-name="Trazado 137380" d="M14.9,172.52c.24-.06-5,.83-6.47,9.95-1.15,7.26-.85,21.76.71,30.58,1.66,9.42,6.61,23.9,10.28,29.3s6.87,7.13,10.17,6.8,8.22-7.67,8.18-16.15-8.21-38.52-11.93-46.17S19.67,171.34,14.9,172.52Z" fill="#104c82"/>
  <g id="Grupo_83620" data-name="Grupo 83620">
    <path id="Trazado_137381" data-name="Trazado 137381" d="M80.21,172.39a27.509,27.509,0,0,0-2.88-.95l1.9,1.92Z" fill="none"/>
    <path id="Trazado_137382" data-name="Trazado 137382" d="M39.28,186.4l12.6-12.72-8.06-8.13c-1.15.32-2.47.71-4.06,1.18-2.57.75-5.48,1.55-8.49,2.31l-4.59,4.64Z" fill="none"/>
    <path id="Trazado_137383" data-name="Trazado 137383" d="M59.75,165.74a18.8,18.8,0,0,0-6.9-1.51,25.37,25.37,0,0,0-8.59,1.2l8,7.89Z" fill="none"/>
    <path id="Trazado_137384" data-name="Trazado 137384" d="M65.75,186.72l12.72-12.6-3.3-3.27L71.81,170A64.652,64.652,0,0,1,61,166.25l-8,7.87Z" fill="none"/>
    <path id="Trazado_137385" data-name="Trazado 137385" d="M91.32,185.56c-.89-2.55-1.67-4.61-2.18-5.77-2.09-4.7-7.18-6.79-8.46-7.25l-1.13,1.14Z" fill="none"/>
    <path id="Trazado_137386" data-name="Trazado 137386" d="M29.87,169.39c-2,.5-4.05,1-6.06,1.4l2.3,2.32Z" fill="none"/>
    <path id="Trazado_137387" data-name="Trazado 137387" d="M85.6,247.6c4.26.32,9.08-.25,12-1.69l-5.14-5.08Z" fill="none"/>
    <path id="Trazado_137388" data-name="Trazado 137388" d="M79,227.56,66.4,240.28l12.72,12.6,4.76-4.8v-.66l.61.08,7.27-7.34Z" fill="none"/>
    <path id="Trazado_137389" data-name="Trazado 137389" d="M98,245.68a4.26,4.26,0,0,0,2-2c.81-2.09.94-6.22.72-11l-7.89,7.81Z" fill="none"/>
    <path id="Trazado_137390" data-name="Trazado 137390" d="M99.64,220.29c-.45-3.78-1-7.33-1.37-10.06-.09-.54-.19-1.13-.32-1.76l-5.07,5.12Z" fill="none"/>
    <path id="Trazado_137391" data-name="Trazado 137391" d="M92.43,213.15l5.39-5.33a198.391,198.391,0,0,0-5.61-19.64L79.72,200.55Z" fill="none"/>
    <path id="Trazado_137392" data-name="Trazado 137392" d="M79.55,227.05l12.6,12.72,8.48-8.57c-.17-2.93-.45-6.06-.79-9.11l-7.69-7.76Z" fill="none"/>
    <path id="Trazado_137393" data-name="Trazado 137393" d="M65.71,213.08l12.6-12.71-12.6-12.72-12.6,12.72Z" fill="none"/>
    <rect id="Rectángulo_36079" data-name="Rectángulo 36079" width="17.9" height="17.9" transform="matrix(0.71, -0.704, 0.704, 0.71, 13.259, 213.518)" fill="none"/>
    <path id="Trazado_137394" data-name="Trazado 137394" d="M53.88,252.95H77.54L65.71,241.01Z" fill="none"/>
    <path id="Trazado_137395" data-name="Trazado 137395" d="M39.07,213.16l12.71-12.6-12.71-12.6-12.72,12.6Z" fill="none"/>
    <rect id="Rectángulo_36080" data-name="Rectángulo 36080" width="17.9" height="17.9" transform="matrix(0.704, -0.71, 0.71, 0.704, 13.087, 187.394)" fill="none"/>
    <path id="Trazado_137396" data-name="Trazado 137396" d="M12.35,173.92c-1.5,1.32-3.26,3.83-4,8.54v.22l4.07,4,12.72-12.6-3-3c-2.2.44-4.33.82-6.29,1.09a5.56,5.56,0,0,0-3.5,1.75Z" fill="none"/>
    <rect id="Rectángulo_36081" data-name="Rectángulo 36081" width="17.9" height="17.9" transform="matrix(0.704, -0.71, 0.71, 0.704, 66.197, 187.148)" fill="none"/>
    <rect id="Rectángulo_36082" data-name="Rectángulo 36082" width="17.9" height="17.9" transform="matrix(0.71, -0.704, 0.704, 0.71, 39.952, 187.085)" fill="none"/>
    <rect id="Rectángulo_36083" data-name="Rectángulo 36083" width="17.9" height="17.9" transform="matrix(0.704, -0.71, 0.71, 0.704, 39.77, 213.831)" fill="none"/>
    <path id="Trazado_137397" data-name="Trazado 137397" d="M39.28,214.33l-12.6,12.72,12.6,12.72,12.6-12.72Z" fill="none"/>
    <path id="Trazado_137398" data-name="Trazado 137398" d="M53.03,226.99l12.72,12.6,12.72-12.6-12.72-12.6Z" fill="none"/>
    <rect id="Rectángulo_36084" data-name="Rectángulo 36084" width="17.9" height="17.9" transform="matrix(0.71, -0.704, 0.704, 0.71, 39.699, 240.209)" fill="none"/>
    <rect id="Rectángulo_36085" data-name="Rectángulo 36085" width="17.9" height="17.9" transform="matrix(0.71, -0.704, 0.704, 0.71, 66.375, 213.779)" fill="none"/>
    <path id="Trazado_137399" data-name="Trazado 137399" d="M8.69,210.73c.11.8.23,1.58.36,2.32.18,1,.4,2.09.65,3.2L12,214Z" fill="none"/>
    <path id="Trazado_137400" data-name="Trazado 137400" d="M25.92,227.81l-9.32,9.41a34.79,34.79,0,0,0,2.73,5.12c2.31,3.38,4.42,5.33,6.49,6.23-.18,1.22-.37,2.47-.57,3.77l.62.61h.34l12.43-12.54Z" fill="none"/>
    <path id="Trazado_137401" data-name="Trazado 137401" d="M25.44,200.36l-12.6-12.71-5.19,5.24a132.809,132.809,0,0,0,.77,15.73l4.42,4.46Z" fill="none"/>
    <path id="Trazado_137402" data-name="Trazado 137402" d="M26.83,252.95H51.31L39.07,240.83Z" fill="none"/>
    <path id="Trazado_137403" data-name="Trazado 137403" d="M8.26,183a72.35,72.35,0,0,0-.59,8.37L12.15,187Z" fill="none"/>
    <path id="Trazado_137404" data-name="Trazado 137404" d="M12.38,214.39l-2.53,2.52A121.41,121.41,0,0,0,16,236l9.06-9Z" fill="none"/>
    <path id="Trazado_137405" data-name="Trazado 137405" d="M84.22,253c-.09-1.25-.17-2.5-.24-3.74L80.2,253Z" fill="none"/>
    <path id="Trazado_137406" data-name="Trazado 137406" d="M25.15,253h.72l-.62-.61C25.22,252.54,25.19,252.75,25.15,253Z" fill="#d6d0a9"/>
    <path id="Trazado_137407" data-name="Trazado 137407" d="M12.38,186.72l-4.07-4a.8.8,0,0,1-.05.34L12.15,187l-4.48,4.44v1.5l5.19-5.24,12.6,12.71-12.6,12.72-4.42-4.46c.08.72.17,1.43.27,2.11L12,214l-2.3,2.25.15.66,2.53-2.52L25.1,227,16,236c.19.43.37.85.56,1.25l9.32-9.41,12.72,12.6L26.21,253h.62l12.24-12.12L51.31,253h2.57l11.83-12,11.83,12H80.2l3.8-3.79-.06-1.13-4.76,4.8-12.72-12.6L79,227.56l12.72,12.6-7.27,7.34,1.11.1,6.83-6.77,5.14,5.08.44-.23-5.19-5.24,7.89-7.81a8.635,8.635,0,0,0-.08-1.43l-8.48,8.57-12.6-12.72,12.6-12.72,7.69,7.76c-.07-.6-.13-1.2-.2-1.8l-6.76-6.7L98,208.47a3.119,3.119,0,0,0-.13-.65l-5.39,5.33-12.71-12.6,12.49-12.37-.89-2.62L79.55,173.68l1.13-1.14-.3-.1h0l-.15-.07-1,1-1.9-1.92c-.63-.18-1.34-.38-2.16-.59l3.3,3.27-12.72,12.6L53,174.12l8-7.87-1.23-.51-7.52,7.58-8-7.89-.44.12,8.06,8.13L39.28,186.4l-12.6-12.72L31.27,169l-1.4.35-3.76,3.72-2.3-2.32-1.71.35,3,3Zm13.49,39.51-12.6-12.72L26,200.92l12.59,12.71Zm.81.82,12.6-12.72,12.6,12.72-12.6,12.72Zm13.08-13.21,12.6-12.72,12.72,12.6-12.6,12.72ZM52.3,252.91,39.7,240.2l12.72-12.6L65,240.32Zm13.45-13.32L53,227l12.72-12.6L78.47,227Zm26-25.71L79,226.48,66.4,213.76l12.71-12.6ZM78.8,174.44,91.51,187l-12.6,12.72L66.2,187.16Zm-.49,25.92-12.6,12.72-12.6-12.72,12.6-12.71ZM52.67,174.48l12.6,12.72L52.55,199.8,40,187.08Zm-.89,26.07-12.71,12.6-12.72-12.6L39.07,188ZM38.39,187.29,25.8,200,13.08,187.4l12.6-12.72Z" fill="#d6d0a9"/>
  </g>
  <path id="Trazado_137408" data-name="Trazado 137408" d="M37.87,234l-.09-.9-.13-.88c-.1-.59-.2-1.18-.32-1.77s-.25-1.17-.37-1.75-.26-1.17-.41-1.75c-.55-2.32-1.15-4.64-1.77-7-1.24-4.61-2.54-9.22-3.86-13.82s-2.65-9.19-4-13.77c-.35-1.14-.7-2.28-1.07-3.41-.18-.57-.37-1.13-.57-1.7l-.58-1.7c-.78-2.26-1.6-4.5-2.58-6.7a49.859,49.859,0,0,1,3.32,6.41c.48,1.1,1,2.2,1.41,3.33s.86,2.24,1.27,3.38c1.62,4.52,3.06,9.1,4.39,13.72s2.52,9.27,3.53,14c.51,2.35,1,4.71,1.32,7.09.18,1.2.34,2.39.44,3.59.06.6.1,1.2.13,1.8v.91C37.9,233.44,37.88,233.74,37.87,234Z" fill="#12263f"/>
  <path id="Trazado_137409" data-name="Trazado 137409" d="M42.87,234.83c-.09.24-.19.47-.3.7s-.21.46-.33.69c-.22.46-.46.9-.71,1.34a25.757,25.757,0,0,1-1.61,2.58,39.491,39.491,0,0,1-3.78,4.78c-.35.37-.7.74-1.07,1.1l-.56.52-.58.52a15.258,15.258,0,0,1-2.54,1.79c-.23.14-.48.24-.72.36l-.37.15-.19.07h-.19l-.4.11-.41.07h-.84a5.51,5.51,0,0,1-1.51-.46,6.239,6.239,0,0,1-.68-.35c-.22-.13-.44-.26-.65-.41a13.77,13.77,0,0,0,1.45.41,5.849,5.849,0,0,0,1.43.15h.34l.32-.07.32-.11a3.051,3.051,0,0,0,.32-.13l.16-.07.16-.09.31-.16c.2-.13.4-.25.6-.39a19.45,19.45,0,0,0,2.25-1.84l.53-.51c.17-.18.35-.35.52-.52l.52-.53.5-.54c1.35-1.45,2.65-3,3.92-4.5.64-.76,1.28-1.54,1.91-2.32l.94-1.17Z" fill="#12263f"/>
  <path id="Trazado_137410" data-name="Trazado 137410" d="M20.66,241.29a17.38,17.38,0,0,1-1.17-3.55c-.14-.61-.24-1.23-.32-1.85,0-.31-.07-.63-.09-.94V234a19.33,19.33,0,0,1,.26-3.79,35.91,35.91,0,0,1,.85-3.66c.09-.3.2-.6.29-.9l.15-.45.17-.44c.22-.6.47-1.18.74-1.75l.43-.85.46-.83c.33-.54.67-1.07,1-1.58a26.549,26.549,0,0,1,2.4-2.88,31,31,0,0,1,2.73-2.52c-.7,1-1.43,2-2.12,3s-1.35,2-1.95,3.06a31,31,0,0,0-1.6,3.21c-.22.55-.45,1.1-.64,1.66l-.15.42-.14.43c-.09.29-.19.57-.26.86l-.26.86-.22.87c-.08.29-.15.59-.22.88s-.14.59-.2.88a24.59,24.59,0,0,0-.5,3.53,32.35,32.35,0,0,0,.36,7.28Z" fill="#12263f"/>
  <path id="Trazado_137411" data-name="Trazado 137411" d="M85.69,179.89c1.51,5.46,3.35,10.82,4.58,16.4.29,1.4.56,2.81.73,4.24.1.71.16,1.43.2,2.16s0,1.45,0,2.19a20.068,20.068,0,0,1-.23,2.19c-.12.72-.26,1.44-.43,2.14-.34,1.4-.75,2.77-1.17,4.13-.84,2.72-1.71,5.39-2.44,8.1-.1.34-.18.68-.27,1s-.18.68-.26,1c-.18.68-.33,1.37-.49,2.05-.3,1.37-.58,2.75-.82,4.13a83.768,83.768,0,0,0-1,8.37c-.2,2.82-.25,5.64-.23,8.48a63.48,63.48,0,0,1-.63-8.5c0-1.43,0-2.86.11-4.28s.22-2.85.4-4.27.41-2.83.69-4.24c.14-.7.28-1.4.45-2.1.08-.34.16-.69.25-1s.16-.69.26-1c.35-1.38.75-2.75,1.16-4.12s.86-2.71,1.29-4,.85-2.69,1.21-4c.18-.67.33-1.34.47-2a17.168,17.168,0,0,0,.26-2,27.349,27.349,0,0,0-.09-4.14c-.13-1.38-.33-2.77-.57-4.16-.46-2.77-1.11-5.53-1.73-8.29L87,186.14c-.16-.69-.31-1.39-.46-2.08C86.21,182.68,85.93,181.28,85.69,179.89Z" fill="#12263f"/>
  <g id="Grupo_83621" data-name="Grupo 83621">
    <path id="Trazado_137412" data-name="Trazado 137412" d="M58.18,249.26h77.43v-3.6H61c-.53,0-2.35,2.41-2.35,2.41a.73.73,0,0,0,.62,1.19Z" fill="#12263f"/>
    <path id="Trazado_137413" data-name="Trazado 137413" d="M100.6,249.26H147a5.56,5.56,0,0,0,5.34-4l13.92-49.47a2.58,2.58,0,0,0-2.49-3.27H116.71a5.59,5.59,0,0,0-5.39,4.08L97.6,245.3a3.12,3.12,0,0,0,3,3.96Z" fill="#104c82"/>
    <path id="Trazado_137414" data-name="Trazado 137414" d="M100.62,249.26h46.62a5.48,5.48,0,0,0,5.28-4l13.83-49.16a1.81,1.81,0,0,0-1.75-2.31H118a5.49,5.49,0,0,0-5.29,4L98.86,246.94a1.83,1.83,0,0,0,1.76,2.32Z" fill="#12263f"/>
  </g>
  <rect id="Rectángulo_36086" data-name="Rectángulo 36086" width="257.03" height="7.87" rx="3.93" transform="translate(16.49 249.12)" fill="#12263f"/>
  <path id="Trazado_137415" data-name="Trazado 137415" d="M41.94,143.08c-.41,0-.58,10.51.4,17.56,1.61,11.64,4.33,13.1,6.78,14.85,3,2.15,6.32,1.72,8.69,1.15s5.06-2.3,5.24-5.36a46.92,46.92,0,0,0-1.25-10.7c-.55-2.2-5.24-8.88-8.31-11.79C52,147.35,46.09,142.61,41.94,143.08Z" fill="#ec7d40"/>
  <path id="Trazado_137416" data-name="Trazado 137416" d="M70.77,123.25c2.92,5.61,2.6,15.32,2.15,17.4s-.73,1.79-.42,3-.11,4.49-1.76,8.5-5.3,9.25-7,10.28a8.6,8.6,0,0,1-6.12,1.22c-2.48-.4-8.05-3.78-11.24-9-2.49-4.1-4.34-7.47-4.37-10.12s-2.05-11.18.61-16,4.68-8.74,11.65-10.58C56.08,117.39,65.41,113,70.77,123.25Z" fill="#f79556"/>
  <path id="Trazado_137417" data-name="Trazado 137417" d="M56.14,155.3a.26.26,0,0,1,.2-.4,33.2,33.2,0,0,1,5.19,0,20.721,20.721,0,0,1,3.7.66.26.26,0,0,1,.16.38,4.69,4.69,0,0,1-4.61,2.54,6.46,6.46,0,0,1-4.64-3.18Z" fill="#d65b5b"/>
  <path id="Trazado_137418" data-name="Trazado 137418" d="M67.54,137.83a3.23,3.23,0,0,1,.86-1.07,4.28,4.28,0,0,1,1.15-.72,4.75,4.75,0,0,1,2.72-.15,2.581,2.581,0,0,1,.67.14l.32.1.34.12a4.18,4.18,0,0,1,1.14.81,11.49,11.49,0,0,1,1.45,2.08l-.11.11c-.34-.28-.61-.58-.91-.86a6.829,6.829,0,0,0-.93-.72,3.1,3.1,0,0,0-1-.44h-.53a3.37,3.37,0,0,0-.55,0,3.31,3.31,0,0,0-.55,0,2.1,2.1,0,0,0-.54.12c-.35.09-.7.18-1.06.24l-1.13.2c-.39.08-.79.15-1.25.21Z" fill="#12263f"/>
  <path id="Trazado_137419" data-name="Trazado 137419" d="M50.42,134.65a9.64,9.64,0,0,1,2.88-1.3,8.33,8.33,0,0,1,3.27-.18,6.135,6.135,0,0,1,.84.14l.84.2a4.36,4.36,0,0,1,1.5.84,4.59,4.59,0,0,1,1.63,2.93l-.17.11c-1-.5-1.82-1-2.62-1.38-.4-.21-.77-.42-1.15-.66l-.59-.34c-.21-.09-.41-.19-.63-.26a7,7,0,0,0-1.35-.31,7.578,7.578,0,0,0-1.43-.08,10,10,0,0,0-2.93.48Z" fill="#12263f"/>
  <path id="Trazado_137420" data-name="Trazado 137420" d="M53.84,140c0,.27.82,1.07,3.23,1,1.07,0,2.14-.29,2.13-.83a2.05,2.05,0,0,0-1.63-1.58C56,138.35,53.83,139.45,53.84,140Z" fill="#e6e6e6"/>
  <path id="Trazado_137421" data-name="Trazado 137421" d="M56,139.25a1.38,1.38,0,0,1,2.54,1.06A1.4,1.4,0,1,1,56,139.25Z" fill="#12263f"/>
  <path id="Trazado_137422" data-name="Trazado 137422" d="M68,142c0,.26.68,1,2.67,1,.88,0,1.3-.45,1.3-1s-.13-1.23-.89-1.37C69.78,140.44,68,141.5,68,142Z" fill="#e6e6e6"/>
  <path id="Trazado_137423" data-name="Trazado 137423" d="M69.56,141.54a1.18,1.18,0,1,1,.025,1.292A1.17,1.17,0,0,1,69.56,141.54Z" fill="#12263f"/>
  <path id="Trazado_137424" data-name="Trazado 137424" d="M59.1,140.65a2.16,2.16,0,0,0-.25-1,1,1,0,0,0-.64-.47,2,2,0,0,0-.43-.06h-.47a6.1,6.1,0,0,0-1,.13c-.66.11-1.34.24-2,.37s-1.37.25-2.09.32a6.712,6.712,0,0,1,.92-.57,8.533,8.533,0,0,1,1-.45,9.71,9.71,0,0,1,2.08-.58,6.63,6.63,0,0,1,1.1-.08h.58a2.321,2.321,0,0,1,.6.19,1.42,1.42,0,0,1,.51.4,1.21,1.21,0,0,1,.28.58,1.62,1.62,0,0,1,0,.58,1.83,1.83,0,0,1-.19.64Z" fill="#12263f"/>
  <path id="Trazado_137425" data-name="Trazado 137425" d="M72.36,142.52a1.79,1.79,0,0,0-.24-.8.83.83,0,0,0-.53-.36,2,2,0,0,0-.35,0,1.2,1.2,0,0,0-.19,0h-.2l-.82.12-1.71.29a14.359,14.359,0,0,1-1.79.22,4.889,4.889,0,0,1,.77-.51,6.209,6.209,0,0,1,.82-.4,7.57,7.57,0,0,1,1.76-.51,5,5,0,0,1,1-.07h.5a2,2,0,0,1,.52.17,1.43,1.43,0,0,1,.45.36,1.12,1.12,0,0,1,.23.51,1.25,1.25,0,0,1,0,.51,1.3,1.3,0,0,1-.22.47Z" fill="#12263f"/>
  <path id="Trazado_137426" data-name="Trazado 137426" d="M55.78,154.7c.15.14.3.26.46.39l.49.33a8.361,8.361,0,0,0,1.06.58,10.792,10.792,0,0,0,1.12.43q.59.18,1.17.3l.3.05.3.05h2.13l.29-.06a3.921,3.921,0,0,0,.59-.15,1.4,1.4,0,0,0,.29-.09l.28-.11a2.361,2.361,0,0,0,.28-.12l.27-.14v-.08H61.32a7.331,7.331,0,0,1-1.15,0A10.63,10.63,0,0,1,59,156a10.059,10.059,0,0,1-2.19-.73c-.18-.09-.35-.17-.52-.27a5.094,5.094,0,0,1-.5-.3Z" fill="#a33636"/>
  <path id="Trazado_137427" data-name="Trazado 137427" d="M53.4,115.6a2.279,2.279,0,0,1,.37.16c1.17.6,2.23,2.81,2.49,5.55a12,12,0,0,1-.15,3.6c-1.07,6-8.45,6.08-10.8,11.81-2,4.84-3.71,2.16-4.24.19-2.28-8.52-3-15.17,9.07-21a5.66,5.66,0,0,1,3.26-.31Z" fill="#12263f"/>
  <path id="Trazado_137428" data-name="Trazado 137428" d="M55.06,115.58c1.22-.51,8.82-3.1,16.49,5.19,4.28,4.63,3.67,11.2,3.48,13.68a4.07,4.07,0,0,1-1.68,3.17c-.41,0,2.46-7.1-12.12-11.45a10.52,10.52,0,0,1-5.91-4.38c-1.14-1.17-2.72-3.52-1.89-5a2.94,2.94,0,0,1,1.63-1.21Z" fill="#12263f"/>
  <path id="Trazado_137429" data-name="Trazado 137429" d="M43.05,138.83a2.27,2.27,0,0,0-3.41-1c-1.78,1.14-1.68,3-1.25,5.67s2.24,5.8,3.76,6.24,1.53-.59,1.83-1.92S44.12,140.81,43.05,138.83Z" fill="#f79556"/>
  <g id="Grupo_83622" data-name="Grupo 83622">
    <path id="Trazado_137430" data-name="Trazado 137430" d="M47.74,183.38s2.63-11.75,3.27-13.51.78-2.2,1.17-2.57c2.43-2.29,8.71-4.53,9.88-4a5.53,5.53,0,0,1,2.57,3.42c.18,1.17-.11,1.87.12,2a2,2,0,0,1,1,1.17c.15.63-.29,1.81.18,2s1,.17,1.46.58a4.1,4.1,0,0,1,.64,1.7c.06.23.92.41,1.32,1a3.225,3.225,0,0,1-.21,2.69c-.41,1-1,2.86-2.86,3.68s-3.22.76-3.51,1.23-6.75,9.51-11,9.29C49.67,192.1,46.45,190.1,47.74,183.38Z" fill="#f79556"/>
    <path id="Trazado_137431" data-name="Trazado 137431" d="M64.41,168.79c-.69-.1-1.38-.18-2.08-.24l-.51-.05H61.3l-1-.06c-.7,0-1.39,0-2.08-.05H57.7l-.51-.06h-.53a2.017,2.017,0,0,1-.52-.11V168a4.418,4.418,0,0,1,.52-.14,3.182,3.182,0,0,1,.52-.1l.53-.07h.53a7.529,7.529,0,0,1,1.06.05l1.05.15a6.163,6.163,0,0,1,1,.15l.52.1.52.11a20.315,20.315,0,0,1,2,.52Z" fill="#d66730"/>
    <path id="Trazado_137432" data-name="Trazado 137432" d="M65.67,172H63.05l-.65.05a4.7,4.7,0,0,1-.65,0,5.128,5.128,0,0,1-.65-.1,3.479,3.479,0,0,1-.66-.19v-.07a3.191,3.191,0,0,1,.65-.24,5,5,0,0,1,.66-.11,2.909,2.909,0,0,1,.66,0l.66.09.66.08.65.11c.44.08.87.17,1.29.28Z" fill="#d66730"/>
    <path id="Trazado_137433" data-name="Trazado 137433" d="M67.89,174.56H64.86a2.911,2.911,0,0,1-.59,0,3.131,3.131,0,0,1-.6-.1,3.569,3.569,0,0,1-.61-.19v-.08a2.38,2.38,0,0,1,.61-.23,3.12,3.12,0,0,1,.61-.11,2.08,2.08,0,0,1,.61,0l.61.09.61.08.6.11c.4.08.8.17,1.19.27Z" fill="#d66730"/>
    <path id="Trazado_137434" data-name="Trazado 137434" d="M62.91,182.56a.31.31,0,0,1,0-.07v-.18l.1-.22.21-.45.45-.88c.16-.29.32-.58.49-.87s.35-.56.54-.84a7.78,7.78,0,0,1,.62-.83,1.75,1.75,0,0,1,.48-.38h.21l.26-.06a5.66,5.66,0,0,1,1-.09,4.43,4.43,0,0,1,1,.11v.08c-.31.14-.62.25-.93.36l-.9.31-.22.07h-.31l-.16.12a5.06,5.06,0,0,0-.66.65c-.21.25-.41.5-.61.76s-.39.51-.58.78-.39.53-.57.79l-.28.41-.14.2-.07.1v.06h0Z" fill="#d66730"/>
    <path id="Trazado_137435" data-name="Trazado 137435" d="M53,182.11c-1.55-.37-2.75-.36-3.7,1.31,0,0-4.77,8.7-8.35,15.38a57.51,57.51,0,0,1-10.72,14.49.32.32,0,0,1,0,.14,18.66,18.66,0,0,0,1.41,16.77c1.85,2.89,4.34,4.54,6.84,4.54h0a6.86,6.86,0,0,0,3.88-1.3.24.24,0,0,1,.1-.05,86.63,86.63,0,0,0,5.81-13.24c3.7-10.5,8-24.92,8.71-30.05S55.1,182.61,53,182.11Z" fill="#f79556"/>
  </g>
  <rect id="Rectángulo_36087" data-name="Rectángulo 36087" width="300" height="300" fill="none"/>
  <g id="Grupo_83624" data-name="Grupo 83624">
    <g id="Grupo_83623" data-name="Grupo 83623">
      <rect id="Rectángulo_36088" data-name="Rectángulo 36088" width="174.07" height="114.88" transform="translate(95.13 70.65)" fill="#e5e2d6"/>
      <rect id="Rectángulo_36089" data-name="Rectángulo 36089" width="87.03" height="57.44" transform="translate(182.17 70.65)" fill="#e5e2d6"/>
    </g>
    <rect id="Rectángulo_36090" data-name="Rectángulo 36090" width="87.03" height="57.44" transform="translate(95.13 128.09)" fill="#e5e2d6"/>
  </g>
  <path id="Trazado_137436" data-name="Trazado 137436" d="M266.18,61.93H98.43a3.15,3.15,0,0,0-3.16,3.15v5.1H269.34v-5.1a3.16,3.16,0,0,0-3.16-3.15Z" fill="#12263f"/>
  <g id="Grupo_83627" data-name="Grupo 83627">
    <g id="Grupo_83625" data-name="Grupo 83625">
      <path id="Trazado_137437" data-name="Trazado 137437" d="M256.33,230.6V216.35h0A14.08,14.08,0,1,0,270.4,230.6Z" fill="#35afea"/>
      <path id="Trazado_137438" data-name="Trazado 137438" d="M265.09,217.72a13.93,13.93,0,0,0-7.78-2.37V229.6h.14Z" fill="#104c82"/>
      <path id="Trazado_137439" data-name="Trazado 137439" d="M265.11,217.72l-4.9,7.58-2.76,4.3h13.9v-.18a14.1,14.1,0,0,0-6.24-11.7Z" fill="#ffa726"/>
    </g>
    <g id="Grupo_83626" data-name="Grupo 83626">
      <path id="Trazado_137440" data-name="Trazado 137440" d="M261.76,207.52H243a.815.815,0,1,1,0-1.63h18.72a.81.81,0,0,1,.81.81.82.82,0,0,1-.77.82Z" fill="#e5e2d6"/>
      <path id="Trazado_137441" data-name="Trazado 137441" d="M256.46,211.42H243a.815.815,0,1,1,0-1.63h13.42a.81.81,0,0,1,.81.81.82.82,0,0,1-.77.82Z" fill="#e5e2d6"/>
    </g>
  </g>
  <g id="Grupo_83628" data-name="Grupo 83628">
    <circle id="Elipse_6712" data-name="Elipse 6712" cx="24.41" cy="24.41" r="24.41" transform="translate(29.07 49.5)" fill="#2daea0"/>
    <circle id="Elipse_6713" data-name="Elipse 6713" cx="21.38" cy="21.38" r="21.38" transform="matrix(0.059, -0.998, 0.998, 0.059, 30.871, 93.982)" fill="#fff"/>
    <circle id="Elipse_6714" data-name="Elipse 6714" cx="20.15" cy="20.15" r="20.15" transform="translate(29.438 89.208) rotate(-77.45)" fill="#e5e2d6"/>
    <path id="Trazado_137442" data-name="Trazado 137442" d="M42.77,82.6a.91.91,0,0,1-.73-.37.9.9,0,0,1,.2-1.25l10.35-7.53V57.35a.9.9,0,0,1,1.79,0V73.91a.9.9,0,0,1-.37.72L43.3,82.43a.88.88,0,0,1-.53.17Z" fill="#104c82"/>
  </g>
  <rect id="Rectángulo_36091" data-name="Rectángulo 36091" width="0.88" height="123.52" transform="translate(181.72 62.01)" fill="#12263f"/>
  <g id="Grupo_83631" data-name="Grupo 83631">
    <path id="Trazado_137443" data-name="Trazado 137443" d="M199.06,128h11.23c.14-.27.27-.55.4-.85a39.893,39.893,0,0,0,1.56-5.49c.28,2,.55,4.15.77,6.34h52.19c.11-.49.22-1,.34-1.59,1.06-5.12-1.86-9.63-3-14.14s-3.67-14.49-5.17-18.2a7.38,7.38,0,0,0-5.37-4.2c-6-2.15-11.71-6.21-17.89-6.79s-8.64,1.31-12.8,1.56c-3.74.22-6.44.11-7.48.59-1.29.3-3.68,1.55-5.69,5.91-2.56,5.53-8.44,24.47-9.18,28.85a21.66,21.66,0,0,0-.36,4,8.07,8.07,0,0,0,0,2.43,9.221,9.221,0,0,0,.45,1.58Z" fill="#2daea0"/>
    <g id="Grupo_83629" data-name="Grupo 83629">
      <path id="Trazado_137444" data-name="Trazado 137444" d="M210.73,119.68l13.21-.06.06-13.21-13.21.06Z" fill="none"/>
      <path id="Trazado_137445" data-name="Trazado 137445" d="M224.66,120.12l.04,7.92h13.2l-.04-7.86Z" fill="none"/>
      <path id="Trazado_137446" data-name="Trazado 137446" d="M238.44,120.19l-.04,7.85h13.2l.04-7.79Z" fill="none"/>
      <path id="Trazado_137447" data-name="Trazado 137447" d="M199,120h0a22.581,22.581,0,0,0-.36,4,8.41,8.41,0,0,0,0,2.43,9.22,9.22,0,0,0,.45,1.62H210.2v-8Z" fill="none"/>
      <path id="Trazado_137448" data-name="Trazado 137448" d="M210.73,120.06v7.1a38.923,38.923,0,0,0,1.55-5.46c.28,2,.55,4.15.77,6.34H223.9v-7.92Z" fill="none"/>
      <path id="Trazado_137449" data-name="Trazado 137449" d="M237.74,92.48l-13.21-.06.06,13.2,13.21.06Z" fill="none"/>
      <rect id="Rectángulo_36092" data-name="Rectángulo 36092" width="13.2" height="13.2" transform="translate(238.513 105.698) rotate(-89.73)" fill="none"/>
      <rect id="Rectángulo_36093" data-name="Rectángulo 36093" width="13.2" height="13.2" transform="translate(224.609 106.401) rotate(-0.27)" fill="none"/>
      <path id="Trazado_137450" data-name="Trazado 137450" d="M265.21,120.31l-12.84-.06v7.79h12.81c.11-.49.22-1,.34-1.59a.52.52,0,0,1,.05-.27v-4.21A15.834,15.834,0,0,0,265.21,120.31Z" fill="none"/>
      <path id="Trazado_137451" data-name="Trazado 137451" d="M238.44,119.55l13.2-.06.06-13.21-13.2.07Z" fill="none"/>
      <rect id="Rectángulo_36094" data-name="Rectángulo 36094" width="13.2" height="13.2" transform="translate(210.812 105.557) rotate(-89.73)" fill="none"/>
      <path id="Trazado_137452" data-name="Trazado 137452" d="M224.07,91.91V84.27a18,18,0,0,1-2.79.41c-3.74.22-6.44.11-7.48.59a6.44,6.44,0,0,0-3,1.78v4.92Z" fill="none"/>
      <path id="Trazado_137453" data-name="Trazado 137453" d="M251.77,91.78v-2c-4.44-1.63-8.73-4.27-13.18-5.72v7.73Z" fill="none"/>
      <path id="Trazado_137454" data-name="Trazado 137454" d="M252.36,119.49l12.6-.06c-.75-2.43-1.82-4.78-2.42-7.12-.39-1.54-.94-3.72-1.56-6.07H252.3Z" fill="none"/>
      <path id="Trazado_137455" data-name="Trazado 137455" d="M252.3,105.75h8.56c-1.16-4.42-2.53-9.32-3.49-11.68a6.22,6.22,0,0,0-.89-1.54h-4.24Z" fill="none"/>
      <path id="Trazado_137456" data-name="Trazado 137456" d="M237.73,91.85v-8a20.36,20.36,0,0,0-3.59-.71c-4.46-.41-7,.46-9.62,1.06v7.73Z" fill="none"/>
      <path id="Trazado_137457" data-name="Trazado 137457" d="M210.1,106.48h-7.38c-1.74,5.56-3.26,10.91-3.7,13.22h11.14Z" fill="none"/>
      <path id="Trazado_137458" data-name="Trazado 137458" d="M210,92.35h-2.4c-1.24,3-3,8.11-4.6,13.18h7.06Z" fill="none"/>
      <path id="Trazado_137459" data-name="Trazado 137459" d="M255.73,91.77A8.05,8.05,0,0,0,252.22,90v1.82Z" fill="none"/>
      <path id="Trazado_137460" data-name="Trazado 137460" d="M210,88a15.751,15.751,0,0,0-1.87,3.14c-.12.24-.23.51-.36.81H210Z" fill="none"/>
      <path id="Trazado_137461" data-name="Trazado 137461" d="M265.58,122v4.21A12.139,12.139,0,0,0,265.58,122Z" fill="#d6d0a9"/>
      <path id="Trazado_137462" data-name="Trazado 137462" d="M265.21,120.31c-.08-.3-.16-.59-.25-.88l-12.6.06-.06-13.21h8.68l-.12-.45H252.3l-.06-13.2h4.24a5.211,5.211,0,0,0-.75-.8h-3.5V90h-.22l-.22-.08v2l-13.2.06V84.25c-.3-.1-.6-.2-.9-.28v8l-13.2.06V84.3l-.39.09v7.64L210.86,92V87.08a12.77,12.77,0,0,0-.87,1L210,92h-2.25l-.15.35H210l.06,13.2H203c-.1.33-.21.66-.31,1h7.38l.06,13.2H198.99a.485.485,0,0,1-.05.27h11.19v8h.09c.14-.27.27-.55.4-.85h0v-7.1l13.21.06v7.92h.8v-7.92l13.2.06v7.86h.5V120.2l13.2.06v7.79h.8v-7.79Zm-41.27-.69-13.21.06.06-13.21,13.21-.06Zm.06-14-13.2-.06.06-13.21,13.2.06Zm.53-13.2,13.21.06.06,13.2-13.21-.06Zm.13,27.19-.06-13.2,13.2-.06.06,13.2Zm27-.12-13.2.06.06-13.2,13.2-.07Zm.07-13.74-13.21-.06.06-13.21,13.21.06Z" fill="#e5e2d6"/>
    </g>
    <path id="Trazado_137463" data-name="Trazado 137463" d="M225.83,109.65s2-.64,2.5-.07.5,1-.55,2.23-1.7,1.28-1.7,1.28Z" fill="#ec7d40"/>
    <path id="Trazado_137464" data-name="Trazado 137464" d="M218.57,119.84a7.349,7.349,0,0,1,.26,1.52c0,.59.4,1.25-1.23,1.49s-3.28-3.94-3.3-4.13-1.63-3.31-.19-4.19S218.24,118.51,218.57,119.84Z" fill="#ec7d40"/>
    <g id="Grupo_83630" data-name="Grupo 83630">
      <path id="Trazado_137465" data-name="Trazado 137465" d="M227.47,120.53l-8.31,2.1a.41.41,0,0,1-.49-.26l-5.1-14.65,11.72-3,2.49,15.3a.42.42,0,0,1-.31.51Z" fill="#36dac9"/>
      <path id="Trazado_137466" data-name="Trazado 137466" d="M226.11,105,213,108.33l-.13-1.4a.19.19,0,0,1,.14-.19l12.37-3.13a.19.19,0,0,1,.21.11Z" fill="#fff"/>
      <path id="Trazado_137467" data-name="Trazado 137467" d="M224.77,103.85l-11.17,2.82-.13-1.37a.23.23,0,0,1,.16-.23L224,102.46a.21.21,0,0,1,.25.12Z" fill="#fff"/>
    </g>
    <path id="Trazado_137468" data-name="Trazado 137468" d="M213.64,115.65s-.79-1.57,1.59-2.06,4.77-1.34,5.79-1.43a1.535,1.535,0,0,1,1.68.84,1.12,1.12,0,0,1-.65,1.35c-.41.21.57,0,.95.51s.35,1.11-.57,1.71,0,.29.43.78.41,1.25-.43,1.84c0,0-3.38,1.24-4.22,1.45a2.31,2.31,0,0,1-1.65.06,1.45,1.45,0,0,1-1-1.3c-.15-.77-.71-.71-1.11-1.33a2.55,2.55,0,0,1-.35-1.61C214.12,116.22,213.91,116.35,213.64,115.65Z" fill="#f79556"/>
    <path id="Trazado_137469" data-name="Trazado 137469" d="M215.3,112.46l1,2.91a1.12,1.12,0,0,1-1.43,0,9.22,9.22,0,0,1-2.15-2.81,1.65,1.65,0,0,1,.58-1.78,16.74,16.74,0,0,1,3.9-1.78c.72-.12,1,0,1.19.2a.9.9,0,0,1,.18.25c.1.25.21.81-.54,1.34a28.5,28.5,0,0,1-2.73,1.67Z" fill="#f79556"/>
    <path id="Trazado_137470" data-name="Trazado 137470" d="M221.49,114.55a6.311,6.311,0,0,1-1.33.81,10.628,10.628,0,0,1-1.46.54,12.619,12.619,0,0,1-1.51.31,7.289,7.289,0,0,1-1.55.06,14,14,0,0,1,1.44-.54c.49-.15,1-.3,1.45-.43C219.5,115,220.47,114.76,221.49,114.55Z" fill="#ec7d40"/>
    <path id="Trazado_137471" data-name="Trazado 137471" d="M221.67,117a5.059,5.059,0,0,1-1.15.7,8.139,8.139,0,0,1-1.26.43,9.68,9.68,0,0,1-1.31.22,6,6,0,0,1-1.34,0,9.91,9.91,0,0,1,1.25-.46c.41-.13.83-.24,1.25-.35l1.26-.29Z" fill="#ec7d40"/>
    <path id="Trazado_137472" data-name="Trazado 137472" d="M241.24,66.5c-4.25,2.94-.67,10.92,5.27,7.76S248.06,61.77,241.24,66.5Z" fill="#96442a"/>
    <path id="Trazado_137473" data-name="Trazado 137473" d="M241.29,62.32c-1.1,7-1.38,8.44-1.55,13.14-.25,6.57.11,8.19-.16,10.55s-3.1,4-6.77,3.68c-2.55-.25-4.85-1.64-4.9-3.83a69.91,69.91,0,0,0-1.31-11.94c-.95-4.66-1.28-7.71.16-10C229.49,59.64,241.78,59.26,241.29,62.32Z" fill="#ec7d40"/>
    <path id="Trazado_137474" data-name="Trazado 137474" d="M233.05,51c.43.11.63.43,1.23.57,1,.24,1.64-.28,4.05,1.17,3.93,2.36,7.92,8.24,5.91,13.71A14.84,14.84,0,0,1,241,72c-6.11,6.09-11.81,6.19-16.13,3.15-3.6-2.53-7-9.27-4.9-15.93C222.49,51.17,229.82,50.16,233.05,51Z" fill="#96442a"/>
    <path id="Trazado_137475" data-name="Trazado 137475" d="M223.05,57.72c-1.91,3.23-2,9-1.83,10.24s.38,1.09.15,1.77a10.59,10.59,0,0,0,.77,5.1c.85,2.42,2.85,5.65,3.83,6.32a5.17,5.17,0,0,0,3.59.91c1.48-.15,4.9-2,6.95-5,1.61-2.35,2.81-4.29,2.91-5.86s1.58-6.55.16-9.53-2.49-5.32-6.57-6.64C232,54.72,226.56,51.8,223.05,57.72Z" fill="#f79556"/>
    <path id="Trazado_137476" data-name="Trazado 137476" d="M224.47,66.57a1.82,1.82,0,0,0-.44-.68,2.59,2.59,0,0,0-.64-.49,2.84,2.84,0,0,0-1.6-.24,2.73,2.73,0,0,0-.4,0h-.2l-.21.06a2.36,2.36,0,0,0-.71.41c-.41.34,0,.49.26.39a1.58,1.58,0,0,1,.6-.2h.65a3,3,0,0,1,.32.06l.31.1c.21.07.41.15.62.2l.65.19.73.19Z" fill="#96442a"/>
    <path id="Trazado_137477" data-name="Trazado 137477" d="M234.74,65.46a5.46,5.46,0,0,0-1.66-.86,4.84,4.84,0,0,0-1.94-.21h-.5l-.5.1a2.45,2.45,0,0,0-.92.44,2.75,2.75,0,0,0-1.06,1.69l.1.07c.62-.27,1.11-.52,1.6-.74a6.534,6.534,0,0,0,.7-.35l.36-.18.38-.14a4.41,4.41,0,0,1,.81-.13,4.83,4.83,0,0,1,.85,0,5.78,5.78,0,0,1,1.72.38Z" fill="#96442a"/>
    <path id="Trazado_137478" data-name="Trazado 137478" d="M232.54,68.51c0,.16-.51.61-1.94.51-.64,0-1.26-.24-1.24-.56a1.21,1.21,0,0,1,1-.89C231.34,67.48,232.57,68.2,232.54,68.51Z" fill="#e6e6e6"/>
    <path id="Trazado_137479" data-name="Trazado 137479" d="M231.32,67.92a.821.821,0,1,0-1.55.54.83.83,0,1,0,1.55-.54Z" fill="#12263f"/>
    <path id="Trazado_137480" data-name="Trazado 137480" d="M224.18,68.74c0,.16-.44.6-1.63.52-.53,0-.77-.32-.75-.63s.12-.73.58-.79C223.18,67.74,224.2,68.43,224.18,68.74Z" fill="#e6e6e6"/>
    <path id="Trazado_137481" data-name="Trazado 137481" d="M223.28,68.46a.69.69,0,0,0-1.3.46.7.7,0,1,0,1.3-.46Z" fill="#12263f"/>
    <path id="Trazado_137482" data-name="Trazado 137482" d="M229.41,68.64a1.34,1.34,0,0,1,.23-.54.53.53,0,0,1,.37-.2.88.88,0,0,1,.23,0h.27l.56.11,1.18.26a8.13,8.13,0,0,0,1.26.18,4.061,4.061,0,0,0-.51-.42,6.05,6.05,0,0,0-.55-.32,5,5,0,0,0-1.22-.43,3.61,3.61,0,0,0-.67-.09h-.36a1.73,1.73,0,0,0-.37.11.94.94,0,0,0-.34.25.74.74,0,0,0-.19.36,1.09,1.09,0,0,0,0,.36.81.81,0,0,0,.11.37Z" fill="#12263f"/>
    <path id="Trazado_137483" data-name="Trazado 137483" d="M221.57,69a1,1,0,0,1,.23-.45.36.36,0,0,1,.15-.1.41.41,0,0,1,.16,0h.4l.47.1c.32.08.65.17,1,.23a6,6,0,0,0,1.08.14,3.73,3.73,0,0,0-.41-.39,4.532,4.532,0,0,0-.46-.3,4,4,0,0,0-1-.41,3.4,3.4,0,0,0-.57-.08h-.31a1,1,0,0,0-.33.09,1.06,1.06,0,0,0-.31.21.74.74,0,0,0-.16.32.87.87,0,0,0,0,.32A1,1,0,0,0,221.57,69Z" fill="#12263f"/>
    <path id="Trazado_137484" data-name="Trazado 137484" d="M233.94,53.76l-.24.08c-.76.35-1.52,1.72-1.78,3.46a8.07,8.07,0,0,0,0,2.3c.47,3.85,5.17,4.16,6.47,7.9,1.1,3.15,2.29,1.5,2.7.26,1.75-5.34,2.4-9.56-5.06-13.71a3.57,3.57,0,0,0-2.09-.29Z" fill="#96442a"/>
    <path id="Trazado_137485" data-name="Trazado 137485" d="M230.69,77.19a.16.16,0,0,0-.1-.25,20.08,20.08,0,0,0-3.08-.18,12.409,12.409,0,0,0-2.21.27.16.16,0,0,0-.11.22,2.78,2.78,0,0,0,2.65,1.65,3.82,3.82,0,0,0,2.85-1.71Z" fill="#d65b5b"/>
    <path id="Trazado_137486" data-name="Trazado 137486" d="M238.72,67.89a1.38,1.38,0,0,1,2-.55c.88.47,1,1.79.69,3.36s-1.38,3.39-2.28,3.64-.9-.36-1.06-1.15A12.57,12.57,0,0,1,238.72,67.89Z" fill="#f79556"/>
    <path id="Trazado_137487" data-name="Trazado 137487" d="M232.44,62.93s-6.27,3-11.33.47c-1.65-.81,1.18-9.49,6.31-10.46,1.91-.36,6.31.54,5.59,2.12-.09.22-.82,1.65-.89,1.86a7.34,7.34,0,0,0,.32,6.01Z" fill="#96442a"/>
    <path id="Trazado_137488" data-name="Trazado 137488" d="M211.48,128l.13-.1c1.15-1,5.62-5.35,5.67-5.5l-3.41-5.4s-.33.61-2.37,1.83a7.84,7.84,0,0,1-4.39,1.4,10.319,10.319,0,0,0-.94,3.07,13.86,13.86,0,0,0,0,4.72Z" fill="#ec7d40"/>
  </g>
  <g id="Grupo_83633" data-name="Grupo 83633">
    <path id="Trazado_137489" data-name="Trazado 137489" d="M124.18,87.62a12.19,12.19,0,0,1-2-2,12.7,12.7,0,0,1-1.52-2.47,12.291,12.291,0,0,1-.9-2.79,14.919,14.919,0,0,1-.31-2.92,15.228,15.228,0,0,1,.28-2.93,17.24,17.24,0,0,1,.8-2.83l.27-.68.15-.34a2.6,2.6,0,0,1,.16-.34,9,9,0,0,1,.75-1.32,28,28,0,0,1,1.78-2.3c.61-.72,1.2-1.44,1.73-2.19l.4-.57.19-.29.18-.29.37-.59.17-.3.09-.15a1,1,0,0,0,.07-.15,16.52,16.52,0,0,0,1-2.55c.15-.45.31-.91.49-1.37.08-.22.19-.45.29-.67s.22-.45.33-.67a10.84,10.84,0,0,1,1.73-2.41,12.764,12.764,0,0,1,1.11-1l.29-.23.3-.21.62-.39a4.89,4.89,0,0,1,.63-.36l.64-.34a9.32,9.32,0,0,1,1.35-.55,5,5,0,0,1,1.44-.24c.49,0,.95.12,1.43.08a3.45,3.45,0,0,1-.72.08h-.7a4.67,4.67,0,0,0-1.32.39,10.432,10.432,0,0,0-1.23.66l-.59.38c-.19.13-.39.25-.57.4l-.55.43a1.779,1.779,0,0,0-.26.22l-.25.23a11.069,11.069,0,0,0-1,1,10.551,10.551,0,0,0-1.45,2.29,17.739,17.739,0,0,0-.92,2.6,16.3,16.3,0,0,1-1,2.78,1.42,1.42,0,0,1-.08.18l-.09.16-.18.31a6.5,6.5,0,0,1-.37.63l-.19.32-.2.3c-.13.21-.27.41-.41.61-.56.8-1.16,1.56-1.77,2.29s-1.22,1.44-1.73,2.18a10.211,10.211,0,0,0-.68,1.15c0,.1-.1.19-.14.3l-.14.31c-.1.21-.19.42-.27.64a17.249,17.249,0,0,0-.84,2.61,15.48,15.48,0,0,0-.37,2.72,14.93,14.93,0,0,0,.11,2.75,12.48,12.48,0,0,0,.65,2.68,12.92,12.92,0,0,0,1.22,2.51,12.61,12.61,0,0,0,.8,1.16,13.47,13.47,0,0,0,.93,1.09Z" fill="#12263f"/>
    <path id="Trazado_137490" data-name="Trazado 137490" d="M149.1,54.34A10.861,10.861,0,0,1,151,56a11.8,11.8,0,0,1,1.51,2.07,18.05,18.05,0,0,1,1.84,4.8c.2.83.37,1.66.52,2.49.08.41.14.84.21,1.26a1.735,1.735,0,0,0,.08.64l.07.64a26.071,26.071,0,0,1,0,5.15c-.09.85-.22,1.71-.39,2.55-.09.42-.19.84-.31,1.26l-.09.31-.09.31-.18.61a26,26,0,0,1-1.94,4.75,17.4,17.4,0,0,1-3,4.14A14,14,0,0,1,145,89.85a16.54,16.54,0,0,0,3.7-3.32,19.29,19.29,0,0,0,2.59-4.16c.35-.75.65-1.51.92-2.28s.52-1.57.74-2.36l.16-.61.09-.3.07-.29c.1-.4.19-.79.27-1.19.16-.8.28-1.62.36-2.43.05-.41.08-.82.11-1.22V68l-.05-.61a6,6,0,0,0-.06-.61,8.607,8.607,0,0,0-.15-1.23c-.11-.83-.23-1.65-.38-2.46A19.86,19.86,0,0,0,152,58.37a12.291,12.291,0,0,0-1.22-2.14l-.37-.5c-.13-.17-.27-.32-.4-.48l-.2-.24c-.07-.07-.15-.14-.22-.22Z" fill="#12263f"/>
    <path id="Trazado_137491" data-name="Trazado 137491" d="M138.39,51.26c.58-.12.78-.43,1.2-.53,3.15-.72,7.39,1.63,9.08,2.94,4,3.11,4.75,8.14,5.28,11.55a26.88,26.88,0,0,1-.57,11.1c-.89,3.11-2.7,9.52-8.83,12.86a17.78,17.78,0,0,1-11.82,1.53,14.17,14.17,0,0,1-7.26-3.14,12.94,12.94,0,0,1-4.09-6.69,15.69,15.69,0,0,1,1-9.78c1.13-2.75,3.34-4.21,5.43-8.32,1.43-2.8.82-7.1,6.67-10.5C136.78,50.92,137.41,51.46,138.39,51.26Z" fill="#12263f"/>
    <path id="Trazado_137492" data-name="Trazado 137492" d="M118.66,128h48.63c.63-4.23-.57-13.66-1.33-18.61-.74-4.78-4.25-15.43-5.44-18.12-1.42-3.21-5.21-4.37-5.21-4.37h0a37.14,37.14,0,0,0-5.09-1.46c-6.15-1.52-7.33-3.32-11.28-3.43-2.48-.07-3.59.25-7.79,1.48a108.661,108.661,0,0,1-14.26,3.27,3.34,3.34,0,0,0-2,1,8.14,8.14,0,0,0-2.39,5.09,69.319,69.319,0,0,0,.42,18.2C113.8,116.44,116.51,124.51,118.66,128Z" fill="#104c82"/>
    <path id="Trazado_137493" data-name="Trazado 137493" d="M114.77,87.82a8.21,8.21,0,0,0-2.39,5.08v.13l2.42,2.4,7.57-7.49-1.79-1.77c-1.31.26-2.57.48-3.74.64a3.32,3.32,0,0,0-2.07,1.01Z" fill="none"/>
    <path id="Trazado_137494" data-name="Trazado 137494" d="M122.56,103.56,115.06,96,112,99.11a79.727,79.727,0,0,0,.46,9.36l2.63,2.65Z" fill="none"/>
    <path id="Trazado_137495" data-name="Trazado 137495" d="M112.34,93.23a42,42,0,0,0-.35,5l2.66-2.64Z" fill="none"/>
    <path id="Trazado_137496" data-name="Trazado 137496" d="M122.56,103.56l-7.5,7.56-2.63-2.65a8.37,8.37,0,0,0,.16,1.25l2,1.93-1.4,1.35.09.39,1.51-1.5,7.57,7.5L117,124.74q.16.39.33.75l5.55-5.6,7.57,7.49-.65.66h.49l.41-.4.41.4h.74l-.77-.78,7.57-7.5,7.5,7.57-.72.71h.84l.29-.29.29.29h.88l-.74-.73,7.5-7.57,7.57,7.5-.8.8H162l.41-.4.41.4h.45l-.63-.63,4.7-4.65a4.851,4.851,0,0,0-.05-.85L162.26,127l-7.5-7.56,7.5-7.57,4.58,4.62-.12-1.08-4-4,3-3.05a2.7,2.7,0,0,0-.08-.39l-3.21,3.18-7.57-7.5,7.44-7.37c-.18-.54-.36-1.06-.53-1.56l-7-7.06.68-.68-.18-.06h-.1l-.58.57-1.13-1.14-1.3-.35,2,2-7.57,7.49L139,87.94l4.73-4.69L143,83l-4.48,4.51-4.74-4.7-.26.08,4.79,4.84-7.49,7.56-7.5-7.56L126,84.92l-.83.2L123,87.34,121.59,86l-1,.22,1.79,1.77-7.57,7.49L112.37,93a.75.75,0,0,0,0,.2l2.31,2.34L112,98.21v.9L115.06,96Zm.26,15.39-7.5-7.57,7.57-7.5,7.49,7.57Zm8,8-7.5-7.56,7.5-7.57,7.49,7.57Zm.28-15.42,7.5-7.57,7.57,7.5-7.5,7.56Zm15.47,15.32L139,119.4l7.57-7.5,7.57,7.5ZM162,111.6l-7.57,7.5-7.5-7.57,7.57-7.5Zm-7.69-23.47,7.57,7.5-7.5,7.56-7.56-7.49ZM154,103.56l-7.5,7.56-7.5-7.56,7.5-7.57ZM138.77,88.15l7.49,7.57-7.56,7.5-7.5-7.57Zm-.53,15.52-7.57,7.5-7.57-7.5,7.57-7.5ZM122.7,88.28l7.57,7.49-7.5,7.57-7.57-7.5Z" fill="#d6d0a9"/>
    <path id="Trazado_137497" data-name="Trazado 137497" d="M155.15,86.91a13.922,13.922,0,0,0-1.71-.57l1.13,1.14Z" fill="none"/>
    <path id="Trazado_137498" data-name="Trazado 137498" d="M130.8,95.24l7.49-7.56-4.79-4.84-2.42.7c-1.53.44-3.26.92-5.05,1.38l-2.73,2.76Z" fill="none"/>
    <path id="Trazado_137499" data-name="Trazado 137499" d="M143,83a11.25,11.25,0,0,0-4.1-.9,15.19,15.19,0,0,0-5.12.71l4.74,4.7Z" fill="none"/>
    <path id="Trazado_137500" data-name="Trazado 137500" d="M146.55,95.43l7.57-7.49-2-2-2-.51a37.82,37.82,0,0,1-6.44-2.23L139,87.94Z" fill="none"/>
    <path id="Trazado_137501" data-name="Trazado 137501" d="M161.77,94.74c-.53-1.51-1-2.74-1.3-3.43a9,9,0,0,0-5-4.31l-.68.68Z" fill="none"/>
    <path id="Trazado_137502" data-name="Trazado 137502" d="M125.2,85.12c-1.2.3-2.41.58-3.61.83L123,87.34Z" fill="none"/>
    <path id="Trazado_137503" data-name="Trazado 137503" d="M166.72,115.41c-.27-2.25-.57-4.36-.82-6-.05-.32-.11-.68-.18-1.05l-3,3.05Z" fill="none"/>
    <path id="Trazado_137504" data-name="Trazado 137504" d="M162.43,111.17l3.21-3.18A121.513,121.513,0,0,0,162.3,96.3l-7.44,7.37Z" fill="none"/>
    <path id="Trazado_137505" data-name="Trazado 137505" d="M154.76,119.44l7.5,7.56,5.05-5.09c-.1-1.75-.27-3.61-.47-5.42l-4.58-4.62Z" fill="none"/>
    <path id="Trazado_137506" data-name="Trazado 137506" d="M146.53,111.12l7.5-7.56-7.5-7.57-7.5,7.57Z" fill="none"/>
    <rect id="Rectángulo_36095" data-name="Rectángulo 36095" width="10.65" height="10.65" transform="matrix(0.71, -0.704, 0.704, 0.71, 115.313, 111.392)" fill="none"/>
    <path id="Trazado_137507" data-name="Trazado 137507" d="M130.67,111.17l7.57-7.5-7.57-7.5-7.57,7.5Z" fill="none"/>
    <rect id="Rectángulo_36096" data-name="Rectángulo 36096" width="10.65" height="10.65" transform="matrix(0.704, -0.71, 0.71, 0.704, 115.199, 95.836)" fill="none"/>
    <rect id="Rectángulo_36097" data-name="Rectángulo 36097" width="10.65" height="10.65" transform="matrix(0.704, -0.71, 0.71, 0.704, 146.809, 95.683)" fill="none"/>
    <rect id="Rectángulo_36098" data-name="Rectángulo 36098" width="10.65" height="10.65" transform="matrix(0.71, -0.704, 0.704, 0.71, 131.194, 95.662)" fill="none"/>
    <rect id="Rectángulo_36099" data-name="Rectángulo 36099" width="10.65" height="10.65" transform="matrix(0.704, -0.71, 0.71, 0.704, 131.08, 111.564)" fill="none"/>
    <path id="Trazado_137508" data-name="Trazado 137508" d="M130.79,111.87l-7.49,7.57,7.49,7.56,7.5-7.56Z" fill="none"/>
    <path id="Trazado_137509" data-name="Trazado 137509" d="M138.98,119.4l7.57,7.5,7.57-7.5-7.57-7.5Z" fill="none"/>
    <rect id="Rectángulo_36100" data-name="Rectángulo 36100" width="10.65" height="10.65" transform="matrix(0.71, -0.704, 0.704, 0.71, 146.932, 111.536)" fill="none"/>
    <path id="Trazado_137510" data-name="Trazado 137510" d="M112.59,109.72c.07.48.14.94.22,1.38.1.61.23,1.25.38,1.91l1.35-1.36Z" fill="none"/>
    <path id="Trazado_137511" data-name="Trazado 137511" d="M114.79,111.9l-1.51,1.5A72.339,72.339,0,0,0,117,124.74l5.39-5.34Z" fill="none"/>
    <path id="Trazado_137512" data-name="Trazado 137512" d="M130,123.6l-.06-.54-.07-.53c-.06-.35-.12-.7-.2-1s-.14-.7-.21-1-.16-.69-.25-1c-.33-1.38-.68-2.76-1-4.13q-1.11-4.12-2.3-8.23c-.78-2.73-1.58-5.47-2.4-8.19-.21-.68-.42-1.36-.64-2-.11-.33-.22-.67-.34-1l-.34-1c-.47-1.34-.95-2.68-1.54-4a27.469,27.469,0,0,1,2,3.81c.29.66.58,1.31.84,2s.52,1.34.76,2c1,2.69,1.82,5.42,2.61,8.17s1.51,5.51,2.11,8.31c.3,1.4.57,2.81.78,4.22.11.71.2,1.42.27,2.14a5.551,5.551,0,0,0,.07,1.07v.54C130,123.24,130,123.42,130,123.6Z" fill="#12263f"/>
    <path id="Trazado_137513" data-name="Trazado 137513" d="M119.72,127.91a10.249,10.249,0,0,1-.7-2.11c-.08-.36-.14-.73-.19-1.1v-1.13a11.35,11.35,0,0,1,.15-2.25,20.282,20.282,0,0,1,.51-2.18,1.876,1.876,0,0,1,.17-.54l.09-.26.1-.27a8.363,8.363,0,0,1,.44-1l.25-.5.28-.5c.2-.32.4-.64.62-.94a13.781,13.781,0,0,1,1.43-1.71,17.649,17.649,0,0,1,1.62-1.5c-.42.61-.85,1.2-1.26,1.79s-.8,1.21-1.16,1.83a17.719,17.719,0,0,0-.95,1.9c-.13.33-.27.66-.38,1l-.09.25-.09.25a2.461,2.461,0,0,1-.15.51l-.15.51-.14.52c-.05.18-.08.35-.13.53s-.08.35-.12.52a14.738,14.738,0,0,0-.29,2.1,18.541,18.541,0,0,0,.14,4.28Z" fill="#12263f"/>
    <path id="Trazado_137514" data-name="Trazado 137514" d="M132.27,69.46c-.25,0-.12,6.26.46,10.45,1,6.93,2.35,7.92,3.81,9a6,6,0,0,0,5.17.56,3.72,3.72,0,0,0,3.12-3.18,28.37,28.37,0,0,0-.52-6.37c-.32-1.31-3.34-5.29-5.17-7C138.23,72,134.74,69.18,132.27,69.46Z" fill="#ec7d40"/>
    <path id="Trazado_137515" data-name="Trazado 137515" d="M149.19,57.66c1.74,3.34,1.54,9.12,1.28,10.36s-.44,1.06-.25,1.76a10.45,10.45,0,0,1-1.05,5.06c-1,2.38-3.15,5.5-4.18,6.12a5.14,5.14,0,0,1-3.64.72c-1.47-.23-4.79-2.25-6.69-5.35-1.48-2.44-2.58-4.45-2.6-6s-1.22-6.65.37-9.55,2.78-5.19,6.93-6.29C140.45,54.17,146,51.54,149.19,57.66Z" fill="#f79556"/>
    <path id="Trazado_137516" data-name="Trazado 137516" d="M140.48,76.74a.16.16,0,0,1,.12-.24,20.88,20.88,0,0,1,3.09,0,12.471,12.471,0,0,1,2.2.39.16.16,0,0,1,.1.23,2.8,2.8,0,0,1-2.75,1.51,3.88,3.88,0,0,1-2.76-1.89Z" fill="#d65b5b"/>
    <path id="Trazado_137517" data-name="Trazado 137517" d="M147.27,66.34a1.88,1.88,0,0,1,.51-.64,2.32,2.32,0,0,1,.69-.42,2.77,2.77,0,0,1,1.61-.1.639.639,0,0,1,.4.09l.19.06.21.07a2.54,2.54,0,0,1,.67.48,6.58,6.58,0,0,1,.86,1.24l-.06.06c-.2-.16-.36-.34-.54-.5a3.66,3.66,0,0,0-.55-.44,1.78,1.78,0,0,0-.59-.25H150a1.83,1.83,0,0,0-.33,0,.5.5,0,0,0-.32.08,6.392,6.392,0,0,1-.63.13l-.67.13c-.23,0-.47.09-.74.12Z" fill="#12263f"/>
    <path id="Trazado_137518" data-name="Trazado 137518" d="M137.08,64.45a5.41,5.41,0,0,1,1.71-.77,4.73,4.73,0,0,1,2-.11,4.331,4.331,0,0,1,.5.08,2.273,2.273,0,0,1,.5.12,2.38,2.38,0,0,1,.89.5,2.73,2.73,0,0,1,1,1.74l-.1.07c-.61-.3-1.08-.58-1.56-.82l-.69-.4-.34-.2c-.13,0-.25-.11-.38-.15a3.68,3.68,0,0,0-.81-.19,5.829,5.829,0,0,0-.84,0,5.94,5.94,0,0,0-1.75.29Z" fill="#12263f"/>
    <path id="Trazado_137519" data-name="Trazado 137519" d="M139.11,67.62c0,.16.49.63,1.92.61.64,0,1.28-.17,1.27-.49a1.2,1.2,0,0,0-1-.94C140.38,66.65,139.11,67.3,139.11,67.62Z" fill="#e6e6e6"/>
    <path id="Trazado_137520" data-name="Trazado 137520" d="M140.37,67.19a.821.821,0,0,1,1.52.62.83.83,0,1,1-1.52-.62Z" fill="#12263f"/>
    <path id="Trazado_137521" data-name="Trazado 137521" d="M147.56,68.83c0,.16.4.61,1.59.6.52,0,.77-.27.77-.58s-.08-.73-.53-.81C148.6,67.89,147.56,68.52,147.56,68.83Z" fill="#e6e6e6"/>
    <path id="Trazado_137522" data-name="Trazado 137522" d="M148.47,68.55a.691.691,0,1,1,1.28.52.7.7,0,1,1-1.28-.52Z" fill="#12263f"/>
    <path id="Trazado_137523" data-name="Trazado 137523" d="M142.24,68a1.19,1.19,0,0,0-.15-.58.58.58,0,0,0-.38-.27,1,1,0,0,0-.25,0h-.28l-.58.08c-.4.06-.8.14-1.2.22a12.1,12.1,0,0,1-1.25.19,3.869,3.869,0,0,1,.55-.34,5.141,5.141,0,0,1,.58-.27,6.2,6.2,0,0,1,1.23-.34,4.65,4.65,0,0,1,.66-.05h.34a1.65,1.65,0,0,1,.36.11,1.179,1.179,0,0,1,.31.24.81.81,0,0,1,.16.34.83.83,0,0,1,0,.35A1.209,1.209,0,0,1,142.24,68Z" fill="#12263f"/>
    <path id="Trazado_137524" data-name="Trazado 137524" d="M150.14,69.13a1.18,1.18,0,0,0-.15-.48.5.5,0,0,0-.31-.21h-.44l-.49.07-1,.17a7.14,7.14,0,0,1-1.06.13,3.2,3.2,0,0,1,.45-.3c.16-.09.33-.17.49-.24a4.84,4.84,0,0,1,1-.3,2.69,2.69,0,0,1,.57,0h.29a1.12,1.12,0,0,1,.31.1.79.79,0,0,1,.27.21.75.75,0,0,1,.14.3.81.81,0,0,1,0,.31A.82.82,0,0,1,150.14,69.13Z" fill="#12263f"/>
    <path id="Trazado_137525" data-name="Trazado 137525" d="M140.27,76.38l.27.23.3.2a5.361,5.361,0,0,0,.62.34,5.46,5.46,0,0,0,1.37.43h1.8l.35-.09.17-.06.17-.06.16-.08.16-.08v-.05h-2.07a5.1,5.1,0,0,1-1.35-.13,3.569,3.569,0,0,1-.66-.18,5.119,5.119,0,0,1-.65-.25l-.3-.16-.3-.18Z" fill="#a33636"/>
    <path id="Trazado_137526" data-name="Trazado 137526" d="M138.85,53.11l.23.09c.69.36,1.32,1.68,1.48,3.31a7.61,7.61,0,0,1-.09,2.14c-.64,3.56-5,3.62-6.43,7-1.19,2.88-2.21,1.28-2.53.11-1.35-5.07-1.75-9,5.41-12.51a3.34,3.34,0,0,1,1.93-.14Z" fill="#12263f"/>
    <path id="Trazado_137527" data-name="Trazado 137527" d="M139.84,53.1c.73-.3,5.25-1.85,9.81,3.08,2.55,2.76,2.19,6.67,2.08,8.15a2.42,2.42,0,0,1-1,1.88c-.25,0,1.46-4.22-7.22-6.81A6.3,6.3,0,0,1,140,56.8c-.67-.7-1.61-2.1-1.12-3a1.82,1.82,0,0,1,.96-.7Z" fill="#12263f"/>
    <path id="Trazado_137528" data-name="Trazado 137528" d="M132.7,66.93a1.36,1.36,0,0,0-2-.59c-1.07.68-1,1.79-.75,3.38s1.33,3.45,2.24,3.71.91-.35,1.09-1.14A12.72,12.72,0,0,0,132.7,66.93Z" fill="#f79556"/>
    <g id="Grupo_83632" data-name="Grupo 83632">
      <path id="Trazado_137529" data-name="Trazado 137529" d="M135.83,93.44s1.57-7,1.95-8,.46-1.31.7-1.53c1.44-1.36,5.18-2.7,5.87-2.35a3.33,3.33,0,0,1,1.54,2c.1.7-.07,1.12.06,1.22a1.16,1.16,0,0,1,.63.7c.09.37-.17,1.08.11,1.22s.62.1.86.34a2.49,2.49,0,0,1,.39,1c0,.14.54.25.79.6a1.91,1.91,0,0,1-.13,1.59,3.67,3.67,0,0,1-1.71,2.2c-1.07.48-1.91.45-2.08.73s-4,5.66-6.58,5.53C137,98.63,135.07,97.45,135.83,93.44Z" fill="#f79556"/>
      <path id="Trazado_137530" data-name="Trazado 137530" d="M145.75,84.77c-.41-.07-.82-.11-1.23-.15h-2.47a3,3,0,0,1-.31,0h-.62l-.31-.07h0l.31-.08a1.8,1.8,0,0,1,.32-.06h.63a4.43,4.43,0,0,1,.63,0l.62.09a4.209,4.209,0,0,1,.62.09l.31.06.31.06c.41.09.81.19,1.21.32Z" fill="#d66730"/>
      <path id="Trazado_137531" data-name="Trazado 137531" d="M146.5,86.64h-1.94a2.541,2.541,0,0,1-.39,0,2.629,2.629,0,0,1-.39-.06,1.94,1.94,0,0,1-.39-.12h0a2,2,0,0,1,.39-.14,2.63,2.63,0,0,1,.39-.06,1.7,1.7,0,0,1,.39,0l.4.06h.39l.39.07a3.644,3.644,0,0,1,.77.16Z" fill="#d66730"/>
      <path id="Trazado_137532" data-name="Trazado 137532" d="M147.82,88.2h-1.44a2.191,2.191,0,0,0-.36,0,1.37,1.37,0,0,1-.35,0h-.36a1.69,1.69,0,0,1-.36-.12h0a1.17,1.17,0,0,1,.35-.14,2.41,2.41,0,0,1,.37-.07,1.45,1.45,0,0,1,.36,0h.37l.36.05.36.06c.24.05.47.1.71.17Z" fill="#d66730"/>
      <path id="Trazado_137533" data-name="Trazado 137533" d="M144.86,93h0v-.07l.06-.13.12-.27.27-.52c.09-.18.19-.35.29-.52s.2-.33.32-.5a3.938,3.938,0,0,1,.37-.49,1,1,0,0,1,.28-.23h.29a3,3,0,0,1,.6,0,2.58,2.58,0,0,1,.61.06h0l-.55.21-.54.19h-.2l-.1.07a3.659,3.659,0,0,0-.4.39q-.18.21-.36.45c-.11.15-.23.3-.34.46l-.34.48-.17.24-.08.12V93h-.13Z" fill="#d66730"/>
      <path id="Trazado_137534" data-name="Trazado 137534" d="M139,92.69c-.92-.22-1.63-.21-2.2.78,0,0-2.84,5.18-5,9.16a34.31,34.31,0,0,1-6.38,8.62.24.24,0,0,1,0,.08,11.13,11.13,0,0,0,.84,10,5.11,5.11,0,0,0,4.07,2.7h0a4.09,4.09,0,0,0,2.3-.77h.06a51.309,51.309,0,0,0,3.46-7.88c2.2-6.25,4.75-14.83,5.18-17.88S140.21,93,139,92.69Z" fill="#f79556"/>
    </g>
    <path id="Trazado_137535" data-name="Trazado 137535" d="M157.39,128c0-.69.06-1.38.1-2.07.11-1.67.32-3.33.59-5q.21-1.23.48-2.46c.1-.41.19-.81.3-1.22q.06-.3.15-.6c.05-.21.1-.41.16-.61.44-1.61,1-3.21,1.46-4.82.24-.81.49-1.62.69-2.46.1-.42.19-.84.26-1.27a11.391,11.391,0,0,0,.13-1.31c0-.44,0-.87,0-1.3a11.25,11.25,0,0,0-.12-1.29c-.1-.85-.26-1.69-.44-2.52-.73-3.32-1.83-6.51-2.72-9.76.14.83.31,1.66.49,2.48l.27,1.24.28,1.23c.37,1.65.75,3.29,1,4.94.14.82.26,1.65.34,2.47a17,17,0,0,1,0,2.47,9.871,9.871,0,0,1-.16,1.2c-.08.4-.16.8-.27,1.2-.22.8-.47,1.6-.72,2.4s-.52,1.6-.77,2.41-.49,1.63-.69,2.45c-.06.21-.11.41-.16.62l-.15.62c-.09.41-.18.83-.26,1.25-.17.83-.3,1.68-.41,2.52s-.19,1.69-.24,2.54-.07,1.7-.07,2.55a18.081,18.081,0,0,0,.08,2.08Z" fill="#12263f"/>
  </g>
  <g id="Grupo_83634" data-name="Grupo 83634">
    <path id="Trazado_137536" data-name="Trazado 137536" d="M178.79,44.1c-11.63,0-21,7.94-21,17.74a16,16,0,0,0,4.41,10.87c-.16.26-.24.41-.24.41l-1.89,6,6.37-3a23.58,23.58,0,0,0,12.4,3.41c11.63,0,21.06-7.94,21.06-17.74S190.42,44.1,178.79,44.1Z" fill="#71d9e7"/>
    <path id="Trazado_137537" data-name="Trazado 137537" d="M202.59,57.69c7.95,0,14.4,5.43,14.4,12.14a10.92,10.92,0,0,1-3,7.43l.16.28,1.29,4.12-4.35-2a16.17,16.17,0,0,1-8.5,2.34c-8,0-14.4-5.43-14.4-12.13S194.64,57.69,202.59,57.69Z" fill="#71d9e7"/>
    <path id="Trazado_137538" data-name="Trazado 137538" d="M189,73.75a9.61,9.61,0,0,1-.89-6.19,3.634,3.634,0,0,1,.17-.78v-.2l.06-.19.06-.19a1.59,1.59,0,0,1,.07-.2,7.812,7.812,0,0,1,.3-.75l.16-.37.19-.36A11.74,11.74,0,0,1,191,61.91l.13-.14.15-.14.29-.28.3-.27a3.88,3.88,0,0,1,.31-.26c.21-.16.42-.34.64-.49l.32-.23.34-.22a14.66,14.66,0,0,1,2.87-1.4,14.84,14.84,0,0,1,6.22-.79,23.38,23.38,0,0,0-3.05.51,19,19,0,0,0-2.9,1l-.17.08-.18.08-.34.16-.34.17-.33.18c-.44.25-.88.5-1.29.79l-.31.21-.3.23c-.21.14-.4.31-.59.46l-.28.25-.28.25-.27.26-.14.14-.12.13-.26.28c-.09.09-.16.18-.25.28l-.12.14-.06.07v.08l-.23.29a3.461,3.461,0,0,0-.22.31l-.22.3-.19.32-.1.16-.09.16-.19.33-.16.33c-.12.23-.21.46-.31.69a.869.869,0,0,0-.07.17l-.06.18-.07.17v.18c-.07.24-.15.48-.2.72a9.181,9.181,0,0,0-.27,1.48v1.52a9.9,9.9,0,0,0,.15,1.52A11.384,11.384,0,0,0,189,73.75Z" fill="#d6d0a9"/>
  </g>
  <rect id="Rectángulo_36101" data-name="Rectángulo 36101" width="0.88" height="173.99" transform="translate(269.02 127.65) rotate(90)" fill="#12263f"/>
  <g id="Grupo_83635" data-name="Grupo 83635">
    <circle id="Elipse_6715" data-name="Elipse 6715" cx="12.76" cy="12.76" r="12.76" transform="translate(164.232 127.814) rotate(-45)" fill="#12263f"/>
    <path id="Trazado_137539" data-name="Trazado 137539" d="M176.36,121.19a14,14,0,0,0,10.73,13.94.75.75,0,0,0,.89-.58c0-.12.24-2.69.24-2.69a.83.83,0,0,0-.5-.84l-2.39-1a.8.8,0,0,0-.91.19l-1.4,1.51a.29.29,0,0,1-.37.06,10.36,10.36,0,0,1-2.62-2.32,9.83,9.83,0,0,1-1.56-3.06.29.29,0,0,1,.14-.35l1.75-1a.8.8,0,0,0,.4-.84l-.4-2.55a.83.83,0,0,0-.7-.69s-2.31-.5-2.51-.51a.75.75,0,0,0-.79.73Z" fill="#fff"/>
  </g>
  <path id="Trazado_137540" data-name="Trazado 137540" d="M214.35,116.11c7.64,0,13.84,5.22,13.84,11.66a10.51,10.51,0,0,1-2.9,7.15l.16.27,1.24,4-4.19-2a15.6,15.6,0,0,1-8.15,2.24c-7.64,0-13.84-5.23-13.84-11.67S206.71,116.11,214.35,116.11Z" fill="#71d9e7"/>
  <path id="Trazado_137541" data-name="Trazado 137541" d="M152,116.16c-7.64,0-13.84,5.22-13.84,11.66a10.48,10.48,0,0,0,2.9,7.14l-.16.27-1.24,4,4.19-1.95a15.51,15.51,0,0,0,8.15,2.24c7.64,0,13.84-5.22,13.84-11.66S159.65,116.16,152,116.16Z" fill="#71d9e7"/>
  <g id="Grupo_83638" data-name="Grupo 83638">
    <path id="Trazado_137542" data-name="Trazado 137542" d="M226.41,185.47v-.19c.65-3.51,6.64-17.33,5.55-24.07s-6.44-18.4-6.44-18.4a7.37,7.37,0,0,0-3.17,2.75c-1.09,1.88-6.53,17.44-6.73,30.11-.06,3.91,0,7.18.2,9.8Z" fill="#ec7d40"/>
    <path id="Trazado_137543" data-name="Trazado 137543" d="M227,162.58c.2,2.95.44,5.91.51,8.82-.08,4.38-.1,8.85-.1,13.13v.94h42.72c.53-9.19,1-17.27,1.42-24,.27-1.14.55-2.26.83-3.32a17.36,17.36,0,0,1,5-8.47c0-.14-2.19-5.33-4.39-6.56a12.74,12.74,0,0,0-6.05-1.86,59.458,59.458,0,0,0-9.81-2.92l-1.45-.23a15.56,15.56,0,0,0-4.73-1.4c-3.5-.4-8.11,1.5-12.42,2.7s-5.71,1.8-8.72,2.11a11.9,11.9,0,0,0-5.81,2.12c-.29.23.45,2,1.31,6.07A94,94,0,0,1,227,162.58Z" fill="#512618"/>
    <path id="Trazado_137544" data-name="Trazado 137544" d="M267.12,143.35c4.83-1.33,7.31.37,10,5.67,1,2,4.36,10.62,7,14.31,6.14,8.65,7.87,10.54,7.51,15.28s-.27,5.63-2.33,5.81-8.11,1-13.44-6.8c-5.61-8.25-13.33-22.22-13.28-27C262.56,145.66,263.55,144.34,267.12,143.35Z" fill="#ec7d40"/>
    <path id="Trazado_137545" data-name="Trazado 137545" d="M272.18,172.67c-4.73-7.82-9.8-18-9.76-22,0-2.63.31-4.13,1-5.18s1.72-1.65,3.68-2.19a10.77,10.77,0,0,1,2.84-.43,5.76,5.76,0,0,1,4,1.51,15.2,15.2,0,0,1,3.21,4.64c.26.53.69,1.51,1.23,2.76,1.52,3.52,3.82,8.83,5.73,11.53.43.61.83,1.17,1.14,1.59v.06l-.05.06a28.91,28.91,0,0,1-6.82,5.4,21.67,21.67,0,0,1-6.15,2.33h-.07Z" fill="#512618"/>
    <path id="Trazado_137546" data-name="Trazado 137546" d="M228.08,173.21a32.439,32.439,0,0,1-7.32-.77,20.34,20.34,0,0,1-4.83-1.75h-.05v-.07a99.741,99.741,0,0,1,3.31-16.21,60.253,60.253,0,0,1,3.11-8.86,7.61,7.61,0,0,1,3.22-2.8h.08v.08s1.35,3,2.81,6.68a66.469,66.469,0,0,1,3.63,11.75c.42,2.57-.14,6.46-1.71,11.89v.06h-.07c-.74,0-1.48.05-2.2.05Z" fill="#512618"/>
    <path id="Trazado_137547" data-name="Trazado 137547" d="M227.41,184.53c.19-2.91.31-5.82.39-8.73,0-1.46.08-2.92.1-4.37v-1.11l-.06-1.1c-.05-.73-.11-1.45-.17-2.18l-.19-2.18c-.07-.72-.15-1.45-.22-2.17-.16-1.45-.32-2.9-.51-4.34-.09-.73-.18-1.45-.28-2.17s-.21-1.44-.32-2.16-.22-1.44-.36-2.16-.27-1.43-.45-2.14c0,.36.09.72.12,1.08l.05.55.05.54c.07.73.13,1.45.18,2.18l.36,4.35.73,8.69.18,2.17c0,.36.05.72.08,1.08s0,.71.06,1.07v4.37C227.19,178.71,227.26,181.62,227.41,184.53Z" fill="#212220"/>
    <path id="Trazado_137548" data-name="Trazado 137548" d="M271.14,170.5c.4.7.81,1.38,1.21,2.05v.06h.06a21.67,21.67,0,0,0,6.15-2.33c.62-.34,1.22-.72,1.82-1.12L216.23,169c-.06.49-.12,1-.17,1.48v.06h0a20.5,20.5,0,0,0,4.83,1.75,31.489,31.489,0,0,0,6.72.77c0,2.47-.05,4.95-.06,7.41l42.9.09C270.72,177,270.93,173.68,271.14,170.5Z" fill="none"/>
    <path id="Trazado_137549" data-name="Trazado 137549" d="M285.42,164.86l.05-.06v-.06c-.3-.42-.71-1-1.13-1.58a44.14,44.14,0,0,1-3.37-6.21l-62.39.35a95.271,95.271,0,0,0-2.28,11.49l65.17-.37a30.517,30.517,0,0,0,3.95-3.56Z" fill="none"/>
    <path id="Trazado_137550" data-name="Trazado 137550" d="M273.16,143a12.91,12.91,0,0,0-6.06-1.86,59.46,59.46,0,0,0-9.81-2.92c-.53-.08-1-.15-1.45-.23a15.58,15.58,0,0,0-4.72-1.4c-3.51-.4-8.12,1.5-12.43,2.7s-5.71,1.81-8.71,2.11a12.89,12.89,0,0,0-4.21,1.16h-.08a7.56,7.56,0,0,0-2.86,2.26l52-.29a6,6,0,0,0-1.67-1.53Z" fill="none"/>
    <path id="Trazado_137551" data-name="Trazado 137551" d="M278.56,151.62c-.54-1.25-1-2.23-1.23-2.76a13.2,13.2,0,0,0-1-1.77c-.35-.53-.7-1.24-1.1-1.84l-52.63-.12c-.06.09-.11.18-.16.27a58.1,58.1,0,0,0-3.11,8.87c-.21.71-.43,1.49-.65,2.33l62.11.13C280,154.93,279.21,153.12,278.56,151.62Z" fill="none"/>
    <path id="Trazado_137552" data-name="Trazado 137552" d="M274.8,144.58l-52,.29a2.479,2.479,0,0,0-.19.26l52.63.12A2.584,2.584,0,0,0,274.8,144.58Z" fill="#2daea0"/>
    <path id="Trazado_137553" data-name="Trazado 137553" d="M280.83,156.73l-62.11-.13-.18.7,62.39-.35C280.9,156.88,280.86,156.81,280.83,156.73Z" fill="#2daea0"/>
    <path id="Trazado_137554" data-name="Trazado 137554" d="M281.43,168.42l-65.17.37V169l64.19.14C280.76,168.91,281.1,168.67,281.43,168.42Z" fill="#2daea0"/>
    <path id="Trazado_137555" data-name="Trazado 137555" d="M270.49,180.59l-42.9-.09v.63l42.89-.24Z" fill="#2daea0"/>
    <path id="Trazado_137556" data-name="Trazado 137556" d="M256.82,110a5.63,5.63,0,0,1,1,4.54c-1.16,6.49.6,4.42-.26,8.06-1.42,6-5.77,5.7-6.08,4s.4-7.56,1-8.26S256.82,110,256.82,110Z" fill="#12263f"/>
    <path id="Trazado_137557" data-name="Trazado 137557" d="M254.63,121.32s-.2,4.44-.07,6.46c.45,6.39,1.86,10.62,1.82,11.92a4.19,4.19,0,0,1-2.42,3.87c-3.12,2.08-9.52,2.73-11.53.36a4.81,4.81,0,0,1-1-2.38c-.16-.74-1.23-5.66-1-6.33s6.1-10.77,7.51-11.56A55.622,55.622,0,0,1,254.63,121.32Z" fill="#ec7d40"/>
    <path id="Trazado_137558" data-name="Trazado 137558" d="M239,105.48a9,9,0,0,0-5.94,7.18,17.4,17.4,0,0,0-.24,5.31c.66,2.85.19,3.85.38,5.54A36.26,36.26,0,0,0,235,130c.78,2.24,2.13,5.25,4.17,6.59a5.36,5.36,0,0,0,4.26.89c3.34-.46,8.65-5.25,9.23-6.65s.56-5.15.58-6.19a50.147,50.147,0,0,1,.421-6.485c.359-1.815.889-8.866-4.681-11.6-1.19-.58-6.85-2.1-9.88-1.08Z" fill="#f79556"/>
    <path id="Trazado_137559" data-name="Trazado 137559" d="M238.05,120.94c0,.15-.52.59-1.93.5-.63,0-1.25-.25-1.22-.56a1.2,1.2,0,0,1,1-.88C236.86,119.91,238.07,120.62,238.05,120.94Z" fill="#e6e6e6"/>
    <path id="Trazado_137560" data-name="Trazado 137560" d="M235.4,120.73a.91.91,0,1,0,1-.85.9.9,0,0,0-1,.85Z" fill="#12263f"/>
    <path id="Trazado_137561" data-name="Trazado 137561" d="M247.43,120.69c0,.17-.51.67-2,.66-.67,0-1.35-.18-1.35-.52a1.3,1.3,0,0,1,1-1C246.08,119.66,247.43,120.35,247.43,120.69Z" fill="#e6e6e6"/>
    <path id="Trazado_137562" data-name="Trazado 137562" d="M246.5,120.52a.933.933,0,1,1-1.045-.805.933.933,0,0,1,1.045.805Z" fill="#12263f"/>
    <path id="Trazado_137563" data-name="Trazado 137563" d="M244.75,131.15a.18.18,0,0,0-.12-.28,22.942,22.942,0,0,0-3.46-.23,13.33,13.33,0,0,0-2.5.29.17.17,0,0,0-.12.24,3.16,3.16,0,0,0,3,1.89A4.34,4.34,0,0,0,244.75,131.15Z" fill="#d66730"/>
    <path id="Trazado_137564" data-name="Trazado 137564" d="M238.62,118.15a4.059,4.059,0,0,1-.79.13h-1.07l-.33-.1a4.231,4.231,0,0,0-.65-.18h-.94a2,2,0,0,0-.33.08,3.91,3.91,0,0,0-.65.24,2.279,2.279,0,0,0-.3.17l-.29.2-.09-.07a2.49,2.49,0,0,1,.47-.6,3.658,3.658,0,0,1,.62-.48,3.9,3.9,0,0,1,.35-.19l.18-.08h.2a3.39,3.39,0,0,1,.82-.12h.79a1.58,1.58,0,0,1,.38,0,2.238,2.238,0,0,1,.37.1,3,3,0,0,1,.68.36,2.431,2.431,0,0,1,.32.24,1.739,1.739,0,0,1,.28.32Z" fill="#12263f"/>
    <path id="Trazado_137565" data-name="Trazado 137565" d="M242.58,117.81l.15-.18.17-.17.35-.29.38-.23c.13-.07.26-.14.4-.2l.21-.08.21-.06h2.69a3,3,0,0,1,.45.12h.22l.21.1a3.64,3.64,0,0,1,.39.23c.12.09.23.19.34.29a2.91,2.91,0,0,1,.3.31l-.07.09-.37-.2a3.079,3.079,0,0,0-.38-.16l-.19-.07h-.58a2.85,2.85,0,0,0-.77,0h-.78a1.054,1.054,0,0,0-.38.12l-.19.07-.19.07-.19.07-.2.06h-1.67a2.45,2.45,0,0,1-.46,0Z" fill="#12263f"/>
    <path id="Trazado_137566" data-name="Trazado 137566" d="M239.12,108.75c-.77.93-.9,1.39-1.88,1.68-3.73,1.13-4.14,3.08-4.38,4.32-.34,1.81.69,6.83.26,6.77s-1-.74-.89-2.81c.09-1.68-1.31-2.37-1.37-3.45s.12-4.82.94-6.47,2.09-3.76,3.89-4.46,1.18-1.08,2.94-1.62c2.06-.63,3.19-.23,3.37.6C242.22,104.29,240,107.66,239.12,108.75Z" fill="#12263f"/>
    <path id="Trazado_137567" data-name="Trazado 137567" d="M247.94,121l-.22-.23-.24-.21a2.93,2.93,0,0,0-.53-.33l-.14-.06h-.14l-.29-.07a1.82,1.82,0,0,0-.57,0,2.11,2.11,0,0,0-.56.15l-.52.22a4.092,4.092,0,0,0-.51.26,1.88,1.88,0,0,0-.24.18,1.64,1.64,0,0,0-.25.21h-.07a.92.92,0,0,1,.05-.37,1.14,1.14,0,0,1,.15-.34,1.78,1.78,0,0,1,.52-.54,1.73,1.73,0,0,1,.68-.27,3,3,0,0,1,.73-.05,2.49,2.49,0,0,1,.72.14,2.3,2.3,0,0,1,.62.33,3.2,3.2,0,0,1,.27.22l.23.25a2.65,2.65,0,0,1,.37.57Z" fill="#12263f"/>
    <path id="Trazado_137568" data-name="Trazado 137568" d="M234.46,121.18a1.1,1.1,0,0,1,0-.18,1.731,1.731,0,0,1,.2-.47,1.64,1.64,0,0,1,.48-.5,1.37,1.37,0,0,1,.67-.25,2.061,2.061,0,0,1,.35,0h.35a2.71,2.71,0,0,1,1.23.46,2.56,2.56,0,0,1,.48.45,1.51,1.51,0,0,1,.18.26,2.586,2.586,0,0,1,.14.29h-.07a2.24,2.24,0,0,0-.9-.72,2.09,2.09,0,0,0-.54-.16,2,2,0,0,0-.55,0,1.241,1.241,0,0,0-.27,0l-.25.08-.24.09-.23.09a3.585,3.585,0,0,0-.48.24,5.412,5.412,0,0,0-.51.33Z" fill="#12263f"/>
    <path id="Trazado_137569" data-name="Trazado 137569" d="M252.24,125.25c.1.11.37.6.83.71s1.14.33,2.06-1a10.07,10.07,0,0,0,1.21-5.09s-.17-1.92-1.26-1.87-2.79,4.66-2.79,4.66Z" fill="#f79556"/>
    <path id="Trazado_137570" data-name="Trazado 137570" d="M238.62,109.71c.52.9,1.62,1.13,3.21.8a4.34,4.34,0,0,1,3.68.41c1.84,1.2,1.29,2.51,4.12,5.15a5.44,5.44,0,0,1,2,4.29c.12,1.69,0,2,.05,2.77s1.3,1.21,1.72-.11a23,23,0,0,1,1.12-3.6c.36-.84.6-1.38,1.62-1.52s1.76-3.07,1.53-5.44c-.27-2.93-1-4.07-3.31-5.87s-2.3-1.39-3.88-2.86-6.45-2.72-8.64-.48C237.55,107.71,238.62,109.71,238.62,109.71Z" fill="#12263f"/>
    <path id="Trazado_137571" data-name="Trazado 137571" d="M245.55,130.61l-.35.26-.38.23a7.121,7.121,0,0,1-.79.37,6.452,6.452,0,0,1-.85.27c-.29.07-.58.13-.87.17h-1.97l-.22-.06a3.059,3.059,0,0,1-.43-.13l-.2-.08-.21-.1-.19-.1-.2-.11v-.06h2.55a4.72,4.72,0,0,0,.84,0,8,8,0,0,0,.84-.08,7.633,7.633,0,0,0,.83-.17,6.409,6.409,0,0,0,.81-.27l.39-.17a2.821,2.821,0,0,0,.38-.21Z" fill="#913b1d"/>
    <path id="Trazado_137572" data-name="Trazado 137572" d="M268,158.46s2.45,1.88,4.51-.12c1.78-1.73,2.27-5.74,2.28-6.44s.54-3.56.69-4.63a30.169,30.169,0,0,0-.13-5.15c-.24-1-.65-1.28-1.19-1.27a.8.8,0,0,0-.77.81c-.07.51-.06.19-.29-1.6a15.635,15.635,0,0,0-.64-3.07,1.49,1.49,0,0,0-1.08-.89,1.15,1.15,0,0,0-.62,0s-.12-1-.22-1.35a1.21,1.21,0,0,0-1-.91,1.09,1.09,0,0,0-1.21.61,1.15,1.15,0,0,0-2.18.29c-.07.51-.16,4.06-.28,5s-.33,3.32-.51,4.23c-.5,2.6-.17,5.94-2.09,5.16-.66-.27-1.54-2.1-2.06-2.9-.84-1.28-2.72-3.11-4-1.67-.13.16-.64.87.5,2.28a15.331,15.331,0,0,1,2,3.25c1.5,2.87,3.24,6.24,5.16,7.54S266.53,157.84,268,158.46Z" fill="#f79556"/>
    <path id="Trazado_137573" data-name="Trazado 137573" d="M273.57,155.11s2.06,4.27,13.67,13.41a13.39,13.39,0,0,1,4.9,9.26c.34,3.69-.39,6.58-1.87,7.18a10.07,10.07,0,0,1-9.12-1.56c-4.71-3.79-3.19-7.46-8.41-16.88-3.69-6.67-6.7-9.06-6.77-10.27S271.83,152.63,273.57,155.11Z" fill="#f79556"/>
    <g id="Grupo_83636" data-name="Grupo 83636">
      <path id="Trazado_137574" data-name="Trazado 137574" d="M268.33,134.65v1.29l.06,1.29v3.9a11.2,11.2,0,0,1-.1,1.29c-.05.43-.1.85-.16,1.28s-.14.85-.24,1.27h0v-2.58c0-.43.05-.86.09-1.28s.09-.86.11-1.28v-5.14Z" fill="#d66730"/>
      <path id="Trazado_137575" data-name="Trazado 137575" d="M270.64,136.24a.481.481,0,0,0-.11.09.471.471,0,0,0-.09.12.809.809,0,0,0-.11.27,1.62,1.62,0,0,0,0,.58l.08.61c0,.2.06.4.08.6l.15,1.21.12,1.22v1.7a.76.76,0,0,0,0,.15l-.06.61a7.051,7.051,0,0,1-.17,1.21c-.07.4-.14.81-.24,1.21h0v-4.85a8.109,8.109,0,0,0-.06-1.21c-.06-.4-.05-.81-.08-1.22v-1.22a1.621,1.621,0,0,1,.07-.62.92.92,0,0,1,.14-.28l.11-.12.13-.09Z" fill="#d66730"/>
      <path id="Trazado_137576" data-name="Trazado 137576" d="M273.35,142.54v3.34a5.081,5.081,0,0,1,0,.67,3.762,3.762,0,0,1-.1.66,5.127,5.127,0,0,1-.16.65h0a5.279,5.279,0,0,1-.09-.68v-.66a5.542,5.542,0,0,1,.08-1.33l.06-.66.07-.67c.05-.44.1-.88.16-1.32Z" fill="#d66730"/>
    </g>
    <g id="Grupo_83637" data-name="Grupo 83637">
      <path id="Trazado_137577" data-name="Trazado 137577" d="M219.81,158.62a4.87,4.87,0,0,0-.8-2.34,9.311,9.311,0,0,0-2.54-2,13.74,13.74,0,0,0-3.29-1.56c-1-.25-1.6-.47-3.08-.77-1.64-.33-3.82-1.14-4.61-1.2s-1.23.07-1.37.35c-.59,1.16.58,2.46,2.81,2.92a28.4,28.4,0,0,1,3.87.77c.58.3.36.31,0,.27a13.84,13.84,0,0,0-2.48.07c-.86.12-2.57.76-3.69,1.06a17.69,17.69,0,0,1-3.77.71,17.92,17.92,0,0,0-4.14.59,1.41,1.41,0,0,0-.9.93c0,.29,0,.91.58,1a34.677,34.677,0,0,0,3.94-.05s2,2.12,2.78,2.27c.46.09,4.44-.15,4.44-.15a3.28,3.28,0,0,0,1.49,1.54c.56.23,1.51.46,1.8.55a1.33,1.33,0,0,0,.73.93,5.32,5.32,0,0,0,2,.55c.76.1,2.45.25,3.32.29a5.86,5.86,0,0,0,2.19-.08,2.56,2.56,0,0,0,1.72-2,7.51,7.51,0,0,0-.63-2.86,3.16,3.16,0,0,1-.4-1.1Z" fill="#f79556"/>
      <path id="Trazado_137578" data-name="Trazado 137578" d="M207.58,159H205.6a6.948,6.948,0,0,0-1,.11l-.48.08h-.24l-.23.05h-.09l-.07-.07v-.05h0l-.1-.09-.2-.16a3.12,3.12,0,0,0-.43-.27l-.22-.1-.23-.08-.24-.06h-.24a1.849,1.849,0,0,0-.47,0,.849.849,0,0,0-.23,0h-.16a.91.91,0,0,0-.28.35.609.609,0,0,0,0,.12.558.558,0,0,0,0,.12.5.5,0,0,0,0,.13v.13h0a1.38,1.38,0,0,1,.09-.84,1,1,0,0,1,.08-.14l.11-.12a1.11,1.11,0,0,1,.27-.17l.29-.1a2.311,2.311,0,0,1,.59,0,2.41,2.41,0,0,1,1.08.38,5.294,5.294,0,0,1,.45.34l.21.19a.942.942,0,0,0,.1.1v.05l.05.06-.15-.05h.98c.33,0,.66-.05,1-.05h1a8.221,8.221,0,0,1,1,.13Z" fill="#d66730"/>
      <path id="Trazado_137579" data-name="Trazado 137579" d="M210.93,163.16a2,2,0,0,1-.16-.43,1.83,1.83,0,0,1,0-.47,2.232,2.232,0,0,1,0-.23v-.11a.37.37,0,0,1,.05-.11.54.54,0,0,1,0-.11h0v-.05h0v-.05l.07-.08c.2-.23.39-.47.58-.7l.58-.7,1.16-1.41.58-.7.59-.69.08-.09h0l.06-.05a1.139,1.139,0,0,1,.23-.15,1.09,1.09,0,0,1,.56-.09,1.45,1.45,0,0,1,.51.16l.12.07h0l.06.05a1,1,0,0,1,.34.77,1.87,1.87,0,0,1-.05.53,2.64,2.64,0,0,1-.17.47,2.909,2.909,0,0,1-.25.42,8.356,8.356,0,0,1-.57.73l-.6.69c-.42.45-.84.89-1.29,1.3h0c.34-.51.7-1,1.06-1.49l.52-.73.26-.37c.09-.12.17-.25.25-.37a2.636,2.636,0,0,0,.2-.37,1.821,1.821,0,0,0,.13-.37,1.28,1.28,0,0,0,.05-.38.94.94,0,0,0-.08-.34.826.826,0,0,0-.08-.12h-.08a1,1,0,0,0-.34-.13.65.65,0,0,0-.34,0l-.15.09h0l-.08.08-.61.67-.6.68-1.22,1.35-.61.67c-.21.23-.41.45-.63.67l-.08.08h0v.05l-.06.09-.09.2a1.081,1.081,0,0,0,0,.21,1.53,1.53,0,0,0,.14.86Z" fill="#d66730"/>
      <path id="Trazado_137580" data-name="Trazado 137580" d="M207.63,161.44a1.279,1.279,0,0,1-.09-.39,1.33,1.33,0,0,1,0-.4.441.441,0,0,0,0-.1v-.05a.08.08,0,0,1,0-.05.51.51,0,0,1,.09-.18,2.392,2.392,0,0,1,.21-.34c.14-.22.29-.44.45-.65l.47-.63c.32-.42.64-.83,1-1.23l.26-.3.13-.15.07-.08h0a2.269,2.269,0,0,1,.35-.26,1.42,1.42,0,0,1,.4-.17,1.23,1.23,0,0,1,.47,0l.24.06.11.05.1.06a1.15,1.15,0,0,1,.35.31,1.18,1.18,0,0,1,.2.46,1.23,1.23,0,0,1,0,.47,1.421,1.421,0,0,1-.05.22v.23a4.05,4.05,0,0,1-.21.35l-.23.33a14.659,14.659,0,0,1-1,1.24c-.36.4-.69.79-1.06,1.16h0c.26-.45.54-.9.82-1.34l.86-1.31.2-.32c.07-.11.14-.22.19-.32v-.08h0v-.16a1.1,1.1,0,0,0,0-.31.62.62,0,0,0-.09-.26.77.77,0,0,0-.22-.22h-.27a.65.65,0,0,0-.31,0,1.38,1.38,0,0,0-.61.32h0l-.06.06-.14.14-.26.28a15.162,15.162,0,0,0-1,1.17c-.3.39-.68.8-1,1.21l-.22.32-.1.17h0v.09a1.579,1.579,0,0,0,0,.38.62.62,0,0,0,0,.19,1.16,1.16,0,0,0,0,.18Z" fill="#d66730"/>
    </g>
    <path id="Trazado_137581" data-name="Trazado 137581" d="M225.26,185.47c-.25-6.78-4.64-24.22-4.64-24.22a4.71,4.71,0,0,0-4.77,4.68v1.31c-.23,4.1-1.3,7.76-1.81,11.19a38.43,38.43,0,0,0-.54,7Z" fill="#f79556"/>
  </g>
  <g id="Grupo_83643" data-name="Grupo 83643">
    <path id="Trazado_137582" data-name="Trazado 137582" d="M137.7,139.43a6.67,6.67,0,0,0-3.23-3.83c-1.89-1.29-8.43-.5-16.56-4.08-4.65-2-9.14-2.53-14.36.85-3.26,2.11-6.36,2.59-8.25,3.33v49.68h34.63a45.849,45.849,0,0,1-.08-7.09c.16-3.27.93-8.78,1.84-14.77,2,5.66,4.35,11.16,5.53,13.68,2,4.31,4.35,7.95,6.74,7.95s4-4.41,4-7.95-1.64-6.43-3.85-12.28S139.81,144.7,137.7,139.43Z" fill="#ffa726"/>
    <g id="Grupo_83639" data-name="Grupo 83639">
      <path id="Trazado_137583" data-name="Trazado 137583" d="M103.52,132.3c-3.25,2.1-6.36,2.59-8.25,3.33v12l17.46-17.65A13.33,13.33,0,0,0,103.52,132.3Z" fill="none"/>
      <path id="Trazado_137584" data-name="Trazado 137584" d="M117.88,131.45a19.67,19.67,0,0,0-4.52-1.42L95.27,148v14.24l28.87-28.74a36.44,36.44,0,0,1-6.26-2.05Z" fill="none"/>
      <path id="Trazado_137585" data-name="Trazado 137585" d="M137.67,139.35a8.47,8.47,0,0,0-1.45-2.45L95.27,177.67v7.65h6.62l38-37.84a60.24,60.24,0,0,0-2.22-8.13Z" fill="none"/>
      <path id="Trazado_137586" data-name="Trazado 137586" d="M144.1,164.86a43.291,43.291,0,0,1-1.41-4.77l-9,8.91c1.37,3.48,2.68,6.46,3.46,8.13.29.62.58,1.21.88,1.79l8.32-8.28C145.76,169,145,167.18,144.1,164.86Z" fill="none"/>
      <path id="Trazado_137587" data-name="Trazado 137587" d="M134.45,135.53c-1.35-.92-5.06-.79-10-1.92L95.27,163.1v14.34l40.53-41a5.37,5.37,0,0,0-1.35-.91Z" fill="none"/>
      <path id="Trazado_137588" data-name="Trazado 137588" d="M140,147.77l-37.13,37.55H117l13.47-13.62c.33-2.5.74-5.31,1.18-8.24.61,1.75,1.26,3.48,1.9,5.12l9-9.08C141.67,155.91,140.81,151.62,140,147.77Z" fill="none"/>
      <path id="Trazado_137589" data-name="Trazado 137589" d="M143.94,185.09c2.39,0,4-4.41,4-8a16.659,16.659,0,0,0-1.43-6.14l-8.24,8.33C140,182.61,142,185.09,143.94,185.09Z" fill="none"/>
      <path id="Trazado_137590" data-name="Trazado 137590" d="M129.9,185.32a47.169,47.169,0,0,1-.08-7.09c.08-1.54.29-3.57.58-5.91l-13.05,13Z" fill="none"/>
      <path id="Trazado_137591" data-name="Trazado 137591" d="M146.52,171c0-.12-.09-.23-.13-.35l-8.32,8.28.21.4Z" fill="#2daea0"/>
      <path id="Trazado_137592" data-name="Trazado 137592" d="M142.54,159.5l-9,9.08c.06.14.12.28.17.42l9-8.91Z" fill="#2daea0"/>
      <path id="Trazado_137593" data-name="Trazado 137593" d="M117.35,185.32l13.05-13c0-.21.06-.41.08-.62L117,185.32Z" fill="#2daea0"/>
      <path id="Trazado_137594" data-name="Trazado 137594" d="M139.89,147.48l-38,37.84h.93L140,147.77Z" fill="#2daea0"/>
      <path id="Trazado_137595" data-name="Trazado 137595" d="M135.8,136.46l-40.53,41v.23l41-40.77a6,6,0,0,0-.47-.46Z" fill="#2daea0"/>
      <path id="Trazado_137596" data-name="Trazado 137596" d="M124.14,133.54,95.27,162.28v.82l29.16-29.49Z" fill="#2daea0"/>
      <path id="Trazado_137597" data-name="Trazado 137597" d="M112.73,129.94,95.27,147.59V148l18.09-18Z" fill="#2daea0"/>
    </g>
    <path id="Trazado_137598" data-name="Trazado 137598" d="M128.7,118.87a3,3,0,0,0-.88-1.74.3.3,0,0,1,0-.44,1.74,1.74,0,0,0,.86-1.61,1.37,1.37,0,0,0-.66-.93.3.3,0,0,1-.13-.27,1.24,1.24,0,0,0,.77-1.35,1,1,0,0,0-.45-.65v-.06a.3.3,0,0,1,.05-.21,4.69,4.69,0,0,0,1.06-2.7,2.8,2.8,0,0,0-1.42-2.62,2.22,2.22,0,0,0,.32-2.14,1.93,1.93,0,0,0-2-1,2.85,2.85,0,0,0-.15-1.67c-.71-1.63-3.27-2.07-5.37-.92l-.09.05a.27.27,0,0,1-.38-.28c.11-1.81-.38-3.29-1.37-3.7s-2.07.3-3,1.64a.25.25,0,0,1-.45,0c-.49-1.1-1.26-1.76-1.88-1.53-.42.15-.67.66-.75,1.34a.25.25,0,0,1-.44.17c-1.61-1.83-3.56-2.54-4.57-1.59a2.87,2.87,0,0,0-.53,2.64.26.26,0,0,1-.4.28,3.53,3.53,0,0,0-4.5.07,4.31,4.31,0,0,0-1.18,3.37.28.28,0,0,1-.18.29,5.48,5.48,0,0,0-2,1.08,6,6,0,0,0-1,7.09.29.29,0,0,1-.16.42,2.36,2.36,0,0,0-.32,4.58.29.29,0,0,1,0,.52,2.23,2.23,0,0,0-1.34,2.2,2.15,2.15,0,0,0,2.33,1.61.29.29,0,0,1,.22.45c-.52.88-.69,1.72-.36,2.1s1,.19,1.79-.37a.27.27,0,0,1,.41.25,2.15,2.15,0,0,0,.9,2,1.57,1.57,0,0,0,1.77-.37.26.26,0,0,1,.42.14,2.2,2.2,0,0,0,1.75,1.85,1.82,1.82,0,0,0,1.64-1,.25.25,0,0,1,.3-.11,14.64,14.64,0,0,0,5.12,1,13.11,13.11,0,0,0,6-1.37.27.27,0,0,1,.38.22,2.23,2.23,0,0,0,2.92,1.86,1.81,1.81,0,0,0,1.25-1c0-.07.18-.24.47-.11,1.17.54,2.52-1,2.27-2.56a3.63,3.63,0,0,0-.33-1c-.09-.16,0-.58.51-.47a1.42,1.42,0,0,0,.57,0,2.87,2.87,0,0,0,2.21-3.45Z" fill="#12263f"/>
    <path id="Trazado_137599" data-name="Trazado 137599" d="M117.78,121.89c.07.42-.14,6.36-.07,9.54a6.09,6.09,0,0,1-5.3,6.33c-3.38.62-6-1.12-6.45-2.94-.23-1,.64-9.12-.26-14.38s.33-5.87.81-5.87S117.78,121.89,117.78,121.89Z" fill="#96442a"/>
    <path id="Trazado_137600" data-name="Trazado 137600" d="M122.91,105.39c1.81,3.48,1.61,9.5,1.33,10.78s-.45,1.11-.25,1.84a11,11,0,0,1-1.1,5.27c-1,2.48-3.28,5.73-4.35,6.37a5.38,5.38,0,0,1-3.79.76c-1.54-.25-5-2.35-7-5.58-1.54-2.54-2.69-4.63-2.7-6.28s-1.27-6.92.37-9.94,2.9-5.41,7.22-6.55C113.8,101.76,119.59,99,122.91,105.39Z" fill="#96442a"/>
    <path id="Trazado_137601" data-name="Trazado 137601" d="M113.84,125.26A.17.17,0,0,1,114,125a19.83,19.83,0,0,1,3.21,0,12.159,12.159,0,0,1,2.3.41.16.16,0,0,1,.1.23,2.91,2.91,0,0,1-2.86,1.58,4,4,0,0,1-2.91-1.96Z" fill="#512618"/>
    <path id="Trazado_137602" data-name="Trazado 137602" d="M120.91,114.43a2.19,2.19,0,0,1,.53-.67,2.78,2.78,0,0,1,.72-.44,3,3,0,0,1,1.68-.1.669.669,0,0,1,.41.09l.2.06.22.08a2.77,2.77,0,0,1,.7.5,7,7,0,0,1,.9,1.29l-.07.07c-.21-.17-.38-.36-.56-.53a3.94,3.94,0,0,0-.58-.45,1.73,1.73,0,0,0-.61-.27h-.67a1.27,1.27,0,0,0-.34,0l-.34.07c-.22.05-.43.11-.66.15l-.69.12c-.25,0-.5.1-.78.13Z" fill="#12263f"/>
    <path id="Trazado_137603" data-name="Trazado 137603" d="M110.3,112.46a5.88,5.88,0,0,1,1.78-.81,5.12,5.12,0,0,1,2-.11l.52.08.52.13a2.75,2.75,0,0,1,.93.52,2.83,2.83,0,0,1,1,1.82l-.1.07c-.64-.32-1.13-.61-1.63-.86-.25-.13-.48-.26-.71-.41l-.37-.21a2.271,2.271,0,0,0-.39-.16,3.94,3.94,0,0,0-.84-.19,5.141,5.141,0,0,0-.88-.06,6.42,6.42,0,0,0-1.82.3Z" fill="#12263f"/>
    <path id="Trazado_137604" data-name="Trazado 137604" d="M112.42,115.76c0,.17.5.66,2,.64.66,0,1.32-.18,1.32-.51a1.27,1.27,0,0,0-1-1C113.73,114.75,112.41,115.43,112.42,115.76Z" fill="#c6bd8d"/>
    <path id="Trazado_137605" data-name="Trazado 137605" d="M113.73,115.31a.86.86,0,0,1,1.58.65.87.87,0,1,1-1.58-.65Z" fill="#12263f"/>
    <path id="Trazado_137606" data-name="Trazado 137606" d="M121.28,117.09c0,.16.42.64,1.65.62.55,0,.81-.28.81-.6a.76.76,0,0,0-.55-.85C122.37,116.11,121.28,116.77,121.28,117.09Z" fill="#c6bd8d"/>
    <path id="Trazado_137607" data-name="Trazado 137607" d="M122.16,116.73a.72.72,0,0,1,1.33.55.73.73,0,1,1-1.33-.55Z" fill="#12263f"/>
    <path id="Trazado_137608" data-name="Trazado 137608" d="M115.68,116.17a1.36,1.36,0,0,0-.16-.59.59.59,0,0,0-.4-.29h-.55l-.61.08-1.25.23a13.08,13.08,0,0,1-1.3.2,3.8,3.8,0,0,1,.57-.35,4.781,4.781,0,0,1,.61-.28,6.24,6.24,0,0,1,1.28-.36,5.089,5.089,0,0,1,.69,0h.36a1.33,1.33,0,0,1,.37.12,1.07,1.07,0,0,1,.32.25,1,1,0,0,1,.17.35,1.15,1.15,0,0,1,0,.37A.92.92,0,0,1,115.68,116.17Z" fill="#12263f"/>
    <path id="Trazado_137609" data-name="Trazado 137609" d="M123.9,117.35a1.13,1.13,0,0,0-.15-.49.53.53,0,0,0-.33-.23H123l-.51.07-1.06.19a9.64,9.64,0,0,1-1.11.13,4,4,0,0,1,.48-.32c.16-.09.33-.17.51-.25a5,5,0,0,1,1.09-.31,2.88,2.88,0,0,1,.59,0h.31a1.31,1.31,0,0,1,.32.1,1,1,0,0,1,.28.23.62.62,0,0,1,.14.31.86.86,0,0,1,0,.32.79.79,0,0,1-.14.25Z" fill="#12263f"/>
    <path id="Trazado_137610" data-name="Trazado 137610" d="M113.62,124.88a2.169,2.169,0,0,0,.29.24,2,2,0,0,0,.3.21c.21.13.43.25.65.36a5.338,5.338,0,0,0,.7.27,5.985,5.985,0,0,0,.73.18h1.87l.36-.09.18-.06.18-.07.17-.07.17-.09h-2.16a5.56,5.56,0,0,1-1.41-.13,5.91,5.91,0,0,1-.69-.19,4.271,4.271,0,0,1-.67-.27L114,125l-.31-.19Z" fill="#12263f"/>
    <path id="Trazado_137611" data-name="Trazado 137611" d="M117.71,131.7v-1.34a2.7,2.7,0,0,0,0-.28,5.21,5.21,0,0,1-2.91.32c-1.54-.25-5-2.35-7-5.58l-.5-.84c.38.7.82,1.43,1.29,2.22,2,3.23,5.43,5.33,7,5.57a5.42,5.42,0,0,0,2.12-.07Z" fill="#512618"/>
    <g id="Grupo_83640" data-name="Grupo 83640">
      <path id="Trazado_137612" data-name="Trazado 137612" d="M124.49,103.62a2.56,2.56,0,0,0-1.52-.37,2.2,2.2,0,0,0-.94-2.5c-1-.48-3.62.59-4.12.34-1.19-.59-2.45-.45-2.92.29a2.84,2.84,0,0,0-2.1,1.65,3.32,3.32,0,0,0-.34,1.67.961.961,0,0,0-1.14,1.31l-.53.17h0a2.59,2.59,0,1,0,4.64,2.29,3.189,3.189,0,0,0,.19-.48,2.31,2.31,0,0,0,1.22.67,2.53,2.53,0,0,0,2.28-.83.72.72,0,0,0,.49.38.77.77,0,0,0,.68-.22,2.48,2.48,0,0,0,3.16.81.3.3,0,0,0,0,.08,2.52,2.52,0,0,0,1.06,3.39C125.71,112.92,129.18,106.78,124.49,103.62Z" fill="#12263f"/>
      <path id="Trazado_137613" data-name="Trazado 137613" d="M111.19,106.12h0C111.13,106.13,111.13,106.14,111.19,106.12Z" fill="#12263f"/>
    </g>
    <g id="Grupo_83641" data-name="Grupo 83641">
      <path id="Trazado_137614" data-name="Trazado 137614" d="M112.27,101.51a3.43,3.43,0,0,0-1.46.75,2.31,2.31,0,0,0-2.46-1.37,2.5,2.5,0,0,0-1.45,3,3.54,3.54,0,0,0-1.61,0c-1.34.34-2.26,1.32-2.13,2.22a3,3,0,0,0-.55,2.75,3.3,3.3,0,0,0,.87,1.57,1.11,1.11,0,0,0-.55,1.21,1,1,0,0,0,.49.64c-.15.25-.26.43-.31.5s0,0,0,.06a2.73,2.73,0,1,0,5.28-1.34,3.82,3.82,0,0,0-.18-.51,2.38,2.38,0,0,0,1.43-.3,2.66,2.66,0,0,0,1.26-2.21.77.77,0,0,0,.65,0,.78.78,0,0,0,.39-.64,2.57,2.57,0,0,0,1.32,0,2.63,2.63,0,0,0,1.76-1.51v.08a2.65,2.65,0,0,0,3.17,2,2.54,2.54,0,0,0,1.84-3.26C118.07,100.23,112.82,101.37,112.27,101.51Z" fill="#12263f"/>
      <path id="Trazado_137615" data-name="Trazado 137615" d="M103.22,112.75h0C103.18,112.79,103.19,112.8,103.22,112.75Z" fill="#12263f"/>
    </g>
    <path id="Trazado_137616" data-name="Trazado 137616" d="M105.73,115.05a1.4,1.4,0,0,0-2.11-.62c-1.11.71-1,1.87-.78,3.52s1.39,3.59,2.33,3.86,1-.36,1.14-1.18S106.39,116.27,105.73,115.05Z" fill="#96442a"/>
    <path id="Trazado_137617" data-name="Trazado 137617" d="M146.74,166.88c4-3.52,5.8-9.31,7.33-12.28s7.15-4.5,6.39-.77-2.35,6.24-3.79,10-3,9.13-5,13.71c-2.3,5.27-5.37,8.82-7.67,7.77S136.91,175.54,146.74,166.88Z" fill="#96442a"/>
    <g id="Grupo_83642" data-name="Grupo 83642">
      <path id="Trazado_137618" data-name="Trazado 137618" d="M154.5,153.78a16.149,16.149,0,0,1,1.65-4.19,11.18,11.18,0,0,1,3.08-2.93c1.6-1,3.88-3,4.47-3.42.74-.47,1.25-.6,1.7-.26s.32.89,0,1.34a15.128,15.128,0,0,1-1.69,1.76c-.9.8-2.42,1.83-2,1.71.05,0,.49-.21,1.21-.48l3-1.16a2.6,2.6,0,0,1-.07-.94.9.9,0,0,1,.68-.76c.26,0,.51.1.78.59s.7,1.32.7,1.32.34-1.35.55-2.46.46-1.58.84-1.84.92-.28,1,.07a17.238,17.238,0,0,1,0,2.05l1.89-1.55c.61-.51,1.39-.6,1.66-.37a.55.55,0,0,1,.06.83c-.23.25-2.14,2.24-2.52,2.61s-2.83,2.8-2.83,2.8a2.37,2.37,0,0,1,.08.83,2.26,2.26,0,0,1-.86,1.35,7,7,0,0,0-.78.68,1.88,1.88,0,0,1-1.27,1.52c-.12.07-.19.77-3.54,2.82a24.662,24.662,0,0,0-2.75,1.64,5.7,5.7,0,0,1-2.24,1.22c-.73.13-.91.05-1.3-.34A8.76,8.76,0,0,1,154.5,153.78Z" fill="#96442a"/>
      <path id="Trazado_137619" data-name="Trazado 137619" d="M165.92,146.25c.1.32.19.64.28.95l.06.24.05.24.12.49a3.552,3.552,0,0,1,.09.47v.45a6.232,6.232,0,0,1,0,1h0a1.53,1.53,0,0,0,.25-.45v-.13a.5.5,0,0,0,0-.13.69.69,0,0,1,0-.13v-.13a1.58,1.58,0,0,0-.07-.53,1.807,1.807,0,0,0-.16-.48l-.17-.47-.08-.23-.09-.23c-.13-.31-.26-.61-.41-.91Z" fill="#512618"/>
      <path id="Trazado_137620" data-name="Trazado 137620" d="M166.61,151a3.421,3.421,0,0,0-.18-.6.707.707,0,0,0-.13-.28l-.09-.13a1.13,1.13,0,0,0-.1-.13c-.25-.32-.52-.63-.8-.94s-.55-.61-.83-.91l-.44-.45h0l-.09-.06h-.51a.58.58,0,0,0-.18.11.55.55,0,0,0-.14.19,1.21,1.21,0,0,0-.05.18.28.28,0,0,0,0,.09.22.22,0,0,0,0,.08,2.119,2.119,0,0,0,.05.67,1.042,1.042,0,0,0,.1.33v.08h0a.2.2,0,0,0,0,.08v.07l.09.14.09.13c.06.09.13.17.19.25l.2.24.21.23.19.23.1.12a.44.44,0,0,1,.08.11.88.88,0,0,1,.11.24,2.464,2.464,0,0,1,.07.29,1.12,1.12,0,0,0,.1.31,1,1,0,0,0,.07.15l.09.13h0a1.9,1.9,0,0,1-.09-.29v-.3a1.771,1.771,0,0,0,0-.32,1,1,0,0,0-.09-.33.71.71,0,0,0-.08-.15l-.09-.14c-.05-.09-.11-.17-.17-.26l-.36-.49-.09-.13-.09-.12-.08-.12a.829.829,0,0,0-.08-.12,1.339,1.339,0,0,1-.12-.24.987.987,0,0,0-.1-.27,2.09,2.09,0,0,1-.08-.55,1,1,0,0,1,0-.25v-.06l.08-.05h.25l.45.41.88.86c.29.29.58.58.85.89a.521.521,0,0,1,.1.11.942.942,0,0,1,.09.12,1.349,1.349,0,0,1,.15.26,2.779,2.779,0,0,1,.21.57Z" fill="#512618"/>
      <path id="Trazado_137621" data-name="Trazado 137621" d="M170.3,144.25c-.06.21-.11.42-.17.63l-.08.31a1.181,1.181,0,0,1-.08.31c-.03.1-.06.21-.1.31a1.551,1.551,0,0,0-.06.31v.65h0l.06-.07.06-.07a1.09,1.09,0,0,0,.08-.15.71.71,0,0,0,.08-.15v-.15a1.23,1.23,0,0,0,.07-.32v-1.62Z" fill="#512618"/>
      <path id="Trazado_137622" data-name="Trazado 137622" d="M168,146.42l.06.44.06.44a1.639,1.639,0,0,1,0,.22,1.6,1.6,0,0,0,0,.21,1.241,1.241,0,0,0,.1.2l.07.1v.05h.05a.73.73,0,0,0,.07-.24.88.88,0,0,0,0-.23.36.36,0,0,0,0-.11v-.11c0-.07-.07-.14-.09-.2s-.11-.28-.18-.42-.12-.27-.19-.4Z" fill="#512618"/>
    </g>
    <path id="Trazado_137623" data-name="Trazado 137623" d="M134.23,146.67c-.15,2.68-.45,5.35-.77,8s-.71,5.31-1.11,8-.84,5.28-1.27,7.91l-.65,4-.16,1c-.05.33-.09.66-.15,1-.11.66-.19,1.32-.29,2v-2c0-.67.06-1.34.1-2s.1-1.33.15-2c0-.34.07-.67.1-1l.1-1c.29-2.67.65-5.32,1.05-8s.85-5.29,1.33-7.92S133.66,149.29,134.23,146.67Z" fill="#12263f"/>
  </g>
</svg>
