<svg xmlns="http://www.w3.org/2000/svg" width="120" height="120" viewBox="0 0 120 120">
  <g id="img8" transform="translate(-0.48)">
    <rect id="Rectángulo_36220" data-name="Rectángulo 36220" width="120" height="120" transform="translate(0.48)" fill="none"/>
    <circle id="Elipse_6753" data-name="Elipse 6753" cx="54.76" cy="54.76" r="54.76" transform="translate(5.24 5.24)" fill="#039be5"/>
    <g id="Grupo_83987" data-name="Grupo 83987">
      <path id="Trazado_139039" data-name="Trazado 139039" d="M20.05,1H64.72c1.24,0,1.52.3,1.54,1.51s0,2.61,0,3.91v8H41.21c-1.91,0-1.93,0-1.93,2V70.95H20.58c-1,0-1.26-.25-1.26-1.25V11.79c0-.39-.15-.83.22-1.16a2.63,2.63,0,0,0,2,.69H60.69c1.2,0,1.59-.41,1.6-1.62V7.91c0-1.67-.29-2-1.93-2H21.5a2.59,2.59,0,0,0-2,.69c-.49-1.32-.09-2.69-.23-4A1.67,1.67,0,0,1,20.05,1Zm7.86,26.8h6.37c1.2,0,1.91-.69,1.91-1.63a1.54,1.54,0,0,0-1.56-1.7c-4.46-.14-8.93-.17-13.4,0a1.91,1.91,0,0,0-.33.06,1.6,1.6,0,0,0-1.07,1.94c.26,1.09,1.1,1.33,2.05,1.34,2.01.04,4.02.02,6.03.02Zm.09,27h6.16c1.24,0,2-.61,2-1.59a1.8,1.8,0,0,0-2-1.76H21.74c-1.25,0-2,.66-2,1.68s.65,1.66,1.93,1.67Zm0-35H21.74c-1.31,0-2,.56-2,1.62s.65,1.71,1.9,1.72H34.18a1.73,1.73,0,0,0,2-1.72c0-1-.76-1.61-2-1.62-2.03-.02-4.08-.01-6.18-.01Zm-.12,39.72h6.27c1.23,0,2-.63,2-1.63a1.72,1.72,0,0,0-1.93-1.71H21.68c-1.23,0-1.94.67-1.93,1.7s.71,1.64,2,1.64c2.06,0,4.11-.01,6.17-.01ZM28,42.66H21.73c-1.29,0-1.94.57-2,1.63s.74,1.71,2,1.71H34.27a1.73,1.73,0,0,0,1.93-1.73c0-1-.77-1.61-2-1.62Zm0,18.18H21.73c-1.24,0-1.93.63-1.93,1.67s.72,1.67,2,1.67H34.22c1.23,0,2-.65,2-1.63a1.779,1.779,0,0,0-2-1.72C32.11,60.83,30.05,60.84,28,60.84Zm-.11-42.37h6.49a1.71,1.71,0,0,0,1.82-1.73,1.68,1.68,0,0,0-1.8-1.61H21.53a1.58,1.58,0,0,0-1.72,1.53,1.65,1.65,0,0,0,1.59,1.8,5.08,5.08,0,0,0,.78,0Zm0,18.17H34.2c1.23,0,2-.65,2-1.64a1.73,1.73,0,0,0-1.94-1.71H21.72A1.69,1.69,0,0,0,19.8,35c0,1,.73,1.63,2,1.64Zm0,4.69h6.27c1.25,0,2-.66,2-1.64S35.44,38,34.15,38H21.84c-1.33,0-2,.61-2,1.67s.74,1.67,2.07,1.68c1.98,0,3.99-.02,6-.02Z" fill="#c1dbf2"/>
      <path id="Trazado_139040" data-name="Trazado 139040" d="M38.5,88.33H13.71a11.246,11.246,0,0,0-1.44.06,14.31,14.31,0,0,0-2.07,0c-1.32-1-1.39-2.36-1.36-3.86.07-3,0-6,0-9H80.51V88.05s-.07.05-.07.07a.839.839,0,0,0,0,.17.29.29,0,0,1,0,.13H61a8.378,8.378,0,0,0-1.22.06c-.28-.28-.63-.18-.95-.18H39.36A.9.9,0,0,0,38.5,88.33Zm8-6.4a2.56,2.56,0,0,0,2.63,2.68,2.85,2.85,0,0,0,2.74-2.69,2.88,2.88,0,0,0-2.76-2.69,2.55,2.55,0,0,0-2.6,2.7Z" fill="#12263f"/>
      <path id="Trazado_139041" data-name="Trazado 139041" d="M80.52,75.44H4.4V27.58c0-2.28.74-3,3-3h7.51c0,1.41-.05,2.82-.08,4.23H10.31c-1.24.05-1.67.48-1.67,1.6V69.57c0,1.09.45,1.55,1.56,1.58s2.24,0,3.36,0H80.58Z" fill="#1565b2"/>
      <path id="Trazado_139042" data-name="Trazado 139042" d="M108.55,56.38V85.75c0,2.7,0,5.4-.07,8.09H84.98V85.28a16.55,16.55,0,0,0,4.5.18h9.49c1.45,0,2.22-.75,2.16-1.86s-.66-1.46-2.18-1.49c-3.15-.06-6.32.16-9.47-.14a15.71,15.71,0,0,0-4.49.17v-1.8a16.09,16.09,0,0,0,4.49.18c.7,0,1.4-.14,2.1-.14h7.93A1.43,1.43,0,0,0,101.2,79a1.49,1.49,0,0,0-1.2-1.78,4.5,4.5,0,0,0-1.2-.2H89.53a16.56,16.56,0,0,0-4.5.18V75.4a10.57,10.57,0,0,0,4.48,0h10c.95,0,1.6-.4,1.69-1.39a1.5,1.5,0,0,0-1.37-1.82,8.42,8.42,0,0,0-1-.14H89.56a17.31,17.31,0,0,0-4.49.18V70.05H103.1c1.56,0,1.92-.39,1.92-1.9v-6.6c0-1.3-.29-1.57-1.59-1.57H89.11c-1.32-.41-2.68-.1-4-.18V56.43Z" fill="#91dfe7"/>
      <path id="Trazado_139043" data-name="Trazado 139043" d="M39.35,71.12H14.92V30.27a11.482,11.482,0,0,0-.06-1.45c0-1.41.05-2.82.08-4.23V2.87c0-1.61.26-1.87,1.89-1.87h3.25a1.67,1.67,0,0,0-.66,1.55c.14,1.34-.26,2.71.23,4v4c-.37.33-.22.77-.22,1.16V69.62c0,1,.27,1.26,1.26,1.25h18.7a1.1,1.1,0,0,1-.04.25Z" fill="#aec1eb"/>
      <path id="Trazado_139044" data-name="Trazado 139044" d="M99.18,93.81h9.39c0,2.13.05,4.25,0,6.38a2.41,2.41,0,0,1-2.66,2.61H87.06a.32.32,0,0,0-.19,0h-.5A3.79,3.79,0,0,1,85,99.23c.1-1.8,0-3.62,0-5.43h4.81c0,.67-.06,1.34,0,2a1.363,1.363,0,0,0,1.61,1.53h4.47C99.41,97.38,99.41,97.38,99.18,93.81Z" fill="#aec1eb"/>
      <path id="Trazado_139045" data-name="Trazado 139045" d="M4.4,75.42H8.85c0,3,.06,6,0,9,0,1.5,0,2.87,1.36,3.86a16.72,16.72,0,0,1-4-.11,2.07,2.07,0,0,1-1.82-2.18C4.37,82.5,4.39,79,4.4,75.42Z" fill="#1a2b63"/>
      <path id="Trazado_139046" data-name="Trazado 139046" d="M59.75,96.92h8.18c1.3,0,1.66.36,1.67,1.66v2.57c0,1.32-.31,1.62-1.67,1.63H33.54c-.61-2-1-3.93.2-5.83h4.75Z" fill="#12263f"/>
      <path id="Trazado_139047" data-name="Trazado 139047" d="M59.75,96.92H38.49V88.33a1.32,1.32,0,0,1,.87-.12H58.78c.32,0,.67-.1.95.18Z" fill="#495f9a"/>
      <path id="Trazado_139048" data-name="Trazado 139048" d="M85.08,75.41v1.8c-1.24,1.14-1.24,1.87,0,3.13v1.81c-1.25,1.26-1.25,2,0,3.13V93.8H80.61l-.09-5.47a.29.29,0,0,0,0-.13q0-.12,0-.24V75.44l.06-4.29v-1.9q0-6.44.05-12.88h4.45v3.37a1.76,1.76,0,0,0-.95,1.84q.07,3.34,0,6.71a1.73,1.73,0,0,0,.92,1.75v2.22C83.84,73.39,83.84,74.13,85.08,75.41Z" fill="#5dc1d7"/>
      <path id="Trazado_139049" data-name="Trazado 139049" d="M80.61,93.8h4.44c0,1.81.09,3.63,0,5.43a3.79,3.79,0,0,0,1.38,3.59,12.88,12.88,0,0,1-3.87,0,2.17,2.17,0,0,1-2-2.29C80.57,98.25,80.6,96,80.61,93.8Z" fill="#87a0da"/>
      <path id="Trazado_139050" data-name="Trazado 139050" d="M33.74,97c-1.16,1.9-.81,3.86-.2,5.83a18.65,18.65,0,0,1-3.66,0,1.23,1.23,0,0,1-1.27-1.38V98.22A1.21,1.21,0,0,1,30,96.94Z" fill="#1a2b63"/>
      <path id="Trazado_139051" data-name="Trazado 139051" d="M86.92,102.82a.32.32,0,0,1,.19,0Z" fill="#87a0da"/>
      <path id="Trazado_139052" data-name="Trazado 139052" d="M80.62,56.37q0,6.45-.05,12.88v1.46a2.16,2.16,0,0,1-1.41.22H45.23c-1.16,0-1.41-.33-1.41-1.44q.06-26.14,0-52.29a8.63,8.63,0,0,1,.25-2.77H66.32L81,14.46c1.74,0,1.86.13,1.87,1.83,0,2.76.05,5.52.07,8.28a34.941,34.941,0,0,0,0,4.46V48.7c-1.16.45-2.31.92-2.31,2.45C80.59,52.89,80.61,54.63,80.62,56.37ZM61.15,22.88H70.1c1.11-.11,1.74-.71,1.75-1.65s-.64-1.62-1.8-1.73H52.93a6.83,6.83,0,0,0-1.11.09,1.51,1.51,0,0,0-1.38,1.63,1.53,1.53,0,0,0,1.43,1.6,8.17,8.17,0,0,0,1.11.07Zm5.76,9.9h8.17c1.82,0,2.61-.53,2.6-1.73s-.8-1.72-2.62-1.72H58.94a5.35,5.35,0,0,0-1.32.15A1.53,1.53,0,0,0,56.39,31a1.55,1.55,0,0,0,1.14,1.6,3.53,3.53,0,0,0,1.33.16ZM67,46.54h8.61c1.29,0,2-.57,2-1.56a1.779,1.779,0,0,0-2-1.79H58.28a1.758,1.758,0,0,0-2,1.78c0,1.05.77,1.57,2,1.57Zm0,1.29H58.47a2,2,0,0,0-1.38.32,1.61,1.61,0,0,0-.64,1.78,1.81,1.81,0,0,0,2,1.26H75.56c1.4,0,2.14-.64,2.12-1.74s-.75-1.61-2.11-1.62Zm-.17-10.5h8.72c1.32,0,2.07-.62,2.06-1.67S76.94,34,75.62,34H58.4c-1.29,0-2.06.72-2,1.76s.79,1.59,2,1.6c2.84-.02,5.67-.03,8.51-.03ZM67.14,57H58.51c-1.33,0-2.09.6-2.12,1.63s.77,1.73,2.15,1.73h17c1.38,0,2.14-.66,2.11-1.76S76.91,57,75.54,57ZM63.7,65h5.48a1.83,1.83,0,0,0,1.94-1.76,1.91,1.91,0,0,0-1.93-1.67,5.229,5.229,0,0,0-.56,0H58.9a4,4,0,0,0-1.54.23,1.64,1.64,0,0,0-.47,2.7,2.53,2.53,0,0,0,1.78.53ZM46.19,44.39a1.56,1.56,0,0,0-1.38.85A1.58,1.58,0,0,0,45,47.12c.86,1,1.73,2.07,2.65,3a1.62,1.62,0,0,0,2.56,0c1.2-1.28,2.35-2.61,3.47-4a1.62,1.62,0,0,0-.13-2.4,1.64,1.64,0,0,0-2.4.23,11.24,11.24,0,0,0-1.32,1.52c-.61.88-1.11,1-1.76,0a2.17,2.17,0,0,0-1.88-1.08Zm2.61-7.48a1.46,1.46,0,0,0,1.2-.38c1.29-1.44,2.6-2.88,3.82-4.38A1.44,1.44,0,0,0,53.58,30a1.56,1.56,0,0,0-2.23,0,11.549,11.549,0,0,0-1.06,1.15c-1.28,1.43-1.28,1.43-2.62.07a1.76,1.76,0,0,0-2.49-.33,1.7,1.7,0,0,0-.07,2.5c.8,1,1.66,1.91,2.51,2.86a1.54,1.54,0,0,0,1.18.66Zm5.34,21.91a1.58,1.58,0,0,0-1-1.4,1.48,1.48,0,0,0-1.68.16,11.089,11.089,0,0,0-1.16,1.21c-1.32,1.49-1.31,1.49-2.71.1a1.68,1.68,0,1,0-2.5,2.23c.74.89,1.51,1.76,2.29,2.62,1,1.15,2,1.17,3,0s2.07-2.35,3.1-3.54a2.07,2.07,0,0,0,.66-1.38Z" fill="#fdfdfe"/>
      <path id="Trazado_139053" data-name="Trazado 139053" d="M44.08,14.47a8.63,8.63,0,0,0-.25,2.77V69.53c0,1.11.25,1.44,1.41,1.44H79.17a2.16,2.16,0,0,0,1.41-.22v.44H39.35a1.1,1.1,0,0,0,0-.18q0-27.27,0-54.53c0-1.93,0-2,1.93-2Z" fill="#d9e9f9"/>
      <path id="Trazado_139054" data-name="Trazado 139054" d="M19.62,10.64v-4a2.59,2.59,0,0,1,2-.69H60.48c1.64,0,1.93.3,1.93,2V9.74c0,1.21-.4,1.61-1.6,1.62H21.66a2.63,2.63,0,0,1-2.04-.72Z" fill="#fefefe"/>
      <path id="Trazado_139055" data-name="Trazado 139055" d="M27.91,27.83h-6c-.95,0-1.79-.25-2.05-1.34a1.6,1.6,0,0,1,1.07-1.94,1.91,1.91,0,0,1,.33-.06c4.47-.18,8.94-.15,13.4,0a1.54,1.54,0,0,1,1.56,1.7c0,.94-.71,1.6-1.91,1.63-2.12.05-4.24,0-6.37,0Z" fill="#1565b2"/>
      <path id="Trazado_139056" data-name="Trazado 139056" d="M28,54.82H21.73c-1.28,0-1.93-.6-1.93-1.67s.71-1.68,2-1.68H34.22c1.29,0,2.07.74,2,1.76s-.8,1.58-2,1.59Z" fill="#1565b2"/>
      <path id="Trazado_139057" data-name="Trazado 139057" d="M28,19.79h6.16c1.24,0,2,.64,2,1.62a1.73,1.73,0,0,1-2,1.72H21.62c-1.25,0-1.92-.69-1.9-1.72s.66-1.61,2-1.62C23.87,19.78,26,19.79,28,19.79Z" fill="#1565b2"/>
      <path id="Trazado_139058" data-name="Trazado 139058" d="M27.92,59.51H21.76c-1.25,0-2-.61-2-1.64s.7-1.7,1.93-1.7H34.23a1.72,1.72,0,0,1,1.93,1.71c0,1-.78,1.62-2,1.63C32.1,59.52,30,59.51,27.92,59.51Z" fill="#1565b2"/>
      <path id="Trazado_139059" data-name="Trazado 139059" d="M28,42.66h6.16c1.24,0,2,.63,2,1.62A1.73,1.73,0,0,1,34.27,46H21.73c-1.26,0-1.94-.68-1.92-1.71s.66-1.62,2-1.63C23.85,42.65,25.94,42.66,28,42.66Z" fill="#1565b2"/>
      <path id="Trazado_139060" data-name="Trazado 139060" d="M28,60.84h6.16c1.29,0,2.07.69,2,1.72s-.79,1.63-2,1.63H21.74c-1.24,0-2-.65-2-1.67s.69-1.66,1.93-1.67C23.82,60.83,25.91,60.84,28,60.84Z" fill="#1565b2"/>
      <path id="Trazado_139061" data-name="Trazado 139061" d="M27.89,18.47H22.18a5.08,5.08,0,0,1-.78,0,1.65,1.65,0,0,1-1.59-1.8,1.58,1.58,0,0,1,1.72-1.53H34.4a1.68,1.68,0,0,1,1.8,1.61,1.71,1.71,0,0,1-1.82,1.73H27.89Z" fill="#1565b2"/>
      <path id="Trazado_139062" data-name="Trazado 139062" d="M27.93,36.64H21.77c-1.24,0-1.95-.62-2-1.64a1.69,1.69,0,0,1,1.92-1.71H34.23A1.73,1.73,0,0,1,36.2,35c0,1-.77,1.63-2,1.64Z" fill="#1565b2"/>
      <path id="Trazado_139063" data-name="Trazado 139063" d="M27.91,41.33h-6c-1.33,0-2.06-.62-2.07-1.68s.71-1.67,2-1.67H34.15c1.29,0,2.08.68,2.05,1.71s-.77,1.62-2,1.64C32.09,41.35,30,41.33,27.91,41.33Z" fill="#1565b2"/>
      <path id="Trazado_139064" data-name="Trazado 139064" d="M46.51,81.93a2.55,2.55,0,0,1,2.61-2.7,2.88,2.88,0,0,1,2.76,2.69,2.85,2.85,0,0,1-2.74,2.69,2.56,2.56,0,0,1-2.63-2.68Z" fill="#1565b2"/>
      <path id="Trazado_139065" data-name="Trazado 139065" d="M80.54,88v.24a.839.839,0,0,1,0-.17S80.52,88,80.54,88Z" fill="#495f9a"/>
      <path id="Trazado_139066" data-name="Trazado 139066" d="M108.55,56.38H85.05c0-1.26.09-2.53,0-3.79a4,4,0,0,1,1.38-3.74l3.12-.05h4.34l11.19.07c2.78,0,3.52.73,3.51,3.52C108.59,53.69,108.57,55,108.55,56.38Zm-14-2.06h3.58a1.866,1.866,0,0,0,2.06-1.76c-.02-1-.77-1.59-2-1.6H91c-1.32,0-2.12.64-2.12,1.63s.82,1.7,2.09,1.73,2.42,0,3.62,0Z" fill="#aec1eb"/>
      <path id="Trazado_139067" data-name="Trazado 139067" d="M93.89,48.76H89.55V30.4c0-1-.35-1.45-1.37-1.43H82.92a34.938,34.938,0,0,1,0-4.46h8c2.27,0,3,.73,3,3Q93.9,38.17,93.89,48.76Z" fill="#1565b2"/>
      <path id="Trazado_139068" data-name="Trazado 139068" d="M13.56,71.14H10.2c-1.12,0-1.56-.49-1.56-1.58V30.42c0-1.12.43-1.55,1.67-1.6h3.24a5.1,5.1,0,0,0-.44,2.47V68.68a4.94,4.94,0,0,0,.45,2.46Z" fill="#1a2b63"/>
      <path id="Trazado_139069" data-name="Trazado 139069" d="M13.56,71.14a4.94,4.94,0,0,1-.45-2.46q0-18.69,0-37.39a5.1,5.1,0,0,1,.44-2.47h1.28c0,.48.06,1,.06,1.45V71.16Z" fill="#12263f"/>
      <path id="Trazado_139070" data-name="Trazado 139070" d="M89.11,59.93h14.32c1.3,0,1.58.27,1.59,1.57v6.6c0,1.51-.36,1.89-1.92,1.9H89.12a3.87,3.87,0,0,1-.47-2.24q0-3.135,0-6.27a2.22,2.22,0,0,1,.46-1.56Z" fill="#edf5fe"/>
      <path id="Trazado_139071" data-name="Trazado 139071" d="M89.11,59.93a2.22,2.22,0,0,0-.46,1.56q0,3.135,0,6.27A3.87,3.87,0,0,0,89.12,70H85.07a1.73,1.73,0,0,1-.92-1.75q.07-3.36,0-6.71a1.76,1.76,0,0,1,.95-1.84C86.43,59.83,87.79,59.52,89.11,59.93Z" fill="#d9e9f9"/>
      <path id="Trazado_139072" data-name="Trazado 139072" d="M89.57,82c3.15.3,6.32.08,9.47.14,1.52,0,2.12.42,2.18,1.49s-.71,1.83-2.16,1.86H89.57a2.32,2.32,0,0,0-.21-.38c-1-1.2-1-1.44,0-2.62A2.691,2.691,0,0,0,89.57,82Z" fill="#edf5fe"/>
      <path id="Trazado_139073" data-name="Trazado 139073" d="M89.56,72.09h9.28a8.42,8.42,0,0,1,1,.14A1.5,1.5,0,0,1,101.2,74c-.09,1-.74,1.39-1.69,1.39h-10c-1.12-1.48-1.17-2-.29-2.91a2.569,2.569,0,0,0,.34-.39Z" fill="#edf5fe"/>
      <path id="Trazado_139074" data-name="Trazado 139074" d="M89.57,77h9.27a4.5,4.5,0,0,1,1.2.2A1.49,1.49,0,0,1,101.2,79a1.43,1.43,0,0,1-1.6,1.37H91.67c-.7,0-1.4.09-2.1.14a1.05,1.05,0,0,0-.39-.65,1.33,1.33,0,0,1,0-2.18A1,1,0,0,0,89.57,77Z" fill="#edf5fe"/>
      <path id="Trazado_139075" data-name="Trazado 139075" d="M99.18,93.81c.23,3.57.23,3.57-3.25,3.57H91.46a1.394,1.394,0,0,1-1.61-1.53v-2Z" fill="#1565b2"/>
      <path id="Trazado_139076" data-name="Trazado 139076" d="M89.57,77a1,1,0,0,1-.38.66,1.33,1.33,0,0,0,0,2.18,1.05,1.05,0,0,1,.39.65,16.09,16.09,0,0,1-4.49-.18c-1.25-1.26-1.25-2,0-3.13A16.56,16.56,0,0,1,89.57,77Z" fill="#d9e9f9"/>
      <path id="Trazado_139077" data-name="Trazado 139077" d="M89.57,82a2.69,2.69,0,0,1-.24.48c-1,1.18-1,1.42,0,2.62a2.32,2.32,0,0,1,.21.38,16.55,16.55,0,0,1-4.5-.18c-1.24-1.12-1.24-1.87,0-3.13A15.71,15.71,0,0,1,89.57,82Z" fill="#d9e9f9"/>
      <path id="Trazado_139078" data-name="Trazado 139078" d="M89.56,72.09a2.569,2.569,0,0,1-.29.44c-.88.92-.83,1.43.29,2.91a10.57,10.57,0,0,1-4.48,0c-1.24-1.28-1.24-2,0-3.14a17.31,17.31,0,0,1,4.48-.21Z" fill="#d9e9f9"/>
      <path id="Trazado_139079" data-name="Trazado 139079" d="M86.43,48.84a4,4,0,0,0-1.38,3.74c.09,1.26,0,2.53,0,3.79H80.62V51.15c0-1.53,1.15-2,2.31-2.45Z" fill="#87a0da"/>
      <path id="Trazado_139080" data-name="Trazado 139080" d="M86.43,48.84,82.9,48.7V29.03h5.26c1,0,1.37.44,1.37,1.43V48.82Z" fill="#12263f"/>
      <path id="Trazado_139081" data-name="Trazado 139081" d="M61.15,22.88H53a8.17,8.17,0,0,1-1.11-.07,1.53,1.53,0,0,1-1.43-1.6,1.51,1.51,0,0,1,1.38-1.63,6.83,6.83,0,0,1,1.11-.09h17.1c1.16.11,1.82.74,1.8,1.73s-.64,1.54-1.75,1.65h-.9Z" fill="#495f9a"/>
      <path id="Trazado_139082" data-name="Trazado 139082" d="M66.91,32.78h-8a3.53,3.53,0,0,1-1.33-.16A1.55,1.55,0,0,1,56.39,31a1.53,1.53,0,0,1,1.23-1.54,5.35,5.35,0,0,1,1.32-.15H75.06c1.82,0,2.62.53,2.62,1.72s-.78,1.73-2.6,1.73Z" fill="#55bcee"/>
      <path id="Trazado_139083" data-name="Trazado 139083" d="M67,46.54H58.42c-1.26,0-2-.59-2-1.57a1.793,1.793,0,0,1,2-1.78H75.75a1.75,1.75,0,0,1,2,1.79c0,1.07-.75,1.56-2,1.56Z" fill="#55bcee"/>
      <path id="Trazado_139084" data-name="Trazado 139084" d="M67.08,47.83h8.49c1.36,0,2.09.58,2.11,1.62s-.72,1.74-2.12,1.74H58.45a1.81,1.81,0,0,1-2-1.26,1.61,1.61,0,0,1,.64-1.78,2,2,0,0,1,1.38-.32Z" fill="#55bcee"/>
      <path id="Trazado_139085" data-name="Trazado 139085" d="M66.91,37.33h-8.5c-1.23,0-2-.61-2-1.6a1.785,1.785,0,0,1,2-1.76H75.62c1.32,0,2.06.64,2.07,1.69s-.74,1.66-2.06,1.67C72.72,37.34,69.81,37.33,66.91,37.33Z" fill="#55bcee"/>
      <path id="Trazado_139086" data-name="Trazado 139086" d="M67.14,57h8.4c1.37,0,2.12.58,2.14,1.6s-.68,1.8-2.11,1.8h-17c-1.38,0-2.18-.67-2.15-1.73S57.18,57,58.51,57Z" fill="#55bcee"/>
      <path id="Trazado_139087" data-name="Trazado 139087" d="M63.7,65.05h-5a2.53,2.53,0,0,1-1.78-.53,1.64,1.64,0,0,1,.47-2.7,4,4,0,0,1,1.54-.23h9.73a5.232,5.232,0,0,1,.56,0,1.91,1.91,0,0,1,1.93,1.67A1.83,1.83,0,0,1,69.18,65H63.7Z" fill="#55bcee"/>
      <path id="Trazado_139088" data-name="Trazado 139088" d="M46.19,44.39a2.17,2.17,0,0,1,1.88,1.19c.65,1,1.15.87,1.76,0a11.24,11.24,0,0,1,1.32-1.52,1.64,1.64,0,0,1,2.4-.23,1.62,1.62,0,0,1,.13,2.4c-1.12,1.35-2.27,2.68-3.47,4a1.62,1.62,0,0,1-2.56,0c-.92-1-1.79-2-2.65-3a1.58,1.58,0,0,1-.19-1.88,1.56,1.56,0,0,1,1.38-.96Z" fill="#149492"/>
      <path id="Trazado_139089" data-name="Trazado 139089" d="M48.8,36.91a1.54,1.54,0,0,1-1.18-.61c-.85-.95-1.71-1.88-2.51-2.86a1.7,1.7,0,0,1,.07-2.5,1.76,1.76,0,0,1,2.49.33C49,32.63,49,32.63,50.29,31.2a11.55,11.55,0,0,1,1.06-1.15,1.56,1.56,0,0,1,2.23,0,1.44,1.44,0,0,1,.26,2.11c-1.22,1.5-2.53,2.94-3.82,4.38a1.46,1.46,0,0,1-1.22.37Z" fill="#149492"/>
      <path id="Trazado_139090" data-name="Trazado 139090" d="M54.14,58.82a2.07,2.07,0,0,1-.6,1.41c-1,1.19-2,2.38-3.1,3.54s-2,1.12-3,0c-.78-.86-1.55-1.73-2.29-2.62a1.68,1.68,0,1,1,2.5-2.23c1.4,1.39,1.39,1.39,2.71-.1a11.09,11.09,0,0,1,1.16-1.21,1.48,1.48,0,0,1,1.68-.16,1.58,1.58,0,0,1,.94,1.37Z" fill="#149492"/>
      <path id="Trazado_139091" data-name="Trazado 139091" d="M94.59,54.32H91a1.878,1.878,0,0,1-2.09-1.73C88.9,51.58,89.71,51,91,51h7.2c1.26,0,2,.62,2,1.6a1.885,1.885,0,0,1-2.06,1.76C96.91,54.39,95.78,54.32,94.59,54.32Z" fill="#1565b2"/>
    </g>
  </g>
</svg>
