<svg xmlns="http://www.w3.org/2000/svg" width="120" height="120" viewBox="0 0 120 120">
  <g id="img9" transform="translate(-0.48)">
    <rect id="Rectángulo_36215" data-name="Rectángulo 36215" width="120" height="120" transform="translate(0.48)" fill="none"/>
    <circle id="Elipse_6748" data-name="Elipse 6748" cx="54.76" cy="54.76" r="54.76" transform="translate(5.24 5.24)" fill="#039be5"/>
    <g id="Grupo_83983" data-name="Grupo 83983">
      <path id="Trazado_138884" data-name="Trazado 138884" d="M32.07,1c1.16.27,2.32.51,3.47.81a23.32,23.32,0,0,1,7.69,4c.21.2.42.42.64.62a21.2,21.2,0,0,1,2.92,28.44,22.53,22.53,0,0,1-8.85,7A29.591,29.591,0,0,0,34.35,41V38.74a1.26,1.26,0,0,1,1-1.49A14.13,14.13,0,0,0,43.1,29.8c.29-.62.56-1,1.32-.86a2.77,2.77,0,0,0,2.2-.71c1.49-1.28,1.27-3,1.05-4.64a2.87,2.87,0,0,0-2.37-2.45.89.89,0,0,1-.81-1.09,25.861,25.861,0,0,0-.15-3.73c-.07-.86-.32-1.28-1.29-1.23-1.66.08-3.33,0-5,0A1.82,1.82,0,0,1,36,13.88c-.47-1.19-1.12-2.31-1.69-3.46-.22-.43-.41-.94-1.05-.85s-.66.6-.73,1.1c-.15,1.12-.34,2.24-.5,3.36a1.11,1.11,0,0,1-1.27,1.1H15.35A24.73,24.73,0,0,1,19.57,4.41c.21-.29.56-.55.41-1v.08l.26-.21a20,20,0,0,1,6.25-2c.2,0,.46.06.56-.24Z" fill="#463b83"/>
      <path id="Trazado_138885" data-name="Trazado 138885" d="M58.84,3.54A55,55,0,0,1,77.93,6.91c-.34.35-.68.7-1,1.06a13.73,13.73,0,0,0-4,9.16,23.429,23.429,0,0,0,0,2.37c.05.82-.12,1.27-1,1.51a3,3,0,0,0-2.31,2.78c-.15,1.74-.24,3.54,1.57,4.63a2.48,2.48,0,0,0,1.72.47c.79-.15,1.12.23,1.43.9a12.15,12.15,0,0,0,6.46,6.69c2.38.92,2.62,2.35,2.32,4.38a16.15,16.15,0,0,0-13.54,12c-.63,2.5-.34,5-.47,7.54H58.84V3.54Z" fill="#039be5"/>
      <path id="Trazado_138886" data-name="Trazado 138886" d="M58.84,60.39H69l6.57.07c-.21.26-.42.53-.64.78a13.42,13.42,0,0,0-3.44,8.62c0,1.06.34,1.66,1.42,1.76,0,.94-.12,1.89-.06,2.82.07,1.12,0,2-1.4,2.23-.82.13-1.35.91-1.71,1.69a5.72,5.72,0,0,0-.26,2.56,3.3,3.3,0,0,0,3.21,3.48l1.1-.08A14.92,14.92,0,0,0,83,93.14v3.15l-1,.22c-6.47,1.45-10.58,5.43-12.49,11.73-.8,2.61-.38,5.32-.48,8a49.82,49.82,0,0,1-10.2.91Z" fill="#36dac9"/>
      <path id="Trazado_138887" data-name="Trazado 138887" d="M83,40.86c.3-2,.06-3.46-2.32-4.38a12.15,12.15,0,0,1-6.46-6.69c-.31-.67-.64-1.05-1.43-.9a2.48,2.48,0,0,1-1.72-.47c-1.81-1.09-1.72-2.89-1.57-4.63A3,3,0,0,1,71.84,21c.92-.24,1.09-.69,1-1.51a23.682,23.682,0,0,1,0-2.38c.44,0,.66-.32.91-.59a13.93,13.93,0,0,1,3.82-2.78A20.5,20.5,0,0,1,89.39,11.4a21.84,21.84,0,0,1,9.07,2.8c1.42.81,2.49,2,3.85,2.9v3c0,.35,0,.6.45.77,2.8,1.1,3.72,3.43,2.48,6.21-.06.13-.12.27-.17.41a3.64,3.64,0,0,1-2.75,1.37,1.5,1.5,0,0,0-1.55,1.08c-1.36,2.8-3.29,5.26-6.18,6.37-2.46.94-2.74,2.45-2.42,4.57A4.57,4.57,0,0,1,89,45.45a4.51,4.51,0,0,1-5.19-1.79,5.4,5.4,0,0,1-.81-2.8ZM81.87,17.43a1.72,1.72,0,0,0-2.49,1A1.83,1.83,0,0,0,80,20.69a1.8,1.8,0,0,0,2.3.22c.59-.41,1.22-.92.8-1.83.48-.44.75-.94.27-1.53a1,1,0,0,0-1.5-.12Zm13.91,1.66c.49-.45.76-1,.27-1.56s-1-.41-1.56,0c-.62-.61-1.42-.48-2.08.37a1.83,1.83,0,0,0,0,2.47,1.81,1.81,0,0,0,2.4.61C95.53,20.61,96.2,20.1,95.78,19.09Z" fill="#a85947"/>
      <path id="Trazado_138888" data-name="Trazado 138888" d="M58.84,60.39v56.74a44.741,44.741,0,0,1-10.52-.93c-.1-1.7.23-3.41-.11-5.11-.05-.56-.06-1.13-.16-1.68a16.42,16.42,0,0,0-6-9.91h1.14a2.38,2.38,0,0,0,2.63-2.58V84.22c2.83-2.06,2.84-5.63,0-7.59a31.74,31.74,0,0,0-.46-7.66,17.21,17.21,0,0,0-5.13-8.48l8.06-.1H58.88Z" fill="#68c3ef"/>
      <path id="Trazado_138889" data-name="Trazado 138889" d="M58.88,60.36H48.3c.13-3.34.06-6.64-1.32-9.77a16.66,16.66,0,0,0-9-8.73,22.53,22.53,0,0,0,8.85-7A21.2,21.2,0,0,0,43.87,6.38c-.22-.2-.43-.42-.64-.62A40.19,40.19,0,0,1,51.55,4a38.61,38.61,0,0,1,7.29-.44V58.89C58.84,59.38,58.87,59.87,58.88,60.36Z" fill="#4480bf"/>
      <path id="Trazado_138890" data-name="Trazado 138890" d="M115.6,60.35a55.91,55.91,0,0,1-10.95,33.59,42.24,42.24,0,0,1-4.75,5.6,16.08,16.08,0,0,0-7.67-3.11V93.94A1,1,0,0,1,93,92.7a13.79,13.79,0,0,0,4.76-3,18.62,18.62,0,0,0,3.74-5.46,2.79,2.79,0,0,0,1.22.12c2-.3,3-1.6,3-3.87,0-2.65-.89-3.79-3.27-4.17l-.19-4.79c1.18,0,1.51-.72,1.52-1.79,0-3.11-.14-6.22.08-9.33l2.34-.06Z" fill="#36dac9"/>
      <path id="Trazado_138891" data-name="Trazado 138891" d="M115.6,60.35h-9.45a46.743,46.743,0,0,0-.11-5.42,16,16,0,0,0-13.82-14c-.32-2.12,0-3.63,2.42-4.57,2.89-1.11,4.82-3.57,6.18-6.37.34-.7.66-1.12,1.55-1.08a3.64,3.64,0,0,0,2.75-1.37,54.49,54.49,0,0,1,9.08,20.05,52.83,52.83,0,0,1,1.4,12.76Z" fill="#039be5"/>
      <path id="Trazado_138892" data-name="Trazado 138892" d="M13.63,94.69a48.23,48.23,0,0,1-6.05-9.77A56.85,56.85,0,0,1,2,60.37h9.2l8,.06c-.22.25-.42.52-.66.75A16.21,16.21,0,0,0,14.05,69c-.61,2.49-.34,5-.39,7.53a3.45,3.45,0,0,0-2,2.57c-.24,2-.1,4,2,5.15Z" fill="#68c3ef"/>
      <path id="Trazado_138893" data-name="Trazado 138893" d="M11.2,60.37H2A56.84,56.84,0,0,1,6.75,37.6a42.06,42.06,0,0,1,3.54-6.66c.72,1.19,1.37,2.42,2.15,3.57a22.27,22.27,0,0,0,9,7.34c-.3.15-.59.32-.89.46a16.2,16.2,0,0,0-8.7,9.88C11,54.88,11.28,57.63,11.2,60.37Z" fill="#4480bf"/>
      <path id="Trazado_138894" data-name="Trazado 138894" d="M92.23,96.43a16.08,16.08,0,0,1,7.67,3.11,47.94,47.94,0,0,1-23.33,15c-.52-6.52,1.58-11.94,6.81-16,1.55,2.24,3.24,3,5.39,2.49C90.74,100.55,92,98.92,92.23,96.43Z" fill="#0fd0b2"/>
      <path id="Trazado_138895" data-name="Trazado 138895" d="M21.46,41.85a22.27,22.27,0,0,1-9-7.34c-.78-1.15-1.43-2.38-2.15-3.57a22.16,22.16,0,0,1-1.78-9.56c.57-8,4.28-14.13,11.47-18,.15.45-.2.71-.41,1A24.73,24.73,0,0,0,15.32,15.1a17.34,17.34,0,0,0-.3,4.6c0,.82-.11,1.26-1,1.48A2.94,2.94,0,0,0,11.68,24c-.15,1.84-.14,3.67,1.87,4.67a2.21,2.21,0,0,0,1.51.31c.71-.2,1,.12,1.23.72a14.51,14.51,0,0,0,7.84,7.58c1.18.5,1.54,2.85.58,3.77a24,24,0,0,0-3.25.8Z" fill="#042f4f"/>
      <path id="Trazado_138896" data-name="Trazado 138896" d="M102.31,17.1c-1.36-.87-2.43-2.09-3.85-2.9a21.84,21.84,0,0,0-9.07-2.8,20.5,20.5,0,0,0-11.74,2.35,13.93,13.93,0,0,0-3.82,2.78c-.25.27-.47.61-.91.59a13.72,13.72,0,0,1,4-9.15c.33-.36.67-.71,1-1.06a14.8,14.8,0,0,1,22.61,4.17,13.7,13.7,0,0,1,1.78,6.02Z" fill="#68392b"/>
      <path id="Trazado_138897" data-name="Trazado 138897" d="M48.21,111.09c.34,1.7,0,3.41.11,5.11A55.54,55.54,0,0,1,27,107.45a49.481,49.481,0,0,1-9.34-8l1.91-1.35c1.82-.73,3.6-1.62,5.63-1.65-.07,2.52,1.22,4,4.11,4.82.24.28.46.59.73.85a57.64,57.64,0,0,0,15.69,10.45C48.26,113.71,48.24,113.77,48.21,111.09Z" fill="#042f4f"/>
      <path id="Trazado_138898" data-name="Trazado 138898" d="M83.38,98.54c-5.23,4.08-7.33,9.5-6.81,16A34.13,34.13,0,0,1,69,116.22c.1-2.66-.32-5.37.48-8,1.91-6.3,6-10.28,12.49-11.73l1-.22a9.459,9.459,0,0,0,.41,2.27Z" fill="#0298af"/>
      <path id="Trazado_138899" data-name="Trazado 138899" d="M19.6,98.11l-1.91,1.35c-3.13.22-4.24-.45-4-3.87a6.79,6.79,0,0,0,0-.9c0-3.48,0-7,0-10.43a5.83,5.83,0,0,0,2.28,0,18.06,18.06,0,0,0,3.41,5.38q0,1.41,0,2.82C19.46,94.37,19.15,96.26,19.6,98.11Z" fill="#faf299"/>
      <path id="Trazado_138900" data-name="Trazado 138900" d="M20.27,3.28,20,3.49C20,3.29,20.14,3.29,20.27,3.28Z" fill="#042f4f"/>
      <path id="Trazado_138901" data-name="Trazado 138901" d="M24.71,41.08a2.6,2.6,0,0,0-.58-3.77,14.51,14.51,0,0,1-7.84-7.58c-.27-.6-.52-.92-1.23-.72a2.21,2.21,0,0,1-1.51-.31c-2-1-2-2.83-1.87-4.67A2.94,2.94,0,0,1,14,21.18c.9-.22,1.05-.66,1-1.48a17.34,17.34,0,0,1,.3-4.6H30.71A1.11,1.11,0,0,0,32,14c.16-1.12.35-2.24.5-3.36.07-.5.08-1,.73-1.1s.83.42,1.05.85c.57,1.15,1.22,2.27,1.69,3.46a1.82,1.82,0,0,0,2.09,1.25c1.66-.08,3.33,0,5,0,1-.05,1.22.37,1.29,1.23a25.861,25.861,0,0,1,.15,3.73.89.89,0,0,0,.81,1.09,2.87,2.87,0,0,1,2.37,2.45c.22,1.63.44,3.36-1.05,4.64a2.77,2.77,0,0,1-2.2.71c-.76-.11-1,.24-1.32.86a14.13,14.13,0,0,1-7.82,7.48,1.26,1.26,0,0,0-1,1.49c.06.75,0,1.51,0,2.26-.16,2.57-1.8,4.47-3.88,4.69a4.42,4.42,0,0,1-5.22-4,.68.68,0,0,0-.48-.65Zm.76-21.93c.5-1.39.17-1.83-1.34-1.79a5.53,5.53,0,0,0-.91,0,1.81,1.81,0,0,0-1.8,1.58,2,2,0,0,0,3.4,1.78,2.87,2.87,0,0,0,.65-1.57Zm12.71,0c.5-1.39.18-1.83-1.34-1.79a4.17,4.17,0,0,0-.79,0,1.92,1.92,0,0,0-1.95,1.93A2.06,2.06,0,0,0,36,21.36c1.13.05,1.9-.74,2.18-2.21Z" fill="#e1ab6d"/>
      <path id="Trazado_138902" data-name="Trazado 138902" d="M24.71,41.08a.68.68,0,0,1,.54.63,4.42,4.42,0,0,0,5.22,4c2.08-.22,3.72-2.12,3.88-4.69a29.589,29.589,0,0,1,3.59.82,16.66,16.66,0,0,1,9,8.73c1.38,3.13,1.45,6.43,1.32,9.77l-8.06.1a21.09,21.09,0,0,0-3.55-2.22c-1.62-.68-3.22-1.48-5.07-1.23a.42.42,0,0,0-.45-.4,29.172,29.172,0,0,0-3.37.08,17.56,17.56,0,0,0-8.64,3.75l-8-.06c.08-2.74-.21-5.49.67-8.18a16.2,16.2,0,0,1,8.7-9.88c.3-.14.59-.31.89-.46a24,24,0,0,1,3.33-.76Z" fill="#ffecb1"/>
      <path id="Trazado_138903" data-name="Trazado 138903" d="M83,40.86a5.4,5.4,0,0,0,.73,2.8A13.82,13.82,0,0,0,79.09,49a18.6,18.6,0,0,0-1.85,10.06l-1.65,1.37L69,60.38c.13-2.52-.16-5,.47-7.54A16.15,16.15,0,0,1,83,40.86Z" fill="#0298af"/>
      <path id="Trazado_138904" data-name="Trazado 138904" d="M83.38,98.54A9.46,9.46,0,0,1,83,96.29q0-1.575,0-3.15l3.1.56a5,5,0,0,0,2.55-.14,13.77,13.77,0,0,1-4.4-1.81A13.69,13.69,0,0,1,77,79.89,64.733,64.733,0,0,1,77.2,70c.87-.65,1.78-1.26,2.59-2a1.16,1.16,0,0,1,1.49-.21,14.32,14.32,0,0,0,12.64,0,1.07,1.07,0,0,1,1.39.17,14.5,14.5,0,0,0,6.17,3.17c.31.07.59.13.73.45.07,1.59.13,3.19.19,4.79a24.09,24.09,0,0,1-.91,7.92,18.62,18.62,0,0,1-3.74,5.46,13.79,13.79,0,0,1-4.76,3,1,1,0,0,0-.81,1.24c.06.83,0,1.66,0,2.49-.26,2.49-1.49,4.12-3.46,4.6C86.62,101.56,84.93,100.78,83.38,98.54ZM94.53,72.69a6.639,6.639,0,0,0-1,0,2,2,0,1,0,.87,3.89,2.14,2.14,0,0,0,1.63-2C96.56,73.11,96.25,72.72,94.53,72.69Zm-12.71,0a6.909,6.909,0,0,0-1,0,2,2,0,1,0,1,3.87,2.17,2.17,0,0,0,1.56-2C83.86,73.11,83.55,72.72,81.82,72.69Zm5.8,15.21a7.25,7.25,0,0,0,4.62-2c.38-.39.59-.8.19-1.29A1,1,0,0,0,91,84.46c-2.26,1.74-4.48,2-6.74,0A1,1,0,1,0,83,86,7.41,7.41,0,0,0,87.62,87.9Zm.09-7a5.38,5.38,0,0,0,2.19-.84,1.11,1.11,0,0,0,.34-1.59,1,1,0,0,0-1.41-.16,1.91,1.91,0,0,1-2.56,0,1,1,0,0,0-1.39.28c-.36.51-.07.89.28,1.29a4,4,0,0,0,2.55,1.01Z" fill="#f6e4cb"/>
      <path id="Trazado_138905" data-name="Trazado 138905" d="M102.21,71.54c-.14-.32-.42-.38-.73-.45a14.5,14.5,0,0,1-6.17-3.17,1.07,1.07,0,0,0-1.39-.17,14.32,14.32,0,0,1-12.64,0,1.16,1.16,0,0,0-1.49.21c-.81.72-1.72,1.33-2.59,2l-4.27,1.66c-1.08-.1-1.45-.7-1.42-1.76A13.42,13.42,0,0,1,75,61.23c.22-.25.43-.52.64-.78l1.65-1.37a13.7,13.7,0,0,1,7.17-2.46c5.92-.07,11.85,0,17.78,0a1.365,1.365,0,0,1,1.52,1.54,9.41,9.41,0,0,0,.1,2.25c-.22,3.11,0,6.22-.08,9.33C103.72,70.82,103.39,71.51,102.21,71.54Z" fill="#f1a93a"/>
      <path id="Trazado_138906" data-name="Trazado 138906" d="M72.93,71.61,77.2,70a64.732,64.732,0,0,0-.2,9.89,13.69,13.69,0,0,0,7.25,11.86,13.77,13.77,0,0,0,4.4,1.81,5,5,0,0,1-2.55.14L83,93.14a14.92,14.92,0,0,1-9.21-8.83,16.87,16.87,0,0,1-.91-6.42c0-.41.25-1.1-.25-1.18s-.63.63-.86,1.05a1.35,1.35,0,0,0-.21.64c0,2.06-.54,4.24,1.13,6a3.3,3.3,0,0,1-3.21-3.48,5.72,5.72,0,0,1,.26-2.56c.36-.78.89-1.56,1.71-1.69,1.45-.24,1.47-1.11,1.4-2.23C72.81,73.5,72.9,72.55,72.93,71.61Z" fill="#e9bfb4"/>
      <path id="Trazado_138907" data-name="Trazado 138907" d="M72.71,84.39c-1.67-1.75-1.1-3.93-1.13-6a1.35,1.35,0,0,1,.21-.64c.23-.42.4-1.13.86-1.05s.27.77.25,1.18a16.87,16.87,0,0,0,.91,6.42Z" fill="#f6e4cb"/>
      <path id="Trazado_138908" data-name="Trazado 138908" d="M103.81,60.42a9.41,9.41,0,0,1-.1-2.25,1.352,1.352,0,0,0-1.52-1.54c-5.93,0-11.86-.08-17.78,0a13.7,13.7,0,0,0-7.17,2.46A18.6,18.6,0,0,1,79.09,49a13.82,13.82,0,0,1,4.67-5.36A4.51,4.51,0,0,0,89,45.45a4.57,4.57,0,0,0,3.27-4.54,16,16,0,0,1,13.82,14,46.739,46.739,0,0,1,.11,5.42Z" fill="#03bcd5"/>
      <path id="Trazado_138909" data-name="Trazado 138909" d="M95.78,19.09c.42,1-.25,1.52-1,1.91a1.81,1.81,0,0,1-2.4-.61,1.83,1.83,0,0,1,0-2.47c.66-.85,1.46-1,2.08-.37C94.16,18.77,94.49,19.16,95.78,19.09Z" fill="#68392b"/>
      <path id="Trazado_138910" data-name="Trazado 138910" d="M83.07,19.08c.42.91-.21,1.42-.8,1.83a1.8,1.8,0,0,1-2.3-.22,1.83,1.83,0,0,1-.59-2.23,1.72,1.72,0,0,1,2.49-1C81.32,18.66,81.7,19.18,83.07,19.08Z" fill="#68392b"/>
      <path id="Trazado_138911" data-name="Trazado 138911" d="M83.07,19.08c-1.37.1-1.75-.42-1.2-1.65a1,1,0,0,1,1.47.12C83.82,18.14,83.55,18.64,83.07,19.08Z" fill="#faf5e6"/>
      <path id="Trazado_138912" data-name="Trazado 138912" d="M95.78,19.09c-1.29.07-1.62-.32-1.29-1.54.52-.43,1.06-.62,1.56,0S96.27,18.64,95.78,19.09Z" fill="#faf5e6"/>
      <path id="Trazado_138913" data-name="Trazado 138913" d="M31.62,57c1.85-.25,3.45.55,5.07,1.23a21.09,21.09,0,0,1,3.55,2.22,17.21,17.21,0,0,1,5.13,8.48,31.74,31.74,0,0,1,.46,7.66,2.42,2.42,0,0,1-1.27-.22,37.269,37.269,0,0,0-.24-4.84c-.07-.54-.1-1.07-.84-1.09A9.28,9.28,0,0,1,36,66.37c-.34-.45-.61-.54-1.09-.1a15.33,15.33,0,0,1-4.51,2.94,14.73,14.73,0,0,1-10.65.54,15.46,15.46,0,0,1,6.05-9.83A20.43,20.43,0,0,1,31.62,57Z" fill="#faf5e6"/>
      <path id="Trazado_138914" data-name="Trazado 138914" d="M48.21,111.09c0,2.68,0,2.62-2.45,1.49a57.64,57.64,0,0,1-15.69-10.45c-.27-.26-.49-.57-.73-.85,3.49-.55,4.82-1.87,5-5a17.22,17.22,0,0,1,7.71,3.18,16.42,16.42,0,0,1,6,9.91C48.15,110,48.16,110.53,48.21,111.09Z" fill="#463b83"/>
      <path id="Trazado_138915" data-name="Trazado 138915" d="M42.06,99.5a17.22,17.22,0,0,0-7.71-3.18,10.27,10.27,0,0,0,0-1.57c-.22-1.35.39-1.91,1.63-2.4a13.29,13.29,0,0,0,5.21-4c1.06-1.25,1.58-2.8,2.51-4.11a7.68,7.68,0,0,0,2.14-.06q0,6.345,0,12.7a2.38,2.38,0,0,1-2.63,2.58Z" fill="#faf5e6"/>
      <path id="Trazado_138916" data-name="Trazado 138916" d="M45.81,84.18a7.68,7.68,0,0,1-2.14.06,26.74,26.74,0,0,0,.89-7.87,2.42,2.42,0,0,0,1.27.22C48.65,78.55,48.64,82.12,45.81,84.18Z" fill="#e1ab6d"/>
      <path id="Trazado_138917" data-name="Trazado 138917" d="M101.49,84.25a24.09,24.09,0,0,0,.91-7.92c2.38.38,3.28,1.52,3.27,4.17,0,2.27-1,3.57-3,3.87a2.79,2.79,0,0,1-1.18-.12Z" fill="#e9bfb4"/>
      <path id="Trazado_138918" data-name="Trazado 138918" d="M31.62,57a20.43,20.43,0,0,0-5.78,2.92,15.46,15.46,0,0,0-6.05,9.83h-.25a7.22,7.22,0,0,1-2.68-1.11c-.79-.57-.94-.21-1.19.49-.81,2.33-.57,4.74-.63,7.13l-1.38.25c.05-2.51-.22-5,.39-7.53a16.21,16.21,0,0,1,4.45-7.83c.24-.23.44-.5.66-.75a17.56,17.56,0,0,1,8.64-3.75,29.171,29.171,0,0,1,3.37-.08.42.42,0,0,1,.45.43Z" fill="#faf299"/>
      <path id="Trazado_138919" data-name="Trazado 138919" d="M13.66,76.54,15,76.29c.05,2.7-.18,5.43.92,8a5.83,5.83,0,0,1-2.28,0c-2.09-1.16-2.23-3.11-2-5.15a3.45,3.45,0,0,1,2.02-2.6Z" fill="#e9bfb4"/>
      <path id="Trazado_138920" data-name="Trazado 138920" d="M19.54,69.78h.25a14.73,14.73,0,0,0,10.65-.54A15.33,15.33,0,0,0,35,66.27c.48-.44.75-.35,1.09.1a9.28,9.28,0,0,0,7.44,4.07c.74,0,.77.55.84,1.09a37.27,37.27,0,0,1,.24,4.84,26.74,26.74,0,0,1-.89,7.87c-.93,1.31-1.45,2.86-2.51,4.11a13.29,13.29,0,0,1-5.21,4c-1.24.49-1.85,1.05-1.63,2.4a10.27,10.27,0,0,1,0,1.57c-.19,3.09-1.52,4.41-5,5-2.89-.79-4.18-2.3-4.11-4.82V93.16a14.69,14.69,0,0,0,5.8.51,3.3,3.3,0,0,0-.54-.25,14.39,14.39,0,0,1-9.62-7.2,15.72,15.72,0,0,1-1.84-6.89A37.84,37.84,0,0,1,19.54,69.78Zm18.63,4.78c.53-1.45.22-1.86-1.41-1.86h-.79a1.92,1.92,0,0,0-1.86,2,2,2,0,0,0,1.89,2C37.09,76.76,37.83,76,38.17,74.56Zm-12.7,0c.44-1.56.2-1.89-1.39-1.86h-.9a1.92,1.92,0,0,0-1.78,2.07,2,2,0,0,0,2,1.93c.99.02,1.66-.7,2.07-2.12Zm4.32,13.3a7.25,7.25,0,0,0,4.32-1.71c.44-.4,1-.84.45-1.51s-1.09-.39-1.7,0c-2.56,1.69-3.79,1.65-6.36-.14-.51-.35-1.14-.46-1.52.06a1.08,1.08,0,0,0,.24,1.53,7.53,7.53,0,0,0,4.57,1.79Zm2.73-8.78c0-.81-.63-1.32-1.36-.86a2.24,2.24,0,0,1-2.88,0,.87.87,0,0,0-1.21.28.85.85,0,0,0,.13,1.2,3.33,3.33,0,0,0,3.71.86c.7-.25,1.57-.43,1.61-1.46Z" fill="#e9bfb4"/>
      <path id="Trazado_138921" data-name="Trazado 138921" d="M25.25,93.12v3.34c-2,0-3.81.92-5.63,1.65-.45-1.85-.14-3.74-.22-5.61V89.68a22.4,22.4,0,0,0,5.85,3.44Z" fill="#faf5e6"/>
      <path id="Trazado_138922" data-name="Trazado 138922" d="M25.25,93.12a22.4,22.4,0,0,1-5.88-3.44A18.06,18.06,0,0,1,16,84.3c-1.1-2.58-.87-5.31-.92-8,.06-2.39-.18-4.8.63-7.13.25-.7.4-1.06,1.19-.49a7.22,7.22,0,0,0,2.68,1.11,37.84,37.84,0,0,0-.49,9.51,15.72,15.72,0,0,0,1.84,6.89,14.39,14.39,0,0,0,9.62,7.2,3.3,3.3,0,0,1,.54.25A14.69,14.69,0,0,1,25.25,93.12Z" fill="#e1ab6d"/>
      <path id="Trazado_138923" data-name="Trazado 138923" d="M38.18,19.15c-.28,1.47-1,2.26-2.14,2.21a2.06,2.06,0,0,1-1.94-2.11,1.92,1.92,0,0,1,1.95-1.93h.79c-.26.48-.63.95-.19,1.53S37.63,19.27,38.18,19.15Z" fill="#68392b"/>
      <path id="Trazado_138924" data-name="Trazado 138924" d="M25.47,19.15a2.87,2.87,0,0,1-.65,1.54,2,2,0,0,1-3.4-1.78,1.81,1.81,0,0,1,1.8-1.58h.91c-.27.48-.62.92-.22,1.53S24.94,19.14,25.47,19.15Z" fill="#68392b"/>
      <path id="Trazado_138925" data-name="Trazado 138925" d="M38.18,19.15c-.55.12-1.1.32-1.53-.26s-.07-1.05.19-1.53C38.36,17.32,38.68,17.76,38.18,19.15Z" fill="#faf5e6"/>
      <path id="Trazado_138926" data-name="Trazado 138926" d="M25.47,19.15c-.53,0-1.11.44-1.56-.26s-.05-1.05.22-1.53C25.64,17.32,26,17.76,25.47,19.15Z" fill="#faf5e6"/>
      <path id="Trazado_138927" data-name="Trazado 138927" d="M87.62,87.9A7.41,7.41,0,0,1,83,86a1,1,0,1,1,1.31-1.51c2.26,2,4.48,1.74,6.74,0a1,1,0,0,1,1.41.18c.4.49.19.9-.19,1.29a7.25,7.25,0,0,1-4.65,1.94Z" fill="#e9bfb4"/>
      <path id="Trazado_138928" data-name="Trazado 138928" d="M87.71,80.89a4,4,0,0,1-2.55-1c-.35-.4-.64-.78-.28-1.29a1,1,0,0,1,1.39-.28,1.91,1.91,0,0,0,2.56,0,1,1,0,0,1,1.41.16,1.11,1.11,0,0,1-.34,1.59,5.38,5.38,0,0,1-2.19.82Z" fill="#e9bfb4"/>
      <path id="Trazado_138929" data-name="Trazado 138929" d="M83.31,74.59a2.17,2.17,0,0,1-1.56,2,2,2,0,1,1-1-3.87,6.909,6.909,0,0,1,1,0C81.4,74.36,81.64,74.67,83.31,74.59Z" fill="#463b83"/>
      <path id="Trazado_138930" data-name="Trazado 138930" d="M96,74.58a2.14,2.14,0,0,1-1.63,2,2,2,0,1,1-.87-3.89,6.639,6.639,0,0,1,1,0C93.92,74.45,94.83,74.89,96,74.58Z" fill="#463b83"/>
      <path id="Trazado_138931" data-name="Trazado 138931" d="M96,74.58c-1.2.31-2.11-.13-1.5-1.89C96.25,72.72,96.56,73.11,96,74.58Z" fill="#faf5e6"/>
      <path id="Trazado_138932" data-name="Trazado 138932" d="M83.31,74.59c-1.67.08-1.91-.23-1.49-1.9C83.55,72.72,83.86,73.11,83.31,74.59Z" fill="#faf5e6"/>
      <path id="Trazado_138933" data-name="Trazado 138933" d="M29.79,87.88a7.53,7.53,0,0,1-4.57-1.77A1.08,1.08,0,0,1,25,84.58c.38-.52,1-.41,1.52-.06,2.57,1.79,3.8,1.83,6.36.14.61-.39,1.17-.64,1.7,0s0,1.11-.45,1.51a7.25,7.25,0,0,1-4.34,1.71Z" fill="#e1ab6d"/>
      <path id="Trazado_138934" data-name="Trazado 138934" d="M32.52,79.1c0,1-.91,1.21-1.61,1.49a3.33,3.33,0,0,1-3.71-.86.85.85,0,0,1-.13-1.2.87.87,0,0,1,1.21-.28,2.24,2.24,0,0,0,2.88,0C31.89,77.78,32.54,78.29,32.52,79.1Z" fill="#e1ab6d"/>
      <path id="Trazado_138935" data-name="Trazado 138935" d="M25.47,74.58c-.41,1.46-1.08,2.14-2.1,2.12a2,2,0,0,1-2-1.93,1.92,1.92,0,0,1,1.78-2.07h.9C23.38,74.21,23.74,74.7,25.47,74.58Z" fill="#463b83"/>
      <path id="Trazado_138936" data-name="Trazado 138936" d="M38.17,74.56c-.34,1.47-1.08,2.2-2.17,2.13a2,2,0,0,1-1.89-2,1.92,1.92,0,0,1,1.86-2h.79C36,74.14,36.8,75,38.17,74.56Z" fill="#463b83"/>
      <path id="Trazado_138937" data-name="Trazado 138937" d="M38.17,74.56c-1.37.4-2.19-.42-1.41-1.86C38.39,72.7,38.7,73.11,38.17,74.56Z" fill="#faf5e6"/>
      <path id="Trazado_138938" data-name="Trazado 138938" d="M25.47,74.58c-1.73.12-2.09-.37-1.39-1.86C25.67,72.69,25.91,73,25.47,74.58Z" fill="#faf5e6"/>
    </g>
  </g>
</svg>
