<svg xmlns="http://www.w3.org/2000/svg" xmlns:xlink="http://www.w3.org/1999/xlink" width="87.28" height="87.28" viewBox="0 0 87.28 87.28">
  <defs>
    <linearGradient id="linear-gradient" x1="0.816" y1="0.113" x2="0.184" y2="0.887" gradientUnits="objectBoundingBox">
      <stop offset="0" stop-color="#fff"/>
      <stop offset="0.51" stop-color="#fdfdfd"/>
      <stop offset="0.7" stop-color="#f6f6f6"/>
      <stop offset="0.83" stop-color="#ebebeb"/>
      <stop offset="0.86" stop-color="#e6e6e6"/>
    </linearGradient>
  </defs>
  <g id="num3" transform="translate(-53.93 -28.51)">
    <g id="Grupo_85013" data-name="Grupo 85013" opacity="0.37">
      <path id="Trazado_142548" data-name="Trazado 142548" d="M96.57,36.51A36.64,36.64,0,1,1,59.93,73.15,36.64,36.64,0,0,1,96.57,36.51m0-6a42.64,42.64,0,1,0,42.64,42.64A42.64,42.64,0,0,0,96.57,30.51Z" fill="#15315e"/>
    </g>
    <g id="Grupo_85428" data-name="Grupo 85428">
      <circle id="Elipse_6786" data-name="Elipse 6786" cx="36.84" cy="36.84" r="36.84" transform="translate(61.79 34.31)" fill="#ffa726"/>
      <path id="Trazado_144185" data-name="Trazado 144185" d="M17.4-9.709q0,4.871-2.016,7.451a7.037,7.037,0,0,1-5.9,2.58A7.086,7.086,0,0,1,3.613-2.21Q1.581-4.742,1.532-9.467v-4.322q0-4.919,2.04-7.467A7.09,7.09,0,0,1,9.451-23.8a7.1,7.1,0,0,1,5.871,2.524q2.032,2.524,2.081,7.25Zm-4.661-4.752a8.6,8.6,0,0,0-.8-4.254,2.7,2.7,0,0,0-2.492-1.332A2.65,2.65,0,0,0,7.024-18.78a8.047,8.047,0,0,0-.831,3.963V-9.1a9.026,9.026,0,0,0,.782,4.27,2.662,2.662,0,0,0,2.508,1.4,2.618,2.618,0,0,0,2.468-1.34,8.811,8.811,0,0,0,.79-4.1Zm12.548.656h2.484a3.5,3.5,0,0,0,2.629-.887,3.25,3.25,0,0,0,.855-2.355,2.874,2.874,0,0,0-.847-2.21,3.281,3.281,0,0,0-2.33-.79,3.44,3.44,0,0,0-2.242.734,2.346,2.346,0,0,0-.9,1.911H20.273a5.732,5.732,0,0,1,.992-3.3,6.609,6.609,0,0,1,2.774-2.282,9.258,9.258,0,0,1,3.927-.823A8.78,8.78,0,0,1,33.8-22.023a6.08,6.08,0,0,1,2.113,4.911,4.941,4.941,0,0,1-.984,2.968,6.392,6.392,0,0,1-2.58,2.081,5.835,5.835,0,0,1,2.959,2.129,5.775,5.775,0,0,1,.976,3.355,6.181,6.181,0,0,1-2.282,5.016A9.176,9.176,0,0,1,27.966.323a8.7,8.7,0,0,1-5.75-1.855,6.057,6.057,0,0,1-2.234-4.9h4.661a2.7,2.7,0,0,0,.992,2.161,3.655,3.655,0,0,0,2.443.839,3.672,3.672,0,0,0,2.6-.879,3.034,3.034,0,0,0,.943-2.33q0-3.516-3.871-3.516H25.289Z" transform="translate(79.65 84.3)" fill="#fff"/>
      <path id="Trazado_142549" data-name="Trazado 142549" d="M98.57,34.51A36.64,36.64,0,1,1,61.93,71.15,36.64,36.64,0,0,1,98.57,34.51m0-6a42.64,42.64,0,1,0,42.64,42.64A42.64,42.64,0,0,0,98.57,28.51Z" fill="url(#linear-gradient)"/>
    </g>
  </g>
</svg>
