<svg xmlns="http://www.w3.org/2000/svg" xmlns:xlink="http://www.w3.org/1999/xlink" width="87.28" height="87.28" viewBox="0 0 87.28 87.28">
  <defs>
    <linearGradient id="linear-gradient" x1="0.816" y1="0.113" x2="0.184" y2="0.887" gradientUnits="objectBoundingBox">
      <stop offset="0" stop-color="#fff"/>
      <stop offset="0.51" stop-color="#fdfdfd"/>
      <stop offset="0.7" stop-color="#f6f6f6"/>
      <stop offset="0.83" stop-color="#ebebeb"/>
      <stop offset="0.86" stop-color="#e6e6e6"/>
    </linearGradient>
  </defs>
  <g id="num6" transform="translate(-53.93 -28.51)">
    <g id="Grupo_85013" data-name="Grupo 85013" opacity="0.37">
      <path id="Trazado_142548" data-name="Trazado 142548" d="M96.57,36.51A36.64,36.64,0,1,1,59.93,73.15,36.64,36.64,0,0,1,96.57,36.51m0-6a42.64,42.64,0,1,0,42.64,42.64A42.64,42.64,0,0,0,96.57,30.51Z" fill="#15315e"/>
    </g>
    <g id="Grupo_85428" data-name="Grupo 85428">
      <circle id="Elipse_6786" data-name="Elipse 6786" cx="36.84" cy="36.84" r="36.84" transform="translate(61.79 34.31)" fill="#ffa726"/>
      <path id="Trazado_144187" data-name="Trazado 144187" d="M17.4-9.709q0,4.871-2.016,7.451a7.037,7.037,0,0,1-5.9,2.58A7.086,7.086,0,0,1,3.613-2.21Q1.581-4.742,1.532-9.467v-4.322q0-4.919,2.04-7.467A7.09,7.09,0,0,1,9.451-23.8a7.1,7.1,0,0,1,5.871,2.524q2.032,2.524,2.081,7.25Zm-4.661-4.752a8.6,8.6,0,0,0-.8-4.254,2.7,2.7,0,0,0-2.492-1.332A2.65,2.65,0,0,0,7.024-18.78a8.047,8.047,0,0,0-.831,3.963V-9.1a9.026,9.026,0,0,0,.782,4.27,2.662,2.662,0,0,0,2.508,1.4,2.618,2.618,0,0,0,2.468-1.34,8.811,8.811,0,0,0,.79-4.1Zm20.45-9.263v3.838H32.74a7.918,7.918,0,0,0-5.088,1.645,6.684,6.684,0,0,0-2.314,4.435,6.348,6.348,0,0,1,4.725-1.9,5.981,5.981,0,0,1,4.871,2.193,8.793,8.793,0,0,1,1.806,5.774A8.649,8.649,0,0,1,35.748-3.6,7.113,7.113,0,0,1,32.941-.71a8.153,8.153,0,0,1-4.1,1.032,7.615,7.615,0,0,1-5.992-2.58,10.016,10.016,0,0,1-2.282-6.887v-1.677a15.074,15.074,0,0,1,1.443-6.75A10.584,10.584,0,0,1,26.151-22.1a12.146,12.146,0,0,1,6.266-1.621ZM28.643-11.951a3.724,3.724,0,0,0-2.048.588A3.54,3.54,0,0,0,25.24-9.81v1.416a6.276,6.276,0,0,0,.919,3.646,2.971,2.971,0,0,0,2.58,1.312,2.938,2.938,0,0,0,2.427-1.183,4.825,4.825,0,0,0,.927-3.067,4.816,4.816,0,0,0-.935-3.091A3.049,3.049,0,0,0,28.643-11.951Z" transform="translate(79.65 84.3)" fill="#fff"/>
      <path id="Trazado_142549" data-name="Trazado 142549" d="M98.57,34.51A36.64,36.64,0,1,1,61.93,71.15,36.64,36.64,0,0,1,98.57,34.51m0-6a42.64,42.64,0,1,0,42.64,42.64A42.64,42.64,0,0,0,98.57,28.51Z" fill="url(#linear-gradient)"/>
    </g>
  </g>
</svg>
