<svg xmlns="http://www.w3.org/2000/svg" xmlns:xlink="http://www.w3.org/1999/xlink" width="87.28" height="87.28" viewBox="0 0 87.28 87.28">
  <defs>
    <linearGradient id="linear-gradient" x1="0.816" y1="0.113" x2="0.184" y2="0.887" gradientUnits="objectBoundingBox">
      <stop offset="0" stop-color="#fff"/>
      <stop offset="0.51" stop-color="#fdfdfd"/>
      <stop offset="0.7" stop-color="#f6f6f6"/>
      <stop offset="0.83" stop-color="#ebebeb"/>
      <stop offset="0.86" stop-color="#e6e6e6"/>
    </linearGradient>
  </defs>
  <g id="num7" transform="translate(-53.93 -28.51)">
    <g id="Grupo_85013" data-name="Grupo 85013" opacity="0.37">
      <path id="Trazado_142548" data-name="Trazado 142548" d="M96.57,36.51A36.64,36.64,0,1,1,59.93,73.15,36.64,36.64,0,0,1,96.57,36.51m0-6a42.64,42.64,0,1,0,42.64,42.64A42.64,42.64,0,0,0,96.57,30.51Z" fill="#15315e"/>
    </g>
    <g id="Grupo_85428" data-name="Grupo 85428">
      <circle id="Elipse_6786" data-name="Elipse 6786" cx="36.84" cy="36.84" r="36.84" transform="translate(61.79 34.31)" fill="#ffa726"/>
      <path id="Trazado_144189" data-name="Trazado 144189" d="M17.4-9.709q0,4.871-2.016,7.451a7.037,7.037,0,0,1-5.9,2.58A7.086,7.086,0,0,1,3.613-2.21Q1.581-4.742,1.532-9.467v-4.322q0-4.919,2.04-7.467A7.09,7.09,0,0,1,9.451-23.8a7.1,7.1,0,0,1,5.871,2.524q2.032,2.524,2.081,7.25Zm-4.661-4.752a8.6,8.6,0,0,0-.8-4.254,2.7,2.7,0,0,0-2.492-1.332A2.65,2.65,0,0,0,7.024-18.78a8.047,8.047,0,0,0-.831,3.963V-9.1a9.026,9.026,0,0,0,.782,4.27,2.662,2.662,0,0,0,2.508,1.4,2.618,2.618,0,0,0,2.468-1.34,8.811,8.811,0,0,0,.79-4.1Zm23.773-6.419L27.434,0H22.515l9.1-19.724H19.934v-3.758h16.58Z" transform="translate(79.65 84.3)" fill="#fff"/>
      <path id="Trazado_142549" data-name="Trazado 142549" d="M98.57,34.51A36.64,36.64,0,1,1,61.93,71.15,36.64,36.64,0,0,1,98.57,34.51m0-6a42.64,42.64,0,1,0,42.64,42.64A42.64,42.64,0,0,0,98.57,28.51Z" fill="url(#linear-gradient)"/>
    </g>
  </g>
</svg>
