<svg xmlns="http://www.w3.org/2000/svg" xmlns:xlink="http://www.w3.org/1999/xlink" width="87.28" height="87.28" viewBox="0 0 87.28 87.28">
  <defs>
    <linearGradient id="linear-gradient" x1="0.816" y1="0.113" x2="0.184" y2="0.887" gradientUnits="objectBoundingBox">
      <stop offset="0" stop-color="#fff"/>
      <stop offset="0.51" stop-color="#fdfdfd"/>
      <stop offset="0.7" stop-color="#f6f6f6"/>
      <stop offset="0.83" stop-color="#ebebeb"/>
      <stop offset="0.86" stop-color="#e6e6e6"/>
    </linearGradient>
  </defs>
  <g id="num8" transform="translate(-53.93 -28.51)">
    <g id="Grupo_85013" data-name="Grupo 85013" opacity="0.37">
      <path id="Trazado_142548" data-name="Trazado 142548" d="M96.57,36.51A36.64,36.64,0,1,1,59.93,73.15,36.64,36.64,0,0,1,96.57,36.51m0-6a42.64,42.64,0,1,0,42.64,42.64A42.64,42.64,0,0,0,96.57,30.51Z" fill="#15315e"/>
    </g>
    <g id="Grupo_85428" data-name="Grupo 85428">
      <circle id="Elipse_6786" data-name="Elipse 6786" cx="36.84" cy="36.84" r="36.84" transform="translate(61.79 34.31)" fill="#ffa726"/>
      <path id="Trazado_144188" data-name="Trazado 144188" d="M17.4-9.709q0,4.871-2.016,7.451a7.037,7.037,0,0,1-5.9,2.58A7.086,7.086,0,0,1,3.613-2.21Q1.581-4.742,1.532-9.467v-4.322q0-4.919,2.04-7.467A7.09,7.09,0,0,1,9.451-23.8a7.1,7.1,0,0,1,5.871,2.524q2.032,2.524,2.081,7.25Zm-4.661-4.752a8.6,8.6,0,0,0-.8-4.254,2.7,2.7,0,0,0-2.492-1.332A2.65,2.65,0,0,0,7.024-18.78a8.047,8.047,0,0,0-.831,3.963V-9.1a9.026,9.026,0,0,0,.782,4.27,2.662,2.662,0,0,0,2.508,1.4,2.618,2.618,0,0,0,2.468-1.34,8.811,8.811,0,0,0,.79-4.1Zm23.111-2.78A5.462,5.462,0,0,1,35-14.209,6.152,6.152,0,0,1,32.643-12.1,6.81,6.81,0,0,1,35.352-9.83a5.813,5.813,0,0,1,1,3.395,6.155,6.155,0,0,1-2.129,4.943A8.636,8.636,0,0,1,28.434.323,8.675,8.675,0,0,1,22.627-1.5a6.14,6.14,0,0,1-2.145-4.935,5.85,5.85,0,0,1,1-3.4A6.687,6.687,0,0,1,24.176-12.1a6.089,6.089,0,0,1-2.347-2.113,5.5,5.5,0,0,1-.847-3.032,6.086,6.086,0,0,1,2-4.782A7.874,7.874,0,0,1,28.417-23.8a7.926,7.926,0,0,1,5.427,1.766A6.063,6.063,0,0,1,35.852-17.241ZM31.675-6.774a3.381,3.381,0,0,0-.887-2.451,3.163,3.163,0,0,0-2.387-.919,3.157,3.157,0,0,0-2.371.911,3.375,3.375,0,0,0-.887,2.46,3.373,3.373,0,0,0,.871,2.419,3.172,3.172,0,0,0,2.419.919,3.165,3.165,0,0,0,2.379-.887A3.367,3.367,0,0,0,31.675-6.774Zm-.484-10.241a3.226,3.226,0,0,0-.726-2.2,2.575,2.575,0,0,0-2.048-.831,2.593,2.593,0,0,0-2.032.806,3.207,3.207,0,0,0-.726,2.226,3.37,3.37,0,0,0,.726,2.258,2.54,2.54,0,0,0,2.048.855,2.516,2.516,0,0,0,2.04-.855A3.4,3.4,0,0,0,31.191-17.015Z" transform="translate(79.65 84.3)" fill="#fff"/>
      <path id="Trazado_142549" data-name="Trazado 142549" d="M98.57,34.51A36.64,36.64,0,1,1,61.93,71.15,36.64,36.64,0,0,1,98.57,34.51m0-6a42.64,42.64,0,1,0,42.64,42.64A42.64,42.64,0,0,0,98.57,28.51Z" fill="url(#linear-gradient)"/>
    </g>
  </g>
</svg>
